<svg id="グループ_4715" data-name="グループ 4715" xmlns="http://www.w3.org/2000/svg" xmlns:xlink="http://www.w3.org/1999/xlink" width="46.717" height="30.704" viewBox="0 0 46.717 30.704">
  <defs>
    <clipPath id="clip-path">
      <rect id="長方形_433" data-name="長方形 433" width="46.717" height="30.704" fill="#ed6a1f"/>
    </clipPath>
  </defs>
  <g id="グループ_627" data-name="グループ 627" transform="translate(0 0)" clip-path="url(#clip-path)">
    <path id="パス_887" data-name="パス 887" d="M.144,19.957l.542-.207q.016.367.032.733a3.208,3.208,0,0,0,.931.327c-.16-.491-.061-.414-.573-.524.053-.187.106-.372.16-.558a1.418,1.418,0,0,1-.565-.343l-.183.008c.055-.124.111-.251.167-.374-.061,0-.123,0-.183.008,0-.061,0-.122-.008-.183l.182-.008c0-.122-.01-.244-.015-.365l.557.158c-.006-.122-.01-.243-.016-.365-.708-.059-.52-.2-1.115-.32.039-.418,0-.473.153-.74l.183-.008c-.008-.184-.016-.366-.023-.549l.183-.008c-.008-.183-.016-.367-.024-.55l.184-.007c.053-.187.106-.371.159-.557a1.488,1.488,0,0,1-.588-.892c.183-.009.366-.016.549-.023-.006-.123-.01-.245-.016-.366l.549-.025c0-.061,0-.122-.008-.183l-.55.024c0-.06,0-.122-.007-.183l-.183.008c0,.061,0,.122.008.182l-.184.007c0-.121-.01-.244-.015-.366L.968,13.5c-.006-.122-.01-.245-.016-.367l-.183.008a.32.32,0,0,1,.167-.374L.715,11.86l-.542.207c.052-.186.106-.372.16-.558-.061,0-.123,0-.183.008l-.008-.182.542-.206c.046-.37.091-.739.136-1.109.122,0,.244-.009.366-.015,0-.061,0-.122-.008-.184l-.549.024c.053-.185.106-.372.159-.557L.971,9.28c-.057-.3-.26-.2-.4-.718.308.048.616.1.924.145,0-.062,0-.123-.008-.184l.916-.039c.066.119.132.239.2.359l2.2-.095c0,.061,0,.122.008.183l1.465-.064c0-.061,0-.121-.008-.182l2.03.28c0-.122-.01-.245-.015-.365.5.084.824.511,1.48.3l-.008-.183L10.3,8.7c0-.061-.006-.122-.008-.182l.183-.008.2.357c.4.12,1.52-.383,1.816-.443,0,.061,0,.122.008.182l.183-.008c0-.061-.006-.122-.008-.183q2.11,0,4.219,0c.066.12.133.24.2.359l.184-.008-.008-.184,1.282-.055.2.359c.3-.074.6-.149.908-.222l.008.184.366-.015c0,.06,0,.122.008.182.219.035.3-.309.724-.213,0,.061,0,.122.008.182,1.221-.052,2.531-.551,3.752-.6,0,.061.006.122.008.183l.549-.023c0,.061.006.122.008.184l1.283-.055c0,.061,0,.122.008.182l.915-.039.008.183,1.1-.048c0-.06-.006-.122-.008-.183l.183-.008c0,.061,0,.122.008.183l1.458-.246c0,.061,0,.122.007.183l.55-.023c0-.06-.006-.122-.008-.183.356-.424-.153.181.011-.468l.182-.008c-.013-.3-.026-.61-.039-.916l.183-.007a11.963,11.963,0,0,0-.454-3.759q-.042-1.006-.086-2.016l.184-.007L30.92.924l.366-.016c.111-.25-.252-.567-.14-.816a3.05,3.05,0,0,1,1.491,0l.207.541L33.218.8,33.21.62l.183-.008c.316.7.367-.45,1.24-.319l-.159.558c.62.039.951.115,1.2.52l.183-.008-.16.557.732-.031.031.732c.794.2.493.133.4.716l.182-.008c.01.244.021.488.032.733l.915-.039L38,4.208l.183-.008c-.056.125-.111.249-.168.374.074.249.132-.077.191.175l-.183.008c0,.061,0,.122.008.184l.183-.008q.107.361.213.725c.372.093.413-.47.631-.271l.183-.008q-.083.187-.167.372l.183-.007c0,.122.01.245.015.368.37.094.157-.032.374.166l.183-.008c0,.061.006.122.008.182l-.365.015q.011.277.023.55L40.048,7c.008.184.016.366.023.55.183-.008.367-.015.549-.023.008.183,1.474.584,1.482.767.122,0-.012.428.111.423.184.556.47.665.779,1.066l.184-.008c.008.183.016.367.024.55l-.551.023c0,.061,0,.122.008.184l-.183.007c0,.06.006.122.008.182a3.6,3.6,0,0,0,1.473.122,5.376,5.376,0,0,1,.8,1.435c.37.094.156-.032.374.166l.182-.008c.014.305.026.611.039.916l.184-.008c.006.122.01.243.016.366l.182-.008.031.732c.126.6.485.676.955.877a2.1,2.1,0,0,1-.478,1.67l-.36.2c-.16.292.089.546-.151.739-.142.116-.627,0-.725.215l.214.725-.182.008.008.184-.55.023c-.014.465.025.646-.144.924L44.164,20c0,.123.01.245.015.368l-.358.2c.008.182.015.365.023.549-.18.07-1.684.056-1.865.124q-.079.279-.16.557l-.182.008c-.37.476.294-.428.169.285a7.985,7.985,0,0,0-1.874,1.48l-.184.009c.008.183.015.366.023.551a2.129,2.129,0,0,0-.716.4c0,.061,0,.122.008.184l-.557-.16c-.009.792-.087.627-.319,1.116l-.908.221c.01.245.021.489.032.732-.735.238-.38.464-1.259.6-.191.926-.5.48-.876.955q.1.178.2.359l-.541.207.2.357-.182.008c0,.061.006.124.008.184-.247-.05-.494-.1-.74-.153q-.081.28-.16.559a1.687,1.687,0,0,0-.717.4c0,.061,0,.122.008.184l-.732.032c0,.061,0,.122.008.184l-.367.015c0,.061.006.121.008.183l-.183.008c0-.061,0-.122-.008-.183-.306.013.053.061-.252.075-.007-.183-.015-.368-.023-.55a1.084,1.084,0,0,1-.963-1.059c.061,0,.122-.006.184-.008l-.008-.184-.183.008c0-.122-.01-.245-.016-.366l-.732.031q-.028-.64-.055-1.282l.366-.017a4.88,4.88,0,0,0-.214-.723l.183-.008c-.006-.122-.011-.245-.016-.365l.366-.016a6.4,6.4,0,0,1,.128-1.291l-.549.023a2.448,2.448,0,0,1,.128-1.289l.359-.2c-.119-.426-.3-.142-.406-.9l-2.007.269c0-.061,0-.122-.008-.184-.245.01-1.153-.014-1.4,0,0-.06,0-.122-.008-.182l-1.091.231c0-.06,0-.122-.008-.184-.557-.042-.385.332-.535.39l-1.289-.128L21,22.917,21,22.734c-.406-.025-.483.234-.716.4,0,.061,0,.121.008.182l-.916.039c0-.061-.006-.122-.008-.183-.235-.021-.292.312-.725.215,0-.061-.006-.122-.008-.183l-.733.031c0-.061-.006-.122-.008-.183l-.55.023c0-.061,0-.122-.008-.183-.166-.019-.68.437-1.091.231,0-.061,0-.122-.008-.184l-.183.008c.053-.185.106-.372.16-.556l-.184.007a1.8,1.8,0,0,0-.152.741l-2.389-.082c0-.06,0-.122-.008-.183l-1.107-.137-.008-.182a.49.49,0,0,0-.542.206l-1.473-.12c-.006-.122-.01-.245-.016-.366-.318.066-.359.2-.359.2-.358.118-.609-.22-.74-.153,0,.062,0,.122.008.184a1.145,1.145,0,0,1-1.13-.685l-.366.015c0,.061.006.123.008.182l-.184.008a.733.733,0,0,0,.383.351,1.1,1.1,0,0,1-1.274.239c0-.061-.006-.122-.008-.184l-.908.222-.2-.358c-.257-.041.075.124-.176.191l-.549.023c0,.062.006.123.008.184l-.74-.151c0,.122.01.245.015.367l-.367.015c.006.123.01.244.016.366a5.4,5.4,0,0,0-1.29-.128q-.019-.458-.039-.916a3.506,3.506,0,0,0-1.274.238l-.6-1.075-.367.015q-.012-.274-.023-.549L0,20.88c.048-.307.1-.616.144-.924m45.473-4.6c.008.184.016.366.023.55.569-.2.27-.113.915-.039,0-.122-.01-.244-.015-.367-.845-.071-.461-.154-.939-.509-.056.123-.112.249-.169.374l.184-.008M37,15.078l.367-.016c-.006-.122-.01-.245-.016-.367l-.367.016c.006.122.011.245.016.367m-2.74,13.144s.058.025.35-.383c-.046.047-.493.211-.35.383m-3.425-5.478.366-.015c-.125-.361.019-.16-.2-.36,0-.06-.669-.156-.672-.218l-.183.008c.007.184.68.4.687.585m-1.509-11.19c-.361.124-.159-.019-.359.2.361-.126.159.019.359-.2m-4.2,4.765.183-.007c0-.061-.006-.122-.008-.183l.184-.008c0-.061-.006-.122-.008-.182l-.366.015c.006.122.011.245.016.366m-.227-5.31c0-.061,0-.122-.008-.184l-.55.023c-.054.187-.106.371-.16.557l.549-.023c.095-.37-.032-.157.168-.374m-.689,5.35c0,.061.006.122.008.183.276-.082.784-.255.709-.581-.058-.252-.151.082-.191-.175l-.549.023c0,.061,0,.122.008.183L24.012,16c.125.361-.019.16.2.359m-1.083.412.366-.015-.008-.182c-.37-.1-.156.031-.374-.169l-.183.009.2.357m-2.007.269,1.641-.254c-.3-.256-1.089-.156-1.657-.112,0,.122.01.244.016.365m-.748-.334c-.361.125-.159-.019-.359.2.361-.126.159.017.359-.2m-.44,2.587.184-.008c0,.061,0,.122.008.184l.182-.009c-.007-.183-.015-.366-.023-.55l-.358.2c0,.061,0,.122.008.184m-.293-2.556c-.361.125-.158-.019-.359.2.361-.126.159.018.359-.2M13.473,9.845l-.557-.158c.008.182.016.365.023.548.361-.126.158.019.359-.2l.184-.008c0-.06-.006-.122-.008-.183m2.106,6.331.183-.007c0,.061.006.122.008.183l.184-.008c-.008-.183-.015-.365-.023-.549l.182-.009c0-.061-.006-.122-.008-.183l-.182.008c0-.061-.006-.122-.008-.183l-.184.008c.008.183.016.366.024.55l-.183.008c0,.06,0,.121.008.182m-.991-6.012.366-.015c0-.123-.01-.244-.015-.367l-.366.017c0,.122.01.243.015.365M13.42,17.187c-.008-.182-.016-.365-.024-.549.361-.126.159.019.359-.2l.183-.008c-.131-.439-.211-.394-.4-.718l-.366.017c0,.616.037.671-.327.931.161.492.061.415.573.526m-.879-7.669.366-.016c0-.122-.01-.243-.015-.365l-.367.015c.006.122.01.244.016.366m-.61,7.182c0,.061,0,.122.008.184l.183-.008c-.006-.123-.01-.245-.016-.367-.361.126-.159-.019-.359.2l.183-.008M10.909,9.955l-.55.024.008.182.557.16c0-.122-.01-.244-.015-.366M10.5,21.9l.183-.008c0-.06,0-.122-.008-.182l.183-.009c-.067-.118-.133-.239-.2-.358-.251.229-.478.227-.16.557m-.785-5.471.557.16c0-.122-.01-.245-.016-.366l-.549.023c0,.061,0,.122.008.183m-.916.039c.327.142.455-.124.542-.206l-.55.024c0,.059.006.12.008.182m-1.663-.295.182-.008c-.006-.122-.01-.245-.015-.367l-.183.008c.006.122.01.245.016.367m-1.7-5.432c.361-.126.16.018.359-.2l.183-.008c-.069-.18-.137-.361-.207-.54l-.366.016q.016.365.031.732m-1.449.428c0-.06-.006-.121-.008-.182l.183-.008c-.008-.183-.016-.367-.024-.551l.367-.016c-.006-.122-.01-.242-.016-.365L3.567,9.9c.011.245.021.488.032.732l-.367.015.207.542.55-.023m-.427,7.174.183-.008-.008-.182-.183.007c0-.061,0-.122-.008-.183l-.183.009c-.054.185-.106.371-.159.556.361-.126.158.019.358-.2m-1.992.636-.182.009L1.379,18.8,1.02,19c0,.061.006.122.008.184.1-.018.763.073.541-.208m.4.718-.183.008c0-.061,0-.122-.008-.184l-.183.008c0,.122.01.244.015.367.361-.125.159.019.359-.2" transform="translate(0 0)" fill="#ed6a1f" fill-rule="evenodd"/>
  </g>
</svg>
