<?xml version="1.0" encoding="UTF-8"?>
<svg id="_レイヤー_1" xmlns="http://www.w3.org/2000/svg" viewBox="0 0 2040.94 1785.83">
  <defs>
    <style>
      .cls-1 {
        fill: #f09494;
      }

      .cls-2 {
        fill: none;
      }

      .cls-3 {
        fill: #f6edc1;
      }

      .cls-4 {
        fill: #f7d07e;
      }

      .cls-5 {
        fill: #e27170;
      }
    </style>
  </defs>
  <path class="cls-5" d="M192.57-.49c-4.7,0-7.7,4.1-6.6,8.6,1.1,4.7,5.4,6.6,9.9,5.4,3.9-1,6-3.9,4.5-7.8-1.3-3.4-3.9-6.3-7.8-6.3v.1Z"/>
  <path class="cls-5" d="M411.27,18.41c3.5,2,7.8,0,9.9-3.2,2.4-3.6,1.3-7.7-2.4-9.8-3.7-2.2-8.7-.6-10.5,3.2-1.7,3.5-.3,7.8,3,9.8.9.5-3.6-2.1,0,0Z"/>
  <path class="cls-5" d="M132.07,11.41c-4.1,0-7.7,3.5-7.5,7.6.2,3.6,2.8,8.1,6.6,9.1,4.4,1.1,8.2-3.5,9.1-7.3,1.2-4.8-3.6-9.4-8.2-9.4Z"/>
  <path class="cls-5" d="M349.27,30.61c-.4,5,3.8,8.3,8.5,8,3.5-.2,5.9-1.7,6.3-5.3.5-4.2-1.1-8.4-5.6-9.5-4.4-1-8.9,2.2-9.2,6.8-.2,2.1.3-3.9,0,0h0Z"/>
  <path class="cls-5" d="M478.77,27.81c4.4,0,7.9-3.9,7.5-8.3-.4-3.8-4.2-7.4-8-7.7-4.7-.4-7.1,4.3-7,8.5.1,4.1,3.3,7.5,7.5,7.5Z"/>
  <path class="cls-5" d="M234.87,11.21c-2-3.5-6.7-4.8-10.3-2.8-3.6,2.1-2.8,6.5-1.2,9.6,2.1,3.9,5.7,5.9,9.6,2.8,2.9-2.3,3.7-6.5,1.8-9.6-1.3-2.3,2.1,3.6,0,0h.1Z"/>
  <path class="cls-5" d="M279.17,9.71c2.8,0,5.7-.8,6.4-3.9,1-4.6-2.6-9.2-7.4-9.2s-8.1,4-7.5,8.4c.6,4,5.1,4.8,8.4,4.8l.1-.1Z"/>
  <path class="cls-5" d="M339.27,11.61c3.8,0,9.1-3.5,9.7-7.4.6-4.2-2.4-8.7-6.6-9.4-4.6-.7-7.7,2.5-8.2,6.8-.4,3.6.3,10,5.2,10h-.1Z"/>
  <path class="cls-5" d="M88.57,22.41c4.6,0,7.4-3.8,7.5-8.1.1-3.7-1.5-8.2-5.7-8.5-4.1-.4-9.4,2.9-9.8,7.3-.5,4.6,3.2,9.4,8,9.4v-.1Z"/>
  <rect class="cls-2" x="20.27" y="-1328.89" width="2000.3" height="3206.8"/>
  <path class="cls-3" d="M1677.17,1170.51c-2.7-3-5-6.3-7.7-9.2-3.8-4.1-7.7-8.1-12.1-11.6-8.8-7-18.3-13.4-28.7-17.7-7.3-3-15-4.9-22.8-5.7-11.4-1.2-23.5-1.3-34.7,1.6-5.2,1.3-10.3,2.8-15.4,4.5-1.1.4-1.7,1.1-2.3,0-.1-.3,2.8-1.5,3.2-1.7,10.1-4.8,20.3-7.9,31.3-9.7,19-3.2,38.6.5,56.1,8,9.1,3.9,17.8,11.2,23.5,19.2,3,4.2,6,8.6,7.9,13.5.9,2.2,1.5,4.6,2.2,6.9.4,1.2.7,1.4-.4,2.1l-.1-.2Z"/>
  <path class="cls-3" d="M1656.77,1230.91c-3.4-9.9-7.1-19.6-12.4-28.6-5.9-10.2-12.7-20.5-21-28.9-16.4-16.8-39.2-28.3-62.9-29.5-2.4-.1-4.9-.2-7.3-.1-.7,0-1.1.3-1.1-.5,0-.9.9-.6,1.6-.7,5.2-.5,10.3-.9,15.6-.6,11.9.7,23.4,3.7,34.2,8.6,10.8,4.9,20.6,12,29.3,20.1,8.7,8.2,15.8,17.6,20.2,28.8,2.3,5.9,4,12.1,4.7,18.4.3,2.9.5,5.9.4,8.8,0,1.1-.2,2.3-.3,3.4,0,.8-.2.6-1,.7v.1Z"/>
  <path class="cls-3" d="M1618.27,1053.61c-4,1.2-8.2,2-12.3,2.9-5.8,1.2-11.5,2.7-17.2,4.1-5.2,1.4-10.4,2.8-15.3,4.9-3.9,1.7-7.4,3.9-10.7,6.5-3.2,2.2-5.7,5.5-8.2,8.4-3.6,4.2-6.4,9.5-8.6,14.5-2.1,4.9-3.8,9.9-5.3,15.1-.3,1.1-.6,2.3-1,3.4,0,.1-.2,1.1-.3,1.2-1.5.8-.7-2.2-.7-2.5,1.2-10.3,3.4-20.6,8.1-29.9,4.1-8.2,9.7-15.2,17.1-20.7,8.8-6.6,18.7-10.8,29.7-11.6,5.2-.4,10.5-.2,15.7.6,2.4.4,4.8.9,7.1,1.6,1.3.3,1.9.1,1.9,1.5h0Z"/>
  <path class="cls-3" d="M1365.87,1195.31c-.3-10.4,2.4-19.9,7.9-28.7,5.9-9.6,15.1-17.2,25.1-22.2,21.4-10.6,46.4-13.6,70-11.7,10.9.9,21.6,2.8,32.1,5.5.8.2,2.3.2,2.1,1-.2.9-2,.2-2.8,0-5.2-.8-10.4-1.4-15.6-1.8-23.7-1.9-48.8.3-70.8,9.9-5.8,2.5-11.3,5.8-16.6,9.4-5.2,3.5-10.4,7.4-14.7,12.1-4.2,4.6-7.7,9.4-10.9,14.9-1.2,2.4-2.3,4.8-3.4,7.3-.5,1.2-.9,2.5-1.4,3.8-.3.8-.3.6-1.2.5h.2Z"/>
  <path class="cls-3" d="M1436.97,1281.91c-15.2-17-19.3-41.1-11.5-62.4,8.2-22.5,25.1-40.6,46-51.9,5.1-2.7,10.4-5.2,15.8-7.1,2.4-.9,4.9-1.7,7.3-2.4,1-.3,2-.6,3-.8,1-.3,1.1-.5,1.4.5,0,.2-11,4.9-12.1,5.4-5.1,2.5-10,5.4-14.7,8.6-9.7,6.6-18.3,14.8-25.3,24.3-7.1,9.8-11.7,20.8-14,32.7-1.9,10-2.4,20.2-1,30.3.6,4.6,1.6,9.1,2.9,13.5.6,2.1,1.3,4.2,2,6.2.3.8.5,1.5.8,2.3.2.5-.3.5-.7.8h.1Z"/>
  <path class="cls-3" d="M1609.97,1348.01c5-22.6.8-45.4-4-67.7-5.1-23.9-14.5-46.9-28.1-67.3-4.9-7.3-10.5-14.4-17-20.4-2.9-2.7-5.9-5.1-9.2-7.4-1.5-1-3-2-4.6-2.8-1.2-.7-2.1-.6-1.4-1.9,4.3,2,8.3,4.1,12.2,6.7,4.7,3.2,9,7,13.1,10.9,8.5,8.2,15.6,18,21.7,28,6.3,10.3,11.6,21.3,16,32.6,4.5,11.5,8.4,23.2,10.2,35.5,1.6,10.5,1.8,21.4.1,31.9-.8,4.7-1.9,9.4-3.7,13.9-.8,2-1.7,4-2.8,5.8-.5.8-1,1.6-1.5,2.4-.2.4-.7,0-1-.2h0Z"/>
  <path class="cls-3" d="M1519.27,1336.51c-17.4-13.6-25.5-36.9-28-58.2-1.5-12.4-1.4-25.1-.5-37.6.9-12.3,2.7-24.6,5.9-36.5,3-11.2,7.2-22.5,13.3-32.4,2.8-4.4,5.8-8.8,9.5-12.5l2.5-2.5c.5-.5.5-.3,1,.2.3.3-3.2,4-3.5,4.6-13.6,19-18.6,42.6-20.5,65.5-1.7,20.3.6,40.4,4.1,60.5,1.6,9.3,3.8,18.5,6.8,27.4,1.5,4.4,3.3,8.6,5.4,12.8,1,2,2.2,4,3.4,5.8.5.7.9,1.4,1.3,2.1.2.4-.3.6-.6.9l-.1-.1Z"/>
  <path class="cls-3" d="M1376.47,1118.61c4.7-9,11.5-15.9,20.4-20.9,10.2-5.7,22.1-7.9,33.7-7.3,24.1,1.3,47.2,11.2,67,24.5,9,6,17.2,13,25,20.5.9.8,1.6,1,.8,1.9-.2.3-2.4-1.7-2.7-1.9-4.2-3.2-8.5-6.4-12.9-9.3-19.9-13.2-43.1-23.8-67.2-25.8-6.4-.5-12.9-.3-19.3.3-6,.6-12.2,1.4-17.9,3.4-5.8,1.5-11.1,4.4-16.2,7.4-2.2,1.5-4.4,3.1-6.5,4.7-1.1.8-2,1.7-3,2.6-.7.6-.6.4-1.3-.2l.1.1Z"/>
  <path class="cls-4" d="M564.67,117.31c-4-8.2-4.7-18.2-4.5-27.2.1-5.1.7-10.3,1.9-15.3.5-2.1,1.1-4.2,1.9-6.3,0,0,1.2-2.7,1.2-1.5.2,9.1.3,18.1.3,27.2,0,5.1,0,10.1-.1,15.2,0,2.2,0,4.3-.1,6.5,0,.3.1,2.3-.6,1.4h0Z"/>
  <path class="cls-4" d="M554.07,121.91c-5.4-6.9-10.7-13.8-15.9-20.8-3.2-4.4-6.5-8.8-9.7-13.2-1.4-1.9-2.7-3.7-4.1-5.6-.3-.4-1.8-1.9-1.7-2.5.1-.7,2.8,1.3,2.9,1.4,2.1,1.4,4,2.9,5.8,4.6,4,3.4,7.5,7.4,10.7,11.6,3.4,4.4,6.5,9.3,8.9,14.3,1,2.2,2,4.4,2.7,6.7.3.9.6,1.8.8,2.7,0,.1.2,1.4-.3.8h-.1Z"/>
  <path class="cls-4" d="M547.17,131.21c-18-7.1-35.9-14.3-53.7-21.9-1.2-.5-2.4-1-3.7-1.6-1.2-.5.7-.6,1.1-.6,4.8.3,9.5,1.3,14.1,2.4,10.4,2.7,20.5,6.8,29.7,12.2,3,1.7,5.9,3.6,8.6,5.6,1.1.8,2.1,1.6,3.1,2.5,0,0,1.6,1.6.6,1.3l.2.1Z"/>
  <path class="cls-4" d="M545.87,142.61c-19.5.2-39,.3-58.4.2-4.5,0-9.1,0-13.6-.1-.4,0-1.7.2-2.1-.1-.4-.4,3.8-1.5,4.2-1.6,10.3-2.5,21-3.2,31.6-3.4,7.5-.2,15.1.4,22.5,1.3,3.5.4,6.9,1,10.4,1.8,1.3.3,2.6.6,3.9,1,.5.2,1,.3,1.5.5.2,0,.6.6,0,.6v-.2Z"/>
  <path class="cls-4" d="M539.47,153.21c-6.4,7.4-14.4,13.2-22.7,18.3-8.8,5.4-18.5,10-28.6,12.5-1,.2-1.9.4-2.9.6-.2,0-1.3,0-.6-.4.2-.5,2-1.2,2.5-1.5,4.2-2.5,8.4-5,12.6-7.5,9.7-5.7,19.5-11.3,29.3-16.9,2.6-1.5,5.2-2.9,7.8-4.4.3-.1,2.9-1.8,2.5-.7h.1Z"/>
  <path class="cls-4" d="M559.77,160.11c-9.5,17.1-19.2,34-29.2,50.8-.7,1.2-1.4,2.3-2.1,3.5-.8,1.3-.4-1.3-.3-1.6.9-4.8,2.7-9.4,4.5-13.9,4.1-10,9.8-19.5,16.4-28,1.9-2.6,4.1-5.1,6.4-7.4,1-1,1.9-1.9,3-2.8,0,0,1.8-1.4,1.3-.5v-.1Z"/>
  <path class="cls-4" d="M571.17,161.41c4.1,8.1,4.8,18.1,4.5,27-.1,4.8-.8,9.5-1.9,14.1-.5,2.3-1.2,4.5-2.2,6.7,0,.2-1,2-1,.8-.2-9-.3-18-.2-27,0-4.9,0-9.8.1-14.6,0-2,0-3.9.1-5.9,0-.3,0-1.9.6-1.1h0Z"/>
  <path class="cls-4" d="M581.77,156.81c7.5,6.4,13.2,14.4,18.3,22.7,5.4,8.8,10,18.5,12.5,28.6.2,1,.4,1.9.6,2.9,0,.2,0,1.3-.4.6-.5-.2-1.2-2-1.5-2.5-2.5-4.2-5-8.4-7.5-12.6-5.7-9.7-11.3-19.5-16.9-29.3-1.5-2.6-2.9-5.2-4.4-7.8-.1-.3-1.8-2.9-.7-2.5v-.1Z"/>
  <path class="cls-4" d="M588.67,147.51c17.1,9.5,34,19.2,50.8,29.2,1.2.7,2.3,1.4,3.5,2.1,1.3.8-1.3.4-1.6.3-4.8-.9-9.4-2.7-13.9-4.5-10-4.1-19.4-9.8-28-16.4-2.6-1.9-5.1-4.1-7.4-6.4-1-1-1.9-1.9-2.8-3,0,0-1.4-1.8-.5-1.3h-.1Z"/>
  <path class="cls-4" d="M590.47,136.91c9.7-1.6,19.5-.9,29.2.5,10.2,1.5,20.6,4.2,29.9,8.8.9.4,1.7.9,2.6,1.4.1,0,1,.8.2.7-.5.3-2.3-.4-2.9-.5-4.8-.8-9.7-1.6-14.5-2.4-11.1-1.9-22.2-3.9-33.3-5.9-2.9-.5-5.9-1.1-8.8-1.7-.3,0-3.4-.5-2.4-1v.1Z"/>
  <path class="cls-4" d="M585.37,125.41c6.8-7,16-11.8,24.8-15.7,9.1-4.1,19.5-7.6,29.5-7.9,1,0,.2.6-.2.8-1.6.7-3.3,1.5-4.9,2.2-4.7,2.1-9.4,4.2-14.1,6.2-10.1,4.4-20.2,8.8-30.3,13-1.2.5-2.5,1-3.7,1.5-.4.2-1.4.7-1-.2l-.1.1Z"/>
  <path class="cls-4" d="M576.17,118.61c5.1-7.1,10.3-14.1,15.5-21.1,3.3-4.3,6.6-8.7,9.9-13,1.4-1.8,2.8-3.7,4.2-5.5.3-.4,1.3-2.3,2-2.4.7,0-.6,3.3-.6,3.6-.8,2.5-1.9,5-3,7.3-2.4,4.8-5.3,9.5-8.6,13.7-3.3,4.3-7,8.4-11.1,12-1.7,1.5-3.5,2.9-5.4,4.2-.7.5-1.5,1-2.2,1.4-.2,0-1,.3-.6-.2h-.1Z"/>
  <path class="cls-4" d="M1462.47,199.81c-3.5-7.2-4.2-16-4-23.8,0-4.5.6-9,1.7-13.4.4-1.9,1-3.7,1.7-5.5,0,0,1.1-2.4,1.1-1.3.1,7.9.3,15.9.2,23.8v13.3c0,1.9,0,3.8-.1,5.7,0,.2.1,2-.5,1.2h-.1Z"/>
  <path class="cls-4" d="M1453.17,203.91c-4.7-6-9.3-12.1-14-18.2-2.8-3.8-5.7-7.7-8.5-11.5-1.2-1.6-2.4-3.3-3.6-4.9-.3-.4-1.6-1.7-1.5-2.2,0-.6,2.4,1.1,2.6,1.2,1.8,1.2,3.5,2.6,5.1,4,3.5,3,6.5,6.5,9.4,10.2,3,3.9,5.7,8.1,7.8,12.6.9,1.9,1.7,3.9,2.4,5.9.3.8.5,1.6.7,2.4,0,.1.2,1.3-.3.7l-.1-.2Z"/>
  <path class="cls-4" d="M1447.17,212.01c-15.8-6.2-31.5-12.6-47.1-19.2-1.1-.5-2.1-.9-3.2-1.4s.6-.5,1-.5c4.2.2,8.3,1.1,12.4,2.1,9.1,2.3,18,5.9,26.1,10.7,2.6,1.5,5.2,3.1,7.6,4.9.9.7,1.9,1.4,2.8,2.2,0,0,1.4,1.4.6,1.1l-.2.1Z"/>
  <path class="cls-4" d="M1445.97,222.11c-17.1.2-34.2.2-51.3.1-4,0-8,0-12-.1-.3,0-1.5.2-1.8,0-.4-.4,3.4-1.3,3.7-1.4,9.1-2.2,18.4-2.8,27.7-3,6.6-.1,13.2.3,19.8,1.1,3,.4,6.1.9,9.1,1.6,1.1.3,2.3.5,3.4.9.4.1.9.3,1.3.4.2,0,.6.5,0,.5l.1-.1Z"/>
  <path class="cls-4" d="M1440.37,231.31c-5.6,6.5-12.6,11.6-19.9,16.1-7.7,4.7-16.2,8.8-25.1,10.9-.8.2-1.7.4-2.5.5-.1,0-1.1,0-.5-.4.2-.5,1.8-1.1,2.2-1.3,3.7-2.2,7.4-4.4,11.1-6.6,8.5-5,17.1-9.9,25.7-14.8,2.3-1.3,4.6-2.6,6.9-3.9.2-.1,2.6-1.6,2.2-.7l-.1.2Z"/>
  <path class="cls-4" d="M1458.17,237.41c-8.4,15-16.9,29.8-25.7,44.6-.6,1-1.2,2-1.8,3-.7,1.1-.3-1.2-.3-1.4.8-4.2,2.4-8.3,4-12.2,3.6-8.8,8.6-17.1,14.4-24.6,1.7-2.3,3.6-4.4,5.6-6.5.8-.8,1.7-1.7,2.6-2.5,0,0,1.6-1.2,1.2-.4h0Z"/>
  <path class="cls-4" d="M1468.17,238.51c3.6,7.1,4.2,15.9,4,23.7-.1,4.2-.7,8.4-1.7,12.4-.5,2-1.1,4-1.9,5.8,0,.2-.8,1.8-.9.7-.1-7.9-.3-15.8-.2-23.7,0-4.3,0-8.6.1-12.8v-5.2c0-.3,0-1.6.5-.9h.1Z"/>
  <path class="cls-4" d="M1477.47,234.51c6.5,5.6,11.6,12.6,16.1,19.9,4.7,7.7,8.8,16.2,10.9,25.1.2.8.4,1.7.5,2.5,0,.1,0,1.1-.4.5-.5-.2-1.1-1.8-1.3-2.2-2.2-3.7-4.4-7.4-6.6-11.1-5-8.5-9.9-17.1-14.8-25.7-1.3-2.3-2.6-4.6-3.9-6.9-.1-.2-1.6-2.6-.7-2.2l.2.1Z"/>
  <path class="cls-4" d="M1483.57,226.41c15,8.3,29.8,16.9,44.6,25.7,1,.6,2,1.2,3,1.8,1.1.7-1.2.3-1.4.3-4.2-.8-8.3-2.4-12.2-4-8.8-3.6-17.1-8.6-24.6-14.4-2.3-1.7-4.4-3.6-6.5-5.6-.8-.8-1.7-1.7-2.5-2.6,0,0-1.2-1.6-.4-1.2Z"/>
  <path class="cls-4" d="M1485.17,217.11c8.5-1.4,17.2-.8,25.6.5,9,1.3,18.1,3.7,26.2,7.7.8.4,1.5.8,2.3,1.2.1,0,.8.7.2.6-.4.2-2.1-.3-2.5-.4-4.2-.7-8.5-1.4-12.7-2.1-9.8-1.7-19.5-3.4-29.2-5.2-2.6-.5-5.2-1-7.7-1.5-.2,0-3-.4-2.1-.9l-.1.1Z"/>
  <path class="cls-4" d="M1480.67,207.01c5.9-6.1,14.1-10.3,21.8-13.8,7.9-3.6,17.1-6.7,25.9-6.9.9,0,.2.5-.2.7-1.4.7-2.9,1.3-4.3,1.9-4.2,1.9-8.5,3.8-12.7,5.6-8.9,3.9-17.8,7.7-26.7,11.4-1,.4-2,.8-3,1.3-.3.1-1,.5-.7-.2h-.1Z"/>
  <path class="cls-4" d="M1472.57,201.01c4.5-6.2,9.1-12.4,13.6-18.5,2.9-3.8,5.8-7.6,8.7-11.4,1.2-1.6,2.5-3.2,3.7-4.8.3-.4,1.2-2,1.7-2.1.6,0-.5,2.9-.6,3.2-.7,2.2-1.6,4.4-2.7,6.4-2.1,4.2-4.6,8.3-7.5,12-2.9,3.8-6.1,7.4-9.7,10.5-1.5,1.3-3.1,2.6-4.8,3.7-.6.4-1.3.8-2,1.2-.2,0-.9.3-.5-.2h.1Z"/>
  <path class="cls-4" d="M1903.47,1268.81c-4.3-8.8-5.1-19.7-4.9-29.3.1-5.5.8-11.1,2.1-16.5.5-2.3,1.2-4.6,2.1-6.7,0,0,1.3-2.9,1.3-1.6.2,9.8.3,19.5.3,29.3,0,5.5,0,10.9-.1,16.4,0,2.3,0,4.6-.1,7,0,.3.1,2.5-.6,1.5l-.1-.1Z"/>
  <path class="cls-4" d="M1892.07,1273.71c-5.8-7.4-11.5-14.9-17.2-22.4-3.5-4.7-7-9.5-10.5-14.2-1.5-2-2.9-4-4.4-6-.3-.5-2-2.1-1.9-2.7.1-.7,3,1.4,3.1,1.5,2.2,1.5,4.3,3.2,6.3,4.9,4.3,3.7,8,8,11.5,12.5,3.7,4.8,7,10,9.6,15.5,1.1,2.4,2.1,4.8,2.9,7.2.3,1,.6,1.9.9,2.9,0,.1.2,1.5-.4.9l.1-.1Z"/>
  <path class="cls-4" d="M1884.67,1283.71c-19.4-7.6-38.7-15.4-57.9-23.6-1.3-.6-2.6-1.1-3.9-1.7-1.3-.6.7-.6,1.2-.6,5.2.3,10.2,1.3,15.2,2.6,11.2,2.9,22.1,7.3,32,13.1,3.2,1.9,6.3,3.8,9.3,6.1,1.2.9,2.3,1.8,3.4,2.7,0,0,1.7,1.8.7,1.4Z"/>
  <path class="cls-4" d="M1883.27,1296.11c-21,.3-42,.3-63,.2-4.9,0-9.8,0-14.7-.2-.4,0-1.9.2-2.2-.1-.5-.5,4.1-1.6,4.5-1.7,11.1-2.7,22.6-3.4,34-3.7,8.1-.2,16.2.4,24.3,1.4,3.7.5,7.5,1.1,11.2,1.9,1.4.3,2.8.6,4.2,1.1.5.2,1.1.3,1.6.5.2,0,.7.6.1.6h0Z"/>
  <path class="cls-4" d="M1876.37,1307.51c-6.9,8-15.5,14.3-24.5,19.7-9.5,5.8-19.9,10.8-30.8,13.4-1,.3-2.1.5-3.1.7-.2,0-1.4,0-.6-.4.2-.6,2.2-1.3,2.7-1.6,4.5-2.7,9.1-5.4,13.6-8.1,10.5-6.1,21-12.2,31.6-18.2,2.8-1.6,5.6-3.2,8.4-4.7.3-.2,3.1-2,2.6-.8h.1Z"/>
  <path class="cls-4" d="M1898.17,1314.91c-10.3,18.4-20.7,36.6-31.5,54.7-.7,1.2-1.5,2.5-2.2,3.7-.8,1.4-.4-1.4-.3-1.8,1-5.2,2.9-10.2,4.9-15,4.4-10.8,10.5-21,17.6-30.2,2.1-2.8,4.5-5.5,6.9-7.9,1-1,2.1-2.1,3.2-3,0,0,2-1.5,1.4-.5h0Z"/>
  <path class="cls-4" d="M1910.57,1316.31c4.4,8.7,5.2,19.5,4.9,29.1-.2,5.1-.8,10.3-2.1,15.2-.6,2.4-1.3,4.9-2.3,7.2,0,.2-1,2.2-1.1.8-.2-9.7-.3-19.4-.3-29.1,0-5.3,0-10.5.1-15.8,0-2.1,0-4.2.1-6.3,0-.3,0-2,.6-1.1h.1Z"/>
  <path class="cls-4" d="M1921.97,1311.41c8,6.9,14.2,15.5,19.7,24.5,5.8,9.5,10.8,19.9,13.4,30.8.3,1,.5,2.1.7,3.1,0,.2,0,1.4-.4.7-.6-.2-1.3-2.2-1.6-2.7-2.7-4.5-5.4-9.1-8-13.6-6.1-10.5-12.2-21-18.2-31.6-1.6-2.8-3.2-5.6-4.7-8.4-.2-.3-2-3.1-.8-2.6l-.1-.2Z"/>
  <path class="cls-4" d="M1929.37,1301.41c18.4,10.3,36.6,20.7,54.7,31.5,1.2.7,2.5,1.5,3.7,2.2,1.4.8-1.4.4-1.8.3-5.2-1-10.2-2.9-15-4.9-10.8-4.4-20.9-10.6-30.2-17.7-2.8-2.1-5.5-4.5-7.9-6.9-1-1-2.1-2.1-3-3.2,0,0-1.5-2-.5-1.4v.1Z"/>
  <path class="cls-4" d="M1931.37,1289.91c10.4-1.8,21.1-.9,31.5.6,11,1.6,22.2,4.5,32.2,9.5,1,.5,1.9,1,2.8,1.5.2,0,1,.9.2.7-.5.3-2.5-.4-3.1-.5-5.2-.8-10.4-1.7-15.6-2.6-12-2-23.9-4.2-35.9-6.3-3.2-.6-6.3-1.2-9.5-1.8-.3,0-3.7-.5-2.5-1.1h-.1Z"/>
  <path class="cls-4" d="M1925.87,1277.61c7.3-7.5,17.3-12.7,26.7-16.9,9.8-4.4,21-8.2,31.8-8.5,1.1,0,.3.6-.2.8-1.8.8-3.5,1.6-5.3,2.4-5.2,2.3-10.4,4.6-15.6,6.9-10.9,4.8-21.8,9.5-32.8,14-1.2.5-2.5,1-3.7,1.5-.4.2-1.3.6-.9-.3v.1Z"/>
  <path class="cls-4" d="M1915.87,1270.21c5.5-7.6,11.1-15.2,16.7-22.7,3.6-4.7,7.1-9.4,10.7-14,1.5-2,3-3.9,4.6-5.9.4-.4,1.4-2.5,2.1-2.6.7,0-.6,3.6-.7,3.9-.9,2.7-2,5.3-3.3,7.9-2.6,5.2-5.7,10.2-9.2,14.8-3.6,4.6-7.5,9.1-12,12.9-1.9,1.6-3.8,3.1-5.8,4.5-.8.5-1.6,1-2.4,1.5-.2.1-1.1.3-.7-.2v-.1Z"/>
  <path class="cls-5" d="M120.57,112.41c0,4.1,3.4,7.5,7.5,7.5s7.2-4.1,7.5-7.9c.3-4.1-3-6.9-6.9-7.1-4.3-.2-8.1,3.1-8.1,7.5Z"/>
  <path class="cls-5" d="M549.37,149.31c-4.3,0-7.9,3.8-7.5,8.1.3,3.9,4.4,4.9,7.7,5,3,0,6.4-.4,7.1-3.9,1-4.6-2.6-9.2-7.4-9.2h.1Z"/>
  <path class="cls-5" d="M134.57,85.91c3.5,2,8.2.2,10.6-2.8,2.7-3.4,2-8.5-1.6-10.9s-8.6-1.3-10.8,2.4c-2,3.4-2,9,1.8,11.2.9.5-1.4-.8,0,0v.1Z"/>
  <path class="cls-5" d="M391.27,299.91c3.9-2.3,2.7-6.7.5-9.8-2.3-3.3-7.1-4.3-10.5-1.9s-3.3,7.8-.7,10.8c2.6,3,7.5,2.8,10.6.9,1.9-1.1-1.5.8,0,0h.1Z"/>
  <path class="cls-5" d="M162.57,49.01c0-3.2-.7-7.6-4.5-8.4-4.2-.8-8.3,2.7-8.6,6.9-.4,4.8,3.9,8.6,8.7,8,3.5-.5,4.5-3.4,4.5-6.5,0-7,0,2,0,0h-.1Z"/>
  <path class="cls-5" d="M222.07,356.51c-3.5-2-8.2-.8-10.3,2.8-2,3.5-.8,8.2,2.7,10.3,3.5,2,7.8,0,9.9-3.2,2.4-3.6,1.3-7.7-2.4-9.9-1.1-.7,3.7,2.1,0,0h.1Z"/>
  <path class="cls-5" d="M508.37,145.81c-3.7,0-6.7,2.6-6.3,6.4.4,3.4,2.9,8.6,6.8,8.6s7.1-3.9,7-7.7c0-4-3.5-7.4-7.5-7.4v.1Z"/>
  <path class="cls-5" d="M339.37,286.71c-1.6-3.7-6.2-6.1-10.1-4.8-3.9,1.3-6.1,5.8-4.7,9.7,3.2,8.9,18.4,3.4,14.8-4.9-.6-1.4.8,1.9,0,0h0Z"/>
  <path class="cls-5" d="M434.57,256.01c-4.9,0-7,5.6-6.3,9.8.7,3.8,4.3,6.5,8.1,6.2,3.9-.4,6.9-3.8,6.8-7.7-.1-4.2-4.4-8.3-8.6-8.3h0Z"/>
  <path class="cls-5" d="M320.37,54.91c-3.1-3-8.3-2.8-11,.6-2.6,3.2-2.3,8.9,1,11.5s8.1,1,10.6-1.9c2.5-3,2.2-7.5-.5-10.2-1.4-1.4,3,2.9,0,0h-.1Z"/>
  <path class="cls-5" d="M130.07,158.21c.3-4.1-2.1-7.9-6.3-8.5-4.5-.7-8.7,3-8.6,7.5,0,5.4,4.9,8,9.7,7.3,3.6-.5,5-2.8,5.2-6.2v-.1Z"/>
  <path class="cls-5" d="M33.07,206.71c-2.5-3.5-8.5-4.4-11.4-.8-2.2,2.7-2.2,7-1.4,10.2.5,1.7,1.3,3.4,3,4.1,2.4,1,5.1-.3,7.1-1.6s3.8-2.5,4.3-4.9c.6-2.4-.2-4.9-1.6-6.9s2.7,3.7,0,0v-.1Z"/>
  <path class="cls-5" d="M273.07,413.21c4.1,0,7.8-4.8,8-8.7.2-4.6-4.6-8.5-9-8.2-4.1.3-7.3,4-6.8,8.1.5,3.8,3.6,8.7,7.8,8.7v.1Z"/>
  <path class="cls-5" d="M496.07,120.71c2.8,0,7.8-1.9,8.2-5.1.5-3.3-1.5-8.4-5.1-9.3-3.8-1-7.9,2-8.9,5.6-1.1,3.9,1.3,8.8,5.7,8.8h.1Z"/>
  <path class="cls-5" d="M392.57,148.21c1.4-3,1.4-7.3-1.1-9.8-3.2-3.2-8.6-1.4-11.3,1.6-3.2,3.6-2.3,9.3,1.9,11.6,3.8,2.1,8.7.4,10.5-3.5,1.7-3.9-1.2,2.7,0,0v.1Z"/>
  <path class="cls-5" d="M358.47,187.71c-4.3,0-7.9,3.8-7.5,8.1.3,3.9,4.4,4.9,7.7,5,3,0,6.4-.4,7.1-3.9,1-4.6-2.6-9.2-7.4-9.2h.1Z"/>
  <path class="cls-5" d="M346.47,149.21c-1.9,3.3-2,8.5,1.4,10.9,3.6,2.5,9,.4,11.4-2.9,2.2-3.2,1.5-7.7-1.5-10.1-3.5-2.8-8.9-1.8-11.2,2.1-1,1.7,1.3-2.3,0,0h-.1Z"/>
  <path class="cls-5" d="M313.27,329.21c0-3.2-.7-7.6-4.5-8.4-4.2-.8-8.3,2.7-8.6,6.9-.4,4.8,3.9,8.6,8.7,8,3.5-.5,4.5-3.4,4.5-6.5,0-7,0,2,0,0h-.1Z"/>
  <path class="cls-5" d="M88.47,104.41c-4.3,0-7.2,3.4-6.1,7.6.7,3.1,3,7.5,6.6,7.5s7-3.8,7-7.5-3.4-7.5-7.5-7.5v-.1Z"/>
  <path class="cls-5" d="M543.77,184.61c3.8,0,7.7-3.8,8.6-7.3,1.2-4.2-2.5-8.3-6.6-8.6-4.9-.4-8.9,4.1-8,8.9.6,3.1,2.3,7,6,7,.5,0-4,0,0,0h0Z"/>
  <path class="cls-5" d="M287.57,96.91c-2.1,3-1.6,7.2,1.1,9.7,3.2,3,8.2,1.9,11.2-.9,7.5-7.1-6.5-17.2-12.2-8.8-2.3,3.4,1.4-2.1,0,0h-.1Z"/>
  <path class="cls-5" d="M181.57,188.11c4.1-.4,7.1-4.2,6.7-8.2-.4-4.2-5-8.1-9.2-7.7-4.2.4-6,4.9-5.8,8.6.2,4.3,3.9,7.7,8.3,7.3,4.1-.4-.3,0,0,0h0Z"/>
  <path class="cls-5" d="M423.27,305.21c3.1,3,7.9,1.7,10.6-1.1,3-3.1,2.8-8.3-.6-11.1-3.1-2.6-8-2.1-10.5,1s-2.4,8.3.5,11.1c1.2,1.1-1.4-1.4,0,0v.1Z"/>
  <path class="cls-5" d="M373.67,55.31c-2.4-3.4-7.7-4.3-10.9-1.4-2.8,2.6-2.8,7.9-1.7,11.3,1.9,5.9,7.4,3.7,11.2,1.1,3.8-2.7,4.1-7.3,1.4-11-1.4-2,2.7,3.7,0,0Z"/>
  <path class="cls-5" d="M388.67,102.61c4.1,0,7.2-4.1,7.5-7.9.3-4.1-3-6.9-6.9-7.1-4.1-.2-7.8,2.8-8.1,6.9-.3,4.3,3.2,8.1,7.5,8.1Z"/>
  <path class="cls-5" d="M402.57,205.31c2.8,0,5.7-.8,6.4-3.9,1-4.6-2.6-9.2-7.4-9.2s-8.1,4-7.5,8.4c.6,4,5.1,4.8,8.4,4.8l.1-.1Z"/>
  <path class="cls-5" d="M192.97,222.51c1.9-3.4.9-7.8-2.3-10-4-2.7-9.3-.9-11.2,3.4-1.4,3.2-1.3,7.8,1.8,10,3.7,2.7,9.5.3,11.7-3.4,2.1-3.6-1.5,2.6,0,0Z"/>
  <path class="cls-5" d="M549.77,218.61c-4.7,0-7.7,4.1-6.6,8.6,1.1,4.7,5.4,6.6,9.9,5.4,3.9-1,6-3.9,4.5-7.8-1.3-3.4-3.9-6.2-7.7-6.2h-.1Z"/>
  <path class="cls-5" d="M280.97,268.91c3.6,0,5.5-2.4,5.6-5.8,0-3.2-.3-7.8-3.9-9-3.9-1.2-8.2,1.8-9,5.6-1,4.6,2.6,9.2,7.3,9.2h0Z"/>
  <path class="cls-5" d="M250.37,266.01c2.1-3.7.5-7.9-3.3-9.6-3.9-1.8-8.6,0-10.2,4.1-1.3,3.4,0,7.4,3.2,9.3,3.7,2.2,8.3-.3,10.3-3.7,2-3.5-1.6,2.7,0,0v-.1Z"/>
  <path class="cls-5" d="M84.07,161.41c4.7,0,7.9-5.2,6.8-9.5-1.2-4.4-6.3-6.8-10.4-4.9-2.1,1-3.3,3-3.2,5.3.2,3.5,2.8,9,6.9,9l-.1.1Z"/>
  <path class="cls-5" d="M32.97,251.81c-4.9,0-8.6,4.8-7.2,9.6.8,2.9,2.3,6.4,5.8,6.4s7.7-3.8,8.6-7.3c1.2-4.4-2.8-8.6-7.2-8.6v-.1Z"/>
  <path class="cls-5" d="M261.27,79.21c3.3,2.3,8.1.7,10.7-2,3.5-3.7,1.2-8.5-2.8-10.7-8.1-4.6-15.6,7.5-7.9,12.8,1,.7-3.4-2.3,0,0v-.1Z"/>
  <path class="cls-5" d="M337.37,100.71c-.4-4-4.6-7.7-8.6-7.7s-7,5.6-6.3,9.8c1.6,9.2,15.8,7.2,14.9-2.1-.4-3.9.4,4.1,0,0Z"/>
  <path class="cls-5" d="M461.27,153.11c0,4.1,2.9,7.9,7.2,7.5,4-.3,7.7-3.7,7.8-7.9.1-4.2-3.3-7.7-7.5-7.7s-7.6,3.8-7.5,8.1c0,2.3,0-2.3,0,0h0Z"/>
  <path class="cls-5" d="M197.87,101.01c-.4,5,3.8,8.3,8.5,8,3.5-.2,5.9-1.7,6.3-5.3.5-4.2-1.1-8.4-5.6-9.5-4.4-1-8.9,2.2-9.2,6.8-.2,2.1.3-3.9,0,0Z"/>
  <path class="cls-5" d="M307.67,187.31c3,4.2,10.2.2,12.4-3.1,2.5-3.7.3-9.3-3.5-11.2-3.8-2-8.6-.3-10,3.8-1,3.1-.9,7.6,1.1,10.4.9,1.2-2.2-3.1,0,0v.1Z"/>
  <path class="cls-5" d="M155.57,170.01c1.2-4.8-3.6-9.4-8.2-9.4s-7.7,3.5-7.5,7.6c.2,3.6,2.8,8.1,6.6,9.1,4.4,1.1,8.2-3.5,9.1-7.3.4-1.6-.9,3.6,0,0h0Z"/>
  <path class="cls-5" d="M146.37,216.31c3.3-1.5,4.2-3.8,3.2-7.2s-3.2-6.5-7.1-5.8c-4.5.8-7.7,5.1-6.4,9.6.6,2,2,3.9,4.1,4.6,2.2.7,4.3-.2,6.3-1.1,3.4-1.5-.3.1,0,0l-.1-.1Z"/>
  <path class="cls-5" d="M354.77,329.71c4,1.8,8.7-.3,10.2-4.4,1.4-3.7.6-9.1-3.7-10.5-4-1.3-9.1,1.6-10.5,5.5-1.3,3.6.4,7.8,4,9.4,1,.4-3.8-1.7,0,0Z"/>
  <path class="cls-5" d="M213.77,171.11c4.1,0,7.2-4.1,7.5-7.9.3-4.1-3-6.9-6.9-7.1-4.1-.2-7.8,2.8-8.1,6.9-.3,4.3,3.2,8.1,7.5,8.1Z"/>
  <path class="cls-5" d="M210.77,415.41c-4.3,0-7.9,3.8-7.5,8.1.3,3.9,4.4,4.9,7.7,5,3,0,6.4-.4,7.1-3.9,1-4.6-2.6-9.2-7.4-9.2h.1Z"/>
  <path class="cls-5" d="M311.57,356.61c-1.7,3-2,7.6.6,10.3,3.3,3.4,9.2,1.5,11.8-1.8,2.4-3,2.1-7.6-.8-10.2-3.5-3.2-9.2-2.3-11.6,1.8-2.1,3.6,1.3-2.3,0,0v-.1Z"/>
  <path class="cls-5" d="M192.57,60.41c-4.5,0-7.6,3.9-6.7,8.3.9,4.6,4.8,6.8,9.3,5.9,3.9-.8,6.6-3.5,5.3-7.6-1.2-3.5-3.9-6.6-7.9-6.6h0Z"/>
  <path class="cls-5" d="M573.57,190.81c-.3-2.9-1.2-6.9-4.5-7.8-3.6-1-7.4,1.9-8.4,5.3-1.1,4.1,1.4,8.4,5.5,9.4,1.6.4,3.4.3,4.9-.5,2.5-1.2,2.7-4,2.5-6.4-.6-6.6.1,1.6,0,0Z"/>
  <path class="cls-5" d="M401.37,38.51c1,3.6,4.5,6.1,8.2,5.2s7.1-4.8,6.5-8.7c-.6-3.9-5-6.4-8.7-5.8-4.3.7-7.2,5.1-6,9.4.5,1.9-.5-1.9,0,0v-.1Z"/>
  <path class="cls-5" d="M407.07,336.01c-3.7,0-6.7,2.6-6.3,6.4.3,3.2,2.6,8.1,6.2,8.6,3.9.5,7.3-3.2,7.6-6.8.4-4.3-3.2-8.2-7.5-8.2h0Z"/>
  <path class="cls-5" d="M106.27,337.91c-4.9,0-8.6,4.8-7.2,9.6.8,2.9,2.3,6.4,5.8,6.4s7.6-3.8,8.6-7.3c1.2-4.4-2.8-8.6-7.2-8.6v-.1Z"/>
  <path class="cls-5" d="M228.97,218.31c-7.5-5.1-15.9,5.6-9.3,11.7,3.2,2.9,8.2,1.8,11.1-.9,3.8-3.5,2-8.2-1.8-10.8-1.3-.9,1.7,1.1,0,0Z"/>
  <path class="cls-5" d="M243.77,142.61c4,0,7.3-3.2,7.5-7.2.2-4.1-3.5-8-7.5-8.7-5-.9-7.7,4-7.6,8.4.1,4.1,3.3,7.5,7.5,7.5h.1Z"/>
  <path class="cls-5" d="M452.87,95.31c0,4.1,2.9,7.9,7.2,7.5,4-.3,7.7-3.8,7.8-7.9,0-4.2-3.3-7.7-7.5-7.7s-7.6,3.8-7.5,8.1c0,2.3,0-2.3,0,0Z"/>
  <path class="cls-5" d="M316.97,43.11c2.9,4,8.6.5,11.3-1.9,3.6-3.1,2.2-9.2-1.4-11.8-3.2-2.4-8.5-1.8-10.5,1.9-1.7,3.3-1.7,8.6.5,11.7.9,1.2-1.6-2.2,0,0l.1.1Z"/>
  <path class="cls-5" d="M510.27,261.11c-4.1-1-8.5,1.7-9.2,5.9-.6,3.9,2,8.7,5.6,10.3,4.3,1.9,8.3-2.2,9.7-5.9,1.7-4.5-1.6-9.1-6-10.2-.6-.2,3.9,1,0,0l-.1-.1Z"/>
  <path class="cls-5" d="M191.87,390.51c-3.4-9.5-16.7-2.1-12.7,6.3,2.2,4.5,6.5,3.8,10.3,2,3.7-1.8,3.6-4.8,2.4-8.3-1.4-3.8,1.9,5.3,0,0Z"/>
  <path class="cls-5" d="M102.97,63.81c8.1,3.6,14.9-8.4,8.4-13.8-3.5-2.9-8.8-.8-11.3,2.4-2.9,3.8-1.5,9.5,2.8,11.4,1,.4-1.8-.8,0,0h.1Z"/>
  <path class="cls-5" d="M480.67,179.51c-9.3,0-9.9,14.1-.7,15,4.1.4,7.6-3.4,8.2-7.2.8-4.6-3.2-7.8-7.5-7.8Z"/>
  <path class="cls-5" d="M530.97,224.91c-4,0-7.5,3.3-7.5,7.4,0,4.6,5.4,5.7,9,5.9,3.8.1,6.2-2.3,6-6.2s-3.6-7.1-7.5-7.1h0Z"/>
  <path class="cls-5" d="M469.97,277.01c3.5,2.5,9.2.7,11.5-2.6,2.2-3.2,1.7-7.6-1.3-10.1-3.3-2.8-8.4-2.1-10.9,1.4-2.3,3.2-2.9,8.8.7,11.3,1.1.8-1.3-.9,0,0h0Z"/>
  <path class="cls-5" d="M286.17,441.71c-4.8,0-7.6,4.2-6.6,8.7,1,4.6,5.3,6.5,9.7,5.6,4.1-.9,5.8-3.9,4.6-7.7-1.1-3.5-3.7-6.5-7.7-6.5v-.1Z"/>
  <path class="cls-5" d="M191.97,278.81c3.8.4,5.8-2,6.2-5.5.3-3,.4-7.4-2.8-9-3.4-1.7-7.7.3-9.3,3.5-2.4,4.7.8,10.4,6,10.9.3,0-2-.2,0,0l-.1.1Z"/>
  <path class="cls-5" d="M352.67,270.21c3.3,2.4,7.8.7,10.2-2.2,2.7-3.3,2-7.6-1.5-10-3.5-2.5-8.6-1.4-10.8,2.3-2,3.3-1.1,7.8,2.1,10,1,.7-3.4-2.4,0,0v-.1Z"/>
  <path class="cls-5" d="M264.77,226.41c0,3,1.6,7.5,4.5,8.9,3.6,1.8,7.9-1.5,9-5,1.1-3.9-1.1-8.1-4.9-9.3-3.9-1.2-8.5.9-8.5,5.3,0,1.5,0-2.3,0,0l-.1.1Z"/>
  <path class="cls-5" d="M360.47,363.41c3.8,0,7.9-3.4,9-7,1.3-4.3-2.5-8.5-6.7-8.8-5.1-.4-8.8,4.3-7.9,9.1.6,3.1,1.9,6.7,5.6,6.7h0Z"/>
  <path class="cls-5" d="M251.07,420.81c-3.2-2.6-8-2.2-10.6,1-2.7,3.3-2.1,8.5,1.4,10.9,3.3,2.2,8.2.9,10.8-1.7,3.2-3.3,1.5-7.6-1.6-10.2-1.3-1.1,3.7,3.1,0,0h0Z"/>
  <path class="cls-5" d="M149.67,260.41c-4.7,0-7.2,5.6-6.5,9.7.6,3.8,4.2,6.7,8,6.4,3.9-.3,6.9-3.7,6.9-7.5,0-4.2-4.1-8.5-8.4-8.5-2.1,0,4.2,0,0,0v-.1Z"/>
  <path class="cls-5" d="M144.77,355.21c-9.1,0-10.4,15.5-1,15.5s8.3-3.3,8.5-7.7c.2-4.2-3.3-7.9-7.5-7.9v.1Z"/>
  <path class="cls-5" d="M305.27,262.11c2.3,3.1,8.4,4.2,11.5,1.4,2.1-1.9,2.4-6.3,1.5-8.7-1.6-4.3-6.8-6.2-10.8-3.9-3.9,2.3-5,7.6-2.2,11.2,1.2,1.6-1.3-1.7,0,0Z"/>
  <path class="cls-5" d="M238.67,349.71c4,0,9.5-3.1,10-7.3.6-4.7-2.9-9.4-7.8-9.4s-6.8,3.8-7.2,7.9c-.4,3.5.4,8.9,5,8.9v-.1Z"/>
  <path class="cls-5" d="M283.47,360.31c4.4,1.6,9-3.1,10-7,1.1-4.3-2.8-8.7-6.9-9.5-4.2-.7-8.5,2.4-8.7,6.8-.2,3.6,2,8.4,5.7,9.7.6.2-3.8-1.4,0,0h-.1Z"/>
  <path class="cls-5" d="M498.07,365.71c-4.4,0-8.3,3.6-8,8.1.3,4.6,4.3,7.1,8.6,5.8,3.4-1,6-2.4,5.6-6.3-.4-3.5-2.1-7.6-6.1-7.6h-.1Z"/>
  <path class="cls-5" d="M181.77,348.21c3.6,2,8.2.8,10.3-2.8,2-3.4,2.1-8.9-1.8-11.1-3.6-2.1-8.8,0-11,3.2-2.4,3.6-1.2,8.6,2.5,10.7,1.1.6-1.7-1,0,0h0Z"/>
  <path class="cls-5" d="M513.27,183.11c0-4.2-3.6-6.6-7.5-6.6s-7.5,3.4-7.5,7.5,3.4,7.5,7.5,7.5,7.5-4.4,7.5-8.5v.1Z"/>
  <path class="cls-5" d="M305.67,141.91c0-4.5-4.2-8.1-8.6-7.4-4,.6-7.3,4.7-6.2,8.8.9,3.8,5.6,4.3,8.8,4.2,3.5,0,6.1-1.8,6.1-5.6h-.1Z"/>
  <path class="cls-5" d="M504.17,221.41c-8-4.6-16,7.7-9.3,13.4,3.4,2.9,8.9,1,11.4-2.2,2.8-3.5,1.8-8.9-2.1-11.2-1.1-.7,1.7,1,0,0Z"/>
  <path class="cls-5" d="M329.47,224.61c3.1-1.8,3-5,1.6-7.9-1.7-3.5-5.1-6-9.2-4.9-5.1,1.4-6,6.9-3.6,11,2.2,3.8,7.8,3.8,11.2,1.8,4.7-2.7-1.5.8,0,0h0Z"/>
  <path class="cls-5" d="M360.67,111.11c-4.5,0-8.1,4.1-7.4,8.6s5.7,7.7,10,6c3.2-1.3,3.2-5.3,2.9-8.2-.3-3.2-1.9-6.4-5.5-6.4Z"/>
  <path class="cls-5" d="M419.37,244.51c7.3,4.2,15.7-7.6,8.1-12.7-3.4-2.3-8.1-1.5-10.5,1.9-2.5,3.6-1.3,8.6,2.4,10.8.9.5-1.7-1,0,0Z"/>
  <path class="cls-5" d="M401.47,254.81c-2-3.5-6.7-4.8-10.3-2.8-4.1,2.3-2.6,7.5-.6,10.7,4.9,7.9,15-.8,10.9-8-1.3-2.3,2.1,3.6,0,0v.1Z"/>
  <path class="cls-5" d="M539.57,261.41c2.9-3.6,2.6-8.4-1.6-10.9-3.9-2.3-9-.6-10.7,3.5-1.3,3-.3,7.1,1.8,9.6,3.1,3.7,8.1.8,10.5-2.2h0Z"/>
  <path class="cls-5" d="M447.57,47.81c3.3,2.3,8.1.7,10.7-2,3.3-3.6,1.4-8-2.2-10.4-3.4-2.3-8.1-1.4-10.4,2s-1.4,8.1,2,10.4c1,.7-1.7-1.1,0,0h-.1Z"/>
  <path class="cls-5" d="M260.67,183.91c2.7-2.8,2.8-7.3.3-10.2-3-3.4-8.5-3.4-11.4,0-2.3,2.8-2.4,7.5-.2,10.4,2.9,3.9,8.3,2.8,11.3-.3,2.9-3-1.7,1.8,0,0v.1Z"/>
  <path class="cls-5" d="M454.97,207.81c.3-4.3-3.2-8.1-7.5-8.1s-8.2,4.3-7.4,8.9c.9,5.2,6,7,10.7,5.8,3.3-.9,4-3.5,4.2-6.6h0Z"/>
  <path class="cls-5" d="M423.07,435.31c-4.5,0-6.8,3.5-7.1,7.6-.2,3.1.4,8.2,4,9.2,2.3.6,4.6-.6,6.5-1.8,2.1-1.3,4-2.7,4.4-5.3.8-4.7-3-9.6-7.8-9.6v-.1Z"/>
  <path class="cls-5" d="M200.57,302.01c-.9,3.7,1.5,8.3,4.6,10.3,4,2.6,8.3-.7,10.1-4.4,2.3-4.6-.1-9.5-4.9-11.1-4.1-1.4-8.7,1-9.8,5.2-1,4,.9-3.3,0,0h0Z"/>
  <path class="cls-5" d="M252.97,369.91c-4.5,0-8.3,4-7.8,8.5.5,4.8,4.8,7.1,9.1,5.4,2.9-1.2,5.6-2.6,5.1-6.2-.5-3.4-2.4-7.6-6.4-7.6v-.1Z"/>
  <path class="cls-5" d="M476.47,241.41c1.4-3,1.4-7.3-1.1-9.8-3.2-3.2-8.6-1.4-11.3,1.6-3.2,3.6-2.3,9.3,1.9,11.6,3.8,2.1,8.7.5,10.5-3.5,1.7-3.9-1.2,2.7,0,0v.1Z"/>
  <path class="cls-5" d="M269.57,50.21c.4,3.8,3.6,6.8,7.5,6.8s7.9-3.9,7.5-8.3c-.4-3.8-4.2-7.4-8-7.7-5-.5-7.4,4.9-7,9.2.4,3.9-.2-1.9,0,0Z"/>
  <path class="cls-5" d="M223.87,67.41c4.2,0,7.6-3.5,7.5-7.7s-4.4-8.3-8.6-8.3-6.5,4.3-6.4,8.1c0,4.2,3.2,7.9,7.5,7.9Z"/>
  <path class="cls-5" d="M72.17,213.41c-3.9,0-6.9,2.9-6.3,6.9.5,3.2,2.9,8.2,6.8,8.2s7-3.8,7-7.5c0-4.1-3.4-7.5-7.5-7.5v-.1Z"/>
  <path class="cls-5" d="M67.77,261.41c1.1-4.4-2.9-8.6-7-9.3-4.3-.7-8.7,2.6-8.7,7,0,3.7,2.5,8.2,6.1,9.4,4.5,1.6,8.6-3.3,9.6-7.2,1.1-4.2-.9,3.6,0,0v.1Z"/>
  <path class="cls-5" d="M461.17,324.11c3.9,0,7-3.8,7-7.5,0-4.1-3.4-7.5-7.5-7.5s-7.1,3.3-6.2,7.4c.7,3.1,3,7.6,6.7,7.6Z"/>
  <path class="cls-5" d="M363.57,463.51c-4.1-1.1-8.5,1.7-9.2,5.9-.6,3.7,1.9,8.2,5.1,10,4.2,2.3,8.3-1.5,9.9-5.2,2.1-4.7-1-9.6-5.8-10.8-.6-.2,1.9.5,0,0v.1Z"/>
  <path class="cls-5" d="M67.27,344.21c-2.6,0-5.4,1.4-6.2,4-1,3.4,1.3,8.7,4.4,10.4,4.1,2.3,8.7-2.1,9.2-6,.5-4.4-3-8.4-7.5-8.4h.1Z"/>
  <path class="cls-5" d="M373.07,428.71c-4.5,0-6.8,3.5-7.1,7.6-.2,3.2.4,8.2,4,9.2,2.5.7,5.1-.9,7.2-2.3,1.9-1.3,3.4-2.7,3.8-5,.7-4.7-3-9.5-7.8-9.5h-.1Z"/>
  <path class="cls-5" d="M79.47,291.91c-3.9-1.8-9.2,1-10.9,4.7-2,4.4.8,9.7,5.6,10.5,4,.7,7.6-2,8.7-5.8.9-3.4.2-7.8-3.3-9.4-.8-.4,3.8,1.7,0,0h-.1Z"/>
  <path class="cls-5" d="M350.77,389.11c-8.1-4.7-15.7,7.5-8,12.7,3.6,2.5,8.2.4,10.4-2.9,2.4-3.6,1.3-7.7-2.4-9.8-1.1-.7,3.7,2.1,0,0h0Z"/>
  <path class="cls-5" d="M328.37,474.81c-4.3,0-7.9,3.8-7.5,8.1.3,3.9,4.4,4.9,7.7,5,3,0,6.4-.4,7.1-3.9,1-4.6-2.6-9.2-7.4-9.2h.1Z"/>
  <path class="cls-5" d="M469.47,346.91c-4.9,0-8.6,4.8-7.2,9.6.8,2.9,2.3,6.4,5.8,6.4,3.8,0,7.7-3.8,8.6-7.3,1.2-4.4-2.8-8.6-7.2-8.6v-.1Z"/>
  <path class="cls-5" d="M545.67,287.71c-4.6-.3-8.5,3.7-8,8.2.5,5.4,5.5,7.5,10.2,6.5,3.3-.7,4.5-3,4.7-6.2.3-4.3-2.4-8.2-6.9-8.6-.2,0,4.1.3,0,0v.1Z"/>
  <path class="cls-5" d="M525.17,313.51c-4.2,0-6.7,3.1-7.1,7.1-.3,3.1,0,8.1,3.4,9.5,2.4,1,5.1-.3,7.1-1.6,2.1-1.3,4-2.7,4.4-5.3.8-4.7-3-9.6-7.8-9.6v-.1Z"/>
  <path class="cls-5" d="M388.57,377.21c-8.3,0-7.5,10.3-2.2,14.2,3.7,2.6,8.5-1,9.5-4.7,1.3-4.7-2.4-9.5-7.3-9.5Z"/>
  <path class="cls-5" d="M435.37,364.71c-4.1-1-8.6,1.7-9.2,5.9-.6,3.9,2,8.7,5.6,10.3,4.3,1.9,8.3-2.3,9.7-5.9,1.7-4.5-1.6-9.1-6-10.2-.6-.2,3.9,1,0,0l-.1-.1Z"/>
  <path class="cls-5" d="M418.97,67.01c-4.1-1-8.5,1.7-9.2,5.9-.6,3.9,2,8.7,5.6,10.3,4.3,1.9,8.3-2.3,9.7-5.9,1.7-4.5-1.6-9.1-6-10.2-.6-.2,3.9,1,0,0l-.1-.1Z"/>
  <path class="cls-5" d="M524.37,83.11c4.4,1.7,8.4-.3,8.7-5.2.3-4.5-3.5-8.4-8.1-8.1-3.3.2-6.5,2.9-6.8,6.3-.3,3.6,3.2,5.8,6.1,7,1.3.5-7.3-2.9,0,0h.1Z"/>
  <path class="cls-5" d="M467.77,402.91c-4.4-1.2-9.8,2.2-9.4,7.1.3,3.9,3.8,8.1,7.4,9.4,4.2,1.5,6.4-2.9,7.5-6.2.6-1.9,1-3.8.2-5.8-1-2.3-3.3-3.9-5.7-4.6v.1Z"/>
  <path class="cls-5" d="M506.57,59.51c4.2,0,7.6-3.5,7.5-7.7,0-4.2-4-9.2-8.5-8.6-3.9.5-6.2,4.7-6.5,8.3-.2,4.3,3.2,8,7.5,8Z"/>
  <path class="cls-5" d="M32.67,125.81c8.4,0,9.6-14.4.9-15-4.2-.3-8,2.7-8.4,6.9-.3,4.3,3.2,8.1,7.5,8.1.4,0-3.7,0,0,0Z"/>
  <path class="cls-5" d="M545.77,118.21c3.1,0,6.7-2.6,8.4-5,2.6-3.6-1-8-4.6-8.9-3.9-1-8,1.4-9.1,5.3-1,3.6,1.1,8.6,5.3,8.6h0Z"/>
  <path class="cls-5" d="M59.07,180.41c-3.8-2.7-9.2-1.3-11.2,2.9-2.2,4.6.8,8.8,4.8,10.8,8.1,4.1,12.3-9.5,6.4-13.7-1.3-.9,3.7,2.6,0,0Z"/>
  <path class="cls-5" d="M54.17,92.21c3.5,0,8.4-3.7,8.1-7.5-.2-3.2-3.4-6.6-6.4-7.4-4.3-1.1-8.6,1.9-9.2,6.2-.7,4.5,3,8.7,7.5,8.7Z"/>
  <path class="cls-5" d="M59.87,51.21c4.8,0,6-4.9,5.8-8.8-.1-2.5-.9-5.1-3.5-5.9-4.4-1.4-9.2,1.8-9.7,6.3-.5,4.4,3,8.4,7.5,8.4h-.1Z"/>
  <path class="cls-5" d="M142.27,323.91c2.9,0,6.1-1.8,6.8-4.8.9-3.7-2.5-7.4-5.3-9.1-4.1-2.5-8.4,1.2-8.9,5.4-.6,4.4,3,8.5,7.4,8.5Z"/>
  <path class="cls-5" d="M110.47,225.31c-3.8,0-8.4,5.4-8.5,9-.1,4.5,4.3,8.6,8.7,8.2,4.3-.3,7-4,6.5-8.1-.4-3.4-2.6-9.2-6.7-9.2v.1Z"/>
  <path class="cls-5" d="M49.47,313.91c-9-1-11.6,13.4-3.3,15.9,4.2,1.2,8.3-2.4,9.6-6.1,1.5-4.5-1.6-9.3-6.3-9.8-.3,0,2,.2,0,0Z"/>
  <path class="cls-5" d="M102.17,380.51c-8-1.7-12.5,11.5-4.3,14.4,3.9,1.3,8.2-.5,9.7-4.4,1.6-4.3-1-9.1-5.4-10-.4,0,2,.4,0,0Z"/>
  <path class="cls-5" d="M112.47,267.21c-2.7,0-7.1,1-8.7,3.5-2.4,3.6,1.1,8.5,4.6,9.6,4.2,1.3,8.6-1.3,9.6-5.6.9-3.9-1.4-7.5-5.5-7.5Z"/>
  <path class="cls-5" d="M97.07,192.51c.7-3.7-1.9-8.5-5.4-9.8-4.2-1.6-7.6,3.1-8.7,6.5-1.2,4,.7,8.1,4.9,9.1,4.1,1,8.4-1.7,9.2-5.8.4-2-.4,2,0,0Z"/>
  <path class="cls-5" d="M133.87,391.81c-3.4,0-8.1,2.4-8,6.3.1,3.7,2,7.4,5.6,8.5,4.4,1.3,9-1.6,9.7-6.1.6-4.3-2.8-8.7-7.3-8.7h0Z"/>
  <path class="cls-5" d="M23.87,172.71c3.5,2.6,9.5,1.6,11.2-2.8,1.3-3.5-.3-8.2-2.6-11-3.6-4.4-7.9-.6-10.5,2.7-2.9,3.8-1.9,8.2,1.9,11,1.3,1-3.7-2.7,0,0v.1Z"/>
  <path class="cls-5" d="M170.67,432.01c-3-2.7-6.6-3-9.2.5-2.3,3.1-1.9,7.5,1,10.1,2.9,2.6,7.4,2.5,10.2,0,3.6-3.3,1.1-7.8-1.9-10.5l-.1-.1Z"/>
  <path class="cls-5" d="M197.67,441.31c-4.1,0-6.3,4.4-6.7,8-.5,4.5,2.8,8,7.3,8.5,4.4.5,8.6-2.8,8.6-7.4s-4.7-9.1-9.1-9.1h-.1Z"/>
  <path class="cls-5" d="M244.57,453.21c-3.8-1.7-8.7.8-10.6,4.2-2.4,4.2,0,9.7,4.7,10.9,4.2,1.1,8.2-1.6,9.3-5.7.9-3.4.2-7.8-3.3-9.4-.8-.4,3.8,1.7,0,0h-.1Z"/>
  <path class="cls-5" d="M281.87,475.01c-8.1-4.7-15.7,7.5-8,12.7,3.4,2.3,7.7.7,10.1-2.4,2.8-3.6,1.9-8.1-2.1-10.3-1.1-.7,3.7,2.1,0,0h0Z"/>
  <path class="cls-5" d="M311.77,414.41c-4.3-.3-8.1,3.2-8.1,7.6,0,5.5,4.9,8,9.8,7.3,8.4-1.3,6.1-14.2-1.7-14.8-.2,0,2,.2,0,0v-.1Z"/>
  <path class="cls-5" d="M375.07,234.91c0-4.5-4.2-8.1-8.6-7.4-4,.6-7.3,4.7-6.2,8.8.9,3.8,5.6,4.3,8.8,4.2,3.5,0,6.1-1.8,6.1-5.6h-.1Z"/>
  <path class="cls-5" d="M313.57,143.31c-1.9,3.3-2,8.5,1.3,10.9,3.6,2.6,9.1.4,11.4-2.9,2.2-3.2,1.5-7.7-1.5-10.1-3.5-2.8-8.9-1.8-11.2,2.1-1.2,2.2,1.3-2.3,0,0h0Z"/>
  <path class="cls-5" d="M271.77,199.91c3,4.2,10.2.2,12.4-3.1,2.5-3.7.3-9.3-3.4-11.2-3.8-2-8.6-.3-10,3.8-1,3.1-.9,7.6,1.1,10.4.9,1.2-2.2-3.1,0,0l-.1.1Z"/>
  <path class="cls-5" d="M222.47,244.51c-1.8-3.9-6.7-5.6-10.4-3.5-3.8,2.1-2.8,6.9-1.3,10.1,1.5,3.3,4.4,4.9,8,3.3,3.7-1.7,5.4-6.2,3.7-10-1.2-2.7,1.7,3.8,0,0v.1Z"/>
  <path class="cls-5" d="M224.77,196.61c3-3.1,2.7-8.3-.6-11.1-3.1-2.6-8-2.1-10.5,1s-2.4,8.3.5,11.1c3.1,3,7.9,1.7,10.6-1.1,1.4-1.4-1.7,1.8,0,0v.1Z"/>
  <path class="cls-5" d="M163.77,141.31c0,3.3,2.8,5,5.8,5.4,2.8.4,7.1.6,8.6-2.5,2.1-4.2-.9-9.3-5.3-10.3-4.6-1-9.2,2.6-9.2,7.3l.1.1Z"/>
  <path class="cls-5" d="M159.37,95.31c-1.9,3.3-2,8.5,1.3,10.9,3.5,2.5,8.6.6,11-2.5,2.7-3.4,2-8.5-1.6-10.9s-8.6-1.3-10.8,2.4c-1.2,2.2,1.3-2.3,0,0l.1.1Z"/>
  <path class="cls-5" d="M273.07,305.21c.7-4-2.1-8.4-6.1-9.4-4.5-1.1-8.1,1.9-8.8,6.2-.5,3.4-.2,9.3,3.9,10.3,2.3.6,4.6-.6,6.5-1.8,2.1-1.3,4-2.8,4.4-5.4.3-2.1-.3,1.7,0,0l.1.1Z"/>
  <path class="cls-5" d="M252.07,115.81c4,0,7.2-3.6,7.3-7.5,0-4.4-3.8-7.9-8.2-7.5-4.2.4-6.2,3.8-5.4,7.7.6,3.1,2.5,7.4,6.2,7.4.9,0-3.2,0,0,0l.1-.1Z"/>
  <path class="cls-5" d="M213.37,138.71c2.1,3.6,7.3,3.7,10.7,2.1,3.7-1.8,3.7-5.3,2-8.5-1.9-3.6-5.6-5.9-9.7-4.4-4.6,1.7-5.2,6.9-3,10.8,1.1,2-2.3-4,0,0Z"/>
  <path class="cls-5" d="M62.87,131.11c3.2,3.2,8.5,1.6,11.1-1.6,2.9-3.6,1.9-9-2.1-11.3-8-4.5-15.1,6.9-9,12.9,1.2,1.1-3-2.9,0,0Z"/>
  <path class="cls-5" d="M425.07,152.11c0,3.3,2.8,5,5.8,5.4,2.8.4,7.1.6,8.6-2.5,2.1-4.2-.9-9.3-5.3-10.3-4.6-1-9.2,2.6-9.2,7.3l.1.1Z"/>
  <path class="cls-5" d="M420.57,106.01c-1.9,3.3-2,8.5,1.4,10.9,3.6,2.6,9.1.4,11.4-2.9,2.2-3.2,1.5-7.7-1.5-10.1-3.5-2.8-8.9-1.8-11.2,2.1-1.2,2.2,1.3-2.3,0,0h-.1Z"/>
  <path class="cls-5" d="M166.27,229.41c-1.8-3.9-6.7-5.6-10.4-3.5-3.8,2.2-2.7,7.1-1.1,10.4,4,8.3,15,.6,11.5-6.9Z"/>
  <path class="cls-5" d="M398.47,182.81c3.7,0,8.3-2.2,7.6-6.5-.5-3.2-2.7-6.4-5.8-7.5-4.1-1.4-8.8,1.1-9.2,5.5-.4,4.6,2.8,8.5,7.4,8.5Z"/>
  <path class="cls-5" d="M493.77,325.61c0-4.5-4.3-8.1-8.7-7.3-3.9.6-6.3,4.2-6.3,8s2.5,7.5,6.6,7.5,8.5-3.8,8.4-8.2c0-2,0,2,0,0Z"/>
  <path class="cls-4" d="M350.27,333.51c-5.7-5.7-7.8-14.3-8-22.1.2-7.8,2.3-16.6,8.2-22.2,1.1-1,.9,2,.9,2.4,0,2,.2,4,.2,6.1,0,4.6.1,9.2.2,13.7,0,4.6-.1,9.2-.2,13.7,0,2-.1,4-.2,6.1,0,.3,0,3.9-1,2.3h-.1Z"/>
  <path class="cls-4" d="M359.67,337.11c4.8-7,9.7-13.9,14.9-20.6,2.7-3.5,5.4-7,8.2-10.6,1.2-1.5,2.4-3,3.6-4.5.2-.3.7-1.2,1.1-1.2.6,0,.5,1.1.5,1.4,0,9-3.1,17.2-8.8,24.2-2.8,3.4-6.2,6.3-9.9,8.4-1.9,1.1-3.9,2-6,2.7-.9.3-1.7.5-2.6.7-.3,0-1.6.2-1.1-.5h.1Z"/>
  <path class="cls-4" d="M365.97,345.01c15.9-7.2,32.1-13.7,48.4-19.9.3,0,3.4-1.5,2.6,0s-1.8,2.8-2.8,4.1c-2.9,3.6-6.6,6.7-10.5,9.2-7.5,5.1-17,8.1-26,8.6-2.5.1-5.1,0-7.6-.3-1-.1-2-.3-3-.5-.2,0-2.2-.6-1.1-1.1v-.1Z"/>
  <path class="cls-4" d="M367.47,355.01c17.9-.5,35.9-.4,53.8-.3,3.7,0,7.4.2,11.1.3,1.6,0-1.7,2-1.8,2-1.9,1.1-4,2-6.1,2.8-9.1,3.4-19,4.5-28.7,4.1-5.8-.3-11.6-1.2-17.1-2.9-2.6-.8-5.1-1.8-7.5-3-1-.5-1.9-1-2.9-1.5-.2,0-2.1-1.4-.7-1.4l-.1-.1Z"/>
  <path class="cls-4" d="M373.47,364.41c8.3-1.3,17.6,1.5,24.9,5.2,8,4.1,15.5,10,20.4,17.6.9,1.5,1.9,3,2.5,4.7.7,1.7-1.5.3-2.1,0-3.7-2-7.3-4-10.9-6-8.7-4.9-17.2-9.9-25.8-14.9-2.2-1.3-4.3-2.6-6.5-3.9-.9-.6-1.8-1.1-2.7-1.7-.5-.3-.7-1,.2-1h0Z"/>
  <path class="cls-4" d="M355.87,370.71c9.3,14.9,18,30.3,26.5,45.7.1.2,2,3.2.5,2.6-1.6-.6-3-1.4-4.4-2.3-3.9-2.4-7.3-5.5-10.2-8.9-6-6.9-10.4-15.3-12.3-24.2-.6-2.7-1-5.4-1-8.2,0-1.2,0-2.4.1-3.5,0-.2.3-2.3.9-1.2h-.1Z"/>
  <path class="cls-4" d="M345.87,372.21c5.6,5.5,8.3,14.3,8,22-.1,4.2-.9,8.3-2.5,12.2-.7,1.8-1.7,3.5-2.7,5.2-.6.8-1.2,1.7-1.8,2.4-.3.3-.8,1.2-1.3,1.3-.8.8-.8-2.6-.8-2.9,0-2-.1-4-.2-6,0-4.5-.2-8.9-.2-13.4s.1-8.8.2-13.1c0-1.8.1-3.6.2-5.4,0-.3,0-3.8,1-2.2l.1-.1Z"/>
  <path class="cls-4" d="M336.57,368.51c1.3,8.3-1.5,17.6-5.2,24.9-4.1,8-10,15.4-17.6,20.4-1.5.9-3,1.9-4.7,2.5-1.7.7-.3-1.5,0-2.1,2-3.7,4-7.3,6-10.9,4.9-8.7,9.9-17.2,14.9-25.8,1.3-2.2,2.6-4.3,3.9-6.5.6-.9,1.1-1.8,1.7-2.7.3-.5,1-.7,1,.2h0Z"/>
  <path class="cls-4" d="M330.27,360.61c-14.9,9.3-30.3,18-45.7,26.5-.2.1-3.2,2-2.6.5.6-1.6,1.4-3,2.3-4.4,2.4-3.9,5.5-7.3,8.9-10.2,6.9-6,15.3-10.3,24.2-12.3,2.7-.6,5.4-1,8.2-1,1.2,0,2.3,0,3.5.1.2,0,2.3.3,1.2.9v-.1Z"/>
  <path class="cls-4" d="M328.37,351.41c-5.4,6.2-14,9.9-21.9,11.9-9,2.2-19.1,2.5-28-.5-1.4-.5-3.3-.9-4.5-1.8-1.4-1.1,1.4-1.3,2.2-1.4,4.1-.8,8.2-1.6,12.3-2.4,9.8-1.8,19.5-3.5,29.3-5.1,2.5-.4,4.9-.8,7.4-1.1.9-.1,1.8-.3,2.7-.4.6,0,1.2.4.5.9v-.1Z"/>
  <path class="cls-4" d="M332.47,341.31c-8.3,2.5-18.1.7-26-2.5-8.2-3.3-16.4-9-21-16.8-.2-.3-1.8-2.8-.2-2.2,1.8.7,3.5,1.4,5.3,2.1,4.3,1.7,8.6,3.6,12.9,5.4,8.7,3.7,17.5,7.4,26,11.5,1,.5,2.1,1,3.1,1.5.6.3.9.9,0,1.1l-.1-.1Z"/>
  <path class="cls-4" d="M340.27,335.01c-5.4-6.6-10.6-13.2-15.6-20.1-2.6-3.6-5.2-7.2-7.9-10.8-1.1-1.6-2.2-3.2-3.3-4.7-.2-.3-.9-1-.9-1.4.1-.6,1.2-.2,1.5-.1,8.7,2.5,15.7,7.7,20.8,15.2,2.5,3.6,4.3,7.7,5.3,11.9.5,2.1.8,4.3.9,6.5v2.7c0,.3-.2,1.6-.8.9v-.1Z"/>
  <g>
    <path class="cls-4" d="M154.47,797.51c-5-6-6.9-15-6.7-22.7.1-4.5.8-8.9,2.3-13.1.6-1.8,1.4-3.6,2.4-5.3.4-.7,1.6-3.4,2.5-3.4.7,0,.6,8.7.6,9.7,0,4.5.2,8.9.1,13.4,0,4.4-.1,8.8-.2,13.1,0,2,0,4-.2,6.1,0,.2,0,3.7-.9,2.3l.1-.1Z"/>
    <path class="cls-4" d="M163.87,801.21c4.7-6.8,9.6-13.5,14.6-20.1,2.7-3.6,5.5-7.1,8.2-10.7,1.2-1.5,2.4-3,3.5-4.4.4-.4,1.9-2.7,1.9-.9,0,8.5-4.3,17-9.5,23.5-2.7,3.4-5.9,6.4-9.5,8.8-1.8,1.2-3.6,2.3-5.6,3.1-.8.4-1.7.6-2.5,1-.1,0-1.8.5-1.2-.3h.1Z"/>
    <path class="cls-4" d="M170.07,809.11c15.9-7.1,32.1-13.6,48.4-19.9.1,0,3.3-1.4,2.6-.2-.9,1.5-2.2,2.8-3.4,4-3.2,3.3-7,6.1-10.9,8.4-8,4.7-17.2,7.9-26.5,8.7-2.3.2-4.5.2-6.8,0-.9,0-1.9-.2-2.8-.3-.3,0-1.4-.4-.6-.8v.1Z"/>
    <path class="cls-4" d="M171.57,819.11c17.9-.4,35.9-.4,53.8-.2,3.7,0,7.4.1,11,.2.7,0,.2.6,0,.8-.4.4-1.3.7-1.8.9-2,.9-4.1,1.6-6.1,2.3-9.2,3-19.1,3.8-28.7,3.4-5.7-.2-11.5-1-17.1-2.5-2.5-.7-5.1-1.5-7.5-2.5-1-.4-1.9-.9-2.9-1.3,0,0-2-1.1-.7-1.2v.1Z"/>
    <path class="cls-4" d="M177.47,828.51c8.4-.5,17.4,2.7,24.7,6.6,8.1,4.3,15.9,10.2,21.2,17.9.4.6,2.3,2.7,2,3.6-.3.7-3.2-1.3-3.6-1.5-3.8-2.1-7.6-4.2-11.4-6.4-8.6-4.8-17-9.8-25.5-14.8-1.8-1.1-3.6-2.2-5.4-3.3-.7-.4-1.5-.9-2.2-1.3-.5-.3-.3-.8.3-.8h-.1Z"/>
    <path class="cls-4" d="M159.87,834.71c9.2,15,18,30.3,26.5,45.7,0,.1,1.9,3.2.6,2.5-1.6-.7-3.1-1.8-4.4-2.8-3.7-2.9-7-6.1-9.9-9.8-5.7-7.2-10.1-15.8-12.2-24.8-.5-2.2-.9-4.5-1.1-6.8,0-1.1-.1-2.2-.1-3.3,0-.3.2-1.5.7-.7h-.1Z"/>
    <path class="cls-4" d="M149.97,836.21c5,5.8,6.5,14,6.7,21.4-.1,4.4-.7,8.6-2.1,12.8-.6,1.8-1.4,3.5-2.3,5.2-.5.8-1,1.7-1.5,2.4-.2.3-.6,1.2-1,1.3-.7.8-.7-2.6-.7-2.8,0-2-.1-4-.1-6,0-4.5-.2-8.9-.1-13.4,0-4.4.1-8.8.2-13.1,0-1.8,0-3.6.1-5.4,0-.2,0-3.6.9-2.2l-.1-.2Z"/>
    <path class="cls-4" d="M140.57,832.51c.7,0-1.3,11.1-1.6,12-1.2,4.4-2.9,8.7-5.1,12.7-4.3,8.1-10.2,16-17.9,21.2-.6.4-2.7,2.3-3.6,2-.7-.3,1.3-3.2,1.5-3.6,2.1-3.8,4.2-7.6,6.4-11.4,4.8-8.6,9.8-17,14.8-25.5,1.1-1.8,2.2-3.6,3.3-5.4.4-.7.9-1.5,1.3-2.2.3-.5.8-.3.8.3l.1-.1Z"/>
    <path class="cls-4" d="M134.27,824.61c-15,9.2-30.3,18-45.7,26.5-.1,0-3.2,1.9-2.5.6.7-1.6,1.8-3.1,2.8-4.4,2.9-3.7,6.1-6.9,9.8-9.9,7.2-5.7,15.9-10.1,24.9-12.2,2.2-.5,4.5-.9,6.8-1.1,1.1,0,2.2-.2,3.3-.1.3,0,1.5.2.7.7l-.1-.1Z"/>
    <path class="cls-4" d="M132.47,815.31c-.3,0-1.1,1-1.4,1.2-.7.6-1.5,1.1-2.3,1.7-1.9,1.3-4,2.4-6,3.4-4.1,2-8.5,3.4-12.9,4.4-9,2-18.8,2.6-27.8.1-1.4-.4-2.7-.7-4-1.3s2.5-1.2,2.7-1.3c4.2-.8,8.3-1.6,12.5-2.4,9.7-1.8,19.5-3.5,29.2-5.1,2.3-.4,4.6-.7,6.9-1.1.9-.1,1.8-.3,2.7-.4.5,0,1.1.3.5.7l-.1.1Z"/>
    <path class="cls-4" d="M136.57,805.21c-1.6,0-3.3.4-4.9.5-2.3,0-4.5-.1-6.8-.4-4.9-.7-9.7-2.1-14.3-4-8.4-3.5-15.9-8.9-21.4-16.1-.7-.9-.6-1.5.6-1,1.9.8,3.8,1.5,5.8,2.3,4.3,1.8,8.7,3.6,13,5.5,8.7,3.7,17.4,7.6,26,11.5.7.3,1.5.7,2.2,1,.5.2.5.8-.1.8l-.1-.1Z"/>
    <path class="cls-4" d="M144.47,799.01c-5.2-6.4-10.3-13-15.2-19.6-2.7-3.6-5.3-7.3-8-10.9-1.1-1.5-2.2-3.1-3.3-4.6-.3-.5-2.1-2.5-.3-2.1,8.2,2.3,15.1,8.9,19.9,15.6,2.5,3.5,4.5,7.4,5.9,11.5.7,2,1.2,4.1,1.4,6.2.1.9.2,1.8.2,2.7,0,.1,0,1.9-.6,1.1v.1Z"/>
    <path class="cls-4" d="M377.87,1004.21c-3.5-7.2-4.2-16-4-23.8,0-4.5.6-9,1.7-13.4.4-1.9,1-3.7,1.7-5.5,0,0,1.1-2.4,1.1-1.3.1,7.9.3,15.9.2,23.8v13.3c0,1.9,0,3.8-.1,5.7,0,.2.1,2-.5,1.2h-.1Z"/>
    <path class="cls-4" d="M368.57,1008.31c-4.7-6-9.3-12.1-14-18.2-2.8-3.8-5.7-7.7-8.5-11.5-1.2-1.6-2.4-3.3-3.6-4.9-.3-.4-1.6-1.7-1.5-2.2,0-.6,2.4,1.1,2.6,1.2,1.8,1.2,3.5,2.6,5.1,4,3.5,3,6.6,6.5,9.4,10.2,3,3.9,5.7,8.1,7.8,12.6.9,1.9,1.7,3.9,2.4,5.9.3.8.5,1.6.7,2.4,0,0,.2,1.3-.3.7l-.1-.2Z"/>
    <path class="cls-4" d="M362.57,1016.41c-15.8-6.2-31.5-12.6-47.1-19.2-1.1-.5-2.1-.9-3.2-1.4s.6-.5,1-.5c4.2.2,8.3,1.1,12.4,2.1,9.1,2.3,18,5.9,26.1,10.7,2.6,1.5,5.2,3.1,7.6,4.9.9.7,1.9,1.4,2.8,2.2,0,0,1.4,1.4.6,1.1l-.2.1Z"/>
    <path class="cls-4" d="M361.37,1026.51c-17.1.2-34.2.2-51.3.1-4,0-8,0-12-.1-.3,0-1.5.2-1.8,0-.4-.4,3.4-1.3,3.7-1.4,9.1-2.2,18.4-2.8,27.7-3,6.6-.2,13.2.3,19.8,1.1,3,.4,6.1.9,9.1,1.6,1.1.3,2.3.5,3.4.9.4.1.9.3,1.3.4.2,0,.6.5,0,.5l.1-.1Z"/>
    <path class="cls-4" d="M355.77,1035.81c-5.6,6.5-12.6,11.6-19.9,16.1-7.7,4.7-16.2,8.8-25.1,10.9-.8.2-1.7.4-2.5.5-.1,0-1.1,0-.5-.4.2-.5,1.8-1.1,2.2-1.3,3.7-2.2,7.4-4.4,11.1-6.6,8.5-5,17.1-9.9,25.7-14.8,2.3-1.3,4.6-2.6,6.9-3.9.2-.1,2.6-1.6,2.2-.7l-.1.2Z"/>
    <path class="cls-4" d="M373.57,1041.81c-8.4,15-16.9,29.8-25.7,44.5-.6,1-1.2,2-1.8,3-.7,1.1-.3-1.2-.3-1.4.8-4.2,2.4-8.3,4-12.2,3.6-8.8,8.6-17.1,14.4-24.6,1.7-2.3,3.6-4.4,5.6-6.5.8-.8,1.7-1.7,2.6-2.5,0,0,1.6-1.2,1.2-.4v.1Z"/>
    <path class="cls-4" d="M383.57,1042.91c3.6,7.1,4.2,15.9,4,23.7-.1,4.2-.7,8.4-1.7,12.4-.5,2-1.1,4-1.9,5.8,0,.2-.8,1.8-.9.7-.2-7.9-.3-15.8-.2-23.7,0-4.3,0-8.6.1-12.8v-5.2c0-.3,0-1.6.5-.9h.1Z"/>
    <path class="cls-4" d="M392.87,1038.91c6.5,5.6,11.6,12.6,16.1,19.9,4.7,7.7,8.8,16.2,10.9,25.1.2.8.4,1.7.5,2.5,0,.1,0,1.1-.4.5-.5-.2-1.1-1.8-1.3-2.2-2.2-3.7-4.4-7.4-6.6-11.1-5-8.5-9.9-17.1-14.8-25.7-1.3-2.3-2.6-4.6-3.9-6.9-.1-.2-1.6-2.6-.7-2.2l.2.1Z"/>
    <path class="cls-4" d="M398.97,1030.81c15,8.3,29.8,16.9,44.6,25.7,1,.6,2,1.2,3,1.8,1.1.7-1.2.3-1.4.3-4.2-.8-8.3-2.4-12.2-4-8.8-3.6-17.1-8.6-24.6-14.4-2.3-1.7-4.4-3.6-6.5-5.6-.8-.8-1.7-1.7-2.5-2.6,0,0-1.2-1.6-.4-1.2h0Z"/>
    <path class="cls-4" d="M400.57,1021.51c8.5-1.4,17.1-.8,25.6.5,9,1.3,18.1,3.7,26.2,7.7.8.4,1.5.8,2.3,1.2.1,0,.8.7.2.6-.4.2-2.1-.3-2.5-.4-4.2-.7-8.5-1.4-12.7-2.1-9.8-1.7-19.5-3.4-29.2-5.2-2.6-.5-5.2-1-7.7-1.5-.3,0-3-.4-2.1-.9l-.1.1Z"/>
    <path class="cls-4" d="M396.07,1011.41c5.9-6.1,14.1-10.3,21.7-13.8,8-3.6,17.1-6.7,25.9-6.9.9,0,.2.5-.2.7-1.4.6-2.9,1.3-4.3,1.9-4.2,1.9-8.5,3.7-12.7,5.6-8.9,3.9-17.8,7.7-26.7,11.4-1,.4-2,.8-3,1.3-.3.1-1,.5-.7-.2h0Z"/>
    <path class="cls-4" d="M387.97,1005.41c4.5-6.2,9.1-12.4,13.6-18.5,2.9-3.8,5.8-7.6,8.7-11.4,1.2-1.6,2.5-3.2,3.7-4.8.3-.4,1.2-2,1.7-2.1.6,0-.5,2.9-.6,3.2-.7,2.2-1.6,4.4-2.7,6.4-2.1,4.2-4.6,8.3-7.5,12-2.9,3.8-6.1,7.4-9.7,10.5-1.5,1.3-3.1,2.6-4.8,3.7-.6.4-1.3.8-2,1.2-.2,0-.9.3-.5-.2h.1Z"/>
    <path class="cls-3" d="M267.07,1595.61c-5.4,0-10,4.7-9.6,10.2.3,4,3.6,6.3,7.3,6.9,4.9.8,11-.2,11.7-6,.8-5.7-3.7-11-9.5-11l.1-.1Z"/>
    <path class="cls-3" d="M103.87,1751.71c4.6,0,9.9-2.7,9.8-7.8-.1-5-4.2-10-9.2-10.6-5.4-.7-10.3,3.4-10.1,8.9.1,5.5,4.1,9.6,9.6,9.6l-.1-.1Z"/>
    <path class="cls-3" d="M234.37,1596.91c-2.7-4.7-9.3-6.3-13.8-3.1-4.3,3.1-3.2,8.7-.9,12.7,2.4,4.2,6.7,6.1,11.2,3.5s6.1-8.6,3.5-13.1c-1.7-3,2.6,4.6,0,0Z"/>
    <path class="cls-3" d="M133.87,1431.11c5.6,0,11.5-6.2,10.9-11.8-.5-5.4-6.2-9.1-11.4-8.1-5.7,1.2-8.7,7-7.1,12.5,1.1,3.7,3.3,7.4,7.7,7.4h-.1Z"/>
    <path class="cls-3" d="M48.67,1746.71c4.8,0,10.3-3.5,10.8-8.6.5-5.2-4.7-10-9.6-10.3-5.3-.4-10.1,3.9-10.2,9.3-.1,5.1,3.9,9.6,9,9.6Z"/>
    <path class="cls-3" d="M152.27,1702.31c-6.2,0-9.2,6.6-8.4,12.1.8,4.8,5.1,8.3,9.9,8.1,5.2-.3,9.3-4.8,9.1-9.9-.2-5.3-5.4-10.2-10.7-10.2l.1-.1Z"/>
    <path class="cls-3" d="M32.77,1499.11c-5.6,0-9.6,4.7-9.6,10.2s4.2,10.2,9.9,9.5c5-.7,9.3-5,9.3-10.2s-4.4-9.5-9.6-9.5Z"/>
    <path class="cls-3" d="M206.57,1566.41c2.8,5.7,8.7,5.3,13.6,2.7,4.7-2.5,4.5-7.5,2.4-11.8s-6.5-5.8-10.8-4c-5.1,2.1-7.6,8.1-5.2,13.1,1.4,3-2.3-4.8,0,0h0Z"/>
    <path class="cls-3" d="M94.67,1589.51c-2.4,5.3.5,11.6,6.1,13.2,5.2,1.5,10.5-1.7,12-6.8,1.3-4.2.3-9.7-3.9-11.9-5-2.7-11.9.6-14.1,5.5-1.1,2.3,1.7-3.7,0,0h-.1Z"/>
    <path class="cls-3" d="M169.77,1442.31c5.3,0,9.3-5,9.6-10,.3-5.3-3.9-8.9-9-9.1-5.2-.2-9.9,3.7-10.2,9-.3,5.4,4.1,10.2,9.6,10.2v-.1Z"/>
    <path class="cls-3" d="M76.17,1634.01c-5.4,0-10,4.7-9.6,10.2.3,4,3.6,6.3,7.3,6.9,4.9.8,11-.2,11.7-6,.8-5.7-3.7-11-9.5-11l.1-.1Z"/>
    <path class="cls-3" d="M62.37,1596.51c-2.5,4.3-2.3,10.8,2.1,13.8,4.6,3.1,11.3.7,14.2-3.7,2.8-4.2,1.8-10-2.2-13-4.5-3.4-11.2-2-14.1,2.9-1.2,2,1.7-3,0,0h0Z"/>
    <path class="cls-3" d="M33.07,1777.61c0-4.1-1.2-9.1-5.8-10.3-4.8-1.2-9.8,2-11.1,6.6-1.7,5.6,2.3,11.6,8.1,12.3,5.6.6,8.8-3.2,8.8-8.6Z"/>
    <path class="cls-3" d="M127.87,1468.61c5,2.9,11-.3,13.4-5,2.3-4.7.1-9.7-4.4-11.9-4.9-2.3-10.9,0-13,4.9-1.9,4.4-.1,9.7,4,12.1,1.3.7-4.6-2.6,0,0v-.1Z"/>
    <path class="cls-3" d="M261.37,1635.11c5,0,10-5,10.8-9.7,1-5.5-4.1-10.3-9.4-10.3s-10.9,6.1-9.2,12.2c1.1,3.9,3.2,7.9,7.8,7.9v-.1Z"/>
    <path class="cls-3" d="M3.47,1544.11c-2.7,3.9-2,9.5,1.6,12.6,4.1,3.6,10.5,2.3,14.1-1.4,4.2-4.3,2.7-10.1-1.8-13.4-4.4-3.3-10.7-2.5-13.9,2.1-3,4.4,1.8-2.6,0,0v.1Z"/>
    <path class="cls-3" d="M136.67,1747.81c0,5.2,3.8,9.9,9.3,9.6,5.3-.4,9.9-4.9,9.9-10.3s-4.4-9.5-9.6-9.5-9.6,4.7-9.6,10.2c0,2.8,0-2.8,0,0h0Z"/>
    <path class="cls-3" d="M85.27,1498.41c-5.5,0-8.8,4.3-9.2,9.4-.4,4.9,1.3,11.7,7.3,11.7,5.3,0,11.7-4.8,11.9-10.3.2-5.6-4.3-10.8-10-10.8h0Z"/>
    <path class="cls-3" d="M111.97,1411.71c4.1,0,10-2.8,10.3-7.4.3-4.3-2.2-10-6.7-11.1-4.9-1.2-10.1,2.5-11.4,7.2-1.3,5.2,2.1,11.3,7.8,11.3Z"/>
    <path class="cls-3" d="M106.37,1533.81c-5.2,0-9.6,4.4-9.6,9.6s4.4,9.6,9.6,9.6,9.3-5,9.6-10c.3-5.6-4.3-9.2-9.6-9.2Z"/>
    <path class="cls-3" d="M128.87,1648.11c0-5.9-5.5-10.5-11.3-9.5-5,.9-8.7,5.9-7.8,10.9.8,4.3,5.1,6,9,6.2,5.3.3,10-1.8,10-7.6s0,3.5,0,0h.1Z"/>
    <path class="cls-3" d="M267.47,1664.91c-6,0-10,5.4-8.7,11.1s6.5,8.4,12.1,7.1c3.9-.9,7.3-3.7,6.8-8.1-.6-5.3-4.8-10.2-10.3-10.2l.1.1Z"/>
    <path class="cls-3" d="M6.37,1710.71c0-4.1-1.2-9.1-5.8-10.3-4.8-1.2-9.8,2-11.1,6.6-1.7,5.6,2.3,11.6,8.1,12.2,5.6.6,8.8-3.2,8.8-8.6,0-9.5,0,7.1,0,0v.1Z"/>
    <path class="cls-3" d="M57.07,1548.91c-.5-5.3-6.1-10.1-11.5-9.5-5.9.6-8.6,7.3-7.5,12.6,1,4.7,5.5,8,10.3,7.5,5.2-.5,9.1-5.3,8.6-10.5-.5-5,.5,5.3,0,0l.1-.1Z"/>
    <path class="cls-3" d="M185.57,1611.11c5.1,0,9.9-4.1,10.4-9.1.5-5.1-3.2-9.9-8.3-10.5-5.5-.7-10.2,3.4-10.8,8.8-.5,5.3,2.9,10.9,8.6,10.9,2.7,0-2.2,0,0,0l.1-.1Z"/>
    <path class="cls-3" d="M23.67,1636.81c3.8,5.3,11.5,1.7,15-2.1,3.9-4.2,2.2-11.2-2.2-14.4-4.5-3.3-11.5-2-13.8,3.2-1.7,3.9-1.6,9.7.9,13.3,1.3,1.8-2.7-3.8,0,0h.1Z"/>
    <path class="cls-3" d="M71.57,1779.91c4.8,2.1,10.5,0,12.7-4.8,2.2-4.9,1.1-12-4.5-13.9-5.1-1.8-11.3,1.6-13.2,6.5-1.8,4.7.5,10.1,5,12.2,1.2.6-4.8-2.2,0,0h0Z"/>
    <path class="cls-3" d="M293.27,1638.91c-.3-3.8-1.8-8.5-5.9-9.6-4.6-1.2-9.4,1.9-10.9,6.3-1.8,5.3,1.5,11.1,6.9,12.4,2.3.5,5,.3,7-1,2.8-1.8,3.3-5,3-8.1-.8-8.6.2,1.8,0,0h-.1Z"/>
    <path class="cls-3" d="M121.47,1493.31c4.5,2.6,10.1.2,12.8-3.9,2.8-4.3,1.7-9.5-2.6-12.4-4.4-2.9-10.4-1.7-13.3,2.7-3,4.6-1.5,10.9,3.2,13.6,1.3.7-2.2-1.3,0,0h-.1Z"/>
    <path class="cls-3" d="M133.07,1787.11c-2.7-4.7-9.3-6.3-13.8-3.1-4,2.9-3.4,8.1-1.3,12s5.7,6.8,10.3,4.8c5.3-2.2,7.7-8.7,4.8-13.7-1.7-3,1.3,2.2,0,0h0Z"/>
    <path class="cls-3" d="M171.17,1536.41c-3.6,3.7-3.6,10.3-.2,14.1,3.7,4.1,9.8,3.2,13.5-.2,3.7-3.4,4.2-9.2,1.1-13.1-3.5-4.4-10.4-4.8-14.4-.7-1.8,1.8,1.8-1.9,0,0v-.1Z"/>
    <path class="cls-3" d="M64.87,1478.81c-.5,6.6,5.1,10.8,11.2,10.2,4.3-.4,7.2-2.8,7.7-7.2.7-5.5-2.2-11-8.1-11.8-5.4-.8-10.5,3.3-10.9,8.8-.2,2.7.4-5,0,0h.1Z"/>
    <path class="cls-3" d="M31.17,1482.41c-.7,4.4,0,10.9,4.9,12.6,4.8,1.7,12-2.7,13.6-7.2,1.9-5.3-1.6-11.8-7.1-13.2-5.7-1.5-10.5,2.3-11.4,7.8-.5,3.1.5-2.8,0,0h0Z"/>
    <path class="cls-3" d="M228.47,1707.41c-5.4-1.4-11.2,2.3-11.8,7.9-.6,4.8,2.6,10.5,7.1,12.3,5.4,2.2,10.5-2.6,12.3-7.4,2-5.6-2-11.4-7.5-12.8-.8-.2,4.9,1.3,0,0h-.1Z"/>
    <path class="cls-3" d="M208.07,1635.41c.6-5.8-4.7-9.9-10.2-9.5-5.1.3-9.2,4.7-9,9.8.1,5,4.4,9.3,9.5,9.3s9.3-4.7,9.8-9.6c.3-2.7-.4,4.6,0,0h-.1Z"/>
    <path class="cls-3" d="M249.47,1671.21c-4.8-.5-9.3,2.8-10.3,7.5-1.3,6.3,4.2,9.3,9.6,9.8,4.8.5,8.8-1.7,9.3-6.8.5-5.2-3.4-10-8.6-10.5-.3,0,5.3.5,0,0Z"/>
    <path class="cls-3" d="M186.37,1727.11c4.3,3.1,10.9,1.3,14-2.6,3.2-3.9,2.7-9.8-1-13.1-4-3.7-10.5-3.2-13.9,1-3.3,4.1-3.9,11.4.8,14.7,1.4,1-1.7-1.2,0,0h.1Z"/>
    <path class="cls-3" d="M69.17,1720.31c4.7,3.3,11,.8,13.8-3.7,2.8-4.4,1.1-9.6-3.2-12.3-4.6-2.8-10.9-1.1-13.4,3.6-2.3,4.2-1,9.6,2.9,12.4,1.4,1-4.3-3.1,0,0h-.1Z"/>
    <path class="cls-3" d="M27.57,1715.21c4.2.4,8.7-.5,10.2-5,1.5-4.6.7-9.9-3.7-12.7-4.9-3.1-11.6-1-13.9,4.3-2.4,5.6,1.2,12.7,7.5,13.3.8,0-2.5-.2,0,0l-.1.1Z"/>
    <path class="cls-3" d="M233.07,1631.51c0-5.3-4.6-8.6-9.6-8.6s-9.6,4.4-9.6,9.6,4.4,9.6,9.6,9.6,9.6-5.3,9.6-10.5v-.1Z"/>
    <path class="cls-3" d="M25.47,1590.31c0-5.9-5.5-10.5-11.3-9.4-5,.9-8.7,5.9-7.8,10.9.8,4.3,5.1,6,9,6.2,5.3.3,10-1.8,10-7.6l.1-.1Z"/>
    <path class="cls-3" d="M222.87,1668.01c-4.9-2.9-11.2-.7-13.6,4.4-1.9,4-1.6,9.6,2.1,12.5,4.4,3.4,11.1,1.3,14.3-2.9,3.4-4.5,2.1-11.3-2.8-14.1-1.5-.8,2.2,1.3,0,0v.1Z"/>
    <path class="cls-3" d="M42.07,1676.41c3.8,0,8.8-1.9,9.6-6.1,1-4.8-2.7-10.5-7.3-12-5.2-1.7-11.2,1.5-11.8,7.1-.7,5.9,3.6,11,9.5,11Z"/>
    <path class="cls-3" d="M68.77,1567.01c0,5.7,5.1,10.1,10.7,9.5,6-.6,7.2-6.7,6.4-11.8-.6-3.7-2.8-6.9-6.7-7.3-5.5-.5-10.4,4.1-10.4,9.6h0Z"/>
    <path class="cls-3" d="M149.07,1690.21c2.7-4.7.7-10.2-4.1-12.5-4.7-2.3-10.5-.2-12.8,4.5s-.3,10.6,4.5,12.8c4.7,2.2,10-.6,12.5-4.8,1.2-2.2-1.9,3.4,0,0h-.1Z"/>
    <path class="cls-3" d="M120.87,1702.11c-2.7-4.7-9.1-6.3-13.6-3.2-4.8,3.2-3.3,9.3-.7,13.5,2.6,4.1,7.1,5.3,11.3,2.5,4.2-2.8,5.5-8.5,3-12.8-1.7-3,2.6,4.6,0,0Z"/>
    <path class="cls-3" d="M249.17,1696.11c-5.2,1.5-8,7-6.6,12.1,1.1,3.8,3.3,7.7,7.7,7.7s11.5-6.3,10.9-11.9c-.6-5.7-6.7-9.3-12.1-7.8-5.1,1.4.8-.2,0,0l.1-.1Z"/>
    <path class="cls-3" d="M164.07,1497.91c4.1,2.8,9.9,1.2,13.1-2.1,4.2-4.2,2.7-10-1.8-13.3-4.2-3.2-10.2-2.6-13.5,1.6-3.4,4.3-2.4,10.8,2.1,13.8,1.4.9-2.1-1.4,0,0h.1Z"/>
    <path class="cls-3" d="M196.47,1478.31c5.6,0,10.1-5,9.6-10.5-.5-5.1-5.5-9.6-10.6-9.6s-9,6.2-8.5,11.5c.5,4.8,4.7,8.6,9.5,8.6Z"/>
    <path class="cls-3" d="M174.67,1656.91c.4-5.2-2.9-10-8.3-10.7-5.6-.8-10.8,3.8-10.9,9.5,0,6.9,6.2,10.5,12.4,9.4,4.4-.8,6.4-3.9,6.7-8.1l.1-.1Z"/>
    <path class="cls-3" d="M183.37,1695.41c5,2.2,10.9-.2,12.9-5.3,1.6-4.1,1.1-9.6-2.7-12.4-4.5-3.3-11.2-.8-14.1,3.4-3.4,4.8-1.5,11.8,3.9,14.2,1.3.6-2.3-1,0,0v.1Z"/>
    <path class="cls-3" d="M-14.73,1498.81c.5,4.9,4.7,8.6,9.5,8.6,5.6,0,10.1-5,9.6-10.5-.5-5.1-5.5-9.6-10.6-9.6s-9,6.2-8.5,11.5c.5,4.9-.2-2.3,0,0Z"/>
    <path class="cls-3" d="M178.87,1774.51c5.1,0,9.2-4.9,9.1-9.8-.1-5.4-4.9-9.7-10.3-9.3-5.8.4-8.9,5.6-7.2,11,1.2,3.8,4,8.1,8.4,8.1h0Z"/>
    <path class="cls-3" d="M263.47,1734.01c-5.7-.4-10.6,4.5-10.3,10.2.4,6.8,6.8,10,13,8.6,4.3-1,5.9-4.2,6.2-8.2.4-5.3-3.4-10.1-8.8-10.5-.2,0,5.3.4,0,0l-.1-.1Z"/>
    <path class="cls-3" d="M242.87,1759.81c-5.5,0-8.8,4.3-9.2,9.4-.3,4.1.7,9.7,5.1,11.3,5.1,1.8,12.9-3.2,13.9-8.4,1.2-6-3.6-12.3-9.8-12.3Z"/>
    <path class="cls-3" d="M23.97,1443.31c3.2,0,6.5-2.1,8.9-4.1,2-1.7,3.1-4.2,3-6.8-.2-5.9-5.3-11-11.3-10.1-5.6.8-8,5.7-7.9,10.9,0,4.5,1.9,10.1,7.3,10.1,3,0-2.2,0,0,0Z"/>
    <path class="cls-3" d="M-3.13,1460.11c5.1,0,8.9-2.9,8.6-8.2-.4-6.1-6.5-10.4-12.3-8.6-4.5,1.3-7.7,6.2-6.7,10.9,1,4.7,6.1,6,10.4,6v-.1Z"/>
    <path class="cls-3" d="M93.97,1441.01c5,0,8.7-4.2,8.8-9,0-5.3-4.3-9.7-9.6-9.7s-10.9,4.7-10.8,9.9c.1,5.5,6.7,8.8,11.5,8.8h.1Z"/>
    <path class="cls-3" d="M62.07,1397.61c4.4,0,8.7-1.5,9.7-6.2s-.4-9.6-4.9-11.9c-5-2.6-11.3-.1-13.3,5.1-2.3,5.9,2,13,8.5,13Z"/>
    <path class="cls-3" d="M56.97,1462.01c5,0,11.4-4.5,11.8-9.7.5-5.5-3.8-11-9.4-11.3-5.6-.4-9.2,3.8-9.7,9-.5,4.9,1.1,12.1,7.3,12.1v-.1Z"/>
    <path class="cls-3" d="M-7.33,1387.41c2,3.4,5.3,5.8,9.3,4.4,5.2-1.8,8.1-7.6,6-12.7-2-5.1-8.1-7.5-13.1-5.1-5.5,2.7-4.9,8.9-2.2,13.4.7,1.2-1.2-2.1,0,0h0Z"/>
    <path class="cls-3" d="M137.17,1513.41c-5.4-1.4-11.2,2.3-11.8,7.9-.6,4.8,2.6,10.5,7.1,12.3,5.4,2.2,10.5-2.6,12.3-7.4,2-5.6-2-11.4-7.5-12.8-.8-.2,4.9,1.3,0,0h-.1Z"/>
    <path class="cls-3" d="M241.27,1533.41c4.6,1.8,9,.6,10.9-4.3,2-5.1-.9-11-6.1-12.6-5.2-1.6-11.1,1.7-12.1,7.1-.9,4.9,3.3,8.2,7.3,9.8,1.6.6-7.2-2.8,0,0h0Z"/>
    <path class="cls-3" d="M224.27,1509.91c5.5,0,10-4.8,9.6-10.3-.4-5.2-5-10.6-10.5-10.2-5.1.4-8.4,5.6-8.6,10.4-.3,5.4,4.1,10.1,9.5,10.1.8,0-4.4,0,0,0Z"/>
    <path class="cls-3" d="M263.47,1568.61c4,0,9.3-3.6,10.9-7.3,2.1-4.9-2.4-9.9-7.1-10.8-4.9-1-10,2.2-11.2,7.1s1.8,11,7.3,11c3.1,0-2.2,0,0,0h.1Z"/>
    <path class="cls-3" d="M94.87,1683.21c0-5.9-5.5-10.5-11.3-9.4-5,.9-8.7,5.9-7.8,10.9.8,4.3,5.1,6,9,6.2,5.3.3,10-1.8,10-7.6l.1-.1Z"/>
    <path class="cls-3" d="M31.97,1604.71c4.6,2.7,10.9.2,13.7-4s1.8-10-2.2-13c-4.4-3.3-10.7-2.2-13.8,2.4-2.9,4.4-2.8,11.7,2.2,14.6,1.3.7-1.8-1.1,0,0h.1Z"/>
    <path class="cls-3" d="M-12.33,1649.51c3.9,5.4,12.1,1.6,15.4-2.5,3.6-4.4,1.5-11.4-3-14.3-4.7-3-11.4-1.3-13.5,4-1.5,3.9-1.4,9.4,1.1,12.9,1.3,1.8-2.8-3.8,0,0v-.1Z"/>
    <path class="cls-3" d="M-6.93,1430.31c3.8,0,8.8-1.9,9.6-6.1,1-4.8-2.7-10.5-7.3-12-5.3-1.7-11.3,1.6-11.8,7.3-.5,5.8,3.7,10.7,9.5,10.7v.1Z"/>
    <path class="cls-3" d="M140.67,1600.51c0,3.4,2.2,5.9,5.3,7,4.7,1.5,12.1,1.3,13.6-4.5,1.3-5.2-1.9-10.6-7.1-11.8-5.9-1.4-11.8,3.3-11.8,9.3Z"/>
    <path class="cls-3" d="M136.47,1553.41c-2.6,4.4-2.3,11.3,2.6,14.1,4.8,2.8,11.4,0,14.1-4.5,2.4-4.1,1.3-9.6-2.5-12.5-4.5-3.4-11.2-2-14.1,2.9-1.5,2.6,1.7-3,0,0h-.1Z"/>
    <path class="cls-3" d="M110.77,1616.01c-4.9,2.8-5.3,9.8-1.9,14,3.3,4.1,9.9,4,14,1.3,3.7-2.5,3.5-6.7,1.7-10.4-2.5-5.2-8.5-7.9-13.8-4.9-2.4,1.4,1.5-.8,0,0Z"/>
    <path class="cls-3" d="M213.47,1773.91c0-5.4-4.8-9.8-10.2-9.5-5.5.4-9.1,5.2-8.9,10.4.2,4.8,3.6,9.3,8.7,9.3s10.5-4.7,10.5-10.3c0-2.6,0,2.6,0,0l-.1.1Z"/>
    <path class="cls-5" d="M577.37,1361.91c0,4.3,4.8,5,9.1,5s6.4-.8,6.4-5-3.5-7.7-7.7-7.7-7.7,3.5-7.7,7.7h-.1Z"/>
    <path class="cls-5" d="M584.57,1436.01c2.5-3.5,1.7-8.3-1.8-10.8s-8.3-1.7-10.8,1.8-3.1,9.5.4,12,9.8.4,12.3-3h-.1Z"/>
    <path class="cls-5" d="M613.37,1327.11c3.9-1.8,2.8-5.3,1-9.2-1.8-3.9-6.4-5.6-10.2-3.8-3.9,1.8-4.3,6.5-2.5,10.4s7.8,4.4,11.7,2.6Z"/>
    <path class="cls-5" d="M330.47,1375.21c-3.9,1.8-2.9,6.6-1.1,10.5s3.7,5.3,7.6,3.6c3.9-1.8,5.6-6.4,3.8-10.3-1.8-3.9-6.4-5.6-10.2-3.8h-.1Z"/>
    <path class="cls-5" d="M600.47,1290.21c-.8-4.2-4.8-7-9-6.2s-7,4.8-6.2,9,2,8.1,6.2,7.3c4.2-.8,9.8-5.9,9.1-10.1h-.1Z"/>
    <path class="cls-5" d="M604.97,1343.51c-2.7,3.3-2.3,8.2,1,10.9,3.3,2.7,9.6,1.1,12.4-2.2,2.7-3.3.8-6.9-2.5-9.7-3.3-2.7-8.2-2.3-10.9,1h0Z"/>
    <path class="cls-5" d="M606.37,1406.71c-4.3,0-6.5,5-6.5,9.2s3.5,7.7,7.8,7.7,7.7-3.5,7.7-7.8-4.7-9.2-9-9.2v.1Z"/>
    <path class="cls-5" d="M621.27,1371.31c-2.8-3.3-7.6-3.7-10.9-.9-3.3,2.8-3.8,9-1,12.2,2.8,3.3,7.8,2.3,11-.5,3.3-2.8,3.7-7.6.9-10.9v.1Z"/>
    <path class="cls-5" d="M329.17,1355.91c1.5,4,4.7,4.6,8.7,3.1s6.3-1.3,4.4-8.6c-1.4-5.3-4.6-5.9-8.6-4.4s-6.1,5.9-4.6,9.9h.1Z"/>
    <path class="cls-5" d="M320.67,1395.21c0-4.3-3.5-6.4-7.7-6.4s-7.7,3.5-7.7,7.7,3.5,7.7,7.7,7.7,7.7-4.8,7.7-9.1v.1Z"/>
    <path class="cls-5" d="M314.27,1334.11c4.3,0,6.4-.8,6.4-5s-3.5-7.7-7.7-7.7-7.7,3.5-7.7,7.7,4.8,5,9.1,5h-.1Z"/>
    <path class="cls-5" d="M318.47,1367.91c3.7-2.1,2.3-5.5.1-9.2-2.1-3.7-6.9-5-10.6-2.8-3.7,2.1-3.6,6.9-1.5,10.6s8.2,3.6,11.9,1.5l.1-.1Z"/>
    <path class="cls-5" d="M319.87,1307.01c3.5,2.4,9.7.1,12.1-3.4s.1-7-3.4-9.4-8.3-1.5-10.7,2c-2.4,3.5-1.5,8.3,2,10.7v.1Z"/>
    <path class="cls-5" d="M589.07,1452.01c-4.3-.3-8,2.9-8.3,7.1-.3,4.3,2.9,8.3,7.1,8.3,8.3,0,8-2.9,8.3-7.1.3-4.3-2.9-8-7.1-8.3Z"/>
    <path class="cls-5" d="M585.37,1268.91c3.7-2.1,5-6.9,2.8-10.6-2.1-3.7-6.9-5-10.6-2.8-3.7,2.1-2.3,6.9-.1,10.6,2.1,3.7,4.2,5,7.9,2.8h0Z"/>
    <path class="cls-5" d="M478.57,1211.41c3.5-2.5,2.9-7.3.4-10.8s-7.3-4.3-10.8-1.8-3.4,11.9-.9,15.3c2.5,3.5,7.8-.3,11.3-2.8v.1Z"/>
    <path class="cls-5" d="M328.77,1433.11c-3.7-2.1-8.4-.9-10.6,2.8-2.1,3.7-2.2,9.8,1.5,11.9s9.8-.5,11.9-4.2.9-8.4-2.8-10.6v.1Z"/>
    <path class="cls-5" d="M432.67,1500.91c-4.1,1.2-6.5,5.4-5.4,9.5,1.2,4.1,2.7,7.9,6.8,6.7,4.1-1.2,9.2-6.8,8.1-10.9-1.2-4.1-5.4-6.5-9.5-5.4v.1Z"/>
    <path class="cls-5" d="M485.37,1510.41c-3.9-1.8-9.8,1.3-11.6,5.2-1.8,3.9,0,8.5,3.9,10.2,3.9,1.8,8.5,0,10.2-3.9,1.8-3.9,1.4-9.8-2.5-11.6v.1Z"/>
    <path class="cls-5" d="M427.97,1210.91c4.2-.4,7.3-4.2,6.9-8.5s-5.6-8.7-9.8-8.3c-4.3.4-6,5.6-5.6,9.8.4,4.2,4.2,7.3,8.5,6.9v.1Z"/>
    <path class="cls-5" d="M513.37,1219.21c4.1,1.1,8.3-4.2,9.4-8.3,1.1-4.1-2.8-8.3-6.9-9.4s-8.4,1.4-9.4,5.6c-1.1,4.1,2.8,11.1,6.9,12.1h0Z"/>
    <path class="cls-5" d="M427.17,1333.01c0,4.3,4.8,5,9.1,5s6.4-.8,6.4-5-3.5-7.7-7.7-7.7-7.7,3.5-7.7,7.7h-.1Z"/>
    <path class="cls-5" d="M476.57,1356.91c2.1-3.7.9-8.4-2.8-10.6-3.7-2.1-8.4-.9-10.6,2.8-2.1,3.7-2.2,9.8,1.5,11.9s9.8-.5,11.9-4.2v.1Z"/>
    <path class="cls-5" d="M454.97,1382.51c3.7-2.1,2.3-5.5.1-9.2-2.1-3.7-6.9-5-10.6-2.8-3.7,2.1-3.6,6.9-1.5,10.6s8.2,3.6,11.9,1.5l.1-.1Z"/>
    <path class="cls-5" d="M477.47,1372.91c-2.1,3.7-.9,8.4,2.8,10.6,3.7,2.1,8.4-.5,10.6-4.2,2.1-3.7.9-7.1-2.8-9.2-3.7-2.1-8.4-.9-10.6,2.8h0Z"/>
    <path class="cls-5" d="M502.67,1347.61c3.7-2.1,5-6.9,2.8-10.6-2.1-3.7-6.9-5-10.6-2.8-3.7,2.1-2.3,6.9-.1,10.6,2.1,3.7,4.2,5,7.9,2.8h0Z"/>
    <path class="cls-5" d="M363.67,1482.71c-4.1,1.2-6.5,5.4-5.3,9.5s2.7,7.9,6.8,6.7c4.1-1.2,9.2-6.8,8.1-10.9-1.2-4.1-5.4-6.5-9.5-5.4l-.1.1Z"/>
    <path class="cls-5" d="M427.07,1362.91c0-4.3-4.5-9.3-8.8-9.4-4.3,0-6.6,4.8-6.7,9.1,0,4.3,3.3,7.8,7.6,7.9,4.3,0,7.8-3.3,7.9-7.6Z"/>
    <path class="cls-5" d="M433.27,1397.41c3-3.1,2.9-8-.1-10.9-3.1-3-8-2.9-10.9.1-3,3.1-2.9,9.3.1,12.3,3.1,3,7.9,1.6,10.9-1.5Z"/>
    <path class="cls-5" d="M476.97,1412.51c8.3,0,8-2.9,8.3-7.1.3-4.3-2.9-8-7.1-8.3-4.3-.3-8,2.9-8.3,7.1-.3,4.3,2.9,8.3,7.1,8.3Z"/>
    <path class="cls-5" d="M500.47,1366.71c-3.5,2.5-3.4,11.9-.9,15.3,2.5,3.5,7.9-.3,11.3-2.8,3.5-2.5,2.9-7.3.4-10.8s-7.3-4.3-10.8-1.8v.1Z"/>
    <path class="cls-5" d="M505.77,1304.91c-4.1-1.1-8.3,1.4-9.4,5.6-1.1,4.1,2.8,11.1,6.9,12.1,4.1,1.1,8.3-4.1,9.4-8.3,1.1-4.1-2.8-8.3-6.9-9.4h0Z"/>
    <path class="cls-5" d="M466.27,1310.61c-1.9-5.2-5.1-5.5-9-3.6-3.8,1.9-5.5,6.5-3.6,10.3s5.1,4.1,9,2.3c3.8-1.9,6.2-1.9,3.6-9h0Z"/>
    <path class="cls-5" d="M469.17,1289.81c-1.8,3.9,0,8.5,3.9,10.2,3.9,1.8,8.5,0,10.2-3.9,1.8-3.9,1.4-9.8-2.5-11.6-3.9-1.8-9.8,1.3-11.6,5.2v.1Z"/>
    <path class="cls-5" d="M396.77,1337.61c4.3,0,7.7-4.8,7.7-9.1s-3.5-6.4-7.7-6.4-7.7,3.5-7.7,7.7,3.5,7.7,7.7,7.7v.1Z"/>
    <path class="cls-5" d="M425.77,1420.51c0,4.3,4.8,5,9.1,5s6.4-.8,6.4-5-3.5-7.7-7.7-7.7-7.7,3.5-7.7,7.7h-.1Z"/>
    <path class="cls-5" d="M396.17,1402.01c3.7,2.1,9.8-.5,11.9-4.2s.9-8.4-2.8-10.6c-3.7-2.1-8.4-.9-10.6,2.8-2.1,3.7-2.2,9.8,1.5,11.9v.1Z"/>
    <path class="cls-5" d="M528.67,1379.81c0,4.3,3.5,7.7,7.7,7.7s5-2.1,5-6.4-.8-9.1-5-9.1-7.7,3.5-7.7,7.7v.1Z"/>
    <path class="cls-5" d="M545.37,1356.51c2.1-3.7.9-7.1-2.8-9.2s-8.4-.9-10.6,2.8c-2.1,3.7-.9,8.4,2.8,10.6,3.7,2.1,8.4-.5,10.6-4.2h0Z"/>
    <path class="cls-5" d="M532.97,1314.71c-3.7,2.1-2.3,6.9-.1,10.6,2.1,3.7,4.2,5,7.9,2.8,3.7-2.1,5-6.9,2.8-10.6-2.1-3.7-6.9-5-10.6-2.8h0Z"/>
    <path class="cls-5" d="M452.77,1430.61c1.2,4.1,2.7,7.9,6.8,6.7,4.1-1.2,9.2-6.8,8.1-10.9-1.2-4.1-5.4-6.5-9.5-5.4-4.1,1.2-6.5,5.4-5.4,9.5v.1Z"/>
    <path class="cls-5" d="M385.57,1372.61c3.5,2.4,9.7.1,12.1-3.4s.1-7-3.4-9.4-8.3-1.5-10.7,2c-2.4,3.5-1.5,8.3,2,10.7v.1Z"/>
    <path class="cls-5" d="M516.57,1441.81c-.4-4.2-5.6-8.7-9.8-8.3-4.2.4-6,5.6-5.6,9.8.4,4.3,4.2,7.4,8.5,6.9,4.3-.4,7.3-4.2,6.9-8.5v.1Z"/>
    <path class="cls-5" d="M516.77,1398.51c-3,3.1-2.9,9.3.1,12.3,3.1,3,8,1.6,10.9-1.5,3-3.1,2.9-7.9-.1-10.9-3.1-3-8-2.9-10.9.1Z"/>
    <path class="cls-5" d="M399.57,1291.01c8.3,0,8-2.9,8.3-7.1.3-4.3-2.9-8-7.1-8.3-4.3-.3-8,2.9-8.3,7.1-.3,4.3,2.9,8.3,7.1,8.3Z"/>
    <path class="cls-5" d="M424.07,1287.91c-3.5,2.5-3.4,11.9-.9,15.3,2.5,3.5,7.9-.3,11.3-2.8,3.5-2.5,2.9-7.3.4-10.8s-7.3-4.3-10.8-1.8v.1Z"/>
    <path class="cls-5" d="M515.77,1275.11c-4.1-1.1-8.3,1.4-9.4,5.6-1,4.1,2.8,11.1,6.9,12.1,4.1,1.1,8.3-4.1,9.4-8.3,1.1-4.1-2.8-8.3-6.9-9.4h0Z"/>
    <path class="cls-5" d="M454.77,1281.71c3.8-1.9,6.2-1.9,3.6-9-1.9-5.2-5.1-5.5-9-3.6-3.8,1.9-5.5,6.5-3.6,10.3,1.9,3.9,5.1,4.1,9,2.3h0Z"/>
    <path class="cls-5" d="M497.67,1253.81c3.9,1.8,8.5,0,10.2-3.9,1.8-3.9,1.4-9.8-2.5-11.6-3.9-1.8-9.8,1.3-11.6,5.2-1.8,3.9,0,8.5,3.9,10.2v.1Z"/>
    <path class="cls-5" d="M407.97,1438.31c-4.3,0-7.7,3.5-7.7,7.7s3.5,7.7,7.7,7.7,7.7-4.8,7.7-9.1-3.5-6.4-7.7-6.4v.1Z"/>
    <path class="cls-5" d="M434.57,1475.01c3.7-2.1,2.3-5.5.1-9.2-2.1-3.7-6.9-5-10.6-2.8-3.7,2.1-3.6,6.9-1.5,10.6s8.2,3.6,11.9,1.5l.1-.1Z"/>
    <path class="cls-5" d="M378.47,1393.71c0-4.3-.8-9.1-5-9.1s-7.7,3.5-7.7,7.7,3.5,7.7,7.7,7.7,5-2.1,5-6.4v.1Z"/>
    <path class="cls-5" d="M352.97,1358.41c-2.1,3.7-.9,8.4,2.8,10.6,3.7,2.1,8.4-.5,10.6-4.2,2.1-3.7.9-7.1-2.8-9.2-3.7-2.1-8.4-.9-10.6,2.8h0Z"/>
    <path class="cls-5" d="M557.57,1328.61c-3.7,2.1-2.3,6.9-.1,10.6,2.1,3.7,4.2,5,7.9,2.8,3.7-2.1,5-6.9,2.8-10.6-2.1-3.7-6.9-5-10.6-2.8h0Z"/>
    <path class="cls-5" d="M545.07,1429.91c-1.2-4.1-5.4-6.5-9.5-5.4-4.1,1.2-6.5,5.4-5.3,9.5s2.7,7.9,6.8,6.7c4.1-1.2,9.2-6.8,8.1-10.9l-.1.1Z"/>
    <path class="cls-5" d="M470.67,1451.21c-3.5-2.4-8.3-1.5-10.7,2-2.4,3.5-1.5,8.3,2,10.7,3.5,2.4,9.7.1,12.1-3.4s.1-7-3.4-9.4v.1Z"/>
    <path class="cls-5" d="M376.37,1434.31c4.3-.4,7.4-4.2,6.9-8.5-.4-4.2-5.6-8.7-9.8-8.3-4.3.4-6,5.6-5.6,9.8.4,4.2,4.2,7.3,8.5,6.9v.1Z"/>
    <path class="cls-5" d="M380.87,1313.61c3.5-2.5,2.9-7.3.4-10.8s-7.3-4.3-10.8-1.8-3.4,11.9-.9,15.3c2.5,3.5,7.8-.3,11.3-2.8v.1Z"/>
    <path class="cls-5" d="M564.27,1397.01c-3.9-1.8-9.8,1.3-11.6,5.2-1.8,3.9,0,8.5,3.9,10.2,3.9,1.8,8.5,0,10.2-3.9,1.8-3.9,1.4-9.8-2.5-11.6v.1Z"/>
    <path class="cls-5" d="M342.97,1288.01c0,4.3,3.5,7.7,7.7,7.7s7.7-4.8,7.7-9.1-3.5-6.4-7.7-6.4-7.7,3.5-7.7,7.7v.1Z"/>
    <path class="cls-5" d="M559.37,1302.61c0,4.3,4.8,5,9.1,5s6.4-.8,6.4-5-3.5-7.7-7.7-7.7-7.7,3.5-7.7,7.7h-.1Z"/>
    <path class="cls-5" d="M550.77,1273.01c-2.1,3.7-2.2,9.8,1.5,11.9s9.8-.5,11.9-4.2c2.1-3.7.9-8.4-2.8-10.6-3.7-2.1-8.4-.9-10.6,2.8v.1Z"/>
    <path class="cls-5" d="M422.67,1242.61c4.3,0,5-2.1,5-6.4s-.8-9.1-5-9.1-7.7,3.5-7.7,7.7,3.5,7.7,7.7,7.7v.1Z"/>
    <path class="cls-5" d="M464.57,1249.41c3.7,2.1,8.4-.5,10.6-4.2,2.1-3.7.9-7.1-2.8-9.2-3.7-2.1-8.4-.9-10.6,2.8-2.1,3.7-.9,8.4,2.8,10.6h0Z"/>
    <path class="cls-5" d="M538.17,1262.31c3.7-2.1,5-6.9,2.8-10.6-2.1-3.7-6.9-5-10.6-2.8-3.7,2.1-2.3,6.9-.1,10.6,2.1,3.7,4.2,5,7.9,2.8h0Z"/>
    <path class="cls-5" d="M338.07,1327.81c3.5,2.4,9.7.1,12.1-3.4s.1-7-3.4-9.4-8.3-1.5-10.7,2c-2.4,3.5-1.5,8.3,2,10.7v.1Z"/>
    <path class="cls-5" d="M379.27,1270.61c4.3-.4,7.4-4.2,6.9-8.5-.4-4.2-5.6-8.7-9.8-8.3-4.3.4-6,5.6-5.6,9.8.4,4.3,4.2,7.3,8.5,6.9v.1Z"/>
    <path class="cls-5" d="M428.37,1257.61c-3.1-3-8-2.9-10.9.1-3,3.1-2.9,9.3.1,12.3,3.1,3,7.9,1.6,10.9-1.5s2.9-8-.1-10.9Z"/>
    <path class="cls-5" d="M576.77,1383.61c1.8-3.9,1.4-9.8-2.5-11.6-3.9-1.8-9.8,1.3-11.6,5.2-1.8,3.9,0,8.5,3.9,10.2,3.9,1.8,8.5,0,10.2-3.9v.1Z"/>
    <path class="cls-5" d="M455.27,1475.21c-4.3-.4-8,2.7-8.4,7s2.7,8,7,8.4,8.2-4.1,8.6-8.3c.4-4.3-2.8-6.7-7.1-7.1h-.1Z"/>
    <path class="cls-5" d="M555.17,1450.31c-4.3-.4-8,2.7-8.4,7-.4,4.2,4.3,5.5,8.6,5.9,4.2.4,6.4-.1,6.8-4.4.4-4.3-2.7-8-7-8.4v-.1Z"/>
    <path class="cls-5" d="M496.77,1470.31c-4.3-.4-8,2.7-8.4,7-.4,4.2,2.7,8,7,8.4s5.2-1.6,5.6-5.9.1-9.1-4.1-9.5h-.1Z"/>
    <path class="cls-5" d="M384.67,1453.71c-4.2-.7-8.2,2.1-8.9,6.3-.7,4.2,2.1,8.5,6.3,8.9,8.3.8,8.2-2.1,8.9-6.3.7-4.2-2.1-8.2-6.3-8.9Z"/>
    <path class="cls-5" d="M347.07,1408.61c-2.2-3.7-6.9-4.9-10.6-2.8-3.7,2.2-4.5,11.5-2.4,15.2,2.2,3.7,7.8.5,11.5-1.7s3.6-7,1.4-10.7h.1Z"/>
    <path class="cls-5" d="M528.77,1460.61c-3.7-2.1-9.9.4-12,4.1s-.8,8.4,2.9,10.5c3.7,2.1,8.4.8,10.5-2.9,2.1-3.7,2.3-9.6-1.4-11.8v.1Z"/>
    <path class="cls-5" d="M342.77,1269.91c4.3,0,5-2.1,5-6.4s-.8-9.1-5-9.1-7.7,3.5-7.7,7.7,3.5,7.7,7.7,7.7v.1Z"/>
    <path class="cls-5" d="M356.17,1454.81c-3.7-2.1-8.4-.9-10.6,2.8-2.1,3.7-.9,8.4,2.8,10.6,3.7,2.1,8.4-.5,10.6-4.2,2.1-3.7.9-7.1-2.8-9.2h0Z"/>
    <path class="cls-5" d="M395.57,1491.81c-3.7,2.1-2.3,6.9-.1,10.6,2.1,3.7,4.2,5,7.9,2.8,3.7-2.1,5-6.9,2.8-10.6-2.1-3.7-6.9-5-10.6-2.8h0Z"/>
    <path class="cls-5" d="M387.07,1239.31c4.2-.4,7.4-4.2,6.9-8.5-.4-4.3-5.6-8.7-9.8-8.3-4.2.4-6,5.6-5.6,9.8.4,4.3,4.2,7.3,8.5,6.9v.1Z"/>
    <path class="cls-5" d="M544.17,1481.81c-3.5,2.5-3.4,11.9-.9,15.3,2.5,3.5,7.8-.3,11.3-2.8s2.9-7.3.4-10.8-7.3-4.3-10.8-1.8v.1Z"/>
    <path class="cls-5" d="M519.47,1492.81c-4.1-1.1-8.3,1.4-9.4,5.6-1,4.1,2.8,11.1,6.9,12.1s8.3-4.1,9.4-8.3c1.1-4.1-2.8-8.4-6.9-9.4h0Z"/>
    <path class="cls-5" d="M550.37,1246.11c4.1,1.1,8.3-4.1,9.4-8.3,1.1-4.1-2.8-8.3-6.9-9.4-4.1-1.1-8.3,1.4-9.4,5.6-1,4.1,2.8,11.1,6.9,12.1h0Z"/>
    <path class="cls-1" d="M232.77,1295.21c3.3,0,6-3.8,6-7.1s-2.7-5-6-5-6.1,2.7-6.1,6.1,2.7,6,6.1,6Z"/>
    <path class="cls-1" d="M720.97,1232.11c3.3,0,5-.6,5-3.9s-2.7-6.1-6-6.1-6.1,2.7-6.1,6.1,3.8,3.9,7.1,3.9Z"/>
    <path class="cls-1" d="M239.97,1248.41c-1.7,2.9-1.7,7.7,1.2,9.3,2.9,1.7,7.7-.4,9.3-3.3,1.7-2.9.7-6.6-2.2-8.3-2.9-1.7-6.6-.7-8.3,2.2v.1Z"/>
    <path class="cls-1" d="M545.77,1593.51c2.9-1.7,1.8-4.3,0-7.2-1.7-2.9-5.4-3.9-8.3-2.2-2.9,1.7-2.8,5.4-1.2,8.3,1.7,2.9,6.4,2.8,9.3,1.2l.2-.1Z"/>
    <path class="cls-1" d="M268.77,1218.71c0-3.3-.6-7.1-3.9-7.1s-6,2.7-6,6.1,2.7,6,6,6,3.9-1.6,3.9-5Z"/>
    <path class="cls-1" d="M335.97,1562.41c-2.9-1.7-6.6-.7-8.3,2.2-1.7,2.9-.7,6.6,2.2,8.3,2.9,1.7,6.6-.4,8.3-3.3,1.7-2.9.7-5.5-2.2-7.2Z"/>
    <path class="cls-1" d="M716.27,1290.01c-2.9,1.7-1.8,5.4,0,8.3,1.7,2.9,3.2,3.9,6.1,2.2,2.9-1.7,3.9-5.4,2.2-8.3s-5.4-3.9-8.3-2.2Z"/>
    <path class="cls-1" d="M554.07,1140.31c3.2-.9,7.2-5.3,6.3-8.5s-4.2-5.1-7.5-4.2c-3.2.9-5.1,4.2-4.2,7.5.9,3.2,2.1,6.2,5.3,5.2h.1Z"/>
    <path class="cls-1" d="M484.07,1578.41c-2.8-1.9-6.5-1.2-8.4,1.6-1.9,2.8-1.2,6.5,1.6,8.4,2.8,1.9,7.6.1,9.5-2.6,1.9-2.8.1-5.5-2.6-7.3l-.1-.1Z"/>
    <path class="cls-1" d="M594.57,1549.01c-3.3.3-4.7,4.4-4.4,7.7.3,3.3,3.3,5.8,6.6,5.4,3.3-.3,5.8-3.3,5.4-6.6-.3-3.3-4.4-6.8-7.7-6.5h.1Z"/>
    <path class="cls-1" d="M410.17,1125.31c2.4,2.3,6.2,1.2,8.6-1.2,2.3-2.4,2.3-6.2,0-8.6-2.4-2.3-6.2-2.3-8.6.1-2.3,2.4-2.3,7.3.1,9.6l-.1.1Z"/>
    <path class="cls-1" d="M226.27,1344.91c6.5,0,6.2-2.2,6.5-5.6.2-3.3-2.2-6.2-5.6-6.5-3.3-.2-6.2,2.3-6.5,5.6-.3,3.3,2.2,6.5,5.6,6.5Z"/>
    <path class="cls-1" d="M730.47,1357.51c-1.9-2.7-5.7-3.3-8.4-1.4-2.7,2-2.7,9.3-.7,12s6.1-.2,8.9-2.2c2.7-2,2.3-5.7.3-8.4h-.1Z"/>
    <path class="cls-1" d="M400.37,1614.51c.8-3.2-2.2-6.5-5.4-7.4-3.2-.8-6.5,1.1-7.4,4.4-.8,3.2,2.2,8.6,5.4,9.5,3.2.8,6.5-3.2,7.4-6.5Z"/>
    <path class="cls-1" d="M679.67,1184.81c3-1.5,4.8-1.5,2.8-7-1.5-4.1-4-4.3-7-2.8s-4.3,5.1-2.8,8.1,4,3.2,7,1.8v-.1Z"/>
    <path class="cls-1" d="M723.97,1253.41c-3-1.4-7.7,1-9.1,4.1-1.4,3,0,6.6,3,8s6.6,0,8-3,1.1-7.7-2-9.1h.1Z"/>
    <path class="cls-1" d="M582.27,1171.11c3.3,0,6-3.8,6-7.1s-2.7-5-6-5-6.1,2.7-6.1,6.1,2.7,6.1,6.1,6.1v-.1Z"/>
    <path class="cls-1" d="M684.07,1315.71c0,3.3,3.8,3.9,7.1,3.9s5-.6,5-3.9-2.7-6.1-6-6.1-6.1,2.7-6.1,6.1Z"/>
    <path class="cls-1" d="M689.27,1271.71c1.7-2.9.7-6.6-2.2-8.3-2.9-1.7-6.6-.7-8.3,2.2-1.7,2.9-1.7,7.6,1.2,9.3,2.9,1.7,7.7-.4,9.3-3.3v.1Z"/>
    <path class="cls-1" d="M309.57,1176.21c2.9-1.7,1.8-4.3,0-7.2-1.7-2.9-5.4-3.9-8.3-2.2-2.9,1.7-2.8,5.4-1.2,8.3,1.7,2.9,6.4,2.8,9.3,1.2l.2-.1Z"/>
    <path class="cls-1" d="M453.97,1621.01c-3.3,0-6.1,2.7-6.1,6s2.7,6.1,6.1,6.1,3.9-1.7,3.9-5-.6-7.1-3.9-7.1Z"/>
    <path class="cls-1" d="M759.17,1288.01c2.9,1.7,6.6-.4,8.3-3.3s.7-5.5-2.2-7.2-6.6-.7-8.3,2.2c-1.7,2.9-.7,6.6,2.2,8.3Z"/>
    <path class="cls-1" d="M185.77,1283.41c-2.9,1.7-1.8,5.4,0,8.3,1.7,2.9,3.3,3.9,6.1,2.2,2.9-1.7,3.9-5.4,2.2-8.3s-5.4-3.9-8.3-2.2Z"/>
    <path class="cls-1" d="M694.57,1354.21c-3.2.9-5.1,4.2-4.2,7.5.9,3.2,2.1,6.2,5.3,5.2,3.2-.9,7.2-5.3,6.3-8.5s-4.2-5.1-7.5-4.2h.1Z"/>
    <path class="cls-1" d="M387.27,1170.21c2.8,1.9,7.6.1,9.5-2.6,1.9-2.8.1-5.5-2.6-7.3-2.8-1.9-6.5-1.2-8.4,1.6-1.9,2.8-1.2,6.5,1.6,8.4l-.1-.1Z"/>
    <path class="cls-1" d="M226.67,1388.11c-.3-3.3-4.4-6.8-7.7-6.5s-4.7,4.4-4.4,7.7c.3,3.3,3.3,5.8,6.6,5.4,3.3-.3,5.8-3.3,5.4-6.6h.1Z"/>
    <path class="cls-1" d="M592.57,1590.01c-2.4-2.3-6.2-2.3-8.6.1-2.3,2.4-2.3,7.3.1,9.6,2.4,2.3,6.2,1.2,8.6-1.2,2.3-2.4,2.3-6.2-.1-8.6v.1Z"/>
    <path class="cls-1" d="M439.57,1589.71c.2-3.3-2.2-6.2-5.6-6.5-3.3-.2-6.2,2.2-6.5,5.6-.2,3.3,2.2,6.5,5.6,6.5,6.5,0,6.2-2.2,6.5-5.6Z"/>
    <path class="cls-1" d="M477.27,1124.11c2.7-2,2.3-5.7.3-8.4-2-2.7-5.7-3.3-8.4-1.4-2.7,2-2.7,9.3-.7,12,1.9,2.7,6.1-.2,8.9-2.2h-.1Z"/>
    <path class="cls-1" d="M236.77,1193.21c3.2.8,6.5-3.2,7.4-6.5.8-3.2-2.2-6.5-5.4-7.4-3.2-.8-6.5,1.1-7.4,4.4-.8,3.2,2.2,8.7,5.4,9.5Z"/>
    <path class="cls-1" d="M591.17,1118.01c3-1.4,4.8-1.5,2.8-7-1.5-4.1-4-4.3-7-2.8s-4.3,5.1-2.8,8.1,4,3.2,7,1.8v-.1Z"/>
    <path class="cls-1" d="M266.17,1158.41c3,1.4,6.6,0,8-3s1.1-7.7-2-9.1c-3-1.4-7.7,1-9.1,4.1-1.4,3,0,6.6,3,8h.1Z"/>
    <path class="cls-1" d="M496.17,1164.61c3.3,0,6-3.8,6-7.1s-2.7-5-6-5-6.1,2.7-6.1,6.1,2.7,6.1,6.1,6.1v-.1Z"/>
    <path class="cls-1" d="M731.97,1320.71c0,3.3,3.8,3.9,7.1,3.9s5-.6,5-3.9-2.7-6.1-6-6.1-6.1,2.7-6.1,6.1Z"/>
    <path class="cls-1" d="M232.07,1434.01c1.7-2.9.7-6.6-2.2-8.3-2.9-1.7-6.6-.7-8.3,2.2-1.7,2.9-1.7,7.7,1.2,9.3,2.9,1.7,7.7-.4,9.3-3.3v.1Z"/>
    <path class="cls-1" d="M698.37,1410.31c-2.9,1.7-2.8,5.4-1.2,8.3,1.7,2.9,6.4,2.8,9.3,1.2,2.9-1.7,1.8-4.3,0-7.2-1.7-2.9-5.4-3.9-8.3-2.2l.2-.1Z"/>
    <path class="cls-1" d="M315.77,1509.01c0,3.3,2.7,6.1,6.1,6.1s3.9-1.6,3.9-5-.6-7.1-3.9-7.1-6.1,2.7-6.1,6.1v-.1Z"/>
    <path class="cls-1" d="M295.87,1482.41c1.7-2.9.7-5.5-2.2-7.2-2.9-1.7-6.6-.7-8.3,2.2-1.7,2.9-.7,6.6,2.2,8.3,2.9,1.7,6.6-.4,8.3-3.3h0Z"/>
    <path class="cls-1" d="M186.37,1340.51c2.9-1.7,3.9-5.4,2.2-8.3s-5.4-3.9-8.3-2.2c-2.9,1.7-1.8,5.4,0,8.3,1.7,2.9,3.3,3.9,6.1,2.2Z"/>
    <path class="cls-1" d="M730.47,1408.81c-3.2.9-5.1,4.2-4.2,7.5.9,3.2,2.1,6.2,5.3,5.2,3.2-.9,7.2-5.3,6.3-8.5s-4.2-5.1-7.5-4.2h.1Z"/>
    <path class="cls-1" d="M355.77,1139.01c2.8,1.9,7.6.1,9.5-2.6,1.9-2.8.1-5.5-2.6-7.3-2.8-1.9-6.5-1.2-8.4,1.6-1.9,2.8-1.2,6.5,1.6,8.4l-.1-.1Z"/>
    <path class="cls-1" d="M424.77,1166.21c.3,3.3,3.3,5.8,6.6,5.4,3.3-.3,5.8-3.3,5.4-6.6-.3-3.3-4.4-6.8-7.7-6.5-3.3.3-4.7,4.4-4.4,7.7h.1Z"/>
    <path class="cls-1" d="M650.47,1227.61c2.3-2.4,2.3-6.2-.1-8.6-2.4-2.3-6.2-2.3-8.6.1-2.3,2.4-2.3,7.3.1,9.6,2.4,2.3,6.2,1.2,8.6-1.2v.1Z"/>
    <path class="cls-1" d="M269.37,1326.71c6.5,0,6.2-2.2,6.5-5.6.3-3.3-2.2-6.2-5.6-6.5-3.3-.2-6.2,2.3-6.5,5.6-.2,3.3,2.2,6.5,5.6,6.5Z"/>
    <path class="cls-1" d="M644.67,1294.91c-2-2.7-5.7-3.3-8.4-1.4-2.7,2-2.7,9.3-.7,12s6.1-.2,8.9-2.2c2.7-2,2.3-5.7.3-8.4h-.1Z"/>
    <path class="cls-1" d="M182.97,1382.71c3.2.8,6.5-3.2,7.4-6.5.8-3.2-2.2-6.5-5.4-7.4-3.2-.8-6.5,1.1-7.4,4.4-.8,3.2,2.2,8.7,5.4,9.5Z"/>
    <path class="cls-1" d="M180.57,1426.61c3-1.4,4.8-1.5,2.8-7-1.5-4.1-4-4.3-7-2.8-3,1.4-4.3,5.1-2.8,8.1s4,3.2,7,1.8v-.1Z"/>
    <path class="cls-1" d="M515.27,1623.41c1.4-3,1.1-7.7-2-9.1-3-1.4-7.7,1-9.1,4.1-1.4,3,0,6.6,3,8s6.6,0,8-3h.1Z"/>
    <path class="cls-1" d="M257.27,1363.71c-3.3,0-6,2.7-6,6s2.7,6.1,6,6.1,6.1-3.8,6.1-7.1-2.7-5-6.1-5Z"/>
    <path class="cls-1" d="M324.67,1628.11c-3.3,0-6,2.7-6,6.1s3.8,3.9,7.1,3.9,5-.6,5-3.9-2.7-6.1-6.1-6.1Z"/>
    <path class="cls-1" d="M468.67,1657.41c-2.9-1.7-6.6-.7-8.3,2.2-1.7,2.9-1.7,7.7,1.2,9.3,2.9,1.7,7.7-.4,9.3-3.3,1.7-2.9.7-6.6-2.2-8.3v.1Z"/>
    <path class="cls-1" d="M309.67,1236.71c-1.7-2.9-5.4-3.9-8.3-2.2-2.9,1.7-2.8,5.4-1.2,8.3,1.7,2.9,6.4,2.8,9.3,1.2,2.9-1.7,1.8-4.3,0-7.2l.2-.1Z"/>
    <path class="cls-1" d="M620.77,1139.91c3.3,0,3.9-1.7,3.9-5s-.6-7.1-3.9-7.1-6.1,2.7-6.1,6,2.7,6.1,6.1,6.1Z"/>
    <path class="cls-1" d="M515.17,1098.81c2.9,1.7,6.6-.4,8.3-3.3,1.7-2.9.7-5.5-2.2-7.2-2.9-1.7-6.6-.7-8.3,2.2-1.7,2.9-.7,6.6,2.2,8.3Z"/>
    <path class="cls-1" d="M561.47,1638.71c-2.9,1.7-1.8,5.4,0,8.3,1.7,2.9,3.3,3.9,6.1,2.2,2.9-1.7,3.9-5.4,2.2-8.3s-5.4-3.9-8.3-2.2Z"/>
    <path class="cls-1" d="M206.87,1542.21c-3.2.9-5.1,4.2-4.2,7.5.9,3.2,2.1,6.2,5.3,5.2,3.2-.9,7.2-5.3,6.3-8.5s-4.2-5.1-7.5-4.2h.1Z"/>
    <path class="cls-1" d="M275.47,1439.81c1.9-2.8.1-5.5-2.6-7.3-2.8-1.9-6.5-1.2-8.4,1.6-1.9,2.8-1.2,6.5,1.6,8.4s7.6.1,9.5-2.7h-.1Z"/>
    <path class="cls-1" d="M335.67,1209.01c3.3-.3,5.8-3.3,5.4-6.6-.3-3.3-4.4-6.8-7.7-6.5-3.3.3-4.7,4.4-4.4,7.7.3,3.3,3.3,5.7,6.6,5.4h.1Z"/>
    <path class="cls-1" d="M662.77,1156.41c2.3-2.4,2.3-6.2-.1-8.6-2.4-2.3-6.2-2.3-8.6.1-2.3,2.4-2.3,7.3.1,9.6,2.4,2.3,6.2,1.2,8.6-1.2v.1Z"/>
    <path class="cls-1" d="M460.27,1093.51c6.5,0,6.2-2.2,6.5-5.6.2-3.3-2.2-6.2-5.6-6.5-3.3-.3-6.2,2.3-6.5,5.6-.3,3.3,2.2,6.5,5.6,6.5Z"/>
    <path class="cls-1" d="M427.17,1097.31c2.7-1.9,2.3-5.7.3-8.4-1.9-2.7-5.7-3.3-8.4-1.4-2.7,1.9-2.7,9.3-.7,12,1.9,2.7,6.1-.2,8.9-2.2h-.1Z"/>
    <path class="cls-1" d="M678.57,1554.61c-3.2-.8-6.5,1.1-7.4,4.4-.8,3.2,2.2,8.7,5.4,9.5s6.5-3.2,7.4-6.5c.8-3.2-2.2-6.5-5.4-7.4Z"/>
    <path class="cls-1" d="M294.47,1596.11c-3,1.5-4.3,5.1-2.8,8.1s4,3.2,7,1.8c3-1.5,4.8-1.5,2.8-7-1.5-4.1-4-4.3-7-2.8v-.1Z"/>
    <path class="cls-1" d="M211.87,1221.01c-3-1.4-7.7,1-9.1,4.1-1.4,3,0,6.6,3,8s6.6,0,8-3,1.1-7.7-2-9.1h.1Z"/>
    <path class="cls-1" d="M659.07,1494.61c-3.3-.3-6.3,2.1-6.6,5.5-.3,3.3,2.1,6.3,5.5,6.6,3.3.3,6.4-3.2,6.7-6.5s-2.2-5.2-5.5-5.5l-.1-.1Z"/>
    <path class="cls-1" d="M702.67,1514.51c-3.3-.3-6.3,2.1-6.6,5.5-.3,3.3,3.4,4.3,6.7,4.6,3.3.3,5-.1,5.3-3.4s-2.1-6.3-5.5-6.6l.1-.1Z"/>
    <path class="cls-1" d="M643.77,1557.41c-2.7-1.9-6.5-1.3-8.4,1.4-1.9,2.7-2.5,7.5.3,9.4,2.7,1.9,7.7.3,9.6-2.4,1.9-2.7,1.3-6.5-1.4-8.4h-.1Z"/>
    <path class="cls-1" d="M405.87,1657.91c-3,1.4-3.3,5.1-1.9,8.1s6.1,3.4,9.2,2c3-1.4,2.2-4.1.8-7.2-1.4-3-5-4.4-8-3l-.1.1Z"/>
    <path class="cls-1" d="M237.67,1490.81c.3-3.3,0-7.1-3.2-7.5-3.3-.3-6.3,2.1-6.6,5.4s2.1,6.3,5.4,6.6c3.3.3,4.1-1.3,4.4-4.6v.1Z"/>
    <path class="cls-1" d="M503.97,1552.21c-1.9,2.7-1.3,6.5,1.4,8.4,2.7,1.9,6.6.2,8.5-2.5s1.2-5.4-1.5-7.4c-2.7-1.9-6.5-1.3-8.4,1.4v.1Z"/>
    <path class="cls-1" d="M621.87,1490.01c-1.4-3-5-4.4-8-3s-2.3,5.2-.9,8.2c1.4,3,2.9,4.2,5.9,2.8,3-1.4,4.4-5,3-8Z"/>
    <path class="cls-1" d="M513.47,1650.91c-3.3.6-5.5,3.7-4.9,7s1.5,6.3,4.8,5.7c3.3-.6,7.7-4.6,7.1-7.9s-3.7-5.5-7-4.9v.1Z"/>
    <path class="cls-1" d="M367.97,1633.61c-2.6-2.1-6.4-1.8-8.5.8-2.1,2.6-1.8,6.4.8,8.5,2.6,2.1,7.5.8,9.7-1.7,2.1-2.6.6-5.4-1.9-7.6h-.1Z"/>
    <path class="cls-1" d="M186.07,1479.61c-3.3,0-5.1,3.9-5.1,7.2s2.7,6,6.1,6,6-2.7,6-6.1-3.7-7.2-7-7.2v.1Z"/>
    <path class="cls-1" d="M247.37,1562.71c-2.5,2.2-3,7-.8,9.6s6.1,1.8,8.6-.4c2.5-2.2,2.9-6,.7-8.5s-6-2.9-8.5-.7Z"/>
    <path class="cls-1" d="M463.27,1562.51c.6-3.3-1.6-6.4-4.9-7s-6.4,1.7-7,4.9c-.6,3.3,1.6,6.7,4.9,7,6.5.6,6.4-1.6,7-4.9Z"/>
    <path class="cls-1" d="M355.07,1537.31c-2.9,1.7-3.5,9-1.9,11.9,1.7,2.9,6.1.4,9-1.3,2.9-1.7,2.8-5.5,1.1-8.4-1.7-2.9-5.4-3.9-8.3-2.2h.1Z"/>
    <path class="cls-1" d="M401.67,1552.51c-1.1,3.1,1.4,8.8,4.5,9.9s6.8-2.6,7.9-5.8c1.1-3.1-1.6-6.7-4.7-7.8-3.1-1.1-6.6.5-7.7,3.7h0Z"/>
    <path class="cls-1" d="M645.57,1456.81c-1.1-4.2-3.6-4.6-6.7-3.5-3.1,1.2-4.7,4.6-3.6,7.8,1.2,3.1,3.7,3.6,6.8,2.4s4.9-1,3.5-6.7h0Z"/>
    <path class="cls-1" d="M300.67,1537.61c-2.9-1.7-7.8.3-9.4,3.2-1.7,2.9-.7,6.6,2.2,8.3,2.9,1.7,6.6.6,8.3-2.3,1.7-2.9,1.8-7.5-1.1-9.2Z"/>
    <path class="cls-1" d="M652.37,1362.71c-3.3,0-6.1,2.7-6.1,6.1s2.7,6.1,6.1,6.1,6.1-3.8,6.1-7.1-2.7-5-6.1-5v-.1Z"/>
    <path class="cls-1" d="M629.17,1256.51c0-3.3-2.7-6.1-6-6.1s-6.1,2.7-6.1,6.1,3.8,3.9,7.1,3.9,5-.6,5-3.9Z"/>
    <path class="cls-1" d="M649.47,1412.21c-2.9-1.7-6.6-.7-8.3,2.2-1.7,2.9-1.7,7.7,1.2,9.3,2.9,1.7,7.7-.4,9.3-3.3,1.7-2.9.7-6.6-2.2-8.3v.1Z"/>
    <path class="cls-1" d="M656.87,1339.21c-1.7-2.9-5.4-3.9-8.3-2.2-2.9,1.7-2.8,5.4-1.2,8.3,1.7,2.9,6.4,2.8,9.3,1.2,2.9-1.7,1.8-4.3.1-7.2l.1-.1Z"/>
    <path class="cls-1" d="M281.27,1284.21c0-3.3-.6-7.1-3.9-7.1s-6.1,2.7-6.1,6,2.7,6.1,6.1,6.1,3.9-1.6,3.9-5Z"/>
    <path class="cls-1" d="M587.57,1528.61c1.7-2.9.7-5.5-2.2-7.2s-6.6-.7-8.3,2.2c-1.7,2.9-.7,6.6,2.2,8.3,2.9,1.7,6.6-.4,8.3-3.3Z"/>
    <path class="cls-1" d="M547.97,1544.31c-2.9,1.7-1.8,5.4,0,8.3,1.7,2.9,3.3,3.9,6.1,2.2,2.9-1.7,3.9-5.4,2.2-8.3s-5.4-3.9-8.3-2.2Z"/>
    <path class="cls-1" d="M682.27,1443.91c-3.2.9-5.1,4.2-4.2,7.5.9,3.2,2.1,6.2,5.3,5.2,3.2-.9,7.2-5.3,6.3-8.5s-4.2-5.1-7.5-4.2h.1Z"/>
    <path class="cls-1" d="M587.47,1207.11c-1.9,2.8-1.2,6.5,1.6,8.4s7.6.1,9.5-2.6c1.9-2.8.1-5.5-2.7-7.4s-6.5-1.2-8.4,1.6h0Z"/>
    <path class="cls-1" d="M616.37,1187.41c.3,3.3,3.3,5.7,6.6,5.4,3.3-.3,5.8-3.3,5.4-6.6-.3-3.3-4.4-6.8-7.7-6.5s-4.7,4.4-4.4,7.7h.1Z"/>
    <path class="cls-1" d="M553.57,1190.21c2.3-2.4,2.3-6.2-.1-8.6-2.4-2.3-6.2-2.3-8.6.1-2.3,2.4-2.3,7.3.1,9.6,2.4,2.3,6.2,1.2,8.6-1.2v.1Z"/>
    <path class="cls-1" d="M794.97,1329.61c.3-3.3-2.2-6.2-5.6-6.5-3.3-.2-6.2,2.3-6.5,5.6-.3,3.3,2.2,6.5,5.6,6.5,6.5,0,6.2-2.2,6.5-5.6Z"/>
    <path class="cls-1" d="M710.47,1457.21c-2.7,2-2.7,9.3-.7,12,1.9,2.7,6.1-.2,8.9-2.2,2.7-1.9,2.3-5.7.3-8.4-1.9-2.7-5.7-3.3-8.4-1.4h-.1Z"/>
    <path class="cls-1" d="M252.17,1519.71c-3.2-.8-6.5,1.1-7.4,4.4-.8,3.2,2.2,8.6,5.4,9.5,3.2.8,6.5-3.2,7.4-6.5.8-3.2-2.2-6.5-5.4-7.4Z"/>
    <path class="cls-1" d="M368.57,1578.31c-3,1.4-4.3,5.1-2.8,8.1s4,3.2,7,1.8c3-1.5,4.8-1.5,2.8-7-1.5-4.1-4-4.3-7-2.8v-.1Z"/>
    <path class="cls-1" d="M631.47,1532.51c3,1.4,6.6,0,8-3s1.1-7.7-2-9.1c-3-1.4-7.7,1-9.1,4.1-1.4,3,0,6.6,3,8h.1Z"/>
    <path class="cls-1" d="M372.77,1113.91c3.3-.3,5.8-3.3,5.4-6.6-.3-3.3-4.4-6.8-7.7-6.5-3.3.3-4.7,4.4-4.4,7.7.3,3.3,3.3,5.8,6.6,5.4h.1Z"/>
    <path class="cls-1" d="M313.57,1125.41c3.3-.3,5.8-3.3,5.4-6.6-.3-3.3-4.4-6.8-7.7-6.5-3.3.3-4.7,4.4-4.4,7.7.3,3.3,3.3,5.8,6.6,5.4h.1Z"/>
    <path class="cls-1" d="M778.77,1377.31c2.9-1.7,3.9-5.4,2.2-8.3s-5.4-3.9-8.3-2.2c-2.9,1.7-1.8,5.4,0,8.3,1.7,2.9,3.3,3.9,6.1,2.2Z"/>
    <path class="cls-1" d="M763.17,1409.11c-3.2-.8-6.5,1.1-7.4,4.4-.8,3.2,2.2,8.6,5.4,9.5,3.2.8,6.5-3.2,7.4-6.5.8-3.2-2.2-6.5-5.4-7.4Z"/>
    <path class="cls-1" d="M629.27,1611.01c-1.7-2.9-5.4-3.9-8.3-2.2-2.9,1.7-1.8,5.4-.1,8.3s3.3,3.9,6.1,2.2c2.9-1.7,3.9-5.4,2.2-8.3h.1Z"/>
    <path class="cls-1" d="M744.47,1507.21c.8-3.2-2.2-6.5-5.4-7.4-3.2-.8-6.5,1.1-7.4,4.4-.8,3.2,2.2,8.6,5.4,9.5,3.2.8,6.5-3.2,7.4-6.5Z"/>
    <path class="cls-1" d="M775.17,1489.51c-2.9,1.7-1.8,5.4,0,8.3,1.7,2.9,3.2,3.9,6.1,2.2,2.9-1.7,3.9-5.4,2.2-8.3s-5.4-3.9-8.3-2.2Z"/>
    <path class="cls-1" d="M727.57,1565.61c-2.7,1.9-2.7,9.3-.7,12s6.1-.2,8.9-2.2c2.7-2,2.3-5.7.3-8.4-1.9-2.7-5.7-3.3-8.4-1.4h-.1Z"/>
    <path class="cls-1" d="M782.87,1453.01c-3-1.4-7.7,1-9.1,4.1-1.4,3,0,6.6,3,8s6.6,0,8-3,1.1-7.7-2-9.1h.1Z"/>
    <path class="cls-1" d="M500.77,1696.61c-2.9-1.7-6.6-.7-8.3,2.2-1.7,2.9-.7,6.6,2.2,8.3,2.9,1.7,6.6-.4,8.3-3.3,1.7-2.9.7-5.5-2.2-7.2Z"/>
    <path class="cls-1" d="M744.57,1531.11c-3.3,0-6.1,2.7-6.1,6.1s3.8,3.9,7.1,3.9,5-.6,5-3.9-2.7-6.1-6-6.1Z"/>
    <path class="cls-1" d="M632.17,1650.31c-3.2.9-5.1,4.2-4.2,7.5.9,3.2,2.1,6.2,5.3,5.2,3.2-.9,7.2-5.3,6.3-8.5s-4.2-5.1-7.5-4.2h.1Z"/>
    <path class="cls-1" d="M797.37,1394.11c-3.3-.2-6.2,2.3-6.5,5.6-.3,3.3,2.2,6.5,5.6,6.5,6.5,0,6.2-2.2,6.5-5.6.3-3.3-2.2-6.2-5.6-6.5Z"/>
    <path class="cls-1" d="M692.17,1614.11c-2.7,2-2.7,9.3-.7,12s6.1-.2,8.9-2.2c2.7-2,2.3-5.7.3-8.4-2-2.7-5.7-3.3-8.4-1.4h-.1Z"/>
    <path class="cls-1" d="M540.87,1684.51c-2.9,1.7-1.8,5.4,0,8.3,1.7,2.9,3.3,3.9,6.1,2.2,2.9-1.7,3.9-5.4,2.2-8.3s-5.4-3.9-8.3-2.2Z"/>
    <path class="cls-1" d="M595.37,1669.71c-3.2-.8-6.5,1.1-7.4,4.4-.8,3.2,2.2,8.6,5.4,9.5,3.2.8,6.5-3.2,7.4-6.5.8-3.2-2.2-6.5-5.4-7.4Z"/>
    <path class="cls-1" d="M321.07,1074.81c2.9-1.7,3.9-5.4,2.2-8.3-1.7-2.9-5.4-3.9-8.3-2.2-2.9,1.7-1.8,5.4,0,8.3,1.7,2.9,3.3,3.9,6.1,2.2h0Z"/>
    <path class="cls-1" d="M411.27,1039.31c2.7-2,2.3-5.7.3-8.4-1.9-2.7-5.7-3.3-8.4-1.4-2.7,2-2.7,9.3-.7,12s6.1-.2,8.9-2.2h-.1Z"/>
    <path class="cls-1" d="M278.67,1093.51c3,1.4,6.6,0,8-3s1.1-7.7-2-9.1c-3-1.4-7.7,1-9.1,4.1-1.4,3,0,6.6,3,8h.1Z"/>
    <path class="cls-1" d="M254.27,1125.61c2.9,1.7,6.6-.4,8.3-3.3s.7-5.5-2.2-7.2-6.6-.7-8.3,2.2c-1.7,2.9-.7,6.6,2.2,8.3Z"/>
    <path class="cls-1" d="M374.47,1061.41c3.3,0,5-.6,5-3.9s-2.7-6.1-6-6.1-6.1,2.7-6.1,6.1,3.8,3.9,7.1,3.9Z"/>
    <path class="cls-1" d="M485.37,1039.21c2.6-2.1,3-5.9.9-8.5s-5.9-3-8.5-.9-4.8,4.4-2.7,7c2.1,2.6,7.7,4.5,10.3,2.4h0Z"/>
    <path class="cls-1" d="M633.27,1093.51c6.5,0,6.2-2.2,6.5-5.6.3-3.3-2.2-6.2-5.6-6.5-3.3-.2-6.2,2.3-6.5,5.6-.3,3.3,2.2,6.5,5.6,6.5Z"/>
    <path class="cls-1" d="M447.97,1060.21c2.7-1.9,2.3-5.7.3-8.4-1.9-2.7-5.7-3.3-8.4-1.4-2.7,2-2.7,9.3-.7,12s6.1-.2,8.9-2.2h-.1Z"/>
    <path class="cls-1" d="M592.57,1068.71c2.9-1.7,3.9-5.4,2.2-8.3s-5.4-3.9-8.3-2.2c-2.9,1.7-1.8,5.4-.1,8.3s3.3,3.9,6.1,2.2h.1Z"/>
    <path class="cls-1" d="M534.07,1047.01c3.2.8,6.5-3.2,7.4-6.5.8-3.2-2.2-6.5-5.4-7.4-3.2-.8-6.5,1.1-7.4,4.4-.8,3.2,2.2,8.6,5.4,9.5Z"/>
    <path class="cls-1" d="M708.67,1144.11c3.1,1.2,5,1,6.2-2.1s-.3-6.6-3.4-7.8c-3.1-1.2-6.6.3-7.8,3.5-1.2,3.1,2,5.3,5.1,6.5l-.1-.1Z"/>
    <path class="cls-1" d="M774.47,1217.51c.9-3.2-1.8-5.9-5-6.8s-6.6,1-7.4,4.2c-.9,3.2,3.7,8.9,6.9,9.8s4.7-4,5.6-7.2h-.1Z"/>
    <path class="cls-1" d="M689.57,1117.51c3.2-.8,5.2-4.1,4.3-7.4-.8-3.2-4-6.7-7.2-5.8-3.2.8-5.3,5.6-4.5,8.9.8,3.2,4.1,5.2,7.4,4.4v-.1Z"/>
    <path class="cls-1" d="M125.87,1289.71c-3.3.5-5.6,3.6-5.1,6.9s3.6,5.6,6.9,5.1,4.9-4.4,4.4-7.7c-.5-3.3-2.9-4.7-6.2-4.2v-.1Z"/>
    <path class="cls-1" d="M737.17,1180.31c2.6-2.1,3.5-3.6,1.4-6.2s-5.9-3-8.5-.9-3,5.9-.9,8.5,5.4.7,8-1.4Z"/>
    <path class="cls-1" d="M776.17,1252.21c2.7,1.9,5.5,3.5,7.5.7,1.9-2.7,2.3-8.6-.4-10.6-2.7-1.9-6.5-1.3-8.4,1.4-1.9,2.7-1.3,6.5,1.4,8.4l-.1.1Z"/>
    <path class="cls-1" d="M147.07,1253.31c-2.8,1.9-3.5,5.7-1.6,8.4,1.9,2.8,5.8,3.6,8.4,1.6,5.1-4.1,3.5-5.7,1.6-8.4-1.9-2.8-5.7-3.5-8.4-1.6Z"/>
    <path class="cls-1" d="M209.07,1153.21c3.2.9,4.7-4,5.6-7.2.9-3.2-1.8-5.9-5-6.8s-6.6,1-7.5,4.2,3.7,8.9,6.9,9.8Z"/>
    <path class="cls-1" d="M156.67,1206.71c-3.3.2-5.9,3-5.7,6.4.2,3.3,3,5.9,6.4,5.7,3.3-.2,4-4,3.8-7.3s-1.2-4.9-4.5-4.7v-.1Z"/>
    <path class="cls-1" d="M183.37,1176.41c-2.2,2.5-1,6.8,1.5,9s6.3,1.9,8.5-.6,1.9-8.7-.6-10.9c-2.5-2.2-7.3,0-9.5,2.5h.1Z"/>
    <path class="cls-1" d="M170.37,1506.01c-2.5-2.2-4.3-2.7-6.5-.2s-2,6.3.4,8.6c2.5,2.2,6.3,2,8.5-.4,2.2-2.5,0-5.7-2.5-7.9l.1-.1Z"/>
    <path class="cls-1" d="M138.57,1454.01c2.7,2,6.5,1.4,8.5-1.3,2-2.7-.3-9.7-3-11.6-2.7-2-5.8,2.1-7.8,4.8-2,2.7-.4,6.2,2.3,8.1Z"/>
    <path class="cls-1" d="M178.77,1537.71c-3.3-.4-6.3,2-6.7,5.3s1.3,7.6,4.7,8c3.3.4,7-3.4,7.4-6.7.4-3.3-2-6.3-5.3-6.7l-.1.1Z"/>
    <path class="cls-1" d="M203.57,1589.31c-3.3-.7-6.2,2.4-6.9,5.7-.7,3.3,1.1,5.5,4.3,6.2,3.3.7,6.5-1.4,7.2-4.7.7-3.3-1.4-6.5-4.6-7.2Z"/>
    <path class="cls-1" d="M140.47,1488.01c-3.2,1-4.6,2.1-3.5,5.3,1,3.2,4.4,4.9,7.6,3.9s4.9-4.4,3.9-7.6-4.8-2.6-8-1.5v-.1Z"/>
    <path class="cls-1" d="M117.77,1393.51c-2.8,1.8-5.2,7.3-3.4,10,1.9,2.8,5.6,3.5,8.4,1.7s3.5-5.6,1.7-8.4-3.9-5.2-6.7-3.3h0Z"/>
    <path class="cls-1" d="M237.57,1602.11c-6.2,2-5.2,4.1-4.5,7.3.8,3.2,4.1,5.2,7.3,4.5,3.2-.8,5.2-4.1,4.5-7.3-.8-3.2-4.1-5.5-7.3-4.5Z"/>
    <path class="cls-1" d="M123.87,1341.41c-2.7-2-5.8,2.1-7.8,4.8-2,2.7-.4,6.1,2.3,8.1,2.7,2,6.5,1.4,8.5-1.3,2-2.7-.3-9.7-3-11.6Z"/>
    <path class="cls-1" d="M278.57,1646.01c-2.5-2.2-4.3-2.7-6.5-.2s-2,6.3.4,8.5c2.5,2.2,6.3,2,8.5-.4,2.2-2.5,0-5.7-2.5-7.9h.1Z"/>
    <path class="cls-1" d="M309.77,1656.91c-3.3.2-5.2,5.1-5,8.4s4.1,5.5,7.4,5.3,5.9-3.1,5.7-6.4c-.2-3.3-4.7-7.6-8.1-7.3Z"/>
    <path class="cls-1" d="M361.27,1669.91c-3-1.4-7.7,1-9.1,4.1-1.4,3,0,6.6,3,8s6.6,0,8-3,1.1-7.7-2-9.1h.1Z"/>
    <path class="cls-1" d="M402.57,1694.01c-2.9-1.7-6.6-.7-8.3,2.2-1.7,2.9-.7,6.6,2.2,8.3,2.9,1.7,6.6-.4,8.3-3.3,1.7-2.9.7-5.5-2.2-7.2Z"/>
    <path class="cls-1" d="M441.67,1701.61c-3.3-.2-6.2,2.3-6.5,5.6-.2,3.3,2.2,6.5,5.6,6.5,6.5,0,6.2-2.2,6.5-5.6.3-3.3-2.2-6.2-5.6-6.5Z"/>
  </g>
  <path class="cls-5" d="M1807.77,1530.11c2.6,0,5.3.2,8,.4,1.2,0,2,.5,2.2-.7,0-.4-10.2-1.9-11.2-1.9-5.4-.4-10.6-.6-16-.5-19.5.6-37.9,7.6-53.9,18.4-9.7,6.5-17,15.3-22.3,25.6-2.7,5.2-4.3,10.8-5.4,16.5-.2,1-1.6,12.1-.8,12.2,1.3.3,1.1-.1,1.6-1.3.9-2,1.7-4,2.5-6.1,1.9-4.7,4.6-9.1,7.1-13.4,5.4-9.1,12.8-17.2,20.4-24.6,13.4-13.2,33-21.2,51.5-23.5,5.4-.7,10.9-1.2,16.4-1.1h-.1Z"/>
  <path class="cls-5" d="M1821.47,1540.61c.7-.2.6-.2.4-1,0-.3-1.4,0-1.7.1-5.2,1-10.2,2-15.2,3.7-22.9,7.9-41.2,24.7-53.5,45.4-11.5,19.4-15.5,42.8-7.3,64.2.8-.1.9,0,1-.8,0-1.3.1-2.5.2-3.8.1-3.1.5-6.3.8-9.4,1-6.2,1.9-12.4,3.5-18.5,3-11.4,6.8-23.1,12.6-33.4,5.7-10.3,13.3-19.6,22.3-27.2,8.7-7.4,18.6-13.4,29.5-17,2.5-.8,4.9-1.6,7.4-2.3h0Z"/>
  <path class="cls-5" d="M1735.87,1471.71c2.3,0,4.5-.2,6.8-.4,5.2-.3,10.5-.7,15.7-.8,9.9-.3,20.4-.8,30,2.2,17.5,5.4,28.8,20.9,37.8,35.8.5.9,1.2.3.9-.6-.8-2-1.6-3.9-2.5-5.9-2.2-5.1-5-10-8-14.5-5.9-8.8-13.7-15.9-23.1-20.7-9.7-5-21.1-7.4-31.9-6-9.9,1.3-19.6,4.6-27.9,10.1.4,1.3.9,1,2.2.9v-.1Z"/>
  <path class="cls-5" d="M2015.27,1538.61c-.2-.9-.5-1.9-.7-2.8-.8-2.7-1.9-5.2-3.2-7.7-2.6-5.1-6.2-9.5-10.4-13.4-9-8.4-20.4-13.5-32.5-15.6-24-4.1-48.7.4-71.3,8.8-9.9,3.7-19.3,8.6-28.4,13.9-.1,0-.9.4-1,.6,0,.1.4.9.5.8,1.3-.6,2.6-1.2,3.9-1.8,4.9-2.2,9.9-4.3,15-6.1,22.5-8,47.7-12.8,71.5-8.6,11.3,2,23.5,5.7,33.3,11.7,4.9,3,9.3,6.3,13.5,10.3,3.4,3.3,6.2,7.1,9.1,10.9.8-.4.9-.2.7-1.1v.1Z"/>
  <path class="cls-5" d="M1918.17,1544.81c-10.7-3.7-21.9-5.6-33.1-6.1-2.4-.1-4.9,0-7.3,0-.8,0-.7,0-.7.8,0,.3,1.5.3,1.8.3,5.1.6,10.2,1.3,15.3,2.4,22.9,4.9,45.3,16.9,59.1,36.1,6.8,9.4,11.7,20.9,14.4,32.2,2.5,10.4,2.6,20.7,2,31.3.5.1.8.4,1.1,0,.3-.7.7-1.4,1-2.1.9-1.8,1.6-3.7,2.3-5.7,1.5-4.6,2.4-9.4,2.7-14.2.6-10.3-1.3-20.8-5.7-30.2-10-21.3-31-37.2-52.8-44.7l-.1-.1Z"/>
  <path class="cls-5" d="M1837.67,1574.61c-1,.8-1.9,1.7-2.9,2.5-3.9,3.5-7.2,7.6-10.2,11.8-6.9,9.4-11.9,20.4-15.6,31.4-4,11.7-6.8,23.8-8.6,36-1.8,12.4-2.8,25-2.3,37.5.9,21.2,7.3,44.8,23.4,59.5.3-.2.9-.4.6-.8-.4-.7-.8-1.5-1.2-2.2-1.1-2-2.1-4-2.9-6.1-1.7-4.3-3.2-8.7-4.3-13.1-2.4-9.4-3.8-19-4.8-28.6-1.9-20.3-2.5-40.4.8-60.6,3.7-22.4,10.6-46,25.8-63.4.7-.7,4-3.3,3.3-4.1-.5-.5-.5-.2-1.1.3v-.1Z"/>
  <path class="cls-5" d="M1904.77,1609.81c-8.6-21.5-20.9-43.4-39.3-58-1-.8-10.8-7.8-11.2-7.1-.5.8-.4.7.4,1.3,1,.7,2.1,1.4,3.1,2.1,1.9,1.4,3.8,3,5.5,4.6,8.5,8,15.3,17.3,21,27.5,11.8,21.2,19.3,44.7,22.5,68.7,3,22.6,5.4,45.7-1.3,67.8.4.2.7.6,1,.2.5-.6.9-1.3,1.4-1.9,1.1-1.6,2.1-3.3,3-5,2.1-4,3.6-8.3,4.8-12.7,2.5-9.5,3.4-19.5,3.1-29.4-.7-19.9-6.5-39.7-13.9-58.2l-.1.1Z"/>
  <path class="cls-5" d="M1918.37,1468.01c5.7-2.1,11.7-3.6,17.7-4.7,5.7-1,11.7-1.9,17.5-1.6,5.7.2,11.2,1,16.8,2.4,4.6,1.2,8.9,3.1,13.2,5.1.5-.7.7-.7,0-1.3-.8-.8-1.6-1.7-2.4-2.5-2.1-2-4.4-3.6-6.8-5.2-5-3.3-10.8-5.3-16.6-6.6-12.1-2.7-24.8-1-36.3,3.4-22.4,8.6-40.9,24.3-56.3,42.4-6.5,8.2-12.3,16.7-17.6,25.7-.1.2-.5.7-.3.8.3.2.6.6.8.3.9-1.3,1.9-2.6,2.8-3.8,3.2-4.4,6.6-8.6,10.2-12.6,15.5-17.7,34.8-33.7,57.1-41.8h.2Z"/>
</svg>