<svg xmlns="http://www.w3.org/2000/svg" xmlns:xlink="http://www.w3.org/1999/xlink" width="52.033" height="59.276" viewBox="0 0 52.033 59.276">
  <defs>
    <clipPath id="clip-path">
      <rect id="長方形_367" data-name="長方形 367" width="52.033" height="59.276" fill="#ee7a7a"/>
    </clipPath>
  </defs>
  <g id="グループ_551" data-name="グループ 551" transform="translate(0 0)">
    <g id="グループ_550" data-name="グループ 550" transform="translate(0 0)" clip-path="url(#clip-path)">
      <path id="パス_816" data-name="パス 816" d="M34.3,14.64c-4.675,0-9.349-.044-14.022.012-4.959.06-5.867,1.108-5.785,6.059.025,1.555.217,3.112.4,4.66Q16.4,38.54,17.94,51.707c.178,1.545.363,3.092.443,4.644a2.755,2.755,0,0,1-2.911,2.921q-4.279-.27-8.553-.6a2.6,2.6,0,0,1-2.2-2.743,30.05,30.05,0,0,0-.448-11.608,32.5,32.5,0,0,1-.388-3.876C3.459,35.263,3.013,30.085,2.646,24.9c-.165-2.331-.168-4.674-.24-7.011-.08-2.6-.162-5.2-.231-7.794A14.809,14.809,0,0,0,.136,3.473C-.446,2.382.949.639,2.148.917c7.468,1.73,15.005,1.248,22.477.388C31.617.5,38.632.484,45.629.012c2.172-.147,3.3,1.161,3.144,3.417-.073,1.035-.279,2.062-.348,3.1-.131,1.958.383,3.588,2.363,4.466a2.378,2.378,0,0,1,1.163.94,2.5,2.5,0,0,1-.077,1.412c-.047.233-.276.6-.436.61-2.593.111-5.188.207-7.784.237-3.118.037-6.238.009-9.356.009,0,.146,0,.294,0,.44M28.189,4.012c0-.028,0-.056,0-.083-3.112.11-6.229.132-9.333.353-3.877.276-7.744.7-11.612,1.1A2.693,2.693,0,0,0,5.152,7.4,12.215,12.215,0,0,0,4.7,9.684c-.074,3.626-.314,7.271-.061,10.878C5.368,30.908,6.206,41.248,7.7,51.52a9.4,9.4,0,0,0,.339,1.515,2.619,2.619,0,0,0,2.128,2,12.1,12.1,0,0,0,3.056.015,1.635,1.635,0,0,0,1.081-.9,6.454,6.454,0,0,0,.423-2.244c.049-4.425-.838-8.777-1.15-13.158-.609-8.537-1.915-16.98-2.821-25.475-.133-1.255,1.115-2.858,2.207-2.638,6.431,1.3,12.93.281,19.392.594a105.523,105.523,0,0,0,10.868-.5A2.876,2.876,0,0,0,45.337,8.7a8.584,8.584,0,0,0-.126-3.032A2.421,2.421,0,0,0,43.7,4.141a52.265,52.265,0,0,0-6.96-.477c-2.85,0-5.7.222-8.552.347" transform="translate(0 0)" fill="#ee7a7a"/>
    </g>
  </g>
</svg>
