<svg id="グループ_553" data-name="グループ 553" xmlns="http://www.w3.org/2000/svg" xmlns:xlink="http://www.w3.org/1999/xlink" width="38.925" height="51.545" viewBox="0 0 38.925 51.545">
  <defs>
    <clipPath id="clip-path">
      <rect id="長方形_368" data-name="長方形 368" width="38.925" height="51.545" fill="#ee7a7a"/>
    </clipPath>
  </defs>
  <g id="グループ_552" data-name="グループ 552" transform="translate(0 0)" clip-path="url(#clip-path)">
    <path id="パス_817" data-name="パス 817" d="M18.024,51.018c-5,.565-10.4-.474-15.826-.6A2.592,2.592,0,0,1,.012,47.687c.271-2.313.556-4.624.873-6.93a2.828,2.828,0,0,1,3.222-2.6c4.336.982,8.748.954,13.14,1.107A57.166,57.166,0,0,0,24.22,39c2.669-.235,4.087-1.765,4.408-4.524.12-1.028.2-2.065.215-3.1.066-4.144.143-8.287.134-12.431-.011-5.187-.1-10.373-2.014-15.318a7.989,7.989,0,0,1-.27-1.509c-.151-.86,1.038-2.268,1.824-2.1,1.759.367,3.5.807,5.263,1.163,3.61.73,4.146,1.337,3.838,5.268a71.442,71.442,0,0,0,.27,11.622c.5,5.929.652,11.887.889,17.836.123,3.1.144,6.214.146,9.322a21.41,21.41,0,0,1-.321,3.083,3.554,3.554,0,0,1-3.063,3.046c-2.067.122-4.141.233-6.209.179-3.622-.1-7.241-.321-11.308-.513M30.853,22.131H30.83q0,7.392,0,14.784c0,.777-.027,1.556-.081,2.331a3.335,3.335,0,0,1-2.41,2.735,24.945,24.945,0,0,1-4.614.443c-3.624-.169-7.236-.563-10.856-.811q-3.095-.212-6.2-.238a3.152,3.152,0,0,0-2.592,1.465C2.578,44.881,3.3,47.191,5.641,47.6a30.152,30.152,0,0,0,4.624.464c5.964.1,11.928.144,17.893.174,1.554.009,3.109-.078,4.662-.168a2.95,2.95,0,0,0,2.767-2.3,57.277,57.277,0,0,0,.815-6.155C37,28.69,34.98,17.9,34.712,7.019a2.069,2.069,0,0,0-.733-1.325,2.177,2.177,0,0,0-1.414-.457c-.431.026-1.114.323-1.21.643A11.059,11.059,0,0,0,30.873,8.9c-.048,4.408-.021,8.818-.021,13.226" transform="translate(0 0)" fill="#ee7a7a"/>
  </g>
</svg>
