<?xml version="1.0" encoding="UTF-8"?>
<svg id="_レイヤー_2" data-name="レイヤー_2" xmlns="http://www.w3.org/2000/svg" xmlns:xlink="http://www.w3.org/1999/xlink" viewBox="0 0 426.62 46.33">
  <defs>
    <style>
      .cls-1, .cls-2 {
        fill: #e6e24c;
        stroke-miterlimit: 10;
      }

      .cls-1, .cls-2, .cls-3 {
        stroke: #00437c;
      }

      .cls-4 {
        isolation: isolate;
      }

      .cls-2 {
        stroke-width: 1.11px;
      }

      .cls-3 {
        fill: none;
        stroke-linecap: round;
        stroke-linejoin: round;
        stroke-width: 2.23px;
      }

      .cls-5 {
        fill: #00437c;
      }

      .cls-6 {
        fill: url(#_名称未設定グラデーション_19);
      }
    </style>
    <linearGradient id="_名称未設定グラデーション_19" data-name="名称未設定グラデーション 19" x1="3.73" y1="-43.3" x2="406.43" y2="86.66" gradientUnits="userSpaceOnUse">
      <stop offset="0" stop-color="#1c2a55"/>
      <stop offset=".18" stop-color="#1a2e5a"/>
      <stop offset=".39" stop-color="#163a69"/>
      <stop offset=".63" stop-color="#0f4e81"/>
      <stop offset=".88" stop-color="#056ba3"/>
      <stop offset="1" stop-color="#007bb7"/>
    </linearGradient>
  </defs>
  <g id="_レイヤー_1-2" data-name="レイヤー_1">
    <rect class="cls-6" x="3.46" y="3.46" width="423.16" height="42.87" rx="21.44" ry="21.44"/>
    <rect class="cls-1" x=".5" y=".5" width="423.16" height="42.87" rx="21.44" ry="21.44"/>
    <g id="_ふく恋_入会申し込み_詳細はこちら" data-name="ふく恋_入会申し込み_詳細はこちら" class="cls-4">
      <g class="cls-4">
        <path class="cls-5" d="M92.11,25.84c-.19.16-.41.23-.65.22-.25-.02-.45-.12-.62-.31-.16-.19-.23-.41-.21-.65.02-.25.12-.45.31-.61.18-.15.4-.33.66-.54s.53-.43.82-.65.56-.43.81-.62c.25-.2.46-.36.62-.49.2-.15.42-.21.67-.18.24.03.44.15.59.34.15.19.21.41.17.65s-.15.44-.35.59c-.26.19-.57.42-.92.7-.35.27-.7.55-1.04.82-.34.28-.63.51-.87.71ZM94.94,26.92c-.22-.1-.38-.26-.48-.49-.1-.23-.1-.45,0-.68.09-.23.25-.4.49-.5s.46-.09.68.01c.55.24,1,.32,1.35.23.35-.09.53-.33.53-.71,0-.46-.08-.87-.25-1.23-.17-.36-.35-.71-.55-1.04-.17-.28-.33-.56-.46-.85-.14-.29-.24-.61-.29-.95s-.02-.73.09-1.17c.06-.24.2-.42.41-.55s.43-.17.67-.11c.24.06.42.2.55.41.12.21.16.44.11.69-.09.43-.06.81.08,1.14.15.33.32.67.52,1,.21.35.41.74.61,1.16.2.42.29.94.29,1.56,0,.57-.12,1.04-.38,1.42s-.59.65-1.01.83-.89.25-1.4.23c-.51-.03-1.03-.17-1.56-.41ZM98.26,18.71c-.42-.29-.87-.56-1.33-.82-.47-.25-.91-.46-1.32-.62-.23-.08-.4-.23-.52-.44-.12-.21-.15-.44-.08-.67.08-.24.23-.42.45-.55.22-.12.44-.14.67-.05.34.13.71.29,1.09.48.39.19.77.39,1.14.61.37.21.7.42.98.62.2.15.31.35.34.59s-.03.47-.18.67c-.15.2-.34.31-.58.34s-.46-.03-.66-.17ZM103.89,25.81c-.21.13-.43.17-.67.11-.23-.05-.42-.19-.56-.4-.16-.26-.38-.56-.66-.92-.28-.35-.58-.7-.89-1.05-.31-.35-.6-.65-.87-.92-.18-.17-.27-.38-.28-.62-.01-.24.07-.45.24-.63.17-.18.38-.27.62-.28s.46.08.64.25c.32.3.65.64,1,1.02s.67.76.97,1.14c.31.38.55.73.74,1.04.14.21.18.44.12.68-.06.24-.2.43-.41.57Z"/>
        <path class="cls-5" d="M115.15,27.94c-.2.14-.42.19-.67.14s-.45-.16-.58-.35c-.34-.49-.72-1-1.15-1.53-.42-.53-.85-1.04-1.27-1.52-.42-.49-.8-.9-1.14-1.24-.59-.58-.99-1.12-1.19-1.63s-.19-1.02.02-1.52.62-1.05,1.25-1.63c.21-.19.46-.43.76-.72s.61-.6.94-.93.65-.66.96-.99c.31-.33.59-.62.84-.88.17-.18.38-.27.64-.28s.47.08.65.25c.18.16.27.37.28.62,0,.25-.08.47-.25.65-.35.38-.74.78-1.16,1.21s-.84.83-1.24,1.21c-.4.39-.75.71-1.04.97-.39.36-.65.67-.77.92-.13.25-.13.51,0,.76.12.25.36.56.71.93.34.35.73.77,1.16,1.26.43.49.87,1,1.31,1.53.44.53.82,1.04,1.15,1.51.15.19.2.41.16.67-.04.25-.17.45-.37.59Z"/>
        <path class="cls-5" d="M120.91,27.44c-.19-.11-.32-.27-.38-.48-.06-.21-.02-.41.12-.6.14-.19.3-.42.47-.68.17-.27.35-.54.51-.81.16-.27.3-.51.4-.71.11-.23.27-.38.49-.47.21-.08.43-.06.65.05.2.1.34.25.42.46s.06.43-.04.66c-.11.22-.25.47-.41.76-.17.29-.34.58-.52.85-.18.28-.35.52-.5.72-.16.2-.35.32-.57.37s-.43,0-.64-.13ZM123.04,23.17c-.25.07-.48.05-.68-.04s-.34-.28-.4-.53c-.05-.21-.02-.4.09-.57.11-.17.29-.29.54-.36.65-.18,1.17-.42,1.56-.73.39-.3.67-.71.85-1.2s.26-1.11.26-1.84v-.4h-3.86c-.21,0-.39-.07-.53-.22-.14-.14-.22-.32-.22-.52s.07-.39.22-.53.32-.22.53-.22h5.16v-.97c0-.26.09-.46.27-.61.18-.15.39-.22.64-.22s.46.07.64.22c.17.14.26.35.26.61v.97h5.17c.21,0,.39.07.53.22.15.14.22.32.22.53s-.07.37-.22.52c-.14.15-.32.22-.53.22h-3.6v3.1c0,.71-.18,1.23-.53,1.57-.35.34-.93.5-1.72.5-.24,0-.45-.07-.62-.22-.17-.14-.27-.34-.29-.59-.01-.23.06-.44.2-.62.14-.18.33-.28.55-.29.31-.02.51-.07.61-.14.09-.08.14-.24.14-.5v-2.82h-1.4v.4c0,.95-.13,1.77-.38,2.46-.26.69-.66,1.26-1.22,1.72-.56.46-1.31.82-2.25,1.08ZM122.22,21.07c-.2.14-.42.2-.66.17-.24-.03-.43-.14-.57-.34-.13-.2-.17-.4-.12-.6.05-.2.16-.36.33-.48.27-.18.58-.43.94-.74.36-.32.66-.61.91-.88.15-.17.34-.25.57-.24.23,0,.42.08.57.22.16.16.25.34.26.55.01.21-.06.4-.22.57-.28.3-.59.61-.94.92-.34.31-.7.6-1.07.85ZM127.85,28.21c-.87,0-1.55-.07-2.04-.22s-.83-.4-1.03-.76c-.2-.36-.29-.85-.29-1.47v-1.58c0-.26.08-.47.25-.62s.36-.23.59-.23.43.08.6.23.25.36.25.62v1.43c0,.29.04.51.13.67s.25.26.5.32c.25.05.61.08,1.09.08s.81-.02,1.06-.07.43-.13.55-.25.22-.3.3-.53c.08-.22.23-.37.45-.45.22-.08.43-.08.64,0,.23.09.39.22.49.4.09.18.11.39.04.62-.13.45-.32.81-.58,1.07-.26.27-.62.46-1.1.57-.47.12-1.11.17-1.9.17ZM129.25,25.33c-.16.15-.35.22-.56.2-.22-.01-.4-.11-.56-.28-.16-.19-.35-.41-.58-.65-.22-.25-.42-.45-.59-.62-.14-.14-.2-.31-.19-.52.01-.2.1-.37.25-.5.17-.15.35-.23.55-.23s.37.07.53.21c.09.08.21.2.37.35.16.15.31.3.46.46.16.16.28.29.38.41.17.18.25.38.25.59,0,.22-.11.41-.31.58ZM133.64,21.26c-.18.16-.38.23-.62.21-.23-.02-.42-.12-.58-.31-.13-.16-.3-.35-.52-.56-.21-.21-.43-.43-.64-.64s-.39-.38-.53-.51c-.15-.14-.22-.31-.2-.52.02-.21.09-.38.23-.52.14-.15.32-.24.53-.25.21-.02.4.04.55.17.16.12.36.29.59.5s.47.43.71.65c.23.22.42.41.56.56.17.17.25.38.24.61-.01.24-.12.45-.32.62ZM134.17,26.92c-.17.14-.37.21-.6.2-.23,0-.42-.1-.55-.28-.14-.19-.32-.42-.55-.7-.22-.28-.46-.54-.69-.8-.24-.26-.44-.47-.61-.63-.15-.14-.21-.33-.19-.55.02-.23.12-.41.28-.54.17-.14.36-.21.58-.2.21,0,.41.09.58.25.19.18.4.39.64.64.24.25.46.5.68.76s.4.47.54.65c.16.2.23.41.21.62-.02.22-.12.41-.31.58Z"/>
        <path class="cls-5" d="M141.27,27.83c-.24.15-.5.21-.78.17-.28-.04-.5-.19-.65-.44-.13-.23-.16-.47-.08-.73s.25-.46.5-.6c1.12-.65,2.09-1.44,2.9-2.38.82-.94,1.46-1.94,1.95-3.02.49-1.07.77-2.14.86-3.2.04-.4-.02-.68-.19-.84s-.49-.24-.97-.24h-1.64c-.23,0-.43-.08-.59-.25s-.25-.36-.25-.59.08-.43.25-.59.36-.25.59-.25h1.64c.75,0,1.34.08,1.78.22.43.15.75.41.94.77.19.37.29.87.29,1.52,0,1.23.22,2.38.66,3.45.44,1.07,1.07,2.05,1.88,2.96s1.78,1.71,2.89,2.43c.23.15.37.37.41.65.04.28-.01.53-.17.75-.16.24-.38.37-.67.4-.29.02-.55-.05-.79-.22-1.18-.83-2.24-1.79-3.17-2.88-.93-1.09-1.63-2.33-2.1-3.71-.58,1.37-1.33,2.62-2.26,3.74s-2.01,2.08-3.24,2.87Z"/>
        <path class="cls-5" d="M155.98,20.47c-.25.14-.5.19-.74.16-.25-.03-.44-.17-.58-.4-.11-.2-.13-.4-.07-.61.06-.21.22-.39.47-.54.55-.33,1.13-.7,1.73-1.12.6-.42,1.19-.84,1.77-1.28s1.09-.86,1.54-1.26c.39-.35.74-.58,1.05-.7.31-.11.62-.12.94-.01.31.11.67.32,1.07.65.41.33.91.71,1.49,1.14.58.43,1.2.86,1.83,1.28s1.23.8,1.79,1.13c.29.16.46.36.52.59.06.24.02.47-.12.7-.13.22-.33.35-.6.39-.27.04-.54-.03-.81-.2-.39-.24-.81-.52-1.27-.84-.46-.32-.92-.65-1.38-1-.46-.35-.91-.69-1.33-1.02s-.79-.64-1.11-.92c-.2-.18-.38-.27-.52-.27s-.33.09-.53.27c-.45.4-.97.84-1.57,1.32-.59.48-1.21.95-1.83,1.4-.62.45-1.21.83-1.76,1.14ZM166.96,27.8c-.19.15-.41.21-.65.19s-.44-.13-.58-.31c-.11-.15-.23-.3-.35-.46s-.26-.32-.4-.48c-.5.08-1.08.16-1.75.25-.67.09-1.36.18-2.07.27s-1.4.17-2.07.25c-.67.07-1.25.13-1.75.17-.28.03-.5-.02-.67-.16s-.26-.33-.29-.58c-.03-.23.04-.43.22-.59s.4-.25.67-.26c.14,0,.28-.02.43-.03.14,0,.3-.02.46-.03.12-.21.26-.47.41-.77s.32-.61.49-.94c.17-.32.32-.63.45-.91h-2.97c-.2,0-.37-.08-.52-.23-.15-.16-.22-.33-.22-.53s.07-.39.22-.55c.14-.16.32-.23.52-.23h10.35c.2,0,.37.08.52.23s.22.34.22.55-.07.38-.22.53-.32.23-.52.23h-5.52c-.15.32-.34.71-.57,1.16-.23.45-.46.88-.67,1.27.65-.06,1.3-.12,1.95-.19.65-.07,1.24-.14,1.78-.21-.07-.08-.14-.15-.2-.22s-.13-.13-.2-.2c-.13-.14-.2-.32-.2-.53,0-.21.07-.39.22-.53.18-.17.39-.25.62-.23.23.01.43.1.59.26.38.36.79.78,1.21,1.26.43.48.82.92,1.16,1.33.14.18.21.39.2.63,0,.24-.1.43-.29.58ZM159,20.74c-.2,0-.37-.08-.52-.23-.15-.15-.22-.34-.22-.55s.07-.38.22-.53c.14-.16.32-.23.52-.23h5.37c.2,0,.37.08.52.23.14.15.22.33.22.53s-.07.39-.22.55c-.15.16-.32.23-.52.23h-5.37Z"/>
        <path class="cls-5" d="M176.67,28.39c-.26,0-.48-.09-.67-.26-.19-.17-.28-.4-.28-.68v-3.04h-.9c-.8,0-1.46-.05-2-.15-.53-.1-.95-.28-1.26-.54-.31-.26-.53-.63-.66-1.1-.13-.47-.2-1.09-.2-1.84v-.78c0-.75.06-1.36.2-1.83.13-.47.35-.84.66-1.1.31-.27.73-.45,1.26-.55.53-.1,1.2-.15,2-.15h.9v-1.17c0-.28.09-.51.28-.68.18-.17.41-.26.67-.26s.48.09.67.26c.19.18.28.4.28.68v1.17h.92c.8,0,1.46.05,1.99.15.53.1.95.28,1.25.55.3.26.52.63.65,1.1.13.47.2,1.08.2,1.83v.78c0,.75-.07,1.36-.2,1.84-.13.47-.35.84-.65,1.1-.31.26-.72.44-1.25.54-.53.1-1.2.15-1.99.15h-.92v3.04c0,.28-.09.51-.28.68-.18.17-.41.26-.67.26ZM172.6,19.58h3.12v-1.61h-.9c-.62,0-1.09.03-1.4.1-.31.07-.53.21-.64.44-.11.22-.17.58-.18,1.07ZM174.82,22.78h.9v-1.62h-3.12c0,.49.07.85.18,1.08.11.23.32.38.64.44.31.06.78.1,1.4.1ZM177.61,19.58h3.14c-.01-.49-.07-.85-.19-1.07-.12-.23-.33-.37-.64-.44-.31-.06-.78-.1-1.39-.1h-.92v1.61ZM177.61,22.78h.92c.62,0,1.08-.03,1.39-.1.31-.07.52-.21.64-.44.11-.23.18-.59.19-1.08h-3.14v1.62Z"/>
        <path class="cls-5" d="M192.16,27.65c-1.2,0-2.14-.3-2.83-.89-.68-.6-1.03-1.55-1.03-2.87v-8c0-.25.09-.46.26-.64.17-.17.39-.26.64-.26s.46.09.64.26c.17.18.26.39.26.64v8c0,.74.17,1.25.5,1.54s.85.44,1.55.44c.62,0,1.2-.17,1.75-.5s.99-.86,1.33-1.59c.11-.23.29-.38.53-.47.24-.08.47-.06.69.05.23.1.38.27.46.51s.06.47-.04.71c-.44.99-1.08,1.75-1.93,2.28-.85.53-1.77.79-2.78.79Z"/>
        <path class="cls-5" d="M208.31,27.92c-1.44,0-2.59-.11-3.46-.32-.87-.22-1.57-.58-2.08-1.1-.13.1-.3.22-.5.38-.21.15-.4.29-.59.43-.19.14-.33.25-.44.32-.2.14-.43.19-.7.15s-.46-.17-.59-.39c-.13-.21-.17-.43-.11-.67s.19-.42.41-.54c.16-.09.39-.22.7-.39.3-.17.57-.32.8-.45v-3.2c0-.25-.04-.42-.12-.51s-.24-.13-.48-.13h-.63c-.25,0-.45-.08-.58-.24-.14-.16-.21-.35-.21-.57s.07-.41.21-.56c.14-.16.33-.23.58-.23h1.3c1.07,0,1.61.54,1.61,1.61v3.49c.26.3.58.55.95.74.37.19.87.34,1.49.43.62.09,1.44.14,2.45.14.85,0,1.64-.02,2.38-.04.73-.03,1.38-.07,1.93-.11.3-.02.55.05.74.21s.29.37.29.63-.08.49-.24.66c-.16.17-.42.25-.77.25-.44,0-.93,0-1.47,0s-1.07,0-1.58.01-.94,0-1.29,0ZM202.44,17.75c-.14-.15-.32-.32-.53-.5-.21-.18-.43-.37-.65-.55-.21-.18-.41-.33-.58-.45-.18-.14-.27-.32-.28-.55,0-.22.06-.42.2-.59s.32-.27.55-.31c.22-.04.44.02.64.16.19.14.4.3.63.48.23.18.45.36.67.54.21.18.39.34.53.47.19.16.28.36.28.61s-.09.46-.27.64c-.16.18-.36.28-.59.29s-.44-.06-.61-.23ZM212.02,25.15c-.71-.62-1.36-1.37-1.94-2.24s-1.04-1.85-1.37-2.93c-.37,1-.84,1.95-1.41,2.86-.57.91-1.21,1.67-1.92,2.3-.19.17-.42.25-.69.23-.27-.01-.49-.12-.64-.32-.14-.18-.19-.38-.16-.59s.14-.4.31-.55c.63-.55,1.19-1.2,1.69-1.96.5-.76.92-1.56,1.28-2.42.35-.85.64-1.68.85-2.49-.15-.12-.39-.18-.72-.18h-1.48c-.26,0-.47-.08-.62-.25s-.23-.37-.23-.61.08-.43.23-.59.36-.25.62-.25h1.67c.74,0,1.27.14,1.6.41.32.28.52.77.59,1.48.09.89.3,1.75.62,2.57.32.83.74,1.59,1.25,2.29.5.71,1.07,1.33,1.7,1.88.18.15.29.34.32.58.03.24-.03.45-.18.62-.17.19-.38.3-.64.34-.26.04-.49-.02-.69-.2Z"/>
        <path class="cls-5" d="M221.56,27.37c-.18-.17-.28-.38-.29-.63s.07-.47.24-.65c.41-.41.79-.9,1.14-1.48.35-.58.66-1.18.92-1.81-.82-.21-1.6-.36-2.35-.45-.37.78-.79,1.43-1.26,1.95-.47.52-.97.88-1.5,1.08-.5.2-.99.27-1.47.2-.48-.06-.88-.26-1.19-.58-.31-.32-.47-.77-.47-1.35,0-.55.17-1.05.5-1.5s.84-.81,1.54-1.09c.69-.27,1.59-.41,2.69-.41.21-.59.4-1.27.58-2.04.14-.58.11-.97-.08-1.16-.19-.19-.56-.26-1.11-.19-.19.03-.43.07-.73.11s-.54.07-.71.09c-.25,0-.47-.06-.66-.22-.19-.16-.29-.37-.32-.62,0-.25.07-.47.23-.65.16-.19.36-.29.62-.31.21-.02.47-.04.78-.08.31-.03.57-.05.77-.06,1.26-.08,2.13.14,2.6.66.47.52.6,1.38.37,2.58-.07.36-.15.71-.24,1.04s-.18.66-.29.97c.36.04.73.1,1.11.17s.75.16,1.12.25c.08-.34.14-.67.2-1,.05-.32.08-.64.09-.94,0-.25.1-.46.26-.64.17-.17.37-.27.62-.28.25,0,.46.09.64.26s.26.39.25.64c0,.39-.05.79-.11,1.19s-.15.81-.26,1.22c.31.1.61.2.91.31.29.1.58.21.86.32.23.1.39.26.49.5s.09.46,0,.69c-.09.22-.25.38-.48.48-.23.1-.46.1-.69,0-.26-.12-.52-.23-.79-.34-.27-.1-.54-.21-.81-.31-.31.8-.67,1.55-1.09,2.25-.42.7-.86,1.29-1.33,1.76-.17.17-.38.26-.62.27s-.46-.07-.65-.22ZM217.82,23.81c.24-.1.49-.27.74-.51s.5-.57.74-.99c-.79.07-1.35.22-1.69.45-.33.23-.51.49-.52.76,0,.16.06.27.19.34.12.07.31.05.55-.05Z"/>
        <path class="cls-5" d="M236.68,22.96c-.46,0-.85-.16-1.17-.48-.32-.32-.48-.71-.48-1.17s.16-.85.48-1.17c.32-.32.71-.48,1.17-.48s.85.16,1.17.48c.32.32.48.71.48,1.17s-.16.85-.48,1.17c-.32.32-.71.48-1.17.48Z"/>
        <path class="cls-5" d="M254.38,28.3c-.24,0-.45-.08-.62-.24s-.25-.37-.25-.63v-2.79h-2.45c-.21,0-.39-.08-.55-.22-.16-.15-.23-.33-.23-.56s.08-.39.23-.54c.15-.15.34-.22.55-.22h2.45v-1.59h-1.95c-.2,0-.37-.07-.52-.22s-.22-.32-.22-.52.07-.37.22-.52c.15-.14.32-.22.52-.22h1.95v-1.53h-2.22c-.16,0-.31-.05-.44-.14s-.22-.21-.27-.35c-.04.14-.12.26-.24.37-.12.11-.26.16-.42.16h-4.5c-.19,0-.35-.07-.49-.21-.14-.14-.2-.31-.2-.5s.07-.36.2-.5c.13-.14.3-.21.49-.21h4.5c.15,0,.29.04.41.13.12.09.2.21.24.34.04-.17.12-.31.25-.41.13-.11.29-.16.47-.16h1.09s-.08-.08-.11-.12c-.04-.04-.06-.08-.08-.14-.04-.09-.1-.22-.19-.38-.09-.17-.18-.33-.27-.51s-.17-.32-.24-.44c-.1-.19-.12-.38-.04-.58.07-.2.2-.34.39-.43.2-.1.41-.13.62-.09s.38.16.49.36c.07.12.15.27.25.45.09.18.19.36.28.53.09.17.16.32.21.43.08.18.09.35.04.52s-.15.3-.29.41h1.19c.06-.12.14-.28.23-.49.09-.2.19-.42.3-.65.1-.23.21-.45.3-.65s.16-.36.2-.47c.09-.22.24-.37.46-.44s.43-.06.65.04c.22.09.37.23.45.43s.07.41-.03.62c-.08.18-.2.43-.37.74s-.32.61-.46.88h1.28c.2,0,.37.07.52.22.14.15.22.32.22.52s-.07.37-.22.52-.32.22-.52.22h-2.4v1.53h1.95c.2,0,.37.07.52.22.14.15.22.32.22.52s-.07.37-.22.52-.32.22-.52.22h-1.95v1.59h2.69c.21,0,.39.08.54.22.15.15.22.33.22.54,0,.22-.08.41-.22.56-.15.15-.33.22-.54.22h-2.69v2.79c0,.26-.08.47-.25.63s-.37.24-.61.24ZM247.73,27.91c-.6,0-1.07-.07-1.41-.2s-.58-.37-.72-.69c-.14-.33-.21-.77-.21-1.33s.07-1.03.21-1.35.38-.54.72-.67.81-.2,1.41-.2,1.07.07,1.41.2.58.35.73.67.22.77.22,1.35-.07,1-.22,1.33c-.14.32-.39.55-.73.69s-.81.2-1.41.2ZM246.14,20.65c-.19,0-.35-.07-.49-.21-.13-.14-.2-.3-.2-.5s.07-.35.2-.49c.13-.14.3-.21.49-.21h3.12c.19,0,.35.07.49.21.13.14.2.3.2.49s-.07.36-.2.5c-.13.14-.3.21-.49.21h-3.12ZM246.14,22.76c-.19,0-.35-.07-.49-.21-.13-.14-.2-.3-.2-.5s.07-.35.2-.5c.13-.14.3-.21.49-.21h3.12c.19,0,.35.07.49.21.13.14.2.31.2.5s-.07.36-.2.5c-.13.14-.3.21-.49.21h-3.12ZM246.18,16.42c-.19,0-.36-.07-.5-.22-.14-.14-.21-.31-.21-.5,0-.2.07-.37.21-.51s.3-.21.5-.21h3.06c.2,0,.37.07.51.21.14.14.21.31.21.51,0,.19-.07.36-.21.5-.14.15-.31.22-.51.22h-3.06ZM247.73,26.51c.31,0,.52-.05.62-.17.1-.11.15-.33.15-.66s-.05-.54-.15-.65c-.1-.11-.3-.17-.62-.17s-.5.06-.61.17c-.1.12-.16.33-.16.65s.05.55.16.66c.11.11.31.17.61.17Z"/>
        <path class="cls-5" d="M262.93,28.31c-.22,0-.41-.07-.57-.22-.16-.15-.24-.34-.24-.58v-5.52c-.3.04-.59.08-.86.11-.27.04-.52.06-.73.08-.22.02-.42-.03-.58-.14-.17-.12-.26-.29-.28-.52-.02-.23.04-.42.17-.58.13-.15.31-.24.52-.25.05,0,.11,0,.17,0s.12,0,.18,0c.17-.2.36-.43.56-.69.2-.26.41-.54.63-.83-.17-.13-.37-.28-.61-.46-.24-.17-.46-.34-.67-.5-.22-.16-.38-.27-.5-.35-.17-.11-.28-.27-.32-.47s0-.39.11-.55c.12-.18.29-.29.5-.34s.4,0,.57.11l.09.06c.11-.17.23-.37.37-.61.13-.23.26-.46.38-.68.12-.22.21-.39.27-.51.09-.19.23-.32.42-.39.19-.07.39-.06.6.03.18.08.3.21.37.4.06.18.05.37-.05.55-.09.16-.21.36-.36.61-.15.25-.31.5-.47.75s-.3.47-.42.65l.62.45c.23-.32.44-.63.63-.92.19-.29.35-.55.48-.76.11-.18.26-.29.46-.34.2-.05.39-.02.58.09.17.1.28.25.34.45.06.2.03.38-.08.55-.2.3-.45.65-.74,1.06-.29.4-.59.83-.92,1.26-.32.43-.63.84-.93,1.22.26-.02.52-.04.78-.07.26-.03.5-.05.72-.07l-.2-.38c-.08-.17-.09-.35-.02-.53.07-.18.18-.31.34-.39.18-.08.36-.09.54-.04.18.06.32.17.42.34.1.16.22.38.38.65s.29.53.41.77v-2.97c0-.92.22-1.59.65-2,.43-.42,1.15-.62,2.15-.62h1.56c1,0,1.72.21,2.15.62.43.42.65,1.08.65,2v7.05c0,.91-.22,1.58-.65,2-.44.42-1.15.63-2.15.63h-1.56c-.96,0-1.66-.2-2.1-.58-.44-.39-.68-1-.71-1.83,0,.15-.04.29-.14.42-.09.13-.21.22-.36.29-.19.07-.37.06-.55-.02s-.29-.22-.35-.41c-.05-.17-.12-.38-.2-.64s-.17-.52-.25-.79c-.08-.27-.14-.48-.19-.64-.04-.19-.01-.37.08-.53.09-.17.24-.27.43-.32.18-.05.35-.03.52.07.17.1.27.23.32.41.05.15.12.35.2.59s.16.48.25.72.15.43.2.58c.03.07.04.14.04.21v-2.85s-.07.05-.12.08c-.19.07-.38.07-.57.01-.19-.06-.33-.18-.41-.36-.02-.05-.04-.1-.07-.14-.02-.04-.05-.09-.07-.14-.14.02-.29.04-.46.07-.17.02-.35.05-.54.07v5.73c0,.24-.08.43-.23.58-.16.14-.34.22-.56.22ZM260.17,26.62c-.18-.05-.31-.16-.4-.34s-.09-.35-.02-.53c.08-.21.17-.47.29-.78.11-.31.21-.63.31-.95.1-.33.17-.6.22-.83.04-.19.14-.34.29-.44.15-.1.33-.14.52-.1.2.04.35.14.46.31.11.17.14.35.09.55-.05.24-.12.52-.22.85s-.19.65-.29.97c-.1.32-.2.58-.29.8-.07.19-.2.33-.38.43-.18.1-.38.12-.58.06ZM267.6,20.41h1.2v-3.58c-.33,0-.58.03-.76.09-.17.06-.29.17-.35.34-.06.17-.09.42-.09.74v2.42ZM268.8,25.97v-4h-1.2v2.82c0,.32.03.56.09.73.06.17.18.29.35.35.17.06.43.09.76.1ZM270.28,20.41h1.23v-2.42c0-.48-.08-.79-.23-.95-.16-.15-.49-.22-1-.22v3.58ZM270.28,25.97c.34,0,.6-.04.77-.1.17-.06.29-.17.36-.35.07-.17.1-.41.1-.73v-2.82h-1.23v4Z"/>
        <path class="cls-5" d="M277.1,27.61c-.25.04-.47,0-.67-.15-.2-.14-.33-.33-.38-.57-.06-.33-.11-.78-.13-1.35-.03-.57-.05-1.21-.06-1.92s0-1.45,0-2.21.04-1.51.08-2.24c.04-.72.09-1.38.16-1.98.06-.59.14-1.08.23-1.45.06-.24.2-.42.41-.56.21-.13.43-.17.67-.1.24.06.42.19.55.41.13.21.17.43.11.67-.09.37-.17.83-.23,1.39-.06.56-.11,1.17-.15,1.84-.04.67-.07,1.35-.08,2.05-.01.7-.02,1.38,0,2.03.01.66.03,1.25.07,1.79.03.53.08.97.14,1.31.05.24,0,.46-.14.66-.15.2-.34.33-.58.38ZM282.1,27.59c-.8,0-1.44-.2-1.93-.59-.48-.39-.73-.96-.73-1.7s.24-1.27.73-1.69c.49-.42,1.15-.62,2-.62.26,0,.52.01.79.04,0-.47-.02-.98-.04-1.54-.02-.55-.03-1.12-.05-1.7-.53.03-1.04.05-1.54.06-.49.01-.92.01-1.28,0-.25,0-.46-.1-.62-.28s-.24-.39-.23-.64c.02-.24.12-.44.29-.61s.38-.24.62-.23c.35,0,.76.01,1.24,0,.47,0,.97-.02,1.49-.05,0-.38-.01-.75-.01-1.09v-.99c0-.25.08-.46.25-.64.17-.17.38-.26.63-.26s.47.09.64.26c.17.18.26.39.26.64,0,.31,0,.63,0,.96s0,.67,0,1c.44-.04.84-.08,1.21-.12.37-.04.67-.08.92-.12.24-.05.46,0,.66.14.2.15.32.34.36.58.04.24-.01.46-.16.66-.14.2-.34.31-.58.34-.28.04-.63.08-1.04.13s-.86.09-1.34.13c.02.7.04,1.38.06,2.03.02.65.04,1.22.04,1.72.55.18,1.07.4,1.55.64.48.25.91.51,1.27.78.2.15.32.35.36.59s0,.47-.15.67c-.14.2-.33.33-.58.38-.25.05-.47,0-.67-.15-.25-.19-.53-.38-.83-.56-.3-.18-.61-.34-.93-.48-.1,1.53-1,2.29-2.7,2.29ZM282.1,25.9c.62,0,.93-.29.93-.88,0-.03,0-.07,0-.12,0-.05,0-.1,0-.17-.3-.06-.61-.09-.92-.09s-.54.06-.68.18c-.14.12-.22.28-.22.47s.07.34.21.45c.14.11.37.17.69.17Z"/>
        <path class="cls-5" d="M300.65,26.59c-1.51.35-2.86.5-4.04.46-1.19-.04-2.17-.27-2.96-.68s-1.33-.99-1.64-1.74c-.1-.23-.1-.46,0-.69.1-.23.26-.39.5-.48.23-.1.46-.1.68,0,.22.1.38.26.47.5.19.43.58.76,1.17.99.59.23,1.35.34,2.27.34.92,0,1.97-.15,3.14-.44.24-.06.46-.02.67.11s.34.32.41.56c.05.24,0,.46-.12.67s-.32.34-.56.41ZM299.27,18.38c-.54-.14-1.12-.25-1.73-.32s-1.22-.12-1.82-.13c-.6,0-1.16.01-1.68.06-.25.03-.47-.03-.67-.18-.2-.15-.31-.35-.34-.6-.03-.25.03-.47.18-.67.15-.19.35-.31.6-.34.6-.06,1.26-.08,1.98-.05.72.03,1.42.08,2.11.16.68.08,1.28.19,1.79.32.24.07.42.21.56.41.13.21.17.43.1.67-.05.24-.18.43-.4.56s-.44.17-.68.11Z"/>
        <path class="cls-5" d="M311.02,28.03c-.25.01-.46-.07-.64-.25-.18-.17-.28-.39-.3-.64,0-.25.07-.47.25-.65.17-.18.39-.28.64-.28,1.43-.04,2.45-.28,3.07-.73s.92-1.09.92-1.94c0-.47-.15-.84-.46-1.12s-.71-.45-1.2-.5c-.5-.05-1.04.02-1.63.23-.59.21-1.17.57-1.74,1.07-.15.13-.32.2-.52.2-.2,0-.38-.04-.55-.14-.16-.11-.27-.25-.34-.43s-.08-.37-.03-.55c.14-.48.27-1.04.38-1.7.11-.65.2-1.3.27-1.95-.49,0-.95.01-1.38,0-.43,0-.81-.02-1.12-.04-.24-.02-.44-.12-.59-.31-.16-.19-.22-.41-.2-.65.02-.24.12-.44.31-.59.19-.16.41-.22.65-.2.33.03.71.05,1.15.06.43,0,.89,0,1.36,0,.02-.28.04-.54.04-.77,0-.24.01-.44.01-.62,0-.25.08-.46.25-.64.17-.17.37-.27.62-.28.25,0,.46.07.65.24.18.17.27.38.27.63,0,.17,0,.37-.02.6-.01.23-.03.48-.05.75,1-.06,1.87-.17,2.6-.35.24-.05.46,0,.67.13s.33.32.37.56c.05.24,0,.46-.12.66s-.31.33-.55.38c-.43.08-.92.15-1.46.21-.54.06-1.1.11-1.68.15-.05.44-.11.87-.18,1.3-.07.42-.14.81-.21,1.15.56-.32,1.13-.54,1.71-.64.58-.11,1.14-.12,1.68-.05.54.08,1.02.26,1.46.53.43.27.77.63,1.02,1.07.25.45.38.97.38,1.58,0,1.42-.5,2.51-1.51,3.29-1.01.77-2.41,1.18-4.2,1.24Z"/>
        <path class="cls-5" d="M325.45,27.55c-.25,0-.46-.08-.64-.25-.18-.17-.27-.38-.28-.63,0-.25.08-.46.25-.64.17-.17.38-.27.63-.28,2.8-.05,4.2-.85,4.2-2.4,0-.51-.18-.91-.53-1.2-.35-.29-.82-.43-1.4-.43-.64,0-1.3.16-1.99.47-.68.31-1.31.79-1.87,1.42-.13.15-.3.24-.5.28-.21.04-.39,0-.56-.08-.17-.08-.29-.21-.38-.38-.08-.17-.1-.36-.07-.55.07-.42.15-.88.23-1.37s.18-.99.28-1.49c.1-.5.2-.97.3-1.4.05-.25.18-.44.4-.56.21-.12.44-.16.68-.1.24.06.42.2.55.41s.17.44.11.68c-.07.28-.15.6-.25.97-.09.36-.19.75-.29,1.16,1.15-.78,2.29-1.17,3.41-1.17.74,0,1.38.14,1.93.42s.98.67,1.28,1.17c.31.5.46,1.08.46,1.75,0,1.25-.49,2.25-1.47,3.02-.98.76-2.48,1.15-4.5,1.18ZM327.85,18.16c-.32-.16-.68-.33-1.09-.52-.4-.19-.81-.37-1.21-.54-.4-.17-.76-.32-1.07-.44-.22-.09-.37-.26-.45-.5-.08-.24-.07-.47.03-.69.11-.23.28-.38.51-.46.23-.08.46-.07.69.02.33.13.69.28,1.07.44s.77.33,1.16.51c.39.17.75.34,1.07.5.22.11.38.28.47.5.09.23.1.45,0,.68-.1.22-.27.38-.5.48-.23.1-.46.1-.69,0Z"/>
      </g>
    </g>
    <g>
      <path class="cls-2" d="M401.8,11.21c-5.9,0-10.72,4.83-10.72,10.72,0,5.9,4.83,10.72,10.72,10.72s10.72-4.83,10.72-10.72c0-5.9-4.83-10.72-10.72-10.72Z"/>
      <g>
        <polyline class="cls-3" points="402.43 27.01 407.14 21.93 402.43 16.85"/>
        <line class="cls-3" x1="407.14" y1="21.93" x2="396.55" y2="21.93"/>
      </g>
    </g>
  </g>
</svg>