<svg id="グループ_583" data-name="グループ 583" xmlns="http://www.w3.org/2000/svg" xmlns:xlink="http://www.w3.org/1999/xlink" width="146.217" height="39.479" viewBox="0 0 146.217 39.479">
  <defs>
    <clipPath id="clip-path">
      <rect id="長方形_402" data-name="長方形 402" width="146.217" height="39.478" fill="none"/>
    </clipPath>
  </defs>
  <g id="グループ_582" data-name="グループ 582" transform="translate(0 0)" clip-path="url(#clip-path)">
    <path id="パス_844" data-name="パス 844" d="M0,26.913C0,14.327,8.063.119,18.387.119c6.932,0,9.783,6.736,7.522,13.274h-3c1.966-5.851-.1-10.57-4.523-10.57-8.161,0-15.535,12.34-15.535,23.844,0,5.949,2.556,10.079,7.325,10.079,3.687,0,6.883-2.949,9.1-6.981L21.73,30.9c-2.016,4.228-6.1,8.554-11.8,8.554C3.687,39.449,0,34.287,0,26.913" transform="translate(0 -0.07)"/>
    <path id="パス_845" data-name="パス 845" d="M86.049,44.9v2.95c-1.917,4.179-5.654,8.505-9.144,8.505a3.173,3.173,0,0,1-3.392-3.245,6.491,6.491,0,0,1-5.752,3.245c-3.491,0-5.7-3.245-5.7-7.03,0-6.686,4.13-12.831,9.98-12.831a5.772,5.772,0,0,1,4.917,2.851l.836-2.36h2.655C75.578,50.7,74.889,53.8,77.151,53.8c2.36,0,6-3.884,8.9-8.9m-10.078-2.95a4.085,4.085,0,0,0-3.982-2.9c-4.425,0-7.226,5.064-7.226,10.275,0,2.163,1.18,4.376,3.588,4.376,3.392,0,5.556-4.277,7.621-11.75" transform="translate(-36.393 -21.404)"/>
    <path id="パス_846" data-name="パス 846" d="M132.478,42.4l-.246,4.031c-3.1,7.227-8.161,8.6-13.765,8.6-3.884,0-7.03-1.868-7.867-4.376a1.616,1.616,0,0,1,.1-1.524,60.481,60.481,0,0,0,7.669-14.9h2.114c1.082,2.016,4.817,8.456,4.719,13.127a6.72,6.72,0,0,1-2.064,4.916c3.392-.541,7.276-4.719,9.341-9.881m-12.93-4.621a58.481,58.481,0,0,1-6.637,12.34,5.654,5.654,0,0,0,4.523,2.557c3.146,0,5.015-2.262,5.064-5.26.049-3.442-1.623-7.031-2.95-9.636" transform="translate(-64.778 -20.079)"/>
    <path id="パス_847" data-name="パス 847" d="M174.957,51.02a11.619,11.619,0,0,1-9.636,5.408c-5.113-.049-7.916-3.343-7.916-7.374,0-6.637,4.179-12.439,9.587-12.439a4.954,4.954,0,0,1,5.211,5.064c0,5.064-5.654,8.8-12.045,7.522.2,2.655,1.868,4.72,5.752,4.72,2.8,0,6-2.556,7.276-4.671Zm-14.651-4.179c4.375,1.18,9.144-1.426,9.144-4.966a2.581,2.581,0,0,0-2.556-2.753c-3.343,0-5.949,3.638-6.588,7.719" transform="translate(-92.31 -21.473)"/>
    <path id="パス_848" data-name="パス 848" d="M221.366,28.077c0-11.8,8.7-27.482,18.78-27.482,5.261,0,8.948,4.081,8.948,12.192,0,11.9-8.358,27.04-18.633,27.04-5.408,0-9.095-3.884-9.095-11.75m24.828-15.044c0-6.047-2.36-9.735-6.441-9.735-7.867,0-15.536,14.454-15.536,24.581,0,5.9,2.212,9.292,6.441,9.292,8.063,0,15.535-14.11,15.535-24.139" transform="translate(-129.82 -0.349)"/>
    <path id="パス_849" data-name="パス 849" d="M302.279,19.174a9.971,9.971,0,0,1,6.981,9.587c0,5.949-4.719,10.718-12.094,10.718-5.9,0-10.374-3.392-11.6-8.751l2.7-1.229a8.747,8.747,0,0,0,9,7.374c5.506,0,9.144-3.392,9.144-8.309,0-4.966-3.786-8.112-9.833-8.6l.689-2.409c6.195.59,13.569-2.311,13.569-9,0-3.687-2.409-6.047-6.145-6.047-3.392,0-6.638,2.557-8.506,5.9L293.921,7.08A12.854,12.854,0,0,1,305.131,0c5.064,0,8.554,3.589,8.554,8.259,0,6.834-6.047,10.472-11.406,10.914" transform="translate(-167.468 0)"/>
  </g>
</svg>
