<svg id="グループ_601" data-name="グループ 601" xmlns="http://www.w3.org/2000/svg" xmlns:xlink="http://www.w3.org/1999/xlink" width="148.38" height="39.429" viewBox="0 0 148.38 39.429">
  <defs>
    <clipPath id="clip-path">
      <rect id="長方形_405" data-name="長方形 405" width="148.38" height="39.429" fill="none"/>
    </clipPath>
  </defs>
  <g id="グループ_588" data-name="グループ 588" transform="translate(0 0)" clip-path="url(#clip-path)">
    <path id="パス_862" data-name="パス 862" d="M0,26.794C0,14.208,8.063,0,18.387,0c6.932,0,9.783,6.736,7.522,13.274h-3c1.966-5.851-.1-10.57-4.523-10.57-8.161,0-15.535,12.34-15.535,23.844,0,5.949,2.556,10.079,7.325,10.079,3.687,0,6.883-2.949,9.1-6.981l2.459,1.131c-2.016,4.228-6.1,8.554-11.8,8.554C3.687,39.33,0,34.168,0,26.794" transform="translate(0 0)"/>
    <path id="パス_863" data-name="パス 863" d="M86.049,44.785v2.95C84.132,51.913,80.4,56.24,76.9,56.24a3.173,3.173,0,0,1-3.392-3.245A6.491,6.491,0,0,1,67.76,56.24c-3.491,0-5.7-3.245-5.7-7.03,0-6.686,4.13-12.831,9.98-12.831a5.772,5.772,0,0,1,4.917,2.851l.836-2.36h2.655c-4.867,13.717-5.555,16.814-3.294,16.814,2.36,0,6-3.884,8.9-8.9m-10.078-2.95a4.085,4.085,0,0,0-3.982-2.9c-4.425,0-7.226,5.064-7.226,10.275,0,2.163,1.18,4.376,3.588,4.376,3.392,0,5.556-4.277,7.621-11.75" transform="translate(-36.393 -21.334)"/>
    <path id="パス_864" data-name="パス 864" d="M132.478,42.28l-.246,4.031c-3.1,7.227-8.161,8.6-13.765,8.6-3.884,0-7.03-1.868-7.867-4.376a1.616,1.616,0,0,1,.1-1.524,60.481,60.481,0,0,0,7.669-14.9h2.114c1.082,2.016,4.817,8.456,4.719,13.127a6.72,6.72,0,0,1-2.064,4.916c3.392-.541,7.276-4.719,9.341-9.881m-12.93-4.621A58.481,58.481,0,0,1,112.912,50a5.654,5.654,0,0,0,4.523,2.557c3.146,0,5.015-2.262,5.064-5.26.049-3.442-1.623-7.031-2.95-9.636" transform="translate(-64.778 -20.009)"/>
    <path id="パス_865" data-name="パス 865" d="M174.957,50.9a11.619,11.619,0,0,1-9.636,5.408c-5.113-.049-7.916-3.343-7.916-7.374,0-6.637,4.179-12.439,9.587-12.439A4.954,4.954,0,0,1,172.2,41.56c0,5.064-5.654,8.8-12.045,7.522.2,2.655,1.868,4.72,5.752,4.72,2.8,0,6-2.556,7.276-4.671Zm-14.651-4.179c4.375,1.18,9.144-1.426,9.144-4.966A2.581,2.581,0,0,0,166.894,39c-3.343,0-5.949,3.638-6.588,7.719" transform="translate(-92.31 -21.403)"/>
    <path id="パス_866" data-name="パス 866" d="M221.366,27.958c0-11.8,8.7-27.482,18.78-27.482,5.261,0,8.948,4.081,8.948,12.192,0,11.9-8.358,27.04-18.633,27.04-5.408,0-9.095-3.884-9.095-11.75m24.828-15.044c0-6.047-2.36-9.735-6.441-9.735-7.867,0-15.536,14.454-15.536,24.581,0,5.9,2.212,9.292,6.441,9.292,8.063,0,15.535-14.11,15.535-24.139" transform="translate(-129.82 -0.279)"/>
    <path id="パス_867" data-name="パス 867" d="M319.892,4.851l-2.311,1.721a7.33,7.33,0,0,0-6.293-3.441c-7.374,0-13.766,10.324-15.585,19.567,2.557-3.933,6.981-6.932,11.6-6.932,4.818,0,8.506,3.638,8.506,8.948,0,8.358-6.293,14.995-13.717,14.995-4.916,0-9.636-3.884-9.636-11.75,0-11.8,8.259-27.482,19.223-27.482a9.994,9.994,0,0,1,8.21,4.375m-24.68,21.78a9.065,9.065,0,0,0-.049,1.13c0,5.9,3.392,9.292,7.129,9.292,5.85,0,10.521-5.162,10.718-12.045.1-3.736-2.262-6.784-6.342-6.784-4.621,0-8.7,3.884-11.455,8.407" transform="translate(-171.512 -0.279)"/>
  </g>
</svg>
