<svg xmlns="http://www.w3.org/2000/svg" xmlns:xlink="http://www.w3.org/1999/xlink" width="215.198" height="250.393" viewBox="0 0 215.198 250.393">
  <defs>
    <clipPath id="clip-path">
      <rect id="長方形_1055" data-name="長方形 1055" width="215.198" height="250.393" transform="translate(0 0)" fill="none"/>
    </clipPath>
  </defs>
  <g id="グループ_4722" data-name="グループ 4722" transform="translate(0 0.004)">
    <g id="グループ_4722-2" data-name="グループ 4722" transform="translate(0 -0.004)" clip-path="url(#clip-path)">
      <path id="パス_9722" data-name="パス 9722" d="M220.212,660.511c0-3.716-2.243-9.192-4.689-16.247-1.294-3.732-2.52-7.606-3.771-12.55-2.438-9.632-5.84-21.439-9.255-32.057-2.529-7.865-3.034-12.839-7.339-18.346a25.034,25.034,0,0,0-8.552-6.825c-4.81-2.023-10.571-3.232-15.643-4.681-8.363-2.389-15.244-5.582-15.193-5.851a3.255,3.255,0,0,0-1.032-3.034c-1.094-1.286-4.489-3.345-5.619-4.466-1.267-1.258-1.845-3.946-2.013-6.308-.127-1.791.252-3.417-.822-3.968a6.824,6.824,0,0,0-2.169-.494c-7.907-1.358-29.778-1.279-38.336-1.279-2.083,0-2.309.539-2.923,2.854-.91,3.424-1.879,9.209-4.535,10.5-1.738.844-3.915,2.251-5.6,3.291-.85.524.255,1.892-.579,2.462a19.872,19.872,0,0,1-5.89,2.81c-3.66.94-12.153,1.669-19.428,3.733-5.5,1.56-10.206,4.228-12.14,6.366a55.527,55.527,0,0,0-4.823,5.543c-2.9,4.166-5.528,9.482-9.591,16.675-2.792,4.944-9.146,17.141-15.49,28.471C16.131,642.552,7.456,657.9,7.456,664.969c0,2.839-.156,6.847.008,10.178.27,5.453,1.336,10.173,4.9,12.985,2.772,2.188,16.281,1.816,16.281,1.816a111.379,111.379,0,0,0,14.662-5.256c8.525-3.875,23.741-13.875,23.741-13.875l.958,35.945,109.069.131s-.026-12.348.2-23,.705-19.61.705-19.61,1.01.333,2.9,3.9c1.762,3.336,5.65,10.966,7.83,13.644,1.846,2.266,5.109,4.117,7.692,5.83,3.977,2.638,7.545,4.545,10.532,4.578,3.127.034,5.194-.361,7.313-5.286,2.028-4.717,4.449-9.313,5.516-15.092.722-3.914.45-9.686.45-11.351" transform="translate(-6.212 -457.674)" fill="#f8ca91" fill-rule="evenodd"/>
      <path id="パス_9723" data-name="パス 9723" d="M604.459,31.662c.1-1.738-3.1-1.284-5.466-4.271-2.807-3.645-4.559-9.134-8.472-12.841-4.659-4.542-7.732-3.447-12.631-3.723-4.425-.249-7.733-3.447-14.492-4.461a27.5,27.5,0,0,0-16.322,2.728c-5.208,2.4-8.611,9.344-15.074,11.517-3.548,1.069.981,2.274.981,2.274L530.4,29.4a52.832,52.832,0,0,0-1.21,10.236c.058,4.6,3.464,17.315,4.7,17.861,1.386.712,8,4.255,8,4.255s19.027-2.893,25.032-2.554c3.793.213,11.456,2.072,18.857,2.963,3.151.336,7.033-1.031,9.307-2.013,2.108-.832,5.625-9.829,6.157-16.457a36.784,36.784,0,0,0-.642-11.133s3.748,1,3.854-.893" transform="translate(-444.882 -5.13)" fill="#d57f61" fill-rule="evenodd"/>
      <path id="パス_9724" data-name="パス 9724" d="M591.9,266.657a26.034,26.034,0,0,0,4.991-7.011,85.264,85.264,0,0,0,3.738-10.093,9.645,9.645,0,0,0,8.152-6.834c2.3-7-3.5-8.281-3.5-8.281l-2.23.191s-4.868,4.8-4.373,1.656a15.893,15.893,0,0,0,.883-7.242c-.218-1.756-.34-2.4-.34-2.4a22.186,22.186,0,0,1-9.8-3.246c-4.431-2.945-7.763-8.522-7.763-8.522a18.076,18.076,0,0,0,.486,8.27c1.331,4.514,4.681,9.774,4.488,10.4-.185.465-4.81-1.856-8.434-5.072a29.531,29.531,0,0,1-4.587-5.806l.506,5.1.638,2.731a15.113,15.113,0,0,1-5.282-4.736c-1.885-3.117-.417-6.681-2.268-7.578-2-1.064-2.644,1.913-5.437,3.658-3.443,2.025-7.1,2.137-7.113,2.453-1.445,5.942.546,10.018-.42,10.28-1.783.693-4.379-3.892-4.379-3.892s-4.4-.723-5.884,3.157a14.889,14.889,0,0,0-.135,5.223c.568,4,7.492,7.714,7.492,7.714a48.651,48.651,0,0,0,2.162,9.475,52.918,52.918,0,0,0,4.4,9.124s9.174,9.034,16.532,9.919c6.028.726,17.479-8.639,17.479-8.639" transform="translate(-457.07 -180.645)" fill="#ffe4ce" fill-rule="evenodd"/>
      <path id="パス_9725" data-name="パス 9725" d="M662.5,521.144l-37.791-.032-.513,8.494a39.519,39.519,0,0,0,4.712,3.3c1.026.384,6.378,2.5,8.142,3.014a29.984,29.984,0,0,0,6.924,1.154c1.25-.128,4.936-.385,6.442-.674s5.064-1.154,6.443-2.179,4.1-2.4,4.776-3.141.705-1.154.673-2.5-.128-2.661-.032-4.168.224-3.27.224-3.27" transform="translate(-524.76 -438.093)" fill="#ffe4ce" fill-rule="evenodd"/>
      <path id="パス_9726" data-name="パス 9726" d="M684.375,858.841a64.731,64.731,0,0,0-3.627-5.762c-1.392-1.791-4.941-6.319-6.4-7.73a22.533,22.533,0,0,0-5.813-3.456c-2.1-1-6.119-1.428-8-2.016s-5.089-1.289-6.284-1.566-2.563.141-3.776-.3a25.436,25.436,0,0,0-5.561-1.1,57.624,57.624,0,0,0-7.7.394,37.049,37.049,0,0,0-6.472,1.514,3.136,3.136,0,0,0-2.264,1.918c-.491.859-.664.692-2.006,1.4s-1.07,1.1-1.007,1.9-.465.436-1.236,1.037a1.619,1.619,0,0,0-.05,2.381c.618.73-.361,1.487-2.011,2.837s-3.757,3.236-5.374,4.5a8.12,8.12,0,0,0-2.235,2.555,52.633,52.633,0,0,0,.854,6.444,59.381,59.381,0,0,0,3.133,6.983c1.206,2.36,2.06,4.051,3.292,6.23a49.638,49.638,0,0,0,3.627,5.165,20.291,20.291,0,0,0,3.293-.782c1.772-.58,6.267-1.836,7.525-2.337a47.8,47.8,0,0,0,5.9-2.946c1.309-.863,4.565-2.621,5.205-3.371s2.149-2.109,2.149-2.109,3.556,2.254,4.842,3.11,3.217,2.021,4.752,2.978,3.069,1.674,3.993,2.24,3.079,1.533,3.079,1.533a12.462,12.462,0,0,0,4.271-1.3,53.262,53.262,0,0,0,6.193-4.509,20.6,20.6,0,0,0,4.328-5.6c.758-1.519,2.316-4.54,2.551-5.357a18.22,18.22,0,0,0,.59-2.7c.163-1.146.242-2.183.242-2.183" transform="translate(-516.651 -703.565)" fill="#ffe4ce" fill-rule="evenodd"/>
      <path id="パス_9727" data-name="パス 9727" d="M730.065,435.33c.722,0,6.1-.181,13.89-5.256a23.723,23.723,0,0,0,8.952-10.17c2.33-4.382,3.974-10.465,5.007-14.658a.91.91,0,1,0-1.767-.435c-1.01,4.1-2.612,10.035-4.855,14.255a21.827,21.827,0,0,1-8.326,9.481c-7.742,5.043-12.88,4.966-12.927,4.963a.893.893,0,0,0-.934.885.91.91,0,0,0,.885.934h.076" transform="translate(-612.95 -339.737)" fill="#571519"/>
      <path id="パス_9728" data-name="パス 9728" d="M745.231,354.577a.905.905,0,0,0,.41-.1c.37-.187,3.607-1.9,3.566-4.616a3.4,3.4,0,0,0-1.295-2.459,3.379,3.379,0,0,1-1.274-2.625,13.4,13.4,0,0,1,.859-4.4.91.91,0,1,0-1.738-.54,14.445,14.445,0,0,0-.937,5.053,5.138,5.138,0,0,0,1.811,3.8c.515.508.742.752.755,1.2.02,1.335-1.848,2.587-2.569,2.955a.911.911,0,0,0,.414,1.721" transform="translate(-625.743 -285.163)" fill="#571519"/>
      <path id="パス_9729" data-name="パス 9729" d="M894.236,351a.925.925,0,0,0,.135-.01,10.875,10.875,0,0,0,9.1-8.144c.344-1.433.927-5-1.1-7.176-1.272-1.365-3.242-1.838-5.856-1.4a.91.91,0,1,0,.3,1.8c1.971-.328,3.394-.044,4.225.847,1.465,1.573.877,4.615.662,5.509a9.067,9.067,0,0,1-7.6,6.769.91.91,0,0,0,.133,1.81" transform="translate(-751.011 -280.881)" fill="#571519"/>
      <path id="パス_9730" data-name="パス 9730" d="M796.434,308.669a.91.91,0,0,0,.542-1.642c-.217-.16-5.372-3.893-11.325-1.156a.91.91,0,0,0,.76,1.654c4.987-2.291,9.438.932,9.482.966a.906.906,0,0,0,.541.178" transform="translate(-660.044 -256.302)" fill="#571519"/>
      <path id="パス_9731" data-name="パス 9731" d="M543.97,326.108a.91.91,0,0,0,.233-1.79,9.067,9.067,0,0,1-6.788-7.579c-.372-2.342.045-4.314,1.11-5.305.946-.881,2.465-1.087,4.511-.609a.91.91,0,0,0,.414-1.772c-2.673-.624-4.746-.271-6.164,1.049-2.176,2.025-1.894,5.5-1.672,6.893a10.864,10.864,0,0,0,8.122,9.083.9.9,0,0,0,.235.031" transform="translate(-450.159 -259.565)" fill="#571519"/>
      <path id="パス_9732" data-name="パス 9732" d="M909.981,371.157a.909.909,0,0,0,.77-.424,4.372,4.372,0,0,1,1.435-1.448.91.91,0,0,0-.72-1.671,6.159,6.159,0,0,0-2.254,2.149.91.91,0,0,0,.769,1.4" transform="translate(-764.247 -308.985)" fill="#571519"/>
      <path id="パス_9733" data-name="パス 9733" d="M563.3,348.118a.91.91,0,0,0,.818-1.306,6.16,6.16,0,0,0-2-2.388.91.91,0,0,0-.9,1.58,4.378,4.378,0,0,1,1.265,1.6.91.91,0,0,0,.819.512" transform="translate(-471.422 -289.453)" fill="#571519"/>
      <path id="パス_9734" data-name="パス 9734" d="M803.34,374.545a6.569,6.569,0,0,0,3.835-1.065.91.91,0,1,0-1.069-1.473c-1.618,1.175-5.014.738-6.208-.149a.91.91,0,0,0-1.086,1.461,8.181,8.181,0,0,0,4.528,1.226" transform="translate(-671.245 -312.465)" fill="#571519"/>
      <path id="パス_9735" data-name="パス 9735" d="M604.747,420.258a.91.91,0,0,0,.025-1.82c-.071,0-4.461-.242-11.461-6.017a25.69,25.69,0,0,1-7.979-10.7c-1.763-4.461-2.689-10.541-3.233-14.727a.91.91,0,1,0-1.8.235c.556,4.283,1.508,10.512,3.338,15.145a27.511,27.511,0,0,0,8.523,11.455c7.576,6.251,12.37,6.425,12.57,6.429h.02" transform="translate(-487.842 -324.675)" fill="#571519"/>
      <path id="パス_9736" data-name="パス 9736" d="M655.466,300.617a.91.91,0,0,0,.471-1.689c-5.61-3.385-11.15-.256-11.382-.121a.91.91,0,1,0,.911,1.575,9.868,9.868,0,0,1,9.53.1.91.91,0,0,0,.47.131" transform="translate(-541.489 -249.986)" fill="#571519"/>
      <path id="パス_9737" data-name="パス 9737" d="M650.887,363.034a7.825,7.825,0,0,0,3.848-.909.91.91,0,0,0-.947-1.554c-1.21.737-4.645,1.079-6.161-.393a.91.91,0,0,0-1.268,1.306,6.5,6.5,0,0,0,4.528,1.55" transform="translate(-543.155 -302.582)" fill="#571519"/>
      <path id="パス_9738" data-name="パス 9738" d="M571.166,217.118a.911.911,0,0,0,.889-1.106,26.39,26.39,0,0,1,7.254-22.371A.91.91,0,0,0,578,192.379a28.112,28.112,0,0,0-8.041,21.551c-1.977-2.175-4.854-6.875-3.871-15.231a.91.91,0,1,0-1.807-.213c-1.568,13.332,6.078,18.288,6.4,18.492a.907.907,0,0,0,.483.139" transform="translate(-474.206 -161.496)" fill="#571519"/>
      <path id="パス_9739" data-name="パス 9739" d="M873.074,262.511a.916.916,0,0,0,.131-.01c.078-.011,7.8-1.267,8.064-12.04a.91.91,0,0,0-.887-.932.9.9,0,0,0-.932.887c-.154,6.173-2.968,8.682-4.845,9.672a19.82,19.82,0,0,0-2-16.314.91.91,0,1,0-1.548.956,18.463,18.463,0,0,1,1.2,16.48.911.911,0,0,0,.822,1.3" transform="translate(-732.174 -204.574)" fill="#571519"/>
      <path id="パス_9740" data-name="パス 9740" d="M942.194,214.531a.91.91,0,0,0,.8-.466c3.846-6.883,7.755-16.69,4.538-24.323a.91.91,0,0,0-1.677.707c2.932,6.956-.8,16.2-4.45,22.728a.91.91,0,0,0,.794,1.354" transform="translate(-791.328 -159.046)" fill="#571519"/>
      <path id="パス_9741" data-name="パス 9741" d="M529.477,163.389a.911.911,0,0,0,.835-1.271c-.7-1.615-6.659-16.116-1.417-27.719a.91.91,0,1,0-1.658-.749c-5.564,12.315.675,27.5,1.4,29.19a.91.91,0,0,0,.836.55" transform="translate(-441.318 -111.907)" fill="#571519"/>
      <path id="パス_9742" data-name="パス 9742" d="M538.9,19.092a10.611,10.611,0,0,0,3.958-.791.91.91,0,1,0-.678-1.689,7.573,7.573,0,0,1-5.846.18,4,4,0,0,1-.734-.407,22.211,22.211,0,0,0,6.132-3.168,26.66,26.66,0,0,0,3.978-3.574c2.462-2.532,5.008-5.151,10.634-6.882,7.665-2.392,15.927.2,20.129,4a.91.91,0,0,0,1.22-1.35c-4.445-4.017-13.193-7.1-21.887-4.387a24.273,24.273,0,0,0-11.4,7.352A25.216,25.216,0,0,1,540.7,11.72c-4.128,2.853-6.38,3.1-6.4,3.1a.933.933,0,0,0-.587.285,1.47,1.47,0,0,0-.023,1.919c.751,1.1,2.718,2.064,5.216,2.064" transform="translate(-448.38 0.004)" fill="#571519"/>
      <path id="パス_9743" data-name="パス 9743" d="M855.629,53.878a5.053,5.053,0,0,0,2.179-.429A1.893,1.893,0,0,0,859,51.719c.01-.648-.5-.993-1.273-1.509a17.673,17.673,0,0,1-4.5-4.116,70.638,70.638,0,0,1-4.247-6.779c-.289-.5-.551-.958-.776-1.339A15.509,15.509,0,0,0,831.773,30.5a.91.91,0,0,0,.395,1.777c5.594-1.244,11.276,1.362,14.48,6.636.216.366.475.816.761,1.314a71.8,71.8,0,0,0,4.38,6.979,19.6,19.6,0,0,0,4.927,4.519l.2.134a2.679,2.679,0,0,1-.659.159,7.289,7.289,0,0,1-5.3-1.738.91.91,0,1,0-1.182,1.383,9.294,9.294,0,0,0,5.854,2.219" transform="translate(-698.664 -25.354)" fill="#571519"/>
      <path id="パス_9744" data-name="パス 9744" d="M733.9,212.987a.91.91,0,0,0,.776-1.385c-.038-.063-3.852-6.335-4.935-11.412a24.237,24.237,0,0,1,.088-9.728.91.91,0,0,0-1.765-.445,25.661,25.661,0,0,0-.1,10.553,41.583,41.583,0,0,0,4.116,10.154,16.867,16.867,0,0,1-6.025-3.751,15.868,15.868,0,0,1-5.558-10.913.91.91,0,0,0-.9-.916h-.006a.91.91,0,0,0-.91.9,17.486,17.486,0,0,0,6.151,12.269c4.69,4.378,8.849,4.659,9.024,4.669h.051" transform="translate(-604.179 -159.167)" fill="#571519"/>
      <path id="パス_9745" data-name="パス 9745" d="M694.272,175.524a.91.91,0,0,0,.836-1.27c-.022-.05-2.155-5.066-1.9-9.529a.91.91,0,1,0-1.817-.1,23.087,23.087,0,0,0,1.059,7.535,15.388,15.388,0,0,1-5.036-9.064,29.947,29.947,0,0,1,1.547-13.855.91.91,0,0,0-1.692-.671,31.271,31.271,0,0,0-1.652,14.814,17.113,17.113,0,0,0,8.239,12.039.906.906,0,0,0,.421.1" transform="translate(-576.133 -124.415)" fill="#571519"/>
      <path id="パス_9746" data-name="パス 9746" d="M792.765,215.111a.91.91,0,0,0,0-1.82c-5.5-.02-14.739-4.984-16.123-12.42a.91.91,0,1,0-1.789.333c1.574,8.455,11.656,13.884,17.906,13.907Z" transform="translate(-651.4 -168.244)" fill="#571519"/>
      <path id="パス_9747" data-name="パス 9747" d="M612.695,232.812a.9.9,0,0,0,.176-.017c9.15-1.789,12.02-7.372,12.137-7.609a.91.91,0,0,0-1.628-.813c-.109.214-2.649,5.031-10.859,6.636a.91.91,0,0,0,.174,1.8" transform="translate(-514.322 -188.206)" fill="#571519"/>
      <path id="パス_9748" data-name="パス 9748" d="M857.789,523.032c.029,0,.059,0,.089,0a.91.91,0,0,0,.818-.994,41.405,41.405,0,0,1,.078-7.961.91.91,0,1,0-1.811-.173,43.193,43.193,0,0,0-.078,8.309.911.911,0,0,0,.9.822" transform="translate(-720.236 -431.338)" fill="#571519"/>
      <path id="パス_9749" data-name="パス 9749" d="M621.1,529.777a.91.91,0,0,0,.907-.85,57.912,57.912,0,0,0,.171-6.059.91.91,0,0,0-1.815.15,57.234,57.234,0,0,1-.172,5.789.909.909,0,0,0,.848.968l.06,0" transform="translate(-521.383 -438.866)" fill="#571519"/>
      <path id="パス_9750" data-name="パス 9750" d="M633.252,557.1a25.77,25.77,0,0,0,9.6-1.785c3.806-1.513,6.595-3.353,8.287-5.471.08-.1,1.96-2.485.9-4.063a.91.91,0,0,0-1.515,1.009,3.2,3.2,0,0,1-.812,1.917c-1.492,1.868-4.028,3.522-7.537,4.916-6.8,2.706-14.864,2.089-23.956-1.83a15.475,15.475,0,0,1-5.446-3.567,4.015,4.015,0,0,1-1.187-2.359.934.934,0,0,0,.852-.857.888.888,0,0,0-.831-.958,1.647,1.647,0,0,0-1.685,1c-.567,1.376.594,3.607,1.643,4.539a17.187,17.187,0,0,0,5.934,3.879,40.03,40.03,0,0,0,15.746,3.634" transform="translate(-512.637 -457.372)" fill="#571519"/>
      <path id="パス_9751" data-name="パス 9751" d="M567.026,572.2a36.044,36.044,0,0,0,5.656-.446,59.02,59.02,0,0,0,22.231-8.214c3.9-2.41,5.582-4.365,5.3-6.15-.29-1.834-2.234-3.246-4.115-4.613a13.373,13.373,0,0,1-2.488-2.091,11.229,11.229,0,0,1-2.068-5.047,11.849,11.849,0,0,1-.036-1.233c0-1.758.009-4.7-3.077-4.866a.91.91,0,0,0-.1,1.817c1.163.063,1.358.816,1.354,3.046a11.218,11.218,0,0,0,2.473,7.383,14.053,14.053,0,0,0,2.869,2.464c1.507,1.095,3.214,2.336,3.387,3.426.038.237,0,1.561-4.458,4.317a57.233,57.233,0,0,1-21.56,7.965c-9.159,1.45-17.727-.584-28.649-6.8-4.532-2.581-7.137-5.1-6.92-6.652.191-.105.513-.261.785-.392,1.7-.823,4.878-2.356,6.853-5.263A17.645,17.645,0,0,0,546.8,543.7c.309-1.845.6-3.588,1.364-3.766a.91.91,0,1,0-.412-1.773c-1.948.453-2.318,2.67-2.746,5.239a16,16,0,0,1-2.048,6.429c-1.7,2.5-4.479,3.845-6.139,4.647-1.028.5-1.5.723-1.671,1.244-.859,2.588,1.731,5.623,7.7,9.02,6.314,3.6,14.514,7.464,24.179,7.464" transform="translate(-449.76 -452.404)" fill="#571519"/>
      <path id="パス_9752" data-name="パス 9752" d="M984.318,791.6a7.655,7.655,0,0,0,3.074-.61c1.617-.7,2.826-2.865,3.71-4.445.154-.276.3-.53.425-.747,4.282-7.213,6.82-15.582,6.787-22.387-.035-7.426-2.416-14.229-4.719-20.808-.849-2.425-1.727-4.932-2.478-7.441-1.336-4.464-2.587-9.069-3.8-13.522-1.883-6.931-3.83-14.1-6.161-20.984-.652-1.927-1.228-3.955-1.784-5.916-2.017-7.108-4.1-14.458-10.366-19.534-3.8-3.076-8.195-4.424-12.375-5.544-8-2.141-16.42-4.627-23.8-8.277a.91.91,0,1,0-.806,1.632c7.527,3.72,16.051,6.238,24.141,8.4,3.991,1.068,8.182,2.349,11.7,5.2,5.816,4.714,7.821,11.782,9.761,18.617.563,1.983,1.145,4.034,1.811,6,2.313,6.833,4.253,13.973,6.129,20.878,1.213,4.464,2.467,9.081,3.809,13.567.763,2.549,1.648,5.076,2.5,7.521,2.358,6.734,4.584,13.094,4.617,20.216.031,6.49-2.411,14.508-6.532,21.45-.136.228-.286.5-.449.787-.714,1.278-1.793,3.207-2.846,3.664-3.495,1.517-8.16-1.149-10-2.365-.952-.629-1.936-1.212-2.887-1.776-2.619-1.552-5.092-3.019-6.994-5.374A50.919,50.919,0,0,1,960.9,769.67c-1.09-2.262-2.216-4.6-3.553-6.805-.691-1.139-1.545-2.293-2.371-3.409-2.072-2.8-4.214-5.694-4.229-8.815a.91.91,0,0,0-.91-.906h0a.91.91,0,0,0-.906.914c.018,3.716,2.341,6.855,4.587,9.889.838,1.133,1.63,2.2,2.278,3.27,1.292,2.13,2.4,4.428,3.47,6.651a52.266,52.266,0,0,0,6.112,10.487c2.107,2.61,4.839,4.229,7.481,5.8.933.553,1.9,1.126,2.813,1.729,1.977,1.3,5.333,3.126,8.655,3.126" transform="translate(-783.116 -555.938)" fill="#571519"/>
      <path id="パス_9753" data-name="パス 9753" d="M1063.89,1049.782a.91.91,0,0,0,.508-.155c5.6-3.771,9.785-13.691,10.183-20.59l.013-.214c.124-2.022.382-6.23-2-7.013a.91.91,0,1,0-.568,1.729c.315.1,1.02.816.753,5.172l-.014.221c-.374,6.465-4.233,15.716-9.383,19.185a.91.91,0,0,0,.509,1.665" transform="translate(-893.636 -858.985)" fill="#571519"/>
      <path id="パス_9754" data-name="パス 9754" d="M1147.365,1060.294h0a.91.91,0,0,0,.906-.914c-.023-4.939-3.684-9.034-6.627-12.325l-.778-.874c-1.269-1.437-2.558-2.862-3.847-4.289-2.75-3.042-5.595-6.187-8.2-9.415a84.972,84.972,0,0,1-6.473-9.737q-.537-.895-1.074-1.783a5.255,5.255,0,0,0-3.171-2.229,1.72,1.72,0,0,0-1.464.474.91.91,0,0,0,1.24,1.33,3.6,3.6,0,0,1,1.839,1.369q.536.884,1.07,1.776a86.511,86.511,0,0,0,6.617,9.944c2.64,3.268,5.5,6.432,8.268,9.492,1.285,1.421,2.569,2.84,3.833,4.272l.786.882c2.88,3.221,6.144,6.872,6.163,11.12a.91.91,0,0,0,.91.906" transform="translate(-938.525 -856.421)" fill="#571519"/>
      <path id="パス_9755" data-name="パス 9755" d="M995.657,1170.186a.91.91,0,0,0,.284-1.775c-1.936-.636-3.5-3.234-5.016-5.748a22.76,22.76,0,0,0-3.039-4.316.91.91,0,1,0-1.281,1.293,21.7,21.7,0,0,1,2.761,3.962c1.685,2.8,3.428,5.692,6.007,6.538a.9.9,0,0,0,.284.045" transform="translate(-829.202 -973.589)" fill="#571519"/>
      <path id="パス_9756" data-name="パス 9756" d="M932.834,988.817c4.139,0,8.106-1.792,11-3.546a.91.91,0,1,0-.944-1.556c-3.508,2.127-8.706,4.328-13.555,2.739a10.239,10.239,0,0,1-2.568-1.407,16.247,16.247,0,0,0-1.952-1.192c-.277-.137-.662-.3-1.106-.477-1.216-.5-3.609-1.472-3.979-2.538.682-.233,2.086-.57,2.91-.769a21.194,21.194,0,0,0,2.263-.608,24.959,24.959,0,0,0,7.931-5.755,27.925,27.925,0,0,0,7.023-12.253,9.959,9.959,0,0,0,.2-1.741,15.119,15.119,0,0,1,.425-3.066c.769.042,1.642,1.188,2.235,1.966.159.209.306.4.442.565.893,1.081,1.741,2.262,2.561,3.4a41.8,41.8,0,0,0,4.391,5.439.91.91,0,1,0,1.281-1.293,40.436,40.436,0,0,1-4.194-5.208c-.838-1.167-1.7-2.373-2.637-3.5-.122-.147-.254-.322-.4-.509-.919-1.206-2.309-3.027-4.238-2.632-1.362.278-1.519,2.427-1.685,4.7a13.022,13.022,0,0,1-.137,1.368,26.152,26.152,0,0,1-6.568,11.477,23.224,23.224,0,0,1-7.321,5.349c-.261.106-1.188.329-2,.525-3.4.818-4.21,1.044-4.33,1.91-.36,2.609,3.081,4.013,5.137,4.852.4.161.74.3.988.423a14.564,14.564,0,0,1,1.735,1.066,11.826,11.826,0,0,0,3.023,1.63,12.973,12.973,0,0,0,4.068.634" transform="translate(-771.633 -802.71)" fill="#571519"/>
      <path id="パス_9757" data-name="パス 9757" d="M727.216,979.285a.91.91,0,0,0,.338-1.755,59.625,59.625,0,0,1-10.993-6.265c-2.2-1.466-4.467-2.982-6.887-4.326a50.29,50.29,0,0,0-7.661-3.212c-1.892-.673-3.848-1.368-5.658-2.213-2.273-1.061-4.817-2.36-6.238-4.35-.844-1.18-.718-1.535-.717-1.538.838-.56,3.622.51,4.671.913.3.115.562.216.775.29,1.357.471,2.748.823,4.094,1.163,1.205.3,2.451.618,3.637,1.013.515.172,1.059.4,1.634.644a11.507,11.507,0,0,0,4.348,1.2.91.91,0,1,0,0-1.82,10.247,10.247,0,0,1-3.641-1.059c-.581-.245-1.183-.5-1.766-.693-1.25-.417-2.53-.74-3.767-1.052-1.308-.33-2.66-.671-3.94-1.117-.2-.069-.443-.163-.721-.27-1.877-.721-4.713-1.811-6.3-.751a1.84,1.84,0,0,0-.813,1.219,4.2,4.2,0,0,0,1.027,2.915c1.678,2.349,4.467,3.783,6.95,4.941,1.889.882,3.887,1.592,5.819,2.278a48.924,48.924,0,0,1,7.387,3.088c2.354,1.308,4.594,2.8,6.76,4.249a61.888,61.888,0,0,0,11.328,6.44.9.9,0,0,0,.338.065" transform="translate(-578.037 -801.723)" fill="#571519"/>
      <path id="パス_9758" data-name="パス 9758" d="M694.481,901.721a.91.91,0,0,0,.643-1.554c-4.18-4.18-9.594-6.823-14.83-9.378-1.871-.914-3.8-1.857-5.609-2.842-.534-.291-1.151-.582-1.8-.892-2.008-.949-4.508-2.132-5.311-3.737-.218-.434-.177-.594-.176-.6.1-.136.911-.773,6.686.549.3.07.538.123.676.149,8.148,1.528,15.654,5.282,22.914,8.912a.91.91,0,0,0,.814-1.628c-7.372-3.686-14.994-7.5-23.393-9.073-.124-.023-.333-.072-.6-.134-4.3-.984-7.389-1.341-8.527.106a2.224,2.224,0,0,0-.018,2.528c1.084,2.168,3.9,3.5,6.161,4.569.629.3,1.222.578,1.71.844,1.841,1,3.794,1.957,5.683,2.879,5.1,2.49,10.376,5.064,14.341,9.029a.906.906,0,0,0,.643.267" transform="translate(-559.539 -740.343)" fill="#571519"/>
      <path id="パス_9759" data-name="パス 9759" d="M710.491,868.348a.91.91,0,0,0,.427-1.714c-.737-.39-1.542-.844-2.392-1.323-3.233-1.823-7.257-4.092-10.848-4.69a73.1,73.1,0,0,0-9.122-.737c-.8-.031-1.587-.061-2.373-.1l-.547-.03c-3.535-.2-7.4-.259-8.553,1.646a2.679,2.679,0,0,0,.258,2.908.91.91,0,0,0,1.561-.936c-.133-.221-.424-.763-.262-1.031.452-.747,2.771-1,6.892-.77l.564.031c.792.037,1.589.068,2.39.1a71.537,71.537,0,0,1,8.894.714c3.275.545,7.144,2.727,10.253,4.48.865.488,1.683.949,2.434,1.346a.91.91,0,0,0,.425.106" transform="translate(-568.956 -722.705)" fill="#571519"/>
      <path id="パス_9760" data-name="パス 9760" d="M739.775,843.822a.91.91,0,0,0,.288-1.773,107.25,107.25,0,0,1-14.118-5.945c-.8-.4-1.556-.8-2.284-1.176-3.736-1.953-6.963-3.64-11.835-3.64a45.982,45.982,0,0,0-13,1.761l-.12.035c-1.158.345-3.1.922-3.448,2.313a2.056,2.056,0,0,0,.714,2.014.91.91,0,1,0,1.287-1.287.876.876,0,0,1-.234-.319c.061-.111.435-.451,2.2-.977l.124-.037a44.132,44.132,0,0,1,12.477-1.684c4.425,0,7.323,1.515,10.992,3.433.738.386,1.5.785,2.314,1.191a109.044,109.044,0,0,0,14.357,6.044.9.9,0,0,0,.288.047" transform="translate(-584.451 -698.854)" fill="#571519"/>
      <path id="パス_9761" data-name="パス 9761" d="M882.668,861a.91.91,0,0,0,.813-1.317c-2.475-4.949-8.4-13.432-14.569-16.518a19.737,19.737,0,0,0-5.022-1.507c-.66-.134-1.324-.27-1.983-.435-.932-.233-1.878-.439-2.826-.644a49.115,49.115,0,0,1-5.05-1.284c-1.465-.493-2.282-.538-2.817-.154a1.144,1.144,0,0,0-.479.941.91.91,0,0,0,1.561.636,6.469,6.469,0,0,1,1.157.3,50.346,50.346,0,0,0,5.242,1.337c.93.2,1.857.4,2.771.631.686.172,1.375.312,2.061.452a18.07,18.07,0,0,1,4.571,1.352c5.774,2.887,11.389,10.973,13.755,15.7a.909.909,0,0,0,.815.5" transform="translate(-715.204 -705.241)" fill="#571519"/>
      <path id="パス_9762" data-name="パス 9762" d="M15.01,786.367a46.888,46.888,0,0,0,12.063-2.111c11.729-3.2,21.706-9.82,31.354-16.224,4.368-2.9,8.885-5.9,13.5-8.536,1.583-.9,3.505-1.771,5.54-2.688,7.3-3.293,16.393-7.392,14.613-16.3a.91.91,0,1,0-1.785.357c1.5,7.482-6.512,11.093-13.577,14.279-2.075.936-4.035,1.82-5.694,2.768-4.671,2.669-9.214,5.684-13.607,8.6-9.528,6.323-19.381,12.863-30.827,15.984-5.17,1.411-12.987,3.541-18.507.474-4.924-2.735-5.9-9.2-6.192-14.528C1.188,755.718,5.4,747.262,11.437,736.7c9.656-16.9,18.684-33.866,25.471-46.761.278-.528.566-1.083.865-1.657,3.395-6.527,8.045-15.466,14.27-18.578a23.306,23.306,0,0,0,2.3-1.393,15.263,15.263,0,0,1,3.321-1.822,99.257,99.257,0,0,1,15.289-3.426c2.251-.381,4.578-.774,6.924-1.243a13.8,13.8,0,0,0,4.066-1.726,15.837,15.837,0,0,1,2.7-1.3.91.91,0,0,0-.576-1.727,17.5,17.5,0,0,0-3.017,1.445,12.237,12.237,0,0,1-3.531,1.529c-2.319.464-4.633.856-6.87,1.234a100.559,100.559,0,0,0-15.562,3.494,16.551,16.551,0,0,0-3.746,2.028,21.723,21.723,0,0,1-2.117,1.285c-6.753,3.376-11.561,12.618-15.071,19.366-.3.572-.584,1.123-.862,1.65-6.78,12.882-15.8,29.832-25.44,46.706C3.868,746.282-.656,755.348.077,768.547.4,774.342,1.5,781.4,7.2,784.566a15.9,15.9,0,0,0,7.807,1.8" transform="translate(0 -552.348)" fill="#571519"/>
      <path id="パス_9763" data-name="パス 9763" d="M75.534,1054.112a.911.911,0,0,0,.846-.574c1.945-4.9,8.226-7.556,13.273-9.69.792-.335,1.551-.655,2.256-.97,3.993-1.777,8.273-3.376,12.412-4.923,7.825-2.924,15.916-5.947,22.929-10.437,1.2-.771,2.443-1.528,3.688-2.291a98.521,98.521,0,0,0,8.392-5.537c.1-.077.242-.193.415-.335,1.742-1.432,2.478-1.795,2.787-1.826.441.429.711,2.085.875,3.093a11.18,11.18,0,0,0,.611,2.581,68.989,68.989,0,0,0,3.627,6.659c1.056,1.777,2.147,3.616,3.059,5.479a.91.91,0,1,0,1.635-.8c-.945-1.929-2.055-3.8-3.129-5.608a67.4,67.4,0,0,1-3.534-6.481,10.609,10.609,0,0,1-.473-2.122c-.289-1.767-.587-3.593-1.712-4.358-1.256-.854-3.112.507-4.9,1.978-.152.124-.277.227-.365.295a97.161,97.161,0,0,1-8.237,5.431c-1.256.768-2.5,1.533-3.718,2.31-6.85,4.385-14.85,7.373-22.585,10.264-4.164,1.556-8.471,3.165-12.515,4.965-.7.309-1.444.626-2.224.956-5.36,2.266-12.031,5.088-14.257,10.7a.91.91,0,0,0,.51,1.182.92.92,0,0,0,.336.064" transform="translate(-62.735 -853.894)" fill="#571519"/>
      <path id="パス_9764" data-name="パス 9764" d="M513.79,991.487a3.492,3.492,0,0,0,2.366-1.382c.153-.161.3-.317.449-.446a38.57,38.57,0,0,1,5.349-3.85,20.144,20.144,0,0,1,2.847-1.235c2.771-1.061,5.911-2.264,6.622-4.4.615-1.844-1.026-4.137-2.345-5.98-.36-.5-.7-.98-.906-1.331l-.146-.25c-2.861-4.9-5.819-9.974-7.2-15.489a9.452,9.452,0,0,1-.15-1.746c-.058-1.846-.137-4.374-2.415-5.133-1.676-.56-3.443.327-4.733.974l-.12.06a53.294,53.294,0,0,0-9.135,6.122c-.184.147-.378.29-.572.432-1.018.747-2.286,1.678-2.286,3.452a.91.91,0,0,0,1.82,0c0-.811.586-1.283,1.542-1.984.215-.157.43-.315.634-.479a51.57,51.57,0,0,1,8.811-5.915l.122-.061c1-.5,2.378-1.193,3.341-.875,1,.333,1.113,1.588,1.171,3.464a10.48,10.48,0,0,0,.2,2.131c1.441,5.766,4.466,10.951,7.391,15.964l.146.25c.248.424.6.91,1,1.473.905,1.265,2.42,3.381,2.1,4.345-.439,1.315-3.391,2.446-5.546,3.271A20.933,20.933,0,0,0,521,984.26a40.332,40.332,0,0,0-5.593,4.03c-.185.161-.373.357-.566.559-.593.621-.9.884-1.173.794a.91.91,0,0,0-.577,1.726,2.2,2.2,0,0,0,.7.118" transform="translate(-421.536 -798.716)" fill="#571519"/>
      <path id="パス_9765" data-name="パス 9765" d="M603.978,998.154a.923.923,0,0,0,.251-.035.911.911,0,0,0,.625-1.125c-.159-.555-.332-1.14-.513-1.75-1.622-5.472-3.844-12.965-.808-17.519a.91.91,0,1,0-1.514-1.01c-3.509,5.264-1.147,13.23.577,19.047.179.6.351,1.184.508,1.733a.91.91,0,0,0,.874.66" transform="translate(-504.585 -820.774)" fill="#571519"/>
      <path id="パス_9766" data-name="パス 9766" d="M678.467,1058.585a.881.881,0,0,0,.15-.012,50.444,50.444,0,0,0,24.367-11.435.91.91,0,0,0-1.178-1.388,48.614,48.614,0,0,1-23.485,11.026.91.91,0,0,0,.147,1.808" transform="translate(-569.616 -878.969)" fill="#571519"/>
      <path id="パス_9767" data-name="パス 9767" d="M610.481,915.12a.91.91,0,0,1-.143-1.279c.68-.851,9.148-8.293,10.3-8.483a.91.91,0,0,1,.44,1.76,92.4,92.4,0,0,0-9.322,7.859.91.91,0,0,1-1.279.143m10.457-7.966h0Z" transform="translate(-512.938 -761.115)" fill="#571519"/>
      <path id="パス_9768" data-name="パス 9768" d="M1066.4,1338.931c.024,0,.048,0,.073,0a.91.91,0,0,0,.835-.979c-.371-4.694-.134-21.754.905-42.177a.91.91,0,0,0-1.818-.092c-1.042,20.5-1.277,37.661-.9,42.413a.91.91,0,0,0,.906.838" transform="translate(-895.613 -1088.538)" fill="#571519"/>
      <path id="パス_9769" data-name="パス 9769" d="M1098.558,895.964a.91.91,0,0,0,.9-.783c1.755-12.474,3.426-16.757,4.518-18.154a.91.91,0,0,0-1.434-1.122c-1.813,2.319-3.411,8.541-4.886,19.022a.91.91,0,0,0,.774,1.028.959.959,0,0,0,.128.009" transform="translate(-922.781 -736.071)" fill="#571519"/>
      <path id="パス_9770" data-name="パス 9770" d="M379.363,1377.617a.91.91,0,0,0,.909-.879c.18-5.2-.009-18.318-.494-34.223a.892.892,0,0,0-.937-.881.909.909,0,0,0-.882.937c.483,15.868.673,28.936.494,34.1a.909.909,0,0,0,.878.941h.032" transform="translate(-317.746 -1127.896)" fill="#571519"/>
      <path id="パス_9771" data-name="パス 9771" d="M352.87,921.111l.051,0a.91.91,0,0,0,.859-.958c-.673-12.253-1.733-27.859-2.97-32.62a.91.91,0,1,0-1.762.458c.949,3.653,1.957,14.809,2.915,32.262a.91.91,0,0,0,.908.86" transform="translate(-293.416 -745.565)" fill="#571519"/>
      <path id="パス_9772" data-name="パス 9772" d="M706.128,482.9a14.191,14.191,0,0,0,5.691-1.109.91.91,0,0,0-.752-1.658,13.454,13.454,0,0,1-11-.456.91.91,0,0,0-.835,1.617,15.09,15.09,0,0,0,6.892,1.605" transform="translate(-587.427 -403.174)" fill="#571519"/>
      <path id="パス_9773" data-name="パス 9773" d="M1090.572,210.178a3.575,3.575,0,0,1-.605-2.205,3.721,3.721,0,0,1-1.811.048,3.239,3.239,0,0,1-2.11-1.741,2.212,2.212,0,0,1-.1-2.06,4.293,4.293,0,0,1,2.426-1.867,4.261,4.261,0,0,1-.856-2.695,2.46,2.46,0,0,1,1.2-1.83,2.734,2.734,0,0,1,2.244-.361,4.34,4.34,0,0,1,2.1,1.542,4.583,4.583,0,0,1,2.388-1.605,2.372,2.372,0,0,1,1.936.471,2.8,2.8,0,0,1,1.212,2.215,3.907,3.907,0,0,1-.851,2.313,4.316,4.316,0,0,1,2.185,1.7,2.392,2.392,0,0,1,.106,2.08,2.739,2.739,0,0,1-1.616,1.639,4.094,4.094,0,0,1-2.351.041,3.632,3.632,0,0,1-.578,2.236,2.9,2.9,0,0,1-2.461,1.148h-.071a2.807,2.807,0,0,1-2.392-1.069m2.434-.752c.74-.012.943-.293,1.009-.385a3.218,3.218,0,0,0,.047-2.29.911.911,0,0,1,1.293-1.083,3.82,3.82,0,0,0,2.441.446.906.906,0,0,0,.549-.593.58.58,0,0,0-.005-.541,4.17,4.17,0,0,0-2.409-1.244.911.911,0,0,1-.407-1.592c.332-.278,1.274-1.246,1.257-2.023a1.008,1.008,0,0,0-.5-.8.566.566,0,0,0-.486-.13c-.738.14-1.663,1.327-2,1.878a.9.9,0,0,1-.814.442.913.913,0,0,1-.781-.5c-.2-.4-.945-1.572-1.735-1.791a.9.9,0,0,0-.779.148.644.644,0,0,0-.365.5c-.084.723.809,1.891,1.253,2.342a.91.91,0,0,1-.466,1.533c-.858.175-2.254.7-2.521,1.263-.028.059-.079.168.058.426a1.47,1.47,0,0,0,.926.826,3,3,0,0,0,2.017-.526.91.91,0,0,1,1.387,1.021,3.263,3.263,0,0,0,.049,2.345c.064.086.255.363.975.336" transform="translate(-912.771 -165.916)" fill="#571519"/>
      <path id="パス_9774" data-name="パス 9774" d="M1019.909,343.579a1.984,1.984,0,0,1-1.294-1.322,3.543,3.543,0,0,1,.391-2.434,3.511,3.511,0,0,1-1.92-1.206,2.177,2.177,0,0,1-.292-1.927,2.415,2.415,0,0,1,1.267-1.561,3.617,3.617,0,0,1,2.059-.25,3.77,3.77,0,0,1,.625-2.226,2.118,2.118,0,0,1,1.568-.839,2.474,2.474,0,0,1,2.1.747,3.265,3.265,0,0,1,.769,1.793,3.556,3.556,0,0,1,2.212-.091,2.136,2.136,0,0,1,1.309,1.319,2.423,2.423,0,0,1-.1,2.032,3.423,3.423,0,0,1-1.323,1.292,3.05,3.05,0,0,1,.789,1.645,2.554,2.554,0,0,1-.936,2.2,2.494,2.494,0,0,1-2.249.74,3,3,0,0,1-1.548-.933,3.147,3.147,0,0,1-1.035.921,2.644,2.644,0,0,1-1.26.313,3.271,3.271,0,0,1-1.133-.214m4.119-3.207c.224.486.766,1.246,1.219,1.336.068.013.274.055.651-.294.393-.363.369-.59.361-.664-.048-.461-.723-1.063-1.161-1.324a.91.91,0,0,1,.243-1.67,3.021,3.021,0,0,0,1.652-.993.6.6,0,0,0,0-.544c-.066-.176-.139-.214-.208-.239a3.378,3.378,0,0,0-2.045.551.911.911,0,0,1-1.365-.915,2.721,2.721,0,0,0-.3-1.816c-.052-.056-.188-.207-.626-.171a.309.309,0,0,0-.259.127,3.52,3.52,0,0,0-.166,2.14.911.911,0,0,1-1.227,1.02,3.057,3.057,0,0,0-1.937-.152.6.6,0,0,0-.319.425c-.069.241-.007.328.026.375a3.221,3.221,0,0,0,1.952.689.91.91,0,0,1,.674,1.454,3.633,3.633,0,0,0-.834,2.035c.007.026.021.073.176.13a1.025,1.025,0,0,0,.9.007,2.364,2.364,0,0,0,.878-1.338.91.91,0,0,1,.8-.693c.03,0,.06,0,.09,0a.912.912,0,0,1,.827.531" transform="translate(-854.723 -278.944)" fill="#571519"/>
      <path id="パス_9775" data-name="パス 9775" d="M1107.584,504.14a2.522,2.522,0,0,1-.822-.831,2.292,2.292,0,0,1-1.1.38,2.079,2.079,0,0,1-1.749-.841h0a2.03,2.03,0,0,1-.5-1.862,2.25,2.25,0,0,1,.589-1,2.376,2.376,0,0,1-.468-.659,2.276,2.276,0,0,1,.013-1.923,1.7,1.7,0,0,1,1.167-1.025,1.567,1.567,0,0,0,2.572-.924,1.806,1.806,0,0,1,1.607-.164,1.98,1.98,0,0,1,1.22,1.1,2.656,2.656,0,0,1,.164,1.348,2.733,2.733,0,0,1,1.43.56,1.766,1.766,0,0,1,.632,1.34,2.018,2.018,0,0,1-.7,1.675,2.427,2.427,0,0,1-1.157.507,2.583,2.583,0,0,1-.092,1.454,1.777,1.777,0,0,1-1.151,1.034,2.184,2.184,0,0,1-.66.106,1.926,1.926,0,0,1-1-.277m1.8-4.127a1.782,1.782,0,0,0,1.083-.092c.047-.039.055-.149.066-.229a2.272,2.272,0,0,0-1.316-.139.912.912,0,0,1-.956-1.277,1.977,1.977,0,0,0,.178-1.165c-.012-.027-.027-.062-.179-.122a2.135,2.135,0,0,0-.444,1.175.911.911,0,0,1-1.485.6,3.081,3.081,0,0,0-1.127-.614c-.1.246-.047.353-.028.394a1.418,1.418,0,0,0,.758.534.91.91,0,0,1,.076,1.721c-.337.132-.789.453-.837.64-.006.025.024.114.133.245a.489.489,0,0,0,.246.188c.2-.01.583-.366.781-.661a.911.911,0,0,1,1.654.325,1.948,1.948,0,0,0,.526,1.043c.024.014.059.034.19.009a2.25,2.25,0,0,0-.307-1.257.91.91,0,0,1,.986-1.315m-4.785,2.252h0Z" transform="translate(-927.558 -416.287)" fill="#571519"/>
      <path id="パス_9776" data-name="パス 9776" d="M346.182,472.458a3.577,3.577,0,0,1-.606-2.206,3.74,3.74,0,0,1-1.812.048,3.24,3.24,0,0,1-2.109-1.741,2.212,2.212,0,0,1-.1-2.061,4.293,4.293,0,0,1,2.426-1.866,4.261,4.261,0,0,1-.855-2.7,2.456,2.456,0,0,1,1.2-1.83,2.73,2.73,0,0,1,2.243-.361,4.336,4.336,0,0,1,2.1,1.542,4.589,4.589,0,0,1,2.388-1.606,2.375,2.375,0,0,1,1.935.471,2.809,2.809,0,0,1,1.213,2.216,3.909,3.909,0,0,1-.851,2.312,4.314,4.314,0,0,1,2.185,1.7,2.392,2.392,0,0,1,.105,2.08,2.74,2.74,0,0,1-1.615,1.638,4.109,4.109,0,0,1-2.351.041,3.632,3.632,0,0,1-.578,2.236,2.9,2.9,0,0,1-2.461,1.147h-.071a2.808,2.808,0,0,1-2.392-1.068m2.434-.752c.739-.011.942-.293,1.009-.385a3.22,3.22,0,0,0,.047-2.29.911.911,0,0,1,1.292-1.083,3.821,3.821,0,0,0,2.442.446.907.907,0,0,0,.549-.593.581.581,0,0,0-.005-.541,4.166,4.166,0,0,0-2.409-1.243.911.911,0,0,1-.407-1.592c.331-.277,1.273-1.245,1.256-2.023a1.012,1.012,0,0,0-.5-.8.561.561,0,0,0-.484-.129c-.738.14-1.664,1.328-2,1.879a.881.881,0,0,1-.816.443.911.911,0,0,1-.78-.5c-.246-.494-.994-1.583-1.732-1.789a.9.9,0,0,0-.781.147.644.644,0,0,0-.365.5c-.084.723.809,1.891,1.253,2.342a.911.911,0,0,1-.466,1.533c-.859.174-2.254.7-2.521,1.262-.028.058-.079.168.058.426a1.471,1.471,0,0,0,.926.825,2.99,2.99,0,0,0,2.017-.526.91.91,0,0,1,1.387,1.021,3.32,3.32,0,0,0,.048,2.345c.064.086.231.365.975.336" transform="translate(-286.97 -386.412)" fill="#571519"/>
      <path id="パス_9777" data-name="パス 9777" d="M401.353,266.255a1.986,1.986,0,0,1-1.295-1.322,3.546,3.546,0,0,1,.391-2.434,3.513,3.513,0,0,1-1.92-1.206,2.177,2.177,0,0,1-.292-1.927A2.418,2.418,0,0,1,399.5,257.8a3.615,3.615,0,0,1,2.059-.25,3.768,3.768,0,0,1,.624-2.226,2.117,2.117,0,0,1,1.568-.839,2.469,2.469,0,0,1,2.1.748,3.262,3.262,0,0,1,.769,1.793,3.561,3.561,0,0,1,2.213-.091,2.133,2.133,0,0,1,1.308,1.318,2.425,2.425,0,0,1-.1,2.033,3.422,3.422,0,0,1-1.323,1.292,3.045,3.045,0,0,1,.789,1.645,2.552,2.552,0,0,1-.936,2.2,2.492,2.492,0,0,1-2.248.74,3,3,0,0,1-1.547-.933,3.146,3.146,0,0,1-1.034.921,2.65,2.65,0,0,1-1.26.313,3.265,3.265,0,0,1-1.133-.214m4.118-3.207c.224.486.766,1.246,1.219,1.336.069.015.275.054.651-.294.393-.363.369-.59.361-.665-.048-.461-.722-1.063-1.16-1.323a.91.91,0,0,1,.243-1.67,3.022,3.022,0,0,0,1.652-.993.606.606,0,0,0,0-.545c-.065-.176-.139-.214-.208-.238a3.388,3.388,0,0,0-2.045.551.911.911,0,0,1-1.364-.915,2.722,2.722,0,0,0-.3-1.817c-.053-.056-.183-.205-.627-.171a.308.308,0,0,0-.259.127,3.519,3.519,0,0,0-.165,2.14.911.911,0,0,1-1.228,1.02,3.042,3.042,0,0,0-1.937-.152.6.6,0,0,0-.319.425c-.068.241-.007.328.025.375a3.22,3.22,0,0,0,1.952.689.91.91,0,0,1,.674,1.454,3.636,3.636,0,0,0-.835,2.035c.008.025.022.073.177.13a1.022,1.022,0,0,0,.9.007,2.368,2.368,0,0,0,.877-1.338.909.909,0,0,1,.8-.694c.031,0,.06,0,.09,0a.912.912,0,0,1,.827.53" transform="translate(-334.708 -213.937)" fill="#571519"/>
    </g>
  </g>
</svg>
