<svg xmlns="http://www.w3.org/2000/svg" xmlns:xlink="http://www.w3.org/1999/xlink" width="311" height="271" viewBox="0 0 311 271">
  <defs>
    <clipPath id="clip-path">
      <rect id="長方形_1053" data-name="長方形 1053" width="311" height="271" transform="translate(181 3744)" fill="#fff" stroke="#707070" stroke-width="1"/>
    </clipPath>
    <clipPath id="clip-path-2">
      <rect id="長方形_1052" data-name="長方形 1052" width="223.465" height="282.765" fill="none"/>
    </clipPath>
  </defs>
  <g id="マスクグループ_49" data-name="マスクグループ 49" transform="translate(-181 -3744)" clip-path="url(#clip-path)">
    <g id="グループ_4720" data-name="グループ 4720" transform="translate(216.87 3763.91)">
      <g id="グループ_4720-2" data-name="グループ 4720" transform="translate(0 0.001)" clip-path="url(#clip-path-2)">
        <path id="パス_9591" data-name="パス 9591" d="M659.082,179.483c0-23.617,19.48-42.762,43.511-42.762S746.1,155.866,746.1,179.483s-19.481,42.762-43.512,42.762-43.511-19.145-43.511-42.762" transform="translate(-552.02 -114.512)" fill="#ceebff" fill-rule="evenodd"/>
        <path id="パス_9592" data-name="パス 9592" d="M693.515,1044.716a13.056,13.056,0,1,1,13.054,12.829,12.943,12.943,0,0,1-13.054-12.829" transform="translate(-580.86 -864.266)" fill="#cee4af" fill-rule="evenodd"/>
        <path id="パス_9593" data-name="パス 9593" d="M985,1044.716a13.056,13.056,0,1,1,13.054,12.829A12.943,12.943,0,0,1,985,1044.716" transform="translate(-824.995 -864.266)" fill="#ea8570" fill-rule="evenodd"/>
        <path id="パス_9594" data-name="パス 9594" d="M633.6,9h69.99c8.456,0,15.311,6.526,15.311,14.577V203c0,8.05-6.855,14.576-15.311,14.576H633.6c-8.456,0-15.311-6.526-15.311-14.576V23.574C618.289,15.523,625.144,9,633.6,9" transform="translate(-517.853 -7.536)" fill="#62677f" fill-rule="evenodd"/>
        <path id="パス_9595" data-name="パス 9595" d="M649.114,25.218h66.139a14.348,14.348,0,0,1,14.469,14.224V214.537a14.348,14.348,0,0,1-14.469,14.224H649.114a14.347,14.347,0,0,1-14.467-14.224V39.442a14.348,14.348,0,0,1,14.467-14.224" transform="translate(-531.553 -21.122)" fill="#fff" fill-rule="evenodd"/>
        <path id="パス_9596" data-name="パス 9596" d="M658.336,179.413c0-23.63,19.505-42.786,43.566-42.786s43.566,19.156,43.566,42.786S725.963,222.2,701.9,222.2s-43.566-19.156-43.566-42.786" transform="translate(-551.395 -114.433)" fill="#cee4af" fill-rule="evenodd"/>
        <path id="パス_9597" data-name="パス 9597" d="M751.41,724.249h44.331a7.423,7.423,0,0,1,7.424,7.424v4.676a7.424,7.424,0,0,1-7.424,7.424H751.41a7.424,7.424,0,0,1-7.424-7.424v-4.676a7.423,7.423,0,0,1,7.424-7.424" transform="translate(-623.132 -606.601)" fill="#cee4af" fill-rule="evenodd"/>
        <path id="パス_9598" data-name="パス 9598" d="M4.42,863.705s18.13-21.552,30.495-36.992c5.732-7.157,10.513-13.372,11.159-14.852.361-.827,2.26-3.721,3.819-6.97,1.871-3.9,4.416-9.942,7.145-15.7a102.23,102.23,0,0,1,4.954-9.253c4.219-6.871,8.657-15.1,11.2-20.481,2.58-5.452,4.983-11.738,5.787-13.692,1.471-3.57,4-11.163,7.116-18.441,3.987-9.325,8.611-17.6,10.024-19.352s7.4-5.695,7.4-5.695l0,56.638,5.073.169,9.917,1.339,8.043-1.612,6.547-1.166,3.159,1.093,1.955,2.8-.477,3.36-2.314,4.368-3.215,3.4L127.6,775.5l-3.613,1.133-9.639,2.276L109.8,780.3l-4.912,2.919-1.183,2.421.99,2.587,1.954,3.8,3.413,3.22,4.348,2.394,4.293.849,69.173-.09,4.119-.82-1.438,2.861-3.875,2.725-4.484,1.778-4.6.866-5.612.253-5.689-.381-8.836-.9-7.986-.364-7.548.368-6.345.651-3.783.863-2.082,1.638-8.577,10.052-7.943,8.687-4.675,4.566-7.424,6.523-9.078,7.21L87.111,848.5,83.66,851.1l-4.162,4.58-10,14.588a285.616,285.616,0,0,1-34.793-.856,190.823,190.823,0,0,1-30.288-5.71" transform="translate(-3.702 -588.2)" fill="#ffe4ce" fill-rule="evenodd"/>
        <path id="パス_9599" data-name="パス 9599" d="M1235.185,976.82a49.615,49.615,0,0,1,5-.188,7.5,7.5,0,0,1,3.948,2.063,5.678,5.678,0,0,1,.629,7.247,21.236,21.236,0,0,1-4.083,3.791c-1.234.786-5.424,2.548-5.424,2.548Z" transform="translate(-1034.54 -817.966)" fill="#ffe4ce" fill-rule="evenodd"/>
        <path id="パス_9600" data-name="パス 9600" d="M1236.474,687a12.416,12.416,0,0,1,2.212,1.476,3.893,3.893,0,0,1,1.137,2.463,7.341,7.341,0,0,1-1.564,3.955c-.527.624-1.756,1.773-1.756,1.773Z" transform="translate(-1035.62 -575.399)" fill="#ffe4ce" fill-rule="evenodd"/>
        <path id="パス_9601" data-name="パス 9601" d="M763.573,284.572l26.044-1.062a2.275,2.275,0,0,1,1.495.59c.708.63,2.242,1.888,2.99,2.4a63.754,63.754,0,0,0,5.9,2.911,21.067,21.067,0,0,1,5.39,3.659,10.63,10.63,0,0,1,2.6,4.131,18.439,18.439,0,0,1,.394,5.193c-.157,1.417-1.574,6.649-1.927,7.79s-2.125,5.9-3.344,8.537-2.242,4.878-3.3,6.924-1.928,3.619-1.928,3.619h-1.771l-54.326,2.121,1.158-9.982a20.23,20.23,0,0,1-2.73-1.313,33.021,33.021,0,0,1-3.923-2.654,5.644,5.644,0,0,1-1.569-2.925,7.907,7.907,0,0,1,1.514-3.92,25.62,25.62,0,0,0,2.138-4.466c.65-1.6,3.051-6.267,3.834-7.693s3.351-5.872,4.4-7.262a11.721,11.721,0,0,1,4.353-3.693,44.54,44.54,0,0,1,6.9-1.894c1.814-.343,2.4-.342,3.5-.625a15.979,15.979,0,0,1,2.21-.385" transform="translate(-615.365 -237.456)" fill="#6ea0a1" fill-rule="evenodd"/>
        <path id="パス_9602" data-name="パス 9602" d="M881.331,9.65c2.208-2.14,3.639-3.838,5.979-4.136a27.806,27.806,0,0,1,7.452-.6c3.459.178,7.363,1.688,8.393,2.787,1.186,1.121,2.772.555,4.556,3.03a20.422,20.422,0,0,1,3.436,6.436c.7,1.764,1.219,2.552,1.031,4.427a6.086,6.086,0,0,1-2.219,3.328s-.033.788-1.6,3.971a44.569,44.569,0,0,1-3.251,5.557L880.2,25.891a20.84,20.84,0,0,1-2.882-5.326c-.686-2.4-.242-3.284-.242-3.284l-2.64-.378a5.823,5.823,0,0,0,2.518-1.541c1.686-1.819,3.462-4.814,4.382-5.712" transform="translate(-732.388 -4.084)" fill="#a76854" fill-rule="evenodd"/>
        <path id="パス_9603" data-name="パス 9603" d="M907.878,103.48a4.494,4.494,0,0,1-3.692-1.876c-1.4-1.864-2.948-5.97-3.845-8.555s.235-6.623.313-7.721c.233-3.295-.121-5.248.312-6.612a8.472,8.472,0,0,1,1.276-2.829c1.2-1.73,1.964-2.1,2.707-2.307,3.072-.986,5.944-.02,6.609.867.61.721,1.818,2.8,3.181,3.784a13.947,13.947,0,0,0,3.393,1.754,35.436,35.436,0,0,1,3.126,4.172c.654.965,1.162,5.159,1.162,5.159l2.374-2.2a14.36,14.36,0,0,1,2.318-.144,2.31,2.31,0,0,1,2.062,2.752c-.256,4-4.47,4.669-4.47,4.669A45.409,45.409,0,0,1,916,101.23a18.679,18.679,0,0,1-8.119,2.249" transform="translate(-753.8 -61.28)" fill="#ffe4ce" fill-rule="evenodd"/>
        <path id="パス_9604" data-name="パス 9604" d="M917.778,212.315l13.882-9.274,4.248-.144a33.443,33.443,0,0,0-.66,4.787c.071,1.13-.133,3.191.574,4.734a40.049,40.049,0,0,0,2.225,3.883,33.409,33.409,0,0,1-3.132,2.9,49.9,49.9,0,0,1-5.973,3.406,24.333,24.333,0,0,1-4.778,1.739,23.168,23.168,0,0,1-5.29.639,8.254,8.254,0,0,1-4.526-1.513,5.863,5.863,0,0,1-1.912-3.037,19.582,19.582,0,0,1,.374-3.639,12.947,12.947,0,0,0,2.553-.717,25.639,25.639,0,0,0,2.461-1.279Z" transform="translate(-764.207 -169.938)" fill="#ffe4ce" fill-rule="evenodd"/>
        <path id="パス_9605" data-name="パス 9605" d="M712.827,486.058a15.568,15.568,0,0,0,2.108,1.987,17.88,17.88,0,0,0,3.2,2.1,21.854,21.854,0,0,0,2.3.845l-1.256,9.984s3.583-.077,5.682-.4,7.738-.47,9.946-.657,6.836-.231,9.591-.46a48.42,48.42,0,0,1,7.59.182c1.027.117,1.779-1.574,2.492-2.64a30.877,30.877,0,0,0,1.957-3.314c.646-1.271,1.536-3.045,1.536-3.045a51.65,51.65,0,0,0,4.121,3.615,43.191,43.191,0,0,0,4.829,2.664,41.66,41.66,0,0,0,4.829,1.443c1.072.221,2.353.354,2.353.354s-1.83,3.746-3.074,5.713-2.653,4.032-3.752,5.706-3.515,4.475-4.217,5.309-1.939.731-4.223.731-8.229-.222-10.9-.491-7.664-1.18-10.618-1.545A29.88,29.88,0,0,1,731.286,513a34.045,34.045,0,0,1-5.758-1.909c-1.486-.831-3.846-1.635-5.572-2.884s-2.211-1.627-2.211-1.627-3.231-2.558-4.179-3.545-3.931-4.05-4.288-4.658-1.361-1.921-1.361-1.921,2.185-4.173,2.75-5.381,2.16-5.014,2.16-5.014" transform="translate(-592.922 -407.102)" fill="#ffe4ce" fill-rule="evenodd"/>
        <path id="パス_9606" data-name="パス 9606" d="M904.442,100.333a6.492,6.492,0,0,1-1.934-.239c-1.653-.509-3.607-2.855-4.967-5.973a21.63,21.63,0,0,1-1.67-7.331,22.825,22.825,0,0,1,.344-3.948c.095-.665.192-1.339.261-2.008a20.255,20.255,0,0,0,.081-3.063c-.01-.445-.019-.862-.015-1.221.011-.62.243-6.064,5-7.89a.742.742,0,1,1,.532,1.386c-3.123,1.2-4.012,4.666-4.045,6.525,0,.339.006.74.015,1.167a21.375,21.375,0,0,1-.091,3.278c-.068.659-.168,1.352-.265,2.036a21.763,21.763,0,0,0-.329,3.693,20.026,20.026,0,0,0,1.549,6.788c1.288,2.954,3.015,4.826,4.054,5.146,1.2.394,4.606.246,9.094-1.764A16.036,16.036,0,0,0,916.78,93.3a.742.742,0,0,1,1.125.969,17.3,17.3,0,0,1-5.243,4,20.718,20.718,0,0,1-8.22,2.064" transform="translate(-750.339 -57.464)" fill="#571519"/>
        <path id="パス_9607" data-name="パス 9607" d="M933.149,143.631a.74.74,0,0,1-.422-.132c-.186-.129-1.814-1.3-1.6-2.8a2.056,2.056,0,0,1,.9-1.342,1.609,1.609,0,0,0,.722-1.082,8.525,8.525,0,0,0-.212-2.135.743.743,0,0,1,1.461-.265,9,9,0,0,1,.215,2.648,3.085,3.085,0,0,1-1.255,1.99c-.285.229-.341.292-.356.4-.065.447.6,1.114.975,1.372a.742.742,0,0,1-.423,1.353" transform="translate(-779.857 -113.29)" fill="#571519"/>
        <path id="パス_9608" data-name="パス 9608" d="M918.747,137.572c.122-.855.623-1.577,1.244-1.488.543.078,1,.778.865,1.71-.122.855-.622,1.577-1.244,1.488-.544-.078-.987-.855-.866-1.71" transform="translate(-769.487 -113.973)" fill="#571519" fill-rule="evenodd"/>
        <path id="パス_9609" data-name="パス 9609" d="M914.02,104.571a.742.742,0,0,1-.413-.126,3.039,3.039,0,0,0-2.922-.4.742.742,0,0,1-.663-1.328,4.507,4.507,0,0,1,4.413.491.743.743,0,0,1-.415,1.359" transform="translate(-761.858 -85.733)" fill="#571519"/>
        <path id="パス_9610" data-name="パス 9610" d="M911.8,133.164a.738.738,0,0,1-.394-.114c-.98-.614-1.77-.759-2.347-.429a.743.743,0,0,1-.736-1.29c1.091-.622,2.392-.467,3.872.461a.742.742,0,0,1-.4,1.371" transform="translate(-760.459 -109.685)" fill="#571519"/>
        <path id="パス_9611" data-name="パス 9611" d="M979.485,145.878a1.532,1.532,0,0,0-.854-1.788c-.622-.089-1.256.455-1.388,1.388a1.532,1.532,0,0,0,.854,1.788c.544.078,1.188-.544,1.388-1.388" transform="translate(-818.478 -120.676)" fill="#571519" fill-rule="evenodd"/>
        <path id="パス_9612" data-name="パス 9612" d="M973.923,112.774a.737.737,0,0,1-.421-.131c-.747-.514-2.979-1.709-4.333-1.064a.742.742,0,1,1-.639-1.34c2.4-1.15,5.679,1.087,5.817,1.182a.742.742,0,0,1-.423,1.352" transform="translate(-810.846 -92.057)" fill="#571519"/>
        <path id="パス_9613" data-name="パス 9613" d="M972.454,142.081a.739.739,0,0,1-.534-.227,2.7,2.7,0,0,0-2.552-.539.743.743,0,0,1-.779-1.264c1.378-.848,3.56-.1,4.4.774a.742.742,0,0,1-.534,1.257" transform="translate(-810.955 -116.989)" fill="#571519"/>
        <path id="パス_9614" data-name="パス 9614" d="M1045.114,162.076a.742.742,0,0,1-.051-1.483,4.464,4.464,0,0,0,3.82-3,2.439,2.439,0,0,0-.207-2.568,2.55,2.55,0,0,0-2.68-.268.742.742,0,1,1-.47-1.409,3.934,3.934,0,0,1,4.22.647,3.855,3.855,0,0,1,.528,4.118,5.932,5.932,0,0,1-5.107,3.964l-.052,0" transform="translate(-874.723 -128.177)" fill="#571519"/>
        <path id="パス_9615" data-name="パス 9615" d="M1053.393,173.3a.742.742,0,0,1-.576-1.209,2.885,2.885,0,0,1,1.722-1.047.742.742,0,1,1,.152,1.477,1.538,1.538,0,0,0-.725.51.742.742,0,0,1-.573.27" transform="translate(-881.657 -143.256)" fill="#571519"/>
        <path id="パス_9616" data-name="パス 9616" d="M928.124,202.5a6.762,6.762,0,0,1-4.129-1.325.742.742,0,1,1,.937-1.152,5.3,5.3,0,0,0,5.656.333.742.742,0,0,1,.809,1.245,6,6,0,0,1-3.273.9" transform="translate(-773.67 -167.391)" fill="#571519"/>
        <path id="パス_9617" data-name="パス 9617" d="M870.7,14.1a4.927,4.927,0,0,1-2.772-.879.742.742,0,0,1,.554-1.326c.064.005,1.851.148,3.768-2.831,2.181-3.33,4.584-6.681,7.879-7.94,4.006-1.544,11.949-1.63,15.8.578a3.961,3.961,0,0,1,2.176,2.743.743.743,0,0,1-1.466.239,2.576,2.576,0,0,0-1.448-1.694c-3.356-1.925-10.921-1.871-14.53-.48-2.882,1.1-5.12,4.241-7.165,7.362a8.715,8.715,0,0,1-2.614,2.736,3.05,3.05,0,0,0,.36-.043.742.742,0,1,1,.266,1.461,4.531,4.531,0,0,1-.808.073" transform="translate(-726.697 -0.002)" fill="#571519"/>
        <path id="パス_9618" data-name="パス 9618" d="M958.766,69.636a11.093,11.093,0,0,1-4.885-.992,9.99,9.99,0,0,1-4.421-4.957c-.1-.175-.225-.4-.349-.633-.389-.723-.921-1.713-1.37-1.768-.254-.029-.645.232-1.088.72a.742.742,0,1,1-1.1-1,2.81,2.81,0,0,1,2.368-1.2c1.212.148,1.895,1.418,2.5,2.539.116.216.23.429.346.628.917,1.809,1.82,3.356,3.786,4.34a7.1,7.1,0,0,0,1.825.61,8.664,8.664,0,0,1-2.909-3.536.742.742,0,0,1,1.351-.615,7.558,7.558,0,0,0,5.711,4.279.743.743,0,0,1,.022,1.473,13.937,13.937,0,0,1-1.785.105" transform="translate(-791.796 -50.085)" fill="#571519"/>
        <path id="パス_9619" data-name="パス 9619" d="M888.8,81.075a.742.742,0,0,1-.734-.636,7.194,7.194,0,0,0-.985-2.312c-1.03-1.833-2.312-4.116-.44-7.565a.742.742,0,1,1,1.305.709c-1.481,2.728-.553,4.38.429,6.129a8.34,8.34,0,0,1,1.16,2.827.742.742,0,0,1-.628.841.778.778,0,0,1-.107.008" transform="translate(-741.816 -58.775)" fill="#571519"/>
        <path id="パス_9620" data-name="パス 9620" d="M1013.661,116.592a.743.743,0,0,1-.622-.336,4.631,4.631,0,0,0-1.982-1.583,8.139,8.139,0,0,1-3.605-3.284.742.742,0,0,1,1.272-.766,6.683,6.683,0,0,0,3.031,2.739,6.035,6.035,0,0,1,2.527,2.08.742.742,0,0,1-.621,1.149" transform="translate(-843.71 -92.353)" fill="#571519"/>
        <path id="パス_9621" data-name="パス 9621" d="M1030.249,145.476a.743.743,0,0,1-.724-.909,7.242,7.242,0,0,0-.368-4.236.742.742,0,0,1,1.321-.678,7.5,7.5,0,0,1,.687,3.688,3.42,3.42,0,0,0,.935-1.8.742.742,0,0,1,1.454.3,4.533,4.533,0,0,1-3.13,3.614.736.736,0,0,1-.175.021" transform="translate(-861.91 -116.629)" fill="#571519"/>
        <path id="パス_9622" data-name="パス 9622" d="M957.081,43.808c-3.59,0-5.571-2.656-7.036-4.622A6.918,6.918,0,0,0,947.964,37c-1.629-.632-3.268,1.79-3.283,1.815a.743.743,0,1,1-1.245-.809c.093-.142,2.3-3.469,5.079-2.385a7.457,7.457,0,0,1,2.72,2.675c1.484,1.99,3.184,4.244,6.3,4.008a.742.742,0,0,1,.111,1.48q-.29.022-.567.022" transform="translate(-790.082 -29.654)" fill="#571519"/>
        <path id="パス_9623" data-name="パス 9623" d="M928.1,25.955a.742.742,0,0,1-.722-.573,3.591,3.591,0,0,1,.552-3.042c1.481-2.054,4.825-2.416,5.2-2.45a.742.742,0,1,1,.135,1.478c-1.039.1-3.24.6-4.133,1.841a2.138,2.138,0,0,0-.31,1.835.742.742,0,0,1-.554.892.73.73,0,0,1-.169.02" transform="translate(-776.634 -16.656)" fill="#571519"/>
        <path id="パス_9624" data-name="パス 9624" d="M1073.425,129.083a.742.742,0,0,1-.585-1.2,15.321,15.321,0,0,0,2.617-5.678.743.743,0,0,1,1.47.21,16.659,16.659,0,0,1-2.916,6.38.741.741,0,0,1-.587.286" transform="translate(-898.435 -101.822)" fill="#571519"/>
        <path id="パス_9625" data-name="パス 9625" d="M1067.3,44.448a.742.742,0,0,1-.653-1.1c.015-.029,1.519-2.863.478-4.957a.742.742,0,1,1,1.33-.661,5.849,5.849,0,0,1,.41,3.606,3.719,3.719,0,0,0,.7-3.281c-1.5-5.8-3.45-9.21-5.808-10.156a.742.742,0,0,1,.552-1.378c2.861,1.148,5.049,4.8,6.69,11.154.9,3.306-1.787,5.812-3.335,6.674a.737.737,0,0,1-.36.094" transform="translate(-890.566 -22.173)" fill="#571519"/>
        <path id="パス_9626" data-name="パス 9626" d="M1051.9,213.724a.74.74,0,0,1-.507-.2c-3.21-3.005-3.552-9.3-2.245-13.7a.743.743,0,0,1,1.424.423c-1.011,3.4-1.11,9.434,1.836,12.192a.743.743,0,0,1-.507,1.284" transform="translate(-878.121 -166.92)" fill="#571519"/>
        <path id="パス_9627" data-name="パス 9627" d="M939.933,262.813a.744.744,0,0,1-.712-.954,12.891,12.891,0,0,0,.289-4.753.743.743,0,0,1,1.48-.121,14.25,14.25,0,0,1-.345,5.3.743.743,0,0,1-.712.531" transform="translate(-786.627 -214.669)" fill="#571519"/>
        <path id="パス_9628" data-name="パス 9628" d="M738.688,313.161a.752.752,0,0,1-.174-.02c-2.027-.485-8.3-4.177-8.189-7.237.054-1.435.967-3.006,1.849-4.525a17.608,17.608,0,0,0,1.111-2.1,83.528,83.528,0,0,1,6.971-14.191c1.555-2.438,3.317-5.2,6-6.676,2.829-1.556,6.063-2.06,9.192-2.547,3.373-.526,6.56-1.022,9.32-2.716a.743.743,0,0,1,.777,1.266c-3.014,1.849-6.5,2.392-9.869,2.917-3.139.489-6.1.951-8.7,2.381-2.357,1.3-4.01,3.887-5.468,6.173a82.084,82.084,0,0,0-6.843,13.941,18.506,18.506,0,0,1-1.207,2.3,10.332,10.332,0,0,0-1.649,3.835c-.069,1.828,5.016,5.25,7.051,5.737a.742.742,0,0,1-.172,1.464" transform="translate(-611.69 -228.683)" fill="#571519"/>
        <path id="パス_9629" data-name="パス 9629" d="M704.329,494.2a.742.742,0,0,1-.631-1.133,67.416,67.416,0,0,0,4.691-9.567.742.742,0,0,1,1.424.421,66.954,66.954,0,0,1-4.852,9.926.742.742,0,0,1-.632.352" transform="translate(-589.296 -404.517)" fill="#571519"/>
        <path id="パス_9630" data-name="パス 9630" d="M774.485,408.883h-.016a.743.743,0,0,1-.727-.758c.028-1.325.575-5.413,1.268-10.59,1.049-7.837,2.485-18.569,2.171-20.965a.742.742,0,1,1,1.472-.193c.339,2.591-.995,12.559-2.172,21.355-.66,4.927-1.229,9.183-1.255,10.424a.743.743,0,0,1-.742.727" transform="translate(-648.055 -314.698)" fill="#571519"/>
        <path id="パス_9631" data-name="パス 9631" d="M942.352,326.485a31.587,31.587,0,0,1-9.712-2.657,27.03,27.03,0,0,1-8.648-6.6c-.376-.451-.376-.451,2.652-7.815,1.949-4.738,5.2-12.648,5.281-13.758a.743.743,0,0,1,1.459-.266c.185.785-.868,3.649-5.368,14.588-1.143,2.779-2.32,5.641-2.644,6.582a25.569,25.569,0,0,0,7.886,5.914,31.207,31.207,0,0,0,9.016,2.548c1.766-2.81,12.129-23.3,10.168-30.42-1.473-5.348-7.29-8.037-12.423-10.409-.7-.324-1.38-.638-2.028-.95a8.892,8.892,0,0,1-1.582-1.229,14.837,14.837,0,0,0-1.459-1.186l-.149.132c-8.637,7.648-15.858,8.971-20.387,8.73a6.726,6.726,0,0,1-5.943-3.4,5.983,5.983,0,0,1-.065-5.569.742.742,0,1,1,1.263.781,4.486,4.486,0,0,0,.118,4.1c.579,1.107,1.866,2.458,4.706,2.607,4.258.223,11.065-1.046,19.324-8.359.466-.412.549-.486.742-.544.73-.219,1.471.4,2.831,1.6a10.009,10.009,0,0,0,1.245,1.006c.641.308,1.314.62,2.007.94,5.157,2.384,11.576,5.35,13.231,11.362,2.316,8.407-9.922,31.441-10.731,32.116a1.359,1.359,0,0,1-.791.157m-10.412-30.75h0Z" transform="translate(-760.297 -233.901)" fill="#571519"/>
        <path id="パス_9632" data-name="パス 9632" d="M980.739,522.676a.742.742,0,0,1-.489-1.3c1.178-1.031,4.035-6.334,4.73-8.034a.743.743,0,0,1,1.375.563c-.542,1.324-3.56,7.217-5.128,8.588a.739.739,0,0,1-.489.184" transform="translate(-820.805 -429.568)" fill="#571519"/>
        <path id="パス_9633" data-name="パス 9633" d="M893.081,581.521a105.37,105.37,0,0,1-22.388-2.487.742.742,0,1,1,.354-1.442c11.043,2.706,25.727,2.8,27.161,2.1,2.761-1.74,9.641-13.348,10.714-15.973a.742.742,0,1,1,1.375.562c-1,2.443-8.054,14.623-11.313,16.677-.582.366-2.8.566-5.9.566" transform="translate(-728.783 -471.76)" fill="#571519"/>
        <path id="パス_9634" data-name="パス 9634" d="M777.622,569.264a.741.741,0,0,1-.644-.372c-2.055-3.579-5.274-3.7-9.348-3.863-.527-.021-1.064-.041-1.609-.07-3.812-.2-10.026.266-16.605.761-6.6.5-13.429,1.012-18.966.961a.743.743,0,0,1-.736-.749.733.733,0,0,1,.749-.736c5.482.049,12.272-.463,18.842-.957,6.628-.5,12.891-.97,16.8-.763.538.029,1.068.049,1.588.069,4.173.162,8.115.315,10.579,4.607a.742.742,0,0,1-.643,1.112" transform="translate(-611.177 -471.902)" fill="#571519"/>
        <path id="パス_9635" data-name="パス 9635" d="M388.941,1116.365a.743.743,0,0,1-.236-1.446c14.448-4.855,24.572-23.073,29.321-33.5,1.137-2.5,2.06-5.13,2.952-7.675.441-1.257.881-2.512,1.347-3.758.117-.314.223-.687.335-1.082a6.993,6.993,0,0,1,1.706-3.46c3.632-3.128,8.665-4.226,13.533-5.287,5.926-1.292,12.053-2.628,15.871-7.59a15.882,15.882,0,0,0,3.346-6.693,3.6,3.6,0,0,0-.763-2.839,4.2,4.2,0,0,0-2.937-1.6,25.958,25.958,0,0,0-7.781,1.136,32.17,32.17,0,0,1-7.355,1.22h-.047a45.3,45.3,0,0,1-6.606-.677c-3.506-.531-7.134-1.08-10.335-.271-3.568.9-6.827,3.413-9.979,5.843-1.078.832-2.1,1.616-3.131,2.343a183.059,183.059,0,0,1-20.9,13,.742.742,0,1,1-.684-1.318,181.56,181.56,0,0,0,20.73-12.9c1.007-.708,2.013-1.483,3.078-2.3,3.272-2.522,6.655-5.13,10.522-6.106,3.491-.882,7.268-.31,10.92.243a42.317,42.317,0,0,0,6.427.661,31.164,31.164,0,0,0,7.005-1.177,27.294,27.294,0,0,1,8.245-1.175,5.633,5.633,0,0,1,4,2.166,5.064,5.064,0,0,1,1.056,4,17.061,17.061,0,0,1-3.633,7.35c-4.148,5.39-10.545,6.785-16.731,8.134-4.9,1.069-9.534,2.078-12.881,4.962a6.082,6.082,0,0,0-1.247,2.743c-.122.43-.238.836-.373,1.2-.463,1.236-.9,2.482-1.336,3.729-.9,2.576-1.837,5.239-3,7.8-4.849,10.647-15.22,29.259-30.2,34.293a.746.746,0,0,1-.236.039" transform="translate(-323.465 -870.993)" fill="#571519"/>
        <path id="パス_9636" data-name="パス 9636" d="M.742,863.12a.742.742,0,0,1-.564-1.225c5.929-6.926,35.844-42.037,42.474-53.149a123.518,123.518,0,0,0,6.789-13.923c1.792-4.1,3.644-8.345,5.86-12.328,1.49-2.678,3.034-5.342,4.528-7.919a190.306,190.306,0,0,0,11.136-21.209c1.868-4.4,3.6-8.948,5.435-13.765,3.586-9.415,7.294-19.15,12.048-27.555.443-.784.8-1.457,1.124-2.056a16.414,16.414,0,0,1,5.207-6.389c.614-.5,2.522-1.8,3.968-2.761a.743.743,0,0,1,.823,1.236c-1.841,1.226-3.392,2.3-3.857,2.679a15.09,15.09,0,0,0-4.831,5.935c-.325.607-.691,1.291-1.141,2.086-4.7,8.307-8.387,17.99-11.953,27.353-1.759,4.618-3.578,9.393-5.457,13.816A194.164,194.164,0,0,1,61.114,775.32c-1.49,2.571-3.031,5.229-4.515,7.9-2.182,3.921-4.02,8.13-5.8,12.2a124.65,124.65,0,0,1-6.874,14.09C37.4,820.44,9.656,853.108,1.307,862.86a.74.74,0,0,1-.564.26" transform="translate(0 -586.892)" fill="#571519"/>
        <path id="パス_9637" data-name="パス 9637" d="M402.151,1362.834a.743.743,0,0,1-.6-1.174c1.715-2.406,3.134-4.587,4.505-6.7,2.913-4.48,5.429-8.35,9.452-12.225.735-.708,2.449-1.969,4.82-3.715a221.229,221.229,0,0,0,18.613-14.931,219.466,219.466,0,0,0,18.131-19.4c.909-1.069,1.6-1.883,2.025-2.353.259-.286.551-.643.868-1.03,1.269-1.549,2.849-3.478,4.582-3.917a69.365,69.365,0,0,1,12.447-1.7,101.244,101.244,0,0,1,15.808.681c6.567.628,13.357,1.277,19.906.192,2.678-.444,9.509-3.377,10.729-6.547a.743.743,0,1,1,1.386.534c-1.57,4.077-9.227,7.04-11.873,7.478-6.737,1.117-13.628.459-20.289-.178a100.093,100.093,0,0,0-15.574-.677,67.9,67.9,0,0,0-12.176,1.658c-1.258.318-2.726,2.109-3.8,3.417-.334.408-.641.783-.915,1.085-.419.463-1.1,1.265-1.995,2.319a220.69,220.69,0,0,1-18.26,19.532,222.3,222.3,0,0,1-18.736,15.032c-2.238,1.648-4.006,2.949-4.67,3.589-3.9,3.757-6.374,7.561-9.237,11.965-1.38,2.123-2.808,4.318-4.542,6.75a.741.741,0,0,1-.605.311" transform="translate(-336.204 -1080.069)" fill="#571519"/>
        <path id="パス_9638" data-name="パス 9638" d="M692.04,219.806a.757.757,0,0,1-.112-.008,44.463,44.463,0,0,1-26.653-14.549,43.063,43.063,0,0,1-10.763-28.439c0-22.4,17.07-41.006,39.706-43.277a.742.742,0,1,1,.148,1.478C672.492,137.2,656,155.174,656,176.809c0,20.863,15.205,38.325,36.155,41.52a.742.742,0,0,1-.111,1.476" transform="translate(-548.192 -111.838)" fill="#571519"/>
        <path id="パス_9639" data-name="パス 9639" d="M1080.193,249.761a.742.742,0,0,1-.468-1.319,41.582,41.582,0,0,0-2.526-66.753.743.743,0,0,1,.848-1.219,43.067,43.067,0,0,1,2.613,69.126.741.741,0,0,1-.467.165" transform="translate(-901.951 -151.043)" fill="#571519"/>
        <path id="パス_9640" data-name="パス 9640" d="M1236.944,988.833a.742.742,0,0,1-.274-1.433,18.907,18.907,0,0,0,8.063-5.437,4.947,4.947,0,0,0,.766-5.095,5.9,5.9,0,0,0-4.864-3.494,12.8,12.8,0,0,0-3.565.2.742.742,0,0,1-.252-1.463,14.141,14.141,0,0,1,3.975-.214,7.385,7.385,0,0,1,6.075,4.394,6.393,6.393,0,0,1-.967,6.589,20.346,20.346,0,0,1-8.683,5.9.744.744,0,0,1-.274.052" transform="translate(-1035.391 -813.97)" fill="#571519"/>
        <path id="パス_9641" data-name="パス 9641" d="M1236.921,694.913a.743.743,0,0,1-.522-1.27,8.514,8.514,0,0,0,2.117-3.141,3.543,3.543,0,0,0-1.974-4.415.742.742,0,1,1,.7-1.311c2.542,1.348,3.545,3.667,2.684,6.2a9.884,9.884,0,0,1-2.479,3.72.742.742,0,0,1-.522.214" transform="translate(-1035.346 -573.467)" fill="#571519"/>
        <path id="パス_9642" data-name="パス 9642" d="M994.226,1054.46a13.573,13.573,0,1,1,13.8-13.571,13.7,13.7,0,0,1-13.8,13.571m0-25.658a12.088,12.088,0,1,0,12.311,12.087,12.214,12.214,0,0,0-12.311-12.087" transform="translate(-821.168 -860.439)" fill="#571519"/>
        <path id="パス_9643" data-name="パス 9643" d="M723.789,1054.459a13.876,13.876,0,0,1-9.372-3.613.742.742,0,1,1,1-1.1,12.394,12.394,0,0,0,8.372,3.226,12.089,12.089,0,1,0,0-24.173,12.373,12.373,0,0,0-8.572,3.411.742.742,0,0,1-1.023-1.076,13.85,13.85,0,0,1,9.6-3.82,13.573,13.573,0,1,1,0,27.142" transform="translate(-597.986 -860.438)" fill="#571519"/>
        <path id="パス_9644" data-name="パス 9644" d="M405.758,365.331a18.6,18.6,0,0,0-1.539-5.266,3.747,3.747,0,0,0-2.658-1.95,3.747,3.747,0,0,0,2.576-2.057,18.58,18.58,0,0,0,1.325-5.323A18.592,18.592,0,0,0,407,356a3.747,3.747,0,0,0,2.657,1.951,3.747,3.747,0,0,0-2.577,2.056,18.589,18.589,0,0,0-1.325,5.323" transform="translate(-336.332 -293.761)" fill="#fff" fill-rule="evenodd"/>
        <path id="パス_9645" data-name="パス 9645" d="M456.769,634.442a12.942,12.942,0,0,0-1.071-3.666,1.445,1.445,0,1,1-.057-2.79,12.951,12.951,0,0,0,.923-3.707,12.952,12.952,0,0,0,1.07,3.666,1.446,1.446,0,1,1,.057,2.791,12.963,12.963,0,0,0-.922,3.706" transform="translate(-380.124 -522.871)" fill="#fff" fill-rule="evenodd"/>
        <path id="パス_9646" data-name="パス 9646" d="M525.354,132.779a12.949,12.949,0,0,0-1.071-3.666,2.61,2.61,0,0,0-1.851-1.358,2.608,2.608,0,0,0,1.794-1.432,12.944,12.944,0,0,0,.923-3.706,12.947,12.947,0,0,0,1.071,3.666,2.609,2.609,0,0,0,1.85,1.358,2.608,2.608,0,0,0-1.793,1.432,12.95,12.95,0,0,0-.923,3.706" transform="translate(-437.567 -102.698)" fill="#fff" fill-rule="evenodd"/>
        <path id="パス_9647" data-name="パス 9647" d="M1311,528.484a12.945,12.945,0,0,0-1.072-3.667,1.445,1.445,0,1,1-.056-2.79,12.932,12.932,0,0,0,.921-3.707,12.931,12.931,0,0,0,1.071,3.667,1.445,1.445,0,1,1,.057,2.79,12.941,12.941,0,0,0-.922,3.707" transform="translate(-1095.595 -434.124)" fill="#fff" fill-rule="evenodd"/>
        <path id="パス_9648" data-name="パス 9648" d="M1330.009,799.654a18.592,18.592,0,0,0-1.539-5.266,2.076,2.076,0,1,1-.081-4.006,18.586,18.586,0,0,0,1.325-5.323,18.6,18.6,0,0,0,1.539,5.265,2.076,2.076,0,1,1,.08,4.007,18.607,18.607,0,0,0-1.324,5.323" transform="translate(-1110.446 -657.532)" fill="#fff" fill-rule="evenodd"/>
        <path id="パス_9649" data-name="パス 9649" d="M614.461,174.465a.742.742,0,0,1-.742-.742V19.746c0-8.447,7.2-15.319,16.053-15.319h36.616a.742.742,0,0,1,0,1.485H629.772c-8.033,0-14.569,6.206-14.569,13.834V173.723a.742.742,0,0,1-.742.742" transform="translate(-514.026 -3.708)" fill="#571519"/>
        <path id="パス_9650" data-name="パス 9650" d="M700.363,214.5h-69.99c-8.089,0-14.937-5.768-15.931-13.416a.742.742,0,0,1,1.472-.192c.9,6.911,7.113,12.123,14.458,12.123h69.99c8.033,0,14.569-6.206,14.569-13.834V19.746c0-7.628-6.536-13.834-14.569-13.834h-17.3a.742.742,0,0,1,0-1.485h17.3c8.852,0,16.053,6.872,16.053,15.319V199.177c0,8.446-7.2,15.318-16.053,15.318" transform="translate(-514.626 -3.708)" fill="#571519"/>
        <path id="パス_9651" data-name="パス 9651" d="M630.817,188.04a.742.742,0,0,1-.742-.742V35.614a15.107,15.107,0,0,1,15.21-14.966h31.954a.742.742,0,1,1,0,1.485H645.285A13.62,13.62,0,0,0,631.56,35.614V187.3a.742.742,0,0,1-.742.742" transform="translate(-527.725 -17.294)" fill="#571519"/>
        <path id="パス_9652" data-name="パス 9652" d="M711.745,225.675H645.606a15.044,15.044,0,0,1-15.144-13.56.742.742,0,0,1,.669-.809.732.732,0,0,1,.809.668,13.565,13.565,0,0,0,13.666,12.216h66.139a13.621,13.621,0,0,0,13.726-13.481V35.614a13.621,13.621,0,0,0-13.726-13.482H699.274a.742.742,0,1,1,0-1.485h12.471a15.107,15.107,0,0,1,15.211,14.966V210.709a15.107,15.107,0,0,1-15.211,14.966" transform="translate(-528.046 -17.294)" fill="#571519"/>
        <path id="パス_9653" data-name="パス 9653" d="M531.234,861.668c-.178.92-6.3-2.387-6.151.293.241,4.28,11.766,10.716,12.7,10.188,1.289-.729-1.934-14.18-4.57-15.861-2.858-1.823-1.678,3.826-1.978,5.381" transform="translate(-439.786 -716.891)" fill="#f48184" fill-rule="evenodd"/>
        <path id="パス_9654" data-name="パス 9654" d="M620.433,749.814c-.452.561-3.42-3.887-4.281-2.014-1.376,2.992,4.133,11.507,4.957,11.484,1.137-.031,3.787-10.321,2.6-12.412-1.284-2.266-2.515,1.994-3.278,2.941" transform="translate(-515.88 -625)" fill="#f48184" fill-rule="evenodd"/>
        <path id="パス_9655" data-name="パス 9655" d="M681.826,946.316c-.244.621-4.094-2.488-4.337-.6-.39,3.023,6.828,9.023,7.55,8.775,1-.342.495-10.163-1.129-11.682-1.761-1.647-1.671,2.455-2.083,3.5" transform="translate(-567.424 -789.338)" fill="#f48184" fill-rule="evenodd"/>
        <path id="パス_9656" data-name="パス 9656" d="M1036.352,1069.768h0a1.54,1.54,0,0,1,0,2.178l-10.428,10.412a1.539,1.539,0,1,1-2.176-2.178l10.428-10.413a1.54,1.54,0,0,1,2.177,0" transform="translate(-857.07 -895.615)" fill="#e9766a" fill-rule="evenodd"/>
        <path id="パス_9657" data-name="パス 9657" d="M1023.746,1069.768h0a1.54,1.54,0,0,0,0,2.178l10.428,10.412a1.539,1.539,0,1,0,2.176-2.178l-10.428-10.413a1.541,1.541,0,0,0-2.177,0" transform="translate(-857.07 -895.615)" fill="#e9766a" fill-rule="evenodd"/>
        <path id="パス_9658" data-name="パス 9658" d="M747.911,873.8h51.328a3.925,3.925,0,0,1,0,7.851H747.911a3.925,3.925,0,0,1,0-7.851" transform="translate(-623.132 -731.858)" fill="#cee4af" fill-rule="evenodd"/>
      </g>
    </g>
  </g>
</svg>
