<svg xmlns="http://www.w3.org/2000/svg" xmlns:xlink="http://www.w3.org/1999/xlink" width="242.082" height="248.96" viewBox="0 0 242.082 248.96">
  <defs>
    <clipPath id="clip-path">
      <rect id="長方形_1054" data-name="長方形 1054" width="242.082" height="248.96" fill="none"/>
    </clipPath>
  </defs>
  <g id="グループ_4721" data-name="グループ 4721" transform="translate(0 -0.002)">
    <g id="グループ_4721-2" data-name="グループ 4721" transform="translate(0 0.002)" clip-path="url(#clip-path)">
      <path id="パス_9659" data-name="パス 9659" d="M228.222,718.987s-3.041,7.5-6.916,16.624c-3.543,8.342-7.731,18.071-12,24.123-3.167,4.494-7.507,6.72-9.41,5.532a49.2,49.2,0,0,1-12.423-12.026c-5.184-7.571-8.223-17.4-9.813-23.986-1.292-5.346-7.059-27.588-10.581-43.692-1.95-8.922-2.8-16.858-2.8-16.858l18-6.1,4.531,6.133,3.227,10.141,3.548,9.112.883,2.268,4.67,10.582s2.007-4.023,3.98-9.3c3.225-8.63,6.331-21.19,10.17-30.848,2.643-6.649,6.511-12.19,7.464-13.047,6.513-5.849,9.728-4.981,17.636-7.689,3.564-1.221,7.907-2.5,10.769-3.657,13.971-5.656,54.083,1.607,61.51,3.6,1.217.326,3.8,1.211,7.611,2.237,3.977,1.073,8.7,1.326,12.714,2.586a21.986,21.986,0,0,1,8.04,4.4,19.8,19.8,0,0,1,4.506,7.615,80.668,80.668,0,0,1,3.32,16.89c.2,2.308.633,7.052.865,14.427.219,6.992-.4,16.534-.2,25.822.223,10.274-.313,20.887-.018,30.9.61,20.694,2.056,37.913,2.056,37.913l-111.991-.039a28.112,28.112,0,0,0,1.156-12.554c-1.281-7.423-3.6-19.83-5.773-30.149-1.164-5.518-2.065-11.361-2.924-15.073a29.688,29.688,0,0,0-1.82-5.878" transform="translate(-138.261 -533.721)" fill="#fff" fill-rule="evenodd"/>
      <path id="パス_9660" data-name="パス 9660" d="M638.1,49.616c5.063-8.1,6.809-22.51,16.255-32.539,8.531-9.006,21.011-13.086,28.143-12.3,3.645.4,8.81,5.943,12.806,6.062,4.79.206,11.681,2.83,17.826,9.34,1.947,2.434,6.284,9.331,7.24,15.211.975,5.722,2.676,15.492,5.6,19.835a21.226,21.226,0,0,0,9.5,6.2,56.034,56.034,0,0,1,15.484,6.7,22.61,22.61,0,0,1,7.734,8.5,17.371,17.371,0,0,1,2.056,6.329,11.892,11.892,0,0,1-3.137,8.78,12.115,12.115,0,0,0-3.313,5.643c-.423,2.187.461,5.178,1.6,6.14a8.517,8.517,0,0,0,6.547,1c2.2-.652,3.663-2.831,3.728-1.762.063,1.029-1.093,3.9-2.908,5.531A13.618,13.618,0,0,1,757.474,111c-.782.212.575,1.772,2.479,3.025,2.413,1.586,5.174,2.245,7.886,5.426,2.768,3.247,4.131,7.811,4.183,12.577a6.5,6.5,0,0,1-2.493,5c-4.444,3.562-11.943,6.631-13.763,10.13-1.116,2.144-1.052,7.21,3.157,9.2a2.766,2.766,0,0,0,3.4-.744c.974-1.07,1.336-2.479,1.668-1.548.449,1.258-.13,3.072-.153,3.713-.085,2.281-7.837,7.678-9.131,8.559-.974.664-3.7.927-6.112-.142a36.5,36.5,0,0,1-8.5-5.951s.089-6.091-.284-12.207c-.276-4.524-.99-9.2-1.212-10.727-.742-5.1-2.957-12.112-4.939-14.985a20.837,20.837,0,0,0-9.83-7.454c-3.921-1.546-9.852-1.912-13.268-2.535-2.525-.462-5.5-1.75-7.787-2.391-22.91-6.407-44.4-10.457-49.443-7.724-4.957,2.686-20.677,7.3-20.677,7.3s-2.331-2.142-.662-5.851c1.43-3.176,4.791-7.071,6.932-10.171,1.486-2.152,2.156-3.977,2.13-4.672-.1-2.667-.541-5.146-1.588-6.58-1.405-1.753-3.408-3.688-5.311-5.722a10.611,10.611,0,0,1-3.5-7.514c-.658-7.13,7.412-19.235,7.429-19.393" transform="translate(-530.734 -3.94)" fill="#4a3e3e" fill-rule="evenodd"/>
      <path id="パス_9661" data-name="パス 9661" d="M717.488,238.284a39.433,39.433,0,0,1-3.036-7.392,85.9,85.9,0,0,1-2.036-10.651,7.8,7.8,0,0,1-3.33-1.81s-.725-2.165,4.885-9.408c2.427-3.1,5.33-6.151,8.6-9.641,4.555-4.952,6.292-11.979,11.925-13.605a18,18,0,0,1,15.285,2.485c.9.58,4.281,1.915,6.134,5.488,1.7,3.41,2.783,9.232,4.208,13.517a63.6,63.6,0,0,0,2.306,6.227c1.024,2.358,1.225,7.577,1.225,7.577l-1.44,4.333a49.033,49.033,0,0,1-3.724,9.055,41.286,41.286,0,0,1-7.01,8.639s-1.019,9.6,1.278,12.713c1.318,1.787,9.289,6.346,9.289,6.346a13.426,13.426,0,0,1-3.89,2.523c-6.071,2.4-17.592,6.089-19.877,7.954-.957.782-2.085,2.6-3,2.52-.731-.065-1.641-1.388-2.44-2.156-1.15-1.106-11.45-5.488-20.071-8.583-3.859-1.385-7.235-1.237-9.556-2.62-1.4-.833-2.4-3.291-2.4-3.291s11.741-3.068,13.952-6.24c3.746-5.375,2.719-13.979,2.719-13.979" transform="translate(-589.799 -155.722)" fill="#ffe4ce" fill-rule="evenodd"/>
      <path id="パス_9662" data-name="パス 9662" d="M919.337,374.884c.122-1.11-.935-1.707-1.463-2.728-.388-.845-.25-2.112-.883-2.183-1.427-.157-2.6,3.243-2.812,5.144a2.608,2.608,0,0,0,2.222,3.133c1.268.139,2.728-1.464,2.937-3.366" transform="translate(-769.341 -311.361)" fill="#ffaaa9" fill-rule="evenodd"/>
      <path id="パス_9663" data-name="パス 9663" d="M809.728,375.077c.333-1.567,2.974-2.239,5.633-1.626s4.7,2.443,4.371,4.011-2.974,2.239-5.633,1.625-4.7-2.443-4.371-4.01" transform="translate(-681.427 -314.102)" fill="#ffaaa9" fill-rule="evenodd"/>
      <path id="パス_9664" data-name="パス 9664" d="M995.407,396.4c.016-1.6-2.415-2.833-5.145-2.813-2.887,0-5.122,1.361-5.138,2.963s2.415,2.832,5.145,2.812,5.123-1.361,5.138-2.963" transform="translate(-829.069 -331.242)" fill="#ffaaa9" fill-rule="evenodd"/>
      <path id="パス_9665" data-name="パス 9665" d="M1107.891,122.595c-.512-1.179-.143-1.62-1.553-3.379-1.252-1.742-1.677-3.713-.04-4.014.986-.212,1.867.526,2.52,1.882a9.415,9.415,0,0,1,.76,3.292c.286,3.24-1.318,3.224-1.688,2.22" transform="translate(-930.147 -96.922)" fill="#362d2d" fill-rule="evenodd"/>
      <path id="パス_9666" data-name="パス 9666" d="M1085.132,138.42c-.281-.352-.53-1.021-1.217-2.059-.671-1.2-1.886-1.812-1.922-2.939-.054-.968,1.285-1.463,2.182-.883,1.181.932,2.029,3.432,2.206,4.735.054.968-.368,1.884-1.249,1.146" transform="translate(-910.591 -111.336)" fill="#362d2d" fill-rule="evenodd"/>
      <path id="パス_9667" data-name="パス 9667" d="M802.452,70.752c2.411-1.5,5.033-2.012,5.246-1.027s-1.936,1.551-3.871,3.1-2.48,3.577-3.678,2.8-.108-3.381,2.3-4.88" transform="translate(-672.985 -58.254)" fill="#7d6667" fill-rule="evenodd"/>
      <path id="パス_9668" data-name="パス 9668" d="M822.377,92.632c1.759-1.41,3.907-1.976,4.137-1.148s-1.426,1.287-2.868,2.732c-1.425,1.287-1.6,2.872-2.674,2.433-.9-.58-.338-2.764,1.405-4.016" transform="translate(-690.564 -76.668)" fill="#7d6667" fill-rule="evenodd"/>
      <path id="パス_9669" data-name="パス 9669" d="M890.221,475.153c.157-1.427,2.587-1.64,5.439-1.326s5.2.893,5.038,2.32-2.831,3.858-5.525,3.562c-2.852-.314-5.127-2.97-4.952-4.555" transform="translate(-749.191 -398.661)" fill="#ffbca9" fill-rule="evenodd"/>
      <path id="パス_9670" data-name="パス 9670" d="M1113.411,352.268a23.339,23.339,0,0,0-1.031-4.211s5.456-.78,5.672,3.094a10.715,10.715,0,0,1-.29,4.5c-.823,2.214-2.222,3.632-2.718,3.577.017-.158-1.26-4.513-1.632-6.96" transform="translate(-936.166 -292.867)" fill="#ffe4ce" fill-rule="evenodd"/>
      <path id="パス_9671" data-name="パス 9671" d="M731.089,223.138a15.4,15.4,0,0,0,3.712-3.12c2.516-2.45,9.151-5.89,12.474-9.856,2.6-3.242,8.421-13.83,9.213-13.743,1.11.122-2.419,10.321-5.2,13.7-4.661,5.9-6.017,5.113-10.66,10.858a12.832,12.832,0,0,0-2.7,8.525,9.616,9.616,0,0,1-3.964-1.881,18.576,18.576,0,0,1-2.875-4.487" transform="translate(-615.276 -165.304)" fill="#ffbca9" fill-rule="evenodd"/>
      <path id="パス_9672" data-name="パス 9672" d="M1010.419,208.641c.633.069,2.959.807,5.251,4.749,2.417,4.276,4.221,12.656,5.333,15.665,1.625,4.19,9.309,11.612,9.309,11.612s-3.694,4.406-6.442,3.141c-1.215-.615.718-3.61-2.438-8.45s-3.862-5.719-6.3-12.724-5.843-13.958-4.716-13.994" transform="translate(-850.169 -175.59)" fill="#ffbca9" fill-rule="evenodd"/>
      <path id="パス_9673" data-name="パス 9673" d="M31.01,481.988s-.637-3.774-1.324-6.078-1.765-5.343-2.451-7.059a18.1,18.1,0,0,0-3.382-5.244,57.645,57.645,0,0,1-4.951-7.254c-2.206-3.48-1.912-4.657-3.774-6.519s-2.892-1.666-4.706-2.6-3.383-.98-4.608-2.99S3.806,441.256,4,438.51a17.051,17.051,0,0,1,1.177-6.176,43.626,43.626,0,0,1,1.666-4.656c.589-1.078.932-1.47,1.814-.1a5.49,5.49,0,0,1,.785,4.215c-.2,1.912-.736,2.844-.588,4.559s-.05,2.7.931,3.529a3.932,3.932,0,0,0,2.744,1.176c1.372.147,1.519-.392.637-2.108S11.4,436.6,10.62,434.639s-1.079-2.451-.833-3.872a44.047,44.047,0,0,1,1.96-5.735c1.03-2.892,1.324-2.7,2.255-5.539s1.03-3.529,2.206-3.922,1.225.343,1.765,1.765a6.037,6.037,0,0,1,.392,4.215,35.354,35.354,0,0,0-1.715,5.441c-.245,1.617-.735,3.137,0,4.755s4.167,7.009,3.529,5.2-1.814-4.167-1.862-5.539.833-2.99,1.274-4.656.147-2.3,1.373-5.392a56.159,56.159,0,0,1,2.94-6.421c.686-1.226.883-2.5,1.716-3.039s1.52.049,2.059.882a3.332,3.332,0,0,1,.588,3.333,51.023,51.023,0,0,1-2.01,5.539,18.848,18.848,0,0,0-1.127,5.832c-.1,1.765-.147,3.726.833,5.294a28.8,28.8,0,0,0,3.282,3.839,19.1,19.1,0,0,0,2.545-2.4c1.213-1.391,2.071-2.574,3.462-4.409a38.1,38.1,0,0,1,3.552-4.5c2.013-2.16,3.018-2.811,5.06-4.853s2.456-3.107,3.907-4.113,1.509-1.894,2.811-.888,1.273,1.331.859,2.9-.917,2.515,0,2.722,1.657.5,1.095,1.776-1.391,2.456-2.338,4.35-1.835,2.6-2.19,5.475a50.923,50.923,0,0,0,.118,8.611,35.963,35.963,0,0,1-.651,8.05c-.533,2.634-1.983,10.032-2.308,12.577s-.725,3.293.128,6.542,1.421,5.887,2.355,8.363,4.019,9.013,4.019,9.013a2.4,2.4,0,0,1-1.908,1.341,25.688,25.688,0,0,1-5.887-.285,29.015,29.015,0,0,1-6.13-1.867c-2.314-1.056-6.731-3.034-6.731-3.034" transform="translate(-3.343 -346.471)" fill="#ffe4ce" fill-rule="evenodd"/>
      <path id="パス_9674" data-name="パス 9674" d="M803.7,512.114c0-.368,2.823,3.129,3.987,4.627,3.917,5.035,11.509,9.271,17.772,7.7a34.643,34.643,0,0,0,9.563-4.181c.291-.185,2.655-2.068,2.982-1.743.37.371-.108,1.665-.156,2.091a30.314,30.314,0,0,0-.116,6.389,7.8,7.8,0,0,0,1.975,4.491c.372.373,2.783,1.89,2.594,2.362-.424,1.06-4.118,1.648-4.917,1.819-5.249,1.125-12.195.273-17.153-1.626a30.742,30.742,0,0,1-10.352-6.649,21.193,21.193,0,0,1-5.019-7.405,21.577,21.577,0,0,1-1.161-7.88" transform="translate(-676.386 -430.967)" fill="#ffbca9" fill-rule="evenodd"/>
      <path id="パス_9675" data-name="パス 9675" d="M1388.509,448.11c1.255,2.546,1.509,5.207.507,5.322s-1.355-2.079-2.709-4.156-3.317-2.818-2.43-3.934,3.375.222,4.631,2.768" transform="translate(-1164.468 -374.46)" fill="#7d6667" fill-rule="evenodd"/>
      <path id="パス_9676" data-name="パス 9676" d="M1369.973,466.212c1.231,1.889,1.584,4.081.737,4.229s-1.14-1.544-2.437-3.121c-1.141-1.544-2.7-1.874-2.16-2.9.666-.838,2.784-.066,3.859,1.791" transform="translate(-1149.611 -390.568)" fill="#7d6667" fill-rule="evenodd"/>
      <path id="パス_9677" data-name="パス 9677" d="M384.373,273.011s-.962-16.082,3.974-21.971,11.044-6.99,15.006-2.77.872,11.593.872,11.593,7.81,2.081,9.922,6.048c2.868,5.389-1.078,11.023-8.33,13.093s-21.444-5.993-21.444-5.993" transform="translate(-323.42 -206.8)" fill="#fb5341" fill-rule="evenodd"/>
      <path id="パス_9678" data-name="パス 9678" d="M386.175,165.6a18.065,18.065,0,0,0-1.392-5.147,3.642,3.642,0,0,0-2.545-1.948,3.644,3.644,0,0,0,2.545-1.948,18.065,18.065,0,0,0,1.392-5.147,18.078,18.078,0,0,0,1.391,5.147,3.645,3.645,0,0,0,2.545,1.948,3.644,3.644,0,0,0-2.545,1.948,18.078,18.078,0,0,0-1.391,5.147" transform="translate(-321.687 -127.421)" fill="#fff" fill-rule="evenodd"/>
      <path id="パス_9679" data-name="パス 9679" d="M414.09,490.9a12.581,12.581,0,0,0-.969-3.584,2.538,2.538,0,0,0-1.772-1.357,2.536,2.536,0,0,0,1.772-1.356,12.589,12.589,0,0,0,.969-3.584,12.564,12.564,0,0,0,.969,3.584,2.534,2.534,0,0,0,1.771,1.356,2.536,2.536,0,0,0-1.771,1.357,12.556,12.556,0,0,0-.969,3.584" transform="translate(-346.186 -404.822)" fill="#fff" fill-rule="evenodd"/>
      <path id="パス_9680" data-name="パス 9680" d="M301.6,289.62a14.4,14.4,0,0,0-1.109-4.1,2.9,2.9,0,0,0-2.026-1.551,2.9,2.9,0,0,0,2.026-1.551,14.394,14.394,0,0,0,1.109-4.1,14.379,14.379,0,0,0,1.109,4.1,2.9,2.9,0,0,0,2.026,1.551,2.9,2.9,0,0,0-2.026,1.551,14.386,14.386,0,0,0-1.109,4.1" transform="translate(-251.185 -234.229)" fill="#fff" fill-rule="evenodd"/>
      <path id="パス_9681" data-name="パス 9681" d="M533.709,254.212a12.58,12.58,0,0,0-.969-3.584,2.535,2.535,0,0,0-1.772-1.356,2.538,2.538,0,0,0,1.772-1.356,12.579,12.579,0,0,0,.969-3.584,12.6,12.6,0,0,0,.969,3.584,2.54,2.54,0,0,0,1.773,1.356,2.537,2.537,0,0,0-1.773,1.356,12.6,12.6,0,0,0-.969,3.584" transform="translate(-446.856 -205.626)" fill="#fff" fill-rule="evenodd"/>
      <path id="パス_9682" data-name="パス 9682" d="M575.7,488.361a12.578,12.578,0,0,0-.969-3.584,2.538,2.538,0,0,0-1.772-1.357,2.536,2.536,0,0,0,1.772-1.356,12.577,12.577,0,0,0,.969-3.583,12.594,12.594,0,0,0,.969,3.583,2.538,2.538,0,0,0,1.772,1.356,2.539,2.539,0,0,0-1.772,1.357,12.6,12.6,0,0,0-.969,3.584" transform="translate(-482.197 -402.684)" fill="#fff" fill-rule="evenodd"/>
      <path id="パス_9683" data-name="パス 9683" d="M793.011,411.627a.706.706,0,0,1-.1-.007c-.228-.032-5.677-.86-12.9-7.5a23.728,23.728,0,0,1-7.15-11.509c-1.581-4.729-2.2-11.028-2.529-15.354a.724.724,0,0,1,1.444-.11c.322,4.249.928,10.429,2.462,15.019a22.157,22.157,0,0,0,6.75,10.886c6.856,6.3,12.072,7.123,12.124,7.131a.724.724,0,0,1-.1,1.44" transform="translate(-648.301 -316.842)"/>
      <path id="パス_9684" data-name="パス 9684" d="M920.939,351.759a.724.724,0,0,1-.293-1.386c.776-.345,2.8-1.558,2.858-3.013.013-.519-.233-.814-.745-1.378a5.033,5.033,0,0,1-1.566-3.83,14.357,14.357,0,0,1,1.2-4.929.724.724,0,1,1,1.357.5,13.7,13.7,0,0,0-1.112,4.409,3.626,3.626,0,0,0,1.191,2.872,3.266,3.266,0,0,1,1.121,2.4c-.1,2.666-3.573,4.226-3.721,4.291a.721.721,0,0,1-.291.062" transform="translate(-774.441 -283.406)"/>
      <path id="パス_9685" data-name="パス 9685" d="M635.6,81.44a.724.724,0,0,1-.7-.534c-.717-2.63-2.549-4.487-4.487-6.452-2.464-2.5-5.011-5.082-5.2-9.368-.29-6.507,2.9-11.953,5.712-16.758.422-.721.837-1.43,1.231-2.126a119.492,119.492,0,0,0,5.382-11.924,117.66,117.66,0,0,1,7.877-16.631A38.155,38.155,0,0,1,669.684.684c12.682-2.731,16.735,3.6,16.9,3.869a.724.724,0,0,1-1.231.762c-.148-.235-3.762-5.715-15.366-3.216a36.681,36.681,0,0,0-23.341,16.3,116.511,116.511,0,0,0-7.775,16.43,120.609,120.609,0,0,1-5.456,12.079c-.4.712-.821,1.426-1.247,2.154-2.712,4.632-5.786,9.882-5.515,15.962.167,3.73,2.411,6.005,4.787,8.415,1.985,2.012,4.036,4.092,4.853,7.088a.725.725,0,0,1-.7.915" transform="translate(-526.153 -0.001)"/>
      <path id="パス_9686" data-name="パス 9686" d="M842.268,272.308a.717.717,0,0,1-.406-.125,10.14,10.14,0,0,0-9.779-.629.724.724,0,0,1-.656-1.291c.237-.12,5.882-2.921,11.248.723a.724.724,0,0,1-.407,1.323" transform="translate(-699.387 -226.49)"/>
      <path id="パス_9687" data-name="パス 9687" d="M841.735,344.226a.721.721,0,0,1-.475-.177c-1.606-1.4-5.117-1.248-6.471-.415a.724.724,0,1,1-.759-1.234c1.778-1.092,6-1.341,8.18.556a.724.724,0,0,1-.475,1.27" transform="translate(-701.62 -287.448)"/>
      <path id="パス_9688" data-name="パス 9688" d="M884.489,475.419a13.8,13.8,0,0,1-8.891-3.074.724.724,0,1,1,.966-1.079c2.758,2.469,9.323,4.069,13.744,1.07a.724.724,0,1,1,.813,1.2,11.783,11.783,0,0,1-6.632,1.884" transform="translate(-736.69 -396.457)"/>
      <path id="パス_9689" data-name="パス 9689" d="M911.29,441.439a5.543,5.543,0,0,1-.74-.039.724.724,0,0,1,.2-1.433c.048.006,4.5.531,12.511-4.1a26.063,26.063,0,0,0,9.779-9.376c2.5-4.158,4.44-10.058,5.679-14.135a.724.724,0,1,1,1.386.421c-1.262,4.151-3.237,10.165-5.817,14.449a27.527,27.527,0,0,1-10.306,9.9c-6.692,3.867-11.046,4.313-12.7,4.313" transform="translate(-765.786 -346.605)"/>
      <path id="パス_9690" data-name="パス 9690" d="M985.563,287.866a.722.722,0,0,1-.459-.164,10.129,10.129,0,0,0-9.681-1.513.724.724,0,0,1-.533-1.346c6.031-2.389,10.93,1.572,11.136,1.742a.724.724,0,0,1-.462,1.281" transform="translate(-820.07 -239.078)"/>
      <path id="パス_9691" data-name="パス 9691" d="M996.962,360.663a.722.722,0,0,1-.5-.2c-1.089-1.057-4.451-2.188-6.376-1.02a.724.724,0,0,1-.752-1.237c2.547-1.546,6.583-.291,8.137,1.218a.724.724,0,0,1-.5,1.243" transform="translate(-832.315 -300.863)"/>
      <path id="パス_9692" data-name="パス 9692" d="M683.115,197.88a.724.724,0,0,1-.72-.655c-.766-8.033,6.018-12.576,9.278-14.76.392-.263.727-.487.982-.675,1.545-1.151,2.981-2.148,4.37-3.111,5.371-3.726,9.614-6.669,13.749-14.517,3.157-5.991,7.968-13.093,12.967-12.955,2.59.076,4.805,2.1,6.585,6.02a.724.724,0,1,1-1.318.6c-1.533-3.373-3.319-5.113-5.31-5.171-3.246-.093-7.514,4.344-11.643,12.183-4.3,8.161-8.671,11.193-14.2,15.031-1.379.956-2.8,1.946-4.333,3.085-.271.2-.625.437-1.039.715-3.027,2.028-9.325,6.246-8.642,13.42a.724.724,0,0,1-.652.789c-.023,0-.046,0-.069,0" transform="translate(-574.245 -127.253)"/>
      <path id="パス_9693" data-name="パス 9693" d="M1027.185,236.06a.739.739,0,0,1-.117-.009c-.384-.063-9.447-1.686-14.552-14.663-.742-1.9-1.332-4.013-1.9-6.056-1.71-6.121-3.324-11.9-8.743-13.507a.724.724,0,0,1,.411-1.388c6.187,1.831,7.986,8.275,9.727,14.506.561,2.008,1.141,4.085,1.856,5.917,4.806,12.217,13.352,13.748,13.438,13.762a.724.724,0,0,1-.116,1.438" transform="translate(-842.725 -168.66)"/>
      <path id="パス_9694" data-name="パス 9694" d="M948.412,79.26a.688.688,0,0,1-.135-.013.723.723,0,0,1-.577-.845,9.012,9.012,0,0,0-1.646-7.7c-1.924-2.3-5.193-3.614-8.984-3.614-.05,0-.105,0-.151,0a.724.724,0,0,1-.006-1.448c4.32-.033,8.024,1.469,10.252,4.132a10.4,10.4,0,0,1,1.958,8.9.724.724,0,0,1-.711.59" transform="translate(-787.89 -55.241)"/>
      <path id="パス_9695" data-name="パス 9695" d="M736.423,370.295a.779.779,0,0,1-.081,0,5.25,5.25,0,0,1-1.613-.535,10.77,10.77,0,0,1-5.384-5.932.724.724,0,0,1,1.358-.5,9.328,9.328,0,0,0,4.654,5.13,4.066,4.066,0,0,0,1.144.4.724.724,0,0,1-.079,1.444" transform="translate(-613.77 -305.368)"/>
      <path id="パス_9696" data-name="パス 9696" d="M759.221,345.51a.725.725,0,0,1-.679-.473,8.692,8.692,0,0,0-.6-1.238.724.724,0,1,1,1.246-.737,10.1,10.1,0,0,1,.709,1.473.724.724,0,0,1-.428.929.716.716,0,0,1-.251.045" transform="translate(-637.793 -288.419)"/>
      <path id="パス_9697" data-name="パス 9697" d="M1087.164,410.279a3.123,3.123,0,0,1-.342-.018.724.724,0,1,1,.158-1.44,4.037,4.037,0,0,0,1.223-.146,8.757,8.757,0,0,0,5.639-3.989.724.724,0,1,1,1.216.785,10.177,10.177,0,0,1-6.557,4.62,6.345,6.345,0,0,1-1.337.187" transform="translate(-914.113 -340.3)"/>
      <path id="パス_9698" data-name="パス 9698" d="M1089.365,252.17a.721.721,0,0,1-.515-.215c-4.4-4.454-5.027-9.09-5.751-14.458a51.282,51.282,0,0,0-3.969-15.363.724.724,0,0,1,1.322-.59,52.5,52.5,0,0,1,4.082,15.76c.718,5.321,1.284,9.524,5.346,13.633a.724.724,0,0,1-.515,1.233" transform="translate(-908.13 -186.087)"/>
      <path id="パス_9699" data-name="パス 9699" d="M1117.87,354.214a.724.724,0,0,1-.67-1c1.233-3.016,1.357-5.387.36-6.856a4.146,4.146,0,0,0-3.618-1.562.724.724,0,0,1-.014-1.448h.084a5.48,5.48,0,0,1,4.747,2.2c.894,1.317,1.582,3.813-.218,8.217a.725.725,0,0,1-.67.45" transform="translate(-936.864 -288.959)"/>
      <path id="パス_9700" data-name="パス 9700" d="M380.89,593.773a.724.724,0,0,1-.635-1.07c2.053-3.78,4.3-10.963,6.673-18.567,4.276-13.685,9.122-29.2,15.518-35.159,4.711-4.392,10.342-5.8,14.866-6.926,1.474-.369,2.867-.716,4.053-1.126,2.063-.712,4.2-1.378,6.274-2.022,5.117-1.592,10.408-3.238,15.088-5.758,6.071-3.271,3.948-15.751,3.855-16.281a.724.724,0,1,1,1.426-.251c.252,1.433,2.269,14.109-4.594,17.807-4.8,2.586-10.162,4.254-15.344,5.865-2.059.64-4.189,1.3-6.231,2.008-1.246.43-2.669.785-4.175,1.162-4.363,1.089-9.792,2.443-14.229,6.58-6.116,5.7-10.9,21.018-15.124,34.532-2.5,8.007-4.662,14.922-6.783,18.827a.725.725,0,0,1-.637.378" transform="translate(-319.943 -425.857)"/>
      <path id="パス_9701" data-name="パス 9701" d="M196.763,921.576a4.27,4.27,0,0,1-2.414-.729c-14.87-9.9-18.889-25.274-23.143-41.548l-.7-2.679c-2.071-7.854-11.37-48.908-11.372-52.726a.878.878,0,0,1,.442-.779c.663-.372,1.543.091,4.088,1.632a23.252,23.252,0,0,0,2.093,1.188c2.231.954,9.893,3.975,14.733,2.762a1.687,1.687,0,0,0,1.361-1.061c.46-1.46-1.051-4.538-3.759-7.659a.724.724,0,0,1,1.094-.949c1.187,1.368,4.986,6.062,4.047,9.043a3.056,3.056,0,0,1-2.39,2.031c-5.281,1.325-13.318-1.835-15.656-2.836a22.83,22.83,0,0,1-2.272-1.28c-.652-.394-1.614-.977-2.266-1.3.826,6.589,9.025,43.1,11.257,51.568l.7,2.682c4.183,16,8.133,31.11,22.544,40.709,2.7,1.8,6.9-1.979,8.4-3.979a77.58,77.58,0,0,0,7.4-12.819c2.294-5.086,4.7-10.937,7.246-17.131,6.139-14.933,12.487-30.374,17.266-34.532a.724.724,0,0,1,.95,1.093c-4.521,3.933-10.8,19.213-16.878,33.989-2.551,6.206-4.961,12.067-7.265,17.176a79.285,79.285,0,0,1-7.56,13.092c-1.165,1.555-4.62,5.046-7.942,5.046" transform="translate(-133.923 -689.074)"/>
      <path id="パス_9702" data-name="パス 9702" d="M303.883,881.827c-.027,0-.054,0-.081,0a.725.725,0,0,1-.64-.8c.783-7.07-2.563-13.341-5.8-19.406-.832-1.561-1.693-3.175-2.469-4.774-4.93-10.176-8.755-18.988-12.039-27.732-.621-1.655-1.115-3.379-1.593-5.047a37.168,37.168,0,0,0-3.106-8.3,20.538,20.538,0,0,0-3.136-4.1.724.724,0,0,1,1.019-1.029,21.82,21.82,0,0,1,3.374,4.407,38.263,38.263,0,0,1,3.242,8.619c.47,1.64.956,3.336,1.556,4.936,3.268,8.7,7.077,17.474,11.987,27.61.763,1.574,1.617,3.176,2.443,4.724,3.338,6.26,6.791,12.733,5.959,20.248a.724.724,0,0,1-.719.644" transform="translate(-231.274 -682.049)"/>
      <path id="パス_9703" data-name="パス 9703" d="M1064.778,711.853a.724.724,0,0,1-.724-.711c-.088-5.075-.5-10.3-.906-15.346-.309-3.868-.627-7.867-.8-11.785-.469-10.788-.41-21.787-.352-32.424.019-3.6.039-7.194.039-10.787,0-3.343.061-6.721.125-10.3.273-15.227.556-30.973-3.845-44.551-3.169-9.778-10.728-12.558-22.713-14.055-5.15-.644-16.226-4.029-19.733-9.289-1.974-2.961-1.757-5.787-1.526-8.778.075-.983.153-2,.153-3.044a.724.724,0,0,1,1.448,0c0,1.1-.081,2.145-.158,3.155-.22,2.854-.409,5.319,1.287,7.864,2.959,4.437,12.939,7.934,18.707,8.655,10.038,1.254,20.153,3.449,23.911,15.045,4.476,13.81,4.191,29.678,3.915,45.024-.063,3.57-.124,6.94-.124,10.27,0,3.6-.02,7.195-.039,10.795-.058,10.619-.118,21.6.351,32.353.169,3.891.487,7.878.794,11.733.4,5.071.822,10.316.911,15.436a.724.724,0,0,1-.711.736Z" transform="translate(-853.539 -462.926)"/>
      <path id="パス_9704" data-name="パス 9704" d="M1220.663,979.828a.723.723,0,0,1-.709-.583c-2.173-10.973-1.82-20.355-1.178-30.611a132.977,132.977,0,0,1,2.628-17.271c1.625-8.224,3.3-16.726,2.536-25.173-.4-4.344-1.163-8.742-1.907-13-.7-4.034-1.433-8.206-1.848-12.343l-.073-.719c-.342-3.307-.858-8.3.615-11.254a.724.724,0,1,1,1.3.648c-1.286,2.573-.8,7.318-.471,10.458l.074.724c.408,4.084,1.133,8.229,1.833,12.238.749,4.282,1.522,8.711,1.923,13.114.786,8.655-.914,17.262-2.557,25.585a131.74,131.74,0,0,0-2.6,17.081c-.635,10.153-.986,19.437,1.153,30.24a.723.723,0,0,1-.569.851.7.7,0,0,1-.141.014" transform="translate(-1025.294 -730.9)"/>
      <path id="パス_9705" data-name="パス 9705" d="M576.266,1224.711a.712.712,0,0,1-.285-.058.724.724,0,0,1-.38-.95c2.434-5.68,1.11-12.707-.059-18.907-.125-.661-.247-1.311-.363-1.948-2.061-11.338-7.208-36.558-8.5-42.515a.724.724,0,1,1,1.415-.307c1.3,5.962,6.449,31.211,8.513,42.563.115.634.237,1.28.361,1.938,1.207,6.4,2.575,13.661-.033,19.745a.723.723,0,0,1-.666.439" transform="translate(-476.894 -975.784)"/>
      <path id="パス_9706" data-name="パス 9706" d="M732.328,664.794c-.56,0-1.091-.513-1.8-1.263-.136-.144-.248-.267-.319-.326a26.794,26.794,0,0,0-5.891-3.4,155.754,155.754,0,0,0-19.783-7.1c-.433-.118-.856-.221-1.266-.32-2.416-.587-4.7-1.141-5.9-4.155a.724.724,0,0,1,1.344-.538c.929,2.321,2.6,2.726,4.9,3.286.424.1.86.209,1.306.331a157.525,157.525,0,0,1,20,7.176,28.733,28.733,0,0,1,6.2,3.591,5.8,5.8,0,0,1,.466.462,8.837,8.837,0,0,0,.777.756,10.657,10.657,0,0,0,1.451-1.22A10.421,10.421,0,0,1,735.2,660.9c2.455-1.534,16.443-6.612,19.1-7.548,1.647-.581,3.774-1.68,4.047-2.227a.724.724,0,1,1,1.3.648c-.739,1.477-4.693,2.886-4.861,2.945-4.094,1.445-16.673,6.074-18.81,7.41a10.118,10.118,0,0,0-1.164,1,6.383,6.383,0,0,1-2.245,1.636.955.955,0,0,1-.23.028" transform="translate(-586.851 -544.708)"/>
      <path id="パス_9707" data-name="パス 9707" d="M632.912,500.662a.72.72,0,0,1-.574-.283c-2.771-3.6,1.7-9.787,3.751-12.279,5.422-6.593,7.7-10.5,5.151-17.844a.724.724,0,1,1,1.368-.474c2.883,8.312-.117,12.813-5.4,19.238-1.017,1.236-5.975,7.549-3.722,10.477a.724.724,0,0,1-.574,1.165" transform="translate(-531.427 -394.953)"/>
      <path id="パス_9708" data-name="パス 9708" d="M1089.587,139.559a7.173,7.173,0,0,1-3.075-.661c-2.651-1.253-3.921-4.007-3.485-7.557.286-2.331,1.632-3.948,2.933-5.513.408-.491.83-1,1.208-1.516,3.02-4.143,3.12-8.47.315-13.617-2.682-4.918-7.842-9.232-13.8-11.538-1.822-.7-3.611-1.281-5.339-1.838-7.038-2.268-13.116-4.226-16.173-13.079a63.172,63.172,0,0,1-2.46-11.964c-.939-6.912-4.75-16.926-12.4-22.4a17.885,17.885,0,0,0-14.341-3.145.724.724,0,0,1-.277-1.421,19.284,19.284,0,0,1,15.461,3.389c8.021,5.743,12.01,16.186,12.988,23.383a62.007,62.007,0,0,0,2.394,11.687c2.82,8.169,8.3,9.936,15.248,12.174,1.748.563,3.557,1.146,5.417,1.866,6.272,2.426,11.712,6.985,14.552,12.2,3.1,5.7,2.972,10.515-.416,15.163-.405.556-.843,1.081-1.265,1.589-1.221,1.468-2.375,2.855-2.61,4.764-.36,2.932.588,5.088,2.667,6.071,2.5,1.183,5.951.333,8.193-2.022a.724.724,0,0,1,1.049,1,9.567,9.567,0,0,1-6.786,2.994" transform="translate(-860.195 -37.792)"/>
      <path id="パス_9709" data-name="パス 9709" d="M1430.828,625.092a.724.724,0,0,1-.1-1.442c4.432-.6,6.313-3.63,7.912-8.319a.724.724,0,0,1,1.37.467c-1.393,4.085-3.358,8.507-9.088,9.287a.782.782,0,0,1-.1.006" transform="translate(-1203.559 -517.442)"/>
      <path id="パス_9710" data-name="パス 9710" d="M1418.125,705.12a5.766,5.766,0,0,1-4.562-3.08,7.732,7.732,0,0,1-.445-7.765c1.552-2.735,4.759-4.445,7.86-6.1,4.125-2.2,8.021-4.275,8.187-8.47.187-4.713-2.041-11.419-6.536-14.563a25.388,25.388,0,0,0-2.961-1.7c-2.8-1.437-5.687-2.923-6.261-7.148a.724.724,0,0,1,1.435-.2c.473,3.477,2.8,4.672,5.488,6.056a26.45,26.45,0,0,1,3.129,1.8c4.916,3.438,7.354,10.71,7.152,15.807-.2,5.024-4.649,7.4-8.952,9.69-3.054,1.627-5.938,3.165-7.282,5.534a6.287,6.287,0,0,0,.418,6.292c.929,1.507,2.264,2.461,3.428,2.388,1.242-.062,2.065-1.231,2.537-2.2a.724.724,0,1,1,1.3.633c-1.165,2.394-2.692,2.96-3.767,3.014-.057,0-.115,0-.172,0" transform="translate(-1188.542 -551.644)"/>
      <path id="パス_9711" data-name="パス 9711" d="M1394.089,948.557a8.921,8.921,0,0,1-5.934-1.937.724.724,0,1,1,.977-1.069c2.281,2.088,7.428,2.1,10.2.021a3.512,3.512,0,0,0,1.007-4.805.724.724,0,0,1,1.3-.639,4.946,4.946,0,0,1-1.438,6.6,10.386,10.386,0,0,1-6.112,1.826" transform="translate(-1168.057 -790.861)"/>
      <path id="パス_9712" data-name="パス 9712" d="M1353.746,1001.978a8.787,8.787,0,0,1-7.865-5.215.724.724,0,0,1,1.373-.458,6.809,6.809,0,0,0,4.3,3.838,5.284,5.284,0,0,0,4.643-.293.724.724,0,1,1,.8,1.2,5.817,5.817,0,0,1-3.254.923" transform="translate(-1132.646 -838.062)"/>
      <path id="パス_9713" data-name="パス 9713" d="M149.463,776.253a.724.724,0,0,1-.7-.558,95.94,95.94,0,0,0-3.8-12.824.724.724,0,1,1,1.352-.519,97.306,97.306,0,0,1,3.861,13.012.724.724,0,0,1-.539.87.749.749,0,0,1-.166.019" transform="translate(-121.952 -641.196)"/>
      <path id="パス_9714" data-name="パス 9714" d="M23.452,545.987a.724.724,0,0,1-.675-.46,13.955,13.955,0,0,0-2.553-3.674c-.478-.556-.973-1.131-1.4-1.707-1.424-1.915-2.664-3.971-3.864-5.959-.637-1.055-1.295-2.146-1.968-3.195-.274-.427-.53-.9-.777-1.348a7.661,7.661,0,0,0-2.288-2.974,17.8,17.8,0,0,0-2.964-1.338c-2.137-.818-4.347-1.665-5.578-3.726-2.844-4.762-.6-11.117.5-13.628.049-.113.133-.426.215-.73.4-1.5.806-2.779,1.643-3.24a1.307,1.307,0,0,1,1.039-.106c1.683.524,2.146,2.745,2.238,4.517a13.208,13.208,0,0,1-.4,3.411c-.4,1.922-.742,3.582.545,5.391.287.4,1.475.65,2.112.783.194.04.373.077.525.114,2.368.573,5.032,1.309,6.676,2.791a.724.724,0,1,1-.97,1.075c-1.509-1.361-4.349-2.048-6.046-2.459-.139-.034-.3-.068-.479-.1-1-.209-2.381-.495-3-1.361-1.653-2.324-1.211-4.46-.783-6.525a11.932,11.932,0,0,0,.368-3.042c-.09-1.728-.536-2.94-1.171-3.191a7.262,7.262,0,0,0-.905,2.322,7.6,7.6,0,0,1-.286.932c-.787,1.8-3.154,8-.584,12.306.974,1.63,2.858,2.352,4.853,3.116a19.1,19.1,0,0,1,3.208,1.459,8.824,8.824,0,0,1,2.8,3.512c.246.45.479.876.725,1.26.684,1.065,1.347,2.165,1.989,3.229,1.181,1.958,2.4,3.983,3.786,5.842.4.535.854,1.065,1.337,1.627a14.972,14.972,0,0,1,2.8,4.091.724.724,0,0,1-.41.937.707.707,0,0,1-.264.05" transform="translate(0 -424.026)"/>
      <path id="パス_9715" data-name="パス 9715" d="M42.564,554.851a.761.761,0,0,1-.083,0,.724.724,0,0,1-.637-.8c.141-1.242-.928-2.99-1.872-4.533a16.826,16.826,0,0,1-1.469-2.739.724.724,0,1,1,1.36-.5,15.929,15.929,0,0,0,1.344,2.48c1.117,1.827,2.273,3.716,2.076,5.453a.724.724,0,0,1-.718.642" transform="translate(-32.366 -459.34)"/>
      <path id="パス_9716" data-name="パス 9716" d="M48.442,454.792a.729.729,0,0,1-.083,0c-1.277-.145-2.249-1.739-2.96-2.9-.1-.17-.2-.323-.278-.447-2.75-4.223-1.638-7.725-.461-11.433.332-1.046.676-2.128.953-3.274.162-.671-.293-3.482-1.139-4.121-.112-.084-.216-.138-.469,0-.473.268-.887,1.508-1.189,2.413a10.068,10.068,0,0,1-.641,1.63,15.475,15.475,0,0,0-1.11,2.743c-.116.348-.233.7-.358,1.05-.2.565-.4,1.134-.594,1.7a50.408,50.408,0,0,1-1.87,4.873.724.724,0,0,1-1.313-.61,49.346,49.346,0,0,0,1.814-4.734c.2-.575.4-1.149.6-1.721.122-.341.235-.681.348-1.018a16.809,16.809,0,0,1,1.221-2.994,9.412,9.412,0,0,0,.53-1.379c.418-1.252.892-2.672,1.849-3.214a1.784,1.784,0,0,1,2.054.1c1.455,1.1,1.933,4.55,1.674,5.617-.289,1.194-.64,2.3-.98,3.371-1.163,3.663-2.082,6.556.294,10.2.087.134.189.3.3.483.393.644,1.314,2.153,1.887,2.218a.724.724,0,0,1-.081,1.443" transform="translate(-31.023 -362.79)"/>
      <path id="パス_9717" data-name="パス 9717" d="M93.2,434.629a.724.724,0,0,1-.723-.7,9.347,9.347,0,0,0-.691-2.761,10.84,10.84,0,0,1-.8-3.324,8.423,8.423,0,0,1,.745-3.163,12.311,12.311,0,0,0,.532-1.625,31.435,31.435,0,0,1,2.964-8.949c.129-.235.324-.716.55-1.272,1.086-2.673,2.1-4.9,3.569-5.09a1.767,1.767,0,0,1,1.674.853c2.176,2.911.907,5.884-.212,8.506-.264.62-.514,1.205-.724,1.79-1.739,4.85-2.017,11.329,2.925,13.626a.724.724,0,1,1-.61,1.313c-5.827-2.708-5.623-10-3.678-15.427.224-.625.495-1.258.755-1.87,1.059-2.483,2.06-4.828.384-7.071-.164-.219-.278-.281-.33-.284-.745.1-2,3.184-2.412,4.2-.253.623-.453,1.115-.622,1.423a30.263,30.263,0,0,0-2.82,8.564,13.544,13.544,0,0,1-.591,1.824,7.282,7.282,0,0,0-.653,2.611,9.613,9.613,0,0,0,.714,2.88,10.534,10.534,0,0,1,.774,3.2.723.723,0,0,1-.7.745H93.2" transform="translate(-76.574 -343.142)"/>
      <path id="パス_9718" data-name="パス 9718" d="M155.439,452.925a.724.724,0,0,1-.41-1.321c2.595-1.778,4.575-4.522,6.489-7.176.323-.447.643-.891.964-1.327a57.316,57.316,0,0,1,6.081-6.651c.987-.971,2.006-1.976,2.953-2.977.229-.243.481-.535.751-.849,1.065-1.237,2.391-2.776,3.868-3.165a2.1,2.1,0,0,1,2.3.549c1.4,1.621.161,5.56-.141,6.268a.724.724,0,1,1-1.332-.569c.508-1.189,1.016-4.014.377-4.753-.061-.07-.223-.256-.835-.1-1.042.275-2.255,1.682-3.14,2.71-.286.332-.553.642-.8.9-.964,1.02-1.993,2.033-2.989,3.013a56.174,56.174,0,0,0-5.93,6.477c-.318.432-.636.872-.956,1.316-1.987,2.754-4.042,5.6-6.845,7.523a.721.721,0,0,1-.409.127" transform="translate(-130.206 -361.335)"/>
      <path id="パス_9719" data-name="パス 9719" d="M204.742,533.765a.724.724,0,0,1-.64-.384c-5.241-9.862-6.934-19.648-6.724-21.88a90.15,90.15,0,0,1,1.586-9.022,82.131,82.131,0,0,0,1.667-9.81,37.1,37.1,0,0,0-.141-5.333,31.432,31.432,0,0,1-.018-6.688,22.847,22.847,0,0,1,3.663-8.794c1.1-1.72,1.027-2.421.951-2.5a2.688,2.688,0,0,0-1.771.164,9.92,9.92,0,0,0-5.489,4.126,17.76,17.76,0,0,0-1.788,5.422,22.39,22.39,0,0,1-1.456,4.887,17.412,17.412,0,0,1-2.774,3.9,20.5,20.5,0,0,0-2.121,2.755,15.41,15.41,0,0,0-1.9,11.113.724.724,0,1,1-1.42.281,16.837,16.837,0,0,1,2.076-12.141,21.848,21.848,0,0,1,2.266-2.954,16.09,16.09,0,0,0,2.56-3.568,20.974,20.974,0,0,0,1.351-4.576,19.118,19.118,0,0,1,1.954-5.849,11.22,11.22,0,0,1,6.284-4.768c.707-.232,2.443-.68,3.284.224.772.828.514,2.224-.789,4.268a21.766,21.766,0,0,0-3.45,8.214,29.871,29.871,0,0,0,.027,6.381,38.254,38.254,0,0,1,.142,5.543,83.01,83.01,0,0,1-1.694,10,89.22,89.22,0,0,0-1.562,8.863c-.192,2.04,1.536,11.609,6.561,21.064a.724.724,0,0,1-.3.979.715.715,0,0,1-.339.085" transform="translate(-156.557 -393.713)"/>
      <path id="パス_9720" data-name="パス 9720" d="M399.233,276.221c-7.685,0-18.574-6.129-19.094-6.425a.724.724,0,0,1-.365-.586c-.04-.668-.921-16.439,4.142-22.479,2.933-3.5,6.368-5.477,9.673-5.57A8.333,8.333,0,0,1,400,243.929c3.5,3.733,1.992,9.542,1.291,11.613,2.079.651,7.762,2.7,9.614,6.183a7.981,7.981,0,0,1,.375,7.079c-1.364,3.211-4.7,5.781-9.145,7.051a10.629,10.629,0,0,1-2.907.365M381.2,268.728c2.2,1.2,14.273,7.524,20.542,5.735,4.025-1.149,7.017-3.418,8.21-6.225a6.578,6.578,0,0,0-.32-5.832c-1.942-3.646-9.395-5.668-9.47-5.688a.725.725,0,0,1-.482-.979c.029-.07,2.858-7-.732-10.819a6.862,6.862,0,0,0-5.319-2.313c-2.886.081-5.942,1.876-8.6,5.053-4.275,5.1-3.928,18.583-3.825,21.068" transform="translate(-319.544 -202.955)"/>
      <path id="パス_9721" data-name="パス 9721" d="M168.036,434.784a.724.724,0,0,1-.364-1.35l33.387-19.345a.724.724,0,1,1,.726,1.253L168.4,434.686a.721.721,0,0,1-.362.1" transform="translate(-140.807 -348.41)"/>
    </g>
  </g>
</svg>
