<svg xmlns="http://www.w3.org/2000/svg" width="160.395" height="221.256" viewBox="0 0 160.395 221.256">
  <g id="rogo" transform="translate(0 0.004)">
    <path id="パス_802" data-name="パス 802" d="M102.594,153.572c-8.612-.393-35.18-1.011-49.8-.432-15.989.664-32.526,2.253-45.058,14.477-10.541,10.317-10.263,27.394.517,38.391,6.536,6.659,14.662,10.1,23.166,9.731h9.005v9.005c-.37,8.512,3.071,16.63,9.731,23.166,11,10.78,28.073,11.058,38.391.517,12.223-12.532,13.813-29.069,14.477-45.058C103.6,188.753,102.987,162.184,102.594,153.572Z" transform="translate(0 -34.913)" fill="#fff"/>
    <path id="パス_803" data-name="パス 803" d="M165.32,54.973c-6.991-7.123-15.626-10.881-24.709-10.688l.015-.015H130.093V33.737l-.015.015c.193-9.075-3.565-17.718-10.688-24.709C107.337-2.771,88.624-3.072,77.319,8.48c-13.4,13.728-15.14,31.855-15.866,49.379-.633,16.012.039,45.135.471,54.573,9.438.432,38.553,1.1,54.573.471,17.525-.725,35.651-2.469,49.379-15.866,11.552-11.3,11.251-30.018-.563-42.071Z" transform="translate(-13.972 0)" fill="#fff"/>
    <path id="パス_804" data-name="パス 804" d="M42.507,55.908h-3.5V53.184h4.854a.412.412,0,0,0,.409-.409V51.039a.412.412,0,0,0-.409-.409H34.729a.412.412,0,0,0-.409.409v11.59a.412.412,0,0,0,.409.409H38.6a.412.412,0,0,0,.409-.409V58.655h3.5a.412.412,0,0,0,.409-.409V56.309a.412.412,0,0,0-.409-.409Z" transform="translate(-7.836 -11.561)" fill="#58a3c4"/>
    <path id="パス_805" data-name="パス 805" d="M39.562,81.937c0,.37-.015.695-.031.957a3.067,3.067,0,0,1-.162.795,1.407,1.407,0,0,1-.486.679,1.347,1.347,0,0,1-.81.247,1.3,1.3,0,0,1-1.2-.687,3.471,3.471,0,0,1-.239-1.5V77.037a.412.412,0,0,0-.409-.409H32.339a.412.412,0,0,0-.409.409V82.06a9.142,9.142,0,0,0,.756,4.167,5.393,5.393,0,0,0,2.23,2.207,6.531,6.531,0,0,0,6.428-.062,6.077,6.077,0,0,0,1.289-1.011,5.311,5.311,0,0,0,.9-1.3,6.542,6.542,0,0,0,.54-1.659,10.949,10.949,0,0,0,.185-2.1V77.029a.412.412,0,0,0-.409-.409H39.963a.412.412,0,0,0-.409.409v4.908Z" transform="translate(-7.291 -17.495)" fill="#58a3c4"/>
    <path id="パス_806" data-name="パス 806" d="M40.9,114.051h4.337a.416.416,0,0,0,.409-.463,9.613,9.613,0,0,0-.756-2.7,6.586,6.586,0,0,0-1.96-2.492l-.741-.571.741-.571a5.681,5.681,0,0,0,1.837-2.423,9.159,9.159,0,0,0,.571-2.747.407.407,0,0,0-.409-.432H40.914a.409.409,0,0,0-.4.37,6.748,6.748,0,0,1-.185,1.026,5.072,5.072,0,0,1-.741,1.651,3.6,3.6,0,0,1-1.25,1.119,4.152,4.152,0,0,1-1.62.455l-.764.054v-4.267a.412.412,0,0,0-.409-.409H31.669a.412.412,0,0,0-.409.409V113.65a.412.412,0,0,0,.409.409h3.874a.412.412,0,0,0,.409-.409v-4.669l.741.023c1.528.054,3.372.941,3.82,4.684a.4.4,0,0,0,.4.363Z" transform="translate(-7.138 -23.211)" fill="#58a3c4"/>
    <path id="パス_807" data-name="パス 807" d="M39.562,133.177c0,.37-.015.695-.031.957a3.068,3.068,0,0,1-.162.795,1.407,1.407,0,0,1-.486.679,1.346,1.346,0,0,1-.81.247,1.3,1.3,0,0,1-1.2-.687,3.47,3.47,0,0,1-.239-1.5v-5.394a.412.412,0,0,0-.409-.409H32.339a.412.412,0,0,0-.409.409V133.3a9.142,9.142,0,0,0,.756,4.167,5.393,5.393,0,0,0,2.23,2.207,6.531,6.531,0,0,0,6.428-.062,6.075,6.075,0,0,0,1.289-1.011,5.31,5.31,0,0,0,.9-1.3,6.542,6.542,0,0,0,.54-1.659,10.95,10.95,0,0,0,.185-2.1v-5.278a.412.412,0,0,0-.409-.409H39.963a.412.412,0,0,0-.409.409v4.908Z" transform="translate(-7.291 -29.195)" fill="#58a3c4"/>
    <path id="パス_808" data-name="パス 808" d="M156.336,167.068h4.337a.416.416,0,0,0,.409-.463,9.612,9.612,0,0,0-.756-2.7,6.586,6.586,0,0,0-1.96-2.492l-.741-.571.741-.571a5.681,5.681,0,0,0,1.837-2.423,9.159,9.159,0,0,0,.571-2.747.407.407,0,0,0-.409-.432h-4.013a.409.409,0,0,0-.4.37,6.752,6.752,0,0,1-.185,1.026,5.07,5.07,0,0,1-.741,1.651,3.6,3.6,0,0,1-1.25,1.119,4.113,4.113,0,0,1-1.62.455l-.772.054v-4.275a.412.412,0,0,0-.409-.409H147.1a.412.412,0,0,0-.409.409V166.66a.412.412,0,0,0,.409.409h3.874a.412.412,0,0,0,.409-.409v-4.669l.741.031c1.528.054,3.372.941,3.82,4.684a.4.4,0,0,0,.4.363Z" transform="translate(-33.494 -35.314)" fill="#e95704"/>
    <path id="パス_809" data-name="パス 809" d="M158.99,190.854a6.526,6.526,0,0,0,.841-3.241,6.4,6.4,0,0,0-.841-3.218,6.249,6.249,0,0,0-2.307-2.33,6.5,6.5,0,0,0-6.49.008,6.213,6.213,0,0,0-2.307,2.338,6.491,6.491,0,0,0-.826,3.2,6.62,6.62,0,0,0,.841,3.249,6.251,6.251,0,0,0,2.3,2.338,6.545,6.545,0,0,0,6.474,0,6.193,6.193,0,0,0,2.3-2.338Zm-4.044-1.659a2.124,2.124,0,0,1-2.986.008,2.129,2.129,0,0,1-.6-1.559,2.106,2.106,0,0,1,.594-1.543,1.992,1.992,0,0,1,1.482-.625,2.167,2.167,0,0,1,.833.162,1.986,1.986,0,0,1,1.111,1.158,2.369,2.369,0,0,1,.154.849,2.19,2.19,0,0,1-.594,1.543Z" transform="translate(-33.578 -41.374)" fill="#e95704"/>
    <rect id="長方形_365" data-name="長方形 365" width="4.684" height="12.401" rx="0.53" transform="translate(117.549 160.044)" fill="#e95704"/>
    <path id="パス_810" data-name="パス 810" d="M130.08,33.752c.193-9.075-3.565-17.718-10.688-24.709C107.338-2.771,88.625-3.072,77.32,8.48c-12.779,13.1-14.955,30.188-15.758,46.948L75.638,41.376a2.873,2.873,0,0,1,1.7-.957,2.6,2.6,0,0,1,2.114.957,2.371,2.371,0,0,1,0,3.812L61.3,63.315c-.332,16.475.239,40.667.633,49.109l55.236-55.236L105.162,45.18c-.8-.8-1.906-1.906,0-3.812s3.009-.8,3.812,0l12.007,12.007,5.71-5.71,3.4-3.4V33.729l-.015.015ZM99.676,25.7c-.116.131-.239.255-.363.378l-7.269,7.277a.251.251,0,0,0-.077.177.224.224,0,0,0,.077.177l4.831,4.831s.031.039.046.054a2.764,2.764,0,0,1,.293.355.988.988,0,0,1,.085.154l.062.108a1.619,1.619,0,0,1,.1.2c.031.069.046.139.069.2l.039.123a.753.753,0,0,1,.046.177,2.476,2.476,0,0,1,.046.486V55.583a2.416,2.416,0,0,1-.046.463,1.192,1.192,0,0,1-.054.177l-.039.123a.883.883,0,0,1-.069.2,1.626,1.626,0,0,1-.1.2.458.458,0,0,0-.031.062,1.866,1.866,0,0,1-.116.208,2.364,2.364,0,0,1-.309.378l-9.669,9.677a2.85,2.85,0,0,1-1.667.818c-.085.008-.177.015-.278.015a2.977,2.977,0,0,1-2.778-2.878,2.841,2.841,0,0,1,.9-1.767L92.268,54.4V41.561l-6.127-6.127a2.308,2.308,0,0,1-.586-1.906,2.309,2.309,0,0,1,.586-1.906l5.008-5.008-.031-.085H83.509c-1.258,0-2.693-.309-2.693-2.693s1.443-2.693,2.693-2.693H97.747a2.39,2.39,0,0,1,2.523,1.752,2.444,2.444,0,0,1-.586,2.809Z" transform="translate(-13.974 0)" fill="#58a3c4"/>
    <path id="パス_811" data-name="パス 811" d="M183.59,70.08a39.159,39.159,0,0,0-4.468-3.92l-37.835,37.85a.251.251,0,0,0-.077.177.224.224,0,0,0,.077.177l20.287,20.279a50.448,50.448,0,0,0,22.579-12.493C195.705,100.847,195.4,82.134,183.59,70.08Z" transform="translate(-32.242 -15.107)" fill="#e95704"/>
    <path id="パス_812" data-name="パス 812" d="M117.34,104.087a4.022,4.022,0,0,1,0-3.812l39.077-39.093a31.446,31.446,0,0,0-15.588-3.8l.015-.015H130.312l-3.4,3.4-5.71,5.71,6.32,6.32c.887.887,1.69,2.122,0,3.812a2.588,2.588,0,0,1-1.852.841,2.916,2.916,0,0,1-1.96-.841h0l-6.32-6.32L62.15,125.532c4.375.2,12.972.455,22.533.6V115.755c0-1.266,0-2.693,2.693-2.693s2.693,1.435,2.693,2.693V126.2c9.546.1,19.423.085,26.646-.2a148.046,148.046,0,0,0,20.58-1.968l-19.963-19.955Z" transform="translate(-14.191 -13.1)" fill="#e95704"/>
    <path id="パス_813" data-name="パス 813" d="M82.427,153.036v10.618c0,1.266,0,2.693-2.693,2.693s-2.693-1.435-2.693-2.693V152.966c-2.554-.031-5.139-.046-7.678-.046v15.534c0,1.266,0,2.693-2.693,2.693s-2.693-1.435-2.693-2.693V152.928c-4.09.023-7.917.093-11.158.224-15.989.664-32.526,2.253-45.058,14.477-10.541,10.317-10.263,27.394.517,38.391a34.275,34.275,0,0,0,8.851,6.567l32.156-32.148a3.182,3.182,0,0,1,1.582-1.08c.671-.116,1.381.231,2.23,1.08s1.188,1.559,1.08,2.23a3.02,3.02,0,0,1-1.034,1.536L22.607,214.731a28.562,28.562,0,0,0,8.836,1.026h9.005l3.071-3.071.177-.177,23.652-23.652L57.332,178.84c-.988-.988-1.675-2.138,0-3.812a2.633,2.633,0,0,1,2.168-1,2.986,2.986,0,0,1,1.644,1L71.16,185.045l5.88-5.88v-2.23c0-1.265,0-2.693,2.693-2.693a3.59,3.59,0,0,1,1.844.386l9.808-9.808-3.635-3.635c-1-1-1.759-2.053,0-3.812s2.809-1,3.812,0l3.635,3.635,7.408-7.408c-3.928-.185-11.606-.409-20.171-.54Zm-23.783,8.133-7.879,7.879a2.872,2.872,0,0,1-1.96.818,2.572,2.572,0,0,1-1.852-.818,2.371,2.371,0,0,1,0-3.812l7.879-7.879a2.989,2.989,0,0,1,1.636-1,2.629,2.629,0,0,1,2.176,1C60.318,159.032,59.632,160.181,58.644,161.169Z" transform="translate(-0.005 -34.917)" fill="#e95704"/>
    <path id="パス_814" data-name="パス 814" d="M120.494,165.432a2.415,2.415,0,0,1,0,3.812,2.528,2.528,0,0,1-1.829.8,2.968,2.968,0,0,1-1.983-.8L112.438,165l-9.808,9.808c.849.509.857,1.451.857,2.307v5.417c0,1.266,0,2.693-2.693,2.693S98.1,183.79,98.1,182.532v-3.187l-5.88,5.88,7.724,7.724h24.377c.108-14.453-.34-32.387-.648-39.17l-7.408,7.408,4.244,4.244Zm-5.8,17.1c0,1.266,0,2.693-2.693,2.693s-2.693-1.435-2.693-2.693v-5.417c0-1.258.309-2.693,2.693-2.693s2.693,1.443,2.693,2.693Z" transform="translate(-21.057 -35.113)" fill="#58a3c4"/>
    <path id="パス_815" data-name="パス 815" d="M89.71,208.769a2.679,2.679,0,0,1-1.906-.787l-8.512-8.512L55.641,223.122l-.177.177-3.071,3.071v9.005c-.37,8.512,3.071,16.63,9.731,23.166,11,10.78,28.073,11.058,38.391.517C112.737,246.527,114.326,229.99,114.99,214c.062-1.613.108-3.372.147-5.232Z" transform="translate(-11.956 -45.546)" fill="#58a3c4"/>
  </g>
</svg>
