<svg xmlns="http://www.w3.org/2000/svg" xmlns:xlink="http://www.w3.org/1999/xlink" width="177" height="177" viewBox="0 0 177 177">
  <defs>
    <clipPath id="clip-path">
      <circle id="楕円形_12" data-name="楕円形 12" cx="88.5" cy="88.5" r="88.5" transform="translate(938 6425)" fill="none" stroke="#707070" stroke-width="1"/>
    </clipPath>
    <clipPath id="clip-path-2">
      <rect id="長方形_1067" data-name="長方形 1067" width="252.064" height="336.085" fill="none"/>
    </clipPath>
  </defs>
  <g id="マスクグループ_55" data-name="マスクグループ 55" transform="translate(-938 -6425)" clip-path="url(#clip-path)">
    <g id="グループ_4740" data-name="グループ 4740" transform="translate(914.916 6353.106)">
      <rect id="長方形_1066" data-name="長方形 1066" width="252.064" height="336.085" fill="#8eb7c5"/>
      <g id="グループ_4739" data-name="グループ 4739">
        <g id="グループ_4738" data-name="グループ 4738" clip-path="url(#clip-path-2)">
          <path id="パス_9968" data-name="パス 9968" d="M314.51,1197.369c-3.362-27.736-4.558-77.913-7.565-88.672-3.992-14.289-10.648-18.624-32.779-22.063-13.363-2.076-23.37-4.669-23.37-4.669H199.758s-10.007,2.593-23.37,4.669c-22.132,3.439-28.787,7.775-32.779,22.063-3.007,10.759-4.2,60.937-7.565,88.672,12.378,9.281,151.579,9.281,178.466,0" transform="translate(-111.059 -883.258)" fill="#e9faff" fill-rule="evenodd"/>
          <path id="パス_9969" data-name="パス 9969" d="M455.064,1040.911s8.475,31.636,30.193,32.686,31.432-32.686,31.432-32.686c-6.679-.352-11.465-3.268-12.926-10.691l-36.159-.032c-.691,7.1-5.876,9.659-12.541,10.723" transform="translate(-371.49 -840.991)" fill="#ffe4ce" fill-rule="evenodd"/>
          <path id="パス_9970" data-name="パス 9970" d="M299.452,1400.046a.98.98,0,0,1-.98-.977c-.076-21.419-.99-70-3.215-74.817a.98.98,0,0,1,1.78-.822c3.018,6.538,3.394,74.944,3.4,75.632a.981.981,0,0,1-.977.983Z" transform="translate(-240.958 -1079.914)" fill="#571519"/>
          <path id="パス_9971" data-name="パス 9971" d="M920.978,1400.046h0a.981.981,0,0,1-.977-.983c0-.688.378-69.093,3.4-75.632a.98.98,0,0,1,1.78.822c-2.225,4.823-3.14,53.4-3.215,74.817a.98.98,0,0,1-.98.977" transform="translate(-751.038 -1079.914)" fill="#571519"/>
          <path id="パス_9972" data-name="パス 9972" d="M443.109,517.016c5.1-4.444,14.32-8.888,19.258-8.888,4.609,0,7.077-.987,11.357,2.469,2.8,2.3,8.559,1.317,13.662,3.95a21.946,21.946,0,0,1,9.382,8.559,35.4,35.4,0,0,1,3.292,8.23s1.481,11.028.659,15.8-3.786,14.814-3.786,14.814-6.09,6.255-10.864,5.1c-8.065-1.975-17.118-12.016-21.891-12.016-5.761,0-20.081,13.168-27.652,9.547-2.14-.987-5.267-13.5-5.6-20.245-.165-6.913.659-9.547,1.975-13.332,1.646-3.786,5.761-10.369,10.205-13.991" transform="translate(-351.77 -414.702)" fill="#926359" fill-rule="evenodd"/>
          <path id="パス_9973" data-name="パス 9973" d="M451.959,724.48c2.834-5.576.685-16.173.685-16.173a40.771,40.771,0,0,1-3.95-7.242,88.553,88.553,0,0,1-3.292-10.7,10.032,10.032,0,0,1-8.066-7.572c-1.975-7.407,4.115-8.394,4.115-8.394l5.1,2.963a12.049,12.049,0,0,1-.987-4.444,20.946,20.946,0,0,1,1.317-5.761l3.292-5.925a56.614,56.614,0,0,0,3.786-5.1c1.975-3.128,3.292-7.407,8.724-8.065,2.3-.329,7.572-1.317,10.7-.164,4.609,1.646,4.938,6.749,8.23,9.547,3.457,2.8,9.711,3.127,9.711,3.456,0,1.81,2.963,3.127,3.786,7.242.658,3.127-.823,9.547-.494,9.711,1.81.823,5.926-3.621,5.926-3.621s6.255-.329,4.609,8.724c-.823,4.115-8.23,7.572-8.23,7.572a50.677,50.677,0,0,1-2.8,9.711,55.074,55.074,0,0,1-5.1,9.217s-1.317,12.18,1.152,15.308c1.975,2.469-41.011,2.676-38.213-.287" transform="translate(-356.696 -528.467)" fill="#ffe4ce" fill-rule="evenodd"/>
          <path id="パス_9974" data-name="パス 9974" d="M503.19,887.859h-.029c-.241-.007-6-.243-14.213-6.28a24.709,24.709,0,0,1-8.712-11.1c-2.166-4.694-3.517-11.107-4.345-15.52a.98.98,0,1,1,1.927-.361c.808,4.311,2.123,10.564,4.206,15.077A22.672,22.672,0,0,0,490.1,880c7.734,5.682,13.061,5.9,13.114,5.9a.98.98,0,0,1-.028,1.96" transform="translate(-388.478 -696.999)" fill="#571519"/>
          <path id="パス_9975" data-name="パス 9975" d="M583.516,923.182h-9.532s2.472,7.716,8.775,8.031c6.824,0,9.741-8.031,9.741-8.031Z" transform="translate(-468.57 -753.637)" fill="#fff" fill-rule="evenodd"/>
          <path id="パス_9976" data-name="パス 9976" d="M601.676,818.829a.974.974,0,0,1-.49-.132c-.374-.217-3.651-2.2-3.449-5.033a3.609,3.609,0,0,1,1.5-2.5,3.486,3.486,0,0,0,1.465-2.63,13.91,13.91,0,0,0-.634-4.6.98.98,0,1,1,1.9-.475,15.026,15.026,0,0,1,.678,5.314,5.371,5.371,0,0,1-2.114,3.863c-.557.491-.805.728-.843,1.182-.1,1.366,1.757,2.764,2.479,3.186a.981.981,0,0,1-.494,1.828" transform="translate(-487.953 -655.293)" fill="#571519"/>
          <path id="パス_9977" data-name="パス 9977" d="M540.362,807.923c0-1.81.988-3.292,2.3-3.456,1.317,0,2.469,1.317,2.469,3.292,0,1.811-.988,3.292-2.3,3.457-1.152,0-2.3-1.482-2.469-3.292" transform="translate(-441.123 -656.724)" fill="#571519" fill-rule="evenodd"/>
          <path id="パス_9978" data-name="パス 9978" d="M442.736,807.033a.994.994,0,0,1-.2-.02,11.34,11.34,0,0,1-9-9.015c-.336-1.847-.613-4.525.844-6.453a6.492,6.492,0,0,1,4.8-2.27.98.98,0,1,1,.189,1.951,4.606,4.606,0,0,0-3.425,1.5c-.755,1-.907,2.562-.479,4.92a9.394,9.394,0,0,0,7.464,7.445.98.98,0,0,1-.2,1.94" transform="translate(-353.701 -644.319)" fill="#571519"/>
          <path id="パス_9979" data-name="パス 9979" d="M520.775,753.187a.98.98,0,0,1-.54-1.8c.235-.155,5.821-3.739,11.86-.541a.98.98,0,1,1-.917,1.732c-5-2.645-9.673.321-9.87.449a.974.974,0,0,1-.533.158" transform="translate(-424.331 -611.872)" fill="#571519"/>
          <path id="パス_9980" data-name="パス 9980" d="M760.962,804.1a.98.98,0,0,1-.2-1.94,9.393,9.393,0,0,0,7.464-7.445c.431-2.479.053-4.577-1.011-5.6-.881-.85-2.307-1.075-4.242-.668a.98.98,0,1,1-.4-1.918c2.609-.549,4.63-.154,6.006,1.176,2.21,2.133,1.841,5.856,1.58,7.358a11.342,11.342,0,0,1-9,9.022,1,1,0,0,1-.2.021" transform="translate(-620.409 -641.882)" fill="#571519"/>
          <path id="パス_9981" data-name="パス 9981" d="M460.741,823.681a.98.98,0,0,1-.858-.5,4.528,4.528,0,0,0-1.392-1.574.98.98,0,1,1,.876-1.754,6.44,6.44,0,0,1,2.229,2.375.98.98,0,0,1-.855,1.457" transform="translate(-373.845 -669.196)" fill="#571519"/>
          <path id="パス_9982" data-name="パス 9982" d="M774.4,820.99a.98.98,0,0,1-.855-1.457,6.442,6.442,0,0,1,2.228-2.375.98.98,0,1,1,.877,1.753,4.608,4.608,0,0,0-1.393,1.575.979.979,0,0,1-.858.5" transform="translate(-631.383 -666.999)" fill="#571519"/>
          <path id="パス_9983" data-name="パス 9983" d="M526.147,805.7a.98.98,0,0,1-.6-1.754c1.755-1.364,6.194-2.117,8.732-.361a.98.98,0,0,1-1.116,1.612c-1.7-1.177-5.2-.647-6.412.3a.974.974,0,0,1-.6.206" transform="translate(-428.718 -655.167)" fill="#571519"/>
          <path id="パス_9984" data-name="パス 9984" d="M621.186,887.86h-.071a.98.98,0,0,1,.061-1.959c.078-.01,4.641,0,12.231-5.571a26.679,26.679,0,0,0,8.9-10.631c2.09-4.529,3.406-10.784,4.214-15.1a.98.98,0,1,1,1.927.361c-.827,4.415-2.179,10.828-4.352,15.538a28.642,28.642,0,0,1-9.531,11.41c-7.815,5.741-12.714,5.949-13.378,5.949" transform="translate(-506.273 -697)" fill="#571519"/>
          <path id="パス_9985" data-name="パス 9985" d="M679.574,807.923c0-1.81-.988-3.292-2.3-3.456-1.317,0-2.469,1.317-2.469,3.292,0,1.811.987,3.292,2.3,3.457,1.152,0,2.3-1.482,2.469-3.292" transform="translate(-550.872 -656.724)" fill="#571519" fill-rule="evenodd"/>
          <path id="パス_9986" data-name="パス 9986" d="M659.794,753.191a.977.977,0,0,1-.537-.161c-.195-.126-4.868-3.092-9.867-.447a.98.98,0,1,1-.917-1.732c6.038-3.2,11.625.387,11.859.541a.98.98,0,0,1-.539,1.8" transform="translate(-528.953 -611.874)" fill="#571519"/>
          <path id="パス_9987" data-name="パス 9987" d="M672.635,805.362a.974.974,0,0,1-.6-.207c-1.156-.9-4.644-1.656-6.372-.326a.98.98,0,0,1-1.2-1.554c2.522-1.94,6.95-1.084,8.771.332a.98.98,0,0,1-.6,1.754" transform="translate(-542.122 -654.828)" fill="#571519"/>
          <path id="パス_9988" data-name="パス 9988" d="M131.687,1109.834a.963.963,0,0,1-.119-.007.98.98,0,0,1-.855-1.091c1.526-12.59,2.587-29.526,3.613-45.905,1.242-19.827,2.315-36.949,3.981-42.913,4.073-14.575,10.975-19.256,33.573-22.768,13.162-2.045,23.175-4.624,23.274-4.65,3.859-1.146,5.871-3.757,6.695-8.72a35.23,35.23,0,0,0,.533-9.174.98.98,0,0,1,1.952-.179,36.434,36.434,0,0,1-.559,9.719c-.944,5.689-3.443,8.862-8.1,10.243-.133.035-10.241,2.639-23.5,4.7-21.861,3.4-28.138,7.589-31.985,21.358-1.611,5.766-2.729,23.613-3.912,42.508-1.028,16.408-2.091,33.373-3.623,46.019a.98.98,0,0,1-.972.862" transform="translate(-106.701 -794.743)" fill="#571519"/>
          <path id="パス_9989" data-name="パス 9989" d="M786.719,1115.257a.98.98,0,0,1-.972-.862c-1.533-12.647-2.6-29.612-3.623-46.019-1.183-18.9-2.3-36.743-3.912-42.509-3.847-13.769-10.125-17.961-31.986-21.358-13.258-2.059-23.365-4.663-23.466-4.689a.981.981,0,0,1-.13-.044c-3.529-1.469-6.881-3.63-7.512-9.436a32.5,32.5,0,0,1-.5-9.292.98.98,0,0,1,1.949.217,31.046,31.046,0,0,0,.478,8.715c.007.033.013.068.016.1.532,5.033,3.374,6.651,6.257,7.856.892.228,10.613,2.676,23.209,4.633,22.6,3.512,29.5,8.193,33.573,22.768,1.666,5.964,2.739,23.087,3.981,42.913,1.026,16.379,2.087,33.315,3.613,45.905a.98.98,0,0,1-.974,1.1" transform="translate(-583.269 -800.166)" fill="#571519"/>
          <path id="パス_9990" data-name="パス 9990" d="M724.452,582.457a.982.982,0,0,1-.953-1.213c1.744-7.137,3.916-16.018,2.291-25.443-1.368-8.205-7.256-17.682-16.954-19.113a.98.98,0,0,1,.286-1.94c10.669,1.574,17.121,11.847,18.6,20.725,1.693,9.821-.532,18.922-2.319,26.236a.981.981,0,0,1-.952.748" transform="translate(-577.972 -436.532)" fill="#571519"/>
          <path id="パス_9991" data-name="パス 9991" d="M431.082,558.975a.981.981,0,0,1-.929-.668c-.288-.856-6.972-21.115-.431-33.524,6.286-11.894,20.164-18.928,27.564-19.937,9.841-1.209,17.542,1.512,19.174,6.771a.98.98,0,1,1-1.872.581c-1.321-4.254-8.33-6.476-17.05-5.407-6.985.952-20.118,7.622-26.083,18.908-6.146,11.662.488,31.783.556,31.985a.982.982,0,0,1-.929,1.292" transform="translate(-348.467 -411.898)" fill="#571519"/>
          <path id="パス_9992" data-name="パス 9992" d="M618.369,643.2a12.259,12.259,0,0,1-5.544-1.316c-4.428-2.214-6.778-5.19-9.135-9.275-.866-1.443-3.137-5.229-5.2-5.245-.857-.021-1.674.659-2.5,1.98a.98.98,0,0,1-1.665-1.035c1.2-1.929,2.594-2.906,4.147-2.906h.029c3.167.025,5.66,4.181,6.859,6.178,2.6,4.5,4.849,6.8,8.341,8.548a11.121,11.121,0,0,0,8.857.316c-3.923-.457-9.646-2.582-13.781-10.334a.98.98,0,0,1,1.73-.923c6.124,11.482,15.618,9.319,16.019,9.221a.981.981,0,0,1,.835,1.727,16.036,16.036,0,0,1-8.992,3.064" transform="translate(-485.055 -510.542)" fill="#571519"/>
          <path id="パス_9993" data-name="パス 9993" d="M742.16,744.039a.98.98,0,0,1-.935-1.273c.022-.073,2.272-7.563-1.7-13.832a.98.98,0,1,1,1.655-1.05,19.171,19.171,0,0,1,2.458,12.9,7.923,7.923,0,0,0,2.155-5.189.993.993,0,0,1,1.036-.921.981.981,0,0,1,.921,1.036,9.411,9.411,0,0,1-5.206,8.252.984.984,0,0,1-.382.077" transform="translate(-603.581 -593.835)" fill="#571519"/>
          <path id="パス_9994" data-name="パス 9994" d="M622.473,585.223c-8.659,0-13.8-6.379-16.168-9.317a11.727,11.727,0,0,0-1.236-1.415c-2.391-1.264-6.432.216-9.057,4.882a.98.98,0,0,1-1.709-.961c3.332-5.924,8.506-7.333,11.683-5.653a7.406,7.406,0,0,1,1.845,1.917c2.7,3.345,8.307,10.3,18.232,8.2a.98.98,0,0,1,.407,1.918,19.22,19.22,0,0,1-4,.434" transform="translate(-485.055 -467.031)" fill="#571519"/>
          <path id="パス_9995" data-name="パス 9995" d="M462.511,661.256a.98.98,0,0,1-.085-1.957c8.3-.73,10.324-4.508,12.282-8.163,1.394-2.6,2.835-5.293,6.515-6.136a.98.98,0,1,1,.438,1.911c-2.81.644-3.875,2.633-5.224,5.151-2,3.728-4.482,8.367-13.838,9.19-.029,0-.059,0-.087,0" transform="translate(-376.77 -526.523)" fill="#571519"/>
          <path id="パス_9996" data-name="パス 9996" d="M466.227,746.729a.974.974,0,0,1-.381-.077,9.41,9.41,0,0,1-5.205-8.252.98.98,0,1,1,1.957-.115,7.919,7.919,0,0,0,2.155,5.189,19.167,19.167,0,0,1,2.458-12.9.98.98,0,1,1,1.655,1.05c-3.975,6.269-1.725,13.758-1.7,13.833a.981.981,0,0,1-.937,1.271" transform="translate(-376.041 -596.031)" fill="#571519"/>
          <path id="パス_9997" data-name="パス 9997" d="M578.4,927.836h0c-6.949-.346-9.6-8.371-9.708-8.712a.981.981,0,0,1,.934-1.28h18.515a.98.98,0,0,1,.921,1.315c-.129.354-3.236,8.677-10.659,8.677m-7.315-8.031c.967,2.052,3.3,5.869,7.361,6.072,4.4,0,7.057-3.947,8.165-6.072Z" transform="translate(-464.212 -749.279)" fill="#571519"/>
          <path id="パス_9998" data-name="パス 9998" d="M481.909,1117.906c-.351,0-.7-.009-1.058-.026-22.177-1.073-30.739-32.091-31.092-33.411a.98.98,0,0,1,1.894-.508c.083.31,8.546,30.958,29.294,31.961,20.677,1.019,30.347-31.649,30.443-31.978a.98.98,0,1,1,1.884.543c-.4,1.385-9.876,33.42-31.363,33.42" transform="translate(-367.132 -884.294)" fill="#571519"/>
          <path id="パス_9999" data-name="パス 9999" d="M869.15,576.367c-.487-1.331-1.3-6.029-1.3-6.029s-.8,5.073-1.086,6.139c-.255.959-3.8,1.5-3.8,1.5s3.45.525,3.812,1.529,1.28,6.672,1.28,6.672.917-5.494,1.169-6.653c.238-1.088,3.75-1.6,3.75-1.6s-3.453-.524-3.832-1.56" transform="translate(-704.484 -465.594)" fill="#fff" fill-rule="evenodd"/>
          <path id="パス_10000" data-name="パス 10000" d="M842.925,657.042c-.335-.917-.894-4.151-.894-4.151s-.553,3.493-.748,4.227c-.175.66-2.614,1.036-2.614,1.036s2.376.362,2.625,1.053.881,4.595.881,4.595.631-3.783.805-4.581c.163-.749,2.582-1.1,2.582-1.1s-2.378-.361-2.639-1.074" transform="translate(-684.646 -532.985)" fill="#fff" fill-rule="evenodd"/>
          <path id="パス_10001" data-name="パス 10001" d="M356.391,675.194c-.487-1.331-1.3-6.029-1.3-6.029s-.8,5.073-1.085,6.139c-.254.959-3.8,1.5-3.8,1.5s3.45.525,3.812,1.529,1.28,6.672,1.28,6.672.917-5.494,1.169-6.653c.238-1.088,3.75-1.6,3.75-1.6s-3.453-.524-3.832-1.56" transform="translate(-285.894 -546.271)" fill="#fff" fill-rule="evenodd"/>
          <path id="パス_10002" data-name="パス 10002" d="M335.7,611.9c-.335-.917-.894-4.151-.894-4.151s-.553,3.493-.748,4.227c-.175.66-2.614,1.036-2.614,1.036s2.376.361,2.625,1.053.881,4.595.881,4.595.631-3.784.805-4.582c.163-.749,2.582-1.1,2.582-1.1s-2.378-.361-2.639-1.074" transform="translate(-270.572 -496.13)" fill="#fff" fill-rule="evenodd"/>
        </g>
      </g>
    </g>
  </g>
</svg>
