<svg xmlns="http://www.w3.org/2000/svg" xmlns:xlink="http://www.w3.org/1999/xlink" width="147.365" height="65.813" viewBox="0 0 147.365 65.813">
  <defs>
    <clipPath id="clip-path">
      <rect id="長方形_379" data-name="長方形 379" width="147.365" height="65.813" fill="none"/>
    </clipPath>
  </defs>
  <g id="グループ_4695" data-name="グループ 4695" transform="translate(0)">
    <path id="パス_829" data-name="パス 829" d="M19.424,46.124h11.31l-4.016,11.72H15.326Zm16.8-15.737L31.964,42.763H20.571l4.344-12.376H21.064L16.8,42.763H6.311L5.163,46.124h10.41l-4.017,11.72H1.147L0,61.2H10.327l-4.18,12.13h3.77L14.179,61.2h11.31L21.31,73.333h3.77L29.342,61.2H39.668l1.148-3.36H30.489l4.1-11.72H45.077l1.229-3.361H35.734l4.344-12.376Z" transform="translate(0 -9.438)"/>
    <g id="グループ_570" data-name="グループ 570" transform="translate(0 0)">
      <g id="グループ_569" data-name="グループ 569" clip-path="url(#clip-path)">
        <path id="パス_830" data-name="パス 830" d="M81.556,46.409C81.556,26.74,96.063.6,112.864.6c8.769,0,14.916,6.8,14.916,20.325C127.781,40.755,113.848,66,96.718,66,87.7,66,81.556,59.523,81.556,46.409m41.389-25.079c0-10.081-3.934-16.228-10.736-16.228-13.114,0-25.9,24.1-25.9,40.979,0,9.836,3.688,15.49,10.737,15.49,13.441,0,25.9-23.522,25.9-40.241" transform="translate(-25.33 -0.185)"/>
        <path id="パス_831" data-name="パス 831" d="M173.62,31.964a16.623,16.623,0,0,1,11.638,15.982c0,9.917-7.868,17.867-20.162,17.867-9.835,0-17.293-5.655-19.342-14.589l4.508-2.049c1.557,7.622,7.212,12.294,15,12.294,9.179,0,15.244-5.655,15.244-13.851,0-8.278-6.31-13.523-16.391-14.343l1.147-4.016c10.327.984,22.621-3.852,22.621-15,0-6.147-4.017-10.081-10.245-10.081-5.655,0-11.064,4.262-14.179,9.835l-3.77-2.213C163.621,4.508,170.669,0,178.374,0c8.442,0,14.261,5.983,14.261,13.769,0,11.393-10.081,17.457-19.014,18.2" transform="translate(-45.269 0)"/>
      </g>
    </g>
  </g>
</svg>
