<svg xmlns="http://www.w3.org/2000/svg" width="233.956" height="395.156" viewBox="0 0 233.956 395.156">
  <g id="グループ_4746" data-name="グループ 4746" transform="translate(-616 -237)">
    <g id="rogo" transform="translate(653 237.004)">
      <path id="パス_802" data-name="パス 802" d="M102.594,153.572c-8.612-.393-35.18-1.011-49.8-.432-15.989.664-32.526,2.253-45.058,14.477-10.541,10.317-10.263,27.394.517,38.391,6.536,6.659,14.662,10.1,23.166,9.731h9.005v9.005c-.37,8.512,3.071,16.63,9.731,23.166,11,10.78,28.073,11.058,38.391.517,12.223-12.532,13.813-29.069,14.477-45.058C103.6,188.753,102.987,162.184,102.594,153.572Z" transform="translate(0 -34.913)" fill="#fff"/>
      <path id="パス_803" data-name="パス 803" d="M165.32,54.973c-6.991-7.123-15.626-10.881-24.709-10.688l.015-.015H130.093V33.737l-.015.015c.193-9.075-3.565-17.718-10.688-24.709C107.337-2.771,88.624-3.072,77.319,8.48c-13.4,13.728-15.14,31.855-15.866,49.379-.633,16.012.039,45.135.471,54.573,9.438.432,38.553,1.1,54.573.471,17.525-.725,35.651-2.469,49.379-15.866,11.552-11.3,11.251-30.018-.563-42.071Z" transform="translate(-13.972 0)" fill="#fff"/>
      <path id="パス_804" data-name="パス 804" d="M42.507,55.908h-3.5V53.184h4.854a.412.412,0,0,0,.409-.409V51.039a.412.412,0,0,0-.409-.409H34.729a.412.412,0,0,0-.409.409v11.59a.412.412,0,0,0,.409.409H38.6a.412.412,0,0,0,.409-.409V58.655h3.5a.412.412,0,0,0,.409-.409V56.309a.412.412,0,0,0-.409-.409Z" transform="translate(-7.836 -11.561)" fill="#58a3c4"/>
      <path id="パス_805" data-name="パス 805" d="M39.562,81.937c0,.37-.015.695-.031.957a3.067,3.067,0,0,1-.162.795,1.407,1.407,0,0,1-.486.679,1.347,1.347,0,0,1-.81.247,1.3,1.3,0,0,1-1.2-.687,3.471,3.471,0,0,1-.239-1.5V77.037a.412.412,0,0,0-.409-.409H32.339a.412.412,0,0,0-.409.409V82.06a9.142,9.142,0,0,0,.756,4.167,5.393,5.393,0,0,0,2.23,2.207,6.531,6.531,0,0,0,6.428-.062,6.077,6.077,0,0,0,1.289-1.011,5.311,5.311,0,0,0,.9-1.3,6.542,6.542,0,0,0,.54-1.659,10.949,10.949,0,0,0,.185-2.1V77.029a.412.412,0,0,0-.409-.409H39.963a.412.412,0,0,0-.409.409v4.908Z" transform="translate(-7.291 -17.495)" fill="#58a3c4"/>
      <path id="パス_806" data-name="パス 806" d="M40.9,114.051h4.337a.416.416,0,0,0,.409-.463,9.613,9.613,0,0,0-.756-2.7,6.586,6.586,0,0,0-1.96-2.492l-.741-.571.741-.571a5.681,5.681,0,0,0,1.837-2.423,9.159,9.159,0,0,0,.571-2.747.407.407,0,0,0-.409-.432H40.914a.409.409,0,0,0-.4.37,6.748,6.748,0,0,1-.185,1.026,5.072,5.072,0,0,1-.741,1.651,3.6,3.6,0,0,1-1.25,1.119,4.152,4.152,0,0,1-1.62.455l-.764.054v-4.267a.412.412,0,0,0-.409-.409H31.669a.412.412,0,0,0-.409.409V113.65a.412.412,0,0,0,.409.409h3.874a.412.412,0,0,0,.409-.409v-4.669l.741.023c1.528.054,3.372.941,3.82,4.684a.4.4,0,0,0,.4.363Z" transform="translate(-7.138 -23.211)" fill="#58a3c4"/>
      <path id="パス_807" data-name="パス 807" d="M39.562,133.177c0,.37-.015.695-.031.957a3.068,3.068,0,0,1-.162.795,1.407,1.407,0,0,1-.486.679,1.346,1.346,0,0,1-.81.247,1.3,1.3,0,0,1-1.2-.687,3.47,3.47,0,0,1-.239-1.5v-5.394a.412.412,0,0,0-.409-.409H32.339a.412.412,0,0,0-.409.409V133.3a9.142,9.142,0,0,0,.756,4.167,5.393,5.393,0,0,0,2.23,2.207,6.531,6.531,0,0,0,6.428-.062,6.075,6.075,0,0,0,1.289-1.011,5.31,5.31,0,0,0,.9-1.3,6.542,6.542,0,0,0,.54-1.659,10.95,10.95,0,0,0,.185-2.1v-5.278a.412.412,0,0,0-.409-.409H39.963a.412.412,0,0,0-.409.409v4.908Z" transform="translate(-7.291 -29.195)" fill="#58a3c4"/>
      <path id="パス_808" data-name="パス 808" d="M156.336,167.068h4.337a.416.416,0,0,0,.409-.463,9.612,9.612,0,0,0-.756-2.7,6.586,6.586,0,0,0-1.96-2.492l-.741-.571.741-.571a5.681,5.681,0,0,0,1.837-2.423,9.159,9.159,0,0,0,.571-2.747.407.407,0,0,0-.409-.432h-4.013a.409.409,0,0,0-.4.37,6.752,6.752,0,0,1-.185,1.026,5.07,5.07,0,0,1-.741,1.651,3.6,3.6,0,0,1-1.25,1.119,4.113,4.113,0,0,1-1.62.455l-.772.054v-4.275a.412.412,0,0,0-.409-.409H147.1a.412.412,0,0,0-.409.409V166.66a.412.412,0,0,0,.409.409h3.874a.412.412,0,0,0,.409-.409v-4.669l.741.031c1.528.054,3.372.941,3.82,4.684a.4.4,0,0,0,.4.363Z" transform="translate(-33.494 -35.314)" fill="#e95704"/>
      <path id="パス_809" data-name="パス 809" d="M158.99,190.854a6.526,6.526,0,0,0,.841-3.241,6.4,6.4,0,0,0-.841-3.218,6.249,6.249,0,0,0-2.307-2.33,6.5,6.5,0,0,0-6.49.008,6.213,6.213,0,0,0-2.307,2.338,6.491,6.491,0,0,0-.826,3.2,6.62,6.62,0,0,0,.841,3.249,6.251,6.251,0,0,0,2.3,2.338,6.545,6.545,0,0,0,6.474,0,6.193,6.193,0,0,0,2.3-2.338Zm-4.044-1.659a2.124,2.124,0,0,1-2.986.008,2.129,2.129,0,0,1-.6-1.559,2.106,2.106,0,0,1,.594-1.543,1.992,1.992,0,0,1,1.482-.625,2.167,2.167,0,0,1,.833.162,1.986,1.986,0,0,1,1.111,1.158,2.369,2.369,0,0,1,.154.849,2.19,2.19,0,0,1-.594,1.543Z" transform="translate(-33.578 -41.374)" fill="#e95704"/>
      <rect id="長方形_365" data-name="長方形 365" width="4.684" height="12.401" rx="0.53" transform="translate(117.549 160.044)" fill="#e95704"/>
      <path id="パス_810" data-name="パス 810" d="M130.08,33.752c.193-9.075-3.565-17.718-10.688-24.709C107.338-2.771,88.625-3.072,77.32,8.48c-12.779,13.1-14.955,30.188-15.758,46.948L75.638,41.376a2.873,2.873,0,0,1,1.7-.957,2.6,2.6,0,0,1,2.114.957,2.371,2.371,0,0,1,0,3.812L61.3,63.315c-.332,16.475.239,40.667.633,49.109l55.236-55.236L105.162,45.18c-.8-.8-1.906-1.906,0-3.812s3.009-.8,3.812,0l12.007,12.007,5.71-5.71,3.4-3.4V33.729l-.015.015ZM99.676,25.7c-.116.131-.239.255-.363.378l-7.269,7.277a.251.251,0,0,0-.077.177.224.224,0,0,0,.077.177l4.831,4.831s.031.039.046.054a2.764,2.764,0,0,1,.293.355.988.988,0,0,1,.085.154l.062.108a1.619,1.619,0,0,1,.1.2c.031.069.046.139.069.2l.039.123a.753.753,0,0,1,.046.177,2.476,2.476,0,0,1,.046.486V55.583a2.416,2.416,0,0,1-.046.463,1.192,1.192,0,0,1-.054.177l-.039.123a.883.883,0,0,1-.069.2,1.626,1.626,0,0,1-.1.2.458.458,0,0,0-.031.062,1.866,1.866,0,0,1-.116.208,2.364,2.364,0,0,1-.309.378l-9.669,9.677a2.85,2.85,0,0,1-1.667.818c-.085.008-.177.015-.278.015a2.977,2.977,0,0,1-2.778-2.878,2.841,2.841,0,0,1,.9-1.767L92.268,54.4V41.561l-6.127-6.127a2.308,2.308,0,0,1-.586-1.906,2.309,2.309,0,0,1,.586-1.906l5.008-5.008-.031-.085H83.509c-1.258,0-2.693-.309-2.693-2.693s1.443-2.693,2.693-2.693H97.747a2.39,2.39,0,0,1,2.523,1.752,2.444,2.444,0,0,1-.586,2.809Z" transform="translate(-13.974 0)" fill="#58a3c4"/>
      <path id="パス_811" data-name="パス 811" d="M183.59,70.08a39.159,39.159,0,0,0-4.468-3.92l-37.835,37.85a.251.251,0,0,0-.077.177.224.224,0,0,0,.077.177l20.287,20.279a50.448,50.448,0,0,0,22.579-12.493C195.705,100.847,195.4,82.134,183.59,70.08Z" transform="translate(-32.242 -15.107)" fill="#e95704"/>
      <path id="パス_812" data-name="パス 812" d="M117.34,104.087a4.022,4.022,0,0,1,0-3.812l39.077-39.093a31.446,31.446,0,0,0-15.588-3.8l.015-.015H130.312l-3.4,3.4-5.71,5.71,6.32,6.32c.887.887,1.69,2.122,0,3.812a2.588,2.588,0,0,1-1.852.841,2.916,2.916,0,0,1-1.96-.841h0l-6.32-6.32L62.15,125.532c4.375.2,12.972.455,22.533.6V115.755c0-1.266,0-2.693,2.693-2.693s2.693,1.435,2.693,2.693V126.2c9.546.1,19.423.085,26.646-.2a148.046,148.046,0,0,0,20.58-1.968l-19.963-19.955Z" transform="translate(-14.191 -13.1)" fill="#e95704"/>
      <path id="パス_813" data-name="パス 813" d="M82.427,153.036v10.618c0,1.266,0,2.693-2.693,2.693s-2.693-1.435-2.693-2.693V152.966c-2.554-.031-5.139-.046-7.678-.046v15.534c0,1.266,0,2.693-2.693,2.693s-2.693-1.435-2.693-2.693V152.928c-4.09.023-7.917.093-11.158.224-15.989.664-32.526,2.253-45.058,14.477-10.541,10.317-10.263,27.394.517,38.391a34.275,34.275,0,0,0,8.851,6.567l32.156-32.148a3.182,3.182,0,0,1,1.582-1.08c.671-.116,1.381.231,2.23,1.08s1.188,1.559,1.08,2.23a3.02,3.02,0,0,1-1.034,1.536L22.607,214.731a28.562,28.562,0,0,0,8.836,1.026h9.005l3.071-3.071.177-.177,23.652-23.652L57.332,178.84c-.988-.988-1.675-2.138,0-3.812a2.633,2.633,0,0,1,2.168-1,2.986,2.986,0,0,1,1.644,1L71.16,185.045l5.88-5.88v-2.23c0-1.265,0-2.693,2.693-2.693a3.59,3.59,0,0,1,1.844.386l9.808-9.808-3.635-3.635c-1-1-1.759-2.053,0-3.812s2.809-1,3.812,0l3.635,3.635,7.408-7.408c-3.928-.185-11.606-.409-20.171-.54Zm-23.783,8.133-7.879,7.879a2.872,2.872,0,0,1-1.96.818,2.572,2.572,0,0,1-1.852-.818,2.371,2.371,0,0,1,0-3.812l7.879-7.879a2.989,2.989,0,0,1,1.636-1,2.629,2.629,0,0,1,2.176,1C60.318,159.032,59.632,160.181,58.644,161.169Z" transform="translate(-0.005 -34.917)" fill="#e95704"/>
      <path id="パス_814" data-name="パス 814" d="M120.494,165.432a2.415,2.415,0,0,1,0,3.812,2.528,2.528,0,0,1-1.829.8,2.968,2.968,0,0,1-1.983-.8L112.438,165l-9.808,9.808c.849.509.857,1.451.857,2.307v5.417c0,1.266,0,2.693-2.693,2.693S98.1,183.79,98.1,182.532v-3.187l-5.88,5.88,7.724,7.724h24.377c.108-14.453-.34-32.387-.648-39.17l-7.408,7.408,4.244,4.244Zm-5.8,17.1c0,1.266,0,2.693-2.693,2.693s-2.693-1.435-2.693-2.693v-5.417c0-1.258.309-2.693,2.693-2.693s2.693,1.443,2.693,2.693Z" transform="translate(-21.057 -35.113)" fill="#58a3c4"/>
      <path id="パス_815" data-name="パス 815" d="M89.71,208.769a2.679,2.679,0,0,1-1.906-.787l-8.512-8.512L55.641,223.122l-.177.177-3.071,3.071v9.005c-.37,8.512,3.071,16.63,9.731,23.166,11,10.78,28.073,11.058,38.391.517C112.737,246.527,114.326,229.99,114.99,214c.062-1.613.108-3.372.147-5.232Z" transform="translate(-11.956 -45.546)" fill="#58a3c4"/>
    </g>
    <g id="グループ_4689" data-name="グループ 4689" transform="translate(-2.422 26.256)">
      <path id="パス_10380" data-name="パス 10380" d="M31.8,23a.663.663,0,0,1-.61-.27.831.831,0,0,1-.01-.73l4.8-12.32a.983.983,0,0,1,1-.68h.14a.983.983,0,0,1,1,.68L42.92,22a.86.86,0,0,1,0,.73.66.66,0,0,1-.62.27H42a.964.964,0,0,1-1-.7l-1.08-2.88H34.14l-1.1,2.88a.951.951,0,0,1-.98.7Zm2.96-5.3H39.3l-2.24-6.08ZM46.04,23q-.9,0-.9-.96V9.96q0-.96.9-.96.92,0,.92.96V22.04Q46.96,23,46.04,23Zm15.7-1.08a.88.88,0,0,1-.71.06.921.921,0,0,1-.55-.46q-.26-.48-.73-1.22T58.7,18.74q-.58-.82-1.17-1.57T56.44,15.9a.867.867,0,0,1-.24-.66.944.944,0,0,1,.28-.64.848.848,0,0,1,.67-.26.918.918,0,0,1,.65.3q.34.4.78.94t.88,1.12a13,13,0,0,0,3.42-1.81,2.323,2.323,0,0,0,1.04-1.61.852.852,0,0,0-.38-.78,2.594,2.594,0,0,0-1.38-.2l-10.82.42a.867.867,0,0,1-.66-.24.908.908,0,0,1-.3-.64.862.862,0,0,1,.24-.67.925.925,0,0,1,.64-.29l10.84-.36a4.288,4.288,0,0,1,2.86.61,2.523,2.523,0,0,1,.84,2.07,3.1,3.1,0,0,1-.71,2,6.943,6.943,0,0,1-1.92,1.59,20.115,20.115,0,0,1-2.71,1.31q.52.74.96,1.41t.7,1.15a.909.909,0,0,1,.07.71A.884.884,0,0,1,61.74,21.92Zm14.36,1.6a.777.777,0,0,1-.61.03.835.835,0,0,1-.47-.41.853.853,0,0,1-.03-.64.758.758,0,0,1,.41-.46,13.957,13.957,0,0,0,3.37-2.19,9.459,9.459,0,0,0,2.11-2.76A12.536,12.536,0,0,0,82,13.52a.811.811,0,0,1,.94-.66.8.8,0,0,1,.66.94,12.964,12.964,0,0,1-2.4,5.75A13.755,13.755,0,0,1,76.1,23.52Zm2.72-6.46a.8.8,0,0,1-.62-.05.834.834,0,0,1-.42-.47q-.22-.62-.54-1.35t-.56-1.17a.9.9,0,0,1-.09-.63.7.7,0,0,1,.37-.49.774.774,0,0,1,.62-.1.73.73,0,0,1,.5.38q.2.36.44.89t.46,1.05q.22.52.36.9a.8.8,0,0,1-.05.62A.834.834,0,0,1,78.82,17.06Zm-3.12.76a.723.723,0,0,1-.61.01.836.836,0,0,1-.45-.43q-.3-.64-.65-1.29a10.923,10.923,0,0,0-.69-1.13.773.773,0,0,1-.14-.61.834.834,0,0,1,.32-.53.806.806,0,0,1,.61-.15.771.771,0,0,1,.53.33,8.937,8.937,0,0,1,.54.86q.28.5.54.99t.42.87a.724.724,0,0,1,.03.63A.827.827,0,0,1,75.7,17.82Zm19.64,5.26a.836.836,0,0,1-.68.18.928.928,0,0,1-.42-1.66,9.035,9.035,0,0,0,2.35-2.61,11.107,11.107,0,0,0,1.35-3.39H90.76a.9.9,0,1,1,0-1.8H98.2q.04-.62.02-1.26a9.835,9.835,0,0,0-.12-1.26q-1.26.2-2.54.35t-2.34.23a.821.821,0,0,1-.65-.25.962.962,0,0,1-.29-.65.846.846,0,0,1,.25-.67.962.962,0,0,1,.65-.29q1.04-.04,2.24-.16t2.4-.33q1.2-.21,2.26-.46a17.174,17.174,0,0,0,1.84-.53.878.878,0,0,1,.71.02.916.916,0,0,1,.49.52.853.853,0,0,1-.03.71.955.955,0,0,1-.53.49q-.54.18-1.24.36t-1.48.34a14.562,14.562,0,0,1,.12,2.84h6.12a.9.9,0,1,1,0,1.8H99.74a13.567,13.567,0,0,1-1.57,4.26A10.43,10.43,0,0,1,95.34,23.08Zm18.3-1.06a.854.854,0,0,1-.7-.02.921.921,0,0,1-.48-.52.853.853,0,0,1,.03-.71.955.955,0,0,1,.53-.49,30.385,30.385,0,0,0,3.28-1.43,35.394,35.394,0,0,0,3.15-1.8,26.01,26.01,0,0,0,2.74-2.01A16.017,16.017,0,0,0,124.24,13a.849.849,0,0,1,.62-.33.935.935,0,0,1,.68.21.884.884,0,0,1,.34.62.9.9,0,0,1-.2.68,15.577,15.577,0,0,1-2.16,2.1,34.766,34.766,0,0,1-3.02,2.21,39.091,39.091,0,0,1-3.43,2.01A28.383,28.383,0,0,1,113.64,22.02Zm2.04-7.76q-.48-.42-1.09-.88t-1.22-.88q-.61-.42-1.11-.72a.937.937,0,0,1-.42-.57.837.837,0,0,1,.1-.69.921.921,0,0,1,.58-.44.815.815,0,0,1,.7.12q.5.32,1.19.81t1.35.98q.66.49,1.06.81a.92.92,0,0,1,.35.62.866.866,0,0,1-.19.68.892.892,0,0,1-.61.36A.818.818,0,0,1,115.68,14.26Zm17.64,9.14a.879.879,0,0,1-.71.02.915.915,0,0,1-.51-.5.854.854,0,0,1-.02-.7.913.913,0,0,1,.5-.52,21.9,21.9,0,0,0,5.89-3.73,16.527,16.527,0,0,0,3.91-5.15,1.221,1.221,0,0,0,.11-1.12q-.23-.38-1.23-.38h-2.9a25.766,25.766,0,0,1-2.18,2.53,16.583,16.583,0,0,1-2.44,2.09.936.936,0,0,1-.7.16.864.864,0,0,1-.6-.38.989.989,0,0,1-.14-.7.864.864,0,0,1,.38-.6,16.579,16.579,0,0,0,2.26-1.9,19.886,19.886,0,0,0,1.95-2.26,12.489,12.489,0,0,0,1.37-2.3.921.921,0,0,1,.52-.48.913.913,0,0,1,1.18.53.876.876,0,0,1-.02.71,4.13,4.13,0,0,1-.18.39q-.1.19-.22.41h1.72q2.2,0,2.97,1.07t-.19,3.03a18.7,18.7,0,0,1-4.3,5.65A23.509,23.509,0,0,1,133.32,23.4Zm13.52-12.54a.659.659,0,0,1-.53.17.691.691,0,0,1-.49-.25,13.892,13.892,0,0,0-1.3-1.36.649.649,0,0,1-.22-.45.578.578,0,0,1,.18-.47.643.643,0,0,1,.49-.21.8.8,0,0,1,.49.19,7.576,7.576,0,0,1,.71.61q.41.39.71.71a.658.658,0,0,1,.2.53A.8.8,0,0,1,146.84,10.86ZM148.5,9.2a.659.659,0,0,1-.51.19.691.691,0,0,1-.51-.23q-.3-.34-.65-.68t-.69-.62a.651.651,0,0,1-.24-.43.575.575,0,0,1,.16-.49.616.616,0,0,1,.47-.22.9.9,0,0,1,.51.16,7.15,7.15,0,0,1,.73.58q.43.38.75.7a.629.629,0,0,1,.21.51A.759.759,0,0,1,148.5,9.2Zm4.92,13.36a.859.859,0,0,1-.7-.06.921.921,0,0,1-.46-.54.859.859,0,0,1,.06-.7.921.921,0,0,1,.54-.46,19.819,19.819,0,0,0,3.19-1.36,26.191,26.191,0,0,0,3.16-1.97,23.934,23.934,0,0,0,2.81-2.38,17.929,17.929,0,0,0,2.16-2.55.9.9,0,0,1,.59-.39.885.885,0,0,1,.69.15.832.832,0,0,1,.39.58.9.9,0,0,1-.15.7,18.017,18.017,0,0,1-2.3,2.69,28.084,28.084,0,0,1-3.1,2.61,30.839,30.839,0,0,1-3.47,2.2A19.649,19.649,0,0,1,153.42,22.56Zm1.04-6.4a9.483,9.483,0,0,0-.86-.59q-.56-.35-1.14-.68t-.94-.49a.809.809,0,0,1-.47-.53.967.967,0,0,1,.05-.71.921.921,0,0,1,.54-.46.911.911,0,0,1,.7.04q.48.22,1.12.58t1.24.74q.6.38.96.66a.858.858,0,0,1,.33.63.909.909,0,0,1-.23.69.866.866,0,0,1-.61.31A1.039,1.039,0,0,1,154.46,16.16Zm2.16-3.52a7.057,7.057,0,0,0-.83-.63q-.55-.37-1.11-.73a10.384,10.384,0,0,0-.92-.54.9.9,0,0,1-.34-1.26.882.882,0,0,1,.57-.43.917.917,0,0,1,.69.09q.46.24,1.07.63t1.2.8a8.279,8.279,0,0,1,.93.73.894.894,0,0,1,.04,1.3.872.872,0,0,1-.64.29A.9.9,0,0,1,156.62,12.64Zm15.46,9.72a.9.9,0,0,1-.71.03.883.883,0,0,1-.53-.47.934.934,0,0,1-.04-.71.848.848,0,0,1,.46-.53,22.5,22.5,0,0,0,5.25-3.47,17.936,17.936,0,0,0,3.73-4.53q.88-1.56-1.18-1.56h-5.64a.87.87,0,0,1-.65-.28.919.919,0,0,1-.27-.66.922.922,0,0,1,.92-.92h5.64a4.456,4.456,0,0,1,2.45.56,1.984,1.984,0,0,1,.94,1.54,3.893,3.893,0,0,1-.63,2.24q-.28.48-.61.97t-.71.99q.96.76,1.98,1.71t1.92,1.85q.9.9,1.46,1.52a.839.839,0,0,1,.28.64.9.9,0,0,1-.28.66.938.938,0,0,1-.66.26.9.9,0,0,1-.66-.28q-.4-.4-1-1.03t-1.32-1.34q-.72-.71-1.45-1.41t-1.39-1.26A24.9,24.9,0,0,1,176,19.94,24.092,24.092,0,0,1,172.08,22.36Zm21.58.9a.909.909,0,0,1-.71.07.884.884,0,0,1-.55-.45.967.967,0,0,1-.05-.71.884.884,0,0,1,.45-.55,10.674,10.674,0,0,0,2.55-1.86,9.7,9.7,0,0,0,1.8-2.43A7.823,7.823,0,0,0,198,14.6h-6.14a.9.9,0,1,1,0-1.8h13.26a.9.9,0,1,1,0,1.8H199.8a9.68,9.68,0,0,1-.96,3.38,11.582,11.582,0,0,1-2.12,3A12.134,12.134,0,0,1,193.66,23.26Zm.54-12.76a.88.88,0,0,1-.63-.26.854.854,0,0,1-.27-.64.923.923,0,0,1,.9-.9H203a.923.923,0,0,1,.9.9.854.854,0,0,1-.27.64.88.88,0,0,1-.63.26Zm31.26,11.46a.829.829,0,0,1-.69.06.937.937,0,0,1-.55-.44q-.2-.36-.57-.9t-.83-1.16q-1.16.2-2.63.41t-3.03.4q-1.56.19-3.04.34t-2.68.25a.917.917,0,0,1-.67-.23.86.86,0,0,1-.31-.63.912.912,0,0,1,.23-.68.874.874,0,0,1,.63-.3q.34-.04.74-.07t.84-.07q.66-.9,1.35-2.04t1.33-2.36q.64-1.22,1.18-2.37t.9-2.05a.916.916,0,0,1,.49-.52.828.828,0,0,1,.71,0,.916.916,0,0,1,.52.49.828.828,0,0,1,0,.71q-.46,1.12-1.14,2.49t-1.49,2.79q-.81,1.42-1.63,2.66,1.66-.16,3.38-.35t3.12-.39q-.5-.64-1.01-1.21t-.91-.97a.914.914,0,0,1-.25-.67.883.883,0,0,1,.29-.65.9.9,0,0,1,.66-.25.872.872,0,0,1,.64.29q.46.48,1.13,1.28t1.4,1.72q.73.92,1.34,1.76a16.093,16.093,0,0,1,.93,1.4.786.786,0,0,1,.08.69A1,1,0,0,1,225.46,21.96Z" transform="translate(615 477.5)" fill="#ee7a7a"/>
      <path id="パス_10381" data-name="パス 10381" d="M26.48,92.52a4.977,4.977,0,0,1-2.56-2.6,4.34,4.34,0,0,1,0-3.64,4.605,4.605,0,0,1,2.6-2.64,4.15,4.15,0,0,1,3.64.08q4.4,1.92,7.2,1.2a3.479,3.479,0,0,0,2.8-3.76,15.578,15.578,0,0,0-1.32-6.56,54.248,54.248,0,0,0-2.92-5.52q-1.36-2.24-2.48-4.56a17.312,17.312,0,0,1-1.52-5.04,16.191,16.191,0,0,1,.48-6.24,4.7,4.7,0,0,1,2.16-2.96,4.505,4.505,0,0,1,3.6-.56,4.552,4.552,0,0,1,2.92,2.16,5.028,5.028,0,0,1,.6,3.68,9.827,9.827,0,0,0,.44,6.08A51.274,51.274,0,0,0,44.88,67a66,66,0,0,1,3.24,6.16,19.716,19.716,0,0,1,1.56,8.32,13.35,13.35,0,0,1-2,7.56,11.93,11.93,0,0,1-5.4,4.44,16.454,16.454,0,0,1-7.48,1.2A23.468,23.468,0,0,1,26.48,92.52ZM74.16,86.6a4.552,4.552,0,0,1-3.56.6,4.83,4.83,0,0,1-3-2.12,50.241,50.241,0,0,0-3.52-4.88q-2.24-2.8-4.72-5.6t-4.64-4.88a4.63,4.63,0,0,1-1.52-3.28,4.452,4.452,0,0,1,1.28-3.36A4.528,4.528,0,0,1,57.8,61.6a4.641,4.641,0,0,1,3.4,1.32q2.56,2.4,5.32,5.44t5.2,6.08a54.56,54.56,0,0,1,3.96,5.52,4.335,4.335,0,0,1,.64,3.6A5,5,0,0,1,74.16,86.6Zm-62.8.16a4.769,4.769,0,0,1-3.48,1.16,4.7,4.7,0,0,1-3.32-1.64A4.627,4.627,0,0,1,3.44,82.8a4.571,4.571,0,0,1,1.68-3.24q1.44-1.2,3.52-2.88T13,73.24q2.28-1.76,4.32-3.32t3.32-2.6a4.766,4.766,0,0,1,3.56-.96,4.487,4.487,0,0,1,3.16,1.84,4.391,4.391,0,0,1,.92,3.48,4.629,4.629,0,0,1-1.88,3.16q-2.08,1.52-4.88,3.72T16,82.96Q13.28,85.16,11.36,86.76Zm32.8-38a77.9,77.9,0,0,0-7.12-4.36A62.674,62.674,0,0,0,30,41.08a4.987,4.987,0,0,1-2.8-2.36,4.4,4.4,0,0,1-.4-3.56,5.11,5.11,0,0,1,2.4-2.92,4,4,0,0,1,3.6-.28q2.72,1.04,5.84,2.56t6.08,3.24q2.96,1.72,5.2,3.32a4.487,4.487,0,0,1,1.84,3.16,4.766,4.766,0,0,1-.96,3.56,4.459,4.459,0,0,1-3.12,1.84A4.886,4.886,0,0,1,44.16,48.76Zm90.08,49.2a4.613,4.613,0,0,1-3.6.76,4.762,4.762,0,0,1-3.12-1.88q-2.72-3.92-6.12-8.16t-6.76-8.12q-3.36-3.88-6.08-6.6a26.372,26.372,0,0,1-6.32-8.72,10.461,10.461,0,0,1,.08-8.12q1.68-4.04,6.64-8.68,1.68-1.52,4.04-3.84t5-4.96q2.64-2.64,5.12-5.28t4.48-4.72a4.615,4.615,0,0,1,3.4-1.48,4.741,4.741,0,0,1,3.48,1.32,4.357,4.357,0,0,1,1.48,3.32,4.741,4.741,0,0,1-1.32,3.48q-2.8,3.04-6.2,6.44t-6.6,6.48q-3.2,3.08-5.52,5.16a18.638,18.638,0,0,0-4.12,4.92,4.33,4.33,0,0,0,0,4.04,22.7,22.7,0,0,0,3.8,4.96q2.72,2.8,6.2,6.72t7,8.16q3.52,4.24,6.16,8.08a4.288,4.288,0,0,1,.84,3.56A4.684,4.684,0,0,1,134.24,97.96Zm42.08-25.44a4.985,4.985,0,0,1-3.64-.24,3.941,3.941,0,0,1-2.12-2.8,3.767,3.767,0,0,1,.48-3.04,4.794,4.794,0,0,1,2.88-1.92,23.678,23.678,0,0,0,8.32-3.88,13.734,13.734,0,0,0,4.52-6.4,29.665,29.665,0,0,0,1.4-9.8V42.28H167.6a3.862,3.862,0,0,1-2.84-1.16,3.769,3.769,0,0,1-1.16-2.76,3.961,3.961,0,0,1,4-4h27.52v-5.2a3.927,3.927,0,0,1,1.44-3.24A5.313,5.313,0,0,1,200,24.76a5.154,5.154,0,0,1,3.4,1.16,3.975,3.975,0,0,1,1.4,3.24v5.2h27.6a3.961,3.961,0,0,1,4,4,3.769,3.769,0,0,1-1.16,2.76,3.862,3.862,0,0,1-2.84,1.16H213.2V58.84q0,5.68-2.84,8.36t-9.16,2.68a5.04,5.04,0,0,1-3.32-1.16,4.367,4.367,0,0,1-1.56-3.16,4.739,4.739,0,0,1,1.08-3.28,3.837,3.837,0,0,1,2.92-1.52,6.481,6.481,0,0,0,3.24-.76q.76-.6.76-2.68V42.28h-7.44v2.16a37.877,37.877,0,0,1-2.04,13.12,21.194,21.194,0,0,1-6.52,9.2A32.28,32.28,0,0,1,176.32,72.52ZM202,99.4a40.041,40.041,0,0,1-10.88-1.16,8.638,8.638,0,0,1-5.48-4.04,16.557,16.557,0,0,1-1.56-7.84v-8.4a4.338,4.338,0,0,1,1.32-3.32,4.454,4.454,0,0,1,3.16-1.24,4.6,4.6,0,0,1,3.2,1.24,4.274,4.274,0,0,1,1.36,3.32v7.6a7.532,7.532,0,0,0,.68,3.56,3.729,3.729,0,0,0,2.64,1.68,28.466,28.466,0,0,0,5.8.44,33.359,33.359,0,0,0,5.64-.36,5.253,5.253,0,0,0,2.92-1.36,7.715,7.715,0,0,0,1.6-2.84,3.835,3.835,0,0,1,2.4-2.4,5.019,5.019,0,0,1,6.04,2.16,4.183,4.183,0,0,1,.2,3.28,13.483,13.483,0,0,1-3.08,5.72,11.716,11.716,0,0,1-5.84,3.04A44.621,44.621,0,0,1,202,99.4Zm-37.04-4.08a4.186,4.186,0,0,1-2-2.56,3.526,3.526,0,0,1,.64-3.2q1.12-1.52,2.52-3.64t2.72-4.32q1.32-2.2,2.12-3.8a4.635,4.635,0,0,1,2.6-2.48,4.207,4.207,0,0,1,3.48.24,4.451,4.451,0,0,1,2.24,2.48,4.317,4.317,0,0,1-.24,3.52q-.88,1.76-2.2,4.08t-2.76,4.56q-1.44,2.24-2.64,3.84A5.18,5.18,0,0,1,168.4,96,4.6,4.6,0,0,1,164.96,95.32Zm70.72-2.8a4.709,4.709,0,0,1-3.2,1.08,3.675,3.675,0,0,1-2.96-1.48q-1.12-1.52-2.92-3.72t-3.68-4.28q-1.88-2.08-3.24-3.36a3.326,3.326,0,0,1-1-2.96,4.114,4.114,0,0,1,1.48-2.88,4.561,4.561,0,0,1,6.16.24q1.52,1.44,3.4,3.44t3.64,4.04q1.76,2.04,2.88,3.48a4.541,4.541,0,0,1,1.12,3.32A4.666,4.666,0,0,1,235.68,92.52Zm-63.76-31.2a4.886,4.886,0,0,1-3.52.88,4.2,4.2,0,0,1-3.04-1.84,3.941,3.941,0,0,1-.64-3.2,4.327,4.327,0,0,1,1.76-2.56,47.548,47.548,0,0,0,5-3.96q2.84-2.52,4.84-4.68a3.65,3.65,0,0,1,3.04-1.28,4.449,4.449,0,0,1,4.44,4.16,3.9,3.9,0,0,1-1.16,3.04q-2.24,2.4-5,4.92A50.011,50.011,0,0,1,171.92,61.32Zm60.96,1.04a4.212,4.212,0,0,1-3.28,1.12,4.473,4.473,0,0,1-3.12-1.68,40.676,40.676,0,0,0-2.76-3q-1.72-1.72-3.44-3.4t-2.84-2.72a3.273,3.273,0,0,1-1.08-2.76,4.208,4.208,0,0,1,1.24-2.76,4.29,4.29,0,0,1,2.84-1.36,3.74,3.74,0,0,1,2.92.88q1.28.96,3.16,2.68t3.76,3.48q1.88,1.76,3,2.96a4.2,4.2,0,0,1,1.28,3.28A4.421,4.421,0,0,1,232.88,62.36ZM209.44,84.04a3.828,3.828,0,0,1-3,1.08,4.443,4.443,0,0,1-3-1.48q-1.28-1.52-3.08-3.48t-3.16-3.32a3.376,3.376,0,0,1-1-2.76,3.77,3.77,0,0,1,1.32-2.68,4.343,4.343,0,0,1,2.92-1.2,4.212,4.212,0,0,1,2.84,1.12q.72.64,1.96,1.84t2.48,2.48q1.24,1.28,2.04,2.16a4.358,4.358,0,0,1,1.32,3.16A4.118,4.118,0,0,1,209.44,84.04Z" transform="translate(615 506.5)" fill="#ee7a7a"/>
    </g>
  </g>
</svg>
