<svg id="グループ_4711" data-name="グループ 4711" xmlns="http://www.w3.org/2000/svg" xmlns:xlink="http://www.w3.org/1999/xlink" width="132.033" height="45.495" viewBox="0 0 132.033 45.495">
  <defs>
    <clipPath id="clip-path">
      <rect id="長方形_431" data-name="長方形 431" width="132.033" height="45.495" fill="none"/>
    </clipPath>
  </defs>
  <g id="グループ_620" data-name="グループ 620" transform="translate(0 0)" clip-path="url(#clip-path)">
    <path id="パス_875" data-name="パス 875" d="M0,28.235a11.517,11.517,0,0,1,3.189-7.6L5.581,22a7.959,7.959,0,0,0-2.908,6.285c0,3.8,2.955,6.754,7.411,6.754a8.953,8.953,0,0,0,8.864-8.724c0-7.363-11.632-7.551-11.444-16.65C7.6,4.971,12.007,0,18.1,0c6.238,0,9.849,5.769,7.223,11.913H22.513c2.392-5.534-.375-9.521-4.69-9.521a7.56,7.56,0,0,0-7.551,7.082c-.187,7.786,11.444,7.926,11.4,16.791A11.65,11.65,0,0,1,9.9,37.521c-6,0-9.9-3.939-9.9-9.286" transform="translate(0 0)"/>
    <path id="パス_876" data-name="パス 876" d="M80.209,34.248v2.814c-1.829,3.987-5.394,8.114-8.724,8.114-6.191,0-4.362-7.973-1.5-16.181H67.17l.8-2.3h2.814c.891-2.486,1.829-4.925,2.58-7.082h2.626C75,22.148,74.111,24.54,73.361,26.7H77.77l-.8,2.3H72.517c-2.955,8.677-3.8,13.742-.8,13.742,2.251,0,5.722-3.705,8.489-8.489" transform="translate(-40.669 -11.876)"/>
    <path id="パス_877" data-name="パス 877" d="M113.791,44.375v2.908c-1.829,4.409-5.769,8.114-11.725,8.114-4.878-.047-7.551-3.189-7.551-7.035,0-6.331,3.987-11.866,9.146-11.866a4.726,4.726,0,0,1,4.971,4.831c0,5.253-5.347,8.536-11.491,7.223C97.375,51.082,98.923,53,102.628,53c4.784,0,8.536-3.893,11.163-8.63M97.281,46.3c4.174,1.219,8.724-.985,8.724-4.784a2.462,2.462,0,0,0-2.439-2.626c-3.189,0-5.722,3.518-6.285,7.41" transform="translate(-57.225 -22.097)"/>
    <path id="パス_878" data-name="パス 878" d="M122.215,67.591c3.424-10.037,6.848-20.777,10.178-30.674h2.533l-1.736,4.268c.938-1.689,3.612-4.691,7.035-4.691,2.814,0,4.644,2.439,4.644,5.957,0,5.488-3.987,12.945-9.85,12.945A6.951,6.951,0,0,1,129.578,53c-1.313,3.658-3,9.005-4.643,14.587ZM142.242,42.5c0-2.063-.985-3.564-2.72-3.611-2.72-.094-6.379,3.236-9.052,11.538.8,1.594,2.064,2.579,4.549,2.579,4.081,0,7.223-5.488,7.223-10.506" transform="translate(-73.998 -22.097)"/>
    <path id="パス_879" data-name="パス 879" d="M203.055,26.693c0-11.256,8.3-26.218,17.917-26.218,5.018,0,8.536,3.893,8.536,11.632,0,11.351-7.973,25.8-17.776,25.8-5.16,0-8.677-3.705-8.677-11.21m23.686-14.352c0-5.769-2.251-9.287-6.144-9.287-7.5,0-14.821,13.789-14.821,23.451,0,5.629,2.111,8.865,6.144,8.865,7.692,0,14.821-13.461,14.821-23.029" transform="translate(-122.944 -0.288)"/>
    <path id="パス_880" data-name="パス 880" d="M269.428,34.948h16.65l-.75,2.392H265.676l-.563-2.673c9.381-4.362,24.624-13.977,24.624-24.483,0-4.315-2.674-7.129-6.52-7.129-4.456,0-7.973,4.221-7.973,8.255a9.012,9.012,0,0,0,1.032,4.6l-2.439,1.22a10.682,10.682,0,0,1-1.36-5.816A11.169,11.169,0,0,1,283.452.475c5.441,0,9.1,3.987,9.1,9.568,0,10.834-14.4,21.059-23.123,24.905" transform="translate(-160.518 -0.288)"/>
  </g>
</svg>
