<?xml version="1.0" encoding="UTF-8"?>
<svg xmlns="http://www.w3.org/2000/svg" version="1.1" xmlns:xlink="http://www.w3.org/1999/xlink" viewBox="0 0 385 409">
  <defs>
    <style>
      .cls-1 {
        fill: #fff;
      }

      .cls-2, .cls-3, .cls-4 {
        fill: none;
      }

      .cls-3 {
        stroke: #ed6a1f;
      }

      .cls-5 {
        fill: #ed6a1f;
      }

      .cls-4 {
        stroke: #fff;
      }

      .cls-6 {
        clip-path: url(#clippath);
      }
    </style>
    <clipPath id="clippath">
      <rect class="cls-2" x="125" width="132" height="45.5"/>
    </clipPath>
  </defs>
  <!-- Generator: Adobe Illustrator 28.6.0, SVG Export Plug-In . SVG Version: 1.2.0 Build 709)  -->
  <g>
    <g id="_レイヤー_1" data-name="レイヤー_1">
      <g id="_グループ_4748" data-name="グループ_4748">
        <g id="_長方形_1046" data-name="長方形_1046">
          <rect class="cls-1" y="24" width="385" height="385" rx="10" ry="10"/>
          <rect class="cls-4" x=".5" y="24.5" width="384" height="384" rx="9.5" ry="9.5"/>
        </g>
        <path id="_パス_10389" data-name="パス_10389" class="cls-5" d="M118.9,89c-.2.1-.4.1-.6,0-.2,0-.4-.2-.5-.4-.2-.3-.4-.7-.7-1.1s-.6-.9-.9-1.4c-.3-.5-.7-1-1.1-1.4-.4-.4-.7-.8-1-1.1-.2-.2-.2-.4-.2-.6,0-.2,0-.4.3-.6.2-.2.4-.2.6-.2.2,0,.4.1.6.3.2.2.4.5.7.8s.5.7.8,1c1.1-.4,2.1-.9,3.1-1.6.5-.3.8-.9.9-1.4,0-.3-.1-.5-.3-.7-.4-.2-.8-.2-1.2-.2l-9.7.4c-.2,0-.4,0-.6-.2-.2-.1-.3-.4-.3-.6,0-.2,0-.4.2-.6.2-.2.4-.3.6-.3l9.8-.3c.9-.1,1.8,0,2.6.5.5.5.8,1.2.8,1.9,0,.7-.2,1.3-.6,1.8-.5.6-1.1,1.1-1.7,1.4-.8.5-1.6.8-2.4,1.2.3.4.6.9.9,1.3.3.4.5.7.6,1,.1.2.1.4,0,.6,0,.2-.2.4-.4.5ZM131.8,90.5c-.2,0-.4,0-.5,0-.2,0-.3-.2-.4-.4,0-.2,0-.4,0-.6,0-.2.2-.3.4-.4,1.1-.5,2.1-1.2,3-2,.8-.7,1.4-1.5,1.9-2.5.5-1,.8-2.1,1-3.2,0-.4.4-.7.8-.6,0,0,0,0,0,0,.4,0,.7.4.6.8,0,0,0,0,0,0-.3,1.9-1,3.7-2.2,5.2-1.2,1.5-2.8,2.8-4.6,3.6ZM134.3,84.7c-.2,0-.4,0-.6,0-.2,0-.3-.2-.4-.4-.1-.4-.3-.8-.5-1.2-.2-.4-.4-.8-.5-1.1,0-.2-.1-.4,0-.6,0-.2.2-.4.3-.4.2-.1.4-.1.6,0,.2,0,.4.2.4.3.1.2.3.5.4.8s.3.6.4.9c.1.3.2.6.3.8,0,.2,0,.4,0,.6,0,.2-.2.3-.4.4ZM131.5,85.3c-.2,0-.4,0-.5,0-.2,0-.3-.2-.4-.4-.2-.4-.4-.8-.6-1.2-.2-.4-.4-.7-.6-1-.1-.2-.2-.4-.1-.5,0-.2.1-.4.3-.5.2-.1.4-.2.5-.1.2,0,.4.1.5.3.2.2.3.5.5.8.2.3.3.6.5.9.2.3.3.6.4.8,0,.2.1.4,0,.6,0,.2-.2.3-.4.4ZM149.2,90.1c-.2.1-.4.2-.6.2-.5,0-.8-.5-.7-.9,0-.2.1-.4.3-.5.9-.6,1.6-1.4,2.1-2.3.6-.9,1-2,1.2-3.1h-6.5c-.4,0-.8-.4-.8-.8,0-.4.4-.8.8-.8h6.7c0-.4,0-.7,0-1.1,0-.4,0-.8-.1-1.1-.8.1-1.5.2-2.3.3-.8,0-1.5.2-2.1.2-.2,0-.4,0-.6-.2-.2-.2-.3-.4-.3-.6,0-.2,0-.4.2-.6.2-.2.4-.3.6-.3.6,0,1.3,0,2-.1.7,0,1.4-.2,2.2-.3.7-.1,1.4-.3,2-.4.6-.1,1.1-.3,1.7-.5.2,0,.4,0,.6,0,.2,0,.4.3.4.5,0,.2,0,.4,0,.6,0,.2-.3.4-.5.4-.3.1-.7.2-1.1.3s-.9.2-1.3.3c.1.8.2,1.7.1,2.6h5.5c.4,0,.8.4.8.8,0,.4-.4.8-.8.8h-5.7c-.3,1.3-.7,2.6-1.4,3.8-.6,1.1-1.5,2.1-2.6,2.9ZM165.6,89.1c-.2,0-.4,0-.6,0-.2,0-.4-.3-.4-.5,0-.2,0-.4,0-.6,0-.2.3-.4.5-.4,1-.4,2-.8,3-1.3,1-.5,1.9-1,2.8-1.6.9-.5,1.7-1.2,2.5-1.8.7-.6,1.3-1.2,1.8-1.8.1-.2.3-.3.6-.3.2,0,.4,0,.6.2.2.1.3.3.3.6,0,.2,0,.4-.2.6-.6.7-1.2,1.3-1.9,1.9-.9.7-1.8,1.4-2.7,2-1,.7-2,1.3-3.1,1.8-1,.5-2,1-3.1,1.4ZM167.5,82.1c-.3-.3-.6-.5-1-.8-.4-.3-.7-.5-1.1-.8-.4-.3-.7-.5-1-.6-.2-.1-.3-.3-.4-.5,0-.2,0-.4,0-.6.1-.2.3-.3.5-.4.2,0,.4,0,.6.1.3.2.7.4,1.1.7.4.3.8.6,1.2.9s.7.5,1,.7c.2.1.3.3.3.6,0,.2,0,.4-.2.6-.1.2-.3.3-.5.3-.2,0-.4,0-.6-.2ZM183.3,90.4c-.2,0-.4.1-.6,0-.2,0-.4-.2-.5-.5,0-.2-.1-.4,0-.6,0-.2.2-.4.4-.5,1.9-.8,3.7-2,5.3-3.4,1.5-1.3,2.7-2.9,3.5-4.6.2-.3.2-.7.1-1-.1-.2-.5-.3-1.1-.3h-2.6c-.6.8-1.3,1.6-2,2.3-.7.7-1.4,1.3-2.2,1.9-.2.1-.4.2-.6.1-.2,0-.4-.2-.5-.3-.1-.2-.2-.4-.1-.6,0-.2.2-.4.3-.5.7-.5,1.4-1.1,2-1.7.6-.6,1.2-1.3,1.8-2,.5-.6.9-1.3,1.2-2.1,0-.2.3-.4.5-.4.4-.2.9,0,1.1.5,0,0,0,0,0,0,0,.2,0,.4,0,.6,0,.1-.1.2-.2.4,0,.1-.1.2-.2.4h1.5c1-.1,2,.2,2.7,1,.5.6.4,1.6-.2,2.7-1,1.9-2.3,3.7-3.9,5.1-1.7,1.5-3.7,2.8-5.8,3.7ZM195.5,79.1c-.1.1-.3.2-.5.2-.2,0-.3,0-.4-.2-.4-.4-.8-.8-1.2-1.2-.1-.1-.2-.2-.2-.4,0-.2,0-.3.2-.4.1-.1.3-.2.4-.2.2,0,.3,0,.4.2.2.2.4.4.6.5.2.2.5.4.6.6.1.1.2.3.2.5,0,.2,0,.4-.2.5ZM197,77.6c-.1.1-.3.2-.5.2-.2,0-.3,0-.5-.2-.2-.2-.4-.4-.6-.6-.2-.2-.4-.4-.6-.6-.1,0-.2-.2-.2-.4,0-.2,0-.3.1-.4.1-.1.3-.2.4-.2.2,0,.3,0,.5.1.2.2.4.3.7.5.3.2.5.4.7.6.1.1.2.3.2.5,0,.2,0,.4-.2.5ZM206,84.9c-1,0-1.7-.8-1.7-1.7s.8-1.7,1.7-1.7c1,0,1.7.8,1.7,1.7,0,.5-.2.9-.5,1.2-.3.3-.8.5-1.2.5ZM225.5,90.6c-.2,0-.4-.1-.6-.3-.2-.2-.2-.4-.2-.6,0-.2,0-.4.2-.6.2-.2.4-.2.6-.2.9,0,1.8-.1,2.7-.5.9-.6,1.2-1.8.6-2.7-.2-.2-.4-.5-.6-.6-.8-.4-1.7-.6-2.6-.6-.5,0-.9,0-1.4,0-.4,0-.8.1-1.3.2v2.4c0,.9-.2,1.8-.7,2.5-.6.6-1.4.9-2.2.8-.7,0-1.4-.2-2-.6-.5-.5-.8-1.2-.8-1.9,0-1,.4-1.9,1.1-2.6.8-.8,1.9-1.4,3-1.7v-3.2c-.6,0-1.1,0-1.7.1s-1,0-1.5,0c-.2,0-.4,0-.6-.2-.2-.2-.3-.4-.3-.6,0-.2,0-.4.2-.6.2-.2.4-.2.6-.3.5,0,1,0,1.5,0,.5,0,1.1,0,1.6-.1v-2.6c0-.2,0-.4.2-.6.2-.2.4-.2.6-.2.2,0,.4,0,.6.2.2.2.2.4.2.6v2.4c.3,0,.7,0,1-.1.3,0,.6,0,.9-.1.2,0,.4,0,.6.1.4.3.4.7.2,1.1,0,0,0,0,0,0-.1.2-.3.3-.5.3-.3,0-.6,0-1,.1-.4,0-.7,0-1.2.1v2.9c.4,0,.9-.1,1.3-.2.4,0,.9,0,1.4,0,1.3,0,2.7.3,3.8,1,.9.6,1.4,1.6,1.4,2.7,0,1.1-.5,2.2-1.4,2.9-1.2.7-2.5,1.1-3.9.9ZM229.9,81.9c-.2-.2-.5-.3-.8-.5l-1-.6c-.3-.2-.6-.3-.8-.4-.2-.1-.3-.3-.4-.5,0-.2,0-.4,0-.6,0-.2.3-.4.5-.4.2,0,.4,0,.6,0,.3.1.6.3.9.5.4.2.7.4,1.1.6.4.2.7.4.9.6.2.1.3.3.3.5,0,.2,0,.4-.2.6-.1.2-.3.3-.5.3-.2,0-.4,0-.6-.1ZM219.9,89c.4,0,.7-.1,1-.4.3-.4.4-.9.3-1.4v-1.9c-.7.3-1.3.7-1.8,1.2-.4.4-.6.9-.7,1.5,0,.3,0,.5.3.7.2.2.5.3.8.3ZM234.7,91.3c-.2,0-.5,0-.7,0-.2,0-.3-.3-.4-.5,0-.2,0-.4.1-.6.1-.2.3-.3.5-.3,1.3-.2,2.5-.7,3.5-1.4.9-.7,1.5-1.7,1.7-2.8-.6,0-1.1-.2-1.6-.5-.4-.2-.7-.6-.8-1-.2-.6-.3-1.2-.2-1.8v-3.6c0-.7,0-1.4.3-2,.2-.5.7-.9,1.2-1,.8-.2,1.6-.3,2.5-.3h2.1c.8,0,1.7,0,2.5.3.5.2,1,.5,1.2,1,.3.6.4,1.3.3,2v3.6c0,.6,0,1.2-.2,1.8-.1.4-.4.8-.8,1-.5.3-1,.4-1.6.5v2.6c0,.4.1.8.4,1,.5.2,1.1.3,1.7.3.6,0,1.1,0,1.6-.3.4-.3.6-.7.7-1.2,0-.2.2-.4.4-.5.2-.1.5-.1.7,0,.2,0,.4.2.5.4.1.2.1.4,0,.7,0,.9-.5,1.7-1.3,2.2-.8.4-1.8.6-2.7.6-.7,0-1.5,0-2.2-.3-.5-.1-.9-.4-1.2-.8-.3-.5-.4-1-.4-1.6v-2.7h-1.6c-.2,1.4-.9,2.7-2,3.7-1.3,1.1-2.8,1.7-4.5,2h0ZM238.6,81.3h6.8v-1.5h-6.8v1.5ZM240.9,84.2h2.1c.5,0,1,0,1.4-.1.3,0,.5-.2.7-.5.1-.3.2-.6.2-1h-6.7c0,.3,0,.7.2,1,.1.2.4.4.7.5.5,0,.9.1,1.4.1ZM238.6,78.5h6.7c0-.3,0-.7-.2-1-.1-.2-.4-.4-.7-.5-.5,0-.9-.1-1.4-.1h-2.1c-.5,0-.9,0-1.4.1-.3,0-.5.2-.7.5-.1.3-.2.6-.2,1ZM258.6,91.1c-.7,0-1.5,0-2.2-.3-.5-.2-.9-.6-1.2-1-.3-.6-.4-1.3-.4-2,0-.7,0-1.4.4-2,.2-.5.7-.9,1.2-1,.7-.2,1.4-.3,2.2-.3h2.8c.7,0,1.5,0,2.2.3.5.2.9.6,1.2,1,.3.6.4,1.3.4,2,0,.7,0,1.4-.4,2-.2.5-.7.9-1.2,1-.7.2-1.4.3-2.2.3h-2.8ZM252.7,82.8c-.2.1-.5.2-.7.2-.2,0-.4-.2-.6-.4-.1-.2-.2-.4-.1-.6,0-.2.2-.4.4-.5.8-.5,1.6-1,2.4-1.6.8-.6,1.6-1.3,2.3-1.9.7-.6,1.3-1.3,1.9-2,1-1.2,2.1-1.2,3.2,0,.6.6,1.2,1.2,1.9,1.8.7.6,1.5,1.2,2.3,1.8.8.6,1.6,1.1,2.5,1.6.2.1.4.3.4.5,0,.2,0,.5-.1.7-.1.2-.3.4-.6.4-.3,0-.5,0-.7-.2-.8-.5-1.6-1.1-2.5-1.7-.8-.6-1.6-1.3-2.3-1.9-.7-.7-1.4-1.3-2-1.9-.3-.4-.7-.4-1,0-.6.7-1.3,1.4-2,2.1-.8.7-1.6,1.4-2.4,2-.8.6-1.6,1.2-2.4,1.7h0ZM258.6,89.6h2.8c.6,0,1.1,0,1.6-.4.4-.4.5-.9.4-1.5,0-.5,0-1.1-.4-1.5-.5-.3-1-.4-1.6-.4h-2.8c-.5,0-1.1,0-1.6.4-.4.4-.5.9-.4,1.5,0,.5,0,1.1.4,1.5.5.3,1,.4,1.6.4h0ZM256,82.6c-.2,0-.4,0-.6-.2-.1-.1-.2-.3-.2-.5,0-.2,0-.4.2-.6.1-.2.3-.2.6-.2h8c.2,0,.4,0,.6.2.1.2.2.4.2.6,0,.2,0,.4-.2.5-.1.2-.4.2-.6.2h-8ZM275.2,88.3c-.5,0-1.1,0-1.6-.3-.5-.3-1-.7-1.3-1.3-.2-.4-.4-.9-.6-1.4-.2-.6-.3-1.2-.5-1.9-.1-.7-.2-1.4-.3-2.1,0-.7,0-1.4,0-2.1,0-.2.1-.4.3-.6.2-.1.4-.2.6-.2.2,0,.4.1.6.3.1.2.2.4.2.6v.5c0,.4,0,.8.1,1.4s.1,1.1.2,1.7c0,.6.2,1.1.3,1.7,0,.4.2.8.4,1.2.2.5.8.8,1.3.8.3,0,.6-.2.8-.5.3-.4.5-.9.7-1.4,0-.2.2-.4.4-.5.2-.1.4-.1.6,0,.2,0,.4.2.5.4.1.2.1.4,0,.6-.3.8-.7,1.6-1.3,2.2-.4.4-1,.7-1.5.8h0ZM284.8,85.2c-.2,0-.4,0-.6,0-.2,0-.4-.3-.4-.5-.3-.8-.7-1.5-1.2-2.2-.5-.7-1.1-1.2-1.8-1.7-.2-.1-.3-.3-.3-.5,0-.2,0-.4.2-.6.1-.2.3-.3.6-.3.2,0,.4,0,.6.2.5.3.9.7,1.3,1.2.5.5.9,1,1.3,1.6.4.5.7,1.1.9,1.7,0,.2,0,.4,0,.6,0,.2-.3.4-.5.4h0Z"/>
        <path id="_パス_10390" data-name="パス_10390" class="cls-5" d="M106.1,338.4c-.2,0-.4,0-.5-.2,0-.2,0-.4,0-.5l3.6-9.2c.1-.3.4-.5.8-.5h0c.3,0,.7.2.8.5l3.6,9.2c0,.2,0,.4,0,.5-.1.1-.3.2-.5.2h-.2c-.3,0-.7-.2-.7-.5l-.8-2.2h-4.3l-.8,2.2c0,.3-.4.6-.7.5h-.2ZM108.3,334.5h3.4l-1.7-4.6-1.7,4.6ZM125,338.4c-.5,0-.7-.2-.7-.7v-9.1c0-.5.2-.7.7-.7s.7.2.7.7v9.1c0,.5-.2.7-.7.7ZM135.8,338.4c-.2,0-.4,0-.5-.1-.1-.1-.2-.3-.3-.4-.1-.6-.2-1.1-.2-1.7,0-.7,0-1.4,0-2.2s0-1.5,0-2.3c0-.8,0-1.5.2-2.2,0-.7.2-1.3.3-1.8,0-.2.1-.3.3-.4.2,0,.3-.1.5,0,.2,0,.3.1.4.3,0,.2.1.3,0,.5-.1.6-.2,1.2-.3,1.7,0,.6-.1,1.3-.2,2.1,0,.7,0,1.4,0,2.1,0,.7,0,1.4,0,2,0,.6.1,1.1.2,1.7,0,.2,0,.4-.1.5,0,.1-.3.2-.4.3ZM142,337.6c-1,0-2-.2-2.9-.7-.6-.5-1-1.2-1-1.9,0-.2,0-.4.1-.5.1-.1.3-.2.5-.2.2,0,.4,0,.5.1.1.1.2.3.2.5,0,.5.3.9.7,1.1.6.3,1.2.4,1.9.4.4,0,.9,0,1.3,0,.5,0,1-.2,1.5-.3.2,0,.4,0,.5,0,.1.1.3.3.3.4,0,.2,0,.4,0,.5-.1.2-.3.3-.4.3-.5.1-1,.2-1.6.3-.5,0-1,0-1.5,0h0ZM139.1,330.2c-.2,0-.4,0-.5-.1-.2-.1-.3-.3-.3-.4,0-.2,0-.4.1-.5,0-.2.3-.3.4-.3.4,0,.9-.1,1.3-.2.5,0,1,0,1.5,0,.5,0,1,0,1.5,0,.4,0,.9,0,1.3.2.2,0,.3.1.4.3.1.1.1.3.1.5,0,.2-.1.3-.3.4-.1.1-.3.1-.5.1-1.7-.3-3.5-.3-5.2,0ZM152.7,338.9c-.7,0-1.3-.2-1.8-.6-.4-.4-.6-.9-.6-1.5,0-.6.2-1.1.6-1.5.6-.5,1.3-.7,2-.6.5,0,.9,0,1.4.1,0-.6,0-1.2-.1-1.9,0-.7,0-1.4-.1-2,0-.7,0-1.3-.1-2,0-.6,0-1.2,0-1.7,0-.2,0-.4.2-.5.1-.1.3-.2.5-.2.4,0,.7.3.7.7,0,0,0,0,0,0,0,.3,0,.7,0,1.2,0,.4,0,.9,0,1.4.5,0,1-.1,1.6-.2.5,0,1.1-.2,1.6-.4.2,0,.4,0,.5,0,.2,0,.3.2.3.4,0,.2,0,.4,0,.5,0,.2-.2.3-.4.3-.6.1-1.2.2-1.8.3-.6,0-1.2.2-1.7.2,0,.7,0,1.4.1,2.1,0,.7,0,1.3.1,1.9.7.2,1.4.4,2.1.7.6.3,1.2.6,1.8.9.2,0,.3.3.3.4,0,.2,0,.4-.1.5-.1.2-.3.3-.4.3-.2,0-.4,0-.5-.1-.4-.3-.9-.6-1.4-.8-.5-.2-1-.4-1.6-.6h0c0,.5,0,.9-.3,1.3-.2.4-.6.7-1,.8-.6.2-1.1.3-1.7.3h0ZM152.7,337.6c.4,0,.9,0,1.3-.3.3-.2.4-.4.4-.8v-.2c0,0,0-.1,0-.2-.2,0-.5,0-.7-.1-.2,0-.5,0-.7,0-.3,0-.7,0-1,.2-.2.1-.3.3-.3.6,0,.2,0,.4.3.6.2.2.5.3.8.2h0ZM170.1,338.8c-.7,0-1.4-.1-2.1-.5-.8-.7-1-1.9-.3-2.7,0,0,.2-.2.3-.3.5-.4,1.1-.5,1.7-.4.4,0,.9.2,1.2.5.3.2.5.6.6.9,0,.4,0,.7,0,1.1.4-.1.8-.4,1.1-.7.3-.4.5-1,.5-1.5,0-.4-.1-.9-.4-1.2-.3-.3-.6-.6-1.1-.7-.5-.2-1-.2-1.5-.1-.6,0-1.2.3-1.8.5-.7.3-1.3.8-1.9,1.3-.1.1-.3.2-.5.1-.4,0-.6-.3-.6-.7,0,0,0,0,0,0,0-.2,0-.3.2-.4.6-.5,1.3-1,1.9-1.5.6-.5,1.2-1,1.8-1.6.6-.5,1.1-1,1.5-1.4.4-.4.5-.6.4-.8-.1-.2-.4-.3-.9-.2-.2,0-.5,0-.8,0s-.6,0-.9.1c-.3,0-.6,0-.8.1-.2,0-.4,0-.5-.1-.3-.2-.4-.6-.2-.9,0,0,0,0,0,0,.1-.1.3-.2.4-.3.2,0,.4,0,.8,0,.3,0,.7,0,1,0,.3,0,.6,0,.9,0,.5,0,1.1,0,1.6.2.7.3,1.1,1.2.8,1.9,0,0,0,0,0,0-.2.5-.5.9-.9,1.2-.3.2-.6.5-1,.8-.4.3-.8.7-1.1,1,.6-.2,1.2-.3,1.8-.2.6,0,1.1.2,1.6.5.5.3.9.6,1.1,1.1.3.5.4,1.1.4,1.7,0,.8-.2,1.5-.6,2.1-.4.5-.9,1-1.5,1.2-.7.3-1.5.4-2.2.4h0ZM170.1,337.5c.1-.3.2-.7,0-1,0-.2-.3-.4-.6-.4-.2,0-.5,0-.7.1-.2.1-.3.4-.3.6,0,.2.1.4.3.5.4.1.8.2,1.1.2h0ZM188.1,339.3c-.6,0-1.3,0-1.9-.2-.4-.1-.8-.5-.9-.9-.2-.6-.3-1.2-.3-1.8,0-.6,0-1.2.3-1.8.2-.4.5-.7.9-.9,1.2-.3,2.5-.3,3.8,0,.4.1.8.5.9.9.2.6.3,1.2.3,1.8,0,.6,0,1.2-.3,1.8-.2.4-.5.7-.9.9-.6.2-1.2.3-1.9.2h0ZM181.3,339.7c-.2,0-.3,0-.4-.2-.1-.1-.2-.3-.2-.5v-5.8h-1.1c-.3.1-.6.2-.9.2-.2,0-.4,0-.5-.1-.1,0-.2-.3-.2-.4,0-.2,0-.3.1-.5.1-.1.3-.2.4-.2.1,0,.2,0,.4,0,.1,0,.3,0,.4,0,.2-.2.4-.5.6-.8.2-.3.5-.6.7-.9-.2-.1-.4-.3-.7-.5-.3-.2-.6-.4-.8-.6-.3-.2-.5-.4-.7-.5-.1,0-.2-.2-.3-.4,0-.3.1-.6.5-.7,0,0,0,0,0,0,.2,0,.3,0,.5,0,0,0,.1,0,.2.2l.3.2c.1-.2.3-.4.4-.7s.3-.5.5-.8c.2-.2.3-.4.3-.6,0-.2.2-.3.4-.3.2,0,.3,0,.5,0,.2,0,.3.2.3.4,0,.2,0,.3,0,.5,0,.2-.2.4-.4.7-.2.3-.3.5-.5.8-.2.3-.3.5-.5.7.2.1.3.2.5.3l.4.3c.2-.3.4-.6.6-1s.4-.6.5-.8c0-.2.2-.3.4-.3.2,0,.3,0,.5,0,.1,0,.2.2.3.4,0,.2,0,.4,0,.5-.2.3-.5.7-.8,1.1-.3.4-.6.8-.9,1.3-.3.4-.6.8-.9,1.2h1c.3-.1.6-.1.9-.2,0-.1,0-.2-.1-.3,0,0,0-.2-.1-.3,0-.1,0-.3,0-.4,0-.1.2-.2.3-.3.1,0,.3,0,.4,0,.1,0,.3.2.3.3,0,.2.2.4.3.6s.2.5.3.8c.1.3.2.5.3.7,0,.2,0,.3,0,.5,0,.2-.2.3-.4.3-.3.1-.6,0-.8-.3,0,0,0,0,0,0,0,0,0-.2,0-.3s0-.2-.1-.3h-.6c-.2,0-.4.1-.7.1v6c0,.2,0,.3-.2.5-.1.1-.3.2-.5.2h0ZM185.5,332.9c-.1,0-.3.1-.5.1-.2,0-.3,0-.4-.2,0-.1-.1-.3-.1-.4,0-.1,0-.3.2-.4.7-.4,1.2-1.1,1.6-1.8.3-.8.6-1.6.6-2.5h-1.9c-.2,0-.3,0-.4-.2-.2-.2-.2-.6,0-.8.1-.1.3-.2.4-.2h4.6c.6,0,1.1.1,1.5.5.3.4.5,1,.4,1.5,0,.4,0,.7,0,1.1,0,.4,0,.7-.1,1,0,.4-.2.8-.4,1.2-.2.3-.5.5-.8.6-.4.1-.9.2-1.4.2-.2,0-.3,0-.5-.1-.1-.1-.2-.3-.2-.4,0-.2,0-.3.1-.5.1-.1.3-.2.4-.2.3,0,.6,0,.8,0,.2,0,.3-.1.4-.3.1-.2.2-.4.2-.6,0-.3.1-.6.1-.8,0-.4,0-.7,0-1,0-.3,0-.6-.2-.8-.2-.2-.5-.2-.7-.2h-1.2c0,1-.3,2.1-.7,3-.4.9-1.1,1.6-1.9,2.2h0ZM188.1,338c.4,0,.8,0,1.1-.1.2,0,.4-.2.5-.5,0-.4.1-.7.1-1.1,0-.4,0-.7-.1-1.1,0-.2-.3-.4-.5-.5-.4,0-.7-.1-1.1-.1-.4,0-.7,0-1.1.1-.2,0-.4.2-.5.5,0,.3-.1.7-.1,1.1,0,.4,0,.7.1,1.1,0,.2.3.4.5.5.4,0,.7.1,1.1.1h0ZM178.5,338c-.1,0-.2-.1-.3-.3,0-.1,0-.3,0-.4.1-.3.3-.6.4-.9.1-.3.2-.7.4-1.1,0-.3.2-.6.2-.9,0-.1.1-.3.2-.4.1,0,.3,0,.4,0,.3,0,.5.3.4.6,0,0,0,0,0,0,0,.3-.1.6-.2,1s-.2.7-.4,1.1c-.1.3-.3.6-.4.9,0,.2-.2.3-.3.3-.1,0-.3,0-.5,0h0ZM184.1,337.3c-.1,0-.3,0-.5,0-.2,0-.3-.2-.3-.3,0-.2-.2-.4-.3-.7-.1-.3-.2-.6-.3-.9,0-.3-.2-.5-.2-.7,0-.1,0-.3,0-.4,0-.1.2-.2.4-.2.3,0,.6,0,.7.4,0,.2.1.4.2.7s.2.5.3.8c.1.3.2.5.3.7,0,.2,0,.3,0,.5,0,.1-.2.3-.3.3h0ZM194,332.2c-.2.1-.4.2-.6.1-.2,0-.4-.1-.5-.3,0-.1-.1-.3,0-.5,0-.2.2-.3.3-.4.6-.4,1.2-.8,1.8-1.3s1.2-1,1.8-1.5c.6-.5,1.1-1,1.6-1.4.4-.5.9-.8,1.5-.8.6,0,1.2.3,1.6.8.4.4.9.8,1.5,1.3.6.5,1.2,1,1.9,1.5.7.5,1.3.9,1.9,1.3.2,0,.3.3.4.4,0,.4-.2.7-.5.8,0,0,0,0,0,0-.2,0-.4,0-.6-.2-.4-.3-.9-.6-1.4-1-.5-.4-1-.7-1.4-1.1-.5-.4-.9-.8-1.4-1.2-.4-.4-.8-.7-1.1-1-.2-.2-.4-.3-.6-.4-.2,0-.5.2-.6.4-.5.5-1,.9-1.6,1.5-.6.5-1.2,1.1-1.9,1.6-.6.5-1.2.9-1.9,1.3h0ZM195.2,339.1c-.2.1-.4.1-.6,0-.2,0-.4-.2-.4-.4,0-.2-.1-.4,0-.5,0-.2.2-.3.4-.4.5-.2,1-.5,1.5-.9.4-.3.7-.7.9-1.2.2-.5.4-1.1.5-1.7,0-.8.1-1.6.1-2.3,0-.2,0-.3.2-.4.1-.1.3-.2.5-.2.2,0,.4,0,.5.2.1.1.2.3.2.5,0,.9,0,1.8-.2,2.7-.1.7-.3,1.4-.6,2-.3.6-.7,1-1.1,1.5-.5.4-1.1.8-1.7,1.1h0ZM202.2,339.3c-.2,0-.4,0-.5-.2-.1-.1-.2-.3-.2-.5v-6.8c0-.2,0-.3.2-.5.1-.1.3-.2.5-.2.2,0,.4,0,.5.2.1.1.2.3.2.5v6.8c0,.2,0,.3-.2.5-.1.1-.3.2-.5.2h0ZM213.3,339.2c-.6,0-1.3-.1-1.8-.5-.5-.4-.7-.9-.7-1.5,0-.6.2-1.1.7-1.5.5-.4,1.2-.6,1.9-.6.4,0,.8,0,1.2,0,0-.3,0-.7,0-1.1,0-.4,0-.8,0-1.2-.5,0-1.1,0-1.6,0-.5,0-1,0-1.4,0-.2,0-.4,0-.5-.2-.1-.1-.2-.3-.2-.5,0-.2,0-.4.2-.5.1-.1.3-.2.5-.2.9,0,1.9,0,2.9,0,0-.3,0-.6,0-.9,0-.3,0-.6,0-.9-.5,0-1,0-1.5,0-.5,0-1,0-1.4,0-.2,0-.4,0-.5-.2-.1-.1-.2-.3-.2-.5,0-.2,0-.4.2-.5.1-.1.3-.2.5-.2.9,0,1.8,0,2.9,0,0-.3,0-.6,0-.9v-.8c0-.2,0-.3.2-.5.3-.3.7-.3.9,0,0,0,0,0,0,0,.1.1.2.3.2.5v.8c0,.3,0,.5,0,.8.4,0,.9,0,1.3,0s.8,0,1.2-.1c.2,0,.4,0,.5.1.1.1.2.3.3.4,0,.2,0,.4-.1.5-.1.1-.3.2-.4.3-.4,0-.8,0-1.2.1s-.9,0-1.4.1c0,.3,0,.6,0,.9,0,.3,0,.6,0,.9.4,0,.9,0,1.3-.1.4,0,.8,0,1.1-.1.2,0,.4,0,.5.1.1.1.2.3.3.4,0,.2,0,.4-.1.5-.1.1-.3.2-.4.3-.4,0-.8,0-1.2.1s-.9,0-1.4,0c0,.5,0,.9,0,1.4,0,.4,0,.8,0,1.2.6.2,1.2.4,1.7.6.5.2,1,.5,1.4.8.3.2.4.6.2.9,0,0,0,0,0,0-.1.2-.3.3-.4.3-.2,0-.4,0-.5-.1-.3-.2-.7-.4-1.1-.6-.4-.2-.8-.4-1.3-.6,0,.7-.2,1.3-.7,1.8-.6.4-1.2.6-1.9.5h0ZM213.3,337.9c.4,0,.7,0,1-.3.2-.2.2-.5.2-.8v-.4c-.2,0-.4,0-.6,0-.2,0-.4,0-.6,0-.3,0-.6,0-.8.2-.2.1-.3.4-.3.6,0,.5.4.7,1.1.7h0ZM224.6,338.7c-.2,0-.3-.3-.3-.4,0-.2,0-.4.1-.5.4-.7.8-1.4,1.1-2.2.3-.8.6-1.7.8-2.5.2-.8.4-1.7.5-2.5-.3,0-.6,0-.9.1s-.6,0-.8,0c-.2,0-.4,0-.5-.2-.1-.1-.2-.3-.2-.5,0-.2,0-.4.2-.5.1-.1.3-.2.5-.2.3,0,.6,0,.9,0s.7,0,1.1,0c0-.4,0-.8,0-1.2,0-.3,0-.7,0-1,0-.2,0-.4.2-.5.1-.1.3-.2.5-.2.2,0,.4,0,.5.2.1.1.2.3.2.5,0,.3,0,.6,0,.9,0,.3,0,.7,0,1.1h.9c.3-.2.5-.2.8-.3.2,0,.4,0,.5,0,.1.1.3.3.3.4,0,.2,0,.4,0,.5,0,.2-.3.3-.4.3-.3,0-.6.1-1,.2-.4,0-.7.1-1.1.2-.1,1-.3,1.9-.6,2.8-.2,1-.5,1.9-.9,2.8-.3.8-.7,1.7-1.2,2.4,0,.2-.2.3-.4.3-.2,0-.4,0-.5-.1h0ZM235.1,338.3c-1.2.3-2.5.3-3.7,0-1-.2-1.8-.8-2.3-1.7-.2-.3,0-.7.3-.9.2,0,.3-.1.5,0,.2,0,.3.2.4.3.2.4.6.8,1,.9.5.2,1,.3,1.5.3.7,0,1.3,0,1.9-.2.2,0,.4,0,.5,0,.2,0,.3.3.3.4,0,.2,0,.4-.1.5,0,.2-.2.3-.4.3h0ZM234.3,332.5c-.6-.1-1.2-.2-1.9-.2-.7,0-1.3,0-2,.1-.2,0-.4,0-.5-.1-.1-.1-.3-.3-.3-.4,0-.2,0-.4.1-.5,0-.2.3-.3.4-.3.7-.1,1.5-.2,2.2-.1.7,0,1.5,0,2.2.2.4,0,.6.5.5.8,0,0,0,0,0,0,0,.2-.1.3-.3.4-.2,0-.3.1-.5,0h0ZM245.4,338.8c-.6,0-1.2-.2-1.7-.5-.5-.4-.7-.9-.7-1.5,0-.6.2-1.1.7-1.5.5-.4,1.1-.6,1.8-.5.2,0,.4,0,.5,0,.2,0,.4,0,.5,0,0-.5,0-1.1,0-1.8,0-.7,0-1.3,0-2-.6,0-1.1,0-1.6,0-.5,0-1,0-1.4,0-.4,0-.7-.3-.7-.7,0,0,0,0,0,0,0-.2,0-.4.2-.5.1-.1.3-.2.5-.2.4,0,.8,0,1.4,0,.5,0,1,0,1.6,0,0-.4,0-.8,0-1.2v-1.1c0-.4.3-.7.7-.7s.7.3.7.7,0,.7,0,1.1c0,.4,0,.7,0,1.1.5,0,.9,0,1.3-.1.4,0,.8,0,1.1-.1.2,0,.4,0,.5.1.2.1.3.3.3.4,0,.2,0,.4-.1.5-.1.2-.3.3-.4.3-.3,0-.7,0-1.2.1-.4,0-.9,0-1.4.1,0,.8,0,1.6,0,2.3s0,1.4,0,1.9c.5.2,1.1.4,1.6.6.5.2.9.5,1.3.8.1.1.2.3.3.4,0,.2,0,.4-.1.5-.1.2-.3.3-.4.3-.2,0-.4,0-.5-.1-.3-.2-.6-.4-.9-.6-.4-.2-.8-.4-1.1-.5,0,1.5-.9,2.3-2.5,2.3ZM240.4,338.8c-.2,0-.4,0-.5-.1-.1-.1-.2-.3-.3-.4,0-.4-.1-.9-.1-1.3,0-.6,0-1.2,0-1.9,0-.7,0-1.4,0-2.2,0-.8,0-1.5,0-2.2,0-.7,0-1.4.2-2,0-.5.1-1,.2-1.4,0-.2.2-.3.3-.4.1,0,.3-.1.5,0,.2,0,.3.1.4.3,0,.2.1.3,0,.5-.1.5-.2.9-.2,1.4,0,.6-.1,1.2-.2,1.9,0,.7,0,1.4,0,2.1,0,.7,0,1.4,0,2,0,.7,0,1.3,0,1.8,0,.5,0,1,.1,1.3,0,.2,0,.4-.1.5,0,.1-.2.2-.4.3h0ZM245.4,337.6c.3,0,.6,0,.9-.3.2-.2.3-.5.2-.8v-.3c-.4,0-.7-.1-1.1-.1-.3,0-.6,0-.9.2-.2.1-.3.3-.3.6,0,.2,0,.4.3.5.3.2.6.2.9.2ZM255.9,339.7c-.2,0-.3,0-.4-.2-.1-.1-.2-.3-.2-.5v-6.1c-.4.8-.8,1.6-1.3,2.3,0,.1-.2.3-.4.3-.2,0-.3,0-.5,0-.1,0-.2-.2-.3-.4,0-.2,0-.3,0-.4.2-.3.4-.7.7-1.1.2-.4.5-.8.7-1.3.2-.4.4-.9.6-1.3.2-.4.3-.8.4-1.1h0s-1.7,0-1.7,0c-.2,0-.3,0-.4-.2-.1-.1-.2-.3-.2-.4,0-.2,0-.3.2-.4.1-.1.3-.2.4-.2h1.7v-2.4c0-.2,0-.3.2-.4.1-.1.3-.2.4-.2.3,0,.6.2.6.6,0,0,0,0,0,0v2.4h1.2c.2,0,.3,0,.4.2.1.1.2.2.2.4.4-.3.7-.6,1.1-1s.7-.7,1-1c.3-.3.5-.6.7-.9.2-.3.6-.5,1-.6.4,0,.8.2,1,.5.3.4.7.7,1.1,1.1.4.4.9.8,1.4,1.1.5.4.9.7,1.3.9.2,0,.3.2.3.4,0,.2,0,.4-.1.5,0,.2-.3.3-.5.3-.2,0-.4,0-.5-.1-.2-.1-.3-.2-.5-.4-.2-.1-.3-.3-.5-.4,0,0,0,0,0,.1,0,0,0,0,0,.1,0,.2,0,.3-.2.4-.1.1-.3.2-.4.2h-1.6v1.1h1c.4,0,.8,0,1.2.2.3,0,.5.3.6.6.1.4.2.8.2,1.2,0,.4,0,.8-.2,1.2-.1.3-.3.5-.6.6-.4.1-.8.2-1.2.2h-.6c.4.6.9,1.1,1.5,1.6.6.5,1.2.8,2,1.1.1,0,.3.2.3.4,0,.2,0,.3,0,.5,0,.2-.2.3-.4.3-.2,0-.4,0-.5,0-.7-.3-1.4-.8-2-1.3-.6-.5-1.1-1.1-1.6-1.7-.3.8-.9,1.4-1.6,1.9-.8.6-1.7,1-2.6,1.2-.2,0-.3,0-.5,0-.2,0-.3-.2-.3-.3,0-.1,0-.3,0-.5,0-.2.2-.3.3-.3,1.9-.6,3.1-1.5,3.6-2.8h-.7c-.4,0-.8,0-1.2-.2-.3,0-.5-.3-.6-.6-.1-.4-.2-.8-.2-1.2,0-.4,0-.8.2-1.2.1-.3.3-.5.6-.6.4-.1.8-.2,1.2-.2h1v-1.1h-1.7c-.2,0-.3,0-.4-.2-.1-.1-.2-.2-.2-.4l-.4.4c-.1.1-.3.2-.4.3-.1.1-.3.2-.5.2-.2,0-.3,0-.4-.2,0-.1-.1-.2-.1-.4,0-.1,0-.3,0-.4h-1v.7c.2.2.3.4.6.7.2.3.5.6.7.8.2.3.4.5.6.7.1.1.2.3.2.5,0,.2,0,.3-.2.5-.1.1-.3.2-.5.1-.2,0-.3,0-.4-.2-.1-.1-.2-.3-.4-.5l-.5-.7v6.5c0,.2,0,.3-.2.5-.1.1-.3.2-.4.2h0ZM264.7,329.5c-.4-.3-.8-.7-1.1-1-.4-.4-.7-.7-1-1-.1-.2-.4-.3-.6-.1,0,0-.1.1-.2.2-.2.3-.5.6-.8.9s-.6.7-1,1h4.5s0,0,.1,0ZM262.9,334.4h.8c.2,0,.4,0,.6,0,.1,0,.2-.1.3-.2,0-.2,0-.4,0-.5,0-.2,0-.4,0-.5,0-.1-.2-.2-.3-.2-.2,0-.4,0-.6,0h-.8v1.3c0,0,0,.2,0,.3h0ZM260.9,334.4h.7c0,0,0-.2,0-.3s0-.2,0-.3v-1.1h-.8c-.2,0-.4,0-.6,0-.1,0-.2,0-.3.2,0,.2,0,.4,0,.5,0,.4,0,.6.2.7.3.1.5.1.8.1h0ZM275,339.8c-.4,0-.7-.3-.7-.7v-3.2c-1,0-2,0-2.9.1-.9,0-1.7,0-2.4,0-.4,0-.7-.2-.7-.6,0-.2,0-.3.2-.5.1-.1.3-.2.5-.2.5,0,1.1,0,1.9,0h2.3c0-.1.1-.2.2-.2s.1-.1.2-.2c-.4-.3-.9-.6-1.5-.9s-1-.6-1.4-.8c-.1,0-.2-.2-.3-.4,0-.2,0-.3,0-.5,0-.1.2-.2.4-.3.2,0,.3,0,.5,0,.1,0,.3.2.5.3l.6.3c.1-.2.3-.4.5-.6l.5-.7c.1-.2.3-.4.4-.6,0,0,0,0,0,0,0,0,0,0,0,0h-3c-.3,0-.6,0-.9.2-.2.2-.3.4-.2.7v.5c0,.2,0,.4-.2.5-.3.2-.7.2-.9,0-.1-.1-.2-.3-.2-.5v-.5c0-.6.1-1.1.5-1.5.6-.4,1.2-.5,1.9-.4h3.3v-1.1h-5c-.2,0-.3,0-.4-.2-.1-.1-.2-.2-.2-.4,0-.2,0-.3.2-.4.1-.1.3-.2.4-.2h5v-.7c0-.2,0-.4.2-.5.3-.2.7-.2,1,0,.1.1.2.3.2.5v.7h5.1c.3,0,.6.2.6.5,0,0,0,0,0,0,0,.2,0,.3-.2.4-.1.1-.3.2-.4.2h-5.1v1.1h3.3c.7,0,1.3,0,1.9.4.4.4.6.9.5,1.5v.6c0,.2,0,.4-.2.5-.3.2-.7.2-.9,0-.1-.1-.2-.3-.2-.5v-.5c0-.2,0-.5-.2-.7-.3-.2-.6-.2-.9-.2h-3.9c.1,0,.2.2.2.4,0,.2,0,.3-.1.4-.2.2-.4.5-.7.9-.3.4-.6.7-.8.9.2.1.3.2.5.3l.4.3c.3-.3.6-.6.9-.9.3-.3.6-.6.8-.8.2-.3.4-.5.6-.6.1-.1.3-.2.5-.2.2,0,.4,0,.5.2.3.2.3.6,0,.8,0,0,0,0,0,0-.2.2-.4.4-.7.8-.3.3-.7.6-1,1-.4.3-.7.7-1,1,.6,0,1.2,0,1.8,0h1.6c0,0-.4-.4-.4-.4-.1-.1-.2-.2-.4-.3-.1,0-.2-.3-.2-.4,0-.2,0-.3.2-.4.1-.1.3-.2.4-.2.2,0,.3,0,.5.2.3.2.6.5.9.8s.7.6,1,1c.3.3.6.6.8.8.1.1.2.3.2.4,0,.2,0,.3-.2.4-.1.1-.3.2-.5.2-.2,0-.3,0-.4-.2-.1-.1-.2-.3-.4-.4-.1-.1-.3-.3-.5-.5-.5,0-1.1,0-1.8.1h-2v3.4c0,.4-.3.7-.7.7h0ZM279.9,339.2c-.3-.1-.6-.3-1-.5s-.7-.4-1.1-.7-.7-.4-.9-.6c-.1-.1-.2-.3-.2-.4,0-.2,0-.3.1-.5.1-.1.3-.2.4-.3.2,0,.3,0,.5.1.3.2.6.4.9.6.3.2.7.4,1,.6.3.2.7.4.9.5.2,0,.3.2.3.4,0,.2,0,.3,0,.5,0,.2-.3.3-.5.4-.2,0-.4,0-.6,0h0ZM270.1,339.2c-.2,0-.4.1-.6.1-.2,0-.4-.2-.5-.3,0-.2-.1-.4,0-.5,0-.2.2-.3.4-.4.3-.1.6-.3,1-.5.3-.2.7-.4,1-.6.3-.2.6-.4.9-.6.1-.1.3-.2.5-.1.2,0,.3.1.4.3.1.1.1.3.1.5,0,.2-.1.3-.3.4-.2.2-.5.4-.9.6-.3.2-.7.4-1,.6-.3.2-.7.4-1,.6h0Z"/>
        <g id="_グループ_4709" data-name="グループ_4709">
          <g id="_グループ_4747" data-name="グループ_4747">
            <g id="_長方形_426" data-name="長方形_426">
              <rect class="cls-1" x="132" y="351.4" width="62" height="24"/>
              <rect class="cls-3" x="132.5" y="351.9" width="61" height="23"/>
            </g>
            <rect id="_長方形_427" data-name="長方形_427" class="cls-5" x="193" y="351.4" width="62" height="24"/>
            <path id="_パス_10392" data-name="パス_10392" class="cls-5" d="M157,368.4c-.1,0-.3,0-.4-.1-.1-.1-.2-.2-.2-.4v-3.6c-.6.7-1.2,1.3-1.9,1.9-.7.6-1.4,1.1-2.2,1.6-.1,0-.3.1-.4,0-.2,0-.3-.1-.4-.2,0-.1-.1-.3,0-.4,0-.1.1-.3.3-.3.5-.3,1-.6,1.5-.9.5-.4,1-.7,1.4-1.2.4-.4.8-.8,1.2-1.2h-3.7c-.1,0-.3,0-.4-.1,0,0-.2-.2-.1-.3,0-.1,0-.3.1-.4,0,0,.2-.2.4-.2h2.5c-.1,0-.2-.1-.3-.2,0-.1-.1-.3-.3-.4-.1-.2-.2-.4-.4-.6s-.2-.4-.3-.5c0-.1-.1-.2,0-.4,0-.1.1-.2.2-.3.1,0,.3-.1.4,0,.1,0,.3.1.3.2,0,.1.2.3.3.5.1.2.3.4.4.6.1.2.2.3.3.5,0,.1.1.3,0,.4,0,.1-.1.3-.3.3,0,0,0,0-.1,0h1.5v-2.7h-3.8c-.1,0-.3,0-.3-.1,0,0-.1-.2-.1-.3,0-.1,0-.3.1-.4,0,0,.2-.2.3-.1h3.8v-1c0-.1,0-.3.2-.4.1,0,.2-.2.4-.2.1,0,.3,0,.4.1.1.1.2.2.2.4v1h3.8c.1,0,.3,0,.3.1,0,0,.1.2.1.4,0,.1,0,.3-.1.3,0,0-.2.1-.3.1h-3.8v2.7h1.3,0c-.1,0-.2-.2-.3-.3,0-.1,0-.3,0-.4,0-.1.2-.3.3-.5.1-.2.3-.4.4-.6.1-.2.2-.4.3-.5,0-.1.2-.2.3-.3.1,0,.3,0,.4,0,.1,0,.2.2.3.3,0,.1,0,.3,0,.4,0,.1-.2.3-.3.5-.1.2-.3.4-.4.6-.1.2-.2.4-.3.5,0,0-.2.2-.3.2h2.6c.1,0,.3,0,.4.2,0,0,.2.2.1.4,0,.1,0,.3-.1.3,0,0-.2.1-.4.1h-3.7c.4.4.8.8,1.2,1.2.5.4.9.8,1.4,1.1.5.3,1,.6,1.5.9.1,0,.2.2.3.3,0,.1,0,.3,0,.4,0,.1-.2.2-.4.3-.2,0-.3,0-.5,0-.5-.3-1-.6-1.4-.9-.5-.4-1-.8-1.4-1.2-.4-.4-.8-.8-1.2-1.3v3.6c0,.1,0,.3-.2.4-.1.1-.2.2-.4.2ZM172.4,368.5c-.1,0-.3,0-.4-.2-.1,0-.2-.2-.2-.4v-5.7h-1.4c0,1.1-.3,2.3-.7,3.3-.4.9-1,1.8-1.8,2.4-.1.1-.3.2-.4.2-.2,0-.3,0-.4-.2-.1-.1-.2-.3-.2-.4,0-.2,0-.3.2-.4.5-.4,1-.9,1.3-1.4.3-.6.6-1.2.7-1.8.2-.8.2-1.5.2-2.3v-1.4c0-.4,0-.8.2-1.1,0-.3.3-.5.5-.6.3-.2.6-.3,1-.4.4,0,.8-.2,1.3-.3s.9-.2,1.3-.4c.1,0,.3,0,.4,0,.1,0,.2.2.3.3,0,.1,0,.3,0,.4,0,.1-.2.2-.3.3-.4.1-.8.2-1.3.3s-.9.2-1.3.3c-.2,0-.4.1-.6.2-.1,0-.2.2-.3.3,0,.2,0,.4,0,.6v.9h3.6c.1,0,.3,0,.4.2,0,0,.1.2.1.4,0,.1,0,.3-.1.4,0,.1-.2.2-.4.2h-1.1v5.7c0,.1,0,.3-.2.4-.1.1-.2.2-.4.2h0ZM163.5,368.3c-.1,0-.2-.2-.3-.3,0-.1,0-.3,0-.4.4-.6.6-1.2.8-1.9.2-.8.3-1.5.3-2.3v-1.4c0-.4,0-.8.2-1.2.1-.3.3-.5.6-.6.4-.1.8-.2,1.2-.2.4,0,.8,0,1.2.2.3.1.5.3.6.6.1.4.2.8.2,1.2,0,.4,0,.8-.2,1.2-.1.3-.3.5-.6.6-.4.1-.8.2-1.2.2h-1c0,.8-.1,1.6-.3,2.3-.2.6-.5,1.3-.8,1.9,0,.1-.2.2-.3.3-.1,0-.3,0-.4,0ZM164.2,359.1c-.1,0-.3,0-.3-.1,0,0-.1-.2-.1-.3,0-.1,0-.3.1-.3,0,0,.2-.1.3-.1h4.2c.1,0,.3,0,.3.1,0,0,.1.2.1.3,0,.1,0,.2-.1.3,0,0-.2.1-.3.1h-4.2ZM165.4,363h1c.2,0,.4,0,.6,0,.1,0,.2-.1.3-.3,0-.2,0-.4,0-.6,0-.3,0-.5-.2-.8-.2-.1-.5-.2-.8-.2-.2,0-.4,0-.6,0-.1,0-.2.1-.3.3,0,.2,0,.4,0,.6v.9Z"/>
            <path id="_パス_10391" data-name="パス_10391" class="cls-1" d="M214.4,367.4c-.3,0-.6-.2-.6-.5l-1.7-7.3c0-.2,0-.3,0-.5,0-.1.2-.2.4-.2.3,0,.6.2.7.5,0,0,0,0,0,0l1.3,5.9,1.6-5.9c0-.3.3-.5.6-.5.3,0,.6.2.6.5l1.6,5.9,1.3-5.9c0-.3.3-.5.6-.5.2,0,.3,0,.4.2,0,.1.1.3,0,.5l-1.7,7.3c0,.3-.3.5-.6.5-.3,0-.6-.2-.6-.5l-1.7-6.1-1.7,6.1c0,.3-.3.5-.6.5ZM223.2,367.4c-.3,0-.5-.2-.6-.4,0,0,0-.1,0-.2v-7.2c0-.3.1-.5.4-.6,0,0,.1,0,.2,0h4.3c.4,0,.6.2.6.5s-.2.5-.6.5h-3.8v2.6h3.4c.4,0,.6.2.6.5s-.2.5-.6.5h-3.4v2.7h3.9c.4,0,.6.2.6.5s-.2.5-.6.5h-4.4ZM230.2,367.4c-.3,0-.5-.1-.5-.4,0,0,0,0,0-.1v-7.3c0-.3.1-.5.4-.5,0,0,0,0,.1,0h2.8c.6,0,1.3.2,1.7.5.4.4.7,1,.6,1.6,0,.4,0,.8-.3,1.2-.2.3-.5.5-.9.7.5.1.9.4,1.1.8.3.4.5.9.4,1.4,0,.6-.2,1.3-.7,1.7-.6.4-1.2.6-1.9.6h-3ZM230.7,366.4h2.3c.4,0,.8,0,1.2-.3.3-.3.4-.6.4-1,0-.4-.1-.8-.4-1-.3-.3-.7-.4-1.1-.4h-2.2v2.8ZM230.7,362.6h2.1c.4,0,.7-.1,1-.4.2-.3.4-.6.3-.9,0-.8-.5-1.2-1.4-1.2h-2v2.5Z"/>
          </g>
        </g>
        <g id="_グループ_4711" data-name="グループ_4711">
          <g class="cls-6">
            <g id="_グループ_620" data-name="グループ_620">
              <path id="_パス_875" data-name="パス_875" d="M125,28.2c0-2.8,1.2-5.5,3.2-7.6l2.4,1.4c-1.9,1.5-2.9,3.9-2.9,6.3,0,3.8,3,6.8,7.4,6.8,4.8,0,8.7-3.9,8.9-8.7,0-7.4-11.6-7.6-11.4-16.6,0-4.7,4.5-9.7,10.6-9.7s9.8,5.8,7.2,11.9h-2.8c2.4-5.5-.4-9.5-4.7-9.5-4,0-7.3,3.1-7.6,7.1-.2,7.8,11.4,7.9,11.4,16.8-.2,6.3-5.4,11.3-11.8,11.3-6,0-9.9-3.9-9.9-9.3"/>
              <path id="_パス_876" data-name="パス_876" d="M164.5,22.4v2.8c-1.8,4-5.4,8.1-8.7,8.1-6.2,0-4.4-8-1.5-16.2h-2.8l.8-2.3h2.8c.9-2.5,1.8-4.9,2.6-7.1h2.6c-1,2.5-1.9,4.9-2.6,7.1h4.4l-.8,2.3h-4.5c-3,8.7-3.8,13.7-.8,13.7s5.7-3.7,8.5-8.5"/>
              <path id="_パス_877" data-name="パス_877" d="M181.6,22.3v2.9c-1.8,4.4-5.8,8.1-11.7,8.1-4.9,0-7.6-3.2-7.6-7,0-6.3,4-11.9,9.1-11.9,2.6-.1,4.8,1.9,5,4.5,0,.1,0,.2,0,.4,0,5.3-5.3,8.5-11.5,7.2.2,2.5,1.8,4.4,5.5,4.4s8.5-3.9,11.2-8.6M165.1,24.2c4.2,1.2,8.7-1,8.7-4.8,0-1.4-.9-2.5-2.3-2.6,0,0,0,0-.1,0-3.2,0-5.7,3.5-6.3,7.4"/>
              <path id="_パス_878" data-name="パス_878" d="M173.2,45.5c3.4-10,6.8-20.8,10.2-30.7h2.5l-1.7,4.3c.9-1.7,3.6-4.7,7-4.7s4.6,2.4,4.6,6c0,5.5-4,12.9-9.9,12.9-2.1,0-4.1-.8-5.4-2.4-1.3,3.7-3,9-4.6,14.6h-2.7ZM193.2,20.4c0-2.1-1-3.6-2.7-3.6-2.7,0-6.4,3.2-9.1,11.5.8,1.6,2.1,2.6,4.5,2.6,4.1,0,7.2-5.5,7.2-10.5"/>
              <path id="_パス_879" data-name="パス_879" d="M205.1,26.4c0-11.3,8.3-26.2,17.9-26.2s8.5,3.9,8.5,11.6c0,11.4-8,25.8-17.8,25.8s-8.7-3.7-8.7-11.2M228.8,12.1c0-5.8-2.3-9.3-6.1-9.3-7.5,0-14.8,13.8-14.8,23.5s2.1,8.9,6.1,8.9c7.7,0,14.8-13.5,14.8-23"/>
              <path id="_パス_880" data-name="パス_880" d="M233.9,34.7h16.6l-.8,2.4h-19.7l-.6-2.7c9.4-4.4,24.6-14,24.6-24.5s-2.7-7.1-6.5-7.1-8,4.2-8,8.3c0,1.6.3,3.2,1,4.6l-2.4,1.2c-1-1.8-1.5-3.8-1.4-5.8.2-6,5-10.7,11-10.8,5.4,0,9.1,4,9.1,9.6,0,10.8-14.4,21.1-23.1,24.9"/>
            </g>
          </g>
        </g>
      </g>
    </g>
  </g>
</svg>