<svg xmlns="http://www.w3.org/2000/svg" xmlns:xlink="http://www.w3.org/1999/xlink" width="385" height="409" viewBox="0 0 385 409">
  <defs>
    <clipPath id="clip-path">
      <rect id="長方形_432" data-name="長方形 432" width="132.267" height="45.542" fill="none"/>
    </clipPath>
    <clipPath id="clip-path-2">
      <rect id="長方形_433" data-name="長方形 433" width="26.258" height="17.257" fill="#ed6a1f"/>
    </clipPath>
    <clipPath id="clip-path-3">
      <rect id="長方形_1072" data-name="長方形 1072" width="385" height="385" rx="10" transform="translate(966 7419.134)" fill="#fff" stroke="#fff" stroke-width="1"/>
    </clipPath>
    <clipPath id="clip-path-4">
      <rect id="長方形_1071" data-name="長方形 1071" width="341.835" height="282.357" transform="translate(0 0)" fill="none"/>
    </clipPath>
  </defs>
  <g id="グループ_4746" data-name="グループ 4746" transform="translate(-966 -7395.134)">
    <g id="長方形_1047" data-name="長方形 1047" transform="translate(966 7419.134)" fill="#fff" stroke="#fff" stroke-width="1">
      <rect width="385" height="385" rx="10" stroke="none"/>
      <rect x="0.5" y="0.5" width="384" height="384" rx="9.5" fill="none"/>
    </g>
    <path id="パス_10380" data-name="パス 10380" d="M75.268,22.386q-.918.252-1.17-.5a.8.8,0,0,1,.045-.63.821.821,0,0,1,.567-.414,18.444,18.444,0,0,0,3.348-1.161A12.838,12.838,0,0,0,80.866,17.9a14.965,14.965,0,0,1-1.26-1.611,15.259,15.259,0,0,1-1.08-1.863.776.776,0,0,1-.027-.621.8.8,0,0,1,1.008-.45.8.8,0,0,1,.441.423A14.211,14.211,0,0,0,82,16.806a13.364,13.364,0,0,0,1.125-1.413,14.207,14.207,0,0,0,.981-1.647.822.822,0,0,1,.468-.432.78.78,0,0,1,.63.054.677.677,0,0,1,.387.423.844.844,0,0,1-.081.657A14.938,14.938,0,0,1,83.134,17.9a11.744,11.744,0,0,0,2.835,1.782,17.714,17.714,0,0,0,3.285,1.08.829.829,0,0,1,.585.4.817.817,0,0,1,.045.684.764.764,0,0,1-.459.522,1.21,1.21,0,0,1-.747.018,19.492,19.492,0,0,1-3.6-1.332A14.162,14.162,0,0,1,81.982,19a14.745,14.745,0,0,1-3.033,2A20.582,20.582,0,0,1,75.268,22.386Zm-.54-12.366a.738.738,0,1,1,0-1.476h6.426V6.708a.768.768,0,0,1,.252-.6A.863.863,0,0,1,82,5.88a.886.886,0,0,1,.612.225.768.768,0,0,1,.252.6V8.544h6.39a.7.7,0,0,1,.54.216.787.787,0,0,1,0,1.044.7.7,0,0,1-.54.216Zm1.152,4.932a.925.925,0,0,1-.675.126.823.823,0,0,1-.531-.378.77.77,0,0,1,.288-1.062,15.243,15.243,0,0,0,1.4-.927q.72-.531,1.4-1.134a16,16,0,0,0,1.2-1.179.817.817,0,0,1,.576-.27.725.725,0,0,1,.576.216.776.776,0,0,1,.243.54.767.767,0,0,1-.225.558,15.122,15.122,0,0,1-1.242,1.242q-.72.648-1.5,1.242A16.834,16.834,0,0,1,75.88,14.952ZM88.1,14.718q-.738-.414-1.548-.972t-1.548-1.161q-.738-.6-1.3-1.125a.761.761,0,0,1-.018-1.1.742.742,0,0,1,.567-.225.841.841,0,0,1,.567.225q.576.54,1.3,1.1T87.589,12.5a14.367,14.367,0,0,0,1.395.81.679.679,0,0,1,.369.459.84.84,0,0,1-.081.621.862.862,0,0,1-.513.405A.823.823,0,0,1,88.1,14.718Zm4.752,7.92a.713.713,0,0,1-.513-.2.689.689,0,0,1-.207-.522V8.6a3.6,3.6,0,0,1,.2-1.35,1.172,1.172,0,0,1,.729-.657A4.9,4.9,0,0,1,94.618,6.4q1.692,0,2.178.675a1.845,1.845,0,0,1,0,1.845q-.108.252-.225.531t-.243.567a11.236,11.236,0,0,0,1.62-1.827A15.677,15.677,0,0,0,99.19,6.186.749.749,0,0,1,100.2,5.88a.728.728,0,0,1,.342.414.661.661,0,0,1-.054.54,3.178,3.178,0,0,1-.2.342h.612a2.1,2.1,0,0,1,1.53.468q-.054-.2-.108-.387t-.09-.369a.677.677,0,0,1,.1-.558.691.691,0,0,1,.459-.306.778.778,0,0,1,.54.081.663.663,0,0,1,.306.459,9.715,9.715,0,0,0,1.44,3.4q.216-.234.468-.513t.468-.531q.252-.306.189-.477t-.477-.171h-1.1a.5.5,0,0,1-.4-.189.634.634,0,0,1-.162-.423.6.6,0,0,1,.162-.414.513.513,0,0,1,.4-.18h1.4a2.119,2.119,0,0,1,1.422.4,1.1,1.1,0,0,1,.387.99,2.1,2.1,0,0,1-.657,1.206q-.342.378-.657.72t-.621.648a12.063,12.063,0,0,0,2.412,1.98.689.689,0,0,1,.315.495.772.772,0,0,1-.153.585.707.707,0,0,1-.558.315.981.981,0,0,1-.648-.171,15.35,15.35,0,0,1-2.646-2.412,10.671,10.671,0,0,1-1.89-3.258,2.3,2.3,0,0,1-.09.441,3.04,3.04,0,0,1-.2.495,11.081,11.081,0,0,1-1.836,2.682,14.3,14.3,0,0,1-2.5,2.142.891.891,0,0,1-.558.171.658.658,0,0,1-.5-.243.7.7,0,0,1-.144-.531.608.608,0,0,1,.288-.459q.4-.252.756-.5t.7-.54q-.216-.2-.441-.378t-.423-.342a.591.591,0,0,1-.072-.81.567.567,0,0,1,.414-.216.6.6,0,0,1,.432.126q.2.162.45.378t.486.432q.162-.18.315-.36t.279-.36q-.234-.18-.477-.36l-.459-.342a.557.557,0,0,1-.234-.378.511.511,0,0,1,.108-.414.6.6,0,0,1,.4-.243.565.565,0,0,1,.45.1q.18.126.4.306t.459.36q.18-.306.306-.576.234-.45.117-.621t-.639-.171H99.55Q99.01,9.1,98.4,9.813a16.586,16.586,0,0,1-1.206,1.269.863.863,0,0,1-.522.225.606.606,0,0,1-.522-.207.585.585,0,0,1-.162-.306l-.162.342a2.589,2.589,0,0,0-.27.873,1,1,0,0,0,.342.621,4.63,4.63,0,0,1,1.224,3.186,2.554,2.554,0,0,1-2.79,2.9.7.7,0,0,1-.756-.378v3.582a.689.689,0,0,1-.207.522A.713.713,0,0,1,92.854,22.638Zm7.866-.126a.955.955,0,0,1-.585-.18.742.742,0,0,1-.279-.558.72.72,0,0,1,.207-.549.883.883,0,0,1,.639-.261,1.516,1.516,0,0,0,.864-.234,1.077,1.077,0,0,0,.18-.738v-2.97H98.164a.662.662,0,0,1-.5-.216.706.706,0,0,1-.207-.5.667.667,0,0,1,.207-.5.691.691,0,0,1,.5-.2h8.91a.678.678,0,0,1,.7.7.722.722,0,0,1-.2.5.654.654,0,0,1-.5.216h-3.762v3.15a2.292,2.292,0,0,1-.612,1.809A3,3,0,0,1,100.72,22.512ZM93.574,17.58a.686.686,0,0,1,.612-.36,1.673,1.673,0,0,0,1.125-.441,1.928,1.928,0,0,0,.333-1.287,2.813,2.813,0,0,0-.288-1.242,5.511,5.511,0,0,0-.7-1.1,3.77,3.77,0,0,1-.477-.729,1.1,1.1,0,0,1-.072-.657,4.06,4.06,0,0,1,.315-.918q.108-.252.27-.666t.333-.837q.171-.423.279-.675a.84.84,0,0,0,.081-.684q-.117-.216-.855-.216a1.244,1.244,0,0,0-.783.162,1,1,0,0,0-.171.7Zm6.768-3.438a.646.646,0,0,1-.486-.207.691.691,0,0,1-.2-.495.676.676,0,0,1,.684-.684h4.41a.683.683,0,0,1,.5.2.661.661,0,0,1,.2.486.691.691,0,0,1-.2.495.667.667,0,0,1-.5.207Zm-2.52,7.182a1.181,1.181,0,0,1-.612.216.7.7,0,0,1-.576-.27.675.675,0,0,1-.171-.558.743.743,0,0,1,.315-.5q.306-.252.738-.63t.873-.81q.441-.432.747-.774a.7.7,0,0,1,.513-.252.639.639,0,0,1,.513.18.709.709,0,0,1,.27.5.775.775,0,0,1-.18.54q-.486.558-1.17,1.242A12.052,12.052,0,0,1,97.822,21.324Zm9.144.072q-.36-.288-.81-.7t-.873-.873q-.423-.459-.747-.855a.7.7,0,0,1-.144-.531.682.682,0,0,1,.27-.477.776.776,0,0,1,.513-.18.622.622,0,0,1,.495.234q.306.324.72.747t.846.819q.432.4.756.648a.676.676,0,0,1,.288.5.748.748,0,0,1-.162.567.757.757,0,0,1-.549.3A.828.828,0,0,1,106.966,21.4Zm15.768,1.026a.821.821,0,0,1-.621-.234.968.968,0,0,1-.261-.594.844.844,0,0,1,.2-.6.8.8,0,0,1,.612-.279,3.647,3.647,0,0,0,.846-.153.546.546,0,0,0,.351-.315,1.883,1.883,0,0,0,.081-.63V12.36h-2.376a3.47,3.47,0,0,1-2.178-.531,2.45,2.45,0,0,1-.648-1.971V8.976a2.635,2.635,0,0,1,.648-2.025,3.23,3.23,0,0,1,2.178-.585H122.7a3.2,3.2,0,0,1,2.16.585,2.635,2.635,0,0,1,.648,2.025V19.938a2.463,2.463,0,0,1-.639,1.908A3.162,3.162,0,0,1,122.734,22.422Zm-11.43.09a.794.794,0,0,1-.558-.216.746.746,0,0,1-.234-.576V8.958a2.6,2.6,0,0,1,.648-2.016,3.267,3.267,0,0,1,2.178-.576h1.044a3.228,3.228,0,0,1,2.169.576,2.626,2.626,0,0,1,.639,2.016v.9a2.471,2.471,0,0,1-.639,1.971,3.429,3.429,0,0,1-2.169.531H112.1v9.36a.746.746,0,0,1-.234.576A.794.794,0,0,1,111.3,22.512Zm8.352-.342a.755.755,0,0,1-.513-.2.662.662,0,0,1-.225-.522V17.778h-1.854a5.387,5.387,0,0,1-.909,2.52A5.335,5.335,0,0,1,114,21.99a.963.963,0,0,1-.594.063.675.675,0,0,1-.468-.351.657.657,0,0,1-.045-.513.618.618,0,0,1,.369-.4,4.523,4.523,0,0,0,1.665-1.215,3.573,3.573,0,0,0,.693-1.791h-2.052a.624.624,0,0,1-.486-.2.673.673,0,0,1-.18-.468.664.664,0,0,1,.18-.477.639.639,0,0,1,.486-.189H115.7V14.7h-1.548a.588.588,0,0,1-.459-.189.654.654,0,0,1,0-.882.588.588,0,0,1,.459-.189h7.7a.583.583,0,0,1,.468.189.681.681,0,0,1,0,.882.583.583,0,0,1-.468.189h-1.458v1.746h2.052a.639.639,0,0,1,.486.189.664.664,0,0,1,.18.477.673.673,0,0,1-.18.468.624.624,0,0,1-.486.2h-2.052V21.45a.674.674,0,0,1-.216.522A.745.745,0,0,1,119.656,22.17Zm2.052-11.178h2.232V9.966h-3.654a1.045,1.045,0,0,0,.36.819A1.992,1.992,0,0,0,121.708,10.992Zm-9.612,0h2.142a1.992,1.992,0,0,0,1.062-.207,1,1,0,0,0,.342-.819H112.1Zm8.19-2.286h3.636a.993.993,0,0,0-.36-.792,2.068,2.068,0,0,0-1.062-.2h-.792a2.075,2.075,0,0,0-1.053.2A.979.979,0,0,0,120.286,8.706Zm-3.15,7.74h1.782V14.7h-1.782Zm-5.04-7.74h3.546a.938.938,0,0,0-.351-.792,2.075,2.075,0,0,0-1.053-.2h-.72a2.075,2.075,0,0,0-1.053.2A.979.979,0,0,0,112.1,8.706Zm17.046,13.23a.856.856,0,0,1-.594.18.723.723,0,0,1-.54-.252.733.733,0,0,1-.162-.531.587.587,0,0,1,.252-.477,10.463,10.463,0,0,0,2.862-3.024q-.27-.2-.549-.378t-.549-.324a2.432,2.432,0,0,1-1.125-1.1,2.585,2.585,0,0,1,.027-1.494q.18-.684.36-1.494t.36-1.638h-1.206a.674.674,0,0,1-.522-.216.722.722,0,0,1-.2-.5.683.683,0,0,1,.2-.5.706.706,0,0,1,.522-.2h1.494q.18-.936.315-1.755t.207-1.431a.7.7,0,0,1,.27-.5.776.776,0,0,1,.576-.144.681.681,0,0,1,.549.279.75.75,0,0,1,.135.585q-.09.612-.234,1.377t-.324,1.593h.828a1.738,1.738,0,0,1,1.962,2.106,16.974,16.974,0,0,1-.36,2.826,11.959,11.959,0,0,1-.81,2.448q.522.4,1,.792t.873.792a.745.745,0,0,1,.252.567.8.8,0,0,1-.252.585.782.782,0,0,1-1.116,0q-.342-.36-.711-.693t-.783-.675A12.39,12.39,0,0,1,129.142,21.936Zm10.152-.162a6.794,6.794,0,0,1-2.232-.288,1.791,1.791,0,0,1-1.1-1.026,5.576,5.576,0,0,1-.306-2.07,5.5,5.5,0,0,1,.306-2.061,1.794,1.794,0,0,1,1.1-1.017,6.794,6.794,0,0,1,2.232-.288,6.71,6.71,0,0,1,2.223.288,1.794,1.794,0,0,1,1.089,1.017,5.5,5.5,0,0,1,.306,2.061,5.576,5.576,0,0,1-.306,2.07,1.791,1.791,0,0,1-1.089,1.026A6.71,6.71,0,0,1,139.294,21.774Zm4.5-7.488a.737.737,0,0,1-.585.081.689.689,0,0,1-.459-.351q-.126-.252-.306-.558t-.378-.63q-.612.09-1.521.207t-1.9.234q-.99.117-1.89.2t-1.494.117a.886.886,0,0,1-.639-.189.74.74,0,0,1-.261-.549.791.791,0,0,1,.171-.549.74.74,0,0,1,.585-.261,8.411,8.411,0,0,0,.882-.054q.2-.486.441-1.179t.5-1.449q.252-.756.459-1.44t.315-1.152a.842.842,0,0,1,.387-.54.8.8,0,0,1,.639-.09.794.794,0,0,1,.576.99q-.18.594-.468,1.449t-.612,1.737q-.324.882-.612,1.566l1.917-.18,1.719-.162q-.63-.954-1.116-1.62a.584.584,0,0,1-.108-.522.662.662,0,0,1,.324-.432.852.852,0,0,1,.585-.081.771.771,0,0,1,.5.315q.27.36.639.891t.747,1.116q.378.585.711,1.107t.549.882a.745.745,0,0,1,.1.6A.79.79,0,0,1,143.794,14.286Zm-4.5,5.994a4.368,4.368,0,0,0,1.3-.144.891.891,0,0,0,.585-.558,3.582,3.582,0,0,0,.153-1.188,3.5,3.5,0,0,0-.153-1.179.918.918,0,0,0-.585-.558,4.125,4.125,0,0,0-1.3-.153,4.216,4.216,0,0,0-1.305.153.921.921,0,0,0-.594.549,3.416,3.416,0,0,0-.153,1.17,3.511,3.511,0,0,0,.153,1.17.945.945,0,0,0,.594.576A4,4,0,0,0,139.294,20.28Zm-7.65-3.78a10.641,10.641,0,0,0,.6-1.98,16.049,16.049,0,0,0,.279-2.142,1.019,1.019,0,0,0-.162-.774,1.013,1.013,0,0,0-.72-.2h-.666q-.2.936-.4,1.8t-.369,1.512a1.227,1.227,0,0,0-.027.729,1.148,1.148,0,0,0,.567.513q.216.126.441.261T131.644,16.5Zm62.982,3.708a15.365,15.365,0,0,1-6.651.324,4.426,4.426,0,0,1-3.429-2.52A.819.819,0,0,1,185,16.95a.725.725,0,0,1,.63,0,.834.834,0,0,1,.432.45,2.354,2.354,0,0,0,1.08,1.125,5.351,5.351,0,0,0,1.89.567,11.468,11.468,0,0,0,2.457.027,16.259,16.259,0,0,0,2.763-.495.76.76,0,0,1,.621.09.811.811,0,0,1,.261,1.125A.851.851,0,0,1,194.626,20.208Zm-1.53-9.846a14.1,14.1,0,0,0-2.034-.387,21.575,21.575,0,0,0-2.25-.153,19.554,19.554,0,0,0-2.106.072.915.915,0,0,1-.6-.171.716.716,0,0,1-.3-.531.85.85,0,0,1,.162-.612.736.736,0,0,1,.54-.306,14.341,14.341,0,0,1,1.746-.081q.954.009,1.917.09T192,8.49a13.451,13.451,0,0,1,1.476.288.772.772,0,0,1,.5.36.736.736,0,0,1,.09.612.748.748,0,0,1-.36.513A.813.813,0,0,1,193.1,10.362Zm4.068.612a.568.568,0,0,1-.477.144.629.629,0,0,1-.441-.252q-.234-.324-.513-.666a8.393,8.393,0,0,0-.567-.63.522.522,0,0,1-.18-.4.579.579,0,0,1,.18-.423.533.533,0,0,1,.45-.171.779.779,0,0,1,.45.207q.252.216.6.585t.6.675a.593.593,0,0,1,.135.495A.689.689,0,0,1,197.164,10.974Zm1.566-1.386a.634.634,0,0,1-.918-.09q-.252-.306-.549-.639a7.146,7.146,0,0,0-.6-.6.585.585,0,0,1,.423-1.008.773.773,0,0,1,.441.18q.252.2.63.558t.63.648a.567.567,0,0,1,.171.477A.759.759,0,0,1,198.73,9.588Zm1.008,12.618a.843.843,0,0,1-.4-.495.675.675,0,0,1,.09-.621,9.263,9.263,0,0,0,1.035-2,11.43,11.43,0,0,0,.594-2.466,24.14,24.14,0,0,0,.189-3.222v-1.08a4.278,4.278,0,0,1,.333-1.863,1.856,1.856,0,0,1,1.062-.945,5.7,5.7,0,0,1,1.935-.27h3.492q-.036-.666-.063-1.359t-.027-1.413a.74.74,0,0,1,.234-.585.838.838,0,0,1,.576-.207.915.915,0,0,1,.594.189.73.73,0,0,1,.234.6q0,.72.018,1.413t.072,1.359h5.31a.778.778,0,0,1,.576.216.733.733,0,0,1,.216.54.755.755,0,0,1-.792.774h-5.184a26.482,26.482,0,0,0,.486,2.9,22.189,22.189,0,0,0,.7,2.448,13.259,13.259,0,0,0,1.71-3.456.775.775,0,0,1,.4-.486.765.765,0,0,1,.63-.018.75.75,0,0,1,.459.36.7.7,0,0,1,.027.612,17.9,17.9,0,0,1-1.071,2.475,16.15,16.15,0,0,1-1.4,2.2,7.947,7.947,0,0,0,1.962,2.5.687.687,0,0,0,.495.2q.189-.036.315-.4.072-.18.225-.612t.279-.774a.707.707,0,0,1,.387-.468.787.787,0,0,1,.639-.018.743.743,0,0,1,.477.4.814.814,0,0,1,.045.594q-.126.414-.3.891t-.333.909q-.5,1.3-1.4,1.368a2.7,2.7,0,0,1-1.926-.81,8.8,8.8,0,0,1-1.035-1.071,10.422,10.422,0,0,1-.945-1.377,14.239,14.239,0,0,1-3.672,2.808.879.879,0,0,1-.639.081.808.808,0,0,1-.513-.369.76.76,0,0,1,.306-1.08,12.553,12.553,0,0,0,2.007-1.314,13.752,13.752,0,0,0,1.737-1.656,19.571,19.571,0,0,1-1.017-3.069,29.335,29.335,0,0,1-.657-3.771h-3.6a2.087,2.087,0,0,0-1.314.315,1.624,1.624,0,0,0-.378,1.269v.468h1.89a2.664,2.664,0,0,1,1.827.5,2.106,2.106,0,0,1,.459,1.719,22.538,22.538,0,0,1-.27,2.754,2.533,2.533,0,0,1-.936,1.773,3.926,3.926,0,0,1-2.034.495.986.986,0,0,1-.621-.171.714.714,0,0,1-.315-.549.83.83,0,0,1,.189-.6.759.759,0,0,1,.567-.261,6.04,6.04,0,0,0,.954-.135.649.649,0,0,0,.432-.315,2.27,2.27,0,0,0,.2-.7,9.551,9.551,0,0,0,.144-.945q.054-.513.072-1.035a1.09,1.09,0,0,0-.18-.837,1.291,1.291,0,0,0-.864-.207h-1.53a20.985,20.985,0,0,1-.261,3.051,12.626,12.626,0,0,1-.639,2.4,11.4,11.4,0,0,1-1.062,2.088,1.02,1.02,0,0,1-.54.423A.79.79,0,0,1,199.738,22.206Zm13.3-13.32q-.324-.324-.828-.774t-.828-.7a.572.572,0,0,1-.234-.477.776.776,0,0,1,.18-.513.7.7,0,0,1,.513-.279.78.78,0,0,1,.567.171q.36.27.882.72t.846.756a.707.707,0,0,1,.243.558.734.734,0,0,1-.243.54.83.83,0,0,1-.531.216A.745.745,0,0,1,213.04,8.886Zm4.968,13.05a.7.7,0,0,1-.234-.54.6.6,0,0,1,.234-.5,10.564,10.564,0,0,0,2.736-3.132q-.234-.144-.45-.288t-.432-.27a4.2,4.2,0,0,1-1.008-.792,1.473,1.473,0,0,1-.36-.873,4.591,4.591,0,0,1,.126-1.251q.144-.63.3-1.359t.3-1.5h-1.1a.706.706,0,0,1-.5-.207.662.662,0,0,1-.216-.5.682.682,0,0,1,.216-.513.706.706,0,0,1,.5-.207h1.35q.18-.954.324-1.809t.216-1.521a.707.707,0,0,1,.27-.531.8.8,0,0,1,.576-.135.735.735,0,0,1,.522.261.678.678,0,0,1,.162.585q-.108.648-.252,1.467T220.978,10h.306a2.884,2.884,0,0,1,1.908.5,2.307,2.307,0,0,1,.486,1.926,16.685,16.685,0,0,1-.36,2.6,13.782,13.782,0,0,1-.7,2.241q.468.324.882.648t.72.612a.8.8,0,0,1,.27.558.784.784,0,0,1-.792.8.9.9,0,0,1-.576-.225q-.288-.252-.594-.5l-.612-.5a10.793,10.793,0,0,1-1.224,1.7,16.309,16.309,0,0,1-1.548,1.539.983.983,0,0,1-.567.243A.716.716,0,0,1,218.008,21.936Zm6.84-7.272a.792.792,0,0,1-.594-.081.719.719,0,0,1-.324-.495.679.679,0,0,1,.135-.522.778.778,0,0,1,.513-.27q.162-.036.54-.09V9.57a3.587,3.587,0,0,1,.234-1.449,1.511,1.511,0,0,1,.819-.765A5.747,5.747,0,0,1,227.8,7q.648-.072,1.458-.2t1.629-.279q.819-.153,1.485-.3.738-.162.864.432a.769.769,0,0,1-.036.522.564.564,0,0,1-.414.306q-.63.126-1.287.252t-1.323.216q.036.468.108.909t.144.855h3.042a.634.634,0,0,1,.45.189.611.611,0,0,1,.2.459.678.678,0,0,1-.648.648h-2.664a7.921,7.921,0,0,0,1.242,2.25q.216.288.369.27t.333-.36q.108-.234.207-.432t.189-.432a.647.647,0,0,1,.4-.378.755.755,0,0,1,.558.036.66.66,0,0,1,.306.9q-.144.36-.342.756t-.4.72a1.551,1.551,0,0,1-1.134.909,1.579,1.579,0,0,1-1.3-.657,8.182,8.182,0,0,1-1.107-1.611,11.256,11.256,0,0,1-.819-1.971h-2.7v1.926q.558-.108,1.1-.2t.918-.162q.378-.072.45-.09a.685.685,0,0,1,.549.072.658.658,0,0,1,.261.45.684.684,0,0,1-.09.513.635.635,0,0,1-.45.279l-.54.1q-.45.081-1.071.207t-1.242.243q-.621.117-1.08.207T224.848,14.664Zm3.546,7.488a3.612,3.612,0,0,1-2.4-.621,2.678,2.678,0,0,1-.693-2.079V17.724a2.709,2.709,0,0,1,.693-2.088,3.574,3.574,0,0,1,2.4-.63h1.332a3.574,3.574,0,0,1,2.4.63,2.709,2.709,0,0,1,.693,2.088v1.728a2.678,2.678,0,0,1-.693,2.079,3.612,3.612,0,0,1-2.4.621Zm-7-5.724a11.268,11.268,0,0,0,.558-1.908,15.96,15.96,0,0,0,.27-2.052q.036-.648-.189-.846a1.416,1.416,0,0,0-.891-.2h-.432q-.18.882-.351,1.683t-.315,1.431A1.625,1.625,0,0,0,220,15.4a1.361,1.361,0,0,0,.657.576l.351.2A4.224,4.224,0,0,1,221.392,16.428Zm7,4.374h1.332a2.028,2.028,0,0,0,1.251-.279,1.359,1.359,0,0,0,.333-1.071v-.216h-4.5v.216a1.359,1.359,0,0,0,.333,1.071A2.028,2.028,0,0,0,228.394,20.8Zm-1.584-2.9h4.5v-.18a1.356,1.356,0,0,0-.333-1.08,2.081,2.081,0,0,0-1.251-.27h-1.332a2.081,2.081,0,0,0-1.251.27,1.356,1.356,0,0,0-.333,1.08Zm-.2-8.19h2.376q-.126-.792-.216-1.566-.2.018-.4.045t-.4.045a1.9,1.9,0,0,0-1.089.333,1.361,1.361,0,0,0-.279,1Z" transform="translate(1009 7462.134)" fill="#ed6a1f"/>
    <g id="グループ_4712" data-name="グループ 4712" transform="translate(1087 7395.134)">
      <g id="グループ_622" data-name="グループ 622" transform="translate(0 0)" clip-path="url(#clip-path)">
        <path id="パス_881" data-name="パス 881" d="M0,28.355a11.519,11.519,0,0,1,3.189-7.6l2.392,1.36A7.96,7.96,0,0,0,2.673,28.4c0,3.8,2.955,6.754,7.411,6.754a8.952,8.952,0,0,0,8.864-8.724c0-7.363-11.632-7.551-11.444-16.65C7.6,5.091,12.007.12,18.1.12c6.238,0,9.849,5.769,7.222,11.913H22.513c2.392-5.534-.376-9.521-4.69-9.521a7.56,7.56,0,0,0-7.551,7.082c-.187,7.786,11.444,7.926,11.4,16.791A11.651,11.651,0,0,1,9.9,37.641c-6,0-9.9-3.939-9.9-9.286" transform="translate(0 -0.073)"/>
        <path id="パス_882" data-name="パス 882" d="M80.209,34.368v2.814c-1.829,3.987-5.394,8.114-8.723,8.114-6.192,0-4.362-7.973-1.5-16.181H67.17l.8-2.3h2.814c.891-2.486,1.829-4.925,2.58-7.082h2.626c-.985,2.533-1.876,4.925-2.626,7.082H77.77l-.8,2.3H72.517c-2.955,8.677-3.8,13.742-.8,13.742,2.252,0,5.722-3.705,8.489-8.489" transform="translate(-40.669 -11.949)"/>
        <path id="パス_883" data-name="パス 883" d="M113.79,44.495V47.4c-1.829,4.409-5.769,8.114-11.726,8.114-4.878-.047-7.552-3.189-7.552-7.035,0-6.331,3.987-11.866,9.146-11.866a4.726,4.726,0,0,1,4.971,4.831c0,5.253-5.347,8.536-11.491,7.223.234,2.533,1.782,4.456,5.487,4.456,4.784,0,8.536-3.893,11.163-8.63m-16.51,1.923c4.174,1.219,8.724-.985,8.724-4.784a2.462,2.462,0,0,0-2.439-2.626c-3.189,0-5.722,3.518-6.285,7.41" transform="translate(-57.225 -22.169)"/>
        <path id="パス_884" data-name="パス 884" d="M122.215,67.711c3.424-10.037,6.848-20.777,10.178-30.674h2.533l-1.735,4.268c.938-1.689,3.612-4.691,7.035-4.691,2.814,0,4.643,2.439,4.643,5.957,0,5.488-3.987,12.944-9.849,12.944a6.953,6.953,0,0,1-5.441-2.392c-1.313,3.658-3,9.005-4.643,14.587Zm20.027-25.093c0-2.063-.985-3.564-2.72-3.611-2.72-.094-6.378,3.236-9.052,11.538.8,1.594,2.064,2.579,4.549,2.579,4.08,0,7.223-5.488,7.223-10.506" transform="translate(-73.998 -22.169)"/>
        <path id="パス_885" data-name="パス 885" d="M203.055,26.813c0-11.256,8.3-26.218,17.917-26.218,5.018,0,8.536,3.893,8.536,11.632,0,11.351-7.973,25.8-17.776,25.8-5.16,0-8.677-3.705-8.677-11.21m23.686-14.352c0-5.769-2.251-9.287-6.144-9.287-7.5,0-14.821,13.789-14.821,23.451,0,5.629,2.111,8.865,6.144,8.865,7.692,0,14.821-13.461,14.821-23.029" transform="translate(-122.944 -0.36)"/>
        <path id="パス_886" data-name="パス 886" d="M283.2,18.293a9.513,9.513,0,0,1,6.66,9.146c0,5.675-4.5,10.225-11.538,10.225-5.628,0-9.9-3.236-11.069-8.349l2.579-1.173a8.344,8.344,0,0,0,8.583,7.035c5.253,0,8.724-3.236,8.724-7.926,0-4.737-3.611-7.739-9.38-8.208l.656-2.3c5.91.563,12.945-2.2,12.945-8.583,0-3.518-2.3-5.769-5.863-5.769-3.236,0-6.332,2.439-8.114,5.628l-2.158-1.266A12.264,12.264,0,0,1,285.921,0a7.765,7.765,0,0,1,8.161,7.88c0,6.52-5.769,9.99-10.881,10.412" transform="translate(-161.814 -0.001)"/>
      </g>
    </g>
    <g id="グループ_4713" data-name="グループ 4713" transform="translate(1160.609 7467.505)">
      <g id="グループ_627" data-name="グループ 627" transform="translate(0 0)" clip-path="url(#clip-path-2)">
        <path id="パス_887" data-name="パス 887" d="M.081,11.217l.3-.116q.009.206.018.412a1.8,1.8,0,0,0,.523.184C.836,11.42.892,11.463.6,11.4l.09-.314A.8.8,0,0,1,.377,10.9l-.1,0,.094-.21-.1,0c0-.035,0-.068,0-.1l.1,0c0-.069-.006-.137-.009-.205l.313.089c0-.068-.006-.137-.009-.205-.4-.033-.292-.115-.627-.18.022-.235,0-.266.086-.416l.1,0c0-.1-.009-.206-.013-.309l.1,0c0-.1-.009-.206-.014-.309l.1,0c.03-.1.06-.209.089-.313a.837.837,0,0,1-.33-.5L.468,8.21C.465,8.141.462,8.073.459,8L.768,7.99c0-.034,0-.069,0-.1L.454,7.9c0-.034,0-.068,0-.1l-.1,0c0,.034,0,.069,0,.1l-.1,0c0-.068-.006-.137-.009-.206l.3-.116c0-.069-.006-.137-.009-.206l-.1,0a.18.18,0,0,1,.094-.21L.4,6.666l-.3.116c.03-.1.06-.209.09-.314l-.1,0,0-.1.3-.116c.026-.208.051-.415.076-.623l.206-.009c0-.035,0-.069,0-.1l-.309.014L.443,5.22l.1,0C.514,5.047.4,5.1.322,4.812l.519.082c0-.035,0-.069,0-.1l.515-.022.111.2L2.7,4.917c0,.035,0,.068,0,.1l.824-.036c0-.034,0-.068,0-.1l1.141.157c0-.069-.006-.137-.009-.205.284.047.463.287.832.17l0-.1.309-.013c0-.035,0-.068,0-.1l.1,0,.111.2c.222.067.855-.215,1.021-.249,0,.035,0,.068,0,.1l.1,0c0-.035,0-.068,0-.1l2.372,0,.112.2.1,0,0-.1.721-.031.112.2.51-.125,0,.1.206-.009c0,.034,0,.068,0,.1.123.02.169-.174.407-.12,0,.034,0,.068,0,.1.686-.029,1.423-.309,2.109-.339,0,.034,0,.069,0,.1L14.1,4.8c0,.034,0,.068,0,.1l.721-.031c0,.034,0,.069,0,.1l.514-.022,0,.1.618-.027c0-.034,0-.068,0-.1l.1,0c0,.035,0,.069,0,.1l.819-.138c0,.035,0,.069,0,.1l.309-.013c0-.034,0-.068,0-.1.2-.238-.086.1.006-.263l.1,0c-.007-.171-.015-.343-.022-.515l.1,0a6.724,6.724,0,0,0-.255-2.113q-.024-.566-.048-1.133l.1,0L17.379.52l.206-.009c.063-.141-.142-.319-.078-.459a1.714,1.714,0,0,1,.838,0l.116.3.21.094,0-.1.1,0c.178.395.206-.253.7-.179l-.089.314c.348.022.535.064.677.292l.1,0-.09.313.412-.017.017.412c.447.115.277.075.224.4l.1,0c.006.137.012.275.018.412l.514-.022,0,.1.1,0-.094.21c.042.14.074-.043.108.1l-.1,0c0,.035,0,.069,0,.1l.1,0,.12.407c.209.052.232-.264.354-.152l.1,0-.094.209.1,0c0,.068.006.137.009.207.208.053.088-.018.21.094l.1,0c0,.034,0,.069,0,.1l-.205.009q.006.156.013.309l.309-.013c0,.1.009.206.013.309l.309-.013c0,.1.829.328.833.431.069,0-.007.24.062.238.1.313.264.374.438.6l.1,0c0,.1.009.206.014.309l-.309.013c0,.035,0,.069,0,.1l-.1,0c0,.034,0,.068,0,.1a2.024,2.024,0,0,0,.828.068,3.022,3.022,0,0,1,.447.806c.208.053.088-.018.21.094l.1,0c.008.172.015.343.022.515l.1,0c0,.069.006.137.009.206l.1,0,.017.412c.071.339.273.38.537.493a1.183,1.183,0,0,1-.269.939l-.2.113c-.09.164.05.307-.085.415-.08.065-.352,0-.408.121l.12.407-.1,0,0,.1-.309.013c-.008.261.014.363-.081.519l-.1,0c0,.069.006.138.009.207l-.2.111c0,.1.009.205.013.309-.1.039-.947.031-1.048.07q-.044.157-.09.313l-.1,0c-.208.268.165-.24.095.16a4.488,4.488,0,0,0-1.053.832l-.1.005c0,.1.009.206.013.309a1.2,1.2,0,0,0-.4.222c0,.034,0,.069,0,.1l-.313-.09c-.005.445-.049.353-.179.627l-.51.124c.006.137.012.275.018.412-.413.134-.214.261-.708.34-.107.521-.282.27-.492.537l.111.2-.3.116.111.2-.1,0c0,.035,0,.069,0,.1l-.416-.086-.09.314a.948.948,0,0,0-.4.223c0,.035,0,.069,0,.1l-.412.018c0,.035,0,.069,0,.1l-.206.009c0,.034,0,.068,0,.1l-.1,0c0-.035,0-.068,0-.1-.172.007.03.035-.142.042,0-.1-.009-.207-.013-.309a.609.609,0,0,1-.541-.6l.1,0,0-.1-.1,0c0-.069-.006-.137-.009-.206L16.85,16q-.016-.36-.031-.721l.206-.009a2.743,2.743,0,0,0-.12-.407l.1,0c0-.069-.006-.137-.009-.205l.206-.009a3.6,3.6,0,0,1,.072-.726l-.309.013a1.376,1.376,0,0,1,.072-.725l.2-.112c-.067-.24-.167-.08-.228-.506l-1.128.151c0-.034,0-.069,0-.1-.137.006-.648-.008-.785,0,0-.034,0-.068,0-.1l-.613.13c0-.034,0-.068,0-.1-.313-.024-.216.187-.3.219l-.725-.072-1.643.174,0-.1c-.228-.014-.271.132-.4.224,0,.035,0,.068,0,.1l-.515.022c0-.035,0-.068,0-.1-.132-.012-.164.175-.407.121,0-.035,0-.068,0-.1l-.412.017c0-.034,0-.069,0-.1l-.309.013c0-.034,0-.069,0-.1-.093-.01-.382.245-.613.13,0-.035,0-.069,0-.1l-.1,0c.03-.1.06-.209.09-.313l-.1,0A1.01,1.01,0,0,0,8.923,13l-1.343-.046c0-.034,0-.068,0-.1l-.622-.077,0-.1a.275.275,0,0,0-.3.116l-.828-.068c0-.069-.006-.137-.009-.206-.179.037-.2.112-.2.112-.2.066-.342-.124-.416-.086,0,.035,0,.069,0,.1a.644.644,0,0,1-.635-.385l-.206.009c0,.035,0,.069,0,.1l-.1,0a.412.412,0,0,0,.215.2.617.617,0,0,1-.716.134c0-.035,0-.068,0-.1l-.511.125-.111-.2c-.144-.023.042.07-.1.107l-.309.013c0,.035,0,.069,0,.1l-.416-.085c0,.069.006.137.009.206l-.206.008c0,.069.006.137.009.206a3.035,3.035,0,0,0-.725-.072q-.01-.257-.022-.515a1.971,1.971,0,0,0-.716.134l-.335-.6-.206.008Q.109,11.886.1,11.731l-.1,0c.027-.173.054-.346.081-.519M25.64,8.63c0,.1.009.206.013.309.32-.115.152-.063.514-.022,0-.069-.006-.137-.009-.206-.475-.04-.259-.087-.528-.286l-.095.21.1,0M20.8,8.475,21,8.466c0-.069-.006-.137-.009-.206l-.206.009c0,.069.006.137.009.206m-1.54,7.388s.033.014.2-.215c-.026.026-.277.119-.2.215m-1.925-3.079.206-.009c-.07-.2.011-.09-.111-.2,0-.034-.376-.088-.378-.122l-.1,0c0,.1.382.226.386.329m-.848-6.29c-.2.07-.089-.01-.2.111.2-.071.089.011.2-.111m-2.36,2.678.1,0c0-.034,0-.069,0-.1l.1,0c0-.034,0-.068,0-.1l-.206.008c0,.069.006.137.009.206m-.128-2.985c0-.035,0-.069,0-.1l-.309.013-.09.313L13.9,6.4c.053-.208-.018-.088.094-.21m-.387,3.007c0,.034,0,.068,0,.1.155-.046.441-.143.4-.327-.033-.142-.085.046-.107-.1l-.309.013c0,.034,0,.069,0,.1l-.1,0c.07.2-.011.09.111.2M13,9.426l.206-.009,0-.1c-.208-.054-.088.017-.21-.1l-.1.005.112.2m-1.128.151.922-.142c-.17-.144-.612-.088-.931-.063,0,.069.006.137.009.205M11.45,9.39c-.2.07-.089-.011-.2.111.2-.071.089.01.2-.111M11.2,10.844l.1,0c0,.034,0,.069,0,.1l.1-.005c0-.1-.009-.206-.013-.309l-.2.112c0,.035,0,.069,0,.1m-.165-1.437c-.2.07-.089-.011-.2.111.2-.071.089.01.2-.111M7.573,5.533l-.313-.089c0,.1.009.205.013.308.2-.071.089.011.2-.112l.1,0c0-.034,0-.068,0-.1M8.756,9.092l.1,0c0,.034,0,.068,0,.1l.1,0c0-.1-.009-.205-.013-.308l.1-.005c0-.034,0-.069,0-.1l-.1,0c0-.034,0-.069,0-.1l-.1,0c0,.1.009.206.014.309l-.1,0c0,.034,0,.068,0,.1M8.2,5.713,8.4,5.7c0-.069-.006-.137-.009-.206l-.206.009c0,.069.006.137.009.205M7.543,9.66c0-.1-.009-.205-.014-.309.2-.071.089.01.2-.112l.1,0c-.074-.247-.118-.222-.224-.4L7.4,8.841c0,.346.021.377-.184.523.09.276.035.233.322.3M7.049,5.35l.206-.009c0-.069-.006-.137-.009-.205l-.206.009c0,.069.006.137.009.206M6.706,9.387c0,.035,0,.069,0,.1l.1,0c0-.069-.006-.137-.009-.206-.2.071-.089-.011-.2.112l.1,0M6.131,5.6l-.309.014,0,.1.313.09c0-.069-.006-.137-.009-.206M5.9,12.308l.1,0c0-.034,0-.068,0-.1l.1-.005c-.038-.066-.075-.134-.112-.2-.141.129-.269.127-.09.313M5.462,9.234l.313.09c0-.069-.006-.138-.009-.206l-.309.013c0,.034,0,.068,0,.1m-.515.022c.184.08.256-.07.3-.116l-.309.014c0,.033,0,.068,0,.1M4.012,9.09l.1,0c0-.069-.006-.137-.009-.206l-.1,0c0,.069.006.137.009.206M3.056,6.037c.2-.071.09.01.2-.113l.1,0-.116-.3-.206.009.017.412m-.815.241c0-.034,0-.068,0-.1l.1,0c0-.1-.009-.206-.014-.309l.206-.009c0-.068-.006-.136-.009-.205L2,5.566c.006.138.012.275.018.412l-.206.009.116.3.309-.013M2,10.31l.1,0,0-.1-.1,0c0-.035,0-.068,0-.1l-.1.005c-.03.1-.06.209-.089.313.2-.071.089.01.2-.112m-1.119.357-.1.005,0-.1-.2.112c0,.035,0,.069,0,.1.055-.01.429.041.3-.117m.224.4-.1,0c0-.035,0-.069,0-.1l-.1,0c0,.069.006.137.009.206.2-.07.089.01.2-.111" transform="translate(0 0)" fill="#ed6a1f" fill-rule="evenodd"/>
      </g>
    </g>
    <g id="マスクグループ_57" data-name="マスクグループ 57" clip-path="url(#clip-path-3)">
      <g id="グループ_4745" data-name="グループ 4745" transform="translate(994.044 7526.052)">
        <g id="グループ_4745-2" data-name="グループ 4745" transform="translate(0 0.005)" clip-path="url(#clip-path-4)">
          <path id="パス_10263" data-name="パス 10263" d="M162.542,702.938c7.9,9.059,33.09,4.951,33.09,4.951L209.8,620.648c1.015-9.821-.627-17.406-3.83-23.677l-28.132-22.908c.49-7.075-1.506-13.6-4.708-19.852l-47.43-6.79-5.794,5.405c-8.843,4.155-36.843-1.063-48.864,5.242s-33.5,91.461-37.058,98.881l-1.93,4.545c-3.859,6.827-11.728,32.664-17.242,48.345L6.1,734.61a20.047,20.047,0,0,0,3.975,4.718H161.434c.039-8.062.227-26.32,1.108-36.39" transform="translate(-5.092 -456.971)" fill="#5a677a"/>
          <path id="パス_10264" data-name="パス 10264" d="M639.888,597.887c-11.271-4.675-31.262-3.637-31.262-3.637-9.517-4.469-11.357-3.045-11.569,1.444a145.136,145.136,0,0,1-5.6,29.268c-6.933,22.943-18.266,50.513-18.266,50.513a19.55,19.55,0,0,0,6.068-4.2c2.07-2.459,41.514-42.509,44.838-46.907s27.067-21.81,15.8-26.485" transform="translate(-478.478 -493.79)" fill="#fff"/>
          <path id="パス_10265" data-name="パス 10265" d="M1060.549,1352.264c-8.316,7.955-.185,19.033,2.736,20.965s17.63,9.424,24.516,2.905-27.252-23.871-27.252-23.871" transform="translate(-882.274 -1128.829)" fill="#ffe4ce"/>
          <path id="パス_10266" data-name="パス 10266" d="M1759.46,809.01a2.6,2.6,0,1,0,2.252,2.578,2.432,2.432,0,0,0-2.252-2.578" transform="translate(-1466.864 -675.338)" fill="#fff"/>
          <path id="パス_10267" data-name="パス 10267" d="M1096.4,1012.084c-5.394.534-9.363,16.935-9.363,16.935l4.472,42.181s5.156-11.193,5.089-18.676.183-21.2,1.556-29.112c.9-5.034,3.638-11.863-1.754-11.328" transform="translate(-907.429 -844.833)" fill="#ffe4ce"/>
          <path id="パス_10268" data-name="パス 10268" d="M1374.171,1325.78l-9.75-16.9-62.618-7.9-5.122,37.906c-.751,8.393-3.015,18.872-5.229,29.488h127.24c-11-16.059-37.764-41.84-44.521-42.6" transform="translate(-1078.064 -1086.027)" fill="#fff"/>
          <path id="パス_10269" data-name="パス 10269" d="M1774.766,1389.277a1.008,1.008,0,0,0-1.008-1.006h0a1.008,1.008,0,0,0-1.006,1.01,23.015,23.015,0,0,0,3.509,12.01,1.008,1.008,0,0,0,1.663-1.139,21.352,21.352,0,0,1-3.156-10.874" transform="translate(-1479.837 -1158.887)" fill="#571519"/>
          <path id="パス_10270" data-name="パス 10270" d="M909.234,572.634a1.008,1.008,0,0,0,.067,2.015c.055,0,.11,0,.165,0,5.08,0,8.033,7.841,8.263,12.3a53.716,53.716,0,0,1-1.866,16.543c-.382,1.631-.743,3.171-1.041,4.793-.429,2.336-1.061,4.686-1.4,5.875-1.672-.178-5.583-.587-9.389-.926l-9.348-.833a1.008,1.008,0,1,0-.179,2.008l9.348.833c4.979.444,10.138,1.007,10.19,1.013a1.069,1.069,0,0,0,.11.006,1.007,1.007,0,0,0,.963-.714,70.195,70.195,0,0,0,1.686-6.9c.289-1.574.645-3.091,1.021-4.7a55.419,55.419,0,0,0,1.916-17.107c-.313-6.092-4.123-14.413-10.507-14.208" transform="translate(-745.94 -478.015)" fill="#571519"/>
          <path id="パス_10271" data-name="パス 10271" d="M695.392,816.868a1.008,1.008,0,0,0-.847,1.146l1.2,7.974a307.559,307.559,0,0,0-48.154,30.159,1.008,1.008,0,0,0,1.224,1.6,301.088,301.088,0,0,1,48.466-30.263,1.008,1.008,0,0,0,.568-1.062l-1.306-8.709a1,1,0,0,0-1.146-.847" transform="translate(-540.255 -681.887)" fill="#571519"/>
          <path id="パス_10272" data-name="パス 10272" d="M897.49,596.411c-15-6.929-32.528.049-44.744-5.854-5.457-2.637-7.985-15.879-9.583-22.677L810.742,608.2c6.649,2.858,8.387,8.307,9.35,14.163,1.964,7.7,1.119,18.748-1.531,31.943l-19.394,19.719s-3.885-23.376-7.612-41.444c-1.035-5.019-2.058-9.628-2.982-13.213-2.2-8.505-6.345-8.738-7.347-3.008-.71,4.059,5.576,39.852,3.3,40.192s-2.234-9.065-7.4-25.962c-1.552-5.193-5.561-23.867-9.912-22.906-4.59.919-2.077,12.041.818,23.62,1.158,4.632,6,26.119,4.011,26.262-.439.093-1.642-2.793-3.3-7.216-3.157-8.438-7.96-22.471-12.248-32.1-2.113-4.8-7.252-4.96-5.807,3.659,1.769,10.5,6.275,23.161,8.624,31.6,1.335,4.8,1.973,8.238,1.012,9.14-1.486,1.462-9.837-15.5-16.534-25.037-2.167-3.086-6.786-3.4-4.614,3.867,1.707,5.712,13.463,26,17.493,32.644S767,698.718,778.524,703.011s26.331,5.649,42.011,7.151,38.094,3.641,64.27,3.641c12.347,0,25.3-3.1,27.356-5.573,8.109-9.748.968-52.524,0-70-1-18.04-3.938-36.86-14.671-41.816" transform="translate(-616.574 -474.049)" fill="#ffe4ce"/>
          <path id="パス_10273" data-name="パス 10273" d="M1455.236,568.863l-.174-2.617a5.351,5.351,0,0,0,.174,2.617" transform="translate(-1214.582 -472.686)" fill="#926359"/>
          <path id="パス_10274" data-name="パス 10274" d="M1445.078,406.067l1.708,25.781c.265-1.948,1.379-4.891,4.963-8.521,9.127-9.246-1.193-21.361-6.671-17.26" transform="translate(-1206.307 -338.287)" fill="#926359"/>
          <path id="パス_10275" data-name="パス 10275" d="M1263.452,950.311c-8.049,4.345-10.479,25.378-13.95,38.888l28.175,13.077,34.435-6.676-9.64-52.45s-30.971,2.816-39.02,7.161" transform="translate(-1043.046 -787.314)" fill="#fff"/>
          <path id="パス_10276" data-name="パス 10276" d="M1363.934,404.588s-10.282-27.221-22.314-14.017,2.616,32.13,2.616,32.13c4.5,7.77,17.781,2.787,21.418-5.923,4.007-9.595-1.72-12.19-1.72-12.19" transform="translate(-1115.983 -323.021)" fill="#926359"/>
          <path id="パス_10277" data-name="パス 10277" d="M717.245,32.47c-2.093-3.313-4.36-6.1-9.939-9.067-5.406-2.79-11.509-1.744-14.473-4.185C688.3,15.556,685.683,16.6,680.8,16.6c-5.231,0-15,4.708-20.4,9.416-4.708,3.836-9.068,10.811-10.811,14.822-1.4,4.01-2.267,6.8-2.093,14.124.349,7.15,3.662,20.4,5.929,21.448,8.021,3.836,23.192-10.114,29.295-10.114,5.057,0,14.648,10.637,23.192,12.73,5.057,1.221,11.509-5.406,11.509-5.406s3.139-10.637,4.01-15.694-.7-16.74-.7-16.74a37.531,37.531,0,0,0-3.487-8.719" transform="translate(-540.49 -13.744)" fill="#de9284" fill-rule="evenodd"/>
          <path id="パス_10278" data-name="パス 10278" d="M721.955,209.04s-4.359,4.708-6.277,3.836c-.349-.174,1.221-6.975.523-10.288-.872-4.359-4.011-5.755-4.011-7.673,0-.349-6.626-.7-10.288-3.662-3.488-2.964-3.836-8.37-8.719-10.114-3.313-1.221-8.893-.174-11.334.174-5.754.7-7.149,5.231-9.242,8.545a59.9,59.9,0,0,1-4.011,5.405l-3.488,6.278a22.186,22.186,0,0,0-1.4,6.1,12.757,12.757,0,0,0,1.046,4.708l-5.406-3.139s-6.452,1.046-4.359,8.893a10.627,10.627,0,0,0,8.544,8.021,93.87,93.87,0,0,0,3.487,11.334,43.157,43.157,0,0,0,4.185,7.672l.174,13.6,5.182,12.892c12.76-2.045,24.273-5.694,33.7-12.02l-.523-13.252a58.334,58.334,0,0,0,5.406-9.765,53.669,53.669,0,0,0,2.964-10.288s7.847-3.662,8.719-8.021c1.744-9.591-4.883-9.242-4.883-9.242" transform="translate(-546.421 -150.73)" fill="#ffe4ce" fill-rule="evenodd"/>
          <path id="パス_10279" data-name="パス 10279" d="M729.545,457.844c-.057,0-5.773-.278-13.914-6.26a24.038,24.038,0,0,1-8.571-10.942c-2.207-4.781-3.6-11.41-4.458-15.98a1.008,1.008,0,1,0-1.982.371c.877,4.676,2.308,11.469,4.6,16.435a26.141,26.141,0,0,0,9.22,11.743c8.7,6.39,14.786,6.639,15.041,6.647h.03a1.008,1.008,0,0,0,.033-2.015" transform="translate(-584.842 -353.809)" fill="#571519"/>
          <path id="パス_10280" data-name="パス 10280" d="M847.012,374.142a5.662,5.662,0,0,0,2.229-4.074,15.905,15.905,0,0,0-.718-5.618,1.008,1.008,0,1,0-1.956.489,14.753,14.753,0,0,1,.673,4.886,3.718,3.718,0,0,1-1.562,2.806,3.752,3.752,0,0,0-1.579,2.629c-.213,2.984,3.245,5.075,3.639,5.3a1.008,1.008,0,0,0,1.012-1.744c-.77-.45-2.746-1.94-2.641-3.4.041-.493.307-.746.9-1.273" transform="translate(-704.62 -303.595)" fill="#571519"/>
          <path id="パス_10281" data-name="パス 10281" d="M778.8,365.565c-1.395.174-2.441,1.744-2.441,3.662.174,1.918,1.395,3.487,2.615,3.487,1.395-.174,2.441-1.744,2.441-3.662,0-2.092-1.221-3.488-2.616-3.488" transform="translate(-648.081 -305.163)" fill="#571519" fill-rule="evenodd"/>
          <path id="パス_10282" data-name="パス 10282" d="M660.639,364.62a9.981,9.981,0,0,1-7.931-7.912c-.456-2.506-.293-4.17.513-5.236a4.9,4.9,0,0,1,3.65-1.6,1.008,1.008,0,0,0-.194-2.006,6.848,6.848,0,0,0-5.063,2.393c-1.536,2.033-1.242,4.861-.888,6.812a11.983,11.983,0,0,0,9.506,9.525,1.008,1.008,0,0,0,.408-1.974" transform="translate(-542.968 -290.383)" fill="#571519"/>
          <path id="パス_10283" data-name="パス 10283" d="M765.309,302.456c-6.382-3.378-12.285.409-12.534.572a1.008,1.008,0,0,0,1.1,1.686c.209-.135,5.177-3.287,10.486-.477a1.008,1.008,0,1,0,.943-1.782" transform="translate(-628.015 -251.315)" fill="#571519"/>
          <path id="パス_10284" data-name="パス 10284" d="M1037.868,344.6a1.008,1.008,0,1,0,.415,1.973c2.058-.434,3.58-.193,4.522.716,1.135,1.1,1.538,3.328,1.08,5.965a9.98,9.98,0,0,1-7.932,7.912,1.008,1.008,0,1,0,.408,1.974,11.986,11.986,0,0,0,9.508-9.533c.276-1.586.665-5.519-1.665-7.768-1.452-1.4-3.582-1.818-6.337-1.238" transform="translate(-864.111 -287.449)" fill="#571519"/>
          <path id="パス_10285" data-name="パス 10285" d="M680.957,383.846a1.008,1.008,0,1,0-.9,1.8,4.82,4.82,0,0,1,1.488,1.681,1.008,1.008,0,0,0,1.762-.979,6.8,6.8,0,0,0-2.348-2.5" transform="translate(-567.224 -320.335)" fill="#571519"/>
          <path id="パス_10286" data-name="パス 10286" d="M1053.455,380.677a6.792,6.792,0,0,0-2.348,2.5,1.008,1.008,0,1,0,1.762.979,4.9,4.9,0,0,1,1.488-1.68,1.008,1.008,0,1,0-.9-1.8" transform="translate(-877.326 -317.689)" fill="#571519"/>
          <path id="パス_10287" data-name="パス 10287" d="M768.252,364.582c-2.677-1.853-7.362-1.058-9.214.382a1.008,1.008,0,1,0,1.237,1.591c1.293-1.005,5.019-1.569,6.829-.316a1.008,1.008,0,1,0,1.147-1.657" transform="translate(-633.297 -303.44)" fill="#571519"/>
          <path id="パス_10288" data-name="パス 10288" d="M899.609,423.857a1.009,1.009,0,0,0-1.177.805c-.857,4.57-2.251,11.2-4.466,16a28.3,28.3,0,0,1-9.438,11.275c-8.054,5.917-12.9,5.908-12.976,5.908a1.008,1.008,0,0,0-.063,2.015h.075c.7,0,5.884-.22,14.154-6.3A30.32,30.32,0,0,0,895.8,441.487c2.3-4.985,3.733-11.778,4.609-16.454a1.007,1.007,0,0,0-.8-1.176" transform="translate(-726.68 -353.809)" fill="#571519"/>
          <path id="パス_10289" data-name="パス 10289" d="M937.276,365.565c-1.4,0-2.616,1.4-2.616,3.488,0,1.918,1.046,3.488,2.441,3.662,1.221,0,2.441-1.569,2.616-3.487,0-1.918-1.046-3.488-2.441-3.662" transform="translate(-780.226 -305.163)" fill="#571519" fill-rule="evenodd"/>
          <path id="パス_10290" data-name="パス 10290" d="M916.3,303.026c-.248-.163-6.151-3.951-12.534-.572a1.008,1.008,0,0,0,.943,1.782c5.31-2.811,10.278.341,10.484.475a1.008,1.008,0,0,0,1.106-1.685" transform="translate(-753.99 -251.314)" fill="#571519"/>
          <path id="パス_10291" data-name="パス 10291" d="M931.876,364.557c-1.922-1.5-6.594-2.4-9.254-.352a1.008,1.008,0,0,0,1.229,1.6c1.842-1.417,5.556-.613,6.788.345a1.008,1.008,0,1,0,1.237-1.591" transform="translate(-769.848 -303.032)" fill="#571519"/>
          <path id="パス_10292" data-name="パス 10292" d="M753.24,563.152a1.007,1.007,0,0,0-.919,1.09,97.512,97.512,0,0,1,.227,12.643,1.008,1.008,0,0,0,.926,1.083c.027,0,.053,0,.079,0a1.008,1.008,0,0,0,1-.929,97.494,97.494,0,0,0-.229-12.971,1.007,1.007,0,0,0-1.09-.919" transform="translate(-628.012 -470.1)" fill="#571519"/>
          <path id="パス_10293" data-name="パス 10293" d="M984.289,569.51a1.008,1.008,0,0,0-2.01-.154c-.029.376-.7,9.27.368,14.239a1.008,1.008,0,0,0,1.971-.422c-1-4.682-.336-13.573-.329-13.662" transform="translate(-819.782 -474.505)" fill="#571519"/>
          <path id="パス_10294" data-name="パス 10294" d="M975.095,48.148a1.008,1.008,0,0,0-.294,1.994c10.289,1.518,16.536,11.57,17.987,20.274,1.723,9.991-.579,19.4-2.427,26.966a1.008,1.008,0,1,0,1.958.479c1.893-7.744,4.25-17.383,2.457-27.782-1.566-9.4-8.392-20.265-19.68-21.931" transform="translate(-813.015 -40.184)" fill="#571519"/>
          <path id="パス_10295" data-name="パス 10295" d="M821.211,498.046s1.744,8.982,8.719,9.431c6.626.225,9.242-9.206,9.242-9.206a50.2,50.2,0,0,0-8.893-.9,70.691,70.691,0,0,0-9.067.674" transform="translate(-685.522 -415.192)" fill="#fff" fill-rule="evenodd"/>
          <path id="パス_10296" data-name="パス 10296" d="M675.1,12.9c-7.833,1.068-22.523,8.514-29.179,21.1-6.922,13.135.155,34.585.46,35.492a1.008,1.008,0,0,0,1.911-.642c-.072-.214-7.105-21.542-.588-33.909,6.325-11.966,20.249-19.037,27.655-20.047,9.253-1.135,16.693,1.228,18.1,5.75a1.008,1.008,0,1,0,1.925-.6c-1.725-5.556-9.869-8.432-20.28-7.152" transform="translate(-536.665 -10.519)" fill="#571519"/>
          <path id="パス_10297" data-name="パス 10297" d="M874.155,168.672c-.105.026-10.473,2.457-17-9.785a1.008,1.008,0,0,0-1.779.949c4.42,8.288,10.555,10.5,14.706,10.948a11.85,11.85,0,0,1-9.529-.291c-3.705-1.853-6.1-4.3-8.82-9.019l-.03-.05c-1.267-2.111-3.9-6.5-7.24-6.53-1.641,0-3.126,1.018-4.4,3.064a1.008,1.008,0,0,0,1.712,1.064c.871-1.4,1.765-2.112,2.657-2.112h.013c2.208.017,4.62,4.038,5.54,5.571,2.494,4.323,4.981,7.472,9.664,9.814a12.961,12.961,0,0,0,5.86,1.392,16.957,16.957,0,0,0,9.507-3.24,1.008,1.008,0,0,0-.862-1.775" transform="translate(-701.132 -129.301)" fill="#571519"/>
          <path id="パス_10298" data-name="パス 10298" d="M1018.744,282.711a1.006,1.006,0,0,0-1.065.947,8.407,8.407,0,0,1-2.357,5.585,20.311,20.311,0,0,0-2.586-13.738,1.008,1.008,0,0,0-1.7,1.08c4.219,6.653,1.831,14.6,1.807,14.679a1.008,1.008,0,0,0,1.355,1.229,9.935,9.935,0,0,0,5.5-8.716,1.007,1.007,0,0,0-.947-1.065" transform="translate(-843.849 -229.592)" fill="#571519"/>
          <path id="パス_10299" data-name="パス 10299" d="M873.666,103.539c-10.536,2.238-16.485-5.145-19.345-8.693a7.842,7.842,0,0,0-1.945-2.023c-3.352-1.775-8.815-.283-12.336,5.977a1.008,1.008,0,1,0,1.757.988c2.79-4.961,7.089-6.531,9.638-5.183a12.33,12.33,0,0,1,1.317,1.506c2.506,3.108,7.947,9.859,17.106,9.859a20.307,20.307,0,0,0,4.227-.459,1.008,1.008,0,1,0-.419-1.972" transform="translate(-701.131 -76.905)" fill="#571519"/>
          <path id="パス_10300" data-name="パス 10300" d="M704.556,177.972c-3.884.89-5.408,3.735-6.882,6.486-2.078,3.879-4.226,7.889-13.035,8.664a1.008,1.008,0,0,0,.087,2.012c.029,0,.06,0,.09,0,9.894-.87,12.523-5.777,14.635-9.72,1.433-2.675,2.565-4.787,5.555-5.472a1.008,1.008,0,0,0-.45-1.965" transform="translate(-570.749 -148.545)" fill="#571519"/>
          <path id="パス_10301" data-name="パス 10301" d="M691.012,278.36a1.008,1.008,0,0,0-1.391.311,20.312,20.312,0,0,0-2.586,13.737,8.4,8.4,0,0,1-2.357-5.584,1.008,1.008,0,0,0-2.012.119,9.936,9.936,0,0,0,5.5,8.716,1.008,1.008,0,0,0,1.355-1.227c-.025-.08-2.412-8.027,1.807-14.681a1.007,1.007,0,0,0-.311-1.391" transform="translate(-569.866 -232.237)" fill="#571519"/>
          <path id="パス_10302" data-name="パス 10302" d="M834.283,492.191a50.73,50.73,0,0,0-9.1-.919,71.012,71.012,0,0,0-9.216.685,1.008,1.008,0,0,0-.841,1.189c.077.4,1.98,9.751,9.674,10.246.092,0,.183,0,.274,0,7.131,0,9.859-9.538,9.973-9.949a1.007,1.007,0,0,0-.768-1.257m-9.38,9.188c-4.772-.307-6.836-5.348-7.517-7.574a68.526,68.526,0,0,1,7.8-.516,48.647,48.647,0,0,1,7.563.674c-.869,2.3-3.355,7.574-7.847,7.416" transform="translate(-680.429 -410.1)" fill="#571519"/>
          <path id="パス_10303" data-name="パス 10303" d="M1027.2,156.917l-3.487,2.616c-8.021-2.616-16.566,6.452-17.961,8.544-2.79,4.185-5.283,16.738-4.411,23.713s5.98,8.2,7.027,13.08l62.252,1.221c5.929-11.858,9.068-29.121.523-40.106-9.591-12.032-28.249-15.868-43.943-9.068" transform="translate(-835.744 -128.198)" fill="#926359"/>
          <path id="パス_10304" data-name="パス 10304" d="M1102.321,339.635c0-1.569-.7-5.406-5.232-5.231a31.962,31.962,0,0,0-5.057,1.046,10.531,10.531,0,0,1-8.719-3.313c-3.662-4.185-3.662-7.324-9.765-9.417a40.524,40.524,0,0,1-13.95-9.242c-1.744-1.744-6.975-4.011-13.427-.872-1.57.7-3.313,5.754-4.534,7.672-1.569,2.79-2.79,4.185-2.964,4.883-.523,2.964.349,6.626.872,13.776.174,2.267-1.046,9.242,2.267,17.961a44.087,44.087,0,0,0,10.985,16.914c4.011,3.837,11.695,1.828,11.695,1.828l2.259,10.841s38.794-5.073,33.326-13.157c-6.052-8.947-5.953-22.181-5.953-22.181s8.893-2.79,8.2-11.509" transform="translate(-866.918 -259.649)" fill="#ffe4ce" fill-rule="evenodd"/>
          <path id="パス_10305" data-name="パス 10305" d="M1082.993,417.509a1.007,1.007,0,0,0-1.39.316,34.8,34.8,0,0,1-9.271,9.447c-9.976,6.235-17.127,7.087-19.536,6.66-2.884-.455-7.23-4.547-10.813-10.179a43.664,43.664,0,0,1-5.61-14.253,49.627,49.627,0,0,1-.419-6.725c-.018-1.106-.039-2.36-.094-3.8-.073-2.572-.355-4.894-.628-7.14a39.376,39.376,0,0,1-.423-8.77,1.008,1.008,0,1,0-2-.207,40.851,40.851,0,0,0,.427,9.22c.267,2.2.543,4.476.615,6.965.055,1.426.075,2.668.093,3.764a51.1,51.1,0,0,0,.444,7.007,45.888,45.888,0,0,0,5.9,15.016c4,6.284,8.674,10.534,12.184,11.088a9.116,9.116,0,0,0,1.558.117c3.59,0,10.446-1.473,19.386-7.06a36.24,36.24,0,0,0,9.9-10.079,1.008,1.008,0,0,0-.317-1.389" transform="translate(-862.05 -318.846)" fill="#571519"/>
          <path id="パス_10306" data-name="パス 10306" d="M1118.543,459.324c-.76-.384-2.932-1.811-2.932-3.284,0-.386.2-.627.773-1.217a6.03,6.03,0,0,0,2.015-4.313c0-.017,0-.034,0-.05a19.5,19.5,0,0,0-1.282-5.576,1.008,1.008,0,0,0-1.895.689,17.765,17.765,0,0,1,1.161,4.862,4.077,4.077,0,0,1-1.448,2.984,3.63,3.63,0,0,0-1.343,2.621c0,2.978,3.631,4.879,4.045,5.086a1.008,1.008,0,0,0,.9-1.8m-1.145-8.864h0Z" transform="translate(-929.595 -370.822)" fill="#571519"/>
          <path id="パス_10307" data-name="パス 10307" d="M1081.155,446.538c-1.221.174-2.093,1.744-2.093,3.662s1.221,3.487,2.441,3.313,2.093-1.744,2.093-3.662-1.221-3.313-2.441-3.313" transform="translate(-900.768 -372.757)" fill="#571519" fill-rule="evenodd"/>
          <path id="パス_10308" data-name="パス 10308" d="M1059.738,382.436c-5.2-2.5-8.9.156-9.056.271a1.008,1.008,0,1,0,1.2,1.623c.028-.021,2.873-2.058,6.986-.077a1.008,1.008,0,1,0,.874-1.816" transform="translate(-876.735 -318.354)" fill="#571519"/>
          <path id="パス_10309" data-name="パス 10309" d="M1062.867,444.96c-3.213-1.353-5.8-1.323-7.925.09a1.008,1.008,0,1,0,1.118,1.677c.966-.644,2.641-1.335,6.025.09a1.008,1.008,0,1,0,.782-1.858" transform="translate(-880.258 -370.611)" fill="#571519"/>
          <path id="パス_10310" data-name="パス 10310" d="M1208.32,447.592c-1.395,0-2.441,1.4-2.616,3.313,0,1.918,1.046,3.487,2.267,3.487,1.395,0,2.615-1.4,2.615-3.313s-1.046-3.488-2.267-3.488" transform="translate(-1006.485 -373.637)" fill="#571519" fill-rule="evenodd"/>
          <path id="パス_10311" data-name="パス 10311" d="M1188.495,380.821c-.306-.16-7.556-3.9-12.188-.818a1.008,1.008,0,0,0,1.118,1.677c3.633-2.421,10.069.892,10.134.926a1.008,1.008,0,0,0,.936-1.785" transform="translate(-981.57 -316.2)" fill="#571519"/>
          <path id="パス_10312" data-name="パス 10312" d="M1193.776,445.139c-1.979-1.539-6.677-2.355-9.111-.327a1.008,1.008,0,0,0,1.291,1.549c1.675-1.395,5.371-.573,6.583.37a1.008,1.008,0,1,0,1.237-1.591" transform="translate(-988.62 -370.309)" fill="#571519"/>
          <path id="パス_10313" data-name="パス 10313" d="M1368.689,446.884c-2.186-1.7-5.34-1.7-8.653,0a1.008,1.008,0,0,0,.921,1.793c2.586-1.328,4.954-1.4,6.5-.205,1.522,1.183,2.074,3.448,1.475,6.069a10.164,10.164,0,0,1-7.938,8.12,1.008,1.008,0,1,0,.408,1.974,12.132,12.132,0,0,0,9.5-9.655c.777-3.4-.048-6.423-2.206-8.1" transform="translate(-1134.859 -371.983)" fill="#571519"/>
          <path id="パス_10314" data-name="パス 10314" d="M1378.526,484.355a5.873,5.873,0,0,0-3.061,2.552,1.008,1.008,0,0,0,1.727,1.039,4,4,0,0,1,1.823-1.636,1.008,1.008,0,0,0-.489-1.956" transform="translate(-1148.076 -404.3)" fill="#571519"/>
          <path id="パス_10315" data-name="パス 10315" d="M1171.3,307.088c-1.528-.419-3.108-.852-4.609-1.352-6.725-2.242-11.148-6.2-13.145-11.765a1.008,1.008,0,0,0-1.9.681c2.218,6.177,7.064,10.549,14.405,13,1.553.518,3.16.958,4.714,1.384,4.033,1.105,7.843,2.149,9.044,4.114a1.008,1.008,0,1,0,1.719-1.051c-1.617-2.647-5.8-3.793-10.231-5.007" transform="translate(-961.307 -244.841)" fill="#571519"/>
          <path id="パス_10316" data-name="パス 10316" d="M1296.82,411.289c-4.285-.317-5.661-.813-8.314-4.627a1.008,1.008,0,1,0-1.655,1.151c3.032,4.359,4.916,5.123,9.82,5.487l.075,0a1.008,1.008,0,0,0,.073-2.013" transform="translate(-1074.073 -339.109)" fill="#571519"/>
          <path id="パス_10317" data-name="パス 10317" d="M1031.386,277.175h-.074c-3.542,0-6.533,6.014-9.173,11.324a48.126,48.126,0,0,1-2.51,4.675c-1.032,1.474-1.823,2.076-4.476,2.739a1.008,1.008,0,1,0,.489,1.956c2.972-.743,4.237-1.537,5.647-3.55a47.778,47.778,0,0,0,2.655-4.922c2.023-4.068,5.075-10.205,7.365-10.205h.03c.848.02,1.794,1.124,2.667,3.109a1.008,1.008,0,1,0,1.846-.811c-1.257-2.861-2.717-4.272-4.464-4.313" transform="translate(-846.782 -231.377)" fill="#571519"/>
          <path id="パス_10318" data-name="パス 10318" d="M1018.939,181.222c-8.81-2.874-17.82,7.006-19.112,8.944-3.06,4.589-5.453,17.358-4.572,24.4.526,4.212,2.5,6.489,4.234,8.5a10.433,10.433,0,0,1,2.807,4.669,1.008,1.008,0,1,0,1.971-.423,12.3,12.3,0,0,0-3.253-5.565c-1.626-1.88-3.308-3.823-3.759-7.429-.869-6.957,1.739-19.263,4.25-23.029.978-1.467,9.205-10.624,16.81-8.145a1.008,1.008,0,0,0,.625-1.917" transform="translate(-830.654 -150.845)" fill="#571519"/>
          <path id="パス_10319" data-name="パス 10319" d="M1153.247,150.719a1.008,1.008,0,1,0,.8,1.849c15.4-6.675,33.384-2.985,42.747,8.762,8.486,10.911,4.965,27.848-.629,39.037a1.008,1.008,0,1,0,1.8.9c5.856-11.713,9.479-29.524.409-41.186-9.928-12.456-28.909-16.394-45.131-9.364" transform="translate(-962.188 -122.924)" fill="#571519"/>
          <path id="パス_10320" data-name="パス 10320" d="M1109.14,573.516s1.569,9.07,7.672,9.316c5.58.245,8.2-9.07,8.2-9.07a70.17,70.17,0,0,0-7.846-.981,26.214,26.214,0,0,0-8.022.735" transform="translate(-925.876 -478.107)" fill="#fff" fill-rule="evenodd"/>
          <path id="パス_10321" data-name="パス 10321" d="M1173.691,695.954a1.008,1.008,0,0,0-.622,1.283,32.894,32.894,0,0,1,1.628,10.511c0,1.655-.6,3.591-5.041,5.412a1.008,1.008,0,1,0,.765,1.865c4.292-1.759,6.292-4.072,6.292-7.277a34.922,34.922,0,0,0-1.739-11.172,1.008,1.008,0,0,0-1.283-.622" transform="translate(-975.871 -580.915)" fill="#571519"/>
          <path id="パス_10322" data-name="パス 10322" d="M1439.382,400.222a1.008,1.008,0,1,0,1.208,1.614c1.957-1.465,4.541-.164,6.234,1.777,2.915,3.342,3.882,9.139-.885,13.967-7.065,7.157-5.085,12.04-5,12.244a1.008,1.008,0,1,0,1.853-.8c-.016-.038-1.446-3.929,4.579-10.033,5.67-5.743,4.477-12.687.969-16.709-2.726-3.125-6.411-3.975-8.961-2.066" transform="translate(-1201.214 -333.249)" fill="#571519"/>
          <path id="パス_10323" data-name="パス 10323" d="M1396.442,487.657a1.008,1.008,0,0,0-.841,1.832c.2.094,4.763,2.392,1.215,10.888a15.806,15.806,0,0,1-12.724,9.141,6.973,6.973,0,0,1-6.892-3.334,1.008,1.008,0,0,0-1.744,1.01,8.741,8.741,0,0,0,7.954,4.362q.4,0,.813-.027a17.95,17.95,0,0,0,14.454-10.376c4.333-10.377-2.168-13.466-2.235-13.5" transform="translate(-1148.075 -407.007)" fill="#571519"/>
          <path id="パス_10324" data-name="パス 10324" d="M1120.105,567.674a70.463,70.463,0,0,0-7.975-1h-.009a26.961,26.961,0,0,0-8.359.775,1.008,1.008,0,0,0-.707,1.138c.07.4,1.787,9.876,8.621,10.151.089,0,.177.006.265.006,6.119,0,8.832-9.4,8.945-9.811a1.008,1.008,0,0,0-.78-1.262m-8.345,9.053c-4.151-.167-5.943-5.395-6.508-7.559a27.321,27.321,0,0,1,6.76-.479c2.6.159,5.16.534,6.578.767-.836,2.284-3.109,7.438-6.829,7.271" transform="translate(-920.783 -473.01)" fill="#571519"/>
          <path id="パス_10325" data-name="パス 10325" d="M908.092,633.078c-.87-15.7-3.4-37.2-15.254-42.676-8.017-3.7-16.552-3.54-24.8-3.387-7.344.138-14.281.268-19.926-2.46-4.521-2.185-7.059-13.325-8.576-19.981-.164-.719-.318-1.4-.464-2.02a1.008,1.008,0,0,0-1.963.461c.146.62.3,1.293.462,2.006,1.7,7.463,4.27,18.741,9.664,21.348,6.078,2.937,13.249,2.8,20.841,2.66,8.025-.151,16.324-.306,23.919,3.2,10.871,5.02,13.246,25.779,14.087,40.957.226,4.072.772,9.386,1.4,15.538,2.021,19.666,4.787,46.6-1.172,53.764-1.712,2.057-14.3,5.21-26.581,5.21-26.191,0-49.049-2.188-64.174-3.636l-.878-.084c-15.271-1.461-29.694-2.841-40.877-7.008-8.637-3.218-14.457-14.935-18.308-22.689-1.142-2.3-2.129-4.286-3.03-5.771-3.893-6.42-15.73-26.86-17.389-32.41-.938-3.14-.423-4.349.029-4.568.6-.289,1.892.283,2.794,1.568,2.7,3.843,5.711,8.975,8.369,13.5,5.243,8.933,7.066,11.837,8.591,12.039a1.31,1.31,0,0,0,1.089-.35c1.224-1.15,1.032-3.8-.732-10.146a1.008,1.008,0,1,0-1.942.54c1.281,4.607,1.5,6.631,1.444,7.522-1.4-1.573-4.31-6.535-6.712-10.627-2.678-4.562-5.712-9.732-8.458-13.642-1.435-2.043-3.723-3-5.323-2.223-1.031.5-2.543,2.068-1.081,6.959,1.736,5.806,13.506,26.131,17.6,32.878.856,1.412,1.825,3.364,2.947,5.622,3.992,8.038,10.026,20.184,19.41,23.681,11.431,4.259,25.983,5.652,41.389,7.126l.878.084c15.163,1.451,38.079,3.645,64.366,3.645,11.7,0,25.638-2.941,28.13-5.936,6.5-7.816,3.8-34.122,1.628-55.259-.63-6.127-1.173-11.419-1.4-15.443" transform="translate(-611.499 -468.955)" fill="#571519"/>
          <path id="パス_10326" data-name="パス 10326" d="M919.226,828.191c-1.129-5.477-2.136-9.938-2.993-13.261-1.286-4.965-3.358-7.763-5.694-7.665-1.788.072-3.107,1.8-3.622,4.736-.31,1.771.429,7.737,1.66,17.323.909,7.082,2.216,17.256,2.141,21.039-.426-1.282-.891-3.533-1.375-5.875-.923-4.471-2.187-10.594-4.564-18.372-.253-.847-.579-2.084-.957-3.517-2.932-11.117-5.916-21.024-10.118-20.088a3.5,3.5,0,0,0-2.339,1.634c-2.272,3.591-.267,12.64,2.377,23.219,1.6,6.417,3.988,17.923,4.416,23-.429-1.021-1.006-2.479-1.78-4.547a1.008,1.008,0,0,0-1.888.706c2.724,7.28,3.294,8.062,4.4,7.859a1.308,1.308,0,0,0,.884-.545c.393-.543,1.125-1.553-1.022-12.879-1.112-5.866-2.536-12.019-3.051-14.08-1.842-7.366-4.625-18.5-2.63-21.652a1.528,1.528,0,0,1,1.051-.739c.154-.034,1.588-.16,3.953,6.015a130.911,130.911,0,0,1,3.8,12.614c.382,1.45.713,2.7.977,3.587,2.351,7.695,3.6,13.764,4.519,18.2,1.284,6.219,1.815,8.8,3.991,8.467,1.857-.278,2.008-2.551-.784-24.3-.957-7.452-1.946-15.158-1.673-16.719.365-2.087,1.125-3.045,1.716-3.069.831-.042,2.477,1.579,3.662,6.155.848,3.291,1.847,7.72,2.97,13.165,3.68,17.842,7.567,41.172,7.606,41.406a1.008,1.008,0,1,0,1.988-.331c-.039-.234-3.931-23.6-7.619-41.483" transform="translate(-743.259 -669.861)" fill="#571519"/>
          <path id="パス_10327" data-name="パス 10327" d="M620.186,541.354c-4.252-.554-5.275.641-6.593,2.637a15.386,15.386,0,0,1-1.313,1.781q-.472.538-.991,1.143a53.6,53.6,0,0,1-9.843,9.393,70.087,70.087,0,0,0-5.558,4.42A1.008,1.008,0,0,0,595.7,562c.027.045,2.7,4.493,5.188,8.828l4.673,8.14a1.008,1.008,0,0,0,1.748-1l-4.673-8.139c-1.9-3.314-3.911-6.693-4.774-8.137.939-.8,2.808-2.362,4.75-3.731a55.311,55.311,0,0,0,10.209-9.725c.342-.4.668-.775.978-1.129a17.051,17.051,0,0,0,1.481-2c1.041-1.578,1.43-2.168,4.649-1.748a1.008,1.008,0,0,0,.261-2" transform="translate(-497.149 -451.794)" fill="#571519"/>
          <path id="パス_10328" data-name="パス 10328" d="M556.859,725.642,548.4,728.1a1.008,1.008,0,0,0-.726.961,301.154,301.154,0,0,1-7.177,56.686,1.008,1.008,0,0,0,.764,1.2,1.029,1.029,0,0,0,.221.024,1.008,1.008,0,0,0,.982-.788,307.545,307.545,0,0,0,7.213-56.359l7.742-2.255a1.008,1.008,0,1,0-.563-1.935" transform="translate(-451.172 -605.711)" fill="#571519"/>
          <path id="パス_10329" data-name="パス 10329" d="M253.319,566.832c-3.256,1.852-10.516,1.806-18.2,1.76-11.967-.076-25.536-.158-33.563,5.909-8.635,6.528-23.607,57.736-31.652,85.246-2.29,7.833-3.945,13.492-4.6,15.195a1.008,1.008,0,1,0,1.88.728c.691-1.784,2.355-7.477,4.659-15.357,7.41-25.343,22.829-78.078,30.932-84.2,7.482-5.656,20.685-5.575,32.335-5.5,8.312.051,15.487.1,19.212-2.023a1.008,1.008,0,1,0-1-1.752" transform="translate(-137.928 -473.065)" fill="#571519"/>
          <path id="パス_10330" data-name="パス 10330" d="M2.117,1305.718l8.552-24.321c1.692-4.813,3.568-10.466,5.554-16.451,4.418-13.314,8.986-27.082,11.614-31.732a1.008,1.008,0,0,0-1.755-.992c-2.724,4.821-7.324,18.683-11.773,32.089-1.983,5.976-3.856,11.622-5.542,16.418L.058,1305.5a1.007,1.007,0,0,0,.062.809,19.736,19.736,0,0,0,3.362,4.243H6.564a22.217,22.217,0,0,1-4.447-4.833" transform="translate(0 -1028.194)" fill="#571519"/>
          <path id="パス_10331" data-name="パス 10331" d="M188.842,1236.6a20.437,20.437,0,0,0-7.066-1.674.988.988,0,0,0-1.036.977,1.009,1.009,0,0,0,.977,1.038,18.69,18.69,0,0,1,6.291,1.494,1.008,1.008,0,1,0,.834-1.835" transform="translate(-150.876 -1030.875)" fill="#571519"/>
          <path id="パス_10332" data-name="パス 10332" d="M186.341,934.895c4.7-14.809,13.921-49.038,14.811-61.661a1.008,1.008,0,0,0-2.011-.142c-.879,12.466-10.051,46.465-14.722,61.194-1.691,5.333-4.332,11.71-7.39,19.094-6.845,16.531-15.261,36.858-17.627,57.027h2.03c2.372-19.818,10.689-39.906,17.459-56.255,3.075-7.427,5.732-13.842,7.448-19.257" transform="translate(-133.065 -728.049)" fill="#571519"/>
          <path id="パス_10333" data-name="パス 10333" d="M668.3,598.841c-2.025-4.516-5.086-11.341-3.935-13.433a1.008,1.008,0,0,0-1.766-.972c-1.514,2.753.748,8.284,3.862,15.23.406.9.794,1.771,1.141,2.574,1.727,3.992.855,9.093-2.664,15.593-2.464,4.549-17.479,32.519-17.63,32.8a1.008,1.008,0,0,0,1.776.954c.151-.282,15.165-28.248,17.627-32.795,3.833-7.079,4.73-12.755,2.742-17.353-.351-.811-.743-1.686-1.153-2.6" transform="translate(-540.253 -487.434)" fill="#571519"/>
          <path id="パス_10334" data-name="パス 10334" d="M471.756,574.035c-5.775,0-6.293,8.644-6.463,11.484-.513,8.574-3.3,19.333-9.029,34.884-.588,1.6-1.407,3.764-2.38,6.338-4.79,12.677-13.706,36.276-16.623,49.017-1.047,4.573-1.8,8.785-2.678,13.662-.993,5.532-2.118,11.8-3.932,19.941-2.734,12.263-13.7,49.49-13.809,49.865a1.008,1.008,0,1,0,1.934.57c.111-.375,11.094-37.668,13.843-50,1.823-8.179,2.953-14.472,3.949-20.024.871-4.852,1.623-9.042,2.659-13.568,2.886-12.607,11.77-36.121,16.543-48.754.975-2.58,1.8-4.753,2.385-6.353,5.8-15.744,8.625-26.68,9.15-35.46.574-9.589,3.491-9.589,4.45-9.589a1.008,1.008,0,0,0,0-2.016" transform="translate(-347.933 -479.188)" fill="#571519"/>
          <path id="パス_10335" data-name="パス 10335" d="M698.974,706.034c-1.39-.278-3.335,1.395-7.136,5.01-1.035.985-2.014,1.915-2.708,2.479a1.008,1.008,0,1,0,1.271,1.564c.755-.614,1.761-1.57,2.826-2.583a47.391,47.391,0,0,1,4.745-4.147c-.088.318-.2.674-.295.977-.634,2.025-1.5,4.8-.406,7.119a1.008,1.008,0,0,0,1.823-.862c-.761-1.609-.028-3.947.507-5.655.467-1.49.775-2.474.319-3.243a1.4,1.4,0,0,0-.946-.661" transform="translate(-574.954 -589.352)" fill="#571519"/>
          <path id="パス_10336" data-name="パス 10336" d="M641.091,624.086a1.008,1.008,0,0,0-.268,1.4c1.859,2.741-.094,7.314-5.806,13.591-1.335,1.467-5.51,5.545-10.8,10.707-17.095,16.7-45.706,44.639-51.707,55.141a1.008,1.008,0,1,0,1.75,1c5.861-10.257,35.462-39.167,51.365-54.7,5.517-5.388,9.5-9.281,10.878-10.792,6.511-7.157,8.469-12.416,5.983-16.08a1.008,1.008,0,0,0-1.4-.268" transform="translate(-477.806 -520.824)" fill="#571519"/>
          <path id="パス_10337" data-name="パス 10337" d="M1054.534,699.942c-5.242-3.5-12.421-8.285-12.839-14.328a1.008,1.008,0,0,0-2.011.139c.486,7.031,8.141,12.138,13.731,15.866a52.025,52.025,0,0,1,4.286,3.044,1.008,1.008,0,1,0,1.3-1.542,53.268,53.268,0,0,0-4.466-3.179" transform="translate(-867.894 -571.547)" fill="#571519"/>
          <path id="パス_10338" data-name="パス 10338" d="M1061.057,798.528c-9.578.467-17.356,14.344-17.682,14.935a1.008,1.008,0,0,0,1.764.975c.075-.135,7.56-13.484,16.017-13.9,2.832-.147,5.661,1.3,7.975,4.047,5.866,6.968,7.269,20.52,3.742,36.3l-1.333,7.644a1.008,1.008,0,0,0,.82,1.166,1.045,1.045,0,0,0,.174.015,1.008,1.008,0,0,0,.992-.835l1.324-7.6c5.266-23.556-1.167-34.415-4.177-37.991-2.729-3.241-6.149-4.925-9.615-4.763" transform="translate(-870.872 -666.579)" fill="#571519"/>
          <path id="パス_10339" data-name="パス 10339" d="M436.135,611.249a1.008,1.008,0,0,0-.886,1.116c.615,5.355-2.562,17.322-2.595,17.442a1.008,1.008,0,1,0,1.947.521c.135-.506,3.308-12.458,2.65-18.193a1.008,1.008,0,0,0-1.116-.886" transform="translate(-361.137 -510.247)" fill="#571519"/>
          <path id="パス_10340" data-name="パス 10340" d="M942.412,1482.536a1.008,1.008,0,0,0-1.075.936c-.737,10.71-1,28.536-1.086,36.46h2.016c.084-7.913.348-25.669,1.081-36.321a1.007,1.007,0,0,0-.936-1.075" transform="translate(-784.893 -1237.575)" fill="#571519"/>
          <path id="パス_10341" data-name="パス 10341" d="M802.335,634.817a1.01,1.01,0,0,0-1.062.951c-.175,3.156-9.924,9.518-20.7,10.816-.476.057-.932.11-1.37.16-6.3.723-9.456,1.086-14.278,9.828a1.008,1.008,0,1,0,1.765.974c4.32-7.832,6.613-8.1,12.742-8.8.442-.051.9-.1,1.382-.161,10.65-1.283,22.2-7.814,22.475-12.706a1.008,1.008,0,0,0-.951-1.062" transform="translate(-638.429 -529.925)" fill="#571519"/>
          <path id="パス_10342" data-name="パス 10342" d="M795.253,740.3c-.583-3.846-.968-6.388-2.95-6.388-1.427,0-2.032,1.212-2.617,2.384a9.285,9.285,0,0,1-3.691,4.328,1.008,1.008,0,1,0,1.04,1.726,11.306,11.306,0,0,0,4.455-5.154,5.106,5.106,0,0,1,.74-1.238c.409.546.751,2.808,1.03,4.644a65.129,65.129,0,0,0,1.409,7.269,1.009,1.009,0,0,0,.973.746,1.036,1.036,0,0,0,.263-.035,1.008,1.008,0,0,0,.711-1.236,62.574,62.574,0,0,1-1.362-7.047" transform="translate(-655.717 -612.645)" fill="#571519"/>
          <path id="パス_10343" data-name="パス 10343" d="M1285,1477.617a1.008,1.008,0,0,0-1.4,1.451c.069.068,6.981,6.764,8.662,11.248a1.008,1.008,0,1,0,1.888-.708c-1.84-4.906-8.854-11.7-9.151-11.991" transform="translate(-1071.254 -1233.235)" fill="#571519"/>
          <path id="パス_10344" data-name="パス 10344" d="M1292.488,1525.4a1.008,1.008,0,0,0-2.008-.18c-.695,7.76-2.668,17.2-4.757,27.193l-.5,2.385h2.058q.206-.989.412-1.973c2.1-10.053,4.087-19.549,4.792-27.426" transform="translate(-1072.867 -1272.445)" fill="#571519"/>
          <path id="パス_10345" data-name="パス 10345" d="M1787.1,1444.936a1.008,1.008,0,0,0-.227,2c6.232.7,32.263,25.478,43.436,41.6h2.406c-10.8-16.044-38.172-42.764-45.616-43.6" transform="translate(-1490.879 -1206.184)" fill="#571519"/>
          <path id="パス_10346" data-name="パス 10346" d="M1437.286,1486.126c-30.684,18.376-61.781,13.46-62.091,13.409a1.008,1.008,0,1,0-.333,1.989,73.365,73.365,0,0,0,10.646.656,103.781,103.781,0,0,0,52.814-14.325,1.008,1.008,0,0,0-1.036-1.73" transform="translate(-1146.99 -1240.454)" fill="#571519"/>
          <path id="パス_10347" data-name="パス 10347" d="M1565.118,924.145c-1.7-10.477-3.458-21.311-6.091-31.846a1.008,1.008,0,1,0-1.956.489c2.613,10.452,4.364,21.243,6.057,31.68,1.49,9.183,2.9,17.858,4.731,25.063a1.008,1.008,0,1,0,1.954-.5c-1.812-7.119-3.212-15.75-4.695-24.888" transform="translate(-1299.77 -744.227)" fill="#571519"/>
          <path id="パス_10348" data-name="パス 10348" d="M1395.385,830.858c1.881-5.717-1.029-4.89-3.121-1.994-9.485,7.673-20.062,12.985-33.213,14.962-21.43-2.648-36.369,1.3-41.046,15.687l43.94,6.685c16.417,1.4,36.556-13.525,36.556-13.525s-4.892-16.419-3.116-21.816" transform="translate(-1100.23 -690.034)" fill="#fff"/>
          <path id="パス_10349" data-name="パス 10349" d="M1455.851,1254.485c-9.925,0-15.7,1.7-23.022,3.858-2.977.877-6.353,1.871-10.367,2.847a1.008,1.008,0,1,0,.476,1.959c4.061-.987,7.461-1.989,10.46-2.872,7.162-2.109,12.818-3.776,22.452-3.776a1.008,1.008,0,1,0,0-2.016" transform="translate(-1186.785 -1047.206)" fill="#571519"/>
          <path id="パス_10350" data-name="パス 10350" d="M1650.341,1252.523a26.422,26.422,0,0,0-12.881-4.618,1.008,1.008,0,0,0-.105,2.012,24.811,24.811,0,0,1,11.8,4.234,1.008,1.008,0,0,0,1.189-1.628" transform="translate(-1366.017 -1041.712)" fill="#571519"/>
          <path id="パス_10351" data-name="パス 10351" d="M1326.86,819.3a1.008,1.008,0,0,0-.635,1.276c.028.083-.013.346-.343.8-3.726,5.179-27.954,15.287-33.2,15.287H1282.1a50.958,50.958,0,0,0-14.12,1.178c-9.115,2.117-15.357,6.752-18.175,13.457-2.063-2.521-6.592-7.355-10.995-7.355h-.029a1.008,1.008,0,0,0,.005,2.016h.024c3.972,0,8.916,5.758,10.488,7.981a1.008,1.008,0,0,0,.823.426.98.98,0,0,0,.155-.012,1.009,1.009,0,0,0,.806-.691c5.335-16.864,30.642-15.009,30.9-14.987.027,0,.055,0,.082,0h10.625c5.935,0,30.688-10.365,34.832-16.125a2.87,2.87,0,0,0,.618-2.623,1.009,1.009,0,0,0-1.276-.635" transform="translate(-1033.26 -683.882)" fill="#571519"/>
          <path id="パス_10352" data-name="パス 10352" d="M1613.29,810.05c.022-.544.046-1.047.068-1.511.216-4.428.3-6.26-4.85-6.89a1.008,1.008,0,0,0-.244,2c1.781.217,2.62.5,2.895.979.342.594.277,1.944.186,3.812-.022.469-.048.978-.069,1.53-.2,5.149,2.378,18.307,3.005,21.416-3.235,2.276-20.947,14.193-35.352,12.96a1.008,1.008,0,1,0-.171,2.009q1.157.1,2.332.1c16.072,0,34.114-13.227,34.91-13.817a1.008,1.008,0,0,0,.387-1.014c-.033-.16-3.312-16.083-3.1-21.572" transform="translate(-1317.128 -669.187)" fill="#571519"/>
          <path id="パス_10353" data-name="パス 10353" d="M948.643,1336.764c-.264.041-26.475,4.085-33.977,1.878-5.946-1.749-13.441-5.609-15.381-14.063-1.746-7.606-2.273-19.317-2.278-19.434a1.008,1.008,0,0,0-2.014.088c.021.487.54,12.011,2.328,19.8,1.684,7.338,7.642,12.859,16.777,15.547a29.575,29.575,0,0,0,7.605.731c10.715,0,26.4-2.419,27.251-2.551a1.008,1.008,0,1,0-.31-1.992" transform="translate(-747.111 -1088.692)" fill="#571519"/>
          <path id="パス_10354" data-name="パス 10354" d="M1070.971,1418.534c-19.639-5.506-18.14-16.125-18.064-16.584a1.008,1.008,0,0,0-1.986-.346c-.092.522-2.006,12.839,19.507,18.871a1.008,1.008,0,1,0,.544-1.941" transform="translate(-877.209 -1169.322)" fill="#571519"/>
          <path id="パス_10355" data-name="パス 10355" d="M1091.933,1005.937c-.22,0-.458.011-.715.035-5.937.594-9.82,15.954-10.243,17.7a1.008,1.008,0,0,0,1.96.474c1.469-6.072,5.073-15.832,8.477-16.172.184-.017.359-.025.511-.025.906.009,1.168.341,1.254.45.842,1.068.113,4.24-.473,6.789-.225.979-.457,1.99-.625,2.938-.067.38-.129.776-.191,1.183-1.1,7.332-1.44,19.081-1.387,27.632a1.008,1.008,0,0,0,1.008,1h.006a1.008,1.008,0,0,0,1-1.014c-.053-8.475.277-20.1,1.364-27.317.059-.39.119-.771.183-1.134.158-.9.385-1.883.6-2.837.787-3.426,1.53-6.662.092-8.488a3.437,3.437,0,0,0-2.828-1.218" transform="translate(-902.341 -839.726)" fill="#571519"/>
          <path id="パス_10356" data-name="パス 10356" d="M1111.683,1328.468a1.007,1.007,0,0,0-1.286.615c-1.168,3.308-2.292,5.755-2.3,5.78a1.008,1.008,0,0,0,1.831.844c.047-.1,1.172-2.551,2.373-5.953a1.008,1.008,0,0,0-.615-1.286" transform="translate(-924.926 -1108.917)" fill="#571519"/>
          <path id="パス_10357" data-name="パス 10357" d="M1357.468,533.274a3.369,3.369,0,1,0,3.368,3.368,3.368,3.368,0,0,0-3.368-3.368" transform="translate(-1130.36 -445.162)" fill="#fdf5ed" fill-rule="evenodd"/>
          <path id="パス_10358" data-name="パス 10358" d="M1352.376,527.174a4.376,4.376,0,1,0,4.376,4.376,4.381,4.381,0,0,0-4.376-4.376m0,6.737a2.361,2.361,0,1,1,2.36-2.361,2.364,2.364,0,0,1-2.36,2.361" transform="translate(-1125.268 -440.07)" fill="#571519"/>
          <path id="パス_10359" data-name="パス 10359" d="M1205.52,1122.88c-5.8-1.48-16.4,12.935-16.4,12.935l-54.492,45.734s25.517,15.842,39.25,1.725c3.819-7.768,8.561-15.28,16.026-27.541,3.616-5.9,8.392-14.075,12.948-21.231,2.921-4.544,8.466-10.142,2.669-11.622" transform="translate(-947.151 -937.258)" fill="#ffe4ce"/>
          <path id="パス_10360" data-name="パス 10360" d="M1182.253,853.848c-2.343,3.668-10.009,40.663-12.5,40.15s1.277-9.607,2.622-27.885c.449-5.6,3.693-25.176-1.193-25.857-5.117-.81-6.919,10.893-8.507,23.18-.635,4.915-4.126,27.522-6.247,26.922-1.429-.213.429-27.2-.526-43.837-.287-5.43-5.545-7.49-7.463,1.393-3.651,16.989-2.427,41.6-6.157,43.03-2.118.866-4.047-18.656-7.2-30.374-1.021-3.792-5.68-5.809-6.309,2.037-.495,6.164,1.378,20.385,2,32.151.429,6.68-4.714,18.846-5.489,30.512-.783,11.8.907,13.683,5.433,18.329l47.878-32.074s7.948-34.5,10.078-52.043c1.088-9.053-3.11-10.813-6.417-5.634" transform="translate(-939.196 -701.388)" fill="#ffe4ce"/>
          <path id="パス_10361" data-name="パス 10361" d="M1200.678,1116.833c-6.285-1.609-16.336,11.783-17.463,13.314a1.008,1.008,0,0,0,1.624,1.2c3.945-5.361,11.606-13.508,15.34-12.556.964.247,1.54.609,1.711,1.078.482,1.325-1.546,4.152-3.177,6.423-.617.86-1.255,1.75-1.8,2.6-3,4.719-6.136,9.932-8.9,14.53-1.452,2.417-2.824,4.7-4.06,6.718-1.06,1.74-2.065,3.385-3.019,4.948-5.339,8.74-9.2,15.054-12.357,21.286a7.621,7.621,0,0,1-1.921,2.434c-13.279,11.044-36.355-3.041-36.586-3.184a1.008,1.008,0,1,0-1.063,1.713c.7.438,12.706,7.77,24.767,7.768a21.569,21.569,0,0,0,14.172-4.748,9.629,9.629,0,0,0,2.429-3.072c3.125-6.16,6.965-12.446,12.281-21.147q1.433-2.346,3.019-4.948c1.239-2.023,2.613-4.31,4.068-6.73,2.757-4.588,5.881-9.789,8.869-14.482.518-.806,1.141-1.674,1.744-2.514,2.2-3.067,4.28-5.963,3.433-8.289a4.048,4.048,0,0,0-3.105-2.341" transform="translate(-942.06 -932.187)" fill="#571519"/>
          <path id="パス_10362" data-name="パス 10362" d="M1139.733,962.9a1.011,1.011,0,0,0-1.116.887c-.507,4.425-1.094,6.075-1.467,6.691-.837-1.8-1.934-7.954-2.835-12.994-.965-5.41-2.06-11.542-3.355-16.347-.674-2.5-2.626-4.263-4.538-4.079-1.22.112-3.33,1.079-3.749,6.3-.312,3.886.3,10.889.938,18.3.4,4.666.823,9.491,1.062,13.994.2,3.169-.932,7.727-2.247,13-1.334,5.356-2.846,11.427-3.242,17.377-.782,11.786.859,14.112,5.717,19.1a1.008,1.008,0,1,0,1.444-1.407c-4.3-4.417-5.912-6.07-5.15-17.559.383-5.77,1.873-11.749,3.187-17.023,1.355-5.44,2.526-10.14,2.3-13.609-.24-4.526-.659-9.368-1.065-14.051-.635-7.327-1.236-14.248-.937-17.966.255-3.179,1.2-4.385,1.924-4.452.78-.075,1.971.976,2.408,2.6,1.272,4.72,2.358,10.807,3.317,16.177,1.843,10.322,2.616,14,4.049,14.794a1.352,1.352,0,0,0,1.172.082c1.559-.6,2.419-3.036,3.067-8.7a1.009,1.009,0,0,0-.887-1.116m-2.922,7.94.006,0-.006,0" transform="translate(-934.105 -782.217)" fill="#571519"/>
          <path id="パス_10363" data-name="パス 10363" d="M1337.331,845.038c-1.805-.648-3.887.54-5.569,3.174-1.022,1.6-2.619,7.65-5.141,17.39-1.957,7.558-4.808,18.571-6.342,21.665a48.671,48.671,0,0,1,.909-6.68,185.9,185.9,0,0,0,2.55-19.487c.073-.913.225-2.233.4-3.761,1.365-11.842,2.2-22.525-2.441-23.172a3.947,3.947,0,0,0-3.077.785c-3.666,2.745-5.152,12.158-6.587,23.26-.919,7.113-3.147,19.861-4.728,24.509-.05-1.006-.082-2.505-.073-4.739a1.008,1.008,0,0,0-1-1.012h0a1.008,1.008,0,0,0-1.008,1c-.029,7.013.251,8.082,1.369,8.278a1.372,1.372,0,0,0,1.062-.211c.562-.371,1.731-1.143,3.979-12.852,1.167-6.077,2.125-12.54,2.407-14.719,1-7.744,2.513-19.448,5.8-21.905a1.957,1.957,0,0,1,1.572-.406c.42.059,1.792.76,1.795,7.326a127.094,127.094,0,0,1-1.059,13.622c-.178,1.547-.332,2.883-.409,3.837a184.166,184.166,0,0,1-2.526,19.3c-1.1,6.3-1.6,9.175.707,9.651,2.026.415,3.318-3.139,8.663-23.785,1.96-7.571,3.987-15.4,4.888-16.81,1.106-1.732,2.357-2.664,3.19-2.361,1.043.373,1.918,2.828,1.377,7.332-2.1,17.292-9.98,51.593-10.06,51.938a1.008,1.008,0,0,0,.756,1.209,1.031,1.031,0,0,0,.227.026,1.009,1.009,0,0,0,.981-.781c.079-.346,7.984-34.75,10.1-52.149.623-5.182-.361-8.634-2.7-9.471" transform="translate(-1089.554 -696.295)" fill="#571519"/>
          <path id="パス_10364" data-name="パス 10364" d="M1236.5,1086.064a1.512,1.512,0,0,0-1.468,2.633,21.237,21.237,0,0,1-11.988.015c.16-.062.352-.129.58-.2a1.512,1.512,0,1,0-.858-2.9c-2.235.662-3.369,1.7-3.369,3.091,0,3.7,8.015,3.885,9.621,3.885s9.621-.188,9.621-3.885c0-.757-.371-1.83-2.139-2.644m-.763,3.049h0Z" transform="translate(-1017.915 -906.188)" fill="#feba4f"/>
          <path id="パス_10365" data-name="パス 10365" d="M853.751,1054.411a1.457,1.457,0,0,0-.485,2.873,17.994,17.994,0,0,1-10.738,3.531,5.815,5.815,0,0,1,.563-.458,1.458,1.458,0,0,0-1.708-2.362c-2.207,1.6-2.325,2.979-2.036,3.858.456,1.39,1.992,1.911,3.915,1.911a19.778,19.778,0,0,0,5.824-1.078c3.942-1.295,8.232-3.759,7.35-6.445-.227-.691-.877-1.57-2.685-1.83m.105,3.023h0Z" transform="translate(-700.565 -880.178)" fill="#feba4f"/>
          <path id="パス_10366" data-name="パス 10366" d="M1246.914,844c-.917-.075-4.031.2-5.466,6.853-1.661,7.725-2.312,16.867-2.886,24.933-.271,3.81-.527,7.408-.861,10.322a1.009,1.009,0,0,0,.887,1.116,1.053,1.053,0,0,0,.116.006,1.008,1.008,0,0,0,1-.893c.339-2.957.6-6.576.869-10.408.569-8,1.215-17.066,2.846-24.652.811-3.759,2.262-5.343,3.335-5.268.957.077,2.018,1.488,2.136,3.72.462,8.029.261,18.656.1,27.2-.065,3.424-.126,6.658-.137,9.294a1.008,1.008,0,0,0,1,1.012h0a1.008,1.008,0,0,0,1.008-1c.011-2.621.071-5.848.136-9.264.162-8.573.364-19.243-.1-27.344-.166-3.133-1.806-5.444-3.989-5.619" transform="translate(-1033.189 -704.542)" fill="#571519"/>
          <path id="パス_10367" data-name="パス 10367" d="M821.572,875.209c-2.816-7.772-6.321-17.445-9.5-24.589-1.235-2.8-3.462-4.355-5.417-3.772-1.045.312-3.361,1.717-2.307,8,1.262,7.493,3.863,15.937,6.158,23.388.928,3.012,1.8,5.858,2.489,8.318a1.008,1.008,0,0,0,1.942-.54c-.692-2.486-1.572-5.345-2.5-8.371-2.276-7.391-4.857-15.767-6.1-23.128-.6-3.579.044-5.484.9-5.739.776-.228,2.142.716,3,2.656,3.154,7.083,6.645,16.718,9.451,24.459,1,2.765,1.948,5.376,2.774,7.584a1.008,1.008,0,0,0,1.888-.707c-.822-2.2-1.767-4.8-2.767-7.564" transform="translate(-671.219 -706.822)" fill="#571519"/>
          <path id="パス_10368" data-name="パス 10368" d="M1636.144,595.145a2,2,0,0,0-.457-2.136,2.27,2.27,0,0,0-2.63-.34,2.239,2.239,0,0,0-2.772-.089,2.188,2.188,0,0,0-.829,2.262,2.158,2.158,0,0,0-.995,2.246,2.061,2.061,0,0,0,1.969,1.626,2.294,2.294,0,0,0,1.864,1.532,2.186,2.186,0,0,0,.275.017,2.271,2.271,0,0,0,1.98-1.322,2.3,2.3,0,0,0,2.106-1.367,2,2,0,0,0,.051-1.66,2.2,2.2,0,0,0-.562-.769m-5.7,1.571-.991.185.991-.187Zm4.379.021c-.12.263-.441.209-.609.157a1.015,1.015,0,0,0-1.308.73,1.055,1.055,0,0,1-.36.623c-.248-.031-.3-.594-.305-.594a1.013,1.013,0,0,0-1.162-.956,1.648,1.648,0,0,1-.632-.031c.047-.175.506-.305.5-.305a1.009,1.009,0,0,0,.714-.6,1.021,1.021,0,0,0-.083-.935s-.3-.472-.079-.637c.141-.108.552.259.658.385a1.008,1.008,0,0,0,1.444.122s.442-.327.639-.259a1.484,1.484,0,0,1-.219.483,1.009,1.009,0,0,0-.149.888,1.021,1.021,0,0,0,.62.659,1.623,1.623,0,0,1,.352.2.277.277,0,0,1-.024.071" transform="translate(-1359.356 -494.299)" fill="#c0e3ff"/>
          <path id="パス_10369" data-name="パス 10369" d="M439.918,158.971a2,2,0,0,0-.457-2.136,2.27,2.27,0,0,0-2.63-.34,2.24,2.24,0,0,0-2.772-.089,2.189,2.189,0,0,0-.829,2.262,2.158,2.158,0,0,0-.994,2.246,2.061,2.061,0,0,0,1.968,1.626,2.3,2.3,0,0,0,1.864,1.532,2.185,2.185,0,0,0,.275.018,2.271,2.271,0,0,0,1.98-1.322,2.3,2.3,0,0,0,2.106-1.367,2,2,0,0,0,.051-1.66,2.2,2.2,0,0,0-.562-.768m-6.692,1.756.99-.187h0Zm5.369-.165c-.12.262-.442.208-.609.157a1.015,1.015,0,0,0-1.308.73,1.053,1.053,0,0,1-.362.622c-.248-.031-.3-.594-.3-.594a1.013,1.013,0,0,0-1.163-.956,1.668,1.668,0,0,1-.632-.031c.047-.175.506-.305.5-.305a1.015,1.015,0,0,0,.631-1.537s-.3-.472-.079-.637c.143-.107.552.259.658.385a1.013,1.013,0,0,0,.69.364,1.032,1.032,0,0,0,.747-.235s.445-.333.646-.265a1.475,1.475,0,0,1-.22.484,1.01,1.01,0,0,0-.149.887,1.02,1.02,0,0,0,.619.659,1.614,1.614,0,0,1,.352.2.253.253,0,0,1-.024.07" transform="translate(-360.784 -130.194)" fill="#c0e3ff"/>
          <path id="パス_10370" data-name="パス 10370" d="M1919.189,1169.442a2,2,0,0,0-.457-2.136,2.272,2.272,0,0,0-2.63-.34,2.239,2.239,0,0,0-2.772-.089,2.189,2.189,0,0,0-.829,2.262,2.158,2.158,0,0,0-.994,2.246,2.061,2.061,0,0,0,1.969,1.626,2.3,2.3,0,0,0,1.864,1.533,2.2,2.2,0,0,0,.274.017,2.271,2.271,0,0,0,1.98-1.322,2.3,2.3,0,0,0,2.106-1.367,2,2,0,0,0,.051-1.661,2.2,2.2,0,0,0-.562-.769m-5.7,1.57-.991.185.991-.187Zm4.379.021c-.12.262-.44.209-.609.157a1.008,1.008,0,0,0-1.309.737c-.048.218-.23.573-.359.615-.248-.031-.3-.594-.305-.594a1.008,1.008,0,0,0-.367-.735,1.028,1.028,0,0,0-.8-.221,1.624,1.624,0,0,1-.632-.031c.047-.175.506-.3.5-.3a1.01,1.01,0,0,0,.714-.6,1.02,1.02,0,0,0-.083-.935s-.3-.472-.08-.636c.147-.11.553.259.659.384a1.017,1.017,0,0,0,1.437.129c.005,0,.44-.337.646-.265a1.481,1.481,0,0,1-.219.483,1.008,1.008,0,0,0,.481,1.551,1.6,1.6,0,0,1,.342.2.279.279,0,0,1-.025.07" transform="translate(-1595.633 -973.705)" fill="#c0e3ff"/>
          <path id="パス_10371" data-name="パス 10371" d="M202.659,710.108a2,2,0,0,0-.457-2.136,2.271,2.271,0,0,0-2.63-.34,2.24,2.24,0,0,0-2.772-.089,2.189,2.189,0,0,0-.829,2.262,2.159,2.159,0,0,0-.994,2.246,2.061,2.061,0,0,0,1.968,1.626,2.3,2.3,0,0,0,1.864,1.532,2.172,2.172,0,0,0,.274.018,2.272,2.272,0,0,0,1.981-1.322,2.3,2.3,0,0,0,2.106-1.367,2,2,0,0,0,.051-1.66,2.2,2.2,0,0,0-.562-.769m-6.692,1.756.991-.186h0Zm5.369-.165c-.119.262-.441.208-.609.157a1.008,1.008,0,0,0-1.309.737c-.048.217-.231.573-.36.615-.248-.031-.3-.594-.3-.594a1.008,1.008,0,0,0-1.169-.955,1.674,1.674,0,0,1-.626-.032c.047-.175.506-.305.5-.305a1.009,1.009,0,0,0,.714-.6,1.019,1.019,0,0,0-.083-.935s-.3-.472-.079-.637c.142-.107.552.259.658.385a1.012,1.012,0,0,0,.69.363,1.028,1.028,0,0,0,.747-.235s.441-.339.646-.265a1.476,1.476,0,0,1-.22.484,1.016,1.016,0,0,0,.47,1.547,1.626,1.626,0,0,1,.352.2.263.263,0,0,1-.024.07" transform="translate(-162.726 -590.267)" fill="#c0e3ff"/>
          <path id="パス_10372" data-name="パス 10372" d="M401.81,417.554a2.27,2.27,0,0,0-.447-2.542A85.846,85.846,0,0,0,395,414.5a2.469,2.469,0,0,0-.9,2.725,2.438,2.438,0,0,0-1.259,2.608h0a2.367,2.367,0,0,0,2.377,1.831,2.6,2.6,0,0,0,2.152,1.879,2.456,2.456,0,0,0,.305.02,2.621,2.621,0,0,0,2.3-1.627,2.579,2.579,0,0,0,2.533-1.555,2.234,2.234,0,0,0,.061-1.858,2.549,2.549,0,0,0-.758-.968m-1.137,1.989c-.233.512-.814.392-1.043.32a1.008,1.008,0,0,0-1.309.737c0,.01-.273.985-.7.944-.526-.066-.584-.958-.584-.959a1.012,1.012,0,0,0-1.012-.967,1.021,1.021,0,0,0-.152.012c-.382.057-1.018,0-1.051-.168-.093-.5.779-.706.809-.713a1.013,1.013,0,0,0,.63-1.539c-.082-.127-.469-.778-.041-1.1s1.136.51,1.139.514a1.015,1.015,0,0,0,1.439.127c.008-.006.79-.649,1.186-.268a1.463,1.463,0,0,1-.316.86,1.014,1.014,0,0,0,.473,1.548,1.19,1.19,0,0,1,.58.429.313.313,0,0,1-.042.226" transform="translate(-327.889 -345.6)" fill="#c0e3ff"/>
          <path id="パス_10373" data-name="パス 10373" d="M1696.082,227.385a2.271,2.271,0,0,0-.448-2.542,85.363,85.363,0,0,0-6.364-.512,2.469,2.469,0,0,0-.9,2.725,2.439,2.439,0,0,0-1.259,2.608,2.367,2.367,0,0,0,2.376,1.831,2.606,2.606,0,0,0,2.153,1.879,2.457,2.457,0,0,0,.306.02,44.877,44.877,0,0,1,4.835-3.183,2.236,2.236,0,0,0,.061-1.859,2.551,2.551,0,0,0-.758-.968m-1.137,1.989c-.233.512-.814.392-1.043.32a1.013,1.013,0,0,0-1.308.731c0,.01-.262,1-.706.95-.525-.066-.583-.958-.584-.959a1.008,1.008,0,0,0-1.007-.967,1.034,1.034,0,0,0-.162.013c-.333.054-1.012.011-1.045-.169h0c-.094-.5.779-.705.808-.712a1.014,1.014,0,0,0,.63-1.539c-.082-.127-.469-.778-.041-1.1s1.135.51,1.138.514a1.014,1.014,0,0,0,1.439.127c.008-.006.79-.65,1.186-.268a1.465,1.465,0,0,1-.317.859,1.013,1.013,0,0,0,.473,1.548,1.185,1.185,0,0,1,.579.429.315.315,0,0,1-.042.226" transform="translate(-1408.307 -186.853)" fill="#c0e3ff"/>
          <path id="パス_10374" data-name="パス 10374" d="M109.688,258.925a2.27,2.27,0,0,0-.447-2.542,2.591,2.591,0,0,0-3.1-.309,2.579,2.579,0,0,0-3.26-.2,2.47,2.47,0,0,0-.9,2.725,2.439,2.439,0,0,0-1.259,2.608h0a2.367,2.367,0,0,0,2.377,1.831,2.606,2.606,0,0,0,2.152,1.879,2.483,2.483,0,0,0,.306.02,2.622,2.622,0,0,0,2.3-1.627,2.6,2.6,0,0,0,2.533-1.555,2.233,2.233,0,0,0,.061-1.858,2.547,2.547,0,0,0-.758-.968m-1.137,1.989c-.234.512-.814.391-1.043.32a1.008,1.008,0,0,0-1.309.737c0,.01-.285,1-.7.944-.526-.066-.584-.958-.584-.959a1.013,1.013,0,0,0-1.164-.955c-.383.057-1.018,0-1.051-.168-.093-.5.779-.705.809-.712a1.013,1.013,0,0,0,.63-1.539c-.082-.127-.469-.778-.041-1.1s1.136.51,1.139.514a1.015,1.015,0,0,0,1.439.127c.007-.007.79-.65,1.186-.269a1.463,1.463,0,0,1-.316.859,1.014,1.014,0,0,0,.473,1.548,1.186,1.186,0,0,1,.579.429.313.313,0,0,1-.042.226" transform="translate(-84.035 -213.182)" fill="#c0e3ff"/>
          <path id="パス_10375" data-name="パス 10375" d="M1423.982,29.389a2.271,2.271,0,0,0-.447-2.542,2.591,2.591,0,0,0-3.1-.309,2.579,2.579,0,0,0-3.261-.2,2.47,2.47,0,0,0-.9,2.725,2.439,2.439,0,0,0-1.259,2.608h0a2.368,2.368,0,0,0,2.377,1.83,2.606,2.606,0,0,0,2.152,1.879,2.453,2.453,0,0,0,.306.019,2.621,2.621,0,0,0,2.3-1.627,2.6,2.6,0,0,0,2.534-1.555,2.238,2.238,0,0,0,.061-1.858,2.55,2.55,0,0,0-.758-.968m-1.136,1.989c-.233.512-.814.391-1.044.32a1.013,1.013,0,0,0-1.308.731c0,.01-.261,1-.706.95-.526-.066-.584-.958-.584-.959a1.012,1.012,0,0,0-1.163-.955c-.381.057-1.018,0-1.051-.168-.094-.5.78-.706.809-.713a1.013,1.013,0,0,0,.63-1.539c-.082-.127-.469-.778-.041-1.1s1.136.51,1.139.514a1.015,1.015,0,0,0,1.438.127c.007-.007.79-.649,1.186-.269a1.465,1.465,0,0,1-.316.86,1.014,1.014,0,0,0,.472,1.548,1.186,1.186,0,0,1,.58.429.314.314,0,0,1-.042.226" transform="translate(-1181.167 -21.572)" fill="#c0e3ff"/>
          <path id="パス_10376" data-name="パス 10376" d="M1946.134,687.85a2.271,2.271,0,0,0-.447-2.542,85.943,85.943,0,0,0-6.365-.512,2.47,2.47,0,0,0-.9,2.725,2.438,2.438,0,0,0-1.259,2.608,2.368,2.368,0,0,0,2.377,1.831,2.6,2.6,0,0,0,2.152,1.879,2.458,2.458,0,0,0,.306.019,44.889,44.889,0,0,1,4.835-3.183,2.236,2.236,0,0,0,.061-1.858,2.554,2.554,0,0,0-.758-.968M1945,689.838c-.233.512-.814.392-1.043.32a1.008,1.008,0,0,0-1.309.737c0,.01-.276.991-.7.943-.526-.066-.583-.958-.584-.959a1.012,1.012,0,0,0-1.012-.967,1,1,0,0,0-.151.012c-.382.057-1.018,0-1.051-.168h0c-.094-.5.779-.705.809-.712a1.013,1.013,0,0,0,.63-1.539c-.082-.128-.469-.779-.041-1.1s1.136.51,1.139.514a1.015,1.015,0,0,0,1.439.127c.008-.007.792-.649,1.185-.268a1.463,1.463,0,0,1-.316.859,1.014,1.014,0,0,0,.472,1.548,1.187,1.187,0,0,1,.58.429.314.314,0,0,1-.042.226" transform="translate(-1617.044 -571.235)" fill="#c0e3ff"/>
          <path id="パス_10377" data-name="パス 10377" d="M1672.183,499.207a2.963,2.963,0,0,0-.414-3.479,3.4,3.4,0,0,0-4.211-.231c-1.058-.9-2.758-1.681-4.355-.471a3.207,3.207,0,0,0-1.045,3.77,3.123,3.123,0,0,0-1.892,3.455c.329,1.746,1.977,2.243,3.3,2.276a3.408,3.408,0,0,0,2.82,2.695,3.145,3.145,0,0,0,.39.025,3.442,3.442,0,0,0,3.015-2.349,3.364,3.364,0,0,0,3.521-1.963,2.78,2.78,0,0,0,.083-2.313,3.383,3.383,0,0,0-1.216-1.414m-.7,2.889a1.613,1.613,0,0,1-2.039.692,1.011,1.011,0,0,0-1.308.733c0,.018-.438,1.832-1.5,1.7-1.123-.14-1.219-1.732-1.222-1.794a1.011,1.011,0,0,0-1.01-.967.993.993,0,0,0-.155.012c-.019,0-1.85.234-2.006-.594-.21-1.112,1.329-1.494,1.5-1.533a1.011,1.011,0,0,0,.628-1.542c-.1-.146-.906-1.451.044-2.171s2.191.751,2.241.811a1.009,1.009,0,0,0,1.444.123c.014-.013,1.407-1.21,2.271-.383.454.436-.2,1.574-.388,1.829a1.011,1.011,0,0,0,.475,1.549,2.094,2.094,0,0,1,1.086.857.789.789,0,0,1-.065.678" transform="translate(-1385.887 -412.715)" fill="#c0e3ff"/>
          <path id="パス_10378" data-name="パス 10378" d="M1207.679,4.807a2.964,2.964,0,0,0-.415-3.48,3.4,3.4,0,0,0-4.211-.231C1202,.195,1200.3-.585,1198.7.625a3.208,3.208,0,0,0-1.044,3.77,3.123,3.123,0,0,0-1.892,3.455h0c.329,1.746,1.977,2.243,3.3,2.276a3.408,3.408,0,0,0,2.82,2.694,3.125,3.125,0,0,0,.39.025,3.442,3.442,0,0,0,3.014-2.349,3.36,3.36,0,0,0,3.521-1.963,2.782,2.782,0,0,0,.083-2.313,3.386,3.386,0,0,0-1.215-1.414m-.7,2.889c-.512,1.121-1.794.771-2.039.692a1.008,1.008,0,0,0-1.309.737c0,.019-.432,1.826-1.495,1.7-1.123-.14-1.219-1.732-1.222-1.794a1.01,1.01,0,0,0-1.01-.967.99.99,0,0,0-.155.012c-.019,0-1.85.233-2.006-.594-.209-1.112,1.329-1.494,1.5-1.533a1.012,1.012,0,0,0,.628-1.541c-.1-.146-.906-1.451.044-2.171s2.19.75,2.24.81a1.012,1.012,0,0,0,1.44.126c.058-.049,1.424-1.2,2.275-.386.455.436-.2,1.574-.388,1.829a1.011,1.011,0,0,0,.475,1.549,2.094,2.094,0,0,1,1.086.857.79.79,0,0,1-.065.678" transform="translate(-998.134 -0.005)" fill="#c0e3ff"/>
          <path id="パス_10379" data-name="パス 10379" d="M45.912,791.279a2.964,2.964,0,0,0-.414-3.48,3.4,3.4,0,0,0-4.211-.231c-1.058-.9-2.757-1.68-4.355-.471a3.207,3.207,0,0,0-1.044,3.77,3.122,3.122,0,0,0-1.892,3.455c.329,1.746,1.976,2.243,3.3,2.276a3.408,3.408,0,0,0,2.82,2.695,3.2,3.2,0,0,0,.39.025,3.442,3.442,0,0,0,3.014-2.349,3.358,3.358,0,0,0,3.521-1.963,2.78,2.78,0,0,0,.083-2.312,3.382,3.382,0,0,0-1.216-1.414m-.7,2.889a1.612,1.612,0,0,1-2.038.692,1.009,1.009,0,0,0-1.309.737c0,.018-.425,1.82-1.494,1.7-1.123-.14-1.219-1.732-1.222-1.794a1.011,1.011,0,0,0-1.011-.967,1.025,1.025,0,0,0-.155.012c-.019,0-1.851.234-2.006-.594-.209-1.112,1.329-1.494,1.5-1.532a1.011,1.011,0,0,0,.629-1.541c-.1-.147-.906-1.451.044-2.171s2.191.751,2.24.811a1.013,1.013,0,0,0,1.44.125c.058-.049,1.424-1.2,2.274-.386.455.436-.2,1.574-.388,1.829a1.008,1.008,0,0,0,.481,1.551,2.127,2.127,0,0,1,1.079.851.788.788,0,0,1-.063.682" transform="translate(-28.326 -656.528)" fill="#c0e3ff"/>
        </g>
      </g>
    </g>
  </g>
</svg>
