<svg id="グループ_4712" data-name="グループ 4712" xmlns="http://www.w3.org/2000/svg" xmlns:xlink="http://www.w3.org/1999/xlink" width="132.267" height="45.542" viewBox="0 0 132.267 45.542">
  <defs>
    <clipPath id="clip-path">
      <rect id="長方形_432" data-name="長方形 432" width="132.267" height="45.542" fill="none"/>
    </clipPath>
  </defs>
  <g id="グループ_622" data-name="グループ 622" transform="translate(0 0)" clip-path="url(#clip-path)">
    <path id="パス_881" data-name="パス 881" d="M0,28.355a11.519,11.519,0,0,1,3.189-7.6l2.392,1.36A7.96,7.96,0,0,0,2.673,28.4c0,3.8,2.955,6.754,7.411,6.754a8.952,8.952,0,0,0,8.864-8.724c0-7.363-11.632-7.551-11.444-16.65C7.6,5.091,12.007.12,18.1.12c6.238,0,9.849,5.769,7.222,11.913H22.513c2.392-5.534-.376-9.521-4.69-9.521a7.56,7.56,0,0,0-7.551,7.082c-.187,7.786,11.444,7.926,11.4,16.791A11.651,11.651,0,0,1,9.9,37.641c-6,0-9.9-3.939-9.9-9.286" transform="translate(0 -0.073)"/>
    <path id="パス_882" data-name="パス 882" d="M80.209,34.368v2.814c-1.829,3.987-5.394,8.114-8.723,8.114-6.192,0-4.362-7.973-1.5-16.181H67.17l.8-2.3h2.814c.891-2.486,1.829-4.925,2.58-7.082h2.626c-.985,2.533-1.876,4.925-2.626,7.082H77.77l-.8,2.3H72.517c-2.955,8.677-3.8,13.742-.8,13.742,2.252,0,5.722-3.705,8.489-8.489" transform="translate(-40.669 -11.949)"/>
    <path id="パス_883" data-name="パス 883" d="M113.79,44.495V47.4c-1.829,4.409-5.769,8.114-11.726,8.114-4.878-.047-7.552-3.189-7.552-7.035,0-6.331,3.987-11.866,9.146-11.866a4.726,4.726,0,0,1,4.971,4.831c0,5.253-5.347,8.536-11.491,7.223.234,2.533,1.782,4.456,5.487,4.456,4.784,0,8.536-3.893,11.163-8.63m-16.51,1.923c4.174,1.219,8.724-.985,8.724-4.784a2.462,2.462,0,0,0-2.439-2.626c-3.189,0-5.722,3.518-6.285,7.41" transform="translate(-57.225 -22.169)"/>
    <path id="パス_884" data-name="パス 884" d="M122.215,67.711c3.424-10.037,6.848-20.777,10.178-30.674h2.533l-1.735,4.268c.938-1.689,3.612-4.691,7.035-4.691,2.814,0,4.643,2.439,4.643,5.957,0,5.488-3.987,12.944-9.849,12.944a6.953,6.953,0,0,1-5.441-2.392c-1.313,3.658-3,9.005-4.643,14.587Zm20.027-25.093c0-2.063-.985-3.564-2.72-3.611-2.72-.094-6.378,3.236-9.052,11.538.8,1.594,2.064,2.579,4.549,2.579,4.08,0,7.223-5.488,7.223-10.506" transform="translate(-73.998 -22.169)"/>
    <path id="パス_885" data-name="パス 885" d="M203.055,26.813c0-11.256,8.3-26.218,17.917-26.218,5.018,0,8.536,3.893,8.536,11.632,0,11.351-7.973,25.8-17.776,25.8-5.16,0-8.677-3.705-8.677-11.21m23.686-14.352c0-5.769-2.251-9.287-6.144-9.287-7.5,0-14.821,13.789-14.821,23.451,0,5.629,2.111,8.865,6.144,8.865,7.692,0,14.821-13.461,14.821-23.029" transform="translate(-122.944 -0.36)"/>
    <path id="パス_886" data-name="パス 886" d="M283.2,18.293a9.513,9.513,0,0,1,6.66,9.146c0,5.675-4.5,10.225-11.538,10.225-5.628,0-9.9-3.236-11.069-8.349l2.579-1.173a8.344,8.344,0,0,0,8.583,7.035c5.253,0,8.724-3.236,8.724-7.926,0-4.737-3.611-7.739-9.38-8.208l.656-2.3c5.91.563,12.945-2.2,12.945-8.583,0-3.518-2.3-5.769-5.863-5.769-3.236,0-6.332,2.439-8.114,5.628l-2.158-1.266A12.264,12.264,0,0,1,285.921,0a7.765,7.765,0,0,1,8.161,7.88c0,6.52-5.769,9.99-10.881,10.412" transform="translate(-161.814 -0.001)"/>
  </g>
</svg>
