<?xml version="1.0" encoding="UTF-8"?>
<svg xmlns="http://www.w3.org/2000/svg" version="1.1" xmlns:xlink="http://www.w3.org/1999/xlink" viewBox="0 0 385 409">
  <defs>
    <style>
      .cls-1 {
        fill: #fff;
      }

      .cls-2 {
        fill: none;
      }

      .cls-3 {
        fill-rule: evenodd;
      }

      .cls-3, .cls-4 {
        fill: #ed6a1f;
      }

      .cls-5 {
        clip-path: url(#clippath-1);
      }

      .cls-6 {
        clip-path: url(#clippath-2);
      }

      .cls-7 {
        clip-path: url(#clippath);
      }
    </style>
    <clipPath id="clippath">
      <rect class="cls-2" x="125" y="326.9" width="19.7" height="15.1"/>
    </clipPath>
    <clipPath id="clippath-1">
      <rect class="cls-2" x="240" y="326.9" width="19.7" height="15.1"/>
    </clipPath>
    <clipPath id="clippath-2">
      <rect class="cls-2" x="135" width="126.3" height="45.5"/>
    </clipPath>
  </defs>
  <!-- Generator: Adobe Illustrator 28.6.0, SVG Export Plug-In . SVG Version: 1.2.0 Build 709)  -->
  <g>
    <g id="_レイヤー_1" data-name="レイヤー_1">
      <g id="_グループ_4746" data-name="グループ_4746">
        <path id="_パス_10381" data-name="パス_10381" class="cls-1" d="M10,24h365c5.5,0,10,4.5,10,10v365c0,5.5-4.5,10-10,10H10c-5.5,0-10-4.5-10-10V34c0-5.5,4.5-10,10-10Z"/>
        <path id="_長方形_1045_-_アウトライン" data-name="長方形_1045_-_アウトライン" class="cls-1" d="M10,25c-5,0-9,4-9,9v365c0,5,4,9,9,9h365c5,0,9-4,9-9V34c0-5-4-9-9-9H10M10,24h365c5.5,0,10,4.5,10,10v365c0,5.5-4.5,10-10,10H10c-5.5,0-10-4.5-10-10V34c0-5.5,4.5-10,10-10Z"/>
        <path id="_パス_10380" data-name="パス_10380" class="cls-4" d="M62,78.5c-.2,0-.4,0-.6-.2-.2-.2-.2-.4-.2-.6v-2.6h-2.7c-.2,0-.4,0-.5-.2-.1-.1-.2-.3-.2-.5,0-.4.3-.7.8-.8h2.7v-5.1c-.5.8-1.1,1.6-1.8,2.4-.7.8-1.4,1.6-2.2,2.3-.7.7-1.5,1.4-2.3,2-.2.1-.4.2-.7.2-.2,0-.5-.1-.6-.3-.2-.2-.2-.4-.2-.6,0-.2.2-.4.4-.5.9-.6,1.7-1.3,2.5-2,.8-.8,1.6-1.6,2.3-2.4.6-.8,1.2-1.6,1.8-2.4h-5.8c-.2,0-.4,0-.5-.2-.1-.1-.2-.3-.2-.5,0-.4.3-.7.8-.8h6.5v-2.8c0-.2,0-.4.2-.6.3-.3.8-.3,1.2,0,.2.2.2.4.2.6v2.8h6.5c.2,0,.4,0,.5.2.1.1.2.3.2.5,0,.4-.3.7-.7.8,0,0,0,0,0,0h-5.7c.5.9,1.2,1.7,1.8,2.5.7.8,1.5,1.6,2.3,2.4.8.7,1.6,1.4,2.5,2,.2.1.3.3.3.5,0,.2,0,.4-.2.6-.1.2-.3.3-.6.3-.2,0-.5,0-.6-.2-.8-.6-1.6-1.3-2.3-1.9-.8-.7-1.5-1.5-2.2-2.3-.7-.8-1.3-1.6-1.8-2.5v5.1h2.8c.2,0,.4,0,.5.2.1.1.2.3.2.5,0,.2,0,.4-.2.5-.1.1-.3.2-.5.2h-2.8v2.6c0,.2,0,.4-.2.6-.2.1-.4.2-.6.2ZM73.4,77.9c-.2.1-.5.2-.7.1-.2,0-.5-.2-.6-.4-.1-.2-.2-.4-.1-.7,0-.2.3-.4.5-.5,1.3-.6,2.5-1.4,3.5-2.4,1-.9,1.7-2,2.3-3.2.5-1.2.8-2.6.8-3.9v-3.9c0-.2,0-.5.3-.6.2-.2.4-.2.6-.2.5,0,.8.3.8.8,0,0,0,0,0,0v3.4c0,1.1.2,2.1.5,3.1.3,1,.8,1.9,1.5,2.8.6.9,1.3,1.6,2.2,2.3.8.7,1.7,1.2,2.6,1.7.2.1.4.3.5.5,0,.2,0,.5,0,.7-.1.2-.3.4-.6.4-.3,0-.5,0-.7-.1-1.5-.8-2.8-1.9-4-3.1-1.1-1.3-2-2.8-2.6-4.4-.5,1.6-1.3,3.1-2.4,4.4-1.2,1.3-2.6,2.4-4.2,3.2ZM101.1,78.2c-.6,0-1.2,0-1.8-.2-.4-.1-.8-.4-.9-.8-.2-.5-.3-1.1-.3-1.6v-4.6c-.2.2-.3.4-.5.6s-.4.4-.5.5c-.1.1-.3.2-.5.2-.2,0-.3,0-.5-.1v2.8c0,.6-.1,1.2-.5,1.7-1.1.6-2.4.6-3.5,0-.4-.5-.6-1.1-.5-1.7v-3.1c-.1.2-.2.4-.4.7-.1.2-.3.4-.4.6-.1.2-.3.3-.5.3-.2,0-.4,0-.6-.1-.2-.1-.3-.3-.3-.5,0-.2,0-.4.1-.6.5-.7.9-1.4,1.3-2.2.4-.8.7-1.7,1-2.5.3-.8.5-1.6.6-2.4h-1.9c-.2,0-.4,0-.5-.2-.1-.1-.2-.3-.2-.5,0-.2,0-.4.2-.5.1-.1.3-.2.5-.2h5.6c.4,0,.7.3.7.7,0,0,0,0,0,0,0,.2,0,.4-.2.5-.1.1-.3.2-.5.2h-2.2c-.2,1.4-.5,2.7-1,4,.3,0,.7-.1,1-.1.6,0,1.2,0,1.7.4.4.4.6.9.6,1.5.8-.8,1.6-1.7,2.2-2.6.6-1,1.1-2,1.5-3.1h-.4c-.3,0-.6,0-.9.2-.2.2-.3.5-.2.8v.5c0,.2,0,.4-.2.5-.1.1-.3.2-.5.2-.2,0-.4,0-.5-.2-.2-.1-.2-.3-.2-.5v-.6c0-.5,0-.9.2-1.4.2-.3.4-.6.8-.7.5-.1,1-.2,1.5-.2h1c0-.2.1-.5.2-.7,0-.2,0-.4.1-.7,0-.4.5-.7.9-.6,0,0,0,0,0,0,.2,0,.4.1.5.3.1.2.1.4,0,.6,0,.2,0,.4-.1.5s0,.4-.1.5h1.8c.5,0,1,0,1.5.2.3.1.6.4.8.7.2.4.3.9.2,1.4v.6c0,.2,0,.4-.2.5-.3.3-.8.3-1,0-.1-.1-.2-.3-.2-.5v-.5c0-.3,0-.6-.2-.8-.3-.2-.6-.2-.9-.2h-2.1c-.2.5-.4,1-.6,1.5-.2.5-.5,1-.7,1.5h1.5c0-.2.2-.4.3-.7l.3-.8.2-.6c0-.2.2-.4.4-.4.2,0,.4,0,.6,0,.2,0,.3.2.4.4,0,.2,0,.4,0,.5,0,.2-.2.4-.3.7-.1.3-.2.6-.4.9h2c.2,0,.3,0,.5.2.1.1.2.3.2.5,0,.2,0,.3-.2.5-.1.1-.3.2-.5.2h-2.1v1.6h1.8c.4,0,.7.3.7.6s-.3.7-.7.7h-1.8v1.5h1.8c.2,0,.3,0,.5.2.1.1.2.3.2.5,0,.4-.3.6-.6.6,0,0,0,0,0,0h-1.8v1.6h2.3c.2,0,.4,0,.5.2.1.1.2.3.2.5,0,.4-.3.7-.7.7,0,0,0,0,0,0h-4.1ZM93.9,75.5c.2,0,.5,0,.6-.2.2-.2.2-.4.2-.6v-3.6c0-.2,0-.4-.2-.6-.4-.2-.9-.2-1.3,0-.2.2-.2.4-.2.6v3.6c0,.2,0,.4.2.6.2.1.4.2.7.2h0ZM99.6,71.1h1.8v-1.6h-1.8v1.6ZM99.6,73.9h1.8v-1.5h-1.8v1.5ZM101.1,76.8h.3v-1.6h-1.8v.3c0,.4,0,.8.3,1.1.4.2.8.3,1.2.3h0ZM115.4,70.6c-.2,0-.4.1-.6,0-.2,0-.4-.2-.5-.3,0-.2-.1-.4,0-.5,0-.2.2-.3.3-.4,1-.5,1.9-1.3,2.5-2.3-.3-.1-.5-.3-.7-.4s-.5-.2-.7-.3c-.2,0-.3-.2-.4-.4,0-.2,0-.4,0-.5,0-.2.2-.3.4-.4.2,0,.4,0,.5,0,.2,0,.4.2.7.3s.5.2.7.3c0-.3.2-.5.2-.8,0-.3.1-.6.2-.9h-2.5c-.4,0-.7-.3-.7-.6,0,0,0,0,0,0,0-.2,0-.4.2-.5.1-.1.3-.2.5-.2h5c.8,0,1.5.1,2.1.6.5.6.7,1.3.6,2,0,.4,0,.7,0,1.1s0,.7,0,1c0,.6-.2,1.2-.5,1.8-.2.4-.6.7-1,.8-.5.2-1,.2-1.5.2-.2,0-.4,0-.6-.2-.2-.1-.3-.3-.3-.5,0-.4.3-.7.6-.8,0,0,0,0,0,0,.3,0,.6,0,1-.1.2,0,.4-.2.5-.4.1-.3.2-.7.2-1.1,0-.2,0-.5,0-.8,0-.3,0-.6,0-.9,0-.4,0-.8-.3-1.1-.3-.2-.7-.3-1.1-.3h-.9c0,.8-.3,1.6-.5,2.3.2.1.4.2.6.4l.5.3c.2.1.3.3.4.5,0,.2,0,.4-.1.6-.1.2-.3.3-.5.4-.2,0-.4,0-.6-.1-.1,0-.3-.2-.5-.3s-.4-.2-.5-.3c-.7,1.2-1.8,2.1-3,2.8h0ZM111.1,78c-.5,0-1.1,0-1.6-.2-.4-.1-.7-.4-.8-.8-.2-.5-.2-1-.2-1.6,0-.5,0-1.1.2-1.6.1-.4.4-.7.8-.8.5-.2,1.1-.3,1.6-.2.5,0,1.1,0,1.6.2.4.1.7.4.8.8.2.5.2,1,.2,1.6,0,.5,0,1.1-.2,1.6-.1.4-.4.7-.8.8-.5.2-1.1.3-1.6.2ZM119.5,78c-.5,0-1,0-1.5-.2-.3-.1-.6-.4-.7-.7-.2-.4-.2-.8-.2-1.3v-3.1c0-.2,0-.4.2-.5.1-.1.3-.2.5-.2.2,0,.4,0,.5.2.1.1.2.3.2.5v2.8c0,.2,0,.5.2.7.3.1.6.2.9.2.3,0,.5,0,.8-.2.2-.2.3-.5.3-.8,0-.2.2-.4.4-.5.2,0,.4-.1.6,0,.2,0,.4.2.4.3,0,.2.1.4,0,.6,0,.6-.4,1.2-.8,1.6-.5.4-1.2.5-1.8.5ZM108.1,66.7c-.2,0-.4,0-.5-.2-.2-.3-.2-.7,0-1,.1-.1.3-.2.5-.2h5.7c.2,0,.4,0,.5.2.2.3.2.7,0,1-.1.1-.3.2-.5.2h-5.7ZM109,64.2c-.2,0-.4,0-.5-.2-.3-.3-.3-.7,0-1,.1-.1.3-.2.5-.2h4c.2,0,.4,0,.5.2.3.3.3.7,0,1-.1.1-.3.2-.5.2h-4ZM109,69.2c-.2,0-.4,0-.5-.2-.1-.1-.2-.3-.2-.5,0-.2,0-.4.2-.5.1-.1.3-.2.5-.2h4c.2,0,.4,0,.5.2.1.1.2.3.2.5,0,.2,0,.3-.2.5-.1.1-.3.2-.5.2h-4ZM109,71.7c-.2,0-.4,0-.5-.2-.2-.3-.2-.7,0-1,.1-.1.3-.2.5-.2h4c.2,0,.4,0,.5.2.2.3.2.7,0,1-.1.1-.3.2-.5.2h-4ZM124.2,76.5c-.2.1-.3.2-.5.1-.2,0-.4-.1-.4-.3-.1-.3-.3-.6-.5-.9s-.4-.7-.7-1.1c-.2-.3-.4-.6-.6-.9-.1-.1-.2-.3-.1-.5,0-.2.1-.3.3-.4.2-.1.4-.2.5-.1.2,0,.4.1.5.3.2.3.4.5.6.9.2.3.5.7.7,1,.2.3.4.7.5.9.1.2.1.4,0,.6,0,.2-.2.3-.3.4h0ZM114.2,77c-.2,0-.3-.2-.3-.4,0-.2,0-.4,0-.5.2-.3.3-.6.4-.9.2-.4.3-.7.4-1.1.1-.4.2-.7.3-1,0-.2.2-.4.3-.5.2,0,.4-.1.5,0,.2,0,.3.2.4.3.1.2.1.4,0,.5,0,.4-.2.7-.3,1.1-.1.4-.3.8-.4,1.2-.1.3-.3.7-.5,1,0,.2-.2.3-.4.4-.2,0-.4,0-.6,0h0ZM111.1,76.6c.5,0,.8,0,.9-.3.2-.3.2-.7.2-1,0-.3,0-.7-.2-1-.1-.2-.5-.3-.9-.3-.3,0-.7,0-1,.3-.2.3-.3.7-.2,1,0,.4,0,.7.2,1,.3.2.6.3,1,.3ZM119.5,73c-.2-.3-.5-.6-.8-.9-.3-.3-.6-.6-.9-.8-.1-.1-.2-.3-.2-.4,0-.2,0-.3.1-.5.1-.1.3-.2.5-.3.2,0,.4,0,.5.2.3.3.6.5.9.8.3.3.6.6.8.9.1.1.2.3.2.5,0,.2,0,.4-.2.5-.1.1-.3.2-.5.2-.2,0-.4,0-.5-.2ZM131.4,77.9c-.8,0-1.6,0-2.3-.2-.5,0-1-.3-1.5-.7-.4-.4-.7-.8-.8-1.4-.2-.7-.3-1.5-.2-2.2v-2.6c0-.7,0-1.5.2-2.2.1-.5.4-1,.8-1.4.4-.4.9-.6,1.5-.7.8-.1,1.5-.2,2.3-.2h1c.1-.3.2-.7.4-1.1s.3-.8.4-1.1h-6.8c-.2,0-.4,0-.5-.2-.1-.1-.2-.3-.2-.5,0-.2,0-.4.2-.5.1-.2.3-.2.5-.2h15.4c.2,0,.4,0,.5.2.1.1.2.3.2.5,0,.2,0,.4-.2.5-.1.1-.3.2-.5.2h-6.7c-.1.3-.2.7-.4,1.1-.1.4-.3.8-.4,1.1h2.4c.8,0,1.6,0,2.3.2.5,0,1,.3,1.5.7.4.4.6.8.8,1.4.2.7.2,1.5.2,2.2v2.6c0,.7,0,1.5-.2,2.2-.1.5-.4,1-.8,1.4-.4.4-.9.6-1.5.7-.8.1-1.5.2-2.3.2h-5.2ZM137.2,76.4c.5,0,1.1,0,1.6-.3.4-.2.6-.5.7-.9.1-.6.2-1.2.2-1.8v-2.7c0-.6,0-1.2-.2-1.8-.1-.4-.4-.7-.7-.9-.5-.2-1.1-.3-1.6-.3v8.6ZM130.8,76.4v-8.6c-.5,0-1.1,0-1.6.3-.4.2-.6.5-.7.9-.2.6-.2,1.2-.2,1.8v2.7c0,.6,0,1.2.2,1.8.1.4.4.7.7.9.5.2,1,.3,1.6.3ZM132.4,76.5h3.2v-2h-3.2v2ZM132.4,73.1h3.2v-2h-3.2v2ZM132.4,69.8h3.2v-2h-3.2v2ZM151,78.4c-.2,0-.4,0-.7,0-.2,0-.4-.2-.5-.4,0-.2,0-.4,0-.6,0-.2.2-.3.4-.4.7-.2,1.3-.5,1.9-.9.5-.3.9-.7,1.2-1.3.3-.6.5-1.2.6-1.9.1-.9.2-1.8.2-2.7,0-.2,0-.4.2-.5.2-.1.3-.2.5-.2.2,0,.4,0,.5.2.2.1.2.3.2.5,0,.4,0,.7,0,1.1s0,.6,0,.9c.3,1,.8,2,1.5,2.7.8.8,1.7,1.4,2.7,1.8.2,0,.3.2.4.4,0,.2,0,.4,0,.6,0,.2-.3.4-.5.4-.2,0-.5,0-.7,0-.9-.4-1.7-.9-2.4-1.5-.6-.6-1.2-1.3-1.5-2.1-.3.9-.8,1.7-1.5,2.3-.8.6-1.6,1.1-2.6,1.5h0ZM151.5,70.6c-.2,0-.4.1-.6,0-.2,0-.4-.2-.5-.4,0-.2,0-.4,0-.6,0-.2.2-.4.4-.4.6-.2,1.2-.5,1.7-.9.4-.3.8-.8,1-1.3.3-.6.5-1.2.5-1.8.1-.9.2-1.7.2-2.6,0-.2,0-.4.2-.5.2-.1.3-.2.5-.2.2,0,.4,0,.5.2.2.1.2.3.2.5,0,.4,0,.8,0,1.2,0,.4,0,.7,0,1,.3.9.8,1.8,1.4,2.5.8.7,1.7,1.3,2.7,1.7.2,0,.3.2.4.4,0,.2,0,.4,0,.6,0,.2-.3.3-.5.4-.2,0-.4,0-.6,0-1.6-.6-3-1.8-3.8-3.4-.3.8-.7,1.5-1.4,2.1-.7.6-1.4,1.1-2.3,1.5h0ZM147.1,78c-.5,0-1,0-1.5-.2-.4-.1-.7-.4-.8-.8-.2-.5-.3-1-.2-1.6,0-.5,0-1.1.2-1.6.1-.4.4-.6.8-.8,1-.3,2.1-.3,3.1,0,.4.1.7.4.8.8.2.5.3,1.1.2,1.6,0,.5,0,1.1-.2,1.6-.1.4-.4.6-.8.8-.5.2-1,.2-1.5.2h0ZM144.3,66.7c-.2,0-.3,0-.5-.2-.3-.3-.3-.7,0-1h0c.1-.1.3-.2.5-.2h5.3c.2,0,.4,0,.5.2.3.3.3.7,0,1-.1.1-.3.2-.5.2h-5.3ZM145.2,64.2c-.2,0-.4,0-.5-.2-.3-.3-.3-.7,0-1,.1-.1.3-.2.5-.2h3.8c.2,0,.4,0,.5.2.3.3.3.7,0,1-.1.1-.3.2-.5.2h-3.8ZM145.1,71.7c-.2,0-.3,0-.5-.2-.1-.1-.2-.3-.2-.5,0-.2,0-.4.2-.5.1-.1.3-.2.5-.2h3.8c.2,0,.3,0,.5.2.1.1.2.3.2.5,0,.2,0,.4-.2.5-.1.1-.3.2-.5.2h-3.8ZM145.1,69.2c-.2,0-.3,0-.5-.2-.1-.1-.2-.3-.2-.5,0-.2,0-.4.2-.5.1-.1.3-.2.5-.2h3.8c.2,0,.3,0,.5.2.1.1.2.3.2.5,0,.2,0,.4-.2.5-.1.1-.3.2-.5.2h-3.8ZM151.3,74.8c-.2,0-.4-.2-.4-.4,0-.2-.1-.4,0-.6l.4-1.2c.1-.4.2-.7.3-1.1,0-.2.2-.4.3-.5.2-.1.4-.1.6,0,.2,0,.4.1.5.3.1.2.2.4,0,.6,0,.2-.1.5-.2.8,0,.3-.2.6-.3.9,0,.3-.2.5-.2.7,0,.2-.2.4-.4.5-.2,0-.4.1-.6,0ZM151.4,66.9c-.2,0-.4-.2-.4-.4,0-.2-.1-.4,0-.6l.4-1.2c.1-.4.2-.7.3-1.1,0-.2.2-.4.3-.5.2,0,.4-.1.6,0,.2,0,.4.1.5.3.1.2.2.4,0,.6,0,.2-.1.5-.2.8,0,.3-.2.6-.3.9,0,.3-.2.5-.2.7,0,.2-.2.4-.4.4-.2,0-.4.1-.6,0h0ZM157.3,74.3c-.2,0-.3-.2-.4-.4,0-.2,0-.4,0-.6.2-.3.3-.6.5-1,.2-.4.3-.7.5-1,0-.2.2-.3.4-.4.2,0,.4,0,.6,0,.2,0,.3.2.4.4,0,.2,0,.4,0,.6,0,.3-.2.6-.4,1-.2.4-.4.8-.5,1.1,0,.2-.3.3-.5.4-.2,0-.4,0-.6,0h0ZM157.3,66.4c-.2,0-.3-.2-.4-.4,0-.2,0-.4,0-.6.2-.3.3-.6.5-1,.2-.4.3-.7.4-1,0-.2.2-.3.4-.4.2,0,.4,0,.6,0,.2,0,.3.2.4.4,0,.2,0,.4,0,.6,0,.3-.2.6-.4,1-.2.4-.4.8-.5,1.1,0,.2-.3.3-.5.4-.2,0-.4,0-.6,0h0ZM147.1,76.6c.3,0,.6,0,.9-.2.2-.3.2-.7.2-1,0-.4,0-.7-.2-1-.2-.2-.6-.3-.9-.2-.3,0-.6,0-.9.2-.2.3-.3.7-.2,1,0,.4,0,.7.2,1,.3.2.6.3.9.2ZM170,71.9c-1,0-1.7-.8-1.7-1.7s.8-1.7,1.7-1.7c1,0,1.7.8,1.7,1.7,0,.5-.2.9-.5,1.2-.3.3-.8.5-1.2.5ZM194.3,78c-.2.1-.4.2-.6.2-.2,0-.4-.1-.5-.3-.2-.2-.3-.4-.5-.7s-.4-.5-.6-.7c-.6.1-1.3.2-2.1.3s-1.7.2-2.5.4c-.9.1-1.7.2-2.6.3-.8.1-1.6.2-2.2.2-.4,0-.8-.2-.9-.6,0,0,0,0,0-.1,0-.2,0-.4.2-.6.2-.2.4-.2.6-.2.2,0,.4,0,.6,0,.2,0,.5,0,.7,0,.2-.3.4-.6.6-1.1s.5-.9.7-1.3c.2-.5.4-.9.6-1.2h-4.2c-.2,0-.4,0-.5-.2-.1-.1-.2-.3-.2-.5,0-.2,0-.4.2-.5.1-.1.3-.2.5-.2h12.9c.2,0,.4,0,.5.2.1.1.2.3.2.5,0,.2,0,.4-.2.5-.1.1-.3.2-.5.2h-7c-.1.3-.3.7-.5,1.1s-.4.8-.6,1.2c-.2.4-.4.8-.6,1.1.9,0,1.9-.2,2.8-.3s1.8-.2,2.5-.3c-.3-.3-.6-.6-.9-.9-.1-.1-.2-.3-.2-.5,0-.2,0-.4.2-.5.2-.2.4-.2.6-.2.2,0,.4.1.6.3.3.3.7.7,1,1.1s.7.8,1.1,1.2c.4.4.7.8.9,1.2.1.2.2.4.2.6,0,.2-.1.4-.3.5ZM180.8,69.1c-.2.1-.5.2-.7.1-.2,0-.4-.2-.5-.4-.1-.2-.1-.4,0-.6,0-.2.2-.4.4-.5.7-.4,1.5-.9,2.2-1.4s1.5-1.1,2.3-1.7c.7-.6,1.4-1.1,2-1.7.4-.5.9-.7,1.5-.8.6,0,1.1.3,1.5.8.5.5,1.2,1,1.9,1.6.7.6,1.5,1.1,2.3,1.6.8.5,1.6,1,2.3,1.4.2.1.4.3.5.6,0,.2,0,.5-.1.6-.1.2-.3.3-.6.4-.3,0-.5,0-.8-.2-.7-.4-1.5-.9-2.3-1.5s-1.6-1.1-2.3-1.7c-.7-.6-1.4-1.1-1.9-1.7-.1-.2-.3-.3-.6-.3-.2,0-.4.1-.6.3-.6.6-1.2,1.1-2,1.7-.8.6-1.5,1.2-2.3,1.8-.7.5-1.5,1-2.3,1.5ZM184.6,69.2c-.2,0-.4,0-.5-.2-.1-.1-.2-.3-.2-.5,0-.2,0-.4.2-.5.1-.1.3-.2.5-.2h6.8c.2,0,.4,0,.5.2.1.1.2.3.2.5,0,.2,0,.4-.2.5-.1.1-.3.2-.5.2h-6.8ZM199.8,78.3c-.2,0-.5,0-.7,0-.2,0-.4-.2-.4-.4,0-.2-.1-.4,0-.6,0-.2.2-.3.4-.4.4-.1.8-.3,1.4-.5.5-.2,1-.4,1.5-.6.4-.2.8-.4,1.2-.6-.6,0-1.1,0-1.7-.3-.4-.1-.7-.4-.9-.8-.2-.5-.3-1-.3-1.5v-3c0-.5,0-1.1.3-1.5.2-.4.5-.7.9-.8.6-.2,1.2-.3,1.8-.2h5.4c.6,0,1.2,0,1.8.2.4.1.7.4.9.8.2.5.3,1,.3,1.5v3c0,.5,0,1-.3,1.5-.2.4-.5.7-.9.8-.6.2-1.1.3-1.7.3.4.2.8.4,1.2.6.5.2,1,.4,1.5.6.5.2.9.3,1.3.5.2,0,.4.2.4.4,0,.2.1.4,0,.6,0,.2-.2.3-.4.4-.2,0-.5,0-.7,0-.4-.1-.9-.3-1.4-.5-.5-.2-1-.4-1.5-.7-.4-.2-.9-.4-1.3-.7-.2-.1-.3-.3-.3-.5,0-.2,0-.4.1-.5l.2-.2h-3.9c0,0,.1.1.1.2.1.1.2.3.2.5,0,.2-.2.4-.3.5-.4.3-.8.5-1.3.7-.5.2-1,.5-1.5.7s-1,.4-1.4.5ZM203.1,66.3c-.5,0-1,0-1.4-.2-.3-.1-.6-.3-.7-.6-.1-.4-.2-.8-.2-1.2,0-.4,0-.8.2-1.2.1-.3.4-.5.7-.6.5-.1.9-.2,1.4-.2h5.8c.5,0,1,0,1.4.2.3,0,.6.3.7.6.1.4.2.8.2,1.2,0,.4,0,.8-.2,1.2-.1.3-.4.5-.7.6-.5.1-.9.2-1.4.2h-5.8ZM203.5,65.1h5c.3,0,.6,0,.9-.1.1,0,.2-.3.2-.6s0-.5-.2-.6c-.3-.1-.6-.1-.9-.1h-5c-.3,0-.6,0-.9.1-.1,0-.2.3-.2.6s0,.5.2.6c.3.1.6.2.9.1ZM203.6,74h4.8c.4,0,.9,0,1.2-.2.2-.1.3-.5.3-.9h-8c0,.5.1.8.3.9.4.2.8.2,1.2.2h0ZM202,71.7h8v-1.1h-8v1.1ZM202,69.5h8c0-.5-.1-.7-.3-.9-.4-.2-.8-.2-1.2-.2h-4.8c-.4,0-.8,0-1.2.2-.2.1-.3.4-.4.9h0ZM224,78.5c-.2,0-.4,0-.6-.2-.2-.2-.2-.4-.2-.6v-2.6h-2.7c-.2,0-.4,0-.5-.2-.1-.1-.2-.3-.2-.5,0-.4.3-.7.8-.8h2.7v-5.1c-.5.8-1.1,1.6-1.8,2.4-.7.8-1.4,1.6-2.2,2.3-.7.7-1.5,1.4-2.3,2-.2.1-.4.2-.7.2-.2,0-.5-.1-.6-.3-.2-.2-.2-.4-.2-.6,0-.2.2-.4.4-.5.9-.6,1.7-1.3,2.5-2,.8-.8,1.6-1.6,2.3-2.4.6-.8,1.2-1.6,1.8-2.4h-5.8c-.2,0-.4,0-.5-.2-.1-.1-.2-.3-.2-.5,0-.4.3-.7.8-.8h6.5v-2.8c0-.2,0-.4.2-.6.3-.3.8-.3,1.2,0,.2.2.2.4.2.6v2.8h6.5c.2,0,.4,0,.5.2.1.1.2.3.2.5,0,.4-.3.7-.7.8,0,0,0,0,0,0h-5.7c.5.9,1.2,1.7,1.8,2.5.7.8,1.5,1.6,2.3,2.4.8.7,1.6,1.4,2.5,2,.2.1.3.3.3.5,0,.2,0,.4-.2.6-.1.2-.3.3-.6.3-.2,0-.5,0-.6-.2-.8-.6-1.6-1.3-2.3-1.9-.8-.7-1.5-1.5-2.2-2.3-.7-.8-1.3-1.6-1.8-2.5v5.1h2.8c.2,0,.4,0,.5.2.1.1.2.3.2.5,0,.2,0,.4-.2.5-.1.1-.3.2-.5.2h-2.8v2.6c0,.2,0,.4-.2.6-.2.1-.4.2-.6.2ZM234.8,78c-.2,0-.4,0-.5-.2-.1-.1-.2-.3-.2-.5,0-.4.3-.7.7-.7h4.3c0-.2-.2-.5-.3-.7-.1-.2-.2-.4-.2-.5,0-.2,0-.3,0-.5,0-.2.2-.3.3-.4-.6,0-1.2-.2-1.6-.7-.3-.5-.5-1.1-.4-1.6,0-.5,0-.9.3-1.4.2-.3.5-.6.9-.7.6-.2,1.1-.2,1.7-.2h4.3c.8,0,1.6.1,2.3.5.5.5.7,1.1.6,1.8,0,.6-.1,1.1-.4,1.6-.4.4-.9.7-1.5.7.2,0,.3.2.3.4,0,.2,0,.4,0,.5,0,.1-.1.3-.3.6l-.3.7h4.4c.2,0,.4,0,.5.2.1.1.2.3.2.5,0,.2,0,.4-.2.5-.1.1-.3.2-.5.2h-14.3ZM234.6,70.5c-.2.1-.4.1-.6.1-.2,0-.4-.2-.5-.3-.1-.2-.1-.4,0-.6,0-.2.2-.4.4-.5.6-.3,1.1-.6,1.6-.9.5-.4,1-.7,1.5-1.1-.2-.2-.5-.5-.9-.8-.4-.3-.7-.5-.9-.7-.2,0-.2-.3-.2-.4,0-.4.3-.7.7-.7.2,0,.4,0,.5.2.2.1.4.3.6.4.2.2.5.4.7.6.2.2.4.4.6.5.3-.3.5-.5.7-.8.2-.2.4-.5.6-.8.2-.3.3-.5.2-.6s-.3-.2-.6-.2h-2.8c-.2,0-.4,0-.5-.2-.1-.1-.2-.3-.2-.5,0-.2,0-.3.2-.5.1-.1.3-.2.5-.2h3.3c.9,0,1.5.2,1.7.7.2.6,0,1.3-.3,1.7-.2.3-.5.7-.7,1-.3.3-.6.7-.9,1h5.6c-.5-.6-1-1.2-1.4-1.8-.4-.6-.8-1.3-1.1-2,0-.2,0-.4,0-.6,0-.2.2-.3.4-.4.2,0,.4,0,.6,0,.2,0,.3.2.4.4.1.3.3.6.5.9.2.3.3.6.5.9.2-.2.4-.3.7-.5.2-.2.5-.4.7-.6.2-.2.4-.3.5-.5.1-.1.3-.2.5-.2.2,0,.4,0,.5.2.1.1.2.3.2.5,0,.2,0,.4-.2.5l-.6.5c-.2.2-.5.4-.8.6-.3.2-.5.4-.7.6.1.2.3.4.5.5.2.2.3.3.5.5l.7-.5c.3-.2.5-.4.8-.7.3-.2.5-.4.6-.5.1-.1.3-.2.5-.2.2,0,.4,0,.5.2.1.1.2.3.2.5,0,.2,0,.4-.2.5-.1.1-.3.3-.6.5-.2.2-.5.4-.8.6-.3.2-.5.4-.7.5.8.6,1.7,1.1,2.6,1.6.2,0,.3.2.4.4,0,.2,0,.4,0,.6-.1.2-.3.4-.5.4-.2,0-.5,0-.7-.1-1.3-.7-2.5-1.5-3.6-2.5,0,.4-.4.7-.8.7h-5.5c-.4,0-.7-.3-.8-.8h0c-.6.4-1.2,1-1.9,1.4-.6.5-1.3.9-2,1.2h0ZM239.7,73h4.6c.3,0,.6,0,.9-.2.2-.1.3-.3.3-.7s0-.6-.3-.7c-.3-.1-.6-.2-.9-.2h-4.6c-.3,0-.6,0-.9.2-.2.1-.2.3-.2.7s0,.6.2.7c.3.1.6.2.9.2h0ZM240.9,76.5h2.2c.1-.2.3-.5.4-.9.2-.4.3-.7.4-.9,0-.1.1-.2.2-.3h-4.2c.1,0,.2.2.2.3,0,.1.1.3.2.5,0,.2.2.4.3.7,0,.2.2.4.2.6h0ZM261.8,78.5c-.2,0-.4,0-.6-.2-.1-.1-.2-.3-.2-.5,0-.2,0-.4.2-.5.1-.2.3-.3.6-.3.3,0,.6,0,.9-.2.2-.2.3-.4.2-.7v-1.3c-.3.1-.5.3-.9.5s-.7.3-1,.5c-.3.2-.6.3-.8.4-.4.2-.8,0-1-.4,0,0,0,0,0,0,0-.2,0-.4,0-.6,0-.2.2-.3.4-.4l1-.4c.4-.2.8-.4,1.3-.6.4-.2.8-.4,1.1-.5v-3.8h-3.3c-.4,0-.7-.3-.7-.7,0-.2,0-.4.2-.5.1-.1.3-.2.5-.2h5.2v-1.4h-4c-.2,0-.4,0-.5-.2-.3-.3-.3-.7,0-1,.1-.1.3-.2.5-.2h4v-.3c0-.3,0-.6-.2-.8-.3-.2-.6-.2-.9-.2h-3c-.2,0-.4,0-.5-.2-.1-.1-.2-.3-.2-.5,0-.2,0-.4.2-.5.1-.1.3-.2.5-.2h3c.6,0,1.1,0,1.6.2.4.1.7.4.8.7.2.5.3,1,.2,1.5v3.1h1.4c.4,0,.7.3.7.7,0,0,0,0,0,0,0,.2,0,.4-.2.5-.1.1-.3.2-.5.2h-3.3v1.6c0,.2.2.4.3.5.1.2.2.4.3.5.2-.2.4-.4.6-.6.2-.2.4-.4.6-.6.2-.2.4-.4.5-.5.1-.1.3-.2.5-.2.2,0,.4,0,.5.2.1.1.2.3.2.5,0,.2,0,.4-.2.5-.2.2-.5.5-.9.9-.4.3-.7.6-1,.9.4.5.8.9,1.2,1.4.4.4.8.8,1.3,1.2.2.1.3.3.3.5,0,.2,0,.4-.2.5-.1.2-.3.3-.6.3-.2,0-.4,0-.6-.2-.5-.5-1-1-1.5-1.5-.5-.6-.9-1.2-1.4-1.8v2.6c0,.6-.1,1.3-.6,1.7-.6.4-1.3.6-2,.5ZM252.8,78c-.2,0-.4,0-.6,0-.2-.1-.3-.3-.3-.5,0-.4.2-.8.6-.9,0,0,0,0,0,0,.3,0,.7-.1,1.2-.2s.9-.2,1.3-.2v-4.8h-2.2c-.4,0-.6-.3-.6-.7s.3-.6.6-.6h2.2v-1.7h-1.3c-.4,0-.7-.3-.7-.7,0,0,0,0,0,0,0-.2,0-.3.2-.5.1-.1.3-.2.5-.2h4.3c.2,0,.4,0,.5.2.1.1.2.3.2.5,0,.4-.3.7-.7.7,0,0,0,0,0,0h-1.5v1.7h1.9c.4,0,.6.3.6.6s-.3.7-.6.7h-1.9v4.6c.3,0,.6-.1.9-.2.3,0,.6-.1.8-.2.2,0,.4,0,.6,0,.2.1.3.3.3.4,0,.2,0,.4,0,.6-.1.2-.3.3-.5.3-.5.1-1.1.2-1.7.4s-1.4.3-2.1.4c-.7.1-1.3.3-1.9.4h0ZM251.5,67.5c-.3-.3-.3-.7,0-1,0,0,0,0,0,0,.4-.3.7-.7,1-1,.4-.4.7-.8,1-1.2.3-.4.6-.8.9-1.2.3-.5.8-.8,1.3-.8.5,0,1,.3,1.3.7.3.4.7.8,1.2,1.2s.9.8,1.2,1.1c.2.1.3.3.3.5,0,.2,0,.4-.2.6-.1.2-.3.2-.6.3-.2,0-.4,0-.6-.2-.3-.3-.7-.6-1.1-1-.4-.4-.8-.8-1.1-1.2-.2-.2-.3-.3-.4-.3s-.3.1-.4.3c-.2.3-.5.7-.8,1.1-.3.4-.6.8-1,1.2-.3.4-.6.7-.9,1-.1.2-.4.2-.6.2-.2,0-.4,0-.6-.2h0ZM254.1,75.4c-.2,0-.4,0-.5,0-.1,0-.3-.2-.3-.4,0-.2-.1-.4-.3-.7-.1-.3-.2-.6-.3-.8-.1-.3-.2-.5-.3-.7,0-.2,0-.3,0-.5,0-.2.2-.3.4-.3.2,0,.3,0,.5,0,.2,0,.3.2.3.4,0,.2.2.4.3.7.1.3.2.6.3.8.1.3.2.5.2.6,0,.2,0,.3,0,.5,0,.1-.2.3-.4.3h0ZM257.2,75.1c-.2,0-.3-.2-.3-.3,0-.2,0-.3,0-.5,0-.2.2-.4.3-.6l.3-.8c.1-.3.2-.5.3-.6,0-.2.2-.3.4-.4.2,0,.4,0,.5,0,.2,0,.3.2.4.3,0,.2,0,.4,0,.5,0,.2-.1.4-.3.7s-.2.5-.4.8l-.3.6c0,.2-.2.3-.4.3-.2,0-.3,0-.5,0h0ZM262,73c-.1.1-.3.2-.5.1-.2,0-.4-.1-.5-.3,0-.1-.2-.3-.4-.4s-.3-.4-.4-.6c-.2-.2-.3-.3-.4-.4-.1-.1-.2-.3-.1-.5,0-.2.1-.3.3-.5.2-.1.3-.2.5-.2.2,0,.4.1.5.3,0,.1.2.3.4.5.2.2.3.4.5.6.1.1.2.3.3.4.1.1.2.3.1.5,0,.2-.1.4-.3.5h0ZM285.6,78.6c-.1,0-.2.1-.4.1-.1,0-.3,0-.4-.2-1.1-1.1-2-2.3-2.7-3.7-.7-1.5-1-3.1-1-4.7,0-1.6.3-3.3,1-4.7.7-1.4,1.6-2.7,2.7-3.7,0-.1.2-.2.4-.2.1,0,.3,0,.4.1,0,0,.2.2.2.4,0,.1,0,.3-.1.4-1,1-1.8,2.2-2.5,3.5-.6,1.3-.9,2.8-.9,4.3,0,1.5.3,2.9.9,4.3.6,1.3,1.4,2.5,2.5,3.5,0,0,.1.2.1.4,0,.1,0,.3-.2.4h0ZM293,78.5c-.2,0-.4,0-.6-.2-.2-.2-.3-.4-.3-.6v-7.6s0,0,0-.1c-.9,1.1-2,2-3.2,2.8-.2.1-.4.2-.6.1-.2,0-.4-.2-.5-.4-.1-.2-.2-.4-.1-.6,0-.2.1-.4.3-.5,1.1-.7,2.1-1.5,3-2.5.8-1,1.6-2.1,2.1-3.2h-4.6c-.2,0-.4,0-.5-.2-.1-.1-.2-.3-.2-.5,0-.2,0-.4.2-.5.1-.2.3-.2.5-.2h5.2c0-.3.2-.6.3-.9,0-.3.1-.6.2-.9,0-.2.2-.5.4-.6.2-.1.5-.1.7,0,.4,0,.7.4.7.8,0,0,0,.1,0,.2-.1.4-.2.9-.4,1.4h8.1c.2,0,.4,0,.5.2.1.1.2.3.2.5,0,.2,0,.4-.2.5-.1.2-.3.2-.5.2h-8.6c-.3.6-.6,1.2-.9,1.8.5,0,1-.1,1.5-.1h2.6c.7,0,1.3,0,2,.2.4.1.8.5,1,.9.2.5.3,1.1.3,1.7v5.7c0,.7-.2,1.4-.6,1.9-.7.4-1.5.6-2.3.5-.2,0-.4,0-.6-.2-.2-.1-.3-.3-.3-.6,0-.2,0-.4.2-.6.1-.2.3-.3.5-.3.4,0,.8,0,1.2-.2.2-.1.3-.4.3-.8v-1.3h-5.7v3.3c0,.2,0,.5-.2.6-.2.2-.4.2-.6.2h0ZM293.9,73h5.7v-1.4h-5.7v1.4ZM293.9,70.2h5.7c0-.3,0-.6-.1-.9,0-.2-.2-.4-.4-.4-.3,0-.6-.1-1-.1h-2.7c-.3,0-.7,0-1,.1-.2,0-.4.2-.4.4,0,.3-.1.6-.1.9h0ZM310.1,78.5c-.4,0-.8-.3-.8-.7,0,0,0,0,0,0v-6c-.4.6-.8,1.2-1.2,1.7-.4.5-.7,1-1.1,1.4-.1.2-.3.2-.5.3-.2,0-.4,0-.5-.2-.2-.1-.2-.3-.2-.5,0-.2,0-.4.2-.5.4-.4.8-.8,1.1-1.3.4-.5.8-1.1,1.2-1.7.4-.6.7-1.1.9-1.6h-2.6c-.2,0-.4,0-.5-.2-.1-.1-.2-.3-.2-.5,0-.2,0-.4.2-.5.1-.1.3-.2.5-.2h2.8v-5.3c0-.2,0-.4.2-.6.1-.1.3-.2.5-.2.2,0,.4,0,.5.2.2.1.2.4.2.6v5.3h2.3c.4,0,.7.3.7.7,0,0,0,0,0,0,0,.2,0,.4-.2.5-.1.1-.3.2-.5.2h-2.3v.4c.2.3.5.6.8.9.3.3.6.7.9,1,.3.3.6.6.8.8,0,0,.2.2.2.3.1-.2.3-.3.6-.3.6,0,1.3-.2,2.1-.4.8-.2,1.6-.3,2.4-.5v-8.9c0-.2,0-.4.2-.6.2-.1.4-.2.6-.2.2,0,.4,0,.5.2.2.1.2.4.2.6v8.5c.3,0,.6-.1.8-.2l.7-.2c.2,0,.4,0,.6,0,.4.2.4.7.2,1.1-.1.2-.3.3-.5.3l-.9.2c-.3,0-.7.1-1,.2v5c0,.2,0,.4-.2.6-.1.1-.3.2-.5.2-.2,0-.4,0-.6-.2-.2-.1-.2-.4-.2-.6v-4.7c-.7.2-1.5.3-2.2.5s-1.4.3-2,.4c-.2,0-.4,0-.6-.1-.2-.1-.3-.3-.3-.5,0,0,0,0,0,.1-.1.2-.3.2-.5.2-.2,0-.4,0-.5-.2-.2-.2-.4-.5-.7-.8s-.5-.6-.8-1v6c0,.2,0,.4-.2.6-.1.1-.3.2-.5.2h0ZM316.9,66.4c-.2-.2-.5-.4-.9-.7-.3-.3-.7-.5-.9-.7-.2-.1-.3-.3-.3-.5,0-.4.3-.8.7-.8.2,0,.4,0,.6.2.2.1.4.2.6.4s.5.3.7.5c.2.2.4.3.6.5.2.1.3.3.3.5,0,.2,0,.4-.2.6-.1.2-.3.2-.5.2-.2,0-.4,0-.6-.2h0ZM316.4,70.2c-.3-.2-.6-.5-.9-.7-.4-.3-.7-.5-.9-.6-.2-.1-.3-.3-.3-.5,0-.2,0-.4.2-.5.1-.2.3-.3.5-.3.2,0,.4,0,.6.1.2.1.4.2.6.4l.7.5c.2.1.4.3.6.4.2.1.3.3.3.5,0,.2,0,.4-.2.6-.1.2-.3.2-.5.3-.2,0-.4,0-.6-.2h0ZM311.8,67.2c-.2,0-.3-.2-.4-.4,0-.2,0-.3,0-.5.1-.2.2-.5.4-.8.1-.3.3-.6.4-.9s.2-.5.3-.7c0-.2.2-.3.4-.4.2,0,.4,0,.5,0,.3,0,.6.4.5.8,0,0,0,0,0,0,0,.2-.2.5-.3.8s-.3.6-.4.9c-.1.3-.2.5-.4.8,0,.2-.2.3-.4.3-.2,0-.4,0-.5,0ZM308.2,67.1c-.2,0-.4,0-.6,0-.2,0-.3-.2-.4-.4,0-.2-.2-.4-.3-.7s-.2-.5-.4-.8c-.1-.3-.2-.5-.3-.7,0-.2,0-.4,0-.5,0-.2.2-.3.4-.4.2,0,.4,0,.6,0,.2,0,.3.2.4.4,0,.2.2.4.3.7.1.3.3.6.4.9.1.3.2.5.3.7,0,.2,0,.4,0,.5,0,.2-.2.3-.4.4ZM324.4,78.6c0,0-.2-.2-.2-.4,0-.1,0-.3.1-.4,1-1,1.8-2.2,2.5-3.5.6-1.3.9-2.8.9-4.3,0-1.5-.3-2.9-.9-4.3-.6-1.3-1.4-2.5-2.5-3.5,0,0-.1-.2-.1-.4,0-.1,0-.3.2-.4.1,0,.2-.1.4-.1.1,0,.3,0,.4.2,1.1,1.1,2,2.3,2.7,3.7.7,1.5,1,3.1,1,4.7,0,1.6-.3,3.2-1,4.7-.7,1.4-1.6,2.7-2.7,3.7,0,.1-.2.2-.4.2-.1,0-.3,0-.4-.1ZM98.1,102c-.6,0-.9-.2-.9-.5,0-.9.3-1.8.8-2.6.6-1,1.4-1.8,2.2-2.6.4-.4.8-.8,1.1-1.2.3-.4.6-.7.9-1.2.2-.3.3-.7.4-1.1,0-.6-.1-1.1-.5-1.6-.4-.4-.9-.6-1.5-.5-.4,0-.8.1-1.1.4-.3.3-.5.7-.6,1.1,0,.2-.1.4-.3.6-.1.2-.3.2-.6.2-.2,0-.4,0-.6-.2-.1-.2-.2-.4-.1-.7.1-.8.5-1.6,1.1-2.1.6-.5,1.4-.8,2.2-.8.6,0,1.3.1,1.8.4.5.3,1,.7,1.2,1.2.3.6.4,1.3.4,2,0,.6-.2,1.1-.4,1.6-.3.5-.6,1-1,1.4-.4.5-.9.9-1.4,1.4-.6.6-1.1,1.2-1.6,1.7-.4.4-.7,1-.8,1.5h4.2c.6,0,.9.2.9.7s-.3.7-.9.7h-5ZM114.7,103.6c-.2,0-.4,0-.6-.2-.2-.2-.3-.4-.3-.6v-3.5h-7.8c-.2,0-.4,0-.5-.2-.1-.1-.2-.3-.2-.5,0-.4.3-.7.7-.7h2.7v-1.7c0-.6,0-1.1.3-1.6.2-.4.5-.7,1-.9.6-.2,1.2-.3,1.9-.3h1.9v-2.4h-4.1c-.8,1.1-1.6,2.2-2.6,3.1-.2.2-.4.3-.6.3-.2,0-.5,0-.6-.2-.2-.1-.3-.3-.3-.6,0-.2,0-.4.3-.6.6-.5,1.1-1.1,1.6-1.7.5-.6,1-1.3,1.4-2,.4-.6.8-1.3,1.1-2,0-.2.3-.4.5-.4.2,0,.4,0,.6,0,.2,0,.3.2.4.4,0,.2,0,.4,0,.6-.1.3-.2.5-.4.8-.1.3-.3.5-.4.8h9.8c.2,0,.4,0,.5.2.1.1.2.3.2.5,0,.4-.3.7-.7.7h-5v2.4h3.9c.2,0,.4,0,.5.2.1.1.2.3.2.5,0,.2,0,.4-.2.5-.1.2-.3.2-.5.2h-3.9v2.9h5.7c.4,0,.7.3.7.7h0c0,.2,0,.4-.2.5-.1.1-.3.2-.5.2h-5.7v3.5c0,.2,0,.5-.3.6-.2.2-.4.2-.6.2h0ZM110.5,97.8h3.4v-2.9h-1.9c-.4,0-.8,0-1.1.2-.2.3-.3.6-.3,1v1.7ZM136.5,103.4c-.2,0-.5,0-.6-.2-.2-.2-.2-.4-.3-.6,0-.2,0-.4.2-.6.2-.2.4-.3.6-.3.3,0,.6,0,.8-.2.2,0,.3-.2.4-.3,0-.2,0-.4,0-.6v-7.3h-2.4c-.8,0-1.5-.1-2.2-.5-.5-.5-.7-1.3-.6-2v-.9c0-.7.2-1.5.6-2,.6-.5,1.4-.7,2.2-.6h1.1c.8,0,1.5.1,2.2.6.5.6.7,1.3.6,2v11c0,.7-.2,1.4-.6,1.9-.6.4-1.4.6-2.1.6ZM125,103.5c-.2,0-.4,0-.6-.2-.2-.1-.2-.4-.2-.6v-12.8c0-.7.2-1.5.6-2,.6-.4,1.4-.6,2.2-.6h1c.8,0,1.5.1,2.2.6.5.6.7,1.3.6,2v.9c0,.7-.1,1.4-.6,2-.6.4-1.4.6-2.2.5h-2.3v9.4c0,.2,0,.4-.2.6-.2.1-.4.2-.6.2ZM131.3,101.5c-.8,0-1.6-.2-2.2-.6-.5-.6-.7-1.3-.7-2v-1.6c0-.7.2-1.5.7-2,.6-.5,1.4-.7,2.2-.6h.9c.8,0,1.5.1,2.2.6.5.6.7,1.3.7,2v1.6c0,.7-.2,1.5-.7,2-.6.5-1.4.7-2.2.6h-.9ZM131.4,100.2h.6c.4,0,.8,0,1.2-.3.2-.3.4-.7.3-1.1h0c0,0-3.5,0-3.5,0h0c0,.5,0,.9.3,1.2.3.2.8.3,1.2.3h0ZM130,97.4h3.5c0-.5,0-.9-.3-1.2-.3-.2-.8-.3-1.2-.3h-.6c-.4,0-.8,0-1.2.3-.2.3-.4.7-.3,1.1h0ZM135.4,92h2.2v-1h-3.7c0,.3.1.6.4.8.3.2.7.2,1.1.2h0ZM125.8,92h2.1c.4,0,.7,0,1.1-.2.2-.2.4-.5.3-.8h-3.5v1ZM134,89.7h3.6c0-.3-.1-.6-.4-.8-.3-.2-.7-.2-1.1-.2h-.8c-.4,0-.7,0-1.1.2-.2.2-.4.5-.4.8h0ZM125.8,89.7h3.5c0-.3-.1-.6-.4-.8-.3-.2-.7-.2-1.1-.2h-.7c-.4,0-.7,0-1.1.2-.2.2-.4.5-.4.8h0ZM154.4,102.3c-1.2-.1-2.4-.5-3.4-1.2-.8-.5-1.5-1.3-2-2.1-.4-.8-.6-1.7-.6-2.6,0-1,.2-2,.7-2.9.5-.9,1.1-1.7,2-2.3-.5,0-1.1.1-1.7.2-.6.1-1.3.2-2,.3-.7.1-1.3.2-2,.4-.7.1-1.3.2-1.8.3-.2,0-.4,0-.6-.1-.4-.3-.4-.8-.2-1.1.1-.2.3-.3.5-.3.3,0,.8-.1,1.4-.2s1.2-.2,2-.3c.7-.1,1.5-.2,2.3-.4l2.3-.4c.8-.1,1.5-.2,2.1-.3.6-.1,1.2-.2,1.6-.3.2,0,.4,0,.6.1.2.1.3.3.3.5,0,.2,0,.4,0,.6-.1.2-.3.3-.5.3-.8.1-1.6.4-2.3.8-.6.4-1.2.9-1.7,1.5-.4.5-.8,1.1-1,1.8-.2.6-.3,1.2-.3,1.8,0,1.1.4,2.3,1.3,3,1,.8,2.1,1.3,3.3,1.4.2,0,.4.1.5.3.1.2.2.4.2.6,0,.2-.1.4-.3.5-.2.1-.4.2-.6.1h0ZM158.5,93.4c-.1.1-.3.2-.5.2-.2,0-.4,0-.5-.2-.2-.2-.4-.4-.6-.6-.2-.2-.4-.4-.6-.6-.1-.1-.2-.2-.2-.4,0-.2,0-.3.1-.4,0-.1.3-.2.4-.2.2,0,.3,0,.5.2.2.2.4.3.7.5.3.2.5.4.7.6.1.1.2.3.2.5,0,.2,0,.3-.2.5h0ZM157,94.9c-.1.1-.3.2-.5.2-.2,0-.3,0-.4-.2-.4-.4-.8-.8-1.2-1.2-.1-.1-.2-.2-.2-.4,0-.2,0-.3.2-.4.1-.1.3-.2.4-.2.2,0,.3,0,.4.2.2.2.4.4.6.5.2.2.5.4.6.6.1.1.2.3.2.5,0,.2,0,.3-.2.5ZM162.8,102c-.5,0-.8-.3-.8-.9v-9.8l-1.7,1c-.5.3-.9.3-1.1-.2-.3-.4-.2-.8.3-1.1l2.3-1.4c.3-.2.7-.3,1-.3.4,0,.6.3.6.9v10.9c0,.6-.3.9-.8.9ZM170.4,102.2c-1.2.1-2.3-.5-2.8-1.6-.6-1.6-.9-3.2-.8-4.9,0-1.7.2-3.3.8-4.9.9-1.6,3-2.1,4.5-1.1.5.3.9.7,1.1,1.1.6,1.6.9,3.2.8,4.9,0,1.7-.2,3.3-.8,4.9-.5,1.1-1.6,1.7-2.8,1.6ZM170.4,100.7c.5,0,.9-.1,1.2-.5.4-.4.6-1,.7-1.6.2-1,.2-2,.2-3,0-1,0-2-.2-3,0-.6-.3-1.1-.7-1.6-.7-.6-1.7-.6-2.4,0-.4.4-.6,1-.7,1.6-.2,1-.2,2-.2,3,0,1,0,2,.2,3,0,.6.3,1.1.7,1.6.3.3.8.5,1.2.5h0ZM177.5,104.5c-.2.1-.4.2-.6.1-.2,0-.3-.1-.4-.2,0-.1,0-.3,0-.4.2-.1.3-.3.5-.4.3-.2.5-.4.7-.7.2-.3.3-.6.3-.9,0-.2,0-.3,0-.5,0,.2-.2.3-.4.4-.2.1-.3.2-.5.2-.3,0-.6,0-.8-.3-.2-.2-.3-.5-.3-.8,0-.3.1-.6.4-.8.2-.2.6-.3.9-.3.5,0,1,.2,1.3.6.4.4.6,1,.5,1.6,0,.5-.1,1-.4,1.4-.3.4-.7.7-1.2,1h0ZM184.7,102.2c-1.2.1-2.3-.5-2.8-1.6-.6-1.6-.9-3.2-.8-4.9,0-1.7.2-3.3.8-4.9.9-1.6,3-2.1,4.5-1.1.5.3.9.7,1.1,1.1.6,1.6.9,3.2.8,4.9,0,1.7-.2,3.3-.8,4.9-.5,1.1-1.6,1.7-2.8,1.6ZM184.7,100.7c.5,0,.9-.1,1.2-.5.4-.4.6-1,.7-1.6.2-1,.2-2,.2-3,0-1,0-2-.2-3,0-.6-.3-1.1-.7-1.6-.7-.6-1.7-.6-2.4,0-.4.4-.6,1-.7,1.6-.2,1-.2,2-.2,3,0,1,0,2,.2,3,0,.6.3,1.1.7,1.6.3.3.8.5,1.2.5h0ZM193.7,102.2c-1.2.1-2.3-.5-2.8-1.6-.6-1.6-.9-3.2-.8-4.9,0-1.7.2-3.3.8-4.9.9-1.6,3-2.1,4.5-1.1.5.3.9.7,1.1,1.1.6,1.6.9,3.2.8,4.9,0,1.7-.2,3.3-.8,4.9-.5,1.1-1.6,1.7-2.8,1.6ZM193.7,100.7c.5,0,.9-.1,1.2-.5.4-.4.6-1,.7-1.6.2-1,.2-2,.2-3,0-1,0-2-.2-3,0-.6-.3-1.1-.7-1.6-.7-.6-1.7-.6-2.4,0-.4.4-.6,1-.7,1.6-.2,1-.2,2-.2,3,0,1,0,2,.2,3,0,.6.3,1.1.7,1.6.3.3.8.5,1.2.5h0ZM202.8,102.2c-1.2.1-2.3-.5-2.8-1.6-.6-1.6-.9-3.2-.8-4.9,0-1.7.2-3.3.8-4.9.9-1.6,3-2.1,4.5-1.1.5.3.9.7,1.1,1.1.6,1.6.9,3.2.8,4.9,0,1.7-.2,3.3-.8,4.9-.5,1.1-1.6,1.7-2.8,1.6ZM202.8,100.7c.5,0,.9-.1,1.2-.5.4-.4.6-1,.7-1.6.2-1,.2-2,.2-3,0-1,0-2-.2-3,0-.6-.3-1.1-.7-1.6-.7-.6-1.7-.6-2.4,0-.4.4-.6,1-.7,1.6-.2,1-.2,2-.2,3,0,1,0,2,.2,3,0,.6.3,1.1.7,1.6.3.3.8.5,1.2.5h0ZM210.1,103.4c-.2,0-.4,0-.6-.2-.2-.2-.2-.4-.2-.6v-10.6c0-.7,0-1.5.2-2.2.1-.5.4-1,.8-1.3.4-.3.9-.6,1.5-.6.8-.1,1.6-.2,2.4-.2h4.3c.8,0,1.6,0,2.4.2.5,0,1.1.3,1.5.6.4.3.6.8.8,1.3.2.7.2,1.4.2,2.2v8.1c0,.7,0,1.3-.3,2-.2.4-.6.8-1,1-.6.2-1.2.3-1.8.3-.2,0-.5,0-.7-.2-.2-.1-.3-.4-.3-.6,0-.2,0-.5.2-.6.1-.2.4-.3.6-.3.4,0,.7,0,1-.2.2,0,.4-.3.5-.5.1-.3.2-.7.2-1v-4h-10.7v6.6c0,.2,0,.4-.2.6-.2.2-.4.2-.6.2h0ZM217.1,94.4h4.6v-2.4c0-.6,0-1.2-.3-1.8-.2-.4-.5-.7-.9-.8-.7-.1-1.3-.2-2-.2h-1.4v5.1ZM211,94.4h4.5v-5.1h-1.3c-.7,0-1.4,0-2,.2-.4,0-.8.4-.9.8-.2.6-.3,1.2-.3,1.8v2.4ZM242,103.6c-.1,0-.2.1-.4.1-.1,0-.3,0-.4-.2-1.1-1.1-2-2.3-2.7-3.7-1.3-3-1.3-6.4,0-9.5.7-1.4,1.5-2.7,2.6-3.7,0-.1.2-.2.4-.2.1,0,.3,0,.4.1,0,0,.2.2.2.4,0,.1,0,.3-.1.4-1,1-1.8,2.2-2.5,3.5-1.2,2.7-1.2,5.8,0,8.5.6,1.3,1.4,2.5,2.5,3.5,0,0,.1.2.1.4,0,.1,0,.3-.2.4h0ZM250.9,103.3c-.2.1-.4.1-.6.1-.2,0-.4-.2-.5-.4-.2-.4-.1-.8.3-1.1,0,0,0,0,.1,0,1-.4,1.8-1.2,2.3-2.2.5-1,.8-2.2.8-3.3-.6,0-1.2-.3-1.5-.8-.3-.6-.5-1.2-.4-1.8v-.4c0-.6,0-1.1.3-1.6.2-.4.6-.7,1-.9.7-.2,1.4-.3,2-.3h1.2c.1-.3.3-.6.5-1l.6-1.2c.2-.4.3-.7.4-1,0-.2.2-.4.4-.4.4-.2.9,0,1.1.4,0,.2,0,.4,0,.6,0,.2-.2.5-.4.8-.2.3-.3.6-.5,1-.2.3-.3.6-.5.9.6,0,1.2.3,1.7.8.3.6.5,1.2.4,1.9v.4c0,.7-.1,1.4-.5,1.9-.5.5-1.1.8-1.8.8v4.2c0,.3,0,.6.2.9.3.2.6.2.9.2.3,0,.5,0,.8-.2.2-.3.3-.6.3-.9,0-.2.2-.4.4-.5.2-.1.4-.1.6,0,.2,0,.4.2.5.3,0,.2.1.4,0,.6,0,.7-.4,1.3-.9,1.8-.5.4-1.2.6-1.9.5-.5,0-1.1,0-1.6-.2-.4-.1-.7-.4-.8-.7-.2-.4-.3-.9-.2-1.4v-4.4h-1c0,1.4-.4,2.8-1,4-.6,1.2-1.6,2.2-2.9,2.8h0ZM247.8,103.6c-.2,0-.4,0-.5-.2-.2-.1-.2-.3-.2-.6v-6.7c-.3.6-.6,1.2-1,1.8-.3.6-.7,1.1-1,1.5-.1.2-.3.3-.5.3-.2,0-.4,0-.6-.1-.2-.1-.3-.3-.3-.5,0-.2,0-.4.1-.5.3-.4.6-.8.8-1.2.3-.5.6-1,.9-1.5s.6-1,.8-1.5c.2-.4.4-.9.6-1.4h-2.2c-.4,0-.7-.3-.7-.7,0-.2,0-.4.2-.5.1-.1.3-.2.5-.2h2.3v-2c-.3,0-.6.1-1,.2-.3,0-.6.1-.9.2-.5,0-.9-.1-1-.6,0-.2,0-.4.1-.6.1-.2.3-.3.6-.3.5,0,1-.2,1.6-.3s1.2-.3,1.8-.4c.5-.1,1-.3,1.5-.5.2,0,.4-.1.6,0,.2,0,.3.2.4.4,0,.2,0,.4,0,.6,0,.2-.2.3-.4.4-.3.1-.6.2-.9.3-.3,0-.6.2-1,.3v2.4h1.8c.4,0,.7.3.7.7h0c0,.2,0,.4-.2.5-.1.1-.3.2-.5.2h-1.8v1c.2.2.4.5.7.8.3.3.6.6.9.9l.7.7c.1.1.2.3.2.5,0,.2,0,.4-.2.5-.3.3-.8.3-1.1,0,0,0,0,0,0,0-.2-.2-.3-.4-.6-.6-.2-.3-.5-.5-.7-.8v6.6c0,.2,0,.4-.2.6-.1.1-.3.2-.5.2h0ZM254.6,95h1.6c.4,0,.8,0,1.1,0,.2,0,.4-.2.5-.4.1-.2.1-.5.1-.8v-.4c0-.3,0-.5-.1-.8-.1-.2-.3-.3-.5-.4-.4,0-.7-.1-1.1,0h-1.6c-.4,0-.7,0-1.1,0-.2,0-.4.2-.5.4-.1.3-.1.5-.1.8v.4c0,.3,0,.5.1.8.1.2.3.3.5.4.4,0,.7.1,1.1,0h0ZM254.3,90.4c-.2.1-.4.1-.6,0-.2,0-.4-.2-.5-.4,0-.1-.2-.3-.3-.5-.1-.2-.3-.5-.4-.7-.1-.2-.3-.5-.4-.7-.1-.2-.1-.4,0-.5,0-.2.2-.4.3-.5.2-.1.4-.2.6-.1.2,0,.4.2.5.3.1.2.3.4.4.7.1.3.3.5.4.7.1.2.2.4.3.5.1.2.1.4,0,.6,0,.2-.2.4-.4.5h0ZM268.3,99.9c-.2.1-.4.2-.6.2-.2,0-.4-.1-.6-.3-.1-.2-.2-.4-.2-.5,0-.2.1-.4.3-.5.9-.7,1.6-1.5,2.3-2.5.6-1,1.2-2,1.6-3,.4-1.1.8-2.1,1-3.3-.3-.3-.6-.4-1-.4h-2c-.2,0-.4,0-.6-.2-.3-.3-.3-.8,0-1.1.2-.2.4-.2.6-.2h2.1c.6,0,1.3.1,1.8.5.4.5.6,1.1.6,1.7.1,1.1.4,2.2.8,3.2.4,1,.9,2,1.6,2.8.6.9,1.3,1.6,2.2,2.3.2.1.3.3.3.5,0,.2,0,.4-.2.6-.2.2-.4.3-.6.3-.2,0-.5,0-.7-.2-1-.8-1.8-1.8-2.5-2.9-.8-1.2-1.4-2.5-1.7-3.8-.4,1.3-1,2.6-1.8,3.8-.7,1.1-1.6,2.2-2.6,3h0ZM272.5,103c-1,0-2,0-3-.2-.7,0-1.5-.3-2.2-.6-.6-.3-1.1-.6-1.6-1.1-.2.1-.4.3-.7.5l-.8.6-.6.4c-.2.1-.4.2-.6.1-.2,0-.4-.2-.6-.4-.1-.2-.2-.4-.1-.6,0-.2.2-.4.4-.5.1,0,.3-.2.6-.3s.5-.3.8-.5c.3-.2.5-.3.7-.4v-4.1c0-.2,0-.5-.2-.6-.2-.1-.4-.2-.6-.2h-1.1c-.2,0-.4,0-.5-.2-.3-.3-.3-.8,0-1.1.1-.2.3-.2.5-.2h1.6c.9-.2,1.7.4,1.8,1.3,0,.2,0,.4,0,.5v4.3c.4.4.8.7,1.4,1,.6.3,1.2.5,1.9.5,1,.1,2,.2,2.9.2,1.1,0,2.1,0,2.9,0s1.6,0,2.3-.1c.2,0,.5,0,.7.2.2.1.3.4.3.6,0,.2,0,.4-.2.6-.2.2-.4.3-.7.3-.5,0-1,0-1.6,0h-1.9c-.6,0-1.2,0-1.8,0h0ZM265.5,90.9c-.2-.2-.5-.5-.7-.7-.3-.2-.6-.5-.9-.7-.3-.2-.6-.4-.8-.6-.2-.1-.3-.3-.3-.5,0-.2,0-.4.2-.5.3-.3.7-.4,1.1-.2,0,0,0,0,0,0,.3.2.5.4.8.6s.6.5.9.7c.3.2.5.4.7.6.3.3.4.8,0,1.1,0,0,0,0,0,0-.2.2-.4.2-.6.3-.2,0-.4,0-.6-.2h0ZM280.7,103.6c0,0-.2-.2-.2-.4,0-.1,0-.3.1-.4,1-1,1.8-2.2,2.5-3.5,1.2-2.7,1.2-5.8,0-8.5-.6-1.3-1.4-2.5-2.5-3.5,0,0-.1-.2-.1-.4,0-.1,0-.3.2-.4.1,0,.2-.1.4-.1.1,0,.3,0,.4.2,1.1,1.1,2,2.3,2.7,3.7,1.3,3,1.3,6.4,0,9.5-.7,1.4-1.6,2.7-2.7,3.7,0,.1-.2.2-.4.2-.1,0-.3,0-.4-.1h0Z"/>
        <path id="_パス_10385" data-name="パス_10385" class="cls-4" d="M58.3,339.7c-.2,0-.3,0-.5-.2-.1-.1-.2-.3-.2-.5v-7.6c-.2.3-.4.6-.6.9-.2.3-.4.5-.6.8-.1.1-.3.2-.4.3-.2,0-.4,0-.5-.1-.1,0-.2-.2-.3-.4,0-.2,0-.3.1-.5.4-.4.7-.9,1-1.3.3-.5.6-1,.9-1.6.3-.6.5-1.1.8-1.6.2-.5.4-1,.5-1.4,0-.4.4-.6.8-.5,0,0,0,0,0,0,.2,0,.3.1.4.3,0,.2,0,.3,0,.5-.1.4-.3.8-.4,1.2s-.3.8-.5,1.2v9.6c0,0,0-.2,0-.2.5-.6.8-1.3,1.1-2,.3-.8.5-1.7.6-2.5.1-1.1.2-2.2.2-3.3v-1.6c0-.5,0-1,.3-1.5.2-.4.5-.6.8-.8.5-.2,1.1-.3,1.6-.2h4.8c.2,0,.3,0,.5.2.2.3.2.6,0,.9-.1.1-.3.2-.5.2h-4.8c-.4,0-.8,0-1.1.2-.2.3-.3.6-.3,1v1.1h3.5c.7,0,1.4.2,1.9.7.4.6.4,1.3,0,2-.4,1.2-.9,2.3-1.6,3.3.4.4.8.8,1.3,1.2.5.4,1,.7,1.5,1,.2,0,.3.2.3.4,0,.2,0,.4,0,.5,0,.2-.3.3-.5.3-.2,0-.4,0-.6-.1-.5-.3-1-.7-1.5-1.1-.5-.4-.9-.8-1.3-1.2-.8,1-1.8,1.8-3,2.4-.2,0-.4.1-.6.1-.2,0-.4-.1-.5-.3-.1-.2-.1-.4-.1-.5,0-.2.1-.3.3-.4,1.1-.6,2.1-1.4,2.9-2.3-.5-.7-.8-1.4-1.1-2.1-.3-.8-.5-1.7-.6-2.5h-.5c0,1.1,0,2.2-.3,3.3-.1.9-.4,1.7-.7,2.5-.3.7-.7,1.4-1.1,2-.1.1-.3.3-.4.3-.2,0-.4,0-.5,0-.2,0-.3-.2-.3-.4h0c0,.3,0,.5-.2.6-.1.1-.3.2-.5.2ZM65.4,334.9c.3-.4.5-.8.7-1.2.2-.4.4-.9.5-1.3.1-.3.1-.6,0-.8-.1-.2-.4-.3-.9-.3h-1.6c.1.7.3,1.3.5,2,.2.6.5,1.1.8,1.7ZM71.5,339.2c-.2,0-.3,0-.4-.2-.1-.1-.2-.3-.2-.4,0-.3.3-.6.6-.6h3.6c0-.2-.1-.4-.2-.6,0-.2-.2-.3-.2-.5,0-.1,0-.3,0-.4,0-.1.1-.3.3-.3-.5,0-1-.2-1.3-.5-.3-.4-.4-.9-.4-1.4,0-.4,0-.8.2-1.1.2-.3.4-.5.7-.6.5-.1,1-.2,1.4-.2h3.6c.7,0,1.3,0,1.9.4.4.4.6.9.5,1.5,0,.5,0,.9-.3,1.3-.3.3-.8.5-1.2.6.1,0,.2.2.3.3,0,.1,0,.3,0,.4,0,.1-.1.3-.2.5l-.3.6h3.6c.2,0,.3,0,.4.2.1.1.2.3.2.4,0,.2,0,.3-.2.4-.1.1-.3.2-.4.2h-12ZM71.4,333c-.2,0-.3.1-.5,0-.2,0-.3-.1-.4-.3,0-.1-.1-.3,0-.5,0-.2.2-.3.3-.4.5-.2.9-.5,1.4-.8.4-.3.9-.6,1.2-.9-.2-.2-.4-.4-.7-.6-.3-.2-.5-.4-.7-.6-.1,0-.2-.2-.2-.4,0-.3.2-.6.5-.6.2,0,.3,0,.4.1.1,0,.3.2.5.4.2.2.4.3.6.5.2.2.4.3.5.4.2-.2.4-.4.6-.7.2-.2.3-.4.5-.7.2-.2.2-.4.2-.5s-.2-.1-.5-.1h-2.4c-.2,0-.3,0-.4-.2-.1-.1-.2-.3-.2-.4,0-.1,0-.3.2-.4.1-.1.2-.2.4-.2h2.8c.8,0,1.2.2,1.4.6.2.5,0,1.1-.3,1.5-.2.3-.4.6-.6.9-.2.3-.5.6-.7.8h4.6c-.4-.5-.8-1-1.2-1.5-.4-.5-.7-1.1-.9-1.7,0-.1,0-.3,0-.5,0-.1.2-.3.3-.3.2,0,.3,0,.5,0,.2,0,.3.2.3.3.1.2.2.5.4.8.1.3.3.5.4.7.2-.1.4-.3.6-.4s.4-.3.6-.5.3-.3.4-.4c.1-.1.3-.2.4-.2.2,0,.3,0,.4.2.1.1.2.3.2.4,0,.2,0,.3-.2.4l-.5.4c-.2.2-.4.3-.6.5-.2.2-.4.3-.6.5.1.2.2.3.4.4s.3.3.4.4l.6-.4c.2-.2.4-.4.7-.5s.4-.3.5-.5c.1-.1.3-.2.4-.2.2,0,.3,0,.4.2.1.1.2.3.2.4,0,.2,0,.3-.2.4-.1.1-.3.2-.5.4-.2.2-.4.3-.6.5-.2.2-.4.3-.6.5.7.5,1.4.9,2.2,1.3.2,0,.3.2.3.4,0,.2,0,.3,0,.5,0,.2-.2.3-.4.3-.2,0-.4,0-.6,0-1.1-.6-2.1-1.3-3-2.1,0,.3-.3.6-.6.6h-4.6c-.3,0-.6-.3-.6-.6h0c-.5.4-1,.8-1.5,1.2-.5.4-1.1.7-1.7,1h0ZM75.5,335.1h3.9c.2,0,.5,0,.7-.1.1,0,.2-.3.2-.6s0-.5-.2-.6c-.2-.1-.5-.1-.7-.1h-3.9c-.2,0-.5,0-.7.1-.1,0-.2.3-.2.6s0,.5.2.6c.2.1.5.2.7.1h0ZM76.6,338h1.8c.1-.2.2-.5.4-.8s.2-.6.3-.8c0,0,0-.2.2-.2h-3.5c0,0,.2.2.2.3,0,.1.1.3.2.4,0,.2.2.4.2.6,0,.2.1.4.2.5h0ZM94,339.7c-.2,0-.3,0-.5-.2-.1-.1-.2-.3-.2-.5,0-.2,0-.3.2-.4.1-.1.3-.2.5-.2.3,0,.5,0,.8-.2.2-.2.2-.4.2-.6v-1.1c-.2.1-.5.2-.7.4s-.6.3-.8.4c-.3.1-.5.2-.7.3-.3.1-.7,0-.8-.3,0,0,0,0,0,0,0-.2,0-.3,0-.5,0-.1.2-.3.3-.3l.8-.4c.3-.1.7-.3,1-.5.3-.2.6-.3.9-.4v-3.2h-2.8c-.3,0-.6-.3-.6-.6,0-.2,0-.3.2-.4.1-.1.3-.2.4-.2h4.3v-1.2h-3.3c-.2,0-.3,0-.4-.2-.2-.2-.2-.6,0-.8.1-.1.2-.2.4-.2h3.3v-.2c0-.2,0-.5-.2-.7-.2-.1-.5-.2-.8-.2h-2.5c-.2,0-.3,0-.4-.2-.1-.1-.2-.3-.2-.4,0-.2,0-.3.2-.4,0-.1.2-.2.4-.2h2.5c.5,0,.9,0,1.4.2.3.1.5.3.7.6.1.4.2.8.2,1.2v2.6h1.2c.3,0,.6.2.6.6,0,0,0,0,0,0,0,.2,0,.3-.2.4-.1.1-.3.2-.4.2h-2.8v1.3c0,.2.1.3.2.4s.2.3.3.4l.5-.5c.2-.2.4-.4.5-.5.2-.2.3-.3.4-.4.1-.1.3-.2.4-.2.2,0,.3,0,.4.2.1.1.2.3.2.4,0,.2,0,.3-.2.4-.2.2-.4.4-.8.7-.3.3-.6.5-.9.8.3.4.7.8,1,1.1.3.3.7.7,1.1,1,.1,0,.2.3.2.4,0,.2,0,.3-.2.5-.1.1-.3.2-.5.2-.2,0-.4,0-.5-.2-.4-.4-.8-.8-1.2-1.2-.4-.5-.8-1-1.1-1.5v2.2c0,.5-.1,1.1-.5,1.5-.5.3-1.1.5-1.7.4h0ZM86.5,339.2c-.2,0-.4,0-.5,0-.2,0-.3-.2-.3-.4,0-.3.1-.6.5-.7,0,0,0,0,0,0,.3,0,.6-.1,1-.2.4,0,.7-.1,1.1-.2v-4h-1.8c-.3,0-.5-.2-.5-.5,0-.3.2-.5.5-.5h1.8v-1.5h-1.1c-.3,0-.6-.2-.6-.6,0,0,0,0,0,0,0-.1,0-.3.2-.4.1-.1.3-.2.4-.2h3.6c.2,0,.3,0,.4.2.1.1.2.2.2.4,0,.3-.2.6-.6.6,0,0,0,0,0,0h-1.2v1.5h1.6c.3,0,.5.2.5.5,0,.3-.2.5-.5.5h-1.6v3.8c.3,0,.5-.1.8-.2.2,0,.5-.1.7-.1.2,0,.3,0,.5,0,.1,0,.2.2.3.4,0,.2,0,.3,0,.5-.1.1-.2.2-.4.2-.4,0-.9.2-1.4.3-.6.1-1.1.2-1.7.4-.6.1-1.1.2-1.6.3h0ZM85.4,330.5c-.2-.2-.2-.6,0-.8,0,0,0,0,0,0,.3-.3.6-.5.8-.8.3-.3.6-.7.9-1,.3-.4.5-.7.7-1,.2-.4.6-.6,1.1-.6.4,0,.8.2,1.1.6.3.3.6.7,1,1s.7.7,1,.9c.1,0,.2.2.2.4,0,.2,0,.3-.2.5-.1.1-.3.2-.5.2-.2,0-.3,0-.5-.2-.3-.2-.6-.5-.9-.9-.3-.3-.6-.7-.9-1-.1-.2-.3-.3-.4-.2-.1,0-.2,0-.4.3-.2.3-.4.6-.7.9-.3.3-.5.6-.8,1-.3.3-.5.6-.8.8-.1.1-.3.2-.5.2-.2,0-.4,0-.5-.2ZM87.6,337.1c-.1,0-.3,0-.4,0-.1,0-.2-.2-.3-.3,0-.1-.1-.3-.2-.6,0-.2-.2-.5-.3-.7,0-.2-.2-.4-.2-.6,0-.1,0-.3,0-.4,0-.1.2-.2.3-.3.1,0,.3,0,.4,0,.1,0,.2.2.3.3,0,.2.2.4.3.6s.2.5.3.7c0,.2.1.4.2.5,0,.1,0,.3,0,.4,0,.1-.2.2-.3.3h0ZM90.1,336.8c-.1,0-.2-.1-.3-.3,0-.1,0-.3,0-.4,0-.1.1-.3.2-.5l.3-.6c0-.2.2-.4.2-.5,0-.2.1-.3.3-.3.1,0,.3,0,.5,0,.1,0,.2.1.3.3,0,.1,0,.3,0,.4,0,.1-.1.3-.2.5s-.2.4-.3.7l-.2.5c0,.1-.2.2-.3.3-.1,0-.3,0-.4,0h0ZM94.2,335.1c-.1,0-.3.1-.4.1-.2,0-.3-.1-.4-.2,0,0-.2-.2-.3-.4s-.3-.3-.4-.5c-.1-.2-.2-.3-.3-.4,0-.1-.1-.3-.1-.4,0-.2.1-.3.2-.4.1,0,.3-.1.5-.1.2,0,.3,0,.4.2,0,.1.2.2.3.4l.4.5c0,.1.2.2.3.4.1.1.2.3.1.4,0,.2-.1.3-.2.4h0Z"/>
        <path id="_パス_10384" data-name="パス_10384" class="cls-4" d="M182.8,339.2c-.7,0-1.3,0-1.9-.2-.5,0-.9-.3-1.2-.6-.3-.3-.5-.7-.6-1.1-.1-.6-.2-1.2-.2-1.9v-2.2c0-.6,0-1.2.2-1.9.1-.4.3-.8.6-1.1.3-.3.8-.5,1.2-.6.6-.1,1.3-.2,1.9-.2h.8c0-.3.2-.6.3-.9s.2-.6.3-.9h-5.7c-.2,0-.3,0-.4-.2-.1-.1-.2-.3-.2-.4,0-.2,0-.3.2-.4.1-.1.3-.2.4-.2h12.8c.2,0,.3,0,.4.2.1.1.2.3.2.4,0,.2,0,.3-.2.4-.1.1-.3.2-.4.2h-5.6c0,.3-.2.6-.3.9s-.2.6-.3.9h2c.6,0,1.3,0,1.9.2.4,0,.9.3,1.2.6.3.3.5.7.6,1.1.1.6.2,1.2.2,1.9v2.2c0,.6,0,1.2-.2,1.9,0,.4-.3.8-.6,1.1-.3.3-.8.5-1.2.6-.6.1-1.3.2-1.9.2h-4.3ZM187.7,338c.5,0,.9,0,1.3-.2.3-.1.5-.4.6-.7.1-.5.2-1,.2-1.5v-2.3c0-.5,0-1-.2-1.5,0-.3-.3-.6-.6-.7-.4-.2-.9-.2-1.3-.2v7.2ZM182.3,338v-7.2c-.5,0-.9,0-1.3.2-.3.1-.5.4-.6.7-.1.5-.2,1-.2,1.5v2.3c0,.5,0,1,.2,1.5,0,.3.3.6.6.7.4.2.9.3,1.3.3ZM183.6,338h2.7v-1.7h-2.7v1.7ZM183.6,335.2h2.7v-1.6h-2.7v1.6ZM183.6,332.4h2.7v-1.6h-2.7v1.6ZM199.2,339.6c-.2,0-.4,0-.6,0-.2,0-.3-.2-.4-.4,0-.2,0-.3,0-.5,0-.2.2-.3.4-.3.6-.2,1.1-.4,1.6-.7.4-.3.7-.6,1-1,.3-.5.4-1,.5-1.6.1-.7.2-1.5.2-2.3,0-.2,0-.3.2-.5.1-.1.3-.2.5-.2.2,0,.3,0,.5.2.1.1.2.3.2.5,0,.3,0,.6,0,.9,0,.3,0,.5,0,.8.2.8.6,1.6,1.2,2.3.6.7,1.4,1.2,2.3,1.5.2,0,.3.2.3.4,0,.2,0,.4,0,.5,0,.2-.2.3-.4.4-.2,0-.4,0-.6,0-.7-.3-1.4-.7-2-1.3-.5-.5-1-1.1-1.3-1.8-.3.7-.7,1.4-1.3,1.9-.6.5-1.4.9-2.1,1.2h0ZM199.6,333.1c-.2,0-.4,0-.5,0-.2,0-.3-.2-.4-.3,0-.2,0-.3,0-.5,0-.2.2-.3.3-.4.5-.2,1-.4,1.4-.8.4-.3.7-.7.9-1.1.2-.5.4-1,.4-1.5,0-.7.1-1.4.1-2.1,0-.2,0-.3.2-.4.1-.1.3-.2.5-.2.2,0,.3,0,.5.2.1.1.2.3.2.4,0,.3,0,.7,0,1,0,.3,0,.6,0,.9.2.8.6,1.5,1.2,2.1.6.6,1.4,1.1,2.2,1.4.2,0,.3.2.3.3,0,.2,0,.4,0,.5,0,.2-.2.3-.4.3-.2,0-.4,0-.5,0-1.4-.5-2.5-1.5-3.1-2.8-.2.7-.6,1.3-1.1,1.8-.6.5-1.2.9-1.9,1.2ZM195.9,339.2c-.4,0-.9,0-1.3-.2-.3-.1-.5-.4-.7-.7-.2-.4-.2-.9-.2-1.3,0-.5,0-.9.2-1.3.1-.3.4-.5.7-.6.8-.2,1.7-.2,2.6,0,.3.1.5.3.7.6.1.4.2.9.2,1.3,0,.4,0,.9-.2,1.3-.1.3-.4.5-.7.7-.4.1-.8.2-1.3.2ZM193.6,329.8c-.1,0-.3,0-.4-.2-.2-.2-.2-.6,0-.8,0,0,0,0,0,0,0-.1.2-.2.4-.2h4.4c.2,0,.3,0,.4.2.2.2.2.6,0,.8-.1.1-.2.2-.4.2h-4.4ZM194.3,327.8c-.2,0-.3,0-.4-.2-.2-.2-.2-.6,0-.8.1-.1.2-.2.4-.2h3.1c.2,0,.3,0,.4.2.2.2.2.6,0,.8-.1.1-.2.2-.4.2h-3.1ZM194.3,334c-.1,0-.3,0-.4-.2-.1-.1-.2-.3-.2-.4,0-.2,0-.3.2-.4,0-.1.2-.2.4-.2h3.2c.1,0,.3,0,.4.2.1.1.2.2.2.4,0,.2,0,.3-.2.4,0,.1-.2.2-.4.2h-3.2ZM194.3,331.9c-.1,0-.3,0-.4-.2-.1-.1-.2-.2-.2-.4,0-.2,0-.3.2-.4,0-.1.2-.2.4-.2h3.2c.1,0,.3,0,.4.2.1.1.2.3.2.4,0,.2,0,.3-.2.4,0,.1-.2.2-.4.2h-3.2ZM199.4,336.5c-.2,0-.3-.2-.4-.3,0-.1,0-.3,0-.5l.3-1c0-.3.2-.6.2-.9,0-.2.1-.3.3-.4.1,0,.3-.1.5,0,.2,0,.3.1.4.2.1.1.1.3,0,.5,0,.2,0,.4-.2.7,0,.3-.1.5-.2.8s-.1.4-.2.6c0,.2-.2.3-.3.4-.2,0-.3,0-.5,0h0ZM199.5,330c-.2,0-.3-.2-.4-.3,0-.1,0-.3,0-.5l.3-1c0-.3.2-.6.2-.9,0-.2.1-.3.3-.4.1,0,.3-.1.5,0,.2,0,.3.1.4.2,0,.1.1.3,0,.5,0,.2,0,.4-.2.7,0,.3-.1.5-.2.7,0,.2-.1.4-.2.6,0,.2-.2.3-.3.4-.2,0-.3,0-.5,0h0ZM204.4,336.2c-.1,0-.3-.2-.3-.4,0-.2,0-.3,0-.5.1-.2.3-.5.4-.8.1-.3.3-.6.4-.8,0-.2.2-.3.3-.3.2,0,.3,0,.5,0,.2,0,.3.2.3.3,0,.2,0,.3,0,.5,0,.2-.2.5-.4.8s-.3.6-.5.9c0,.2-.2.3-.4.3-.2,0-.3,0-.5,0h0ZM204.4,329.6c-.1,0-.3-.2-.3-.4,0-.2,0-.3,0-.5.1-.2.3-.5.4-.8.1-.3.3-.6.4-.8,0-.2.2-.3.4-.3.2,0,.3,0,.5,0,.1,0,.3.2.3.3,0,.2,0,.3,0,.5,0,.2-.2.5-.4.8-.2.3-.3.6-.5.9,0,.2-.2.3-.4.3-.2,0-.3,0-.5,0ZM195.9,338.1c.3,0,.5,0,.7-.2.1-.3.2-.6.2-.9,0-.3,0-.6-.2-.9-.2-.2-.5-.2-.7-.2-.3,0-.5,0-.7.2-.2.3-.2.6-.2.9,0,.3,0,.6.2.9.2.2.5.2.7.2Z"/>
        <path id="_パス_10382" data-name="パス_10382" class="cls-4" d="M292.5,339.7c-.2,0-.4,0-.5-.2-.1-.1-.2-.3-.2-.5v-2.2h-2.2c-.2,0-.3,0-.4-.2-.1-.1-.2-.3-.2-.5,0-.3.3-.6.6-.6h2.2v-4.2c-.4.7-.9,1.3-1.5,2-.6.7-1.2,1.3-1.8,1.9-.6.6-1.3,1.1-1.9,1.6-.2.1-.4.2-.5.2-.2,0-.4,0-.5-.2-.1-.1-.2-.3-.1-.5,0-.2.2-.4.3-.5.7-.5,1.4-1.1,2.1-1.7.7-.6,1.3-1.3,1.9-2,.5-.6,1-1.3,1.5-2h-4.8c-.2,0-.3,0-.4-.2-.1-.1-.2-.3-.2-.5,0-.3.3-.6.6-.6h5.4v-2.4c0-.2,0-.4.2-.5.3-.3.7-.3,1,0,.1.1.2.3.2.5v2.4h5.4c.2,0,.3,0,.5.2.1.1.2.3.2.4,0,.3-.3.6-.6.6,0,0,0,0,0,0h-4.8c.5.7,1,1.4,1.5,2.1.6.7,1.3,1.4,2,2,.7.6,1.3,1.1,2.1,1.6.1,0,.2.3.2.4,0,.2,0,.4-.1.5-.1.1-.3.2-.5.3-.2,0-.4,0-.5-.1-.7-.5-1.3-1-1.9-1.6-.6-.6-1.3-1.2-1.8-1.9-.6-.7-1.1-1.3-1.5-2.1v4.3h2.3c.2,0,.3,0,.5.2.1.1.2.3.2.4,0,.2,0,.3-.2.5-.1.1-.3.2-.5.2h-2.3v2.2c0,.2,0,.4-.2.5-.1.1-.3.2-.5.2ZM301.5,339.2c-.2,0-.3,0-.4-.2-.1-.1-.2-.3-.2-.4,0-.3.3-.6.6-.6h3.6c0-.2-.1-.4-.2-.6,0-.2-.2-.3-.2-.5,0-.1,0-.3,0-.4,0-.1.1-.3.3-.3-.5,0-1-.2-1.3-.5-.3-.4-.4-.9-.4-1.4,0-.4,0-.8.2-1.1.2-.3.4-.5.7-.6.5-.1,1-.2,1.4-.2h3.6c.7,0,1.3,0,1.9.4.4.4.6.9.5,1.5,0,.5,0,.9-.3,1.3-.3.3-.8.5-1.2.6.1,0,.2.2.3.3,0,.1,0,.3,0,.4,0,.1-.1.3-.2.5l-.3.6h3.6c.2,0,.3,0,.4.2.1.1.2.3.2.4,0,.2,0,.3-.2.4-.1.1-.3.2-.4.2h-12ZM301.4,333c-.2,0-.3.1-.5,0-.2,0-.3-.1-.4-.3,0-.1-.1-.3,0-.5,0-.2.2-.3.3-.4.5-.2.9-.5,1.4-.8.4-.3.9-.6,1.2-.9-.2-.2-.4-.4-.7-.6-.3-.2-.5-.4-.7-.6-.1,0-.2-.2-.2-.4,0-.3.2-.6.5-.6.2,0,.3,0,.4.1.1,0,.3.2.5.4s.4.3.6.5c.2.2.4.3.5.4.2-.2.4-.4.6-.7.2-.2.3-.4.5-.7.2-.2.2-.4.2-.5,0,0-.2-.1-.5-.1h-2.4c-.2,0-.3,0-.4-.2-.1-.1-.2-.3-.2-.4,0-.1,0-.3.2-.4.1-.1.2-.2.4-.2h2.8c.8,0,1.2.2,1.4.6.2.5,0,1.1-.3,1.5-.2.3-.4.6-.6.9-.2.3-.5.6-.7.8h4.6c-.4-.5-.8-1-1.2-1.5-.4-.5-.7-1.1-.9-1.7,0-.1,0-.3,0-.5,0-.1.2-.3.3-.3.2,0,.3,0,.5,0,.2,0,.3.2.3.3.1.2.2.5.4.8.1.3.3.5.4.7.2-.1.4-.3.6-.4s.4-.3.6-.5.3-.3.4-.4c.1-.1.3-.2.4-.2.2,0,.3,0,.4.2.1.1.2.3.2.4,0,.2,0,.3-.2.4l-.5.4c-.2.2-.4.3-.6.5-.2.2-.4.3-.6.5.1.2.2.3.4.4s.3.3.4.4l.6-.4c.2-.2.4-.4.7-.5s.4-.3.5-.5c.1-.1.3-.2.4-.2.2,0,.3,0,.4.2.1.1.2.3.2.4,0,.2,0,.3-.2.4-.1.1-.3.2-.5.4-.2.2-.4.3-.6.5-.2.2-.4.3-.6.5.7.5,1.4.9,2.2,1.3.2,0,.3.2.3.4,0,.2,0,.3,0,.5,0,.2-.2.3-.4.3-.2,0-.4,0-.6,0-1.1-.6-2.1-1.3-3-2.1,0,.3-.3.6-.6.6h-4.6c-.3,0-.6-.3-.6-.6h0c-.5.4-1,.8-1.5,1.2-.5.4-1.1.7-1.7,1ZM305.5,335.1h3.9c.2,0,.5,0,.7-.1.1,0,.2-.3.2-.6s0-.5-.2-.6c-.2-.1-.5-.1-.7-.1h-3.9c-.2,0-.5,0-.7.1-.1,0-.2.3-.2.6s0,.5.2.6c.2.1.5.2.7.1ZM306.6,338h1.8c.1-.2.2-.5.4-.8.1-.3.2-.6.3-.8,0,0,0-.2.2-.2h-3.5c0,0,.2.2.2.3,0,.1.1.3.2.4,0,.2.2.4.2.6,0,.2.1.4.2.5ZM324,339.7c-.2,0-.3,0-.5-.2-.1-.1-.2-.3-.2-.5,0-.2,0-.3.2-.4.1-.1.3-.2.5-.2.3,0,.5,0,.8-.2.2-.2.2-.4.2-.6v-1.1c-.2.1-.5.2-.7.4s-.6.3-.8.4c-.3.1-.5.2-.7.3-.3.1-.7,0-.8-.3,0,0,0,0,0,0,0-.2,0-.3,0-.5,0-.1.2-.3.3-.3l.8-.4c.3-.1.7-.3,1-.5.3-.2.6-.3.9-.4v-3.2h-2.8c-.3,0-.6-.3-.6-.6,0-.2,0-.3.2-.4.1-.1.3-.2.4-.2h4.3v-1.2h-3.3c-.2,0-.3,0-.4-.2-.2-.2-.2-.6,0-.8.1-.1.2-.2.4-.2h3.3v-.2c0-.2,0-.5-.2-.7-.2-.1-.5-.2-.8-.2h-2.5c-.2,0-.3,0-.4-.2-.1-.1-.2-.3-.2-.4,0-.2,0-.3.2-.4,0-.1.2-.2.4-.2h2.5c.5,0,.9,0,1.4.2.3.1.5.3.7.6.1.4.2.8.2,1.2v2.6h1.2c.3,0,.6.2.6.6,0,0,0,0,0,0,0,.2,0,.3-.2.4-.1.1-.3.2-.4.2h-2.8v1.3c0,.2.1.3.2.4s.2.3.3.4l.5-.5c.2-.2.4-.4.5-.5.2-.2.3-.3.4-.4.1-.1.3-.2.4-.2.2,0,.3,0,.4.2.1.1.2.3.2.4,0,.2,0,.3-.2.4-.2.2-.4.4-.8.7-.3.3-.6.5-.9.8.3.4.7.8,1,1.1.3.3.7.7,1.1,1,.1,0,.2.3.2.4,0,.2,0,.3-.2.5-.1.1-.3.2-.5.2-.2,0-.4,0-.5-.2-.4-.4-.8-.8-1.2-1.2-.4-.5-.8-1-1.1-1.5v2.2c0,.5-.1,1.1-.5,1.5-.5.3-1.1.5-1.7.4ZM316.5,339.2c-.2,0-.4,0-.5,0-.2,0-.3-.2-.3-.4,0-.3.1-.6.5-.7,0,0,0,0,0,0,.3,0,.6-.1,1-.2s.7-.1,1.1-.2v-4h-1.8c-.3,0-.5-.2-.5-.5,0-.3.2-.5.5-.5h1.8v-1.5h-1.1c-.3,0-.6-.2-.6-.6,0,0,0,0,0,0,0-.1,0-.3.2-.4.1-.1.3-.2.4-.2h3.6c.2,0,.3,0,.4.2.1.1.2.2.2.4,0,.3-.2.6-.6.6,0,0,0,0,0,0h-1.2v1.5h1.6c.3,0,.5.2.5.5,0,.3-.2.5-.5.5h-1.6v3.8c.3,0,.5-.1.8-.2.2,0,.5-.1.7-.1.2,0,.3,0,.5,0,.1,0,.2.2.3.4,0,.2,0,.3,0,.5-.1.1-.2.2-.4.2-.4,0-.9.2-1.4.3-.6.1-1.1.2-1.7.4-.6.1-1.1.2-1.6.3ZM315.4,330.5c-.2-.2-.2-.6,0-.8,0,0,0,0,0,0,.3-.3.6-.5.8-.8.3-.3.6-.7.9-1,.3-.4.5-.7.7-1,.2-.4.6-.6,1.1-.6.4,0,.8.2,1.1.6.3.3.6.7,1,1s.7.7,1,.9c.1,0,.2.2.2.4,0,.2,0,.3-.2.5-.1.1-.3.2-.5.2-.2,0-.3,0-.5-.2-.3-.2-.6-.5-.9-.9-.3-.3-.6-.7-.9-1-.1-.2-.3-.3-.4-.2-.1,0-.2,0-.4.3-.2.3-.4.6-.7.9-.3.3-.5.6-.8,1-.3.3-.5.6-.8.8-.1.1-.3.2-.5.2-.2,0-.4,0-.5-.2ZM317.6,337.1c-.1,0-.3,0-.4,0-.1,0-.2-.2-.3-.3,0-.1-.1-.3-.2-.6,0-.2-.2-.5-.3-.7,0-.2-.2-.4-.2-.6,0-.1,0-.3,0-.4,0-.1.2-.2.3-.3.1,0,.3,0,.4,0,.1,0,.2.2.3.3,0,.2.2.4.3.6s.2.5.3.7c0,.2.1.4.2.5,0,.1,0,.3,0,.4,0,.1-.2.2-.3.3h0ZM320.1,336.8c-.1,0-.2-.1-.3-.3,0-.1,0-.3,0-.4,0-.1.1-.3.2-.5l.3-.6c0-.2.2-.4.2-.5,0-.2.1-.3.3-.3.1,0,.3,0,.5,0,.1,0,.2.1.3.3,0,.1,0,.3,0,.4,0,.1-.1.3-.2.5s-.2.4-.3.7l-.2.5c0,.1-.2.2-.3.3-.1,0-.3,0-.4,0h0ZM324.2,335.1c-.1,0-.3.1-.4.1-.2,0-.3-.1-.4-.2,0,0-.2-.2-.3-.4s-.3-.3-.4-.5c-.1-.2-.2-.3-.3-.4,0-.1-.1-.3-.1-.4,0-.2.1-.3.2-.4.1,0,.3-.1.5-.1.2,0,.3,0,.4.2,0,.1.2.2.3.4l.4.5c0,.1.2.2.3.4.1.1.2.3.1.4,0,.2-.1.3-.2.4h0Z"/>
        <g id="_グループ_4704" data-name="グループ_4704">
          <rect id="_長方形_425" data-name="長方形_425" class="cls-4" x="46" y="351.4" width="62" height="24"/>
          <path id="_パス_10386" data-name="パス_10386" class="cls-1" d="M67.4,367.4c-.3,0-.6-.2-.6-.5l-1.7-7.3c0-.2,0-.3,0-.5,0-.1.2-.2.4-.2.3,0,.6.2.7.5,0,0,0,0,0,0l1.3,5.9,1.6-5.9c0-.3.3-.5.6-.5.3,0,.6.2.6.5l1.6,5.9,1.3-5.9c0-.3.3-.5.6-.5.2,0,.3,0,.4.2,0,.1.1.3,0,.5l-1.7,7.3c0,.3-.3.5-.6.5-.3,0-.6-.2-.6-.5l-1.7-6.1-1.7,6.1c0,.3-.3.5-.6.5ZM76.2,367.4c-.3,0-.5-.2-.6-.4,0,0,0-.1,0-.2v-7.2c0-.3.1-.5.4-.6,0,0,.1,0,.2,0h4.3c.4,0,.6.2.6.5s-.2.5-.6.5h-3.8v2.6h3.4c.4,0,.6.2.6.5s-.2.5-.6.5h-3.4v2.7h3.9c.4,0,.6.2.6.5s-.2.5-.6.5h-4.4ZM83.2,367.4c-.3,0-.5-.1-.5-.4,0,0,0,0,0-.1v-7.3c0-.3.1-.5.4-.5,0,0,0,0,.1,0h2.8c.6,0,1.3.2,1.7.5.4.4.7,1,.6,1.6,0,.4,0,.8-.3,1.2-.2.3-.5.5-.9.7.5.1.9.4,1.1.8.3.4.5.9.4,1.4,0,.6-.2,1.3-.7,1.7-.6.4-1.2.6-1.9.6h-3ZM83.7,366.4h2.3c.4,0,.8,0,1.2-.3.3-.3.4-.6.4-1,0-.4-.1-.8-.4-1-.3-.3-.7-.4-1.1-.4h-2.2v2.8ZM83.7,362.6h2.1c.4,0,.7-.1,1-.4.2-.3.4-.6.3-.9,0-.8-.5-1.2-1.4-1.2h-2v2.5Z"/>
        </g>
        <g id="_グループ_4705" data-name="グループ_4705">
          <g id="_グループ_611" data-name="グループ_611">
            <rect id="_長方形_428" data-name="長方形_428" class="cls-4" x="278" y="351.4" width="62" height="24"/>
            <path id="_パス_10383" data-name="パス_10383" class="cls-1" d="M299.4,367.4c-.3,0-.6-.2-.6-.5l-1.7-7.3c0-.2,0-.3,0-.5,0-.1.2-.2.4-.2.3,0,.6.2.7.5,0,0,0,0,0,0l1.3,5.9,1.6-5.9c0-.3.3-.5.6-.5.3,0,.6.2.6.5l1.6,5.9,1.3-5.9c0-.3.3-.5.6-.5.2,0,.3,0,.4.2,0,.1.1.3,0,.5l-1.7,7.3c0,.3-.3.5-.6.5-.3,0-.6-.2-.6-.5l-1.7-6.1-1.7,6.1c0,.3-.3.5-.6.5ZM308.2,367.4c-.3,0-.5-.2-.6-.4,0,0,0-.1,0-.2v-7.2c0-.3.1-.5.4-.6,0,0,.1,0,.2,0h4.3c.4,0,.6.2.6.5s-.2.5-.6.5h-3.8v2.6h3.4c.4,0,.6.2.6.5s-.2.5-.6.5h-3.4v2.7h3.9c.4,0,.6.2.6.5s-.2.5-.6.5h-4.4ZM315.2,367.4c-.3,0-.5-.1-.5-.4,0,0,0,0,0-.1v-7.3c0-.3.1-.5.4-.5,0,0,0,0,.1,0h2.8c.6,0,1.3.2,1.7.5.4.4.7,1,.6,1.6,0,.4,0,.8-.3,1.2-.2.3-.5.5-.9.7.5.1.9.4,1.1.8.3.4.5.9.4,1.4,0,.6-.2,1.3-.7,1.7-.6.4-1.2.6-1.9.6h-3ZM315.7,366.4h2.3c.4,0,.8,0,1.2-.3.3-.3.4-.6.4-1,0-.4-.1-.8-.4-1-.3-.3-.7-.4-1.1-.4h-2.2v2.8ZM315.7,362.6h2.1c.4,0,.7-.1,1-.4.2-.3.4-.6.3-.9,0-.8-.5-1.2-1.4-1.2h-2v2.5Z"/>
          </g>
        </g>
        <g id="_グループ_4706" data-name="グループ_4706">
          <rect id="_長方形_426" data-name="長方形_426" class="cls-1" x="132" y="351.4" width="62" height="24"/>
          <path id="_長方形_426_-_アウトライン" data-name="長方形_426_-_アウトライン" class="cls-4" d="M133,352.4v22h60v-22h-60M132,351.4h62v24h-62v-24Z"/>
          <rect id="_長方形_427" data-name="長方形_427" class="cls-4" x="193" y="351.4" width="62" height="24"/>
          <path id="_パス_10387" data-name="パス_10387" class="cls-4" d="M157,368.4c-.1,0-.3,0-.4-.1-.1-.1-.2-.2-.2-.4v-3.6c-.6.7-1.2,1.3-1.9,1.9-.7.6-1.4,1.1-2.2,1.6-.1,0-.3.1-.4,0-.2,0-.3-.1-.4-.2,0-.1-.1-.3,0-.4,0-.1.1-.3.3-.3.5-.3,1-.6,1.5-.9.5-.4,1-.7,1.4-1.2.4-.4.8-.8,1.2-1.2h-3.7c-.1,0-.3,0-.4-.1,0,0-.2-.2-.1-.3,0-.1,0-.3.1-.4,0,0,.2-.2.4-.2h2.5c-.1,0-.2-.1-.3-.2,0-.1-.1-.3-.3-.4-.1-.2-.2-.4-.4-.6s-.2-.4-.3-.5c0-.1-.1-.2,0-.4,0-.1.1-.2.2-.3.1,0,.3-.1.4,0,.1,0,.3.1.3.2,0,.1.2.3.3.5.1.2.3.4.4.6.1.2.2.3.3.5,0,.1.1.3,0,.4,0,.1-.1.3-.3.3,0,0,0,0-.1,0h1.5v-2.7h-3.8c-.1,0-.3,0-.3-.1,0,0-.1-.2-.1-.3,0-.1,0-.3.1-.4,0,0,.2-.2.3-.1h3.8v-1c0-.1,0-.3.2-.4.1,0,.2-.2.4-.2.1,0,.3,0,.4.1.1.1.2.2.2.4v1h3.8c.1,0,.3,0,.3.1,0,0,.1.2.1.4,0,.1,0,.3-.1.3,0,0-.2.1-.3.1h-3.8v2.7h1.3,0c-.1,0-.2-.2-.3-.3,0-.1,0-.3,0-.4,0-.1.2-.3.3-.5.1-.2.3-.4.4-.6.1-.2.2-.4.3-.5,0-.1.2-.2.3-.3.1,0,.3,0,.4,0,.1,0,.2.2.3.3,0,.1,0,.3,0,.4,0,.1-.2.3-.3.5-.1.2-.3.4-.4.6-.1.2-.2.4-.3.5,0,0-.2.2-.3.2h2.6c.1,0,.3,0,.4.2,0,0,.2.2.1.4,0,.1,0,.3-.1.3,0,0-.2.1-.4.1h-3.7c.4.4.8.8,1.2,1.2.5.4.9.8,1.4,1.1.5.3,1,.6,1.5.9.1,0,.2.2.3.3,0,.1,0,.3,0,.4,0,.1-.2.2-.4.3-.2,0-.3,0-.5,0-.5-.3-1-.6-1.4-.9-.5-.4-1-.8-1.4-1.2-.4-.4-.8-.8-1.2-1.3v3.6c0,.1,0,.3-.2.4-.1.1-.2.2-.4.2ZM172.4,368.5c-.1,0-.3,0-.4-.2-.1,0-.2-.2-.2-.4v-5.7h-1.4c0,1.1-.3,2.3-.7,3.3-.4.9-1,1.8-1.8,2.4-.1.1-.3.2-.4.2-.2,0-.3,0-.4-.2-.1-.1-.2-.3-.2-.4,0-.2,0-.3.2-.4.5-.4,1-.9,1.3-1.4.3-.6.6-1.2.7-1.8.2-.8.2-1.5.2-2.3v-1.4c0-.4,0-.8.2-1.1,0-.3.3-.5.5-.6.3-.2.6-.3,1-.4.4,0,.8-.2,1.3-.3s.9-.2,1.3-.4c.1,0,.3,0,.4,0,.1,0,.2.2.3.3,0,.1,0,.3,0,.4,0,.1-.2.2-.3.3-.4.1-.8.2-1.3.3s-.9.2-1.3.3c-.2,0-.4.1-.6.2-.1,0-.2.2-.3.3,0,.2,0,.4,0,.6v.9h3.6c.1,0,.3,0,.4.2,0,0,.1.2.1.4,0,.1,0,.3-.1.4,0,.1-.2.2-.4.2h-1.1v5.7c0,.1,0,.3-.2.4-.1.1-.2.2-.4.2h0ZM163.5,368.3c-.1,0-.2-.2-.3-.3,0-.1,0-.3,0-.4.4-.6.6-1.2.8-1.9.2-.8.3-1.5.3-2.3v-1.4c0-.4,0-.8.2-1.2.1-.3.3-.5.6-.6.4-.1.8-.2,1.2-.2.4,0,.8,0,1.2.2.3.1.5.3.6.6.1.4.2.8.2,1.2,0,.4,0,.8-.2,1.2-.1.3-.3.5-.6.6-.4.1-.8.2-1.2.2h-1c0,.8-.1,1.6-.3,2.3-.2.6-.5,1.3-.8,1.9,0,.1-.2.2-.3.3-.1,0-.3,0-.4,0ZM164.2,359.1c-.1,0-.3,0-.3-.1,0,0-.1-.2-.1-.3,0-.1,0-.3.1-.3,0,0,.2-.1.3-.1h4.2c.1,0,.3,0,.3.1,0,0,.1.2.1.3,0,.1,0,.2-.1.3,0,0-.2.1-.3.1h-4.2ZM165.4,363h1c.2,0,.4,0,.6,0,.1,0,.2-.1.3-.3,0-.2,0-.4,0-.6,0-.3,0-.5-.2-.8-.2-.1-.5-.2-.8-.2-.2,0-.4,0-.6,0-.1,0-.2.1-.3.3,0,.2,0,.4,0,.6v.9Z"/>
          <path id="_パス_10388" data-name="パス_10388" class="cls-1" d="M214.4,367.4c-.3,0-.6-.2-.6-.5l-1.7-7.3c0-.2,0-.3,0-.5,0-.1.2-.2.4-.2.3,0,.6.2.7.5,0,0,0,0,0,0l1.3,5.9,1.6-5.9c0-.3.3-.5.6-.5.3,0,.6.2.6.5l1.6,5.9,1.3-5.9c0-.3.3-.5.6-.5.2,0,.3,0,.4.2,0,.1.1.3,0,.5l-1.7,7.3c0,.3-.3.5-.6.5-.3,0-.6-.2-.6-.5l-1.7-6.1-1.7,6.1c0,.3-.3.5-.6.5ZM223.2,367.4c-.3,0-.5-.2-.6-.4,0,0,0-.1,0-.2v-7.2c0-.3.1-.5.4-.6,0,0,.1,0,.2,0h4.3c.4,0,.6.2.6.5s-.2.5-.6.5h-3.8v2.6h3.4c.4,0,.6.2.6.5s-.2.5-.6.5h-3.4v2.7h3.9c.4,0,.6.2.6.5s-.2.5-.6.5h-4.4ZM230.2,367.4c-.3,0-.5-.1-.5-.4,0,0,0,0,0-.1v-7.3c0-.3.1-.5.4-.5,0,0,0,0,.1,0h2.8c.6,0,1.3.2,1.7.5.4.4.7,1,.6,1.6,0,.4,0,.8-.3,1.2-.2.3-.5.5-.9.7.5.1.9.4,1.1.8.3.4.5.9.4,1.4,0,.6-.2,1.3-.7,1.7-.6.4-1.2.6-1.9.6h-3ZM230.7,366.4h2.3c.4,0,.8,0,1.2-.3.3-.3.4-.6.4-1,0-.4-.1-.8-.4-1-.3-.3-.7-.4-1.1-.4h-2.2v2.8ZM230.7,362.6h2.1c.4,0,.7-.1,1-.4.2-.3.4-.6.3-.9,0-.8-.5-1.2-1.4-1.2h-2v2.5Z"/>
        </g>
        <g id="_グループ_4707" data-name="グループ_4707">
          <g class="cls-7">
            <g id="_グループ_615" data-name="グループ_615">
              <path id="_パス_868" data-name="パス_868" class="cls-3" d="M125.1,337.5h0c0,0,0-.1,0-.2.2,0,.1-.1.2-.1,0,0,0,0,0,0,0,0-.2-.2-.2-.2.1,0,0,0,0,0h0c0,0,0,0,0,0,0,0,0-.1,0-.2h0c0,0,0,0,0,0,0-.2-.2-.5-.2-.8,0-.5,0-1.5,0-1.9,0,0,0,0,0,0v.3c0,0,0,0,0,0h0c0,0,0,0,0,0h0c.1,0,.3,0,.3-.2h-.1s0,0,0-.1c.1,0,0,0,.1,0h0c0,0,0,0,0,0,0,0,0,0,0,.1h-.2c-.1,0,0,0-.1-.1h.1s0-.3,0-.3c0,0,0,0-.1,0,0,0,0,0,0-.1h.2c0-.2,0-.3-.1-.5l.3-.3c0-.2,0-.3-.2-.3h0c0,0,0,0,0,0,0,0,0-.2,0-.3h.2s0,0,0,0h-.2c.2-.1.2-.1.4,0,0,0,0-.1,0-.2h0c0,0-.2,0-.2,0,0-.4,0-.2.2-.5h.3s0-.2,0-.2c0,0,.1,0,.1-.1.3,0,.3,0,.4.2,0,0,.2,0,.3,0h0c0,0,1.4,0,1.4,0h0c0,0,1.1,0,1.1,0h0c0,0,.3,0,.3,0h0c0,0,.6,0,.6,0h0c0,0,0,0,0,0h0c.3,0,.5,0,.7,0,.1,0,.1-.1.1-.1h.3c0,0,0,0,.3,0,0,0,0,0,.1,0h0c0,0,.8-.1.8-.1h0c0,0,.1,0,.1,0h0c0,0,.2,0,.2,0h0c.1,0,.1,0,.1,0h.3s0,0,0,.1c.2,0,.3,0,.5,0,0,0,0,0,0-.1h.4c.4,0,.8,0,1.2,0,0,0,0,0,0,.1h.6s0,0,0,0h.4c0,0,0,0,0,0h.4c0,0,0-.1.3-.1h0c0,0,1,.1,1,.1,0-.3,0-.5,0-.8,0,0,0,0,0,0,0,0,0-.1,0-.2h0c0-.3,0-.5-.1-.8h.2c-.1-.3-.2-.4-.2-.6,0,0,0,0,0-.1h0v-.5c0-.3.1-.6.1-.9.3-.2.3-.3.8-.2,0,0,0,0,0,.1h.2s0,0,0,.1c.2,0,.2.1.3.3h.3c0,.1,0,.2,0,.2h0v.2c0,0,0,0,0,0h0c0,0,.3,0,.3,0h0c0,.1,0,.1,0,.1,0,0,0,0,0,.1h.2c0,0,.1,0,.2.1v.2s.1,0,.1,0c0,.1,0,.2,0,.3h.2c0,0,0-.2,0-.2h0c0,0,.1.1.1.1v.2s.3,0,.3,0c0,.1,0,.3.2.4h.1s0,0,0,.1c.2,0,.2,0,.2.2h-.3c.1.1.2.1.3.1,0,0,0,0,0,.1.2,0,.1,0,.2.1h0s.3.3.3.3h-.2c0,0,.3,0,.3,0l.2.3h0v.2c0,0,0,0,0,0,0,0,.3,0,.1,0h0c0,0,.1,0,.1,0h0c.2.2.3.3.3.5.1,0,0,0,.1,0,.3,0,.2.3.4.4,0,.2,0,.1-.1.3.2,0,.1,0,.3-.1v.2h.2c.1.2,0,.3.3.5,0,0,0,.2,0,.3.4,0,.3.2.7.2,0,0,0,0-.1,0,0,.1,0,.3,0,.4h-.2c0,.1,0,0,0,.1,0,.2,0,.2-.3.2,0,.1,0,.3,0,.4h0v.2h0c0,.1-.1.2-.1.2,0,.2,0,.4,0,.5h-.2c-.1.5-.3.6-.3,1.1h-.2c0,0,0,0,0,0,0,.1,0,.2,0,.3h-.2c0,.2-.1.4-.1.5h-.2c0,.4-.1.4-.1.7-.1,0,0,0-.1,0h0c0,.1,0,.2,0,.3,0,.1,0-.1-.1,0,0,0,0,.1,0,.2l-.3.2c0,0,0,.2,0,.3h0c0,0-.2,0-.2,0,0,0,0,0,0,.1h.1s-.2.1-.2.1c0,.1,0,.3-.1.4,0,0-.3.1-.3.1l-.2.3h0c0,0-.2,0-.2,0,0,.2-.1.3-.2.5h-.3c0,.3-.2.3,0,.5,0,0-.1.2-.2.3h-.2c.1.1,0,.2,0,.3-.2,0-.4.1-.5,0h0c0-.1-.7,0-.7,0,0-.1,0-.3,0-.4h.1c0,0,0-.3,0-.3,0,0,0,0,0-.1h0v-.4c0,0,0,0,0,0,0-.1,0-.2,0-.3h-.1s0,.2,0,.2h0c0-.1,0-.2,0-.3h-.1c-.1-.3,0-.7,0-.9h-.1c0-.2.2-.4.2-.5h-.1c-.1-.3,0-.5,0-.7h-.5s-.2-.2-.2-.2c-.3-.1.5.8.3.7h0c0,0,.2,0,.2,0h0c0,0,0,0,0,0,0,0,0,0,0-.1h-.4c0,0,0,0,0,0h0c0,0-.3,0-.3,0,0,0-.1.1-.3,0v-.2c-.1,0-.9,0-.9,0h0c0-.1-.1-.1-.1-.1h0c0,0-.4-.2-.4-.2,0,0,0,0,0,.1h-.2c0-.1-.4,0-.4,0h0c0,0-.4,0-.4,0h0c0,0,0,0,0,0h0c-.2,0-.4,0-.6,0v-.2s-.3,0-.3,0v-.2c0,0-.2,0-.2,0,0,.1,0,0,0,.1-.2.2-.8.1-1.1.1,0-.1,0,0,0-.1h0c-.2-.1-.2,0-.2,0h-.2s0,0,0-.1h0s0,0,0,.1h-.2c0-.2,0-.1-.2-.2,0,0,0,0,0,.1-.1,0-.2,0-.3,0h0c0,0-.2,0-.2,0h0c0-.1-.2,0-.2,0h0c-.2.1-.2,0-.2,0,0,0,0,.1-.3,0h0c0,0,0,0,0,0h0c0,0-.4,0-.4,0,0,0,0,0-.1-.1,0,0,0,0,0,.1h-.8c0,0,0,0,0,0h0c-.2,0-.2,0-.2,0h-.1c0,0,0,0,0,0,0,0-.4,0-.5.1,0,0,0-.1,0-.2-.2,0-.2,0-.2.2h-.4c0,0,0-.2,0-.2h-.1c0,.1,0,0,0,.1h0c-.2,0-.2,0-.3-.2h0v.2c0,0-.3,0-.3,0,0,0,0,.1,0,.2h-.1c0,0-.3,0-.3,0h0c0,0-.2,0-.2,0v-.2c-.2,0-.1,0-.2,0h0c0,0,0-.1,0-.2h-.3s0,0,0-.1M125.3,333.4h0c0,0,0,0,0,0,0,0,0,0,0,0v-.2c0,0,0,0,0,0M126.1,335.6c0,0,0,.1,0,.2h.1c0,0,0,0,0-.1h.3s0,0,0,0h-.4M125.7,332.8s0,0,0,.1h.1c0-.1,0-.2,0-.3h0c0,0,0-.1,0-.2h-.2c0,0,0,.3,0,.3h.1M125.8,331.5h0s0,0,0,.1h0s0,0,0-.1M126.2,330.9h0s0,0,0,.1h0s0,0,0-.1M130.9,331.1h-.1c0,.1,0,0,0,.1h0c0,0,0,0,0,0v-.2M131.2,331.3h-.1c0,.1,0,0,0,.1h0c0,0,0,0,0,0,0,0,0-.1,0-.2M138.1,328.9c.1,0,0,0,.1,0-.1,0,0,0-.1,0M142.6,331.5c.1,0,0,0,.1,0-.1,0,0,0-.1,0M143,332.5h0c0,.1,0,.1,0,.1h0M141,338.6c0,0,0,0,0,0h0c-.1,0,0-.1-.1,0h0M140.3,340.7h.1c0,0,0-.1,0-.2h-.1s0,.2,0,.2M139.6,340.6h.2c0,0,0-.1,0-.1h-.2M139.1,340.8c.1,0,0,0,.1,0h0c0,0,0,0,0,0,0,0,0,0,0,.1M138.6,340c.1,0,0,0,.1,0h0c0,0,0,0,0,0,0,0,0,0,0,.1M138.4,339.1c0,0,0,0,0,0,0,0,0,0,0-.1-.1,0,0,0-.1,0h0M138.7,338.4h.3c0,0,0-.1,0-.1h-.3c0,0,0,0,0,0h0M133.7,337.8h.1s0,0,0-.1h-.1c0,0,0,0,0,.1M126.5,336.9h0c0,0,.1.2.2.3h0c0,0,0,0,0,0v-.2c0,0,.1,0,.1,0,0-.1,0,0,.2,0h0c0,0,.3,0,.3,0h0c0,.1.1.1.1.1h0c0,0,0,0,0,0h0c0,0,1.2,0,1.2,0h0c0,0,1.3,0,1.3,0h.9c0,0,.1,0,.1,0h0c.2,0,.1,0,.2,0,0,0,0,0,0,0h.4s0,0,0,0h.4s0,.1,0,.1c0,0,.1-.1.1-.1h.5s0,0,0,0c.1,0,.1,0,.1,0h.6s0,0,0,0h.9c0,0,0,0,0,0h.4s0,0,0,0h.3c0,0,0,0,0,0h.3s.4,0,.4,0h0c0,0,.1,0,.1,0h0c0,0,.3,0,.3,0h0c0,0,.1,0,.1,0h0c.1.1.2,0,.3,0v.2c.2,0,.4,0,.6-.1v.2s-.1,0-.1,0c0,0,0,0,0,.1h.1c0,0,0,0,0-.1h.4c-.6-.4-.4-.4-.4-.4.2,0-.4-.4-.3-.4h0c0,0,.1,0,.1,0h0c0,0,.3,0,.3,0h0c0,0,.7.2.7.2h0c.2.1.3,0,.6,0,0,0,.2.2,0,.2,0,0,0,0,0,.1,0,0,0-.1,0-.1,0,.1,0,0,0,.1,0,.3-.1.2-.2.5h.1c0,.1,0,.2,0,.3h0c0,0,0,.1,0,.2,0,0,.1,0,0,.1h0c0,0-.1.4-.1.5h0c0,0,0,.2,0,.3h0c0,.1,0,.2,0,.3,0,0,0,0,0,.1h0c0,.1,0,.2,0,.3h0v.3c.3-.1.4-.3.6-.5h.1c0-.2,0-.3,0-.4h0s0,0,0-.1h.1c0,0,0-.1,0-.2h.1c0-.1,0-.2,0-.2,0,0,.4-.2.5-.3v-.3h.1c0,0-.3,0-.3,0h.1v-.2h.2c0-.2,0-.3,0-.4h.1v-.2l.3-.2c0,0,0-.2,0-.3h.1c0-.2,0-.2,0-.3h.1v-.3h.1v-.3l.3-.2v-.3h.1v-.3h0v-.3h.1c0-.1.2-.3.2-.3v-.2h0c0-.1,0-.1,0-.1v-.2h.1c.1-.3.2-.6.2-.9,0,0-.2,0-.3,0h0c0,0,0,0,0,0,0,0,0-.1,0-.2h-.1c0-.2,0-.2,0-.3h0c0-.1-.2-.2-.3-.2,0-.2,0-.3-.3-.4h0c0-.1-.3-.1-.3-.1h0c0,0,.2-.1.2-.1,0,0,0-.3,0-.1h0c0,0-.2,0-.2,0,0,0,0,0,0-.1h-.1c-.1,0-.3-.2-.4-.3v-.3s-.1,0-.1,0v-.2c0,0-.4-.2-.5-.3v-.2s-.3,0-.3,0v-.4c-.4,0-.2,0-.3-.3h0v-.2c0,0-.2,0-.3,0h0c0,0-.2-.2-.2-.2,0,0,0-.1,0-.2h0c0,0-.2,0-.2,0,0,0,0,0,0-.1h-.2s0,0,0-.1h0c0-.1,0-.2,0-.3h-.3c0-.3,0-.2-.2-.3h0c0-.1,0-.2-.2-.3,0,0,0,0-.1,0h0c0,0,0,0,0,0,0,0,0,.2,0,.3h0v.3c0,0-.2,0-.2,0,.2.3.2.7.2,1.1,0,.2-.1.4-.1.5h0c0,.3,0,.6,0,.9,0,.4-.1.4-.2.7h-.5c0-.2,0-.2-.2-.3h0c0,0-.3,0-.3,0h-.2c0,0,0,0,.1,0h0c0,0-.5,0-.5,0h0c0,0-.1,0-.1,0h0c0,0-.2,0-.2,0h0c0,0,0,0,0,0h0c0,0-.3,0-.3,0h0c0,0-.2,0-.2,0h0c0,0-.9,0-.9,0h0c0,0-.3,0-.3,0,0,0,0,0-.1,0,0,0,0,0,0-.1h-.1c0,0,0,.1,0,.2-.1,0-.2,0-.3,0,0,0,0,0,0-.1-.2,0-.2.1-.3-.1h0c0,.1,0,.2,0,.3h-.2c0-.1,0,0,0-.1h0c0,0-.3.2-.5.2l-.2-.2c-.2,0-.2.2-.3.2h0c-.2,0-.4,0-.6,0h0c-.1,0-.2,0-.3,0,0,0,0-.1,0-.2-.2.2-.3,0-.6,0,0,0,0,.2-.3.1,0,0,0,0,0-.1h-.5s0,0,0,.1h-.9s-.2,0-.2,0h-1.3s0,0,0,0c0,0,0,0,0,0h0c0-.1,0,0,0,0h-.3s0-.2,0-.2h-.2s0,0,0,0h-.5c0-.1.1,0,.1-.3-.2,0-.4,0-.5,0h0c0,0,.2,0,.2,0,0,0,0,.1,0,.2-.2,0-.4,0-.5,0,0,0,0,0,0,.1h-.2s0,0,0,0h-.3c0,0,0,0,0,0,0,0,0,0,0,0h0c.2,0,.3,0,.5.2h0c0-.1,0-.3,0-.3h.4c0,.1,0,.1,0,.1,0,0,0,0,0,0h0c0,0-.2,0-.2,0,0,0,0,0,0,.1h.2c0,.1,0,0,0,.1h0c-.1,0-.2,0-.3,0,0-.1,0,0,0-.1h0c0,0-.3,0-.3,0h0c0,.1.2.1.3.1v.5h0s0,0,0,.1h0c0-.1,0-.2,0-.3h.1s0,0,0-.1h.3s0,0,0,.1h-.1c0,0,0,0,0,0,0,0,0,.2,0,.3,0,0,0,0,0,0h-.3s0,0,0,.1h.3c0,0,0,0,0,0,0,.2-.1.3-.2.5h.1s0,.3,0,.3h0c0,0-.2,0-.2,0,0,.1,0,0,.2.1v.2c-.1,0,0,0-.1,0h0c0,.2,0,.2,0,.4h.1c0,0,0,.1,0,.2h-.2c0,0,0,.2,0,.3h-.2c0,.2.6.2.6.3,0,.3,0,.6,0,.9,0,0,0,.2,0,.3h0c0,.1.1.2,0,.3h-.2c.1.2.1.1.2.3-.1,0,0,0-.1,0M125.3,334.8c0-.1,0,0,0-.1h0c0,0-.2,0-.2,0,0,0,0,.1,0,.2h.1M125.6,337.9h.3s0,0,0,0h-.3M125.5,337.7h.3c0,0,0,0,0,0h0c0,0-.3,0-.3,0,0,0,0,0,0,.1"/>
            </g>
          </g>
        </g>
        <g id="_グループ_4708" data-name="グループ_4708">
          <g class="cls-5">
            <g id="_グループ_615-2" data-name="グループ_615-2">
              <path id="_パス_868-2" data-name="パス_868-2" class="cls-3" d="M240.1,337.5h0c0,0,0-.1,0-.2.2,0,.1-.1.2-.1,0,0,0,0,0,0,0,0-.2-.2-.2-.2.1,0,0,0,0,0h0c0,0,0,0,0,0,0,0,0-.1,0-.2h0c0,0,0,0,0,0,0-.2-.2-.5-.2-.8,0-.5,0-1.5,0-1.9,0,0,0,0,0,0v.3c0,0,0,0,0,0h0c0,0,0,0,0,0h0c.1,0,.3,0,.3-.2h-.1s0,0,0-.1c.1,0,0,0,.1,0h0c0,0,0,0,0,0,0,0,0,0,0,.1h-.2c-.1,0,0,0-.1-.1h.1s0-.3,0-.3c0,0,0,0-.1,0,0,0,0,0,0-.1h.2c0-.2,0-.3-.1-.5l.3-.3c0-.2,0-.3-.2-.3h0c0,0,0,0,0,0,0,0,0-.2,0-.3h.2s0,0,0,0h-.2c.2-.1.2-.1.4,0,0,0,0-.1,0-.2h0c0,0-.2,0-.2,0,0-.4,0-.2.2-.5h.3s0-.2,0-.2c0,0,.1,0,.1-.1.3,0,.3,0,.4.2,0,0,.2,0,.3,0h0c0,0,1.4,0,1.4,0h0c0,0,1.1,0,1.1,0h0c0,0,.3,0,.3,0h0c0,0,.6,0,.6,0h0c0,0,0,0,0,0h0c.3,0,.5,0,.7,0,.1,0,.1-.1.1-.1h.3c0,0,0,0,.3,0,0,0,0,0,.1,0h0c0,0,.8-.1.8-.1h0c0,0,.1,0,.1,0h0c0,0,.2,0,.2,0h0c.1,0,.1,0,.1,0h.3s0,0,0,.1c.2,0,.3,0,.5,0,0,0,0,0,0-.1h.4c.4,0,.8,0,1.2,0,0,0,0,0,0,.1h.6s0,0,0,0h.4c0,0,0,0,0,0h.4c0,0,0-.1.3-.1h0c0,0,1,.1,1,.1,0-.3,0-.5,0-.8,0,0,0,0,0,0,0,0,0-.1,0-.2h0c0-.3,0-.5-.1-.8h.2c-.1-.3-.2-.4-.2-.6,0,0,0,0,0-.1h0v-.5c0-.3.1-.6.1-.9.3-.2.3-.3.8-.2,0,0,0,0,0,.1h.2s0,0,0,.1c.2,0,.2.1.3.3h.3c0,.1,0,.2,0,.2h0v.2c0,0,0,0,0,0h0c0,0,.3,0,.3,0h0c0,.1,0,.1,0,.1,0,0,0,0,0,.1h.2c0,0,.1,0,.2.1v.2s.1,0,.1,0c0,.1,0,.2,0,.3h.2c0,0,0-.2,0-.2h0c0,0,.1.1.1.1v.2s.3,0,.3,0c0,.1,0,.3.2.4h.1s0,0,0,.1c.2,0,.2,0,.2.2h-.3c.1.1.2.1.3.1,0,0,0,0,0,.1.2,0,.1,0,.2.1h0s.3.3.3.3h-.2c0,0,.3,0,.3,0l.2.3h0v.2c0,0,0,0,0,0,0,0,.3,0,.1,0h0c0,0,.1,0,.1,0h0c.2.2.3.3.3.5.1,0,0,0,.1,0,.3,0,.2.3.4.4,0,.2,0,.1-.1.3.2,0,.1,0,.3-.1v.2h.2c.1.2,0,.3.3.5,0,0,0,.2,0,.3.4,0,.3.2.7.2,0,0,0,0-.1,0,0,.1,0,.3,0,.4h-.2c0,.1,0,0,0,.1,0,.2,0,.2-.3.2,0,.1,0,.3,0,.4h0v.2h0c0,.1-.1.2-.1.2,0,.2,0,.4,0,.5h-.2c-.1.5-.3.6-.3,1.1h-.2c0,0,0,0,0,0,0,.1,0,.2,0,.3h-.2c0,.2-.1.4-.1.5h-.2c0,.4-.1.4-.1.7-.1,0,0,0-.1,0h0c0,.1,0,.2,0,.3,0,.1,0-.1-.1,0,0,0,0,.1,0,.2l-.3.2c0,0,0,.2,0,.3h0c0,0-.2,0-.2,0,0,0,0,0,0,.1h.1s-.2.1-.2.1c0,.1,0,.3-.1.4,0,0-.3.1-.3.1l-.2.3h0c0,0-.2,0-.2,0,0,.2-.1.3-.2.5h-.3c0,.3-.2.3,0,.5,0,0-.1.2-.2.3h-.2c.1.1,0,.2,0,.3-.2,0-.4.1-.5,0h0c0-.1-.7,0-.7,0,0-.1,0-.3,0-.4h.1c0,0,0-.3,0-.3,0,0,0,0,0-.1h0v-.4c0,0,0,0,0,0,0-.1,0-.2,0-.3h-.1s0,.2,0,.2h0c0-.1,0-.2,0-.3h-.1c-.1-.3,0-.7,0-.9h-.1c0-.2.2-.4.2-.5h-.1c-.1-.3,0-.5,0-.7h-.5s-.2-.2-.2-.2c-.3-.1.5.8.3.7h0c0,0,.2,0,.2,0h0c0,0,0,0,0,0,0,0,0,0,0-.1h-.4c0,0,0,0,0,0h0c0,0-.3,0-.3,0,0,0-.1.1-.3,0v-.2c-.1,0-.9,0-.9,0h0c0-.1-.1-.1-.1-.1h0c0,0-.4-.2-.4-.2,0,0,0,0,0,.1h-.2c0-.1-.4,0-.4,0h0c0,0-.4,0-.4,0h0c0,0,0,0,0,0h0c-.2,0-.4,0-.6,0v-.2s-.3,0-.3,0v-.2c0,0-.2,0-.2,0,0,.1,0,0,0,.1-.2.2-.8.1-1.1.1,0-.1,0,0,0-.1h0c-.2-.1-.2,0-.2,0h-.2s0,0,0-.1h0s0,0,0,.1h-.2c0-.2,0-.1-.2-.2,0,0,0,0,0,.1-.1,0-.2,0-.3,0h0c0,0-.2,0-.2,0h0c0-.1-.2,0-.2,0h0c-.2.1-.2,0-.2,0,0,0,0,.1-.3,0h0c0,0,0,0,0,0h0c0,0-.4,0-.4,0,0,0,0,0-.1-.1,0,0,0,0,0,.1h-.8c0,0,0,0,0,0h0c-.2,0-.2,0-.2,0h-.1c0,0,0,0,0,0,0,0-.4,0-.5.1,0,0,0-.1,0-.2-.2,0-.2,0-.2.2h-.4c0,0,0-.2,0-.2h-.1c0,.1,0,0,0,.1h0c-.2,0-.2,0-.3-.2h0v.2c0,0-.3,0-.3,0,0,0,0,.1,0,.2h-.1c0,0-.3,0-.3,0h0c0,0-.2,0-.2,0v-.2c-.2,0-.1,0-.2,0h0c0,0,0-.1,0-.2h-.3s0,0,0-.1M240.3,333.4h0c0,0,0,0,0,0,0,0,0,0,0,0v-.2c0,0,0,0,0,0M241.1,335.6c0,0,0,.1,0,.2h.1c0,0,0,0,0-.1h.3s0,0,0,0h-.4M240.7,332.8s0,0,0,.1h.1c0-.1,0-.2,0-.3h0c0,0,0-.1,0-.2h-.2c0,0,0,.3,0,.3h.1M240.8,331.5h0s0,0,0,.1h0s0,0,0-.1M241.2,330.9h0s0,0,0,.1h0s0,0,0-.1M245.9,331.1h-.1c0,.1,0,0,0,.1h0c0,0,0,0,0,0v-.2M246.2,331.3h-.1c0,.1,0,0,0,.1h0c0,0,0,0,0,0,0,0,0-.1,0-.2M253.1,328.9c.1,0,0,0,.1,0-.1,0,0,0-.1,0M257.6,331.5c.1,0,0,0,.1,0-.1,0,0,0-.1,0M258,332.5h0c0,.1,0,.1,0,.1h0M256,338.6c0,0,0,0,0,0h0c-.1,0,0-.1-.1,0h0M255.3,340.7h.1c0,0,0-.1,0-.2h-.1s0,.2,0,.2M254.6,340.6h.2c0,0,0-.1,0-.1h-.2M254.1,340.8c.1,0,0,0,.1,0h0c0,0,0,0,0,0,0,0,0,0,0,.1M253.6,340c.1,0,0,0,.1,0h0c0,0,0,0,0,0,0,0,0,0,0,.1M253.4,339.1c0,0,0,0,0,0,0,0,0,0,0-.1-.1,0,0,0-.1,0h0M253.7,338.4h.3c0,0,0-.1,0-.1h-.3c0,0,0,0,0,0h0M248.7,337.8h.1s0,0,0-.1h-.1c0,0,0,0,0,.1M241.5,336.9h0c0,0,.1.2.2.3h0c0,0,0,0,0,0v-.2c0,0,.1,0,.1,0,0-.1,0,0,.2,0h0c0,0,.3,0,.3,0h0c0,.1.1.1.1.1h0c0,0,0,0,0,0h0c0,0,1.2,0,1.2,0h0c0,0,1.3,0,1.3,0h.9c0,0,.1,0,.1,0h0c.2,0,.1,0,.2,0,0,0,0,0,0,0h.4s0,0,0,0h.4s0,.1,0,.1c0,0,.1-.1.1-.1h.5s0,0,0,0c.1,0,.1,0,.1,0h.6s0,0,0,0h.9c0,0,0,0,0,0h.4s0,0,0,0h.3c0,0,0,0,0,0h.3s.4,0,.4,0h0c0,0,.1,0,.1,0h0c0,0,.3,0,.3,0h0c0,0,.1,0,.1,0h0c.1.1.2,0,.3,0v.2c.2,0,.4,0,.6-.1v.2s-.1,0-.1,0c0,0,0,0,0,.1h.1c0,0,0,0,0-.1h.4c-.6-.4-.4-.4-.4-.4.2,0-.4-.4-.3-.4h0c0,0,.1,0,.1,0h0c0,0,.3,0,.3,0h0c0,0,.7.2.7.2h0c.2.1.3,0,.6,0,0,0,.2.2,0,.2,0,0,0,0,0,.1,0,0,0-.1,0-.1,0,.1,0,0,0,.1,0,.3-.1.2-.2.5h.1c0,.1,0,.2,0,.3h0c0,0,0,.1,0,.2,0,0,.1,0,0,.1h0c0,0-.1.4-.1.5h0c0,0,0,.2,0,.3h0c0,.1,0,.2,0,.3,0,0,0,0,0,.1h0c0,.1,0,.2,0,.3h0v.3c.3-.1.4-.3.6-.5h.1c0-.2,0-.3,0-.4h0s0,0,0-.1h.1c0,0,0-.1,0-.2h.1c0-.1,0-.2,0-.2,0,0,.4-.2.5-.3v-.3h.1c0,0-.3,0-.3,0h.1v-.2h.2c0-.2,0-.3,0-.4h.1v-.2l.3-.2c0,0,0-.2,0-.3h.1c0-.2,0-.2,0-.3h.1v-.3h.1v-.3l.3-.2v-.3h.1v-.3h0v-.3h.1c0-.1.2-.3.2-.3v-.2h0c0-.1,0-.1,0-.1v-.2h.1c.1-.3.2-.6.2-.9,0,0-.2,0-.3,0h0c0,0,0,0,0,0,0,0,0-.1,0-.2h-.1c0-.2,0-.2,0-.3h0c0-.1-.2-.2-.3-.2,0-.2,0-.3-.3-.4h0c0-.1-.3-.1-.3-.1h0c0,0,.2-.1.2-.1,0,0,0-.3,0-.1h0c0,0-.2,0-.2,0,0,0,0,0,0-.1h-.1c-.1,0-.3-.2-.4-.3v-.3s-.1,0-.1,0v-.2c0,0-.4-.2-.5-.3v-.2s-.3,0-.3,0v-.4c-.4,0-.2,0-.3-.3h0v-.2c0,0-.2,0-.3,0h0c0,0-.2-.2-.2-.2,0,0,0-.1,0-.2h0c0,0-.2,0-.2,0,0,0,0,0,0-.1h-.2s0,0,0-.1h0c0-.1,0-.2,0-.3h-.3c0-.3,0-.2-.2-.3h0c0-.1,0-.2-.2-.3,0,0,0,0-.1,0h0c0,0,0,0,0,0,0,0,0,.2,0,.3h0v.3c0,0-.2,0-.2,0,.2.3.2.7.2,1.1,0,.2-.1.4-.1.5h0c0,.3,0,.6,0,.9,0,.4-.1.4-.2.7h-.5c0-.2,0-.2-.2-.3h0c0,0-.3,0-.3,0h-.2c0,0,0,0,.1,0h0c0,0-.5,0-.5,0h0c0,0-.1,0-.1,0h0c0,0-.2,0-.2,0h0c0,0,0,0,0,0h0c0,0-.3,0-.3,0h0c0,0-.2,0-.2,0h0c0,0-.9,0-.9,0h0c0,0-.3,0-.3,0,0,0,0,0-.1,0,0,0,0,0,0-.1h-.1c0,0,0,.1,0,.2-.1,0-.2,0-.3,0,0,0,0,0,0-.1-.2,0-.2.1-.3-.1h0c0,.1,0,.2,0,.3h-.2c0-.1,0,0,0-.1h0c0,0-.3.2-.5.2l-.2-.2c-.2,0-.2.2-.3.2h0c-.2,0-.4,0-.6,0h0c-.1,0-.2,0-.3,0,0,0,0-.1,0-.2-.2.2-.3,0-.6,0,0,0,0,.2-.3.1,0,0,0,0,0-.1h-.5s0,0,0,.1h-.9s-.2,0-.2,0h-1.3s0,0,0,0c0,0,0,0,0,0h0c0-.1,0,0,0,0h-.3s0-.2,0-.2h-.2s0,0,0,0h-.5c0-.1.1,0,.1-.3-.2,0-.4,0-.5,0h0c0,0,.2,0,.2,0,0,0,0,.1,0,.2-.2,0-.4,0-.5,0,0,0,0,0,0,.1h-.2s0,0,0,0h-.3c0,0,0,0,0,0,0,0,0,0,0,0h0c.2,0,.3,0,.5.2h0c0-.1,0-.3,0-.3h.4c0,.1,0,.1,0,.1,0,0,0,0,0,0h0c0,0-.2,0-.2,0,0,0,0,0,0,.1h.2c0,.1,0,0,0,.1h0c-.1,0-.2,0-.3,0,0-.1,0,0,0-.1h0c0,0-.3,0-.3,0h0c0,.1.2.1.3.1v.5h0s0,0,0,.1h0c0-.1,0-.2,0-.3h.1s0,0,0-.1h.3s0,0,0,.1h-.1c0,0,0,0,0,0,0,0,0,.2,0,.3,0,0,0,0,0,0h-.3s0,0,0,.1h.3c0,0,0,0,0,0,0,.2-.1.3-.2.5h.1s0,.3,0,.3h0c0,0-.2,0-.2,0,0,.1,0,0,.2.1v.2c-.1,0,0,0-.1,0h0c0,.2,0,.2,0,.4h.1c0,0,0,.1,0,.2h-.2c0,0,0,.2,0,.3h-.2c0,.2.6.2.6.3,0,.3,0,.6,0,.9,0,0,0,.2,0,.3h0c0,.1.1.2,0,.3h-.2c.1.2.1.1.2.3-.1,0,0,0-.1,0M240.3,334.8c0-.1,0,0,0-.1h0c0,0-.2,0-.2,0,0,0,0,.1,0,.2h.1M240.6,337.9h.3s0,0,0,0h-.3M240.5,337.7h.3c0,0,0,0,0,0h0c0,0-.3,0-.3,0,0,0,0,0,0,.1"/>
            </g>
          </g>
        </g>
        <g id="_グループ_4710" data-name="グループ_4710">
          <g class="cls-6">
            <g id="_グループ_618" data-name="グループ_618">
              <path id="_パス_869" data-name="パス_869" d="M135,28.2c0-2.8,1.2-5.5,3.2-7.6l2.4,1.4c-1.9,1.5-2.9,3.9-2.9,6.3,0,3.8,3,6.8,7.4,6.8,4.8,0,8.7-3.9,8.9-8.7,0-7.4-11.6-7.6-11.4-16.6,0-4.7,4.5-9.7,10.6-9.7s9.8,5.8,7.2,11.9h-2.8c2.4-5.5-.4-9.5-4.7-9.5-4,0-7.3,3.1-7.6,7.1-.2,7.8,11.4,7.9,11.4,16.8-.2,6.3-5.4,11.3-11.8,11.3-6,0-9.9-3.9-9.9-9.3"/>
              <path id="_パス_870" data-name="パス_870" d="M174.5,22.4v2.8c-1.8,4-5.4,8.1-8.7,8.1-6.2,0-4.4-8-1.5-16.2h-2.8l.8-2.3h2.8c.9-2.5,1.8-4.9,2.6-7.1h2.6c-1,2.5-1.9,4.9-2.6,7.1h4.4l-.8,2.3h-4.5c-3,8.7-3.8,13.7-.8,13.7s5.7-3.7,8.5-8.5"/>
              <path id="_パス_871" data-name="パス_871" d="M191.6,22.3v2.9c-1.8,4.4-5.8,8.1-11.7,8.1-4.9,0-7.6-3.2-7.6-7,0-6.3,4-11.9,9.1-11.9,2.6-.1,4.8,1.9,5,4.5,0,.1,0,.2,0,.4,0,5.3-5.3,8.5-11.5,7.2.2,2.5,1.8,4.4,5.5,4.4s8.5-3.9,11.2-8.6M175.1,24.2c4.2,1.2,8.7-1,8.7-4.8,0-1.4-.9-2.5-2.3-2.6,0,0,0,0-.1,0-3.2,0-5.7,3.5-6.3,7.4"/>
              <path id="_パス_872" data-name="パス_872" d="M183.2,45.5c3.4-10,6.8-20.8,10.2-30.7h2.5l-1.7,4.3c.9-1.7,3.6-4.7,7-4.7s4.6,2.4,4.6,6c0,5.5-4,12.9-9.9,12.9-2.1,0-4.1-.8-5.4-2.4-1.3,3.7-3,9-4.6,14.6h-2.7ZM203.2,20.4c0-2.1-1-3.6-2.7-3.6-2.7,0-6.4,3.2-9.1,11.5.8,1.6,2.1,2.6,4.5,2.6,4.1,0,7.2-5.5,7.2-10.5"/>
              <path id="_パス_873" data-name="パス_873" d="M215.1,26.4c0-11.3,8.3-26.2,17.9-26.2s8.5,3.9,8.5,11.6c0,11.4-8,25.8-17.8,25.8s-8.7-3.7-8.7-11.2M238.8,12.1c0-5.8-2.3-9.3-6.1-9.3-7.5,0-14.8,13.8-14.8,23.5s2.1,8.9,6.1,8.9c7.7,0,14.8-13.5,14.8-23"/>
              <path id="_パス_874" data-name="パス_874" d="M249.3,37.1h-2.8c3.1-9.6,6.9-21.5,10.3-31.5-2.8,2.4-6.1,4.2-9.7,5.2l-.7-2.4c4.4-1.1,9.1-3.7,11.7-7.8h3.1c-3.8,10.8-8.3,25.3-12,36.6"/>
            </g>
          </g>
        </g>
      </g>
    </g>
  </g>
</svg>