<?xml version="1.0" encoding="UTF-8"?>
<svg xmlns="http://www.w3.org/2000/svg" version="1.1" xmlns:xlink="http://www.w3.org/1999/xlink" viewBox="0 0 385 409">
  <defs>
    <style>
      .cls-1 {
        fill: #fff;
      }

      .cls-2, .cls-3 {
        fill: none;
      }

      .cls-4 {
        fill-rule: evenodd;
      }

      .cls-4, .cls-5 {
        fill: #ed6a1f;
      }

      .cls-6 {
        clip-path: url(#clippath-1);
      }

      .cls-3 {
        stroke: #fff;
      }

      .cls-7 {
        clip-path: url(#clippath);
      }
    </style>
    <clipPath id="clippath">
      <rect class="cls-2" x="121" width="132.3" height="45.5"/>
    </clipPath>
    <clipPath id="clippath-1">
      <rect class="cls-2" x="194.6" y="72.4" width="26.3" height="17.3"/>
    </clipPath>
  </defs>
  <!-- Generator: Adobe Illustrator 28.6.0, SVG Export Plug-In . SVG Version: 1.2.0 Build 709)  -->
  <g>
    <g id="_レイヤー_1" data-name="レイヤー_1">
      <g id="_グループ_4746" data-name="グループ_4746">
        <g id="_長方形_1047" data-name="長方形_1047">
          <rect class="cls-1" y="24" width="385" height="385" rx="10" ry="10"/>
          <rect class="cls-3" x=".5" y="24.5" width="384" height="384" rx="9.5" ry="9.5"/>
        </g>
        <path id="_パス_10380" data-name="パス_10380" class="cls-5" d="M118.3,89.4c-.6.2-1,0-1.2-.5,0-.2,0-.4,0-.6.1-.2.3-.4.6-.4,1.2-.3,2.3-.7,3.3-1.2,1-.5,2-1.1,2.8-1.8-.5-.5-.9-1-1.3-1.6-.4-.6-.8-1.2-1.1-1.9,0-.2-.1-.4,0-.6.2-.4.6-.6,1-.4.2,0,.4.2.4.4.6,1.1,1.2,2.1,2.1,3,.4-.4.8-.9,1.1-1.4.4-.5.7-1.1,1-1.6,0-.2.3-.4.5-.4.2,0,.4,0,.6,0,.2,0,.3.2.4.4,0,.2,0,.5,0,.7-.6,1.3-1.4,2.4-2.4,3.5.9.7,1.8,1.3,2.8,1.8,1.1.5,2.2.8,3.3,1.1.2,0,.5.2.6.4.1.2.1.5,0,.7,0,.2-.2.4-.5.5-.2,0-.5,0-.7,0-1.2-.3-2.4-.8-3.6-1.3-1.1-.5-2.2-1.2-3.1-2.1-.9.8-1.9,1.5-3,2-1.2.6-2.4,1-3.7,1.4ZM117.7,77c-.4,0-.7-.3-.7-.7s.3-.7.7-.7h6.4v-1.8c0-.2,0-.4.3-.6.2-.1.4-.2.6-.2.2,0,.4,0,.6.2.2.2.3.4.3.6v1.8h6.4c.2,0,.4,0,.5.2.3.3.3.7,0,1-.1.1-.3.2-.5.2h-14.5ZM118.9,82c-.2.1-.4.2-.7.1-.2,0-.4-.2-.5-.4-.2-.4,0-.8.3-1.1,0,0,0,0,0,0,.5-.3,1-.6,1.4-.9.5-.4.9-.7,1.4-1.1.4-.4.8-.8,1.2-1.2.1-.2.4-.3.6-.3.2,0,.4,0,.6.2.1.1.2.3.2.5,0,.2,0,.4-.2.6-.4.4-.8.9-1.2,1.2-.5.4-1,.8-1.5,1.2-.5.4-1,.7-1.5,1ZM131.1,81.7c-.5-.3-1-.6-1.5-1-.5-.4-1.1-.8-1.5-1.2-.5-.4-.9-.8-1.3-1.1-.3-.3-.3-.8,0-1.1,0,0,0,0,0,0,.1-.2.4-.2.6-.2.2,0,.4,0,.6.2.4.4.8.7,1.3,1.1.5.4,1,.7,1.5,1,.4.3.9.6,1.4.8.2,0,.3.3.4.5,0,.2,0,.4,0,.6-.1.2-.3.3-.5.4-.2,0-.5,0-.7,0ZM135.9,89.6c-.2,0-.4,0-.5-.2-.1-.1-.2-.3-.2-.5v-13.3c0-.5,0-.9.2-1.3.1-.3.4-.6.7-.7.5-.1,1-.2,1.6-.2,1.1,0,1.9.2,2.2.7.3.6.3,1.3,0,1.8,0,.2-.1.3-.2.5s-.2.4-.2.6c.6-.5,1.1-1.2,1.6-1.8.5-.6.9-1.3,1.2-2,.2-.4.6-.5,1-.3.2,0,.3.2.3.4,0,.2,0,.4,0,.5,0,.1-.1.2-.2.3h.6c.6,0,1.1.1,1.5.5,0-.1,0-.3-.1-.4,0-.1,0-.2,0-.4,0-.2,0-.4,0-.6.1-.2.3-.3.5-.3.2,0,.4,0,.5,0,.2.1.3.3.3.5.3,1.2.7,2.4,1.4,3.4.1-.2.3-.3.5-.5s.3-.4.5-.5c.2-.2.2-.4.2-.5s-.2-.2-.5-.2h-1.1c-.2,0-.3,0-.4-.2-.1-.1-.2-.3-.2-.4,0-.2,0-.3.2-.4,0-.1.2-.2.4-.2h1.4c.5,0,1,.1,1.4.4.3.2.4.6.4,1,0,.5-.3.9-.7,1.2-.2.3-.4.5-.7.7s-.4.4-.6.6c.7.8,1.5,1.4,2.4,2,.2.1.3.3.3.5,0,.2,0,.4-.2.6-.1.2-.3.3-.6.3-.2,0-.5,0-.6-.2-1-.7-1.9-1.5-2.6-2.4-.8-1-1.5-2.1-1.9-3.3,0,.1,0,.3,0,.4,0,.2-.1.3-.2.5-.5,1-1.1,1.9-1.8,2.7-.7.8-1.6,1.5-2.5,2.1-.2.1-.4.2-.6.2-.2,0-.4,0-.5-.2-.1-.1-.2-.3-.1-.5,0-.2.1-.4.3-.5.3-.2.5-.3.8-.5.2-.2.5-.3.7-.5-.1-.1-.3-.3-.4-.4-.1-.1-.3-.2-.4-.3-.2-.2-.3-.6,0-.8.1-.1.3-.2.4-.2.2,0,.3,0,.4.1.1.1.3.2.4.4.2.1.3.3.5.4.1-.1.2-.2.3-.4.1-.1.2-.2.3-.4-.2-.1-.3-.2-.5-.4l-.5-.3c-.1,0-.2-.2-.2-.4,0-.1,0-.3.1-.4,0-.1.2-.2.4-.2.2,0,.3,0,.4.1.1,0,.3.2.4.3.1.1.3.2.5.4.1-.2.2-.4.3-.6.2-.3.2-.5.1-.6,0-.1-.3-.2-.6-.2h-1c-.4.5-.7,1-1.2,1.5-.4.4-.8.9-1.2,1.3-.1.1-.3.2-.5.2-.2,0-.4,0-.5-.2,0,0-.1-.2-.2-.3l-.2.3c-.1.3-.2.6-.3.9,0,.2.2.5.3.6.8.9,1.2,2,1.2,3.2.2,1.4-.8,2.7-2.2,2.9-.2,0-.4,0-.6,0-.3,0-.6,0-.8-.4v3.6c0,.2,0,.4-.2.5-.1.1-.3.2-.5.2h0ZM143.7,89.5c-.2,0-.4,0-.6-.2-.2-.1-.3-.3-.3-.6,0-.2,0-.4.2-.5.2-.2.4-.3.6-.3.3,0,.6,0,.9-.2.1-.2.2-.5.2-.7v-3h-3.6c-.2,0-.4,0-.5-.2-.1-.1-.2-.3-.2-.5,0-.2,0-.4.2-.5.1-.1.3-.2.5-.2h8.9c.4,0,.7.3.7.7,0,0,0,0,0,0,0,.2,0,.4-.2.5-.1.1-.3.2-.5.2h-3.8v3.1c0,.7-.2,1.3-.6,1.8-.6.4-1.3.6-2,.5h0ZM136.6,84.6c.1-.2.4-.4.6-.4.4,0,.8-.2,1.1-.4.3-.4.4-.8.3-1.3,0-.4,0-.9-.3-1.2-.2-.4-.4-.8-.7-1.1-.2-.2-.3-.5-.5-.7,0-.2-.1-.4,0-.7,0-.3.2-.6.3-.9,0-.2.2-.4.3-.7.1-.3.2-.6.3-.8s.2-.5.3-.7c.1-.2.2-.5,0-.7,0-.1-.4-.2-.9-.2-.3,0-.5,0-.8.2-.1.2-.2.5-.2.7v9ZM143.3,81.1c-.2,0-.4,0-.5-.2-.1-.1-.2-.3-.2-.5,0-.4.3-.7.7-.7,0,0,0,0,0,0h4.4c.2,0,.4,0,.5.2.1.1.2.3.2.5,0,.2,0,.4-.2.5-.1.1-.3.2-.5.2h-4.4ZM140.8,88.3c-.2.1-.4.2-.6.2-.2,0-.4,0-.6-.3-.1-.2-.2-.4-.2-.6,0-.2.1-.4.3-.5.2-.2.4-.4.7-.6s.6-.5.9-.8c.3-.3.5-.5.7-.8.1-.2.3-.2.5-.3.2,0,.4,0,.5.2.2.1.3.3.3.5,0,.2,0,.4-.2.5-.3.4-.7.8-1.2,1.2-.4.4-.8.8-1.3,1.1ZM150,88.4c-.2-.2-.5-.4-.8-.7-.3-.3-.6-.6-.9-.9-.3-.3-.5-.6-.7-.9-.1-.1-.2-.3-.1-.5,0-.2.1-.4.3-.5.1-.1.3-.2.5-.2.2,0,.4,0,.5.2.2.2.4.5.7.7.3.3.6.6.8.8.3.3.5.5.8.6.2.1.3.3.3.5,0,.2,0,.4-.2.6-.1.2-.3.3-.5.3-.2,0-.4,0-.6-.2h0ZM165.7,89.4c-.2,0-.5,0-.6-.2-.2-.2-.2-.4-.3-.6,0-.2,0-.4.2-.6.2-.2.4-.3.6-.3.3,0,.6,0,.8-.2.2,0,.3-.2.4-.3,0-.2,0-.4,0-.6v-7.3h-2.4c-.8,0-1.5-.1-2.2-.5-.5-.5-.7-1.3-.6-2v-.9c0-.7.2-1.5.6-2,.6-.5,1.4-.7,2.2-.6h1.1c.8,0,1.5.1,2.2.6.5.6.7,1.3.6,2v11c0,.7-.2,1.4-.6,1.9-.6.4-1.4.6-2.1.6ZM154.3,89.5c-.2,0-.4,0-.6-.2-.2-.1-.2-.4-.2-.6v-12.8c0-.7.2-1.5.6-2,.6-.4,1.4-.6,2.2-.6h1c.8,0,1.5.1,2.2.6.5.6.7,1.3.6,2v.9c0,.7-.1,1.4-.6,2-.6.4-1.4.6-2.2.5h-2.3v9.4c0,.2,0,.4-.2.6-.2.1-.4.2-.6.2h0ZM162.7,89.2c-.2,0-.4,0-.5-.2-.1-.1-.2-.3-.2-.5v-3.7h-1.9c0,.9-.4,1.8-.9,2.5-.6.7-1.3,1.3-2.2,1.7-.2,0-.4.1-.6,0-.2,0-.4-.2-.5-.4,0-.2-.1-.3,0-.5,0-.2.2-.3.4-.4.6-.3,1.2-.7,1.7-1.2.4-.5.6-1.1.7-1.8h-2.1c-.2,0-.4,0-.5-.2-.1-.1-.2-.3-.2-.5,0-.2,0-.3.2-.5.1-.1.3-.2.5-.2h2.1v-1.7h-1.5c-.2,0-.3,0-.5-.2-.2-.2-.2-.6,0-.9.1-.1.3-.2.5-.2h7.7c.2,0,.3,0,.5.2.2.3.2.6,0,.9-.1.1-.3.2-.5.2h-1.5v1.7h2.1c.2,0,.4,0,.5.2.1.1.2.3.2.5,0,.2,0,.3-.2.5-.1.1-.3.2-.5.2h-2.1v3.7c0,.2,0,.4-.2.5-.1.1-.3.2-.5.2ZM164.7,78h2.2v-1h-3.7c0,.3.1.6.4.8.3.2.7.2,1.1.2ZM155.1,78h2.1c.4,0,.7,0,1.1-.2.2-.2.4-.5.3-.8h-3.5v1ZM163.3,75.7h3.6c0-.3-.1-.6-.4-.8-.3-.2-.7-.2-1.1-.2h-.8c-.4,0-.7,0-1.1.2-.2.2-.4.5-.4.8ZM160.1,83.4h1.8v-1.7h-1.8v1.7ZM155.1,75.7h3.5c0-.3-.1-.6-.4-.8-.3-.2-.7-.2-1.1-.2h-.7c-.4,0-.7,0-1.1.2-.2.2-.4.5-.4.8h0ZM172.1,88.9c-.2.1-.4.2-.6.2-.2,0-.4,0-.5-.3-.1-.1-.2-.3-.2-.5,0-.2,0-.4.3-.5,1.1-.8,2.1-1.8,2.9-3-.2-.1-.4-.3-.5-.4-.2-.1-.4-.2-.5-.3-.5-.2-.9-.6-1.1-1.1-.1-.5-.1-1,0-1.5.1-.5.2-1,.4-1.5.1-.5.2-1.1.4-1.6h-1.2c-.2,0-.4,0-.5-.2-.1-.1-.2-.3-.2-.5,0-.2,0-.4.2-.5.1-.1.3-.2.5-.2h1.5c.1-.6.2-1.2.3-1.8,0-.5.2-1,.2-1.4,0-.2.1-.4.3-.5.2-.1.4-.2.6-.1.2,0,.4.1.5.3.1.2.2.4.1.6,0,.4-.1.9-.2,1.4s-.2,1-.3,1.6h.8c.9-.1,1.8.5,2,1.4,0,.2,0,.4,0,.7,0,1-.2,1.9-.4,2.8-.2.8-.5,1.7-.8,2.4.3.3.7.5,1,.8s.6.5.9.8c.2.1.3.4.3.6,0,.2,0,.4-.3.6-.3.3-.8.3-1.1,0,0,0,0,0,0,0-.2-.2-.5-.5-.7-.7s-.5-.4-.8-.7c-.8,1.2-1.8,2.3-3,3.2ZM182.3,88.8c-.8,0-1.5,0-2.2-.3-.5-.2-.9-.5-1.1-1-.2-.7-.3-1.4-.3-2.1,0-.7,0-1.4.3-2.1.2-.5.6-.9,1.1-1,.7-.2,1.5-.3,2.2-.3.8,0,1.5,0,2.2.3.5.2.9.5,1.1,1,.2.7.3,1.4.3,2.1,0,.7,0,1.4-.3,2.1-.2.5-.6.9-1.1,1-.7.2-1.5.3-2.2.3ZM186.8,81.3c-.2.1-.4.1-.6,0-.2,0-.4-.2-.5-.4,0-.2-.2-.4-.3-.6-.1-.2-.2-.4-.4-.6-.4,0-.9.1-1.5.2-.6,0-1.2.2-1.9.2-.7,0-1.3.1-1.9.2-.6,0-1.1,0-1.5.1-.2,0-.5,0-.6-.2-.2-.1-.3-.3-.3-.5,0-.2,0-.4.2-.5.1-.2.4-.3.6-.3.3,0,.6,0,.9,0,.1-.3.3-.7.4-1.2s.3-.9.5-1.4c.2-.5.3-1,.5-1.4.1-.5.2-.8.3-1.2,0-.2.2-.4.4-.5.2-.1.4-.2.6,0,.4.1.7.5.6,1,0,0,0,0,0,0-.1.4-.3.9-.5,1.4-.2.6-.4,1.1-.6,1.7s-.4,1.1-.6,1.6l1.9-.2,1.7-.2c-.4-.6-.8-1.2-1.1-1.6-.1-.1-.2-.3-.1-.5,0-.2.2-.3.3-.4.2,0,.4-.1.6,0,.2,0,.4.1.5.3.2.2.4.5.6.9s.5.7.7,1.1.5.8.7,1.1.4.6.5.9c.1.2.2.4.1.6,0,.2-.2.4-.4.5ZM182.3,87.3c.4,0,.9,0,1.3-.1.3,0,.5-.3.6-.6.1-.4.2-.8.2-1.2,0-.4,0-.8-.2-1.2,0-.3-.3-.5-.6-.6-.4-.1-.9-.2-1.3-.2-.4,0-.9,0-1.3.2-.3,0-.5.3-.6.5-.1.4-.2.8-.2,1.2,0,.4,0,.8.2,1.2,0,.3.3.5.6.6.4.1.9.2,1.3.2ZM174.6,83.5c.3-.6.5-1.3.6-2,.1-.7.2-1.4.3-2.1,0-.3,0-.5-.2-.8-.2-.2-.5-.2-.7-.2h-.7c-.1.6-.3,1.2-.4,1.8-.1.6-.3,1.1-.4,1.5,0,.2,0,.5,0,.7.1.2.3.4.6.5.1,0,.3.2.4.3s.3.2.5.3h0ZM237.6,87.2c-2.2.6-4.4.7-6.7.3-1.5-.2-2.8-1.1-3.4-2.5-.2-.4,0-.9.5-1.1.2,0,.4,0,.6,0,.2,0,.4.2.4.5.2.5.6.9,1.1,1.1.6.3,1.2.5,1.9.6.8,0,1.6.1,2.5,0,.9,0,1.9-.3,2.8-.5.2,0,.4,0,.6,0,.4.2.5.7.3,1.1,0,0,0,0,0,0-.1.2-.3.3-.5.4ZM236.1,77.4c-.7-.2-1.3-.3-2-.4-.7,0-1.5-.1-2.2-.2-.7,0-1.4,0-2.1,0-.2,0-.4,0-.6-.2-.2-.1-.3-.3-.3-.5,0-.2,0-.4.2-.6.1-.2.3-.3.5-.3.6,0,1.2,0,1.7,0,.6,0,1.3,0,1.9,0,.6,0,1.3.1,1.8.2.5,0,1,.2,1.5.3.2,0,.4.2.5.4.1.2.2.4,0,.6,0,.2-.2.4-.4.5-.2.1-.4.1-.6,0h0ZM240.2,78c-.1.1-.3.2-.5.1-.2,0-.3-.1-.4-.3-.2-.2-.3-.4-.5-.7-.2-.2-.4-.4-.6-.6-.1-.1-.2-.2-.2-.4,0-.2,0-.3.2-.4.1-.1.3-.2.4-.2.2,0,.3,0,.4.2.2.1.4.3.6.6.2.2.4.5.6.7.1.1.2.3.1.5,0,.2-.1.3-.2.4ZM241.7,76.6c-.3.2-.7.2-.9,0,0,0,0,0,0,0-.2-.2-.4-.4-.5-.6-.2-.2-.4-.4-.6-.6-.2-.2-.2-.6,0-.8.1-.1.3-.2.4-.2.2,0,.3,0,.4.2.2.1.4.3.6.6.3.2.5.5.6.6.1.1.2.3.2.5,0,.2,0,.3-.2.5ZM242.7,89.2c-.2-.1-.3-.3-.4-.5,0-.2,0-.4,0-.6.4-.6.8-1.3,1-2,.3-.8.5-1.6.6-2.5.1-1.1.2-2.1.2-3.2v-1.1c0-.6,0-1.3.3-1.9.2-.4.6-.8,1.1-.9.6-.2,1.3-.3,1.9-.3h3.5c0-.4,0-.9,0-1.4,0-.5,0-.9,0-1.4,0-.2,0-.4.2-.6.2-.1.4-.2.6-.2.2,0,.4,0,.6.2.2.2.3.4.2.6,0,.5,0,1,0,1.4s0,.9,0,1.4h5.3c.2,0,.4,0,.6.2.1.1.2.3.2.5,0,.4-.3.8-.7.8,0,0,0,0,0,0h-5.2c.1,1,.3,1.9.5,2.9.2.8.4,1.6.7,2.4.7-1.1,1.3-2.2,1.7-3.5,0-.2.2-.4.4-.5.2,0,.4-.1.6,0,.2,0,.4.2.5.4.1.2.1.4,0,.6-.3.9-.7,1.7-1.1,2.5-.4.8-.9,1.5-1.4,2.2.5,1,1.1,1.8,2,2.5.1.1.3.2.5.2.1,0,.2-.2.3-.4,0-.1.1-.3.2-.6.1-.3.2-.5.3-.8,0-.2.2-.4.4-.5.2,0,.4-.1.6,0,.2,0,.4.2.5.4,0,.2.1.4,0,.6,0,.3-.2.6-.3.9s-.2.6-.3.9c-.3.9-.8,1.3-1.4,1.4-.7,0-1.4-.3-1.9-.8-.4-.3-.7-.7-1-1.1-.4-.4-.7-.9-.9-1.4-1.1,1.1-2.3,2.1-3.7,2.8-.2.1-.4.1-.6,0-.2,0-.4-.2-.5-.4-.2-.4-.1-.8.2-1,0,0,0,0,0,0,.7-.4,1.4-.8,2-1.3.6-.5,1.2-1.1,1.7-1.7-.4-1-.8-2-1-3.1-.3-1.2-.5-2.5-.7-3.8h-3.6c-.5,0-.9,0-1.3.3-.3.4-.4.8-.4,1.3v.5h1.9c.6,0,1.3.1,1.8.5.4.5.6,1.1.5,1.7,0,.9-.1,1.8-.3,2.8,0,.7-.4,1.3-.9,1.8-.6.3-1.3.5-2,.5-.2,0-.4,0-.6-.2-.2-.1-.3-.3-.3-.5,0-.2,0-.4.2-.6.1-.2.3-.3.6-.3.3,0,.6,0,1-.1.2,0,.3-.2.4-.3.1-.2.2-.5.2-.7,0-.3.1-.6.1-.9,0-.3,0-.7,0-1,0-.3,0-.6-.2-.8-.3-.2-.6-.2-.9-.2h-1.5c0,1,0,2-.3,3.1-.1.8-.3,1.6-.6,2.4-.3.7-.6,1.4-1.1,2.1-.1.2-.3.3-.5.4-.2,0-.5,0-.7,0h0ZM256,75.9c-.2-.2-.5-.5-.8-.8-.3-.3-.6-.5-.8-.7-.2-.1-.2-.3-.2-.5,0-.2,0-.4.2-.5.1-.2.3-.3.5-.3.2,0,.4,0,.6.2.2.2.5.4.9.7.3.3.6.6.8.8.2.1.3.3.2.6,0,.2,0,.4-.2.5-.1.1-.3.2-.5.2-.2,0-.4,0-.6-.2h0ZM261,88.9c-.2-.1-.2-.3-.2-.5,0-.2,0-.4.2-.5,1.1-.9,2-1.9,2.7-3.1-.2,0-.3-.2-.4-.3-.1,0-.3-.2-.4-.3-.4-.2-.7-.5-1-.8-.2-.2-.3-.6-.4-.9,0-.4,0-.8.1-1.3,0-.4.2-.9.3-1.4s.2-1,.3-1.5h-1.1c-.2,0-.4,0-.5-.2-.1-.1-.2-.3-.2-.5,0-.2,0-.4.2-.5.1-.1.3-.2.5-.2h1.4c.1-.6.2-1.2.3-1.8,0-.6.2-1.1.2-1.5,0-.2.1-.4.3-.5.2-.1.4-.2.6-.1.2,0,.4.1.5.3.1.2.2.4.2.6,0,.4-.2.9-.3,1.5,0,.5-.2,1.1-.3,1.7h.3c.7,0,1.4.1,1.9.5.4.5.6,1.2.5,1.9,0,.9-.2,1.7-.4,2.6-.2.8-.4,1.5-.7,2.2.3.2.6.4.9.6.3.2.5.4.7.6.2.1.3.3.3.6,0,.4-.3.8-.8.8,0,0,0,0,0,0-.2,0-.4,0-.6-.2-.2-.2-.4-.3-.6-.5l-.6-.5c-.4.6-.8,1.2-1.2,1.7-.5.5-1,1.1-1.5,1.5-.2.1-.4.2-.6.2-.2,0-.4,0-.6-.2h0ZM267.8,81.7c-.2,0-.4,0-.6,0-.2-.1-.3-.3-.3-.5,0-.2,0-.4.1-.5.1-.2.3-.2.5-.3.1,0,.3,0,.5,0v-3.6c0-.5,0-1,.2-1.4.2-.4.5-.6.8-.8.5-.2,1.1-.3,1.6-.4.4,0,.9-.1,1.5-.2s1.1-.2,1.6-.3c.5-.1,1-.2,1.5-.3.5-.1.8,0,.9.4,0,.2,0,.4,0,.5,0,.2-.2.3-.4.3-.4,0-.8.2-1.3.3s-.9.2-1.3.2c0,.3,0,.6.1.9s0,.6.1.9h3c.2,0,.3,0,.4.2.1.1.2.3.2.5,0,.4-.3.6-.6.6h-2.7c.3.8.7,1.6,1.2,2.2.1.2.3.3.4.3s.2-.1.3-.4c0-.2.1-.3.2-.4,0-.1.1-.3.2-.4,0-.2.2-.3.4-.4.2,0,.4,0,.6,0,.3.2.5.5.3.9,0,0,0,0,0,0,0,.2-.2.5-.3.8-.1.3-.3.5-.4.7-.2.5-.6.8-1.1.9-.5,0-1-.2-1.3-.7-.4-.5-.8-1-1.1-1.6-.3-.6-.6-1.3-.8-2h-2.7v1.9c.4,0,.7-.1,1.1-.2.4,0,.7-.1.9-.2.3,0,.4,0,.4,0,.2,0,.4,0,.5,0,.1.1.2.3.3.4,0,.2,0,.4,0,.5-.1.2-.3.3-.4.3h-.5c-.3.2-.7.2-1.1.3s-.8.2-1.2.2-.8.1-1.1.2c-.3,0-.5,0-.6.1h0ZM271.4,89.2c-.8,0-1.7-.1-2.4-.6-.5-.6-.8-1.3-.7-2.1v-1.7c0-.8.2-1.5.7-2.1.7-.5,1.6-.7,2.4-.6h1.3c.8,0,1.7.1,2.4.6.5.6.8,1.3.7,2.1v1.7c0,.8-.2,1.5-.7,2.1-.7.5-1.6.7-2.4.6h-1.3ZM264.4,83.4c.2-.6.4-1.3.6-1.9.1-.7.2-1.4.3-2.1,0-.4,0-.7-.2-.8-.3-.2-.6-.2-.9-.2h-.4c-.1.6-.2,1.1-.4,1.7s-.2,1-.3,1.4c0,.3-.1.6,0,.9.1.3.4.5.7.6l.4.2c.1,0,.3.2.4.3ZM271.4,87.8h1.3c.4,0,.9,0,1.3-.3.3-.3.4-.7.3-1.1v-.2h-4.5v.2c0,.4,0,.8.3,1.1.4.2.8.3,1.3.3h0ZM269.8,84.9h4.5v-.2c0-.4,0-.8-.3-1.1-.4-.2-.8-.3-1.3-.3h-1.3c-.4,0-.9,0-1.3.3-.3.3-.4.7-.3,1.1v.2ZM269.6,76.7h2.4c0-.5-.2-1.1-.2-1.6-.1,0-.3,0-.4,0-.1,0-.3,0-.4,0-.4,0-.8.1-1.1.3-.2.3-.3.6-.3,1h0Z"/>
        <g id="_グループ_4712" data-name="グループ_4712">
          <g class="cls-7">
            <g id="_グループ_622" data-name="グループ_622">
              <path id="_パス_881" data-name="パス_881" d="M121,28.3c0-2.8,1.2-5.5,3.2-7.6l2.4,1.4c-1.9,1.5-2.9,3.9-2.9,6.3,0,3.8,3,6.8,7.4,6.8,4.8,0,8.7-3.9,8.9-8.7,0-7.4-11.6-7.6-11.4-16.6,0-4.7,4.5-9.7,10.6-9.7s9.8,5.8,7.2,11.9h-2.8c2.4-5.5-.4-9.5-4.7-9.5-4,0-7.3,3.1-7.6,7.1-.2,7.8,11.4,7.9,11.4,16.8-.2,6.3-5.4,11.3-11.8,11.3-6,0-9.9-3.9-9.9-9.3"/>
              <path id="_パス_882" data-name="パス_882" d="M160.5,22.4v2.8c-1.8,4-5.4,8.1-8.7,8.1-6.2,0-4.4-8-1.5-16.2h-2.8l.8-2.3h2.8c.9-2.5,1.8-4.9,2.6-7.1h2.6c-1,2.5-1.9,4.9-2.6,7.1h4.4l-.8,2.3h-4.5c-3,8.7-3.8,13.7-.8,13.7s5.7-3.7,8.5-8.5"/>
              <path id="_パス_883" data-name="パス_883" d="M177.6,22.3v2.9c-1.8,4.4-5.8,8.1-11.7,8.1-4.9,0-7.6-3.2-7.6-7,0-6.3,4-11.9,9.1-11.9,2.6-.1,4.8,1.9,5,4.5,0,.1,0,.2,0,.4,0,5.3-5.3,8.5-11.5,7.2.2,2.5,1.8,4.5,5.5,4.5s8.5-3.9,11.2-8.6M161.1,24.2c4.2,1.2,8.7-1,8.7-4.8,0-1.4-.9-2.5-2.3-2.6,0,0,0,0-.1,0-3.2,0-5.7,3.5-6.3,7.4"/>
              <path id="_パス_884" data-name="パス_884" d="M169.2,45.5c3.4-10,6.8-20.8,10.2-30.7h2.5l-1.7,4.3c.9-1.7,3.6-4.7,7-4.7s4.6,2.4,4.6,6c0,5.5-4,12.9-9.8,12.9-2.1,0-4.1-.8-5.4-2.4-1.3,3.7-3,9-4.6,14.6h-2.7ZM189.2,20.4c0-2.1-1-3.6-2.7-3.6-2.7,0-6.4,3.2-9.1,11.5.8,1.6,2.1,2.6,4.5,2.6,4.1,0,7.2-5.5,7.2-10.5"/>
              <path id="_パス_885" data-name="パス_885" d="M201.1,26.5c0-11.3,8.3-26.2,17.9-26.2s8.5,3.9,8.5,11.6c0,11.4-8,25.8-17.8,25.8s-8.7-3.7-8.7-11.2M224.8,12.1c0-5.8-2.3-9.3-6.1-9.3-7.5,0-14.8,13.8-14.8,23.5s2.1,8.9,6.1,8.9c7.7,0,14.8-13.5,14.8-23"/>
              <path id="_パス_886" data-name="パス_886" d="M242.4,18.3c4,1.3,6.7,5,6.7,9.1,0,5.7-4.5,10.2-11.5,10.2s-9.9-3.2-11.1-8.3l2.6-1.2c.7,4.2,4.4,7.2,8.6,7,5.3,0,8.7-3.2,8.7-7.9s-3.6-7.7-9.4-8.2l.7-2.3c5.9.6,12.9-2.2,12.9-8.6s-2.3-5.8-5.9-5.8-6.3,2.4-8.1,5.6l-2.2-1.3C236.5,2.7,240.6,0,245.1,0c4.3-.2,7.9,3.1,8.2,7.4,0,.2,0,.3,0,.5,0,6.5-5.8,10-10.9,10.4"/>
            </g>
          </g>
        </g>
        <g id="_グループ_4713" data-name="グループ_4713">
          <g class="cls-6">
            <g id="_グループ_627" data-name="グループ_627">
              <path id="_パス_887" data-name="パス_887" class="cls-4" d="M194.7,83.6h.3s0,.2,0,.3c.2,0,.3.2.5.2,0-.3,0-.2-.3-.3v-.3s-.1-.1-.2-.2h0v-.2c0,0,0,0,0,0h0c0-.1,0-.1,0-.1,0,0,0-.1,0-.2h.3s0,0,0-.1c-.4,0-.3-.1-.6-.2,0-.2,0-.3,0-.4h.1c0-.1,0-.2,0-.3h0c0-.1,0-.2,0-.3h0c0-.1,0-.2,0-.3-.2-.1-.3-.3-.3-.5h.3c0-.1,0-.2,0-.2h.3c0-.1-.3,0-.3,0h0c0,0,0,0,0,0h0c0,0,0,0,0,0,0,0,0-.1,0-.2h.3c0-.2,0-.3,0-.3h0c0,0,0-.2,0-.2v-.5c-.1,0-.4.1-.4.1,0,0,0-.2,0-.3h-.1c0,0,.3-.2.3-.2,0-.2,0-.4,0-.6h.2c0-.1-.3,0-.3,0v-.3h.2c0-.2-.1-.1-.2-.4h.5s0,0,0,0h.5s.1.2.1.2h1.2s0,0,0,0h.8c0-.1,1.1,0,1.1,0,0,0,0-.1,0-.2.3,0,.5.3.8.2h0c0,0,.3-.1.3-.1h0c0,0,0,0,0,0v.2c.3,0,1-.2,1.1-.2h0c0,0,0,0,0,0h0c0,0,2.4,0,2.4,0v.2h.2c0,0,.7-.1.7-.1v.2c.1,0,.6-.1.6-.1h0c0,0,.2,0,.2,0h0c.1.1.2,0,.4,0h0c.7,0,1.4-.2,2.1-.2h0c0,0,.3,0,.3,0h0c0,0,.7,0,.7,0h0c0,0,.5,0,.5,0h0c0,0,.6,0,.6,0h0c0,0,0,0,0,0h0c0,0,.8,0,.8,0h0c0,0,.3,0,.3,0h0c.2-.3,0,0,0-.4h.1c0-.2,0-.3,0-.5h.1c0-.7,0-1.4-.3-2.1,0-.4,0-.8,0-1.1h.1l.2-.3h.2c0-.2-.1-.3,0-.5.3,0,.6,0,.8,0v.3c.1,0,.3,0,.3,0h0c0,0,.1,0,.1,0,.2.4.2-.3.7-.2v.3c.3,0,.4,0,.6.3h.1v.3c0,0,.3,0,.3,0v.4c.5.1.3,0,.2.4h.1c0,.1,0,.3,0,.4h.5s0,0,0,0h.1v.2c0,.1,0,0,0,0h-.1c0,0,.1,0,.1,0v.4c.3,0,.4-.3.5-.2h.1v.2c0,0,0,0,0,0,0,0,0,.1,0,.2.2,0,0,0,.2,0h.1c0,0-.2.1-.2.1,0,.1,0,.2,0,.3h.3c0,0,0,.2,0,.3h.3c0,0,.8.3.8.4,0,0,0,.2,0,.2.1.3.3.4.4.6h.1c0,0,0,.2,0,.3h-.3c0,.1-.1.1-.1.1h0c.3.2.6.2.8.2.2.2.3.5.4.8.2,0,0,0,.2,0h.1c0,.2,0,.3,0,.5h.1c0,0,0,.1,0,.2h.1v.4c0,.3.3.4.6.5,0,.3,0,.7-.3.9h-.2c0,.3,0,.4,0,.5,0,0-.4,0-.4.1v.4c.1,0,0,0,0,0h0c0,.1-.3.1-.3.1,0,.3,0,.4,0,.5h-.1c0,0,0,.1,0,.2h-.2c0,.2,0,.3,0,.4-.1,0-.9,0-1,0,0,.1,0,.2,0,.3h-.1c-.2.3.2-.2,0,.2-.4.2-.7.5-1.1.8h-.1c0,.1,0,.2,0,.3-.1,0-.3.1-.4.2h0c0,.1-.3,0-.3,0,0,.4,0,.4-.2.6h-.5c0,.3,0,.4,0,.5-.4.1-.2.3-.7.3-.1.5-.3.3-.5.5v.2c.1,0-.2.1-.2.1v.2c.1,0,0,0,0,0h0c0,.1-.4,0-.4,0v.3c-.2,0-.4.1-.5.2h0c0,.1-.4.1-.4.1h0c0,.1-.2.1-.2.1h0c0,.1-.1.1-.1.1h0c-.2,0,0,0-.1,0,0-.1,0-.2,0-.3-.3,0-.5-.3-.5-.6h.1c0-.1-.1-.1-.1-.1,0,0,0-.1,0-.2h-.4c0-.2,0-.4,0-.7h.2c0-.1,0-.3-.1-.4h.1c0,0,0-.1,0-.2h.2c0-.3,0-.5,0-.7h-.3c0-.2,0-.5,0-.7h.2c0-.4-.2-.2-.2-.6l-1.1.2h0c-.1,0-.6-.1-.8-.1h0c0-.1-.6,0-.6,0h0c-.3-.1-.2,0-.3.1h-.7c0,0-1.6.1-1.6.1h0c-.2-.1-.3,0-.4.1h0c0,.1-.5.1-.5.1h0c-.1-.1-.2,0-.4,0h0c0-.1-.4,0-.4,0h0c0-.1-.3,0-.3,0h0c0-.1-.4.1-.6,0h0c0-.1-.1-.1-.1-.1,0-.1,0-.2,0-.3h-.1c0,.1-.1.3-.1.4h-1.3c0-.1-.6-.2-.6-.2h0c-.1-.1-.2,0-.3,0h-.8c0-.1,0-.2,0-.3-.2,0-.2.1-.2.1-.2,0-.3-.1-.4,0h0c-.3.1-.5,0-.6-.3h-.2c0,.1,0,.1,0,.1,0,0,.1.2.2.2-.2.2-.5.3-.7.1h0c0-.1-.5,0-.5,0v-.2c-.3,0,0,0-.2.1h-.3c0,.1-.4,0-.4,0,0,0,0,.1,0,.2h-.2c0,0,0,.1,0,.2-.2,0-.5,0-.7,0,0-.2,0-.3,0-.5-.2,0-.5,0-.7.1l-.3-.6h-.2c0,0,0-.2,0-.3h-.1c0-.2,0-.3,0-.5M220.2,81c0,.1,0,.2,0,.3.3-.1.2,0,.5,0,0,0,0-.1,0-.2-.5,0-.3,0-.5-.3v.2c0,0,0,0,0,0M215.4,80.8h.2c0,0,0-.1,0-.2h-.2c0,0,0,.1,0,.2M213.9,88.2s0,0,.2-.2c0,0-.3.1-.2.2M211.9,85.2h.2c0-.2,0,0-.1-.2,0,0-.4,0-.4-.1h-.1c0,.1.4.2.4.3M211.1,78.9c-.2,0,0,0-.2.1.2,0,0,0,.2-.1M208.7,81.5h.1c0-.1.1-.1.1-.1h0c0-.1-.2,0-.2,0,0,0,0,.1,0,.2M208.6,78.6h0c0,0-.3,0-.3,0v.3c0,0,.2,0,.2,0,0-.2,0,0,0-.2M208.2,81.6h0c.2,0,.4,0,.4-.2,0-.1,0,0-.1-.1h-.3c0,.1-.1.1-.1.1,0,.2,0,0,.1.2M207.6,81.8h.2c-.2-.2,0,0-.2-.2h-.1s.1.2.1.2M206.5,81.9h.9c-.2-.3-.6-.2-.9-.2,0,0,0,.1,0,.2M206.1,81.8c-.2,0,0,0-.2.1.2,0,0,0,.2-.1M205.8,83.2h.1c0,.1.1,0,.1,0,0-.1,0-.2,0-.3h-.2v.2M205.6,81.8c-.2,0,0,0-.2.1.2,0,0,0,.2-.1M202.2,77.9h-.3s0,.1,0,.2c.2,0,0,0,.2-.1h0M203.4,81.5h.1c0,.1.1.1.1.1,0-.1,0-.2,0-.3h.1c0-.1-.1-.1-.1-.1h0c0-.1-.1-.1-.1-.1,0,.1,0,.2,0,.3h-.1M202.8,78.1h.2c0,0,0-.2,0-.2h-.2c0,0,0,.1,0,.2M202.2,82c0-.1,0-.2,0-.3.2,0,0,0,.2-.1h0c0-.2-.1-.2-.2-.4h-.2c0,.3,0,.4-.2.5,0,.3,0,.2.3.3M201.7,77.7h.2c0,0,0-.1,0-.2h-.2c0,0,0,.1,0,.2M201.3,81.8h0c0,.1,0,.1,0,.1,0,0,0-.1,0-.2-.2,0,0,0-.2.1h0M200.7,78h-.3c0,.1.3.2.3.2,0,0,0-.1,0-.2M200.5,84.7h0c0-.1,0-.1,0-.1,0,0,0-.1-.1-.2-.1.1-.3.1,0,.3M200.1,81.6h.3s0,0,0-.1h-.3M199.6,81.6c.2,0,.3,0,.3-.1h-.3M198.6,81.5h0c0,0,0-.1,0-.2h0c0,0,0,.1,0,.2M197.7,78.4c.2,0,0,0,.2-.1h0v-.3c-.1,0-.3,0-.3,0v.4M196.8,78.7h0c0,0,0,0,0,0,0,0,0-.2,0-.3h.2c0,0,0-.1,0-.2h-.5s0,.2,0,.3h-.2s.1.3.1.3h.3M196.6,82.7h0c0-.1-.1-.1-.1-.1h0c0-.1-.1,0-.1,0,0,.1,0,.2,0,.3.2,0,0,0,.2-.1M195.5,83h-.1s0,0,0,0h-.2v.2c0,0,.4,0,.3-.1M195.7,83.4h-.1c0-.1-.1-.1-.1-.1,0,0,0,.1,0,.2.2,0,0,0,.2-.1"/>
            </g>
          </g>
        </g>
      </g>
    </g>
  </g>
</svg>