<?xml version="1.0" encoding="utf-8"?>
<!-- Generator: Adobe Illustrator 28.1.0, SVG Export Plug-In . SVG Version: 6.00 Build 0)  -->
<svg version="1.1" id="レイヤー_1" xmlns="http://www.w3.org/2000/svg" xmlns:xlink="http://www.w3.org/1999/xlink" x="0px"
	 y="0px" viewBox="0 0 600 150" style="enable-background:new 0 0 600 150;" xml:space="preserve">
<style type="text/css">
	.st0{clip-path:url(#SVGID_00000036251152049118509930000005415997305525654437_);}
	.st1{fill:none;stroke:#EE7A7A;stroke-linecap:round;stroke-linejoin:round;}
</style>
<g id="グループ_4703" transform="translate(-150 -7162.797)">
	<g id="グループ_4693" transform="translate(150 7162.797)">
		<g>
			<defs>
				<rect id="SVGID_1_" width="600" height="150"/>
			</defs>
			<clipPath id="SVGID_00000028289308179017630640000012756959327515063707_">
				<use xlink:href="#SVGID_1_"  style="overflow:visible;"/>
			</clipPath>
			<g id="グループ_4692" style="clip-path:url(#SVGID_00000028289308179017630640000012756959327515063707_);">
				<path id="パス_9300" class="st1" d="M4.9,137.6h590.6v0c-3.6-40.8-3.6-83.3,0-124.1v0H4.9v0C8.4,54.2,8.4,96.7,4.9,137.6"/>
				<path id="パス_9301" class="st1" d="M599,140.2c1.1,2.9,0.9,5.7,0.2,7.6s-1.7,2.3-2.8-0.6c-1.1-2.9-1.1-9.9-1.1-9.9
					S597.9,137.3,599,140.2z"/>
				<path id="パス_9302" class="st1" d="M1,9.8C0,6.9,0.1,4.2,0.8,2.2s1.7-2.3,2.8,0.6s1.1,9.9,1.1,9.9S2.1,12.7,1,9.8z"/>
				<path id="パス_9303" class="st1" d="M1,140.2c-1.1,2.9-0.9,5.7-0.2,7.6s1.7,2.3,2.8-0.6s1.1-9.9,1.1-9.9S2.1,137.3,1,140.2z"
					/>
				<path id="パス_9304" class="st1" d="M599,9.8c1.1-2.9,0.9-5.7,0.2-7.6s-1.7-2.3-2.8,0.6c-1.1,2.9-1.1,9.9-1.1,9.9
					S597.9,12.7,599,9.8z"/>
				<line id="線_6" class="st1" x1="21.8" y1="124.5" x2="578.2" y2="124.5"/>
				<line id="線_7" class="st1" x1="21.8" y1="25.5" x2="578.2" y2="25.5"/>
			</g>
		</g>
	</g>
</g>
</svg>
