<svg xmlns="http://www.w3.org/2000/svg" xmlns:xlink="http://www.w3.org/1999/xlink" width="177" height="177" viewBox="0 0 177 177">
  <defs>
    <clipPath id="clip-path">
      <circle id="楕円形_7" data-name="楕円形 7" cx="88.5" cy="88.5" r="88.5" transform="translate(1084 5817.135)" fill="#fff" stroke="#707070" stroke-width="1"/>
    </clipPath>
    <clipPath id="clip-path-2">
      <rect id="長方形_1057" data-name="長方形 1057" width="230.12" height="306.724" fill="none"/>
    </clipPath>
  </defs>
  <g id="マスクグループ_50" data-name="マスクグループ 50" transform="translate(-1084 -5817.135)" clip-path="url(#clip-path)">
    <g id="グループ_4725" data-name="グループ 4725" transform="translate(1057 5765.272)">
      <rect id="長方形_1056" data-name="長方形 1056" width="230.12" height="306.724" fill="#ffd7cf"/>
      <g id="グループ_4724" data-name="グループ 4724">
        <g id="グループ_4723" data-name="グループ 4723" clip-path="url(#clip-path-2)">
          <path id="パス_9778" data-name="パス 9778" d="M298.705,965.8s.066,2.434-1.209,2.908.98-.311,1.242,2.074-.335-1.043,1.012-1.666-1.012.375-1.045-3.316" transform="translate(-247.311 -803.928)" fill="#fff" fill-rule="evenodd"/>
          <path id="パス_9779" data-name="パス 9779" d="M258.463,891.495s.18,6.7-3.326,8,2.7-.854,3.415,5.707-.92-2.868,2.786-4.583-2.786,1.033-2.875-9.122" transform="translate(-211.487 -742.073)" fill="#fff" fill-rule="evenodd"/>
          <path id="パス_9780" data-name="パス 9780" d="M430.556,368.208s.168,6.253-3.105,7.47,2.518-.8,3.189,5.33-.859-2.679,2.6-4.281-2.6.965-2.686-8.519" transform="translate(-354.977 -306.493)" fill="#fff" fill-rule="evenodd"/>
          <path id="パス_9781" data-name="パス 9781" d="M985.224,595.142s.112,4.168-2.071,4.98,1.679-.531,2.127,3.553-.573-1.786,1.734-2.854-1.734.643-1.79-5.679" transform="translate(-817.816 -495.391)" fill="#fff" fill-rule="evenodd"/>
          <path id="パス_9782" data-name="パス 9782" d="M1005.315,628.938s.153,5.68-2.821,6.785,2.287-.724,2.9,4.842-.781-2.433,2.363-3.889-2.363.877-2.44-7.738" transform="translate(-833.715 -523.523)" fill="#fff" fill-rule="evenodd"/>
          <path id="パス_9783" data-name="パス 9783" d="M409.919,626.2s-37.352-22.411-41.225-25.731-9.639-11.9-8.785-15.2-.092-2.825,3.2-7.132,8.706-6.917,4.518-15.258-3.211-11.812-1.838-15.535,5.209-10.4,9.383-17.236.648-12.434,4.555-22.154,6.828-13.264,10.856-16.014,7.423-6.284,14.072-5.459,6.162,2.774,8.614,1.707,7.2-3.343,13.959-.176,12.823,8.678,15.421,15.44,3.651,9.582,4.005,13.869-.088,10.616,4.415,15.824,7.747,14.6,7.987,16.755a24.88,24.88,0,0,1-2.777,13.6c-3.06,5.838-.229,8.01,1.932,10.81s6.36,7.078,6.086,10.4-.148,5.24-4.714,10.359S409.919,626.2,409.919,626.2" transform="translate(-299.515 -404.844)" fill="#4a3e3e" fill-rule="evenodd"/>
          <path id="パス_9784" data-name="パス 9784" d="M291.679,1101.05s-35.9-7.5-53.018.054-14.737,5.426-20.217,20.186-4.183,24.063-4.183,24.063c8.4,0,17.337.472,25.654,1.038a796.494,796.494,0,0,0,101.715,0c8.267-.488,16.8-1.038,25.073-1.038,0,0-1.362-16.985-4.39-24.755s-.773-13.81-18.472-19.1-30.789-10.586-52.161-.448" transform="translate(-178.238 -911.717)" fill="#fff" fill-rule="evenodd"/>
          <path id="パス_9785" data-name="パス 9785" d="M480.147,682.661s15.345-5.437,21.5-10.735l6.152-5.3s-13.7-4-16.754-5.6-6.921-2.518-8.174-8.132a112.306,112.306,0,0,1-1.8-13.644s4.744-5.644,6.153-9.084.9-3.211,4.154-4.491c1.562-.614,4.654-5.337,3.754-3.974-1.019,1.544-2.469-1.51-3.976-6.411l-4.612-14.993s-4.27-.674-6.91-7.8-5.237-10.222-6.359-12.286-3.51-2.741-7-3.038-4.482-.82-6.758,1.958-6.272,7.915-7.907,14.033a9.819,9.819,0,0,1-8.048,7.35c-.971.09-1.609,12.008-3.123,12.008,0,0-3.829,9.733-3.6,9.916,2.019,1.636,4.146,2.073,5.231,5.039s2.475,6.621,4.734,8.9,2.768,3.232,2.609,6.97-.518,9.138-2.433,11.739-5.614,6.041-13.479,8.51-10.8,1.791-8.38,3.79,14.773,12.311,26.671,14.488,12.965,3.254,28.361.792" transform="translate(-353.176 -480.228)" fill="#faeae0" fill-rule="evenodd"/>
          <path id="パス_9786" data-name="パス 9786" d="M574.473,804.751c3.067,0,5.568-1.528,5.568-3.4s-2.5-3.4-5.568-3.4-5.568,1.529-5.568,3.4,2.5,3.4,5.568,3.4" transform="translate(-473.552 -664.204)" fill="#f7c9c9" fill-rule="evenodd"/>
          <path id="パス_9787" data-name="パス 9787" d="M723.038,804.751c3.067,0,5.568-1.528,5.568-3.4s-2.5-3.4-5.568-3.4-5.568,1.529-5.568,3.4,2.5,3.4,5.568,3.4" transform="translate(-597.216 -664.204)" fill="#f7c9c9" fill-rule="evenodd"/>
          <path id="パス_9788" data-name="パス 9788" d="M675.982,798.747a6.283,6.283,0,0,1,2.18,3.9c0,1.643-.785,2.974-1.754,2.974s-1.234-1.228-1.234-2.871.462-4.108.809-4.006" transform="translate(-562.008 -664.867)" fill="#f7c9c9" fill-rule="evenodd"/>
          <path id="パス_9789" data-name="パス 9789" d="M651.725,899.132c2.692,0,4.887-.745,4.887-1.659s-2.2-1.659-4.887-1.659-4.888.745-4.888,1.659,2.2,1.659,4.888,1.659" transform="translate(-538.422 -745.668)" fill="#f7c9c9" fill-rule="evenodd"/>
          <path id="パス_9790" data-name="パス 9790" d="M547.956,877.154c-4.595,0-10.333-2.839-15.44-7.653-5.63-5.307-9.079-11.668-9.228-17.017a.613.613,0,0,1,.6-.63.621.621,0,0,1,.63.6c.14,5.03,3.446,11.07,8.843,16.159,4.928,4.645,10.631,7.454,14.9,7.315,11.3-.44,22.124-16.041,22.872-23.818a.613.613,0,1,1,1.221.117c-.782,8.137-12.156,24.463-24.05,24.926-.113,0-.227,0-.341,0" transform="translate(-435.58 -708.823)" fill="#2e2020"/>
          <path id="パス_9791" data-name="パス 9791" d="M574.477,767.885a.613.613,0,0,1-.194-1.2c2.571-.858,5.523-1.539,7.927-.1a.613.613,0,1,1-.631,1.052c-1.98-1.187-4.6-.561-6.908.207a.606.606,0,0,1-.194.032" transform="translate(-477.679 -637.408)" fill="#2e2020"/>
          <path id="パス_9792" data-name="パス 9792" d="M589.889,775.969a2.286,2.286,0,0,1,2.007-2.508,2.253,2.253,0,0,1,2.174,2.341,2.286,2.286,0,0,1-2.006,2.508,2.367,2.367,0,0,1-2.174-2.341" transform="translate(-491.018 -643.822)" fill="#2e2020" fill-rule="evenodd"/>
          <path id="パス_9793" data-name="パス 9793" d="M677.439,780.737a.613.613,0,0,1-.294-1.152c1.851-1.01,1.449-2.168.578-4.128a10.118,10.118,0,0,1-.735-2.026c0-.02-.007-.04-.009-.06a13.685,13.685,0,0,1,.314-4.433.614.614,0,0,1,1.2.266,12.334,12.334,0,0,0-.294,4.014,9.3,9.3,0,0,0,.647,1.74c.769,1.731,1.822,4.1-1.112,5.7a.605.605,0,0,1-.293.075" transform="translate(-563.383 -639.658)" fill="#2e2020"/>
          <path id="パス_9794" data-name="パス 9794" d="M816.525,824.283a.614.614,0,0,1-.56-.863,8.681,8.681,0,0,0,.338-.921,2.73,2.73,0,0,1,1.715-2.037.613.613,0,1,1,.5,1.121c-.736.328-.82.59-1.045,1.291a9.906,9.906,0,0,1-.385,1.044.614.614,0,0,1-.561.364" transform="translate(-679.158 -682.902)" fill="#2e2020"/>
          <path id="パス_9795" data-name="パス 9795" d="M731.819,769.424a.608.608,0,0,1-.227-.044c-1.971-.788-4.763-1.462-6.875-.2a.613.613,0,1,1-.631-1.052c2.042-1.225,4.721-1.188,7.961.108a.613.613,0,0,1-.228,1.183" transform="translate(-602.474 -638.645)" fill="#2e2020"/>
          <path id="パス_9796" data-name="パス 9796" d="M734.377,776.855a2.29,2.29,0,0,1,2.01-2.512,2.257,2.257,0,0,1,2.177,2.345,2.29,2.29,0,0,1-2.009,2.512,2.257,2.257,0,0,1-2.178-2.345" transform="translate(-611.289 -644.556)" fill="#2e2020" fill-rule="evenodd"/>
          <path id="パス_9797" data-name="パス 9797" d="M517.576,598.234a.614.614,0,0,1,0-1.227c6.505,0,8.943-3.5,10.609-7.283.422-.959.833-1.979,1.268-3.058,1.592-3.952,3.4-8.431,6.542-11.676a7.387,7.387,0,0,1,6.367-1.758.613.613,0,1,1-.256,1.2,6.251,6.251,0,0,0-5.231,1.412c-2.98,3.072-4.736,7.432-6.285,11.28-.438,1.089-.852,2.117-1.282,3.094-1.746,3.964-4.505,8.016-11.732,8.016" transform="translate(-430.315 -477.038)" fill="#2e2020"/>
          <path id="パス_9798" data-name="パス 9798" d="M499.432,847.583a.619.619,0,0,1-.167-.023,10.342,10.342,0,0,1-4.852-3.044.614.614,0,0,1,.91-.824,9.119,9.119,0,0,0,4.274,2.687.614.614,0,0,1-.166,1.2" transform="translate(-411.414 -702.114)" fill="#2e2020"/>
          <path id="パス_9799" data-name="パス 9799" d="M811.105,850.088a.613.613,0,0,1-.094-1.22c1.593-.249,3.167-1.5,4.433-3.534a.613.613,0,0,1,1.041.649c-1.458,2.338-3.334,3.793-5.284,4.1a.644.644,0,0,1-.1.007" transform="translate(-674.647 -703.408)" fill="#2e2020"/>
          <path id="パス_9800" data-name="パス 9800" d="M509.064,819.427a.613.613,0,0,1-.586-.433,4.308,4.308,0,0,0-.7-1.426.613.613,0,0,1,.967-.755,5.558,5.558,0,0,1,.907,1.82.613.613,0,0,1-.586.794" transform="translate(-422.56 -679.711)" fill="#2e2020"/>
          <path id="パス_9801" data-name="パス 9801" d="M567.253,714.08a.614.614,0,0,1-.263-1.168c3.108-1.473,9.074-2.513,12.009-.068a.614.614,0,0,1-.786.943c-2.413-2.011-7.763-1.156-10.7.235a.613.613,0,0,1-.262.059" transform="translate(-471.665 -592.147)" fill="#2e2020"/>
          <path id="パス_9802" data-name="パス 9802" d="M722.056,714.332a.612.612,0,0,1-.34-.1c-3.553-2.369-8.619-2.2-10.546-1.044a.613.613,0,1,1-.631-1.052c2.545-1.528,8.157-1.392,11.858,1.075a.614.614,0,0,1-.341,1.124" transform="translate(-591.198 -591.945)" fill="#2e2020"/>
          <path id="パス_9803" data-name="パス 9803" d="M822.291,1017.972a.614.614,0,0,1-.611-.557c-2.02-21.908-7-36.342-13.649-39.6-7.161-3.595-14.131-5.535-20.872-7.412-6.784-1.888-13.191-3.672-18.828-6.952-9.041-5.347-6.611-20.75-6.5-21.4a.613.613,0,1,1,1.21.2c-.025.152-2.4,15.227,5.914,20.145,5.5,3.2,11.83,4.962,18.536,6.829,6.8,1.892,13.826,3.849,21.088,7.495,7.146,3.5,12.235,17.917,14.326,40.589a.614.614,0,0,1-.555.667l-.057,0" transform="translate(-633.827 -783.723)" fill="#2e2020"/>
          <path id="パス_9804" data-name="パス 9804" d="M360.612,591.173a.612.612,0,0,1-.453-.2c-6.718-7.352-2.451-12.809,1.315-17.623,3.036-3.882,5.9-7.55,3.316-11.984-7.095-12.157-.988-21.5,6.083-32.314q.56-.856,1.125-1.724c1.746-2.688,1.882-5.894,2-8.723a26.535,26.535,0,0,1,.343-3.848c1.553-13.483,9.183-25.121,19.43-29.6,5.941-2.6,11.844-2.265,16.193.915a.613.613,0,1,1-.724.991c-3.987-2.916-9.447-3.2-14.977-.782-7.484,3.273-16.874,12.745-18.711,28.667a25.806,25.806,0,0,0-.328,3.712c-.127,2.986-.271,6.37-2.2,9.339q-.565.87-1.127,1.727c-6.849,10.476-12.763,19.522-6.051,31.025,3.007,5.152-.255,9.324-3.409,13.358-3.8,4.862-7.393,9.454-1.375,16.039a.614.614,0,0,1-.453,1.027" transform="translate(-296.855 -402.394)" fill="#2e2020"/>
          <path id="パス_9805" data-name="パス 9805" d="M211.88,1017.962l-.057,0a.614.614,0,0,1-.555-.667c.16-1.737.344-3.48.547-5.18,2.35-19.631,7.245-32.207,13.784-35.412,6.062-3.043,12.892-4.99,19.5-6.872,7.38-2.1,14.35-4.09,20.125-7.451,8.319-4.92,5.935-19.991,5.91-20.143a.613.613,0,1,1,1.21-.2c.108.653,2.538,16.056-6.5,21.4-5.912,3.44-12.954,5.447-20.41,7.572-6.551,1.867-13.325,3.8-19.289,6.792-6.157,3.018-10.811,15.255-13.111,34.458-.2,1.689-.384,3.421-.543,5.148a.614.614,0,0,1-.611.557" transform="translate(-175.855 -783.713)" fill="#2e2020"/>
          <path id="パス_9806" data-name="パス 9806" d="M468.58,1127.2a57.561,57.561,0,0,1-16.632-2.523,74.941,74.941,0,0,1-26.206-14.415.614.614,0,0,1,.831-.9,73.617,73.617,0,0,0,25.771,14.157c14.018,4.225,35.123,5.068,56.071-14.9a.613.613,0,0,1,.847.888c-14.2,13.54-28.487,17.7-40.682,17.7" transform="translate(-354.219 -922.659)" fill="#2e2020"/>
          <path id="パス_9807" data-name="パス 9807" d="M433.269,637.906a.614.614,0,0,1,0-1.227c8.858,0,11.613-10.286,14.53-21.175.709-2.647,1.442-5.384,2.264-7.9.149-.443.387-1.246.688-2.264,2.747-9.284,5.706-18.023,8.725-19.088a1.88,1.88,0,0,1,1.755.241.613.613,0,1,1-.7,1.009.659.659,0,0,0-.65-.094c-2.845,1-6.558,13.555-7.956,18.279-.3,1.03-.545,1.843-.7,2.3-.809,2.484-1.538,5.2-2.243,7.836-2.908,10.858-5.916,22.085-15.716,22.085" transform="translate(-360.139 -487.89)" fill="#2e2020"/>
          <path id="パス_9808" data-name="パス 9808" d="M632.111,888.574c-3.237,0-7.354-.827-8.976-3.206a.613.613,0,1,1,1.014-.691c1.137,1.667,4.593,2.767,8.41,2.664,3.441-.089,6.16-1.1,7.1-2.638a.614.614,0,0,1,1.048.638c-1.168,1.919-4.2,3.125-8.113,3.226-.157,0-.317.006-.48.006" transform="translate(-518.603 -736.175)" fill="#2e2020"/>
          <path id="パス_9809" data-name="パス 9809" d="M407.636,942.148a.614.614,0,0,1-.362-.119,6.563,6.563,0,0,1-2.993-4.659c-.346-3.843,3.407-7.807,6.717-11.305a27.753,27.753,0,0,0,4.1-4.955c2.67-5.074,2.971-12.8,2.974-12.878a.613.613,0,1,1,1.226.043c-.011.328-.314,8.086-3.114,13.406a28.3,28.3,0,0,1-4.3,5.227c-3.132,3.31-6.683,7.061-6.386,10.352a5.332,5.332,0,0,0,2.5,3.781.613.613,0,0,1-.363,1.108" transform="translate(-336.502 -755.511)" fill="#2e2020"/>
          <path id="パス_9810" data-name="パス 9810" d="M490.943,987.35a.614.614,0,0,1-.362-.119c-4.74-3.48-2.309-7.446-.165-10.945a17.238,17.238,0,0,0,2.447-5.127.614.614,0,0,1,1.2.242,18.1,18.1,0,0,1-2.6,5.526c-2.471,4.031-3.8,6.638-.155,9.314a.614.614,0,0,1-.363,1.108" transform="translate(-406.082 -807.975)" fill="#2e2020"/>
          <path id="パス_9811" data-name="パス 9811" d="M696.591,598.757c-7.229,0-9.987-4.084-11.732-8.079-.43-.986-.845-2.023-1.284-3.122-1.549-3.878-3.305-8.274-6.285-11.371a6.648,6.648,0,0,0-5.373-1.334.614.614,0,0,1-.394-1.162,7.8,7.8,0,0,1,6.651,1.646c3.146,3.27,4.949,7.783,6.54,11.766.435,1.089.846,2.118,1.269,3.086,1.666,3.814,4.1,7.344,10.608,7.344a.614.614,0,0,1,0,1.227" transform="translate(-558.623 -477.358)" fill="#2e2020"/>
          <path id="パス_9812" data-name="パス 9812" d="M717.034,591.174a.614.614,0,0,1-.453-1.027c6.017-6.586,2.427-11.177-1.375-16.039-3.155-4.034-6.417-8.205-3.409-13.358,6.712-11.5.8-20.55-6.051-31.026q-.561-.857-1.126-1.726c-1.93-2.969-2.073-6.353-2.2-9.339a25.589,25.589,0,0,0-.32-3.664c-1.844-15.97-11.234-25.442-18.717-28.715-5.532-2.42-10.991-2.134-14.978.781a.613.613,0,1,1-.724-.991c4.349-3.18,10.251-3.514,16.194-.915,10.247,4.482,17.877,16.12,19.437,29.65a26.3,26.3,0,0,1,.334,3.8c.12,2.829.257,6.035,2,8.723q.565.868,1.125,1.723c7.071,10.816,13.178,20.158,6.084,32.315-2.588,4.434.28,8.1,3.316,11.984,3.765,4.815,8.032,10.272,1.314,17.623a.612.612,0,0,1-.453.2" transform="translate(-555.561 -402.395)" fill="#2e2020"/>
          <path id="パス_9813" data-name="パス 9813" d="M756.094,637.908c-10.552,0-13.8-11.221-16.947-22.073-.762-2.631-1.551-5.351-2.427-7.84-.165-.453-.426-1.266-.755-2.3-1.5-4.692-5.491-17.157-8.589-18.275a.861.861,0,0,0-.818.088.613.613,0,1,1-.66-1.034,2.084,2.084,0,0,1,1.895-.208c3.222,1.163,6.394,9.845,9.341,19.055.325,1.016.582,1.819.741,2.255.89,2.529,1.684,5.265,2.451,7.913,3.157,10.9,6.139,21.188,15.768,21.188a.614.614,0,1,1,0,1.227" transform="translate(-603.995 -487.892)" fill="#2e2020"/>
          <path id="パス_9814" data-name="パス 9814" d="M861.452,942.148a.614.614,0,0,1-.363-1.108,5.331,5.331,0,0,0,2.5-3.78c.3-3.291-3.253-7.042-6.386-10.352a28.3,28.3,0,0,1-4.3-5.227c-2.8-5.32-3.1-13.079-3.114-13.406a.614.614,0,0,1,.592-.634.623.623,0,0,1,.634.591c0,.078.306,7.81,2.973,12.879a27.754,27.754,0,0,0,4.1,4.955c3.311,3.5,7.063,7.463,6.717,11.3a6.561,6.561,0,0,1-2.992,4.66.614.614,0,0,1-.362.119" transform="translate(-707.357 -755.512)" fill="#2e2020"/>
          <path id="パス_9815" data-name="パス 9815" d="M821.911,987.35a.614.614,0,0,1-.363-1.108c3.645-2.676,2.316-5.283-.154-9.314a18.082,18.082,0,0,1-2.6-5.526.614.614,0,1,1,1.2-.242,17.237,17.237,0,0,0,2.447,5.127c2.144,3.5,4.574,7.464-.166,10.944a.614.614,0,0,1-.363.119" transform="translate(-681.543 -807.975)" fill="#2e2020"/>
          <path id="パス_9816" data-name="パス 9816" d="M356.981,1365.916a.614.614,0,0,1-.513-.276,9.277,9.277,0,0,1-1.714-4.9,15.94,15.94,0,0,0-.241-1.707.614.614,0,0,1,1.2-.25,16.884,16.884,0,0,1,.26,1.832,8.057,8.057,0,0,0,1.518,4.353.614.614,0,0,1-.512.951" transform="translate(-295.082 -1130.629)" fill="#2e2020"/>
          <path id="パス_9817" data-name="パス 9817" d="M973.111,1365.917a.614.614,0,0,1-.512-.951,8.056,8.056,0,0,0,1.519-4.354,16.945,16.945,0,0,1,.261-1.831.613.613,0,0,1,1.2.25,15.981,15.981,0,0,0-.241,1.707,9.273,9.273,0,0,1-1.715,4.9.615.615,0,0,1-.513.276" transform="translate(-809.499 -1130.63)" fill="#2e2020"/>
        </g>
      </g>
    </g>
  </g>
</svg>
