<svg id="グループ_4747" data-name="グループ 4747" xmlns="http://www.w3.org/2000/svg" xmlns:xlink="http://www.w3.org/1999/xlink" width="265.604" height="340.895" viewBox="0 0 265.604 340.895">
  <defs>
    <clipPath id="clip-path">
      <rect id="長方形_1095" data-name="長方形 1095" width="265.604" height="340.895" fill="none"/>
    </clipPath>
  </defs>
  <g id="グループ_4746" data-name="グループ 4746" clip-path="url(#clip-path)">
    <path id="パス_10380" data-name="パス 10380" d="M7.506,514.95,4.4,476.195l-1.22-17.272L2.91,437.739l1.51-14.558,2.8-12.127,4.834-10.748,4.538-6.5,7.1-6.935L32.28,380.8l9.966-4.489L54.825,372l13.095-3.355L78.942,365.7l6.976-2.858,93.735-.693a81.62,81.62,0,0,0,11.544,4.77c6.511,1.932,15.788,3.537,23.9,5.975a110.391,110.391,0,0,1,19.044,7.94c10.747,5.563,18.993,14.861,23.744,26.846,5.456,13.75,6.785,29.538,6.974,32.908.417,7.466.674,18.832.566,31.108-.184,20.587-1.008,42.342-1.008,42.342Z" transform="translate(-1.41 -175.443)" fill="#ff9e8e" fill-rule="evenodd"/>
    <path id="パス_10381" data-name="パス 10381" d="M164.806,392.491s-.681-5.6-1.183-8.43-.83-10.16-1.036-13.207-.636-6.842-.557-11.384-.25-7.48.2-10.784.887-6.329.887-6.329l-.5-1.636a8.1,8.1,0,0,0,2.509-1.705c1.277-1.242,3.145-2.554,4.227-4.323a27.4,27.4,0,0,0,2.392-4.758c.6-1.578.715-2.6,1.47-3.6s69.4-6.606,69.4-6.606a5.843,5.843,0,0,1,2.688.872,9.7,9.7,0,0,1,2.478,3.428c.607,1.482,1.3,2.9,2.154,4.917a41.846,41.846,0,0,0,2.625,4.975,60.868,60.868,0,0,0,4.838,6.6s-1.35,1.636-1.314,2.764.89,3.173,1.3,7.268,1.723,20.618,2.158,25.68.736,21.455,1.146,25.544-.111,21.05-.032,25.869-.235,19.973-.739,27.554-.752,16.324-.709,21.953-.67,16.681-.67,16.681l-80.431.085s9.577-26.952,11.293-31.271,5.553-15.5,6.924-19.2,7.828-21.264,9.471-25.107,8.114-22.021,8.114-22.021l3.559-10.342s-4.675-5.1-6.1-6.286a84.653,84.653,0,0,0-8.811-5.984,88.958,88.958,0,0,0-10.586-5.117,60.694,60.694,0,0,0-8.375-2.015c-1.659-.12-5.386-.115-5.386-.115Z" transform="translate(-78.476 -154.892)" fill="#fff" fill-rule="evenodd"/>
    <path id="パス_10382" data-name="パス 10382" d="M166.8,192.894a62.88,62.88,0,0,1-7.134-15.188,147.6,147.6,0,0,1-3.457-18.37,13.462,13.462,0,0,1-5.732-3.138s-14.457-11.589-4.72-24.322c.649-.826,3.979-2.169,6.385-2.06a10.639,10.639,0,0,1,5.478,1.924s11.519-12.321,15.152-16.175c7.876-8.516,13.663-18.1,23.1-20.9,14.306-4.2,27.532,1.173,29.076,2.178s8.911,6.813,11.844,12.678c4.508,9.086,13.058,30.615,13.058,30.615a11.878,11.878,0,0,1,5.582.791c2.112.911,3.484.66,4.636,4.972s-.078,10.119-2.393,13.837c-2.986,6.852-15.53,8.448-15.53,8.448a78.444,78.444,0,0,1-6.362,16.023A75.351,75.351,0,0,1,225.1,198.375s-19.322,13.48-30.676,12.091C181.93,208.94,166.8,192.894,166.8,192.894" transform="translate(-68.98 -45.095)" fill="#ffe4ce" fill-rule="evenodd"/>
    <path id="パス_10383" data-name="パス 10383" d="M129.746,10.376c3.009-1.611,8.622-.805,13.743-.985A12.121,12.121,0,0,0,149.345,7.6c2.066-1.357,3.27-3.187,5.449-4.165,3.616-1.622,8.345-.87,12.488-.4,5.391.61,10.253,3.078,15.16,6.557,5.283,3.748,10.492,8.543,12.912,9.965,5.458,3.108,7.268,1.742,7.268,1.742s9.558,1.067,12.712,3.451c2.849,2.156,3.753,5.246,5.391,9.2,1.91,4.618,12.814,7.123,14.328,13.809.872,3.7-.934,11.571,2.032,16.177,1.385,2.154,5.554,4.551,7.818,7.418a9.756,9.756,0,0,1,1.838,7.806c-.241,1.374-1.371,5.285-1.405,8.725a9.29,9.29,0,0,0,2.6,7.045c2.854,2.733-5.289,5.386-10.332,1.876-.5-.345,4.79,3.644,6.27,7.97,1.245,3.644-1.116,7.422-2.865,10.1a7.455,7.455,0,0,0-.807,6.389c1.058,3.028,4.735,6.546,4.795,9.712.064,3.076-2.3,5.4-4.119,6.863-.352.286-3.1,2.952-3.056,5.17.048,1.961,2.934,3.378,2.191,5.324a7.249,7.249,0,0,1-4.574,3.944,56.777,56.777,0,0,1-7.678,1.692c-4.551.674-9.238.941-9.238.941s1.191,1.8.051,2.881c-1.981,1.884-8.315,3.456-9.644,5.308-1.788,2.485-11.461-1.123-11.461-1.123s-.124-3.886-.18-7.96-.037-8.346-.037-8.346a93.235,93.235,0,0,0,5.5-10.2,117.547,117.547,0,0,0,4.406-11.619,26.088,26.088,0,0,0,9.01-2.517,20.624,20.624,0,0,0,5.95-5.48c2.145-3.03,3.424-9.487,2.442-13.612a8.159,8.159,0,0,0-3.886-5.131,12.522,12.522,0,0,0-4.222-1.114c-2.165-.089-4.321.728-6.391-.915-4.818-3.863-7.81-11.672-13.957-18.45-4.664-5.23-6.229-13.431-10.379-18.322-2.695-3.074-7.277-4.144-11.373-4.6-5.188-.587-10.956-.962-14.27,1.429-5.409,3.815-7.763,12.4-14.692,17.427-1.826,1.454-8.595,2.626-8.595,2.626S131.308,84.513,127,85.96c-2.138.7-2.193,2.014-4.813,1.217a50.448,50.448,0,0,0-6.925-1.3,6.653,6.653,0,0,0-3.818,1.693,13.053,13.053,0,0,0-3.511,5.386,17.323,17.323,0,0,0,.05,9.556,26.863,26.863,0,0,0,2.66,5.257c.764,1.422.283,3.189.535,5.828.424,4.461,1.232,9.967,1.232,9.967s-1.727,1.33-1.769,6.435a115.524,115.524,0,0,0,2.041,16.918,28.651,28.651,0,0,0,5.558,12.535c2.674,3.476-4.577,5.8-6.717,5.114-1.668-.529-1.585-3.732-5.077-4.4-4.127-.787-11.928.883-14.511-.916-3.424-2.386-.481-7.211-3.285-8.962-2.9-1.81-4.229-1.266-6.745-2.07a5.384,5.384,0,0,1-3.518-6.4c.612-2.17,2.549-5.255,4.024-7.727,1.032-1.723,1.812-2.816,1.864-4.484.094-2.994-3.291-3.52-4.712-5.292-1.513-1.885-1.07-4.905-1.185-4.39-.919,4.075-9.517,7.1-8.73,5.515a14.51,14.51,0,0,0,.823-5.991c-.278-2.418-1.376-3.748-.792-7.123.711-4.1,5.343-7.353,6.568-10.633.98-2.627-1.373-6.012-1.641-6.4-1.091-1.595-2.349-3.555-1.452-5.513,1.216-2.648,5-5.375,7.692-7.713,2.844-2.464,4.586-4.489,5.009-5.377,1.228-2.584,1.437-7.071,1.816-10.685a26.657,26.657,0,0,1,.882-4.549c1.194-2.335.151-5.368.535-7.1.609-2.766.906-5.959,3.05-8.083,2.423-2.395,5.115-3.534,7.574-5.225,1.862-1.282,3.867-3.166,3.938-4.529.1-1.967-.609-3.389-.213-5.167.771-3.489,4.965-6,8.614-7.331,4.117-1.507,7.651-2.694,10.367-6.067,1.929-2.4,4.663-6.187,7.332-7.59" transform="translate(-33.672 -1.183)" fill="#da9b72" fill-rule="evenodd"/>
    <path id="パス_10384" data-name="パス 10384" d="M185.587,303.272a7.962,7.962,0,0,0-.436,3.534,7,7,0,0,0,1.787,3.362,29.323,29.323,0,0,0,3.973,3.359c1.791,1.224,1.488.147,4.53,2.059s29.1,14.461,29.876,14.2,3.307-2.55,5.23-4.181a70.237,70.237,0,0,1,7.022-5.159c2.816-1.843,5.717-3.605,7.99-4.974a64.906,64.906,0,0,0,5.952-3.927,18.938,18.938,0,0,0,3.729-4.022,3.376,3.376,0,0,0,.649-1.829,15.443,15.443,0,0,1-1.787-5.741c-.154-2.823-.73-8.361-.861-11.736s.109-7.206.063-9.755-.636-8.32-.636-8.32l-59.853,2.761-7.088,29.062Z" transform="translate(-89.653 -130.872)" fill="#ffe4ce" fill-rule="evenodd"/>
    <path id="パス_10385" data-name="パス 10385" d="M150.861,240.438c0-.639-.4-3.608-.928-7.917-.506-4.156-1.14-9.615-.841-12.551.257-2.506,1.817-2.506,1.817-2.506s-.45-3.454-.891-7.374a60.411,60.411,0,0,1-.61-7.991c.186-1.555.586-2.819,1.612-3.1a6.023,6.023,0,0,1,3.178.484,8.8,8.8,0,0,1,.666-3.272,2.116,2.116,0,0,1,1.992-1.169c1.122,0,3.729,1.576,5.042,4.816,1.927,4.767,2.658,12.13,4.91,15.169.492.665-1.683-7.3-.5-9.546,1.006-1.908,5.385,1.838,5.81,2.388,4.128,5.329,3.831,15.395,6.34,21.888,2.632,6.806,6.736,10.069,8.541,12.4a80.174,80.174,0,0,1,9.638,11.5,73.736,73.736,0,0,1,7.779,15.057,64.727,64.727,0,0,1,4.118,18.807,53.527,53.527,0,0,1-.433,10.067,90.975,90.975,0,0,0-13.237-4.367,47.743,47.743,0,0,0-11.408-1.114,52.382,52.382,0,0,0-4.422-11.477,68.821,68.821,0,0,0-9.4-12.4c-4.648-5.028-10.169-10.635-14.047-16.64-2.743-4.244-4.726-9.576-4.726-11.15" transform="translate(-72.191 -94.487)" fill="#ffe4ce" fill-rule="evenodd"/>
    <path id="パス_10386" data-name="パス 10386" d="M247.276,210.921a1.415,1.415,0,0,1-.575-2.706c1.311-.587,4.732-2.637,4.819-5.06.022-.828-.388-1.316-1.245-2.252a8.827,8.827,0,0,1-2.76-6.709c-.063-1.841.574-4.5,2.066-8.557a1.414,1.414,0,1,1,2.654.976c-1.325,3.6-1.944,6.067-1.894,7.544a6.117,6.117,0,0,0,2.02,4.838,5.75,5.75,0,0,1,1.983,4.245c-.17,4.705-6.24,7.443-6.5,7.559a1.4,1.4,0,0,1-.571.122" transform="translate(-119.108 -89.485)" fill="#571519"/>
    <path id="パス_10387" data-name="パス 10387" d="M209.147,190.3c.326-3.007,2.232-5.29,4.446-5.326,2.186.237,3.865,2.628,3.51,5.906-.324,3.007-2.231,5.29-4.446,5.329-2.187-.239-3.833-2.9-3.511-5.909" transform="translate(-101.302 -89.609)" fill="#571519" fill-rule="evenodd"/>
    <path id="パス_10388" data-name="パス 10388" d="M206.227,154.12c-2.944,0-5.331-.15-5.914-.188A1.414,1.414,0,0,1,199,152.425a1.392,1.392,0,0,1,1.505-1.314c3.771.256,14.217.507,17.215-1.383a1.414,1.414,0,0,1,1.507,2.393c-2.614,1.648-8.466,2-13,2" transform="translate(-96.403 -72.431)" fill="#571519"/>
    <path id="パス_10389" data-name="パス 10389" d="M212.955,185.6a1.411,1.411,0,0,1-.924-.343c-2.723-2.358-8.672-2.094-10.962-.676a1.414,1.414,0,1,1-1.487-2.407c3.106-1.914,10.475-2.363,14.3.943a1.413,1.413,0,0,1-.926,2.482" transform="translate(-96.363 -87.532)" fill="#571519"/>
    <path id="パス_10390" data-name="パス 10390" d="M250.379,275.576a1.413,1.413,0,0,1-.2-2.811c3.586-.516,9.583-2.129,17.8-6.9a44.806,44.806,0,0,0,16.766-16.134c4.294-7.172,7.6-17.332,9.724-24.352a1.413,1.413,0,1,1,2.705.815c-2.161,7.167-5.547,17.548-9.99,24.966a47.647,47.647,0,0,1-17.79,17.152c-8.6,4.993-14.977,6.7-18.811,7.248a1.572,1.572,0,0,1-.2.013" transform="translate(-120.613 -108.698)" fill="#571519"/>
    <path id="パス_10391" data-name="パス 10391" d="M296.075,199.694c.325-3.007-1.049-5.641-3.2-6.155-2.186-.235-4.335,1.744-4.692,5.026-.324,3,1.05,5.641,3.207,6.149,2.186.239,4.363-2.015,4.689-5.02" transform="translate(-139.586 -93.752)" fill="#571519" fill-rule="evenodd"/>
    <path id="パス_10392" data-name="パス 10392" d="M294.233,162.3a1.628,1.628,0,0,1-.2-.014c-.535-.076-13.126-1.931-18.642-5.658a1.413,1.413,0,1,1,1.583-2.342c4.979,3.365,17.338,5.183,17.463,5.2a1.413,1.413,0,0,1-.2,2.812" transform="translate(-133.111 -74.628)" fill="#571519"/>
    <path id="パス_10393" data-name="パス 10393" d="M294.641,194.146a1.4,1.4,0,0,1-.982-.4c-1.848-1.785-7.534-3.7-10.794-1.714a1.413,1.413,0,0,1-1.472-2.411c4.446-2.722,11.511-.538,14.23,2.1a1.413,1.413,0,0,1-.982,2.427" transform="translate(-135.993 -91.256)" fill="#571519"/>
    <path id="パス_10394" data-name="パス 10394" d="M335.729,212.154a1.413,1.413,0,0,1-.035-2.825c7.638-.191,15.926-5.794,16.235-15.8.106-3.44-.7-5.92-2.377-7.372-2.421-2.086-6.309-1.763-8.407-1.385a1.415,1.415,0,1,1-.5-2.784c3.173-.568,7.614-.683,10.754,2.027,2.361,2.038,3.49,5.267,3.357,9.6-.361,11.746-10.055,18.319-18.991,18.542Z" transform="translate(-161.96 -88.002)" fill="#571519"/>
    <path id="パス_10395" data-name="パス 10395" d="M342.539,210.814a1.416,1.416,0,0,1-1.231-2.108c2.3-4.084,5.207-4.822,5.531-4.892a1.413,1.413,0,0,1,.624,2.757c-.127.035-2.036.582-3.689,3.52a1.42,1.42,0,0,1-1.235.722" transform="translate(-165.26 -98.721)" fill="#571519"/>
    <path id="パス_10396" data-name="パス 10396" d="M144.423,185.786a1.415,1.415,0,0,1-1.193-.651,18.452,18.452,0,0,1-2.545-13.557c.795-4.263,2.588-7.178,5.332-8.665,3.65-1.976,7.962-.918,10.933.32a1.412,1.412,0,1,1-1.084,2.609c-1.97-.819-5.7-1.964-8.5-.441-1.956,1.058-3.268,3.313-3.9,6.7a15.669,15.669,0,0,0,2.149,11.513,1.412,1.412,0,0,1-1.19,2.175" transform="translate(-67.988 -78.392)" fill="#571519"/>
    <path id="パス_10397" data-name="パス 10397" d="M163.61,192.089a1.416,1.416,0,0,1-1.351-1c-1-3.264-2.78-4.192-2.855-4.229a1.426,1.426,0,0,1-.651-1.882,1.4,1.4,0,0,1,1.851-.678c.3.14,2.986,1.482,4.357,5.961a1.415,1.415,0,0,1-.937,1.767,1.448,1.448,0,0,1-.414.062" transform="translate(-76.842 -89.223)" fill="#571519"/>
    <path id="パス_10398" data-name="パス 10398" d="M294.729,73.018a1.415,1.415,0,0,1-1.286-2c3.983-8.7,3.154-17.463-2.059-21.811a1.414,1.414,0,1,1,1.813-2.172c6.2,5.179,7.338,15.289,2.819,25.162a1.417,1.417,0,0,1-1.286.825" transform="translate(-140.916 -22.625)" fill="#571519"/>
    <path id="パス_10399" data-name="パス 10399" d="M322.166,141.1a1.413,1.413,0,0,1-1.289-.835c-1.065-2.365-3.069-3.486-5.846-5.036-6.017-3.359-14.256-7.959-20.16-28.926a1.413,1.413,0,0,1,2.72-.769c5.589,19.838,13.235,24.108,18.818,27.226,3.005,1.677,5.6,3.127,7.045,6.346a1.417,1.417,0,0,1-1.288,1.995" transform="translate(-142.825 -50.626)" fill="#571519"/>
    <path id="パス_10400" data-name="パス 10400" d="M183,116.342a25.4,25.4,0,0,1-11.4-2.593,1.414,1.414,0,0,1,1.325-2.5c4.85,2.573,15.308,4.259,22.72-2.17,1.811-1.571,4.13-4.631,6.584-7.869,5.83-7.692,12.443-16.379,19.177-15.627,3.511.409,6.39,3.249,8.8,8.685a1.414,1.414,0,1,1-2.587,1.146c-1.94-4.381-4.141-6.743-6.539-7.022-5.119-.615-11.491,7.79-16.6,14.525-2.657,3.5-4.951,6.533-6.986,8.3a21.785,21.785,0,0,1-14.5,5.127" transform="translate(-82.771 -41.439)" fill="#571519"/>
    <path id="パス_10401" data-name="パス 10401" d="M178.054,151.239a11.692,11.692,0,0,1-2.825-.375,1.413,1.413,0,1,1,.681-2.742c4.523,1.118,6.2-1.169,8.966-4.956l.77-1.047a1.414,1.414,0,0,1,2.269,1.688l-.756,1.026c-2.4,3.278-4.682,6.406-9.1,6.406" transform="translate(-84.37 -68.574)" fill="#571519"/>
    <path id="パス_10402" data-name="パス 10402" d="M6.2,515.512A1.413,1.413,0,0,1,4.79,514.2c-.578-8.347-1.322-16.635-2.043-24.648-3.7-41.176-6.9-76.735,13.276-98.9,13.083-14.369,31.683-19.035,49.67-23.547l3.263-.822A85.266,85.266,0,0,0,83.2,361.538a1.415,1.415,0,0,1,1.169,2.577,88.553,88.553,0,0,1-14.717,4.907l-3.271.821c-17.58,4.411-35.759,8.971-48.267,22.709C-1.224,413.8,1.921,448.783,5.563,489.294c.721,8.028,1.466,16.329,2.048,24.709A1.415,1.415,0,0,1,6.3,515.51c-.033,0-.067,0-.1,0" transform="translate(0 -175.087)" fill="#571519"/>
    <path id="パス_10403" data-name="パス 10403" d="M430.511,514.936a1.412,1.412,0,0,1-1.413-1.408c-.032-8.37.223-17.286.472-25.912,1.054-36.743,2.145-74.736-16.591-95.319-12.509-13.738-30.686-18.3-48.265-22.709l-3.272-.821a86.021,86.021,0,0,1-15.323-5.191,1.413,1.413,0,0,1,1.2-2.559,83.383,83.383,0,0,0,14.817,5.007l3.264.824c17.986,4.509,36.584,9.176,49.666,23.545,19.506,21.427,18.4,60,17.327,97.307-.257,9-.5,17.5-.472,25.82a1.41,1.41,0,0,1-1.407,1.417Z" transform="translate(-167.285 -174.83)" fill="#571519"/>
    <path id="パス_10404" data-name="パス 10404" d="M318.324,310.69a1.414,1.414,0,0,1-1.337-.957c-2.581-7.552-2.469-18.522-2.384-26.531.012-1.266.026-2.448.026-3.518a1.413,1.413,0,1,1,2.826,0c0,1.079-.012,2.271-.026,3.547-.081,7.8-.191,18.494,2.232,25.586a1.418,1.418,0,0,1-1.336,1.873" transform="translate(-152.394 -134.809)" fill="#571519"/>
    <path id="パス_10405" data-name="パス 10405" d="M429.555,583.432a1.343,1.343,0,0,1-.368-.051,1.409,1.409,0,0,1-1-1.732c3.713-13.761,2.719-30.15,1.841-44.608-.876-14.482-1.636-26.989,2.066-34.957a1.413,1.413,0,0,1,2.563,1.191c-3.4,7.319-2.625,20.082-1.806,33.6.89,14.674,1.9,31.307-1.935,45.515a1.416,1.416,0,0,1-1.365,1.047" transform="translate(-207.414 -242.839)" fill="#571519"/>
    <path id="パス_10406" data-name="パス 10406" d="M222.54,306.607a1.379,1.379,0,0,1-.255-.026,1.409,1.409,0,0,1-1.137-1.643c2.784-15.308-4.716-33.841-12.863-44.581-1.874-2.471-4-4.8-6.063-7.048-3.911-4.272-7.954-8.69-10.544-14.371a40.241,40.241,0,0,1-2.12-8.382c-1.247-6.638-2.8-14.9-7.687-15.788-.223.237-.509,1.517.517,6.493.126.612.217,1.076.236,1.3.958,10.723,1.846,16.257,4.919,25.957a1.413,1.413,0,1,1-2.694.856c-3.155-9.953-4.064-15.611-5.041-26.561-.018-.172-.094-.52-.189-.978-.761-3.7-1.369-7.445.264-9.118a2.688,2.688,0,0,1,2.494-.724c6.8,1.235,8.552,10.556,9.96,18.045a39.7,39.7,0,0,0,1.913,7.731c2.406,5.274,6.123,9.335,10.058,13.635,2.1,2.3,4.278,4.675,6.229,7.25,8.51,11.217,16.328,30.645,13.39,46.795a1.411,1.411,0,0,1-1.387,1.162" transform="translate(-86.643 -102.672)" fill="#571519"/>
    <path id="パス_10407" data-name="パス 10407" d="M167.531,244.345a1.416,1.416,0,0,1-1.266-.783c-5.6-11.214-7.083-23.568-8.318-37.389-.029-.324-.131-.87-.254-1.548-.779-4.314-1.383-8.69.49-10.669A3.184,3.184,0,0,1,161,193.02c5.561.7,7.281,8.3,8.664,14.405a32.216,32.216,0,0,0,1.73,6.077,1.414,1.414,0,1,1-2.529,1.265,32.871,32.871,0,0,1-1.959-6.716c-1.187-5.246-2.665-11.776-6.258-12.224-.3-.048-.378.035-.417.073-1.046,1.1-.078,6.461.24,8.221.143.789.253,1.422.288,1.8,1.209,13.531,2.647,25.608,8.031,36.376a1.415,1.415,0,0,1-1.263,2.048" transform="translate(-76.031 -93.495)" fill="#571519"/>
    <path id="パス_10408" data-name="パス 10408" d="M158.828,252.262a1.416,1.416,0,0,1-1.266-.783c-6.649-13.305-7.968-22.771-9.349-36.781-.026-.258-.085-.677-.161-1.208-.976-6.889-1.106-11.438,1.259-12.837,1.183-.7,2.618-.428,4.259.8a1.414,1.414,0,1,1-1.7,2.264c-.826-.621-1.185-.623-1.183-.612-.29.267-1,1.831.159,9.983.083.585.147,1.045.176,1.33,1.349,13.685,2.632,22.923,9.064,35.791a1.415,1.415,0,0,1-1.263,2.048" transform="translate(-71.404 -97.024)" fill="#571519"/>
    <path id="パス_10409" data-name="パス 10409" d="M182.291,312.865a1.415,1.415,0,0,1-1.391-1.171c-1.608-9.2-7.887-16.32-14.535-23.852-1.134-1.286-2.273-2.577-3.394-3.884l-.959-1.118c-6.788-7.9-13.2-15.354-13.914-26.281-.019-.287-.106-.948-.222-1.856-1.742-13.55-1.331-18.264,1.624-18.686a1.413,1.413,0,0,1,.63,2.745c-.477.75-.962,3.824.549,15.581.128.995.219,1.719.24,2.032.652,9.983,6.766,17.092,13.238,24.621l.962,1.12c1.111,1.3,2.242,2.579,3.368,3.854,6.614,7.5,13.455,15.247,15.2,25.235a1.412,1.412,0,0,1-1.149,1.636,1.517,1.517,0,0,1-.244.023" transform="translate(-71.138 -114.332)" fill="#571519"/>
    <path id="パス_10410" data-name="パス 10410" d="M71.958,538.346a1.431,1.431,0,0,1-.545-.11,1.416,1.416,0,0,1-.757-1.852c9.164-21.837,43.394-91.17,62-127.257a1.414,1.414,0,0,1,2.513,1.3C116.583,446.469,82.4,515.7,73.263,537.479a1.415,1.415,0,0,1-1.3.867" transform="translate(-34.176 -197.831)" fill="#571519"/>
    <path id="パス_10411" data-name="パス 10411" d="M191.525,557.164a1.393,1.393,0,0,1-.43-.07,1.411,1.411,0,0,1-.916-1.776c2.545-7.956,11.562-32.225,22-60.328,5.845-15.733,12.056-32.451,17.627-47.643a1.414,1.414,0,1,1,2.656.971c-5.573,15.2-11.785,31.919-17.631,47.657-10.429,28.071-19.435,52.31-21.961,60.2a1.415,1.415,0,0,1-1.346.985" transform="translate(-92.1 -216.27)" fill="#571519"/>
    <path id="パス_10412" data-name="パス 10412" d="M107.877,523.458h-.009a1.414,1.414,0,0,1-1.4-1.422c.113-18.273-.133-33.581-4.316-50.312a1.414,1.414,0,0,1,2.743-.686c4.264,17.052,4.515,32.541,4.4,51.017a1.414,1.414,0,0,1-1.414,1.4" transform="translate(-49.465 -227.676)" fill="#571519"/>
    <path id="パス_10413" data-name="パス 10413" d="M193.042,348.122a1.4,1.4,0,0,1-.681-.177,35.71,35.71,0,0,1-5.2-3.331c-2.724-2.227-6.112-5-3.717-9.254a1.413,1.413,0,0,1,2.464,1.385c-1.124,2-.059,3.145,3.042,5.678a32.843,32.843,0,0,0,4.778,3.046,1.415,1.415,0,0,1-.684,2.653" transform="translate(-88.474 -162.116)" fill="#571519"/>
    <path id="パス_10414" data-name="パス 10414" d="M267.285,355.455a1.413,1.413,0,0,1-1.017-2.393c4.356-4.518,10.281-8.128,15.507-11.313a71.127,71.127,0,0,0,8.1-5.386c3.115-2.63,4.889-5.248,4.866-7.183a3.376,3.376,0,0,0-1.473-2.628,1.414,1.414,0,0,1,1.771-2.2,6.116,6.116,0,0,1,2.529,4.8c.044,3.619-3.168,7.1-5.871,9.38a73.221,73.221,0,0,1-8.447,5.64c-5.08,3.095-10.841,6.6-14.944,10.857a1.406,1.406,0,0,1-1.017.433" transform="translate(-128.802 -156.98)" fill="#571519"/>
    <path id="パス_10415" data-name="パス 10415" d="M181.167,370.658a1.412,1.412,0,0,1-1.152-.592c-.313-.437-2.289-2.715-4.382-5.126-15.72-18.117-15.45-18.42-14.316-19.69a22.852,22.852,0,0,1,2.369-2.121c1.594-1.317,3.577-2.953,4.433-4.494.482-.87.935-1.906,1.415-3a38.806,38.806,0,0,1,2.012-4.146,1.414,1.414,0,0,1,2.439,1.431,36.792,36.792,0,0,0-1.862,3.847c-.507,1.16-.986,2.255-1.533,3.24-1.115,2.011-3.327,3.835-5.1,5.3-.533.437-1.046.863-1.457,1.233,1.757,2.733,9.737,11.93,13.74,16.543,2.731,3.147,4.174,4.816,4.547,5.338a1.413,1.413,0,0,1-1.149,2.234" transform="translate(-77.927 -160.252)" fill="#571519"/>
    <path id="パス_10416" data-name="パス 10416" d="M282.91,378.369c-1.94,0-6.267-7.227-7.947-10.941-.543-1.2-1.072-2.446-1.6-3.683-1.871-4.4-3.989-9.381-6.042-10.135a1.373,1.373,0,0,0-1.18.11,1.413,1.413,0,1,1-1.266-2.526,4.235,4.235,0,0,1,3.421-.239c3.2,1.178,5.37,6.281,7.668,11.684.518,1.22,1.04,2.445,1.574,3.626a41.138,41.138,0,0,0,5.064,8.388c.11-.2.23-.419.361-.653,2.082-3.769,6.42-11.608,10.917-18.6,3.668-5.7,7.462-10.754,9.73-13.775.571-.761,1.123-1.5,1.5-2.008a56.04,56.04,0,0,1-5.8-8.759c-.683-1.3-1.319-2.7-1.938-4.071-1.236-2.731-2.924-6.465-4.155-6.465l-.115,0a1.413,1.413,0,0,1-.076-2.823c3.115-.189,4.905,3.668,6.923,8.122.593,1.316,1.206,2.669,1.864,3.919a53.723,53.723,0,0,0,5.837,8.717,2.41,2.41,0,0,1,.529.8c.276.828.228.892-2.3,4.26-2.246,2.991-6,8-9.613,13.607-4.447,6.914-8.754,14.7-10.823,18.439-1.661,3-1.661,3-2.528,3" transform="translate(-127.942 -153.812)" fill="#571519"/>
    <path id="パス_10417" data-name="パス 10417" d="M262.576,568.224a1.414,1.414,0,0,1-1.414-1.413c0-4.772.017-11.116.037-18.465.057-22,.141-52.13-.124-76.684a1.409,1.409,0,0,1,1.4-1.429h.016a1.411,1.411,0,0,1,1.413,1.4c.264,24.575.185,54.716.124,76.723-.018,7.347-.037,13.688-.037,18.458a1.413,1.413,0,0,1-1.412,1.413" transform="translate(-126.479 -227.806)" fill="#571519"/>
    <path id="パス_10418" data-name="パス 10418" d="M106.474,54.277a1.5,1.5,0,0,1-.2-.014,1.413,1.413,0,0,1-1.2-1.6c1.1-7.662,4.024-9.311,7.415-11.221a23.809,23.809,0,0,0,6.465-4.873c.6-.651.57-1.714.441-3.386-.162-2.113-.364-4.743,1.859-6.78a34.611,34.611,0,0,1,8.84-5.341,36.818,36.818,0,0,0,7.373-4.2,18.633,18.633,0,0,0,3.395-3.746c1.8-2.413,3.654-4.912,8.9-6.017a32.007,32.007,0,0,1,7.317-.39,25.054,25.054,0,0,0,7.7-.587,8.358,8.358,0,0,0,2.941-2.153A11.1,11.1,0,0,1,172.944.643c13.926-3.092,31.176,5.29,37.685,18.3a1.412,1.412,0,1,1-2.526,1.265C202.231,8.472,186.1.618,173.558,3.4a8.646,8.646,0,0,0-3.884,2.6,10.427,10.427,0,0,1-4.085,2.818,27.293,27.293,0,0,1-8.582.707,29.746,29.746,0,0,0-6.668.331c-4.194.885-5.524,2.673-7.209,4.94a21.323,21.323,0,0,1-3.9,4.265,39.642,39.642,0,0,1-7.928,4.549c-3.016,1.432-5.865,2.784-8.143,4.871-1.128,1.033-1.112,2.381-.95,4.477.141,1.841.3,3.925-1.188,5.529a26.537,26.537,0,0,1-7.15,5.411c-3.183,1.795-5.105,2.876-6,9.16a1.413,1.413,0,0,1-1.4,1.213" transform="translate(-50.896 0)" fill="#571519"/>
    <path id="パス_10419" data-name="パス 10419" d="M68.958,173.821a1.443,1.443,0,0,1-.448-.074,1.413,1.413,0,0,1-.894-1.787,11.462,11.462,0,0,0,.035-6.374,12.527,12.527,0,0,1-.044-6.509,17.955,17.955,0,0,1,3.243-5.657c1.511-2,2.815-3.725,2.951-6.3.059-1.136-.71-2.33-1.524-3.6-1.172-1.825-2.632-4.093-1.355-6.65,1.384-2.768,4.12-5.025,6.766-7.208,2.723-2.246,5.538-4.568,6.253-7.073a29.093,29.093,0,0,0,.959-6.433c.346-5.113.646-9.528,9.937-15.359a1.413,1.413,0,1,1,1.5,2.393c-8.07,5.067-8.289,8.285-8.619,13.157a31.925,31.925,0,0,1-1.062,7.02c-.956,3.35-4.116,5.957-7.172,8.476-2.419,2-4.92,4.058-6.036,6.292-.53,1.061.111,2.156,1.2,3.854.973,1.512,2.077,3.226,1.97,5.274-.182,3.446-1.879,5.69-3.52,7.862a15.554,15.554,0,0,0-2.8,4.786,10,10,0,0,0,.117,5.133,14.117,14.117,0,0,1-.126,7.809,1.415,1.415,0,0,1-1.341.969" transform="translate(-32.548 -48.727)" fill="#571519"/>
    <path id="パス_10420" data-name="パス 10420" d="M102.714,261.705a1.325,1.325,0,0,1-.343-.044c-5.853-1.461-6.111-4.44-6.318-6.836A5.954,5.954,0,0,0,94.78,251c-.695-.81-2.168-1.111-3.727-1.431-2.6-.532-5.838-1.194-6.667-4.811-.85-3.7,1.239-7.257,3.082-10.391a26.243,26.243,0,0,0,2.207-4.291c.5-1.429-.173-2.142-2.072-3.679a10.03,10.03,0,0,1-2.9-3.154c-2.1-4.275,3.231-10.46,6.1-13.782.4-.462.719-.833.906-1.077a1.413,1.413,0,0,1,2.246,1.717c-.209.274-.564.688-1.012,1.205-1.726,2-6.977,8.092-5.7,10.69a7.77,7.77,0,0,0,2.145,2.2c1.756,1.419,4.162,3.366,2.962,6.806a28.367,28.367,0,0,1-2.439,4.8c-1.652,2.811-3.361,5.715-2.762,8.326.4,1.753,1.963,2.159,4.478,2.674,1.956.4,3.98.815,5.3,2.356a8.644,8.644,0,0,1,1.945,5.421c.188,2.17.291,3.366,4.186,4.337a1.414,1.414,0,0,1-.341,2.786" transform="translate(-40.787 -100.685)" fill="#571519"/>
    <path id="パス_10421" data-name="パス 10421" d="M140.484,297.514a1.412,1.412,0,0,1-1-.412c-1.737-1.735-1.536-3.688-1.388-5.113.12-1.164.163-1.852-.33-2.468a6.754,6.754,0,0,0-1.675.106,5.5,5.5,0,0,1-3.857-.419c-1.718-1.146-2.5-3.589-2.2-6.879a15.659,15.659,0,0,1,2.012-6.58,1.413,1.413,0,0,1,2.351,1.569,12.936,12.936,0,0,0-1.547,5.267c-.192,2.115.174,3.751.955,4.273a4.725,4.725,0,0,0,1.922-.032c1.413-.187,3.173-.414,4.249.929a5.672,5.672,0,0,1,.934,4.524c-.137,1.341-.175,2.075.574,2.823a1.414,1.414,0,0,1-1,2.414" transform="translate(-62.965 -133.282)" fill="#571519"/>
    <path id="パス_10422" data-name="パス 10422" d="M368.4,112.523a1.4,1.4,0,0,1-1.017-.43c-3.589-3.721-2.559-8.925-1.647-13.515.631-3.182,1.227-6.188.177-8a21.135,21.135,0,0,0-4.553-4.88c-2.379-2.084-4.841-4.24-5.856-7.289a18.337,18.337,0,0,1-.52-6.9,16.349,16.349,0,0,0-.48-6.382c-1.348-3.822-4.43-5.856-7.689-8.009-1.254-.828-2.549-1.685-3.765-2.656-2.3-1.845-3.256-4.162-4.175-6.4-1.192-2.906-2.223-5.417-6.135-6.9-5.092-1.933-7.372-1.939-11.585-1.926h-.623a1.413,1.413,0,1,1,0-2.825l.619,0c4.219.023,7.012-.007,12.592,2.112,5.058,1.921,6.486,5.4,7.747,8.469.82,2,1.595,3.88,3.327,5.267,1.114.892,2.353,1.712,3.554,2.5,3.509,2.317,7.135,4.715,8.8,9.429a18.7,18.7,0,0,1,.639,7.473,15.992,15.992,0,0,0,.379,5.863c.773,2.319,2.844,4.134,5.037,6.056a23.483,23.483,0,0,1,5.137,5.589c1.581,2.735.886,6.249.147,9.968-.812,4.1-1.654,8.345.909,11a1.413,1.413,0,0,1-1.017,2.395" transform="translate(-154.598 -17.634)" fill="#571519"/>
    <path id="パス_10423" data-name="パス 10423" d="M391.362,234.589a1.414,1.414,0,0,1-.524-2.726c2.97-1.19,3.177-1.873,3.179-1.88a4.778,4.778,0,0,0-.855-1.316c-1.127-1.436-3.012-3.838-.987-7.128a16.752,16.752,0,0,1,3.118-3.417c1.661-1.518,3.23-2.952,3.334-4.8.122-2.213-1.068-4.086-2.329-6.067-1.369-2.153-2.92-4.595-2.714-7.666.159-2.379,1.38-4.307,2.561-6.173,1.169-1.848,2.273-3.594,2.084-5.5-.232-2.3-1.9-3.971-3.67-5.736-2.474-2.466-5.552-5.538-3.5-10.666a1.413,1.413,0,0,1,2.623,1.049c-1.293,3.239.172,4.921,2.873,7.618,1.947,1.942,4.153,4.143,4.485,7.454.287,2.874-1.2,5.218-2.508,7.289-1.037,1.641-2.018,3.189-2.128,4.85-.142,2.147,1.033,4,2.28,5.959,1.378,2.167,2.938,4.622,2.763,7.742-.166,3-2.333,4.979-4.248,6.727a14.594,14.594,0,0,0-2.618,2.811c-.949,1.542-.375,2.4.805,3.9.83,1.058,1.773,2.26,1.362,3.794-.387,1.434-1.84,2.561-4.861,3.769a1.411,1.411,0,0,1-.525.1" transform="translate(-188.912 -82.662)" fill="#571519"/>
    <path id="パス_10424" data-name="パス 10424" d="M339.709,283.968a1.413,1.413,0,0,1-1-2.412,13.871,13.871,0,0,1,4.518-2.439c1.852-.746,4.386-1.767,4.565-2.848a5.083,5.083,0,0,0-.858-.711c-.817-.6-2.521-1.856-1.671-3.849a9.121,9.121,0,0,1,3.325-3.6c1.247-.922,2.323-1.718,2.658-3.046.211-.847-.532-2.626-1.188-4.192-1.074-2.57-2.289-5.481-1.194-7.889a5.5,5.5,0,0,1,3.508-2.837,1.414,1.414,0,0,1,.893,2.683,2.821,2.821,0,0,0-1.829,1.323c-.585,1.288.379,3.594,1.231,5.63.9,2.165,1.76,4.213,1.32,5.968-.58,2.314-2.248,3.545-3.721,4.634a6.709,6.709,0,0,0-2.4,2.439,3.531,3.531,0,0,1,.748.458c.849.625,2.266,1.67,1.969,3.454-.439,2.646-3.55,3.9-6.295,5.006a12.97,12.97,0,0,0-3.58,1.813,1.406,1.406,0,0,1-1,.414" transform="translate(-163.888 -121.149)" fill="#571519"/>
    <path id="パス_10425" data-name="パス 10425" d="M246.8,264.265a1.418,1.418,0,0,1-.294-.032c-3.654-.771-13.352-2.828-17.855-.256a1.414,1.414,0,0,1-1.4-2.457c4.822-2.75,13.133-1.473,19.84-.054a1.415,1.415,0,0,1-.29,2.8" transform="translate(-109.744 -125.908)" fill="#571519"/>
    <path id="パス_10426" data-name="パス 10426" d="M304.525,266.37a2.766,2.766,0,0,1-.939-.159c-.867-.315-2.74-1.544-1.367-6.131a1.415,1.415,0,0,1,2.711.81c-.637,2.126-.28,2.729-.276,2.733a5.875,5.875,0,0,0,2.927-3.344,1.413,1.413,0,0,1,2.6,1.109c-1.268,2.966-3.638,4.981-5.655,4.981" transform="translate(-146.174 -125.508)" fill="#571519"/>
    <path id="パス_10427" data-name="パス 10427" d="M230.229,410.331a1.419,1.419,0,0,1-1.362-1.79l1.123-4.084c.438-1.6.943-3.337,1.438-5.034.948-3.258,2.25-7.724,2.195-8.61-.5-.865-6.684-4.317-14.813-6.061-6.509-1.4-12.62-1.088-13.886-.566-.373.674-1.292,2.959-2.042,4.823-.795,1.974-1.679,4.169-2.494,6a1.413,1.413,0,0,1-2.582-1.15c.8-1.8,1.671-3.96,2.453-5.9,1.686-4.19,2.168-5.305,2.661-5.8,1.724-1.721,10.274-1.5,16.485-.169,6.323,1.358,16,5.034,16.95,8.138.324,1.07-.18,3.111-2.214,10.089-.49,1.682-.991,3.405-1.424,4.99l-1.124,4.086a1.414,1.414,0,0,1-1.363,1.04" transform="translate(-95.768 -184.541)" fill="#571519"/>
    <path id="パス_10428" data-name="パス 10428" d="M440.971,118.955a1.414,1.414,0,0,1-1.268-.791c-2-4.068-.423-8.322,1.1-12.439a23.868,23.868,0,0,0,1.854-6.955c.069-1.85-.863-3.4-1.944-5.193-2.163-3.591-4.855-8.064.918-16.111a1.413,1.413,0,0,1,2.3,1.648c-4.686,6.535-2.881,9.532-.791,13,1.2,2,2.448,4.066,2.347,6.758a26.236,26.236,0,0,1-2.03,7.832c-1.375,3.718-2.678,7.232-1.214,10.208a1.417,1.417,0,0,1-1.268,2.038" transform="translate(-212.268 -37.243)" fill="#571519"/>
    <path id="パス_10429" data-name="パス 10429" d="M466.35,116.614a1.413,1.413,0,0,1-1.132-.563c-2.646-3.532-1.266-8.748-.154-12.938A34.522,34.522,0,0,0,465.992,99c.417-3.322-.87-6.019-2.112-8.628-2.124-4.454-4.319-9.061,2.2-15.577a1.412,1.412,0,0,1,2,2c-5.1,5.1-3.654,8.149-1.646,12.364,1.353,2.837,2.885,6.051,2.368,10.193a36.37,36.37,0,0,1-1,4.489c-1.006,3.787-2.143,8.081-.315,10.515a1.412,1.412,0,0,1-1.132,2.262" transform="translate(-223.69 -36.033)" fill="#571519"/>
    <path id="パス_10430" data-name="パス 10430" d="M489.775,116.484a1.407,1.407,0,0,1-1.146-.582c-2.611-3.6-1.378-8.066-.186-12.387a29.082,29.082,0,0,0,1.272-6.305,16.763,16.763,0,0,0-2.068-8.63c-1.712-3.628-3.329-7.058,1.518-14.332a1.414,1.414,0,1,1,2.352,1.569c-3.963,5.943-2.909,8.177-1.314,11.557a19.608,19.608,0,0,1,2.337,9.937,31.32,31.32,0,0,1-1.371,6.956c-1.06,3.845-2.064,7.48-.253,9.974a1.412,1.412,0,0,1-1.141,2.243" transform="translate(-235.418 -35.665)" fill="#571519"/>
    <path id="パス_10431" data-name="パス 10431" d="M163.153,412.117a1.411,1.411,0,0,1-1.4-1.254c-2.778-24.649-3.112-40.563-1.021-48.649a1.414,1.414,0,1,1,2.738.708c-2.978,11.511.085,38.691,1.092,47.623a1.416,1.416,0,0,1-1.246,1.565c-.054,0-.108.007-.161.007" transform="translate(-77.211 -174.963)" fill="#571519"/>
    <path id="パス_10432" data-name="パス 10432" d="M345.715,516.265h-.032a1.411,1.411,0,0,1-1.38-1.445c.046-2.041.222-5.865.464-11.033,1.411-30.228,4.715-101.016-2.4-137.528a1.414,1.414,0,1,1,2.775-.543c7.183,36.848,3.868,107.873,2.452,138.2-.241,5.138-.419,8.936-.465,10.966a1.412,1.412,0,0,1-1.413,1.381" transform="translate(-165.847 -176.618)" fill="#571519"/>
    <path id="パス_10433" data-name="パス 10433" d="M231.545,430.269a1.415,1.415,0,0,1-1.2-.663c-6.288-10.05-29.669-20.9-37.556-19a1.413,1.413,0,0,1-.665-2.747c9.76-2.369,34.051,9.754,40.617,20.248a1.412,1.412,0,0,1-1.2,2.163" transform="translate(-92.551 -197.443)" fill="#571519"/>
  </g>
</svg>
