<svg xmlns="http://www.w3.org/2000/svg" xmlns:xlink="http://www.w3.org/1999/xlink" width="346" height="370.238" viewBox="0 0 346 370.238">
  <defs>
    <clipPath id="clip-path">
      <rect id="長方形_1050" data-name="長方形 1050" width="346" height="370.238" fill="none"/>
    </clipPath>
  </defs>
  <g id="グループ_4717" data-name="グループ 4717" transform="translate(0 -0.002)">
    <path id="パス_9442" data-name="パス 9442" d="M439.364,557.966l24.223,1.328,12.014-.388,5.657.169,18.4-4.085,95.752,19.646,5.447,2.507,11.892,3.2,12.766,4.394,7.828,4.013,7.206,5.089,5.806,5.661,3.857,7.021,2.748,8.859,2.763,12.787,5.18,33.083,3.234,13.511-7.716,6.1-6.2,3.034-6.529,2.8-29.839,7.3-4.833,14.292-5.174,14.072L600.3,733.915l-2.1,9.278-.554,9.089,1.9,12.179,3.765,13.931,3.076,12.566-148.036-.327-.152-13.047-.954-17.188-2.629-26.053-1.978-12.467L449.5,707.526l-1.749-12.915-.257-11.7.531-7.214,1.32-6.389,4.188-12.885,6.736-15.871-3.817-4.5-8.449-4.4-8.44-2.747-4.564-1.745-3.213-4-2.126-5.485-.686-5.556Z" transform="translate(-326.278 -422.127)" fill="#fff" fill-rule="evenodd"/>
    <g id="グループ_4718" data-name="グループ 4718" transform="translate(0 0.002)">
      <g id="グループ_4717-2" data-name="グループ 4717" transform="translate(0 0)" clip-path="url(#clip-path)">
        <path id="パス_9443" data-name="パス 9443" d="M672.538,13.1c6.547,1.692,10.14-.279,17.075,2.92s11.99,5.033,22.135,18.824a57.124,57.124,0,0,1,6.077,15.481c2,10.26,1.35,20.672,4.35,30.755,4.6,15.378,9.579,23.641,9.871,30.079a35.986,35.986,0,0,1-1.066,7.906c-1.34,4.653-3.611,9.1-3.007,14.01.329,2.667,1.919,5.431,3.642,6.413,2.776,1.578-4.077,3.176-6.457,2.423a19.756,19.756,0,0,0,5.164,8.177c4.523,4.35,11.594,8.14,15.19,12.97,2.862,3.843,3.089,8.282,2,8.5s-4.828-2.584-10.081-4.473c-5.456-1.962-13.128-3.927-18.339-5.54-3.873-1.2-5.861-2.229-7.343-2.781-1.574-.586-.536,11.783,1.3,15.681,4.327,9.178,10.807,19.124,9.428,33.439-.51,5.3-4.948,12.115-9.835,17.541-6.215,6.9-13.159,12.279-13.689,17.316-.326,3.093.15,7.027,1.4,9.361.884,1.649,2.761,1.938,2.356,3.045-.3.835-2.254,1.512-3.9,1.612a24.881,24.881,0,0,1-5.324-.573,9.58,9.58,0,0,1-5.906-1.351c-3.545-2.281-7.325-7.224-6.533-12.424a26.611,26.611,0,0,1,3.683-8.626c2.651-4.057,5.839-6.976,7.983-11.314,1.152-2.33,2.323-5.741,2.129-7.73-.147-1.5-.594-3.534-1.143-3.385-.489.13-.234,2.734-1.976,5.851-1.314,2.352-3.26,4.661-4.874,5.457a9.982,9.982,0,0,1-13.62-5.841c-.214-1.475,3.616,2.359,6.243,1.633,2.528-.7,3.857-5.961,3.551-7.386-1.325-6.184-6.641-13.708-10.013-19.293a47.249,47.249,0,0,1-4.235-9.348c-11.3-29.2-44.818-14.341-45.166-13.427-.488,1.284.075,7.145,1.9,13.337,1.8,6.111,4.858,12.517,6.976,19.3,2.656,8.505,1.474,15.609.354,18.594a32.273,32.273,0,0,1-6.013,8.663c-5.3,5.168-12.567,10.089-16.418,17.164-1.5,2.76-2.011,7.924-.665,10.908,1.045,2.319,4.166,2.688,2.671,3.656a4.8,4.8,0,0,1-4.109.731c-4.606-.914-11.389-4.04-12.591-4.649-2.494-1.256-9.587-4.931-8.363-13.4.705-4.89,3.092-9.8,6.067-15.181,2.443-4.421,5.456-9.506,6.779-12.186,1.184-2.4-.755-3.218-1.085-3.082-.779.322-2.008,1.529-3.844,2.1a8.883,8.883,0,0,1-6.434-.4,16.629,16.629,0,0,1-5.972-6.511,17.941,17.941,0,0,1-1.6-6.128,13.157,13.157,0,0,0,2.244,3.963c1.266,1.312,3.454,1.64,4.953,2.035,1.982.523,4.534-3.608,4.807-4.247,1.18-2.771,1.239-6.929-.028-11.153a55.008,55.008,0,0,0-5.589-11.769,39.348,39.348,0,0,1-3.432-6.949c-1.627-4.283-2.3-9.607-.265-14.4,3.347-7.9,10.431-13.9,15.551-18.92,3.457-3.391,6.112-7.286,5.775-7.416-2.658-1.022-3.59-.41-2.867-2.861.5-1.708.972-4.654.756-5.374-.988-3.525-4.852-9.092-7.838-12.263-3.217-3.433-5.99-7.28-6.5-10.524-2.353-12.259,1.544-11.493,8.291-26.819,3.845-9.111,12.585-37.927,17.852-46.2a55.4,55.4,0,0,1,14.393-15.133c6.747-4.712,16.9-6.975,25.7-5.867,8.072,1.057,14.073,4.347,17.477,5.078" transform="translate(-442.102 -5.892)" fill="#b96952" fill-rule="evenodd"/>
        <path id="パス_9444" data-name="パス 9444" d="M743.261,246.21s-8.329,2.628-13.584-3.417a72.083,72.083,0,0,1-10.108-15.546c-1.981-4.251-2.785-8.933-4.251-12.114-3.4-7.889-1.262-20.823-1.267-24.279-.016-10.368,6.941-14.572,7.986-18.942.366-1.7,3.578-8.555,5.046-11.908,1.451-3.107,8.889-7.358,15.521-6.9,4.072.284,8.092-.107,11.432,1.492,2.705,1.3,4.985,4.415,6.3,6.163,3.149,4.416,11.43,27.21,11.43,27.21s8.333,11.443,10.688,13.088c3.757,2.731,3.844,1.5,2.33-1.565s5.69-7.255,5.69-7.255,2.229-.091,5.193-.131c6.4.2,7.568,4.725,7.642,7.2.125,12.351-13.22,16.109-13.22,16.109s-11.423,14.31-23.131,22.008a57.325,57.325,0,0,1-23.7,8.785" transform="translate(-542.611 -116.43)" fill="#ffe4ce" fill-rule="evenodd"/>
        <path id="パス_9445" data-name="パス 9445" d="M762.31,454.522l4.737.25,3.966-.18.934-6.568-.805-10.53,35.127-21.01,18.482-11.751-.89,5.333.268,7.373.742,5.608-3.162,10.73-5.1,9.7-6.828,11.632-4.3,8.684-2.806,9.994.359,10.522-3.981,2.849L793.3,489.81l-6.2.871-6.562-.027-7.643-2.005-7.458-4.75-5.471-7.076-1.745-6.706,1.081-7.762Z" transform="translate(-576.713 -307.843)" fill="#ffe4ce" fill-rule="evenodd"/>
        <path id="パス_9446" data-name="パス 9446" d="M119.046,238.646l-17.534-5.883-17.164-4.353L71.977,225.6,58.546,222.6,45.922,218.72l-9.858-3.84-11.939-6.4L16.431,203.2,7.81,195.032l-2.4-3.934-.7-3.3,1.719-4.612,2.851-3.958,7.351-7.073,7.7-6.392,7.958-5.9,11.944-5.57,16.286-5.4,24.194-8.117,20.665-6.973,16.546-5.885,13.6-5.586,10.294-5.263,3.447-5.466,3.319-6.8,5.005-15.619,3.944-9.224,4.3-7.1,4.639-4.77,5.7-3.283,7.122-2.15,11.048-2.177,10.244-1.765,4.557-.427.973,1.851,1.884.3.086,2.305L208.794,65.5l-6.069,3.344-9.994,5.145-3.858,5.445-4.763,9.009,12.559-6.625,10.568-.929,4.342-.871,2.263.911-.142,2.124L210.994,86.1l-3.958,1.753-5.857,1.571-5.205,1.853-4.166,2.637-3.892,4.71-6.067,10.748-4.421,8.308-3.781,5.8L168.9,127.73l-6.433,3.771-8.99,4.524-43.681,29.116L92.9,177.866l12.763,2.291,10.8.231s6.029,13.134,6.673,27.7-4.1,30.56-4.1,30.56" transform="translate(-3.582 -44.335)" fill="#ffe4ce" fill-rule="evenodd"/>
        <path id="パス_9447" data-name="パス 9447" d="M1198.363,1088a47.993,47.993,0,0,0,7.39.171c1.914-.322,8.186-.847,10.182-1.209s7.763-.782,9.714-1.628,6.381-1.9,8.129-2.744,8.334-4.421,8.334-4.421l1.083,18.676,2.5,21.9,2.51,20.839,2.755,18.867,2.8,16.439,2.675,14-38.355.171Z" transform="translate(-911.483 -820.065)" fill="#ffe4ce" fill-rule="evenodd"/>
        <path id="パス_9448" data-name="パス 9448" d="M736.19,377.033a15.978,15.978,0,0,1-3.753-.377c-4.833-1.156-11.28-8.011-16.029-17.053a63.352,63.352,0,0,1-6.8-21.95,64.384,64.384,0,0,1-.058-11.313l.115-2.179a1.342,1.342,0,0,1,1.434-1.3,1.367,1.367,0,0,1,1.3,1.434l-.115,2.191a55.662,55.662,0,0,0,6.542,31.832c4.839,9.213,10.837,14.857,14.263,15.678,3.436.857,13.791.351,28.448-7.688,8.09-4.386,13.966-12.34,14.025-12.42a1.368,1.368,0,0,1,2.209,1.614c-.253.346-6.284,8.523-14.923,13.207-11.914,6.534-21.193,8.321-26.654,8.321" transform="translate(-539.52 -245.572)" fill="#571519"/>
        <path id="パス_9449" data-name="パス 9449" d="M789.546,300.074a1.359,1.359,0,0,1-.693-.19c-.56-.331-5.461-3.348-5.171-7.511a5.485,5.485,0,0,1,2.191-3.765,5.958,5.958,0,0,0,2.312-4.135,25.14,25.14,0,0,0-1.161-6.949,1.367,1.367,0,1,1,2.628-.754,27.447,27.447,0,0,1,1.256,7.961,8.679,8.679,0,0,1-3.17,5.877c-.86.8-1.276,1.219-1.327,1.955-.147,2.114,2.718,4.3,3.834,4.966a1.368,1.368,0,0,1-.7,2.544" transform="translate(-596.064 -209.761)" fill="#571519"/>
        <path id="パス_9450" data-name="パス 9450" d="M752.947,294.013c.209-1.787,1.384-1.122,3.327-.968s3.325-.113,3.17,1.329c-.288,2.692-1.419,4.683-3.4,4.792-1.966-.138-3.439-2.218-3.1-5.153" transform="translate(-572.659 -222.703)" fill="#571519" fill-rule="evenodd"/>
        <path id="パス_9451" data-name="パス 9451" d="M741.818,288.468a1.358,1.358,0,0,1-.616-.148c-4.647-2.352-7.1-1.539-8.531-.719a1.368,1.368,0,0,1-1.355-2.376c3.109-1.772,6.748-1.559,11.121.655a1.368,1.368,0,0,1-.619,2.588" transform="translate(-555.719 -216.043)" fill="#571519"/>
        <path id="パス_9452" data-name="パス 9452" d="M888.945,303.006c.127-1.577-1.406-1.318-3.109-1.684-1.965-.138-3.629-.969-3.734.712-.151,2.406,1.13,5.015,2.832,5.38,1.965.138,3.816-2,4.011-4.409" transform="translate(-670.923 -228.939)" fill="#571519" fill-rule="evenodd"/>
        <path id="パス_9453" data-name="パス 9453" d="M870.244,297.673a1.361,1.361,0,0,1-.912-.349c-1.626-1.457-6.792-2.985-9.307-1.173a1.368,1.368,0,0,1-1.6-2.218c3.858-2.781,10.435-.7,12.732,1.354a1.367,1.367,0,0,1-.913,2.386" transform="translate(-652.492 -222.546)" fill="#571519"/>
        <path id="パス_9454" data-name="パス 9454" d="M1026.63,330.95a1.367,1.367,0,0,1-.19-2.721,14.749,14.749,0,0,0,12.035-10.7c1.093-3.6.508-6.854-1.561-8.706-2.139-1.916-5.571-2.069-9.411-.424a1.367,1.367,0,1,1-1.077-2.514c4.86-2.081,9.349-1.754,12.313.9,2.881,2.581,3.763,6.888,2.358,11.523a17.454,17.454,0,0,1-14.273,12.626,1.3,1.3,0,0,1-.194.014" transform="translate(-779.823 -231.629)" fill="#571519"/>
        <path id="パス_9455" data-name="パス 9455" d="M1038.42,346.865a1.366,1.366,0,0,1-1.12-2.149c.2-.288,2.043-2.829,4.527-3.27a1.368,1.368,0,0,1,.479,2.693,5.72,5.72,0,0,0-2.766,2.148,1.368,1.368,0,0,1-1.12.579" transform="translate(-788.79 -259.69)" fill="#571519"/>
        <path id="パス_9456" data-name="パス 9456" d="M622.079,426.577a1.367,1.367,0,0,1-1.2-2.021c2.349-4.318-1.785-9.591-6.163-15.174-2.991-3.814-6.084-7.758-7.53-11.878a1.368,1.368,0,1,1,2.581-.905c1.295,3.693,4.247,7.456,7.1,11.1,4.732,6.033,9.624,12.271,6.414,18.169a1.366,1.366,0,0,1-1.2.714" transform="translate(-461.771 -300.96)" fill="#571519"/>
        <path id="パス_9457" data-name="パス 9457" d="M728.542,22.1a1.368,1.368,0,0,1-1.077-2.209C749.839-8.744,778.563,5.9,778.85,6.047a1.367,1.367,0,0,1-1.271,2.421c-1.094-.572-27.018-13.7-47.958,13.106a1.366,1.366,0,0,1-1.079.526" transform="translate(-553.094 -1.653)" fill="#571519"/>
        <path id="パス_9458" data-name="パス 9458" d="M917.37,208.074a1.337,1.337,0,0,1-.185-.012c-.489-.066-12.068-1.845-22.063-21.2a100.087,100.087,0,0,1-4.289-10.369c-2.991-8.018-6.38-17.107-12.221-20.86a1.368,1.368,0,1,1,1.478-2.3c6.607,4.246,10.166,13.787,13.306,22.2a98.371,98.371,0,0,0,4.157,10.072c9.276,17.964,19.9,19.73,20.008,19.745a1.368,1.368,0,0,1-.191,2.722" transform="translate(-667.8 -116.458)" fill="#571519"/>
        <path id="パス_9459" data-name="パス 9459" d="M1024.888,156.252a1.362,1.362,0,0,1-.822-.275c-6.26-4.711-4.107-11.816-2.207-18.085,1.044-3.446,2.124-7.008,1.837-10.018-.642-6.466-2.324-10.439-4.269-15.04a85.728,85.728,0,0,1-4.582-13.015,119.939,119.939,0,0,1-3.9-22.967c-.7-7.616-1.26-13.631-5.209-21.593-9.952-20.383-26.323-25.768-37.32-24.174a1.368,1.368,0,1,1-.391-2.707c11.9-1.717,29.569,3.975,40.165,25.674,4.172,8.41,4.778,14.962,5.48,22.549a117.468,117.468,0,0,0,3.822,22.513,82.491,82.491,0,0,0,4.456,12.654c2.033,4.806,3.79,8.956,4.474,15.84.338,3.552-.821,7.377-1.942,11.076-1.877,6.195-3.5,11.544,1.235,15.107a1.367,1.367,0,0,1-.824,2.46" transform="translate(-735.392 -21.368)" fill="#571519"/>
        <path id="パス_9460" data-name="パス 9460" d="M857.225,60.769a1.37,1.37,0,0,1-1.318-1.737A18.694,18.694,0,0,1,877.837,45.9a1.368,1.368,0,1,1-.528,2.684A15.978,15.978,0,0,0,858.542,59.77a1.369,1.369,0,0,1-1.316,1" transform="translate(-650.97 -34.626)" fill="#571519"/>
        <path id="パス_9461" data-name="パス 9461" d="M976.946,237.487a1.366,1.366,0,0,1-.744-.22c-10.181-6.606-11.623-15.811-13.149-25.556-.879-5.614-1.787-11.419-4.4-17.192a1.367,1.367,0,1,1,2.491-1.128c2.767,6.111,3.705,12.1,4.612,17.9,1.491,9.521,2.779,17.744,11.936,23.684a1.368,1.368,0,0,1-.746,2.515" transform="translate(-729.064 -146.483)" fill="#571519"/>
        <path id="パス_9462" data-name="パス 9462" d="M1028.391,435.513a1.368,1.368,0,0,1-1.364-1.288c-.208-3.569-.3-6.9-.375-9.836l-.053-1.974a1.366,1.366,0,0,1,1.327-1.407h.041a1.368,1.368,0,0,1,1.365,1.328l.054,1.98c.079,2.918.168,6.225.372,9.752a1.368,1.368,0,0,1-1.286,1.445l-.08,0" transform="translate(-780.837 -320.221)" fill="#571519"/>
        <path id="パス_9463" data-name="パス 9463" d="M783.075,568.544a1.367,1.367,0,0,1-.975-2.326c7.184-7.318,6.756-17.479,5.792-26.43a1.368,1.368,0,0,1,2.72-.293c1.031,9.572,1.459,20.469-6.561,28.639a1.363,1.363,0,0,1-.976.409" transform="translate(-594.572 -409.415)" fill="#571519"/>
        <path id="パス_9464" data-name="パス 9464" d="M394.373,558.588h-.043a107.9,107.9,0,0,1-22.211-2.552,1.368,1.368,0,1,1,.64-2.659,105.346,105.346,0,0,0,21.656,2.477,1.368,1.368,0,0,1-.042,2.735" transform="translate(-282.239 -420.873)" fill="#571519"/>
        <path id="パス_9465" data-name="パス 9465" d="M780.177,609.716a29.466,29.466,0,0,1-3.752-.262,1.368,1.368,0,0,1,.351-2.713,19.5,19.5,0,0,0,6.538-.068,1.368,1.368,0,0,1,.59,2.671,17.253,17.253,0,0,1-3.725.372" transform="translate(-589.647 -461.416)" fill="#571519"/>
        <path id="パス_9466" data-name="パス 9466" d="M114.206,422.1a1.357,1.357,0,0,1-.516-.1c-14.2-5.794-30.956-9.5-45.74-12.762-11.188-2.471-20.849-4.606-26.969-7.144-7.043-2.92-14.326-5.94-21.174-10.4C6.617,383.1.139,376.2,0,370.6c-.174-7.137,12.082-17.064,20.192-23.633l.663-.537c6.2-5.025,13.291-8.327,20.034-11.148,3.78-1.581,12.779-4.5,24.173-8.185,24.963-8.085,62.687-20.3,76.615-28.848a1.367,1.367,0,1,1,1.429,2.331c-14.2,8.717-52.116,20.994-77.2,29.118-11.333,3.67-20.285,6.569-23.96,8.107-6.556,2.741-13.439,5.941-19.367,10.748l-.664.538c-6.752,5.47-19.32,15.65-19.179,21.442C2.813,373.675,6.1,379.5,21.3,389.4c6.636,4.323,13.8,7.293,20.73,10.167,5.9,2.445,15.45,4.556,26.511,7,14.89,3.29,31.766,7.017,46.183,12.9a1.368,1.368,0,0,1-.517,2.634" transform="translate(0 -226.697)" fill="#571519"/>
        <path id="パス_9467" data-name="パス 9467" d="M167.524,444.713A1.368,1.368,0,0,1,167.3,442c18.1-3.076,32.975-14.791,47.357-26.119,5.791-4.562,11.78-9.28,17.862-13.328q4.707-3.134,9.344-6.239c12.732-8.514,24.757-16.556,36.368-23.656a1.368,1.368,0,1,1,1.427,2.333c-11.564,7.071-23.568,15.1-36.275,23.6q-4.637,3.1-9.349,6.241c-5.991,3.988-11.936,8.671-17.685,13.2-14.651,11.541-29.8,23.474-48.591,26.667a1.4,1.4,0,0,1-.231.019" transform="translate(-126.381 -283.292)" fill="#571519"/>
        <path id="パス_9468" data-name="パス 9468" d="M1391.033,1189.741a1.367,1.367,0,0,1-1.347-1.149c-.234-1.438-.632-3.678-1.151-6.6-2.542-14.316-7.832-44.107-11.156-76.749-.673-6.611-1.191-14.5-1.631-24.821a1.368,1.368,0,0,1,2.733-.115c.436,10.267.951,18.1,1.617,24.658,3.315,32.541,8.592,62.263,11.129,76.548.521,2.941.922,5.2,1.156,6.642a1.366,1.366,0,0,1-1.13,1.568,1.282,1.282,0,0,1-.221.018" transform="translate(-1046.403 -820.692)" fill="#571519"/>
        <path id="パス_9469" data-name="パス 9469" d="M1214.358,1220.208a1.367,1.367,0,0,1-1.338-1.09c-1.3-6.261-6.1-29.9-12.628-63.648-1.39-7.19-2.849-14.5-4.295-21.747-.981-4.918-1.956-9.8-2.9-14.6a1.368,1.368,0,1,1,2.684-.528c.943,4.8,1.918,9.682,2.9,14.6,1.447,7.251,2.906,14.568,4.3,21.763,6.524,33.732,11.322,57.355,12.62,63.612a1.367,1.367,0,0,1-1.061,1.617,1.386,1.386,0,0,1-.279.029" transform="translate(-907.535 -849.97)" fill="#571519"/>
        <path id="パス_9470" data-name="パス 9470" d="M512.377,1006.837l-.07,0a1.367,1.367,0,0,1-1.3-1.435c.966-19.091-3.227-57.338-5.774-68.8-3.9-17.537-7.087-34.609-3.382-50.666,2.014-8.732,5.677-17.376,9.219-25.736a194.906,194.906,0,0,0,8.017-21.155,1.368,1.368,0,0,1,2.626.765,197.14,197.14,0,0,1-8.125,21.458c-3.5,8.252-7.112,16.785-9.073,25.284-3.576,15.5-.439,32.239,3.387,49.457,2.575,11.582,6.812,50.238,5.835,69.531a1.367,1.367,0,0,1-1.364,1.3" transform="translate(-380.465 -637.434)" fill="#571519"/>
        <path id="パス_9471" data-name="パス 9471" d="M584.6,778.89a1.367,1.367,0,0,1-1.331-1.686,59.41,59.41,0,0,0,1.766-13.964,1.368,1.368,0,0,1,2.735,0,62.127,62.127,0,0,1-1.841,14.6,1.368,1.368,0,0,1-1.329,1.049" transform="translate(-443.613 -579.486)" fill="#571519"/>
        <path id="パス_9472" data-name="パス 9472" d="M1138.273,1227.569a1.368,1.368,0,0,1-1.338-1.089c-1.134-5.439-2.472-10.292-3.767-14.985-2.861-10.366-5.332-19.32-4.481-30.38.583-7.58,5.09-20.227,9.449-32.458,2.59-7.267,5.036-14.13,6.311-19.05a1.368,1.368,0,1,1,2.648.686c-1.306,5.037-3.771,11.957-6.383,19.283-4.1,11.5-8.742,24.534-9.3,31.748-.813,10.584,1.6,19.324,4.391,29.443,1.306,4.735,2.657,9.63,3.808,15.155a1.368,1.368,0,0,1-1.06,1.618,1.4,1.4,0,0,1-.28.029" transform="translate(-858.358 -858.407)" fill="#571519"/>
        <path id="パス_9473" data-name="パス 9473" d="M633.552,202.061a1.368,1.368,0,0,1-.588-2.6c8.68-4.118,14.134-7.675,16.674-10.874,3.231-4.071,5.588-8.753,7.868-13.283,2.773-5.512,5.642-11.212,10.127-15.946,3.148-3.323,7.838-4.655,12.374-5.944a43.109,43.109,0,0,0,6.949-2.386c.877-.428,2.967-2.514,3.125-3.352-.667-.4-3.524.112-4.484.283a15.219,15.219,0,0,1-2.037.285c-2.409.066-7.423.2-10.3,1.3a32.586,32.586,0,0,0-5.279,2.864c-2.833,1.756-5.763,3.573-8.933,3.994a1.368,1.368,0,0,1-.361-2.711c2.59-.344,5.265-2,7.853-3.607a35,35,0,0,1,5.748-3.1c2.911-1.106,7.1-1.362,11.2-1.473a15.418,15.418,0,0,0,1.631-.243c2.648-.473,5.948-1.063,7.293.92a2.582,2.582,0,0,1,.308,2.193c-.574,2.151-3.494,4.584-4.561,5.105a45.7,45.7,0,0,1-7.4,2.559c-4.182,1.188-8.5,2.416-11.137,5.2-4.208,4.441-6.86,9.713-9.669,15.294-2.342,4.652-4.763,9.463-8.17,13.754-2.845,3.584-8.451,7.284-17.642,11.645a1.364,1.364,0,0,1-.586.132" transform="translate(-480.843 -110.135)" fill="#571519"/>
        <path id="パス_9474" data-name="パス 9474" d="M706.836,91.864a1.369,1.369,0,0,1-1.293-1.814,10.724,10.724,0,0,1,1.5-2.643,13.135,13.135,0,0,0,.918-1.426l.393-.76c1.874-3.618,4.7-9.086,8.152-11.335a32.191,32.191,0,0,1,4.952-2.481,37.893,37.893,0,0,0,3.636-1.715c.333-.188.777-.416,1.291-.681,2.065-1.062,6.63-3.41,7.285-5.525-.125.02-.238.041-.31.055-.141.026-.262.048-.351.06a40.7,40.7,0,0,0-5.406,1.227c-1.1.3-2.234.613-3.384.87-.908.2-1.936.4-3.026.611-4.031.775-9.047,1.74-11.7,3.762a58.32,58.32,0,0,0-8.017,8.065,74.521,74.521,0,0,1-6.7,7.027,1.368,1.368,0,0,1-1.8-2.057,72.413,72.413,0,0,0,6.448-6.771,60.269,60.269,0,0,1,8.419-8.441c3.166-2.41,8.531-3.442,12.842-4.272,1.062-.2,2.062-.4,2.946-.594,1.086-.243,2.189-.546,3.256-.839a43.426,43.426,0,0,1,5.771-1.3c.054-.007.124-.021.206-.037a3.659,3.659,0,0,1,2.814.277,1.921,1.921,0,0,1,.777,1.317c.554,4.179-5.309,7.194-8.812,9-.479.246-.891.457-1.2.631a40.614,40.614,0,0,1-3.9,1.844,29.722,29.722,0,0,0-4.54,2.26c-2.843,1.855-5.474,6.939-7.216,10.3l-.4.766a15.3,15.3,0,0,1-1.1,1.734,8.619,8.619,0,0,0-1.15,1.964,1.368,1.368,0,0,1-1.293.922" transform="translate(-526.72 -46.168)" fill="#571519"/>
        <path id="パス_9475" data-name="パス 9475" d="M664.548,77.571a1.368,1.368,0,0,1-.9-2.4,48.109,48.109,0,0,0,5.8-6.575c2.483-3.168,5.051-6.444,8.319-8.659,3.684-2.5,9.04-3.41,13.766-4.216,1.858-.317,3.613-.616,5.163-.988a97.122,97.122,0,0,1,9.926-1.665l1.032-.137c1.217-.167,2.733-.376,3.724.646A2.772,2.772,0,0,1,712,56.1a1.367,1.367,0,1,1-2.7-.454c.008-.044.013-.083.016-.117a8.785,8.785,0,0,0-1.287.113l-1.046.14a95.082,95.082,0,0,0-9.648,1.614c-1.639.392-3.437.7-5.341,1.023-4.452.759-9.5,1.62-12.691,3.784-2.915,1.975-5.349,5.08-7.7,8.082a50.845,50.845,0,0,1-6.153,6.945,1.362,1.362,0,0,1-.9.339" transform="translate(-504.419 -40.158)" fill="#571519"/>
        <path id="パス_9476" data-name="パス 9476" d="M590.135,131.245a1.367,1.367,0,0,1-1.084-2.2c4.689-6.125,7.285-14.077,9.795-21.768,4.454-13.648,9.06-27.761,25.477-32.063a1.367,1.367,0,1,1,.692,2.645c-14.971,3.924-19.148,16.719-23.568,30.266-2.581,7.909-5.25,16.086-10.224,22.581a1.364,1.364,0,0,1-1.087.536" transform="translate(-447.822 -57.177)" fill="#571519"/>
        <path id="パス_9477" data-name="パス 9477" d="M589.194,572.179a9.65,9.65,0,0,1-5.71-2.287,1.368,1.368,0,1,1,1.641-2.188c2.249,1.687,4.092,2.155,5.474,1.383,2.054-1.141,3.325-5.207,2.956-9.457-.437-5.016-2.873-9.236-5.453-13.7-3.111-5.388-6.329-10.959-5.691-17.981.829-9.121,7.023-15.337,13.013-21.349,6.062-6.084,11.789-11.831,11.789-20.182a1.368,1.368,0,1,1,2.735,0c0,9.48-6.4,15.9-12.587,22.112-5.907,5.928-11.486,11.528-12.226,19.666-.56,6.157,2.3,11.116,5.335,16.365,2.616,4.529,5.32,9.213,5.809,14.833.4,4.591-.793,10.108-4.353,12.086a5.562,5.562,0,0,1-2.734.7" transform="translate(-442.925 -368.93)" fill="#571519"/>
        <path id="パス_9478" data-name="パス 9478" d="M588.639,826.04a9.194,9.194,0,0,1-3.537-.723c-5.1-2.115-9.1-8.825-9.1-15.278a1.368,1.368,0,0,1,2.735,0c0,5.338,3.326,11.058,7.414,12.751,2.768,1.145,5.637.348,8.294-2.309a1.367,1.367,0,0,1,1.934,1.934,11.013,11.013,0,0,1-7.737,3.625" transform="translate(-438.11 -615.081)" fill="#571519"/>
        <path id="パス_9479" data-name="パス 9479" d="M699.319,693.3a7.622,7.622,0,0,1-5.516-2.24c-3.007-2.983-3.793-8.488-1.91-13.389,2.314-6.025,7.14-10.174,11.808-14.187,5.643-4.852,10.973-9.434,12.014-17.033,1.182-8.632-1.76-16.226-4.874-24.266-2.483-6.409-5.05-13.037-5.307-20.2-.328-9.166,3.347-19.459,9.83-27.534a1.367,1.367,0,0,1,2.132,1.713c-6.084,7.578-9.534,17.194-9.23,25.723.24,6.7,2.613,12.827,5.124,19.31,3.1,8.011,6.312,16.294,5.033,25.626-1.18,8.625-7.159,13.765-12.94,18.735-4.613,3.967-8.97,7.713-11.037,13.094-1.482,3.857-.942,8.259,1.283,10.466,1.623,1.609,3.95,1.881,6.734.784a1.368,1.368,0,0,1,1,2.545,11.383,11.383,0,0,1-4.146.853" transform="translate(-525.485 -436.539)" fill="#571519"/>
        <path id="パス_9480" data-name="パス 9480" d="M610.486,910.4a1.37,1.37,0,0,1-.545-.113c-4.727-2.056-7.746-4.984-8.976-8.7-2.551-7.719,2.937-17.26,7.78-25.678A68.728,68.728,0,0,0,614,865.609a1.368,1.368,0,1,1,2.585.9,70.327,70.327,0,0,1-5.471,10.763c-4.557,7.92-9.721,16.9-7.555,23.455.989,2.991,3.433,5.3,7.471,7.053a1.368,1.368,0,0,1-.547,2.622" transform="translate(-456.606 -657.688)" fill="#571519"/>
        <path id="パス_9481" data-name="パス 9481" d="M653.6,997.977c-3.037,0-7-2.24-8.5-3.165-6.061-3.735-8.788-14.214-5.208-20.022a1.368,1.368,0,0,1,2.329,1.434c-2.839,4.608-.541,13.269,4.313,16.26,3.854,2.372,7.408,3.293,7.89,2.509a1.368,1.368,0,1,1,2.329,1.434,3.441,3.441,0,0,1-3.156,1.551" transform="translate(-485.493 -740.937)" fill="#571519"/>
        <path id="パス_9482" data-name="パス 9482" d="M949.616,534.418a6.928,6.928,0,0,1-4.872-2.4,1.367,1.367,0,0,1,1.934-1.934c1.054,1.055,2.6,2.141,3.988,1.319,1.656-.984,2.8-4.483,1.858-7.695-1.384-4.7-4.089-8.743-6.7-12.651-3.844-5.741-7.819-11.68-7.819-19.838,0-12.587,6.077-22.631,11.953-32.345,1.565-2.587,3.183-5.261,4.665-7.948,4.361-7.9,6.965-18.548,6.965-28.47a1.368,1.368,0,0,1,2.735,0c0,10.363-2.731,21.5-7.3,29.792-1.509,2.734-3.141,5.432-4.719,8.042-5.945,9.826-11.559,19.107-11.559,30.93,0,7.328,3.573,12.666,7.356,18.316,2.731,4.079,5.555,8.3,7.056,13.4,1.24,4.218-.143,9.071-3.085,10.817a4.817,4.817,0,0,1-2.447.668" transform="translate(-713.451 -320.281)" fill="#571519"/>
        <path id="パス_9483" data-name="パス 9483" d="M969.019,867.6c-4.665,0-9.681-3.087-11.181-10.339a1.367,1.367,0,1,1,2.677-.553c1.36,6.573,5.87,8.475,9.32,8.115,4.007-.423,8.3-4.027,8.255-10.938a1.367,1.367,0,0,1,1.359-1.376h.009a1.368,1.368,0,0,1,1.367,1.359c.057,8.613-5.509,13.126-10.7,13.675a10.566,10.566,0,0,1-1.1.058" transform="translate(-728.516 -648.422)" fill="#571519"/>
        <path id="パス_9484" data-name="パス 9484" d="M1005.443,872.374a9.205,9.205,0,0,1-5.814-1.777,14.638,14.638,0,0,1-4.091-4.236c-6.045-9.241-.422-16.563,4.538-23.023,2.811-3.66,5.466-7.117,6.309-10.842.9-3.995.145-6.165-.907-9.167a42.687,42.687,0,0,1-1.7-5.833,1.367,1.367,0,0,1,2.677-.553,40.653,40.653,0,0,0,1.6,5.483c1.112,3.173,2.071,5.913.993,10.675-.976,4.309-3.939,8.169-6.806,11.9-5.045,6.569-9.4,12.243-4.42,19.86a12.022,12.022,0,0,0,3.4,3.514c1.653,1.192,3.086,1.341,5.481,1.222a1.367,1.367,0,0,1,.139,2.731c-.475.025-.942.043-1.4.043" transform="translate(-755.216 -620.542)" fill="#571519"/>
        <path id="パス_9485" data-name="パス 9485" d="M1073.476,673.548a4.082,4.082,0,0,1-2.262-.694c-3.762-2.473-4.3-10.992-3.518-13.926,1.308-4.925,4.674-8.261,7.93-11.487q.681-.675,1.358-1.356c5.657-5.732,11.354-11.978,13.419-19.75,2.539-9.557-1.145-17.447-5.046-25.8-1.446-3.095-2.94-6.3-4.118-9.616-3.486-9.821-2.185-20.611,4.093-33.958a1.367,1.367,0,1,1,2.474,1.165c-5.951,12.651-7.219,22.781-3.99,31.879,1.135,3.2,2.6,6.336,4.019,9.374,3.936,8.427,8.005,17.142,5.21,27.659-2.237,8.42-8.2,14.976-14.116,20.968-.456.463-.918.92-1.379,1.377-3.133,3.106-6.094,6.039-7.211,10.248-.667,2.509.136,9.465,2.377,10.937.259.172,1.047.687,2.823-.714a1.367,1.367,0,1,1,1.693,2.148,6.112,6.112,0,0,1-3.756,1.546" transform="translate(-811.862 -423.032)" fill="#571519"/>
        <path id="パス_9486" data-name="パス 9486" d="M1041.351,1012.953a7.266,7.266,0,0,1-2.9-.635,12.559,12.559,0,0,1-6.916-11.217,1.368,1.368,0,1,1,2.733.114,9.9,9.9,0,0,0,5.274,8.595,4.067,4.067,0,0,0,4.855-1.032,1.367,1.367,0,1,1,1.947,1.921,6.949,6.949,0,0,1-4.991,2.255" transform="translate(-784.586 -760.445)" fill="#571519"/>
        <path id="パス_9487" data-name="パス 9487" d="M1198.667,589.03a1.367,1.367,0,0,1-1.222-1.98c1.377-2.75-1.883-7.108-4.025-9.25a59.25,59.25,0,0,0-6.6-5.454c-5.064-3.784-10.3-7.7-12.273-15.581a1.368,1.368,0,0,1,2.654-.664c1.735,6.939,6.146,10.236,11.255,14.054a61.394,61.394,0,0,1,6.9,5.712c1.681,1.68,6.974,7.538,4.537,12.408a1.37,1.37,0,0,1-1.224.755" transform="translate(-893.338 -422.186)" fill="#571519"/>
        <path id="パス_9488" data-name="パス 9488" d="M780.188,699.585a32.345,32.345,0,0,1-8.443-1.1c-9.592-2.606-16.45-9.5-19.311-19.418a1.368,1.368,0,0,1,2.628-.758c2.585,8.964,8.765,15.191,17.4,17.536,8.961,2.435,19.62.253,25.344-5.186a1.367,1.367,0,0,1,1.882,1.983c-4.693,4.457-12.023,6.947-19.5,6.947" transform="translate(-572.265 -515.172)" fill="#571519"/>
        <path id="パス_9489" data-name="パス 9489" d="M777.184,411.287c2.25-1.841,5.611,1.662,8.515,1.144,2.053-.366,3.929-2.3,6.018-2.53,2.308-.252,4.142,1.366,5.721,3.327,1.012,1.256,3.087,4.418,1.464,5.323-1.771.988-3.925.745-5.8.607-4.942-.366-9.893.768-14.719.412-2.569-.19-2.854-6.928-1.2-8.282" transform="translate(-590.346 -311.754)" fill="#fff" fill-rule="evenodd"/>
        <path id="パス_9490" data-name="パス 9490" d="M776.059,416.66c-.7,0-1.409-.022-2.111-.074-.809-.06-2.281-.528-3.059-2.989-.7-2.215-.714-6.236,1.092-7.715,1.891-1.545,4.133-.643,5.933.082a6.769,6.769,0,0,0,3.208.774,8.485,8.485,0,0,0,2.426-1.084,9.683,9.683,0,0,1,3.684-1.459c3.186-.349,5.478,2.02,6.935,3.829.644.8,2.716,3.571,2.312,5.648a2.491,2.491,0,0,1-1.248,1.726c-2.016,1.127-4.338.948-6.2.8l-.36-.027a48.124,48.124,0,0,0-7.244.206c-1.759.138-3.561.28-5.364.28M773.715,408c-.455.415-.832,2.993-.181,4.891.245.71.525.964.615.971a46.722,46.722,0,0,0,7.06-.206,50.472,50.472,0,0,1,7.659-.206l.368.028c1.614.125,3.283.252,4.566-.413a7.66,7.66,0,0,0-1.766-3.323c-1.7-2.108-3.091-2.989-4.508-2.825a7.645,7.645,0,0,0-2.633,1.12,10.52,10.52,0,0,1-3.294,1.4,8.7,8.7,0,0,1-4.71-.929c-1.581-.636-2.586-.99-3.178-.5" transform="translate(-586.01 -307.407)" fill="#571519"/>
        <path id="パス_9491" data-name="パス 9491" d="M455.961,646.895a1.365,1.365,0,0,1-1.135-.6c-3.845-5.692-10.846-7.766-16.471-9.432-3.114-.923-5.8-1.719-7.669-2.974-6.142-4.13-6.814-15.046-6.52-15.9a1.369,1.369,0,0,1,2.643.2c.606,3.188,2.437,7.433,4.338,8.728,1.018.693,2.251,1.538,2.783,1.4.216-.058.5-.4.751-.919,2.934-5.986,6.853-23.961,6.072-37.408a71.366,71.366,0,0,0-5.917-24.174c-.659-1.549-.815-1.917-.591-2.523.386-1.046.388-1.043,5.857-.66,4.2.3,11.236.791,18.288.962,3.068.072,6.212-.055,9.25-.179,4.173-.171,7.775-.318,10.132.122a1.367,1.367,0,1,1-.5,2.688c-2.051-.384-5.677-.235-9.517-.078-2.937.121-6.265.257-9.428.18-7.116-.171-14.188-.669-18.414-.967-.845-.06-1.671-.118-2.365-.164a73.683,73.683,0,0,1,5.939,24.635c.806,13.878-3.286,32.527-6.347,38.77a4.056,4.056,0,0,1-2.508,2.359c-1.568.413-3.069-.465-4.527-1.444a8.454,8.454,0,0,0,2.112,2.1c1.518,1.02,4.022,1.762,6.92,2.621,6.044,1.791,13.567,4.019,17.962,10.525a1.367,1.367,0,0,1-1.132,2.133" transform="translate(-322.58 -427.763)" fill="#571519"/>
        <path id="パス_9492" data-name="パス 9492" d="M1144.6,751.362c-5.208,0-9.225-.579-10.243-1.9-.97-1.26-1.755-7.122-3.78-25.3-1.019-9.156-2.073-18.624-2.907-22.737a1.368,1.368,0,1,1,2.682-.543c.857,4.233,1.918,13.762,2.943,22.977,1.1,9.846,2.456,22.054,3.236,23.916,1.935,1.22,16.956,1.58,30.743-1.882,10.839-2.721,20.168-9.737,21.948-11.652-1.927-6.074-3.444-16.015-5.048-26.52-2.764-18.1-5.9-38.621-11.983-47.123-2.691-3.76-10.351-9.98-18.032-13.471-7.552-3.433-15.5-5.66-21.892-7.45-4.963-1.39-8.547-2.394-10.2-3.5a1.368,1.368,0,1,1,1.517-2.276c1.3.864,5.063,1.919,9.424,3.141,6.138,1.719,14.543,4.074,22.288,7.594,8.2,3.728,16.163,10.233,19.124,14.369,6.467,9.034,9.652,29.9,12.462,48.3,1.64,10.739,3.189,20.884,5.135,26.663a1.568,1.568,0,0,1-.145,1.286c-1.111,2.033-11.671,10.211-23.925,13.287a105.685,105.685,0,0,1-23.341,2.818m44.82-16.517h0Z" transform="translate(-852.982 -481.976)" fill="#571519"/>
        <path id="パス_9493" data-name="パス 9493" d="M862.128,246.208a1.364,1.364,0,0,1-.921-.356c-.754-.687-3.7-1.009-6.067-1.267-4.727-.517-9.615-1.052-10.852-4.331a1.368,1.368,0,0,1,2.56-.965c.643,1.708,5.236,2.21,8.589,2.576,3.327.363,6.2.677,7.612,1.964a1.367,1.367,0,0,1-.921,2.379" transform="translate(-642.104 -181.332)" fill="#571519"/>
        <path id="パス_9494" data-name="パス 9494" d="M830.924,239.471a1.365,1.365,0,0,1-1.1-.55,7.128,7.128,0,0,1-1.383-5.379,1.368,1.368,0,0,1,2.707.391,4.443,4.443,0,0,0,.869,3.352,1.368,1.368,0,0,1-1.1,2.185" transform="translate(-630.061 -176.742)" fill="#571519"/>
        <path id="パス_9495" data-name="パス 9495" d="M757.389,243.385a23.747,23.747,0,0,1-4.17-.493c-.48-.088-.93-.17-1.327-.227a1.368,1.368,0,0,1,.393-2.707c.426.062.909.15,1.424.244,2.92.533,5.579.891,6.058-.558a1.367,1.367,0,1,1,2.6.858c-.753,2.282-2.811,2.883-4.974,2.883" transform="translate(-571.003 -181.56)" fill="#571519"/>
        <path id="パス_9496" data-name="パス 9496" d="M799.215,237.931a1.367,1.367,0,0,1-1.159-2.092,5.832,5.832,0,0,0,.979-3.858,1.367,1.367,0,1,1,2.7-.411,8.5,8.5,0,0,1-1.361,5.717,1.367,1.367,0,0,1-1.162.643" transform="translate(-606.849 -175.25)" fill="#571519"/>
        <path id="パス_9497" data-name="パス 9497" d="M537.405,41.453a1.345,1.345,0,0,1-.392-.058c-.877-.262-2.073-.524-3.338-.8-2.86-.626-6.1-1.337-8.027-2.535a1.481,1.481,0,0,1-.708-1.717c.366-1.171,1.489-1.116,3.2-1.037.272.013.521.026.7.026l.526,0a19.608,19.608,0,0,0,4.868-.38c2.178-.57,2.189-1.587,2.193-2.021.058-5.517-8.042-12.371-12.88-16.466-.832-.7-1.581-1.338-2.2-1.886-.225-.2-.663-.643-1.219-1.21-.577-.588-1.371-1.4-2.182-2.176q-.754-.488-1.494-1c-2.819-1.93-2.227-2.9-1.973-3.311a1.407,1.407,0,0,1,1.956-.445,17.811,17.811,0,0,1,3.209,2.593q.3.192.6.38,2.347,1.462,4.726,2.87l.291.173c3.731,2.217,7.96,4.734,12.03,4.186a6.708,6.708,0,0,0,4.788-2.424,6.288,6.288,0,0,0,.652-5.071c-.339-1.583-.722-3.269-1.221-4.875-.079-.255-.36-.855-.565-1.293-.5-1.077-.981-2.094.082-2.768a1.421,1.421,0,0,1,1.917.4c.555.67,1.08,1.325,1.589,1.961,2.742,3.428,4.908,6.134,9.248,7.892A1.368,1.368,0,0,1,552.748,13,19.922,19.922,0,0,1,545.2,7.64q.106.474.205.937a9,9,0,0,1-1.09,7.218,9.323,9.323,0,0,1-6.663,3.56,15.573,15.573,0,0,1-8.51-1.664c4.9,4.4,10.07,9.923,10.015,15.272-.014,1.322-.582,3.683-4.236,4.638-.354.092-.717.168-1.081.228l.423.092c1.317.288,2.561.561,3.536.854a1.368,1.368,0,0,1-.392,2.678" transform="translate(-391.137 -0.001)" fill="#571519"/>
      </g>
    </g>
  </g>
</svg>
