<svg xmlns="http://www.w3.org/2000/svg" xmlns:xlink="http://www.w3.org/1999/xlink" width="524.919" height="504.331" viewBox="0 0 524.919 504.331">
  <defs>
    <clipPath id="clip-path">
      <rect id="長方形_1051" data-name="長方形 1051" width="524.919" height="504.331" transform="translate(0 0)" fill="none"/>
    </clipPath>
  </defs>
  <g id="グループ_4719" data-name="グループ 4719" transform="translate(0 0.002)">
    <g id="グループ_4719-2" data-name="グループ 4719" transform="translate(0 -0.002)" clip-path="url(#clip-path)">
      <path id="パス_9498" data-name="パス 9498" d="M1451.2,909.283c-4.837-5.228-32.239-33.4-32.239-33.4l-25.934,35,60,45.307s23.089-14.253,20.032-20.622-17.02-21.05-21.855-26.277" transform="translate(-953.303 -599.397)" fill="#ffe4ce"/>
      <path id="パス_9499" data-name="パス 9499" d="M1480.554,1231.293c1.664,2.1,10.361-1.178,12.076-2.98s14.321-12.781,14.321-12.781l-22.275,7.947s-5.785,5.713-4.122,7.814" transform="translate(-1012.994 -831.833)" fill="#ffe4ce"/>
      <path id="パス_9500" data-name="パス 9500" d="M81.576,449.406,51.915,427.447c-3.555-2.854-6.438-.818-7.21,3.441s-1.751,7.607-6.046,14.306-3.378,8.059,1.621,14.052c7.375,8.842,16.387,12.939,29.2,16.961,4.8,1.507,10.124,2.247,11.252-7.136.526-4.373,3.678-6.215,4.333-12.209.6-5.479-3.489-7.456-3.489-7.456" transform="translate(-24.581 -291.611)" fill="#fff"/>
      <path id="パス_9501" data-name="パス 9501" d="M628.223,1224.353l-173.687-5.894s-4.931,63.964-2.407,119.709h85.665c2.516-20.311,4.19-36.674,4.19-36.674l4.945-5.494s2.352,19.138,5.51,42.168h80.444c-.007-16.716-.073-32.906-.258-43.729-.548-32.164-4.4-70.085-4.4-70.085" transform="translate(-308.917 -833.837)" fill="#6ea0a1"/>
      <path id="パス_9502" data-name="パス 9502" d="M176.195,136.313c-3.478-4.793-31.869-5.506-31.869-5.506-1.95-8.763.345-12.711-.855-18.927-1.031-5.295-3.831-11.382-8.163-11.2s-.33,8.847-3.123,20.723c-.667,3.369-1.222,12.2-4.027,17.028-4.59,7.9-9.5,10.309-18.4,24.991S81.7,201.292,78.329,212.784c5.911,12.3,15.658,16.712,29.786,17.419,6.935-15.331,10.349-42.023,27.978-48.071,6.187-.748,17.878-8.367,20.922-9.767,3.127-1.247,8.83,5.122,15.115,1.29,4.5-2.745,3.791-17.4,3.239-27.746-.218-4.092,1.81-8.238.825-9.6" transform="translate(-53.604 -68.895)" fill="#ffe4ce"/>
      <path id="パス_9503" data-name="パス 9503" d="M448.568,505.961s-9.5-5.476-16.944-11.012c-6.684-4.974-19.145-15.817-32.712-30.784S367.484,431.25,353.1,417.441c-15.633-15.009-23.544-20.99-35.563-22.626-11.6-1.579-47.107-4.576-53.022-12.418l-47.723-19.274s.858,11.151-.429,17.156l-.99,2.118c-7.3,6.57-35.3,2.92-46.98,3.65s-20.371,2.729-38.622,10.76-71.617,30.854-71.617,30.854L15.487,410.6s-10.626,40.6-10.9,48.268S9.514,482.964,33.88,480.5c14.741-1.491,30.006-6.565,41.887-10.13,16.426-4.928,63.8-13.84,70.914-11.1l174.023,16.943c13.041,1.02,24.729,14.6,37.506,24.092s30.115,30.846,52.93,37.964l35.282,18.671c6.27-11.12,13.513-21.487,24.459-28.984l7.63,2.219.793-6.542L457.362,504.7Z" transform="translate(-3.132 -248.499)" fill="#fff"/>
      <path id="パス_9504" data-name="パス 9504" d="M621.591,676.037c1.465-19.507,4.868-27.906,4.868-27.906l-179.531-10.3s2.717,9.039,6.486,27.557c3.663,18,6.067,53.377,4.425,65.7s-10.637,77.034-10.911,84.426,41.34,26.282,82.406,29.02,75.014-13.141,88.156-22.449l11.651-6.571c-.273-7.392-9.268-72.105-10.911-84.426s1.986-36.731,3.361-55.044" transform="translate(-305.849 -436.489)" fill="#fff"/>
      <path id="パス_9505" data-name="パス 9505" d="M611.495,427.254s19.062,34.45,41.247,34.968c23.7.553,44-31.877,44-31.877-23.823-11.867-61.924-7.085-85.242-3.091" transform="translate(-418.469 -289.362)" fill="#ffe4ce"/>
      <path id="パス_9506" data-name="パス 9506" d="M683.872,29.5s6.219-1.287,1.5-3c-8.578-3.432-12.652-13.082-19.515-16.728C659.424,6.341,653.2,4.2,643.983,4.84c-9.222.858-13.94,4.932-19.945,4.932-6.648,0-10.723-1.715-17.371,4.075-5.576,4.719-8.364,12.01-12.438,16.728-3.432,3.861-7.72,3-7.72,5.362,0,2.573,5.146,1.5,5.146,1.5a49.856,49.856,0,0,0-1.715,15.012c.214,9.007,4.289,21.446,7.077,22.733,3,1.5,8.149,3.646,12.438,3.431,10.079-.644,20.588-2.574,25.735-2.574,8.15,0,33.67,5.362,33.67,5.362s9.221-4.289,11.152-5.147c1.716-.644,7.291-17.586,7.72-23.805a71.564,71.564,0,0,0-.857-13.94Z" transform="translate(-401.37 -3.234)" fill="#926359" fill-rule="evenodd"/>
      <path id="パス_9507" data-name="パス 9507" d="M691.168,168.846s-3.861,6-6.22,4.932c-1.287-.429,1.716-5.79.214-13.939,0-.429-4.932-.858-9.436-3.861-3.646-2.573-4.289-6.648-7.077-5.361-2.574,1.072-.858,6-3.646,10.079A20.471,20.471,0,0,1,657.5,166.7l1.072-3.646,1.073-6.863a40.033,40.033,0,0,1-6.649,7.506c-5.147,4.075-11.58,6.863-11.795,6.219-.214-.858,4.718-7.72,6.862-13.725a24.493,24.493,0,0,0,1.287-11.152s-4.932,7.292-11.152,10.937a30.058,30.058,0,0,1-13.511,3.646s-.215.858-.643,3.217a21.519,21.519,0,0,0,.643,9.865c.429,4.289-5.79-2.574-5.79-2.574l-3-.429s-7.935,1.287-5.361,10.937a13.069,13.069,0,0,0,10.508,9.865,115.437,115.437,0,0,0,4.289,13.94,35.261,35.261,0,0,0,6.219,9.865s1.072,16.513-3,20.588c-3.646,3.86,53.184,3.431,50.611.214-3.216-4.075-1.5-19.944-1.5-19.944a71.754,71.754,0,0,0,6.647-12.01,65.947,65.947,0,0,0,3.646-12.653s9.65-4.5,10.723-9.865c.429-2.788.643-5.576.214-7.077-1.716-5.362-7.72-4.718-7.72-4.718" transform="translate(-417.459 -99.256)" fill="#ffe4ce" fill-rule="evenodd"/>
      <path id="パス_9508" data-name="パス 9508" d="M674.807,310.69c-.069,0-7.048-.349-17-7.659a29.393,29.393,0,0,1-10.475-13.377c-2.7-5.859-4.415-14-5.468-19.605a1.444,1.444,0,1,0-2.838.532c1.08,5.761,2.844,14.133,5.672,20.257a32.334,32.334,0,0,0,11.4,14.525c10.748,7.9,18.3,8.2,18.613,8.214h.043a1.444,1.444,0,0,0,.047-2.887" transform="translate(-437.293 -183.997)" fill="#571519"/>
      <path id="パス_9509" data-name="パス 9509" d="M716.95,323.157s2.145,10.623,10.723,11.154c8.149.266,11.366-10.888,11.366-10.888A64.093,64.093,0,0,0,728.1,322.36a90.361,90.361,0,0,0-11.152.8" transform="translate(-490.636 -220.603)" fill="#fff" fill-rule="evenodd"/>
      <path id="パス_9510" data-name="パス 9510" d="M735.305,243.359a7.133,7.133,0,0,0,2.808-5.135c.217-1.515-.057-3.671-.887-6.988a1.444,1.444,0,0,0-2.8.7c.263,1.051,1.063,4.248.822,5.94a4.4,4.4,0,0,1-1.853,3.317,4.845,4.845,0,0,0-2.011,3.372c-.271,3.793,4.08,6.427,4.577,6.714a1.444,1.444,0,0,0,1.45-2.5c-.855-.5-3.268-2.31-3.147-3.993.042-.507.29-.765,1.042-1.429" transform="translate(-500.505 -157.494)" fill="#571519"/>
      <path id="パス_9511" data-name="パス 9511" d="M691.418,232c-1.716.214-3,2.145-3,4.5.215,2.359,1.716,4.289,3.217,4.289,1.716-.214,3-1.93,3-4.5s-1.5-4.289-3.217-4.289" transform="translate(-471.108 -158.767)" fill="#571519" fill-rule="evenodd"/>
      <path id="パス_9512" data-name="パス 9512" d="M619.645,240.989a12.073,12.073,0,0,1-9.595-9.568c-.218-1.2-.773-5.268,1.253-7.212,1.137-1.091,3.016-1.35,5.588-.771a1.444,1.444,0,1,0,.634-2.818c-3.575-.8-6.342-.3-8.221,1.5-2.981,2.861-2.458,7.815-2.095,9.813a14.941,14.941,0,0,0,11.851,11.878,1.423,1.423,0,0,0,.294.031,1.444,1.444,0,0,0,.291-2.859" transform="translate(-415.342 -150.725)" fill="#571519"/>
      <path id="パス_9513" data-name="パス 9513" d="M681.8,184.3c-4.873.261-8.344,4.294-8.49,4.465a1.444,1.444,0,0,0,2.2,1.867c.027-.033,2.8-3.253,6.44-3.448a7.565,7.565,0,0,1,5.616,2.4,1.444,1.444,0,1,0,1.991-2.092,10.288,10.288,0,0,0-7.762-3.2" transform="translate(-460.539 -126.113)" fill="#571519"/>
      <path id="パス_9514" data-name="パス 9514" d="M857.706,216.771a1.444,1.444,0,0,0,.5,2.845c2.728-.479,4.7-.106,5.868,1.106,1.316,1.372,1.709,4,1.041,7.078a12.071,12.071,0,0,1-9.594,9.567,1.444,1.444,0,1,0,.585,2.828,14.921,14.921,0,0,0,11.841-11.83c.414-1.907,1.071-6.664-1.789-9.643-1.87-1.949-4.714-2.607-8.45-1.951" transform="translate(-584.676 -148.176)" fill="#571519"/>
      <path id="パス_9515" data-name="パス 9515" d="M627.5,243.206a1.444,1.444,0,0,0-1.292,2.583,5.79,5.79,0,0,1,1.743,1.983,1.444,1.444,0,1,0,2.525-1.4,8.575,8.575,0,0,0-2.976-3.163" transform="translate(-427.994 -166.33)" fill="#571519"/>
      <path id="パス_9516" data-name="パス 9516" d="M867.715,241.169a8.582,8.582,0,0,0-2.976,3.164,1.444,1.444,0,0,0,2.523,1.405,5.769,5.769,0,0,1,1.744-1.985,1.444,1.444,0,0,0-1.292-2.584" transform="translate(-591.65 -164.937)" fill="#571519"/>
      <path id="パス_9517" data-name="パス 9517" d="M689.178,231.4c-3.366-2.329-9.248-1.333-11.574.476a1.444,1.444,0,1,0,1.773,2.28c1.544-1.2,6-1.878,8.156-.381a1.444,1.444,0,1,0,1.645-2.375" transform="translate(-463.329 -157.426)" fill="#571519"/>
      <path id="パス_9518" data-name="パス 9518" d="M736.189,318.875a64.923,64.923,0,0,0-11.218-1.09,90.816,90.816,0,0,0-11.356.811,1.445,1.445,0,0,0-1.211,1.715c.1.478,2.474,11.717,12.091,12.311q.173.006.343.006c8.911,0,12.315-11.444,12.457-11.937a1.444,1.444,0,0,0-1.107-1.817m-11.557,10.863c-5.533-.342-8.048-5.778-8.963-8.487a86.786,86.786,0,0,1,9.3-.578,61.538,61.538,0,0,1,9,.752c-1.145,2.811-4.09,8.5-9.335,8.313" transform="translate(-487.505 -217.472)" fill="#571519"/>
      <path id="パス_9519" data-name="パス 9519" d="M784.406,268.893a1.441,1.441,0,0,0-1.686,1.153c-1.052,5.612-2.764,13.749-5.48,19.632A34.583,34.583,0,0,1,765.7,303.461c-9.8,7.2-15.742,7.232-15.834,7.226a1.444,1.444,0,0,0-.089,2.887l.094,0c.876,0,7.312-.273,17.533-7.783a37.48,37.48,0,0,0,12.471-14.93c2.838-6.148,4.6-14.521,5.685-20.284a1.444,1.444,0,0,0-1.154-1.685" transform="translate(-512.146 -183.995)" fill="#571519"/>
      <path id="パス_9520" data-name="パス 9520" d="M793.541,231.967c-1.715-.214-3.217,1.716-3.217,4.289s1.287,4.289,3,4.5c1.716-.214,3-1.93,3.217-4.289,0-2.359-1.287-4.289-3-4.5" transform="translate(-540.849 -158.732)" fill="#571519" fill-rule="evenodd"/>
      <path id="パス_9521" data-name="パス 9521" d="M777.655,184.3a10.285,10.285,0,0,0-7.762,3.2,1.444,1.444,0,1,0,1.992,2.092,7.466,7.466,0,0,1,5.6-2.4c3.621.184,6.432,3.419,6.457,3.449a1.444,1.444,0,1,0,2.2-1.867c-.145-.171-3.617-4.2-8.49-4.465" transform="translate(-526.56 -126.112)" fill="#571519"/>
      <path id="パス_9522" data-name="パス 9522" d="M793.868,231.667c-2.414-1.877-8.285-3.007-11.632-.433a1.444,1.444,0,1,0,1.76,2.289c2.194-1.687,6.626-.721,8.1.424a1.444,1.444,0,1,0,1.773-2.28" transform="translate(-534.927 -157.213)" fill="#571519"/>
      <path id="パス_9523" data-name="パス 9523" d="M836.155,142.253a1.445,1.445,0,0,0-1.353,1.53c.655,10.738-3.12,16.769-5.905,19.71a38.335,38.335,0,0,0-9.358-29.317,1.444,1.444,0,1,0-2.191,1.882,35.559,35.559,0,0,1,8.07,30.62,1.444,1.444,0,0,0,2.087,1.657c.462-.255,11.3-6.442,10.181-24.729a1.433,1.433,0,0,0-1.53-1.354" transform="translate(-559.104 -91.477)" fill="#571519"/>
      <path id="パス_9524" data-name="パス 9524" d="M640.343,160.427a1.444,1.444,0,0,0-2.01.358,27.017,27.017,0,0,0-4.093,21.608c-2.388-1.588-5.534-5.177-5.289-13.016a1.444,1.444,0,0,0-1.4-1.488,1.418,1.418,0,0,0-1.489,1.4c-.461,14.771,10.055,17.093,10.161,17.116a1.445,1.445,0,0,0,1.626-1.964c-.047-.113-4.547-11.4,2.851-22a1.444,1.444,0,0,0-.358-2.01" transform="translate(-428.429 -109.608)" fill="#571519"/>
      <path id="パス_9525" data-name="パス 9525" d="M597.3,121.483a1.444,1.444,0,1,0-2.594-1.269C589.74,130.37,594.3,144,599,153.649a1.444,1.444,0,1,0,2.6-1.265c-4.418-9.069-8.749-21.791-4.291-30.9" transform="translate(-405.508 -81.712)" fill="#571519"/>
      <path id="パス_9526" data-name="パス 9526" d="M887.219,97.761a1.445,1.445,0,0,0-.827,1.867c6.177,16.014-2.957,35.1-4.019,37.222a1.444,1.444,0,1,0,2.583,1.292c1.12-2.24,10.754-22.381,4.13-39.553a1.444,1.444,0,0,0-1.867-.827" transform="translate(-603.737 -66.835)" fill="#571519"/>
      <path id="パス_9527" data-name="パス 9527" d="M777.867,22.265c-.03,0-3.022-.516-8.329-4.644a34.1,34.1,0,0,1-4.732-4.78c-3.2-3.687-6.832-7.867-14.949-10.873-11.636-4.365-23.787-.829-30.15,4.3a1.444,1.444,0,1,0,1.813,2.248c5.927-4.779,17.214-7.637,27.329-3.844,7.43,2.752,10.656,6.467,13.777,10.06a36.238,36.238,0,0,0,5.139,5.166,31.518,31.518,0,0,0,7.681,4.633,9.881,9.881,0,0,1-8.327-.432,1.444,1.444,0,0,0-1.226,2.616,14.454,14.454,0,0,0,6.136,1.44c3.167,0,5.608-1.2,6.629-2.526a2.219,2.219,0,0,0,.11-2.861,1.493,1.493,0,0,0-.9-.5" transform="translate(-492.155 0.002)" fill="#571519"/>
      <path id="パス_9528" data-name="パス 9528" d="M621.323,16.088c-8.457-2.384-17.712,1.2-23.04,8.953-.331.5-.717,1.088-1.144,1.741a95.772,95.772,0,0,1-6.253,8.838,23.765,23.765,0,0,1-6.344,5.181c-1.1.651-1.9,1.126-1.94,2.115a2.766,2.766,0,0,0,1.59,2.627,7.5,7.5,0,0,0,3.59.786,12.906,12.906,0,0,0,7.645-2.611,1.444,1.444,0,1,0-1.751-2.3,9.525,9.525,0,0,1-7.588,1.821,26.68,26.68,0,0,0,6.986-5.737,97.592,97.592,0,0,0,6.481-9.143c.421-.645.8-1.229,1.117-1.7,4.686-6.816,12.484-9.875,19.864-7.792a1.444,1.444,0,1,0,.784-2.78" transform="translate(-398.691 -10.511)" fill="#571519"/>
      <path id="パス_9529" data-name="パス 9529" d="M725.648,135.457a1.44,1.44,0,0,0-1.515,1.37c0,.079-.487,8-8.276,14.19a23.071,23.071,0,0,1-7.831,4.419,55.393,55.393,0,0,0,6.075-13.009,35.024,35.024,0,0,0,.668-14.379,1.444,1.444,0,0,0-2.836.548,32.637,32.637,0,0,1-.618,13.072c-1.841,6.75-7.458,14.917-7.514,15a1.444,1.444,0,0,0,1.187,2.266c.241,0,5.962-.065,12.694-5.675,8.773-6.975,9.318-15.908,9.337-16.285a1.444,1.444,0,0,0-1.37-1.515" transform="translate(-481.462 -86.826)" fill="#571519"/>
      <path id="パス_9530" data-name="パス 9530" d="M765.1,101.816a1.446,1.446,0,0,0-.916,1.825c.031.093,3.062,9.413,1.032,18.75a20.554,20.554,0,0,1-6.85,11.284,30.619,30.619,0,0,0,1.77-9.472,1.444,1.444,0,1,0-2.888,0c0,6.005-3.247,12.586-3.279,12.651a1.444,1.444,0,0,0,1.887,1.961,23.408,23.408,0,0,0,12.182-15.806c2.2-10.136-.977-19.869-1.113-20.279a1.444,1.444,0,0,0-1.825-.914" transform="translate(-515.866 -69.626)" fill="#571519"/>
      <path id="パス_9531" data-name="パス 9531" d="M681.113,134.392a1.444,1.444,0,0,0-1.747,1.059c-2.413,9.853-15.172,15.8-22.54,15.414a1.444,1.444,0,1,0-.153,2.885q.408.021.832.021c8.588,0,21.958-6.574,24.667-17.633a1.444,1.444,0,0,0-1.059-1.747" transform="translate(-448.451 -91.94)" fill="#571519"/>
      <path id="パス_9532" data-name="パス 9532" d="M809.355,164.606c-10.869-2.766-13.913-9.388-14.044-9.684a1.444,1.444,0,0,0-2.652,1.144c.143.333,3.64,8.2,15.984,11.339a1.444,1.444,0,1,0,.713-2.8" transform="translate(-542.366 -105.424)" fill="#571519"/>
      <path id="パス_9533" data-name="パス 9533" d="M823.348,363.5a1.444,1.444,0,1,0-2.879-.222c-.036.464-.86,11.43.456,17.57a1.445,1.445,0,0,0,1.41,1.142,1.482,1.482,0,0,0,.3-.032,1.445,1.445,0,0,0,1.109-1.715c-1.228-5.729-.409-16.634-.4-16.743" transform="translate(-561.282 -247.693)" fill="#571519"/>
      <path id="パス_9534" data-name="パス 9534" d="M141.99,116.4a28.82,28.82,0,0,0-.234-7.931c-1.138-5.845-4.352-12.612-9.641-12.368-3.763.158-3.638,3.951-3.493,8.342a49.6,49.6,0,0,1-.986,13.543c-.165.835-.319,1.953-.5,3.249-.542,3.939-1.361,9.891-3.362,13.333A54.183,54.183,0,0,1,117.461,143a111.5,111.5,0,0,0-12.07,16.535c-3.182,5.248-7.633,11.52-12.346,18.16-8.362,11.781-17.008,23.963-19.233,31.545a1.444,1.444,0,1,0,2.772.813c2.089-7.117,10.593-19.1,18.817-30.686,4.744-6.684,9.225-13,12.46-18.334a107.559,107.559,0,0,1,11.793-16.152,56.462,56.462,0,0,0,6.62-8.862c2.288-3.935,3.154-10.227,3.726-14.391.172-1.25.321-2.33.459-3.031a51.992,51.992,0,0,0,1.05-14.249c-.132-3.994-.045-5.329.728-5.362l.122,0c3.165,0,5.615,5.171,6.562,10.034a26.16,26.16,0,0,1,.186,7.187,37.39,37.39,0,0,0,.677,11.779,1.444,1.444,0,1,0,2.819-.627,34.482,34.482,0,0,1-.615-10.958" transform="translate(-50.473 -65.762)" fill="#571519"/>
      <path id="パス_9535" data-name="パス 9535" d="M270.018,195.874a1.444,1.444,0,0,0,.433,2.855c13.57-2.058,33.5,1.466,34.939,3.806.564,1.8-.682,5.543-1.6,7.483a1.444,1.444,0,0,0,2.61,1.238c.294-.617,2.833-6.131,1.766-9.524-1.394-5.264-25.915-7.713-38.146-5.859" transform="translate(-183.943 -133.622)" fill="#571519"/>
      <path id="パス_9536" data-name="パス 9536" d="M321.875,217.711a1.444,1.444,0,0,0-.7,2.8c4.29,1.069,16.087,4.676,19.121,8.484,1.652,2.064.507,5.774-.975,8.323a1.444,1.444,0,1,0,2.5,1.452c2.033-3.5,3.295-8.378.735-11.577-4.188-5.258-19-9.068-20.68-9.485" transform="translate(-219.044 -148.957)" fill="#571519"/>
      <path id="パス_9537" data-name="パス 9537" d="M324.975,251.081a1.444,1.444,0,0,0-1.005,2.708c6.557,2.436,16.424,6.781,17.825,8.815,1.554,2.256-1.819,5.469-1.85,5.5a1.444,1.444,0,0,0,1.968,2.115c1.954-1.819,4.629-5.813,2.261-9.251-2.428-3.524-16.419-8.852-19.2-9.885" transform="translate(-221.06 -171.762)" fill="#571519"/>
      <path id="パス_9538" data-name="パス 9538" d="M229.72,320.982c-.769-.009-1.556-.053-2.349-.1-2.774-.151-5.643-.307-8.393.793-.841.386-2.209,1.165-3.94,2.151-4.581,2.608-12.247,6.973-16.552,7.494a1.432,1.432,0,0,0-.3.068c-13.721,4.707-18.884,20.551-23.439,34.53a135.974,135.974,0,0,1-4.869,13.421,1.444,1.444,0,1,0,2.632,1.19,137.835,137.835,0,0,0,4.984-13.717c4.33-13.288,9.235-28.342,21.494-32.646,4.889-.664,12.453-4.97,17.476-7.83,1.605-.914,2.991-1.7,3.649-2.008,2.092-.834,4.638-.695,7.1-.562.834.045,1.661.09,2.468.1a1.473,1.473,0,0,0,1.463-1.425,1.445,1.445,0,0,0-1.425-1.463" transform="translate(-116.168 -219.521)" fill="#571519"/>
      <path id="パス_9539" data-name="パス 9539" d="M342.45,292.9c-4.311-3.366-16.459-6.4-16.974-6.527a1.444,1.444,0,1,0-.694,2.8c3.342.827,12.711,3.518,15.878,5.99.412.329.244,1.241.182,1.512-.379,1.677-1.663,3.126-2.344,3.284-1.824.421-8.382,1.009-10.268-.712a1.444,1.444,0,1,0-1.946,2.134c1.663,1.516,4.576,1.92,7.211,1.92a32.23,32.23,0,0,0,5.657-.53c2.161-.5,3.988-3.171,4.506-5.46a4.212,4.212,0,0,0-1.209-4.417" transform="translate(-221.51 -195.944)" fill="#571519"/>
      <path id="パス_9540" data-name="パス 9540" d="M79.115,444.967a1.444,1.444,0,0,0-1.258,2.6c.032.015,3.165,1.585,2.682,6a16.6,16.6,0,0,1-2.29,6.63,15.024,15.024,0,0,0-2.042,5.563c-.382,3.174-1.286,5.243-2.689,6.149-1.729,1.118-4.355.516-6.7-.219-12.66-3.973-21.385-7.948-28.524-16.508-4.827-5.788-5.332-6.392-1.514-12.347,4.223-6.587,5.38-10.03,6.251-14.828.331-1.821,1.1-3.12,2.048-3.476s2.076.293,2.837.9a1.444,1.444,0,0,0,1.808-2.253c-2.439-1.957-4.424-1.817-5.656-1.356-1.944.726-3.358,2.791-3.88,5.666-.693,3.817-1.517,7.04-5.84,13.784-4.749,7.408-3.464,9.532,1.728,15.756,7.593,9.1,16.7,13.279,29.877,17.414a17.68,17.68,0,0,0,5.163.97,7.145,7.145,0,0,0,3.966-1.081c2.188-1.414,3.493-4.106,3.989-8.23a12.356,12.356,0,0,1,1.718-4.541,19.279,19.279,0,0,0,2.617-7.684c.7-6.418-4.092-8.814-4.3-8.913" transform="translate(-21.491 -288.472)" fill="#571519"/>
      <path id="パス_9541" data-name="パス 9541" d="M105.329,454.357c-4.125,2.07-10.788.694-16.977-3.509C80.7,445.653,73.419,440,75.578,433.043a1.444,1.444,0,0,0-2.759-.856c-2.744,8.842,5.741,15.5,13.91,21.05,4.741,3.22,9.831,4.93,14.191,4.93a12.675,12.675,0,0,0,5.7-1.228,1.444,1.444,0,1,0-1.3-2.582" transform="translate(-49.473 -295.066)" fill="#571519"/>
      <path id="パス_9542" data-name="パス 9542" d="M144.069,561.737c-7.872-3.028-56.455,6.448-71.848,11.067-1.459.437-2.969.9-4.523,1.372-10.827,3.3-24.3,7.41-37.094,8.7-9.443.955-16.722-.891-21.628-5.488A20,20,0,0,1,2.9,562.74c.265-7.42,10.273-45.717,10.375-46.1a1.444,1.444,0,1,0-2.794-.731C10.062,517.493.287,554.9.011,562.636A22.68,22.68,0,0,0,7,579.5c4.623,4.331,10.981,6.513,18.948,6.513a49.194,49.194,0,0,0,4.945-.259c13.074-1.322,26.7-5.477,37.646-8.815q2.324-.709,4.511-1.369C90.955,570.2,136.7,562,143.032,564.433a1.444,1.444,0,1,0,1.037-2.7" transform="translate(0 -352.315)" fill="#571519"/>
      <path id="パス_9543" data-name="パス 9543" d="M125.758,582.778a1.438,1.438,0,0,0-1.69,1.147c-.024.124-2.4,12.5-4.748,22.356l-.08.336c-.84,3.548-2.806,11.858-8.9,12.62a1.444,1.444,0,0,0,.177,2.877,1.462,1.462,0,0,0,.181-.011c8.084-1.011,10.374-10.688,11.352-14.821l.079-.332c2.365-9.922,4.751-22.358,4.775-22.482a1.444,1.444,0,0,0-1.146-1.69" transform="translate(-74.645 -398.798)" fill="#571519"/>
      <path id="パス_9544" data-name="パス 9544" d="M613.524,817.769c-13.419,9.5-46.894,24.879-87.225,22.186a199.93,199.93,0,0,1-56.281-12.671c-17.223-6.653-24.858-12.692-24.778-14.854.22-5.951,6.373-51.058,9.33-72.735.707-5.185,1.264-9.269,1.569-11.554,1.67-12.524-.7-47.776-4.441-66.174-3.739-18.371-6.491-27.594-6.518-27.685a1.444,1.444,0,0,0-2.766.831c.027.09,2.745,9.208,6.454,27.43,3.625,17.813,6.015,53.164,4.408,65.217-.3,2.282-.861,6.363-1.568,11.545-3.19,23.388-9.128,66.924-9.354,73.018-.355,9.595,45.313,27.952,83.753,30.515q4.832.321,9.53.316c36.841,0,66.9-14.064,79.556-23.029a1.444,1.444,0,0,0-1.67-2.356" transform="translate(-302.719 -433.358)" fill="#571519"/>
      <path id="パス_9545" data-name="パス 9545" d="M987,750.094c-1.147-8.6.35-23.446,1.8-37.8.578-5.729,1.175-11.653,1.573-16.946,1.418-18.881,4.7-27.3,4.767-27.472a1.445,1.445,0,0,0-2.678-1.085c-.142.351-3.505,8.832-4.97,28.34-.394,5.257-.964,10.9-1.565,16.873-1.465,14.518-2.979,29.532-1.787,38.47.305,2.287.863,6.375,1.571,11.568,2.957,21.673,9.109,66.771,9.329,72.72a1.445,1.445,0,0,0,1.442,1.391h.055a1.444,1.444,0,0,0,1.39-1.5c-.226-6.092-6.163-49.62-9.353-73-.708-5.189-1.266-9.275-1.569-11.56" transform="translate(-673.189 -455.693)" fill="#571519"/>
      <path id="パス_9546" data-name="パス 9546" d="M452.933,1215.436a1.444,1.444,0,0,0-2.88-.222c-.067.871-4.859,64.415-2.377,119.82h2.881c-2.483-55.179,2.309-118.727,2.376-119.6" transform="translate(-305.874 -830.703)" fill="#571519"/>
      <path id="パス_9547" data-name="パス 9547" d="M1009.851,1233.858a1.444,1.444,0,1,0-2.873.291c.038.379,3.854,38.231,4.394,69.964.183,10.766.249,26.962.256,43.7h2.888c-.007-16.757-.072-32.972-.256-43.754-.544-31.857-4.371-69.827-4.409-70.207" transform="translate(-689.108 -843.488)" fill="#571519"/>
      <path id="パス_9548" data-name="パス 9548" d="M731.392,1445.034c-11.9,1.278-25.322,15.566-25.888,16.173a1.444,1.444,0,0,0,2.114,1.969c.131-.141,13.258-14.108,24.083-15.271a1.444,1.444,0,1,0-.308-2.871" transform="translate(-482.538 -988.885)" fill="#571519"/>
      <path id="パス_9549" data-name="パス 9549" d="M750.7,1459.542a1.444,1.444,0,0,0-1.257,1.61c.05.407,2.378,19.284,5.493,41.992h2.915c-3.137-22.851-5.491-41.935-5.541-42.344a1.46,1.46,0,0,0-1.61-1.258" transform="translate(-512.865 -998.813)" fill="#571519"/>
      <path id="パス_9550" data-name="パス 9550" d="M726.235,1476.945a1.442,1.442,0,0,0-1.584,1.29c-.036.355-1.716,16.674-4.216,36.819h2.909c2.482-20.028,4.144-36.173,4.18-36.526a1.444,1.444,0,0,0-1.289-1.583" transform="translate(-493.021 -1010.724)" fill="#571519"/>
      <path id="パス_9551" data-name="パス 9551" d="M331.719,358.552a1.444,1.444,0,0,0-1.33,1.551c.008.108.812,10.817-.368,16.586l-.787,1.684c-5.019,4.1-20.888,3.585-32.519,3.209-5.116-.165-9.95-.321-13.375-.107-11.362.71-20.112,2.519-39.114,10.879-18.036,7.936-70.151,30.226-70.675,30.45a1.444,1.444,0,1,0,1.136,2.656c.525-.225,52.652-22.52,70.7-30.462,18.6-8.185,27.116-9.953,38.131-10.641,3.29-.205,8.055-.051,13.1.111,13.649.441,29.12.941,34.754-4.13a1.438,1.438,0,0,0,.342-.462l.99-2.117a1.479,1.479,0,0,0,.1-.309c1.315-6.14.492-17.106.456-17.57a1.447,1.447,0,0,0-1.55-1.329m-.318,18.6h0Z" transform="translate(-118.169 -245.367)" fill="#571519"/>
      <path id="パス_9552" data-name="パス 9552" d="M694.373,435.568a1.447,1.447,0,0,0-1.991.458c-.2.317-20.152,31.714-42.737,31.2-21.1-.493-39.83-33.887-40.017-34.224a1.444,1.444,0,0,0-2.527,1.4c.8,1.437,19.725,35.182,42.477,35.713.215.005.427.007.641.007,23.951,0,43.773-31.221,44.612-32.562a1.444,1.444,0,0,0-.458-1.991" transform="translate(-415.338 -295.809)" fill="#571519"/>
      <path id="パス_9553" data-name="パス 9553" d="M1093.791,778.92c-15.993-4.991-29.472-17.319-40.3-27.227-4.365-3.992-8.488-7.763-12.195-10.517-3.384-2.514-6.75-5.368-10-8.127-9.379-7.951-18.237-15.462-28.251-16.245a1.444,1.444,0,0,0-.226,2.879c9.083.711,17.6,7.928,26.608,15.569,3.29,2.789,6.69,5.673,10.149,8.243,3.589,2.665,7.659,6.389,11.968,10.33,11.043,10.1,24.786,22.671,41.392,27.853a1.444,1.444,0,1,0,.861-2.757" transform="translate(-685.351 -490.531)" fill="#571519"/>
      <path id="パス_9554" data-name="パス 9554" d="M1021.721,964.288c-52.909-6.908-108.114-8.767-108.114-8.767-8.949,3.222-8.247,26.582-.294,39.994,1.992,12.589-.8,45.747,24.283,67.029,14.335,12.161,104.249,24.37,121.352,16.479,29.928-13.811,32.885-47.846,40.165-57.706,0,0,20.468-21.962,14.957-34.613-2.552-5.857-46.726-16.461-92.348-22.416" transform="translate(-620.777 -653.899)" fill="#5e89bc"/>
      <path id="パス_9555" data-name="パス 9555" d="M1110.263,1103.728a1.446,1.446,0,0,0-2.019.3c-2.141,2.9-3.893,7.67-5.921,13.193-5.319,14.487-12.6,34.33-33.689,44.059-16.445,7.591-106.027-4.575-119.811-16.268-20.151-17.095-21.924-42.4-22.982-57.519-.238-3.4-.444-6.328-.808-8.635a1.444,1.444,0,1,0-2.853.451c.345,2.182.546,5.057.779,8.386,1.091,15.573,2.916,41.637,23.995,59.518,11.4,9.672,68.785,19.272,101.978,19.272,9.5,0,17.021-.787,20.913-2.583,22.173-10.232,30.006-31.568,35.189-45.686,1.952-5.315,3.636-9.905,5.533-12.474a1.444,1.444,0,0,0-.3-2.02" transform="translate(-631.07 -737.472)" fill="#571519"/>
      <path id="パス_9556" data-name="パス 9556" d="M1109.932,1093.96a1.444,1.444,0,0,0-2.031.218.679.679,0,0,1-.093.093c-.043.042-.083.085-.122.13a2.244,2.244,0,0,1-.26.239c-.029.025-.057.05-.083.077a2.841,2.841,0,0,1-.3.239c-6.088,4.861-27.685,8.7-96-.574-70.657-9.6-89.7-19.364-93.185-25.892a1.444,1.444,0,0,0-2.762.336,1.543,1.543,0,0,0,.16.919h0c5.378,10.38,37.475,19.631,95.4,27.5q41.716,5.665,66.367,5.664c16.423,0,27.066-1.894,31.809-5.678a5.543,5.543,0,0,0,.517-.433,4.963,4.963,0,0,0,.5-.473,3.331,3.331,0,0,0,.308-.333,1.445,1.445,0,0,0-.218-2.031" transform="translate(-626.223 -730.596)" fill="#571519"/>
      <path id="パス_9557" data-name="パス 9557" d="M1012.025,954.777c-63.339-8.6-105-13.179-106.948.952a7.585,7.585,0,0,0,1.71,5.725c7.527,9.914,41.359,19.017,100.558,27.055,30.479,4.139,54.838,6.236,72.448,6.236.462,0,.923,0,1.376,0,21.618-.139,32.594-3.584,33.553-10.535a7.05,7.05,0,0,0-1.542-5.349c-8.11-10.682-48.8-16.97-101.156-24.08m99.836,29.033c-.81,5.858-15.415,13.884-104.127,1.837-72.756-9.88-93.8-19.559-98.647-25.94a4.751,4.751,0,0,1-1.148-3.583c.655-4.754,9.812-6.487,23.285-6.487,21.49,0,53.956,4.409,80.412,8,49.9,6.777,91.818,13.183,99.244,22.965a4.212,4.212,0,0,1,.981,3.207m1.44.2h0Z" transform="translate(-619.335 -647.845)" fill="#571519"/>
      <path id="パス_9558" data-name="パス 9558" d="M905.048,975.765a1.444,1.444,0,1,0-2.354-1.674c-2.577,3.622-1.653,23.509,3.179,31.338a1.444,1.444,0,0,0,2.458-1.517c-4.493-7.281-4.816-25.991-3.282-28.147" transform="translate(-616.787 -666.191)" fill="#571519"/>
      <path id="パス_9559" data-name="パス 9559" d="M1535.284,1060.37a1.447,1.447,0,0,0-1.542,1.339c-.516,7.339-7.449,25.186-11.646,28.274a1.444,1.444,0,1,0,1.711,2.326c5.182-3.812,12.288-22.9,12.816-30.4a1.444,1.444,0,0,0-1.339-1.542" transform="translate(-1041.225 -725.648)" fill="#571519"/>
      <path id="パス_9560" data-name="パス 9560" d="M1024.278,958.463C964.4,950.33,925,946,923.152,959.43a7.244,7.244,0,0,0,1.63,5.467c7.124,9.383,39.1,17.994,95.052,25.592,28.8,3.91,51.815,5.89,68.455,5.89.437,0,.871,0,1.3,0,20.47-.131,30.864-3.409,31.777-10.022a6.74,6.74,0,0,0-1.473-5.113c-7.681-10.117-46.138-16.06-95.616-22.779m94.226,27.5c-.611,4.431-11.415,13.464-98.281,1.668-68.707-9.331-88.573-18.461-93.141-24.477a4.412,4.412,0,0,1-1.069-3.326c.613-4.447,9.2-6.07,21.854-6.07,20.281,0,51,4.172,76.02,7.57,47.128,6.4,86.707,12.447,93.7,21.663a3.9,3.9,0,0,1,.911,2.971m1.44.2h0Z" transform="translate(-631.706 -650.677)" fill="#571519"/>
      <path id="パス_9561" data-name="パス 9561" d="M1050.7,848.094c-16.751-9.177-29.461,2.621-31.774,5.854,39.961,22.458,71.8,25.045,91.856-1.224-24.514-25.852-43.33,4.547-60.082-4.63" transform="translate(-697.289 -576.241)" fill="#ff9cb1"/>
      <path id="パス_9562" data-name="パス 9562" d="M1444.285,974.672c-11.864-4.938-20.076-7.475-27.889-3.874l6.667,17.557,26.636,18.955c.875-6.388,4.99-3.063,8.64-11.311s-2.19-16.39-14.054-21.328" transform="translate(-969.294 -663.194)" fill="#d8eefa"/>
      <path id="パス_9563" data-name="パス 9563" d="M982.754,882.237c-12.225-5.942-22.159-.589-30.389,9.583a29.511,29.511,0,0,0-6.3,21.71l34.41.8,27.392-20.451c10.026,1.271,19.5,1.514,25.694-4.312-15.083-9.812-31.1,2.249-50.81-7.334" transform="translate(-647.295 -602.051)" fill="#b2be7e"/>
      <path id="パス_9564" data-name="パス 9564" d="M1127.41,874.4c-13.141,2.737-17.522,12.41-24.64,14.966s-10.951-3.651-21.719,1.97-25.547,19.084-25.547,19.084c35.1,11.327,102.552,19.672,120.587,12.88-1.46-11.5-9.988-22.984-15.28-30.57s-20.26-21.068-33.4-18.33" transform="translate(-722.321 -598.135)" fill="#ef9e67"/>
      <path id="パス_9565" data-name="パス 9565" d="M1048.75,1001.1c-5.108.621-8.3,1.136-8.3,1.136Z" transform="translate(-712.022 -685.087)" fill="#d5aae0"/>
      <path id="パス_9566" data-name="パス 9566" d="M1006.141,989.854c-16.321-1.745-36.206.083-47.19,1.419l-8.3,1.136s3.188-.515,8.3-1.136l5.028-.689c-3.65-1.46-5.476-4.016-22.45-3.833s-24.457.913-29.009,10.038-4.209,14.784,0,23.931,25.906,35.2,32.111,39.166,22.085,5.529,27.377,1.7,9.309-15.513,13.324-20.82,21.8-24.136,27.823-27.59l4.848-.5c-11.864-1.825,35.043-5.409,35.043-5.409v-2.621c-9.308-10.221-23-12.229-46.906-14.784" transform="translate(-622.224 -675.264)" fill="#d5aae0"/>
      <path id="パス_9567" data-name="パス 9567" d="M997.742,1012.495c-4.327,2.481-8.418,9.911-12.028,16.467a75.536,75.536,0,0,1-4.649,7.8,61.9,61.9,0,0,0-4.8,8.284c-2.448,4.72-5.223,10.07-8.217,12.238-4.761,3.449-20.068,1.887-25.752-1.744-5.855-3.738-27.331-29.326-31.578-38.552-4.218-9.167-4.222-14.255-.019-22.683,4.115-8.252,10.509-9.054,27.732-9.239,13.86-.154,17.3,1.54,20.078,2.9.576.282,1.172.574,1.82.832a1.444,1.444,0,0,0,1.074-2.682c-.548-.219-1.071-.475-1.624-.746-3.048-1.491-6.826-3.352-21.378-3.191-16.437.178-25.249.741-30.286,10.839-4.57,9.163-4.574,15.281-.019,25.179,4.469,9.708,26.355,35.763,32.646,39.78,3.977,2.539,11.358,4.136,17.936,4.136,4.529,0,8.676-.758,11.065-2.488,3.548-2.569,6.364-8,9.087-13.246a60.171,60.171,0,0,1,4.541-7.871,75.383,75.383,0,0,0,4.876-8.147c3.257-5.915,7.311-13.277,10.935-15.354a1.445,1.445,0,0,0-1.437-2.507" transform="translate(-619.107 -672.132)" fill="#571519"/>
      <path id="パス_9568" data-name="パス 9568" d="M1257.377,1058.788c-6.935-6.871-18.616-4.079-33.948-2.984s-11.681,4.178-11.681,4.178l3.286-.036c1.125,2.682-7.006,26.11-11.042,34.688s-6.844,22.677-6.844,22.677,24.639-2.692,37.507,7.3c13.292,10.323,33.948,7.589,33.948,7.589s8.35-48.518,2.1-59.867c-1.9-3.442-6.388-6.674-13.324-13.545" transform="translate(-819.253 -721.502)" fill="#f18878"/>
      <path id="パス_9569" data-name="パス 9569" d="M1380.609,1029.174c-8.659,2.744-28.65.656-28.99.4,0,7.323,27.115,17.087,27.115,35.024,10.352-4.746,14.844,6.57,20.675,4.915s8.275-8.3,6.57-20.042c-1.46-10.059-16.02-23.257-25.37-20.294" transform="translate(-924.964 -704.012)" fill="#8dc5fd"/>
      <path id="パス_9570" data-name="パス 9570" d="M1092.961,990.5c-23.828-2.548-55.551,2.513-55.869,2.565a1.444,1.444,0,0,0,.461,2.85c.314-.051,31.651-5.047,55.1-2.544,23.313,2.49,36.943,4.384,45.991,14.32a1.444,1.444,0,0,0,2.136-1.945c-9.753-10.71-23.812-12.682-47.821-15.247" transform="translate(-708.891 -677.346)" fill="#571519"/>
      <path id="パス_9571" data-name="パス 9571" d="M1191.284,1064.052c-7.156-1.1-11.673,4.539-16.059,9.991-3.656,4.544-7.108,8.836-11.826,9.381a1.444,1.444,0,0,0,.164,2.879,1.482,1.482,0,0,0,.167-.009c5.9-.682,9.886-5.643,13.746-10.441,4.051-5.036,7.885-9.79,13.367-8.947a1.444,1.444,0,1,0,.44-2.854" transform="translate(-795.283 -728.075)" fill="#571519"/>
      <path id="パス_9572" data-name="パス 9572" d="M1031.2,885.255c-7.931-5.16-15.983-4.59-24.5-3.986-8.327.588-16.934,1.2-26.464-3.435-11.464-5.572-22.28-2.218-32.143,9.973a30.729,30.729,0,0,0-6.6,22.857,1.443,1.443,0,0,0,1.421,1.2,1.492,1.492,0,0,0,.239-.02,1.445,1.445,0,0,0,1.189-1.66,28.324,28.324,0,0,1,5.995-20.566c9.033-11.162,18.4-14.167,28.635-9.192s19.632,4.3,27.931,3.718c8.373-.591,15.606-1.1,22.723,3.528a1.445,1.445,0,1,0,1.576-2.422" transform="translate(-644.144 -598.947)" fill="#571519"/>
      <path id="パス_9573" data-name="パス 9573" d="M1159.947,890.3l-1.082-1.545c-5.206-7.458-20.58-21.893-34.88-18.918-8.345,1.738-13.4,6.225-17.47,9.831-2.588,2.3-4.824,4.279-7.364,5.19-2.594.934-4.713.527-7.165.061-3.753-.714-8-1.524-14.734,1.988-10.811,5.641-25.242,18.742-25.851,19.3a1.444,1.444,0,1,0,1.944,2.135c.147-.133,14.766-13.4,25.243-18.871,5.839-3.048,9.408-2.368,12.856-1.711,2.629.5,5.347,1.017,8.682-.179,3.064-1.1,5.609-3.359,8.305-5.748,4.007-3.554,8.549-7.582,16.141-9.163,12.76-2.664,27.267,11.071,31.922,17.743l1.088,1.552c5.328,7.59,12.625,17.987,13.944,28.372a1.445,1.445,0,0,0,1.431,1.263,1.511,1.511,0,0,0,.183-.012,1.444,1.444,0,0,0,1.251-1.614c-1.409-11.1-8.944-21.832-14.446-29.669" transform="translate(-719.191 -594.99)" fill="#571519"/>
      <path id="パス_9574" data-name="パス 9574" d="M1261.571,1060.609c-1.835-1.689-3.913-3.6-6.308-5.976-6.155-6.1-15.4-5.212-27.11-4.094-2.551.244-5.188.5-7.957.695-10.781.77-12.766,2.5-13.286,4.1a2.478,2.478,0,0,0,.776,2.624,1.444,1.444,0,0,0,2.169-1.849,5.587,5.587,0,0,1,1.348-.592,1.405,1.405,0,0,0-.654,1.793c.6,2.722-6.787,24.639-10.995,33.581-4.064,8.638-6.837,22.427-6.952,23.01a1.443,1.443,0,0,0,1.572,1.717c.242-.027,24.214-2.507,36.465,7.005,9.021,7.006,21.087,8.237,28.452,8.237a54.093,54.093,0,0,0,6.572-.357,1.446,1.446,0,0,0,1.234-1.187c.344-2,8.361-49.15,1.94-60.809-1.349-2.45-3.831-4.736-7.264-7.9m2.657,67.136c-4.309.367-20.843,1.12-31.818-7.4-8.7-6.756-22.263-7.952-30.774-7.952-2.415,0-4.425.1-5.8.19.908-4.1,3.28-13.976,6.331-20.461,2.885-6.132,12.64-32.113,11.067-35.861a1.471,1.471,0,0,0-1.485-.909,45.709,45.709,0,0,1,8.651-1.234c2.8-.2,5.46-.454,8.027-.7,10.953-1.051,19.608-1.878,24.8,3.269,2.431,2.409,4.531,4.343,6.384,6.049,3.353,3.089,5.569,5.129,6.691,7.167,5.435,9.869-.9,50.656-2.078,57.844" transform="translate(-816.123 -718.374)" fill="#571519"/>
      <path id="パス_9575" data-name="パス 9575" d="M1390.4,1027.547c-4.853-3.042-9.6-4.064-13.36-2.869-7.921,2.508-26.318.769-28.079.41a1.444,1.444,0,0,0-1.348,2.514c1.275.97,21.9,2.491,30.3-.171,2.943-.928,6.831-.02,10.954,2.564,6.363,3.988,11.758,11.109,12.55,16.562,1.074,7.394.984,16.6-5.536,18.445-1.649.466-3.259-.565-5.754-2.287-3.486-2.4-8.259-5.7-15.128-2.551a1.444,1.444,0,0,0,1.2,2.625c5.376-2.464,8.887-.041,12.284,2.3,2.081,1.436,4.219,2.911,6.6,2.911a5.749,5.749,0,0,0,1.582-.222c4.709-1.336,9.851-6.175,7.606-21.64-.916-6.309-6.751-14.129-13.875-18.594m-41.046-2.249h0Zm0,0,0,0,0,0" transform="translate(-921.833 -700.892)" fill="#571519"/>
      <path id="パス_9576" data-name="パス 9576" d="M1441.709,970.227c-11.137-4.636-20.348-7.862-29.048-3.852A1.444,1.444,0,1,0,1413.87,969c6.968-3.21,14.469-1.208,26.73,3.9,6.943,2.89,11.737,6.909,13.5,11.316a10.092,10.092,0,0,1-.209,8.094c-1.656,3.741-3.343,4.8-4.832,5.73-1.667,1.044-3.391,2.123-3.919,5.969a1.445,1.445,0,0,0,1.235,1.628,1.551,1.551,0,0,0,.2.013A1.445,1.445,0,0,0,1448,1004.4c.343-2.508,1.094-2.978,2.589-3.914,1.658-1.038,3.926-2.458,5.941-7.008a13.058,13.058,0,0,0,.249-10.335c-2.051-5.135-7.4-9.72-15.07-12.911" transform="translate(-966.162 -660.083)" fill="#571519"/>
      <path id="パス_9577" data-name="パス 9577" d="M1395.928,821.673a39.573,39.573,0,0,1-4.685-3.793c-5.241-5.242-11.369-10.61-17.726-7.979-8.34,3.45-20.008,26.529-20.5,27.511a1.444,1.444,0,1,0,2.582,1.3c3.221-6.413,12.917-23.612,19.022-26.138,4.248-1.754,8.9,1.671,14.579,7.352a41.758,41.758,0,0,0,5.025,4.085c5.249,3.83,8.075,6.276,5.116,12.029a1.444,1.444,0,1,0,2.568,1.32c4.233-8.231-1.194-12.19-5.982-15.683" transform="translate(-925.816 -553.773)" fill="#571519"/>
      <path id="パス_9578" data-name="パス 9578" d="M1009.693,543.363c-.094-.055-9.518-5.5-16.8-10.919-7.087-5.274-19.347-16.08-32.5-30.6-12.009-13.249-29.161-30.743-45.881-46.8-16.179-15.534-24.106-21.345-36.369-23.015-1.687-.23-3.878-.489-6.409-.789-13.3-1.576-40.968-4.854-45.655-11.067a1.444,1.444,0,1,0-2.305,1.739c5.009,6.641,27.207,9.777,47.62,12.2,2.512.3,4.686.555,6.36.783,11.471,1.562,19.079,7.184,34.758,22.236,16.675,16.01,33.774,33.45,45.742,46.652,13.3,14.669,25.723,25.618,32.919,30.972,7.424,5.523,16.989,11.05,17.086,11.106a1.444,1.444,0,0,0,1.442-2.5" transform="translate(-563.535 -287.152)" fill="#571519"/>
      <path id="パス_9579" data-name="パス 9579" d="M1433.568,878.7c-11.733,1.155-26.218,25.693-26.828,26.737a1.444,1.444,0,0,0,2.493,1.459c3.957-6.758,16.092-24.482,24.618-25.32a1.445,1.445,0,0,0-.282-2.875" transform="translate(-962.55 -601.325)" fill="#571519"/>
      <path id="パス_9580" data-name="パス 9580" d="M1508.6,1218.664c.5-.126.794-.2.794-.2s-.3.072-.794.2" transform="translate(-1032.39 -833.838)" fill="#ffe4ce"/>
      <path id="パス_9581" data-name="パス 9581" d="M1483.511,1046.528c-12.813,2.11-33.819,8.712-33.819,8.712s-1.659,10.87,25.374,5.4c1.184-.239-3.931,3.8-2.72,3.841-4.863,5.231-27.636,6.487-28.521,9.453-1.364,4.583,10.419,3.823,8.3,4.73-9.5,4.077-11.731,8.02-11.378,9.2,1.4,4.724,17.612.962,21.392.016.5-.132.793-.2.793-.2s-.291.078-.793.2c-2.3.608-9.12,2.552-12.948,5.143-2.458,1.662-2.929,3.085-2.274,4.859a2.479,2.479,0,0,0,3.058,1.438c4.722-1.224,14.125-3.062,17.506-3.7,4.38-.822,25.568-13,29.948-19.3s9.521-12.62,11.5-21.621c2.738-12.466-6.734-18.913-12.046-26.91-2.413-3.632.557,16.435-13.373,18.729" transform="translate(-985.937 -703.061)" fill="#ffe4ce"/>
      <path id="パス_9582" data-name="パス 9582" d="M1507.837,926.646c-4.641-6.985-40.964-43.928-42.508-45.5a1.444,1.444,0,0,0-2.059,2.025c.376.383,37.671,38.314,42.162,45.071a69.375,69.375,0,0,0,4.416,5.725c4.808,5.809,9.35,11.294,7.422,20.075-1.662,7.565-5.677,13.213-9.559,18.677q-.869,1.22-1.715,2.429c-4.032,5.8-24.838,17.92-29.029,18.706-3.275.614-12.822,2.479-17.6,3.718a1.061,1.061,0,0,1-1.341-.54c-.276-.749-.589-1.6,1.728-3.163,4.381-2.964,13.184-5.118,13.273-5.139a1.444,1.444,0,0,0-.679-2.808c-.382.092-9.4,2.3-14.212,5.555-1.8,1.216-4.052,3.221-2.819,6.556a3.815,3.815,0,0,0,3.651,2.48,4.485,4.485,0,0,0,1.123-.145c4.7-1.219,14.161-3.066,17.41-3.674,4.684-.879,26.3-13.33,30.868-19.9.557-.8,1.125-1.6,1.7-2.406,4.05-5.7,8.238-11.591,10.025-19.73,2.231-10.156-3.214-16.733-8.018-22.536a66.372,66.372,0,0,1-4.236-5.482" transform="translate(-995.687 -602.708)" fill="#571519"/>
      <path id="パス_9583" data-name="パス 9583" d="M1484.02,1184.983c-4.595,2.081-17.131,7.611-19.928,8.182-3.547.725-19.62,2.3-24.462,2.759a.681.681,0,0,1-.741-.535,2.767,2.767,0,0,1,1.594-3.41c4.035-1.953,12.183-3.7,12.265-3.722a1.444,1.444,0,1,0-.6-2.824c-.348.074-8.571,1.84-12.921,3.945a5.665,5.665,0,0,0-3.177,6.532,3.536,3.536,0,0,0,3.5,2.906c.119,0,.237-.005.357-.017,6.251-.6,21.178-2.072,24.763-2.8,3.623-.74,18.821-7.6,20.543-8.381a1.444,1.444,0,1,0-1.192-2.631" transform="translate(-982.655 -810.839)" fill="#571519"/>
      <path id="パス_9584" data-name="パス 9584" d="M1501.656,1085.568c-.235.012-5.826.3-11.541,1.145-4.623.68-18.676,4.607-24.5,6.263a3.583,3.583,0,0,0-2.33,2.057,3.515,3.515,0,0,0,.136,3.047,9.852,9.852,0,0,0,7.168,5.267,13.266,13.266,0,0,0,2.234.17,51.541,51.541,0,0,0,7.714-.874c3.881-.627,7.9-1.276,10.377-.562a1.444,1.444,0,1,0,.8-2.775c-3.1-.893-7.44-.192-11.634.485-3.328.537-6.769,1.091-9,.709a6.928,6.928,0,0,1-5.111-3.785.637.637,0,0,1-.022-.557.708.708,0,0,1,.46-.4c4.5-1.28,19.556-5.51,24.134-6.183,5.576-.821,11.213-1.116,11.269-1.119a1.444,1.444,0,0,0-.149-2.885" transform="translate(-1001.185 -742.894)" fill="#571519"/>
      <path id="パス_9585" data-name="パス 9585" d="M1487.411,1129.53c-.124.1-12.357,9.6-20.611,10.239-6.573.51-15.282-.487-18.722-.939a.718.718,0,0,1-.5-.314.642.642,0,0,1-.09-.524,4.441,4.441,0,0,1,2.883-3.013,30.838,30.838,0,0,1,8.437-1.134,39.819,39.819,0,0,0,8.644-1.035c5.952-1.606,16.817-10.91,17.277-11.305a1.445,1.445,0,1,0-1.884-2.191c-2.992,2.574-11.725,9.515-16.145,10.707a37.553,37.553,0,0,1-8.022.938,33.465,33.465,0,0,0-9.234,1.284,7.312,7.312,0,0,0-4.742,4.992,3.531,3.531,0,0,0,.473,2.882,3.61,3.61,0,0,0,2.532,1.577,121.907,121.907,0,0,0,15,1.109c1.483,0,2.943-.046,4.326-.154,9.125-.71,21.638-10.43,22.167-10.842a1.444,1.444,0,0,0-1.78-2.276" transform="translate(-988.578 -765.75)" fill="#571519"/>
      <path id="パス_9586" data-name="パス 9586" d="M1501.322,1224.292c-4.183,3.336-11.216,8.569-13.446,9.313a71.65,71.65,0,0,1-8.277,1.888.766.766,0,0,1-.07-.459c.076-.317.612-.813,1.887-1.26a1.445,1.445,0,0,0-.955-2.727c-2.151.754-3.413,1.88-3.749,3.345a4.27,4.27,0,0,0,1.2,3.7,1.44,1.44,0,0,0,1.023.425,1.549,1.549,0,0,0,.234-.019,81.883,81.883,0,0,0,9.622-2.154c3.429-1.143,13.228-8.912,14.334-9.794a1.444,1.444,0,1,0-1.8-2.258" transform="translate(-1010.512 -837.614)" fill="#571519"/>
      <path id="パス_9587" data-name="パス 9587" d="M1068.337,841.7c-7.5,2.824-13.973,5.261-20.075,1.919-17.385-9.526-30.959,2.53-33.642,6.28a1.444,1.444,0,0,0,2.349,1.681c2.368-3.31,14.387-13.93,29.906-5.428,7.268,3.982,14.657,1.2,22.481-1.749,11.394-4.291,23.176-8.732,37.246,6.106a1.445,1.445,0,1,0,2.1-1.988c-15.39-16.229-28.656-11.232-40.361-6.821" transform="translate(-694.158 -573.036)" fill="#571519"/>
      <path id="パス_9588" data-name="パス 9588" d="M222.412,48.622a1.444,1.444,0,1,0-2.63,1.194l3.361,7.4a1.444,1.444,0,0,0,2.63-1.194Z" transform="translate(-150.317 -32.694)" fill="#571519"/>
      <path id="パス_9589" data-name="パス 9589" d="M254.859,41.336a1.444,1.444,0,0,0-2.87.318l.96,8.669a1.444,1.444,0,0,0,1.433,1.285,1.383,1.383,0,0,0,.161-.009A1.444,1.444,0,0,0,255.819,50Z" transform="translate(-172.439 -27.407)" fill="#571519"/>
      <path id="パス_9590" data-name="パス 9590" d="M282.111,44.2a1.453,1.453,0,0,0-1.641,1.216l-1.095,7.364a1.445,1.445,0,0,0,1.216,1.641,1.5,1.5,0,0,0,.214.015,1.444,1.444,0,0,0,1.427-1.232l1.1-7.364a1.445,1.445,0,0,0-1.216-1.641" transform="translate(-191.176 -30.24)" fill="#571519"/>
    </g>
  </g>
</svg>
