<svg xmlns="http://www.w3.org/2000/svg" xmlns:xlink="http://www.w3.org/1999/xlink" width="665.837" height="346.897" viewBox="0 0 665.837 346.897">
  <defs>
    <clipPath id="clip-path">
      <rect id="長方形_1049" data-name="長方形 1049" width="665.837" height="346.897" fill="none"/>
    </clipPath>
  </defs>
  <g id="グループ_4716" data-name="グループ 4716" transform="translate(0 0.003)">
    <g id="グループ_4716-2" data-name="グループ 4716" transform="translate(0 -0.003)" clip-path="url(#clip-path)">
      <path id="パス_9314" data-name="パス 9314" d="M631.718,553.5c0-9.387.274-31.45-.289-50.277-.108-3.6-1.184-10.158-1.276-13.132-.2-6.575-.2-10-.29-11.556-.587-9.834,59.869-31.129,70.91-4.959,1.13,2.68-.348,16.17-.891,30.483-.725,19.092-.178,40.214-.178,44.011,0,7.65,1.855,131.989,1.855,131.989H629.944s1.774-111.412,1.774-126.56" transform="translate(-456.897 -334.415)" fill="#fff" fill-rule="evenodd"/>
      <path id="パス_9315" data-name="パス 9315" d="M595.573,30.577c.167-2.3,4.282-1.157,7.895-4.671,4.3-4.3,7.532-11.2,13.3-15.4,6.882-5.165,10.727-3.207,17.2-2.734,5.845.425,10.727-3.207,19.764-3.387,9.022.027,14.923,2.556,20.943,6.352,6.421,4.036,9.7,13.719,17.81,17.669,4.471,2-1.674,2.816-1.674,2.816L693.09,40.2a69.82,69.82,0,0,1-.155,13.63c-.858,6.024-7.487,22.121-9.2,22.626-1.939.7-11.22,4.219-11.22,4.219s-24.461-7.029-32.395-7.608c-5.01-.365-15.375.768-25.233.68-4.19-.1-9.048-2.548-11.864-4.223-2.623-1.451-5.707-13.847-5.277-22.63A48.663,48.663,0,0,1,600.477,32.4s-5.086.678-4.9-1.827" transform="translate(-432.023 -3.179)" fill="#81544b" fill-rule="evenodd"/>
      <path id="パス_9316" data-name="パス 9316" d="M628.483,224.386a34.427,34.427,0,0,1-5.355-10.044,112.57,112.57,0,0,1-3.187-13.874,12.759,12.759,0,0,1-9.53-10.348c-1.82-9.576,5.995-10.267,5.995-10.267l2.893.631s5.566,7.121,5.454,2.915a21.012,21.012,0,0,1,.073-9.648c.585-2.267.855-3.086.855-3.086a29.332,29.332,0,0,0,13.411-2.591c6.312-3.107,11.631-9.855,11.631-9.855a23.907,23.907,0,0,1-2.044,10.763c-2.513,5.694-7.8,12.024-7.654,12.874.163.641,6.624-1.616,11.923-5.218a39.082,39.082,0,0,0,7-6.834l-1.531,6.6-1.3,3.474a19.986,19.986,0,0,0,7.732-5.314c3-3.768,1.682-8.691,4.264-9.552,2.8-1.056,3.142,2.957,6.508,5.722,4.171,3.241,8.943,4.008,8.913,4.426.882,8.039-2.42,13.045-1.2,13.554,2.221,1.211,6.4-4.361,6.4-4.361s5.891-.2,7.181,5.14c.311,1.492-.1,4.19-.711,6.875-1.424,5.143-11.138,8.842-11.138,8.842a64.456,64.456,0,0,1-4.446,12.058A69.979,69.979,0,0,1,673.3,228.49s-14.135,10.872-23.2,10.183c-8.763-.665-21.624-14.287-21.624-14.287" transform="translate(-442.591 -114.771)" fill="#ffe4ce" fill-rule="evenodd"/>
      <path id="パス_9317" data-name="パス 9317" d="M639.642,381.009l53.449,2.124s-.092,2.177-.368,4.927a31.182,31.182,0,0,0-.171,6.454c.186,1.993-.057,3.442.261,4.758s.106,1.863,1.284,2.62a25.858,25.858,0,0,0,3.691,1.688s.816,2.337,1.411,4.578a33.908,33.908,0,0,1,1.208,6.813c.035,1.781-.577,2.326-1.385,4.114a59.694,59.694,0,0,1-4.6,8.1c-1.261,1.6-3.873,5.213-5.937,6.815s-6.028,4.7-7.882,5.826a44.31,44.31,0,0,1-9.683,3.72,28.329,28.329,0,0,1-8.279.366c-2.812-.377-4.153-.151-6.725-1.137a48.345,48.345,0,0,1-7.323-3.329,88.93,88.93,0,0,1-8.8-6.693,50.845,50.845,0,0,1-6.273-6.592c-1.668-2.083-3.061-3.607-3.544-4.83s-.161-3.069-.051-5.05a61.328,61.328,0,0,1,1.369-8.558,50.57,50.57,0,0,1,2.344-6.316c.675-1.27,1.769.305,2.92-.728s1.4-2.242,2.03-5.859a33.817,33.817,0,0,0,.85-6.921c0-2.375.211-6.885.211-6.885" transform="translate(-456.79 -276.382)" fill="#ffe4ce" fill-rule="evenodd"/>
      <path id="パス_9318" data-name="パス 9318" d="M363.225,506.611s.473-5.4.379-8.532.569-9.575.758-13.841a105,105,0,0,1,2.086-15.737c.949-3.886,3.129-11.85,5.119-15.643a76.41,76.41,0,0,1,6.826-11c2.086-2.56,5.4-4.742,8.058-6.826a22.828,22.828,0,0,1,9.386-3.888c2.75-.473,6.257-1.611,10.048-1.7s7.11-.57,9.575-.664,8.153-.286,8.153-.286a13.473,13.473,0,0,1,2.654-2.275c1.707-1.137,3.7-1.327,5.308-2.75s3.982-3.886,5.593-5.212A39.106,39.106,0,0,1,442,414.465a18.36,18.36,0,0,1,4.361-2.086s-.664,3.981-1.138,6.257-1.629,5.714-1.629,5.714l-3.14-.372a36.969,36.969,0,0,0-2.343,6.333,88.155,88.155,0,0,0-1.383,8.837c0,1.7-.373,4.365-.267,6.653s.426,8.145.746,10.807.9,7.931,1.011,11.071.46,14.831.46,19.227.116,23.138,0,28-.925,23.947-.694,29.73-.461,22.56-.346,28.691-.232,22.905-.232,27.765-.462,18.394-.462,21.4-.194,22.622-.194,22.622L389.307,645l.4-81.717Z" transform="translate(-263.482 -299.137)" fill="#6ea0a1" fill-rule="evenodd"/>
      <path id="パス_9319" data-name="パス 9319" d="M89.87,742.067a151.492,151.492,0,0,0-2.376-24.355C85.869,708.793,82.912,698.9,81,696.966c-.963-.977-15.03-1.136-25.52-2.386a73.119,73.119,0,0,1-17.81-4.418c-4.022-1.409-8.144-3.043-11.16-4.335a20.264,20.264,0,0,1-5.952-3.348c-.63-.561-.836-1.942,1.1-2.852,1.22-.574-8.264-2.715-13.03-5.4-2.41-1.357-2.576-3.963-1.653-4.315.7-.267-2.425-1.868-3.423-3.228-1.02-1.389.093-2.539,1.461-2.61.718-.037-1.32-2.563-.957-3.767.4-1.332,3.21-1.352,4.251-1.27,5.6.439,9.422,2.421,16.013,4.722,3.78,1.32,7.2,3.055,10.688,4.2a43.616,43.616,0,0,0,8.566,2.1c-4.8-2.73-6.955-5.707-7.463-7.961-.183-.815-.675-2,1.884-2.154,1.615-.1,2.33.614,4.139,1.3a33.052,33.052,0,0,0,7.717,1.731c7.249.7,16.2-.713,16.779-.713a23.813,23.813,0,0,1,6.294.476A67.229,67.229,0,0,1,88.491,668.9a28.73,28.73,0,0,1,10.294,9.162c2.619,3.659,3.166,7.622,5.217,12.471,2.86,6.766,7.1,14.753,10.308,21.59,1.875,4,5.2,10.521,5.2,10.521a6.706,6.706,0,0,1,3.39.68,35.13,35.13,0,0,1,4.93,2.892l.509,15.537s.676,48.065-.346,53.414c-.371,1.944-9.564,4.163-10.532,4.163a16.34,16.34,0,0,1-6.832-2.626,64.1,64.1,0,0,1-6.855-5.634,34.134,34.134,0,0,1-9.45-12.148c-3.076-6.335-3.343-15.056-3.657-22.246-.258-5.935-.8-10.514-.8-14.613" transform="translate(-2.285 -478.043)" fill="#ffe4ce" fill-rule="evenodd"/>
      <path id="パス_9320" data-name="パス 9320" d="M941.63,511.876s-.475-5.4-.379-8.531-.57-9.575-.759-13.842a104.881,104.881,0,0,0-2.086-15.736c-.947-3.888-3.129-11.851-5.119-15.643a76.262,76.262,0,0,0-6.826-11c-2.086-2.559-5.4-4.741-8.058-6.826a22.8,22.8,0,0,0-9.386-3.886c-2.748-.474-6.256-1.612-10.049-1.707s-7.111-.569-9.575-.663-8.152-.284-8.152-.284a13.418,13.418,0,0,0-2.655-2.276c-1.705-1.137-3.7-1.327-5.308-2.749s-3.982-3.886-5.593-5.215a39.247,39.247,0,0,0-4.835-3.79,18.377,18.377,0,0,0-4.36-2.086,25.037,25.037,0,0,0,.124,5.9,28.11,28.11,0,0,1,.529,4.413l3.8,1.412s2.275,3.7,2.648,5.825a89.933,89.933,0,0,1,1.324,9c0,1.7.284,6.272.177,8.56s-.034,6.873-.354,9.533-.6,8.334-.705,11.475-.618,13.345-.618,17.74-.026,22.945.089,27.8.28,29.772.28,29.772.463,22.559.347,28.69.63,21.88.63,26.737.336,18.59.336,21.6.224,22.492.224,22.492l47.892.334-.062-80.382Z" transform="translate(-622.655 -302.957)" fill="#6ea0a1" fill-rule="evenodd"/>
      <path id="パス_9321" data-name="パス 9321" d="M1582.119,658.431c0-17.574-1.129-42.184-1.905-62.671-.813-21.435-1.275-38.364-1.275-38.364l64.995-9.747a47.467,47.467,0,0,1,1.276,9.249c-.059,9.543-.831,34.853-1.682,58-.625,16.976-1.407,32.9-1.407,40.045,0,12.507-1.392,34.795-2.306,54.507-.82,17.656-1.173,33.549-1.173,33.549l-53.023.216s-.737-22.586-1.773-47.641c-.522-12.607-1.727-25.11-1.727-37.146" transform="translate(-1145.357 -397.262)" fill="#fff" fill-rule="evenodd"/>
      <path id="パス_9322" data-name="パス 9322" d="M1365.432,594.528c0-5.2-.846-13.39-.471-17.307,1.359-14.219,2.269-34.11,12.053-45.993,3.907-4.744,9.942-7.007,15.68-8.7,4.022-1.186,8.471-2.487,9.5-2.487a5.136,5.136,0,0,1,2.509-2.365c2.615-1.029,7.385-1.586,11.017-4.394,4.907-3.8,9.4-10.686,12.581-12.675,1.574-.986,4.323-2.572,4.453-2.244.255.646-1.489,6.115-3.583,9.394-2.152,3.367-4.662,4.553-4.755,5.862a134.029,134.029,0,0,0-.439,13.744c.31,9.4.212,18.243.613,28.777.644,16.875,1.759,35.642,1.759,49.544,0,6.437.64,18.036,1.208,32.027,1.249,30.743,3.02,70,3.02,70l-65.45.2s.179-16.63,1.456-35.1a410.05,410.05,0,0,0,.534-43.162c-.5-13.019-1.682-25.932-1.682-35.121" transform="translate(-990.068 -361.476)" fill="#fac963" fill-rule="evenodd"/>
      <path id="パス_9323" data-name="パス 9323" d="M1794.523,314.681l-2.551.348a9.82,9.82,0,0,1-3.477-3.652c-1.16-2.317-1.508-2.723-1.913-5.39a27.824,27.824,0,0,1-.289-4.984,8.661,8.661,0,0,1,3.246,1.739c1.969,1.508,3.42,2.9,5.272,4.115a15.119,15.119,0,0,0,5.275,2.666,12.676,12.676,0,0,0,5.8.348,27.029,27.029,0,0,0,4.81-.985c1.507-.406,1.217-.059,2.435.348s.464-.348,2.956-.7,6.634-1.923,11-2.472,9.272-1.029,14.383-1.608,11.136-1.694,15.537-2.515,9.412-1.772,12.731-2.733,7.252-2.225,10.708-3.422,6.233-1.891,10.233-3.357,4.88-1.9,7.322-2.765,4.981-1.865,4.981-1.865-.706-.748-5.092-2.465-11.91-5.005-16.733-7.1-14.68-5.667-19.066-7.382-11.706-5.107-13.966-6.1a44.786,44.786,0,0,1-6.844-3.624c-1.684-1.194-2.025-.857-2.788-3.094a47.067,47.067,0,0,1-1.4-8.473c-.271-2.457-.192-19.665.08-20.783s.758-2.123,1.792-2.254a11.288,11.288,0,0,1,4.527.788c1.91.643,7.746,2.667,12.531,4.271s12.583,4.427,17.043,5.858,13.094,4.734,16.794,5.933,10.385,3.985,13.969,5.075a109.467,109.467,0,0,1,12.172,4.3c3.368,1.551,8.047,2.688,11.981,4.588a133.1,133.1,0,0,1,11.532,6.65,106.648,106.648,0,0,1,10.82,8.215c2.489,2.315,6.717,6.4,8.087,9.263s2.424,4.139,2.208,6.168-2.1,4.412-4.476,7.4-7.148,6.934-9.956,9.424-7.557,5.816-9.772,7.459-6.783,4.767-9.72,6.65-7.249,4.156-9.665,5.5-10.886,6.084-13.677,7.166-8.475,3.826-12.049,5.113-7.98,3.567-10.869,4.384-6.246,2.539-9.655,3.46-7.472,2.715-10.574,3.591-7.98,2.425-10.78,3.493a69.65,69.65,0,0,0-7.606,3.7,47.092,47.092,0,0,0-5.316,3.509s-.814,4.2-1.023,6.592a64.261,64.261,0,0,0-.614,8.037c.134,2.326-.007,5.3.343,7.482s.371,5.283.718,8.4a52.41,52.41,0,0,1-.036,8.7,72.448,72.448,0,0,1-1.456,10.571,62.742,62.742,0,0,1-2.743,9.57c-1.631,4.822-2.339,7.137-3.994,12.02a63,63,0,0,0-2.553,12.45c-.272,2.277-1.325,5.691-.605,9.6s1.038,9.019,1.756,14.448,1.2,10.935,2,15.086,4.664,28.655,4.664,28.655l-43.968.266s1.373-33.563,1.471-37.387.991-24.084,1.122-28.4,1.526-25.8,1.174-31.567,1.115-29.487,1.217-35.81,1.081-29.236,1.234-33.267.337-12.391.254-16.346.06-6.408-.114-8.63a21.4,21.4,0,0,0-.83-4.272" transform="translate(-1295.759 -164.299)" fill="#fac963" fill-rule="evenodd"/>
      <path id="パス_9324" data-name="パス 9324" d="M1103.365,747.931a151.392,151.392,0,0,1,2.377-24.354c1.625-8.921,4.582-18.807,6.493-20.747.965-.978,15.031-1.137,25.52-2.387a73.1,73.1,0,0,0,17.81-4.417c4.022-1.41,8.145-3.043,11.159-4.335a20.216,20.216,0,0,0,5.953-3.348c.631-.561.836-1.942-1.1-2.852-1.22-.575,8.265-2.715,13.031-5.4,2.409-1.358,2.576-3.966,1.653-4.316-.7-.267,2.425-1.868,3.423-3.228,1.021-1.391-.091-2.541-1.461-2.61-.717-.037,1.321-2.563.958-3.767-.4-1.331-3.211-1.352-4.251-1.27-5.6.438-9.422,2.422-16.012,4.723-3.78,1.319-7.2,3.053-10.688,4.2a43.633,43.633,0,0,1-8.566,2.1c4.8-2.729,6.955-5.706,7.462-7.961.184-.816.675-2-1.883-2.152-1.615-.1-2.331.614-4.139,1.3a33.081,33.081,0,0,1-7.717,1.731c-7.25.7-16.2-.712-16.78-.712a23.846,23.846,0,0,0-6.294.474,67.216,67.216,0,0,0-15.573,6.172,28.732,28.732,0,0,0-10.293,9.164c-2.62,3.66-3.167,7.62-5.218,12.471-2.859,6.763-5.558,12.358-8.766,19.2a66.218,66.218,0,0,1-3.534,6.618,73.186,73.186,0,0,0-7.294,3.911,31.7,31.7,0,0,0-4.136,3.382l-.606,18.113s-.675,48.066.347,53.413c.371,1.942,9.563,4.163,10.53,4.163a16.346,16.346,0,0,0,6.832-2.626,64.013,64.013,0,0,0,6.854-5.634,34.106,34.106,0,0,0,9.451-12.148c3.075-6.336,3.343-15.056,3.657-22.246.258-5.935.8-10.514.8-14.613" transform="translate(-772.314 -482.297)" fill="#ffe4ce" fill-rule="evenodd"/>
      <path id="パス_9325" data-name="パス 9325" d="M1466.332,112.76a57.137,57.137,0,0,1,1.024-6.088,9.624,9.624,0,0,1,4.165-5.63,67.549,67.549,0,0,1,9.682-5.172c3.237-1.5,6.288-2.79,8.335-5.957s3.21-6.8,6.157-9.187c7.018-5.638,17.828-8.716,26.273-9.662a37.634,37.634,0,0,1,14.03.788,11.5,11.5,0,0,1,5.844,4.456c2.728,3.667,5.139,8.653,8.083,9.145,5.9,1.067,16.817,6.8,19.525,14.064,1.112,2.952,3.488,7.853,3.68,15.307.007.233-.331,17.506.877,21.266.916,2.851,1.038,6.149,6.922,11.718,2.094,1.985,6.613,6.536,7.647,11.23.59,2.666-.616,6.095-2.354,7.341-1.053.753-3.543,3.46-4.942,4.154-2.091,1.04-3.659,6.388-4.6,9.027-.608,1.7-.117,7.234,2.526,8.574s3.981-1.615,4.377-1.157c1.307,1.516-.765,5.455-3.674,6.025-2.287.448-12.077,1.723-16.407,3.382-1.051.4-.895-.941-2.036-.66a69.341,69.341,0,0,1-7.783,1.091c-2.586.241-6.813-1.727-9.824-3.906-2.782-2.014-4.337-4.229-7-4.53-20.518-2.324-41.65-2.028-47.821.136a26.306,26.306,0,0,0-6.261,3.56,65.689,65.689,0,0,0-6.863,7.247,31.382,31.382,0,0,1-6.065,5.208c-2.791,1.5-7.52,2.49-9.845,3.337-.955.348-.6,1.887-1.47,2.109-1.315.336-7.541,1.744-9.874,2.45-1.417.431-3.5-1.044-4.675-2.574-1.714-2.231-1.761-5.069-1.337-4.289,1.693,3.119,4.628,3.356,7.1,3.009,2.045-.289,2.971-4.651,2.587-5.945-.949-3.189-4.521-7.005-5.686-8.539-1.854-2.446-3.079-6.021-.392-9.8s7.373-6.213,10.727-8.7c2.378-1.766,4.124-4.27,3.857-4.163a13.727,13.727,0,0,1-7.846.472c-4.615-.953-3.913-6.037-3.854-5.022a3.119,3.119,0,0,0,2.144,2.749c2.623.57,4.812-2.023,5.616-3.952,1.105-2.654-.468-8.618-.823-10.473-.945-4.919-2.62-5.761-3.962-6.368a9.794,9.794,0,0,1-5.2-7.188c-.282-2.987,1.678-5.934,3.936-9.21,2.49-3.621,7.405-7.825,11.018-10.21a23.48,23.48,0,0,1,5.735-2.788c1.642-.689-1.25-6.356-1.277-6.67" transform="translate(-1046.331 -51.327)" fill="#ca6f5e" fill-rule="evenodd"/>
      <path id="パス_9326" data-name="パス 9326" d="M1594.312,277.04a50.854,50.854,0,0,1-4.253-11.76,107.287,107.287,0,0,1-.722-13.548,17.926,17.926,0,0,1-5.173-4.359,13.678,13.678,0,0,1-2.182-5.822l8.863-8.747s-.042,7.278,1.885,6.847c1.469-.328.745-2.8,1.287-4.384.684-2.008,2.554-3.29,4.2-4.626,3.3-2.732,10.172,2.465,14.96,4.182,4.626,1.656,7.6.51,10.728-.721,4.369-1.689,9.319-7.151,12.186-11.815a29.11,29.11,0,0,0,3.649-8.524s5.37,3.53,7.062,8.273c2.368,6.97.671,19.787,2.7,26.467.385,1.37,2.531,4.51,5.305,7.316,2.958,2.992,5.58,5.982,5.58,5.982a13.391,13.391,0,0,1-4.342,3.534,16.445,16.445,0,0,1-5.841,1.227,61.366,61.366,0,0,1-6.15,10.594c-3.728,5.032-10.6,10.3-10.6,10.3s-13.657,6.843-21.547,4.767c-7.02-1.848-17.6-15.184-17.6-15.184" transform="translate(-1147.565 -155.061)" fill="#ffe4ce" fill-rule="evenodd"/>
      <path id="パス_9327" data-name="パス 9327" d="M1579.679,468.971s0-2.862.063-4.962-.507-3.306.891-4.389,1.972-.319,3.245-2.544a27.057,27.057,0,0,0,3.117-6.87c1.145-3.625,1.909-4.261,2.482-8.46s.891-5.6,1.208-8.589,1.208-8.077,1.208-8.077l45.927,10.05s-.827,3.69-1.017,5.661-.063,4.452-.063,6.617-.255,2.672.507,4.9.955,2.862,2.354,4.261,1.462,1.845,2.925,2.162.828,1.082-.7,3.69-5.853,7-8.333,10.432-8.46,10.878-11.2,13.868-8.4,9.161-10.05,10.306-1.4,1.272-3.688,0-7.189-6.044-9.48-8.08-5.279-4.9-8.078-7.887-5.09-5.47-6.043-6.615-2.544-2.289-3.371-3.5a8.642,8.642,0,0,0-1.908-1.973" transform="translate(-1145.893 -308.351)" fill="#ffe4ce" fill-rule="evenodd"/>
      <path id="パス_9328" data-name="パス 9328" d="M1861.023,161.621s-11.931-6.134-13.484-7-3.2-2.441-4.613-2.452-1.965.236-3.423.174-2.157-.873-2.6-2.738-.023-3.273-.244-7.15.557-7.143-.256-12.335-.046-7.046-1.577-10.531-2.367-6.362-4.211-8.742a24.616,24.616,0,0,0-6.393-6.09c-2.655-1.681-5.761-3.417-7.57-3.835s-2.569.132-4.369-1.293-2.208-.822-3.454-2.594-1.29-2.225-2.336-3.693-.842-1.768,1.471-1.447,5.229.746,7.188,1.214a13.713,13.713,0,0,1,4.569,1.6c1.653.97,1.9.921,3,2.339s2,1.626,3.5,2.746a22.2,22.2,0,0,1,4.947,4.72c2.093,2.634,4.436,5.622,6.724,8.963a90.323,90.323,0,0,1,5.515,9.254c1.636,3.084,2.279,4.347,3.827,6.02s2.551,1.983,4.961,2.909,8.334,2.683,8.334,2.683a54.855,54.855,0,0,1,2.418,6.109,34.794,34.794,0,0,1,1.448,7.864,53.824,53.824,0,0,1-.651,5.934c-.216,1.91-2.726,7.378-2.726,7.378" transform="translate(-1309.987 -66.574)" fill="#ffe4ce" fill-rule="evenodd"/>
      <path id="パス_9329" data-name="パス 9329" d="M1629.2,377.493a1.271,1.271,0,0,1-.34-.046c-.282-.08-7-2.056-14.9-11.591a29.977,29.977,0,0,1-6.99-15.643c-1.168-6.166-.869-14.108-.541-19.543a1.255,1.255,0,1,1,2.505.151c-.32,5.3-.615,13.034.506,18.95a27.389,27.389,0,0,0,6.448,14.48c7.351,8.872,13.592,10.764,13.655,10.782a1.255,1.255,0,0,1-.346,2.461" transform="translate(-1165.084 -239.011)" fill="#571519"/>
      <path id="パス_9330" data-name="パス 9330" d="M1710.459,335.8a1.255,1.255,0,0,1-.344-2.461c.895-.261,3.522-1.37,3.8-2.978.08-.483-.1-.8-.634-1.575a6.605,6.605,0,0,1-1.353-5.262c.138-1.351.87-3.224,2.363-6.021a1.254,1.254,0,1,1,2.213,1.181c-.475.894-1.927,3.611-2.086,5.152a4.213,4.213,0,0,0,.93,3.528,4.427,4.427,0,0,1,1.042,3.417c-.605,3.446-5.08,4.824-5.588,4.969a1.251,1.251,0,0,1-.347.049" transform="translate(-1239.851 -229.835)" fill="#571519"/>
      <path id="パス_9331" data-name="パス 9331" d="M1664.938,308.525c.533-2.13,2.13-3.581,3.727-3.386,1.549.387,2.516,2.275,1.934,4.6-.533,2.13-2.13,3.58-3.727,3.386-1.549-.388-2.467-2.469-1.934-4.6" transform="translate(-1207.629 -221.333)" fill="#571519" fill-rule="evenodd"/>
      <path id="パス_9332" data-name="パス 9332" d="M1674.911,258.5a1.254,1.254,0,0,1-.84-.322c-5.064-4.554-11.4-2.456-11.668-2.365a1.255,1.255,0,0,1-.823-2.371c.324-.112,7.982-2.694,14.171,2.87a1.255,1.255,0,0,1-.84,2.188" transform="translate(-1204.694 -183.34)" fill="#571519"/>
      <path id="パス_9333" data-name="パス 9333" d="M1665.039,307.119a1.251,1.251,0,0,1-.944-.428c-1.634-1.865-5.862-2.265-7.548-1.52a1.255,1.255,0,1,1-1.015-2.3c2.485-1.1,7.965-.673,10.45,2.161a1.255,1.255,0,0,1-.943,2.082" transform="translate(-1200.375 -219.3)" fill="#571519"/>
      <path id="パス_9334" data-name="パス 9334" d="M1690.328,418.894a12.367,12.367,0,0,1-3.162-.316,1.255,1.255,0,0,1,.685-2.414c.109.029,5.46,1.355,15.978-2.948a32.239,32.239,0,0,0,13.566-9.86c3.787-4.7,7.173-11.665,9.394-16.5a1.255,1.255,0,1,1,2.28,1.049c-2.275,4.951-5.756,12.1-9.7,17a34.766,34.766,0,0,1-14.592,10.633c-6.763,2.765-11.579,3.352-14.446,3.352" transform="translate(-1223.205 -280.095)" fill="#571519"/>
      <path id="パス_9335" data-name="パス 9335" d="M1775.809,335.5c.533-2.128-.193-4.161-1.691-4.742-1.549-.388-3.292.822-3.874,3.143-.533,2.13.193,4.162,1.693,4.743,1.548.388,3.291-.822,3.873-3.145" transform="translate(-1284.002 -239.878)" fill="#571519" fill-rule="evenodd"/>
      <path id="パス_9336" data-name="パス 9336" d="M1773.736,333.792a1.253,1.253,0,0,1-.989-.481c-1.085-1.384-4.92-3.285-7.316-2.239a1.255,1.255,0,0,1-1-2.3c3.564-1.55,8.557.773,10.295,2.992a1.255,1.255,0,0,1-.987,2.029" transform="translate(-1279.362 -238.123)" fill="#571519"/>
      <path id="パス_9337" data-name="パス 9337" d="M1769.08,142.038a1.256,1.256,0,0,1-1.19-1.653c1.217-3.646.98-6.852-.7-9.531-1.937-3.083-5.846-5.275-10.455-5.863a1.255,1.255,0,0,1,.319-2.49c5.424.693,9.894,3.25,12.262,7.019,2.071,3.3,2.4,7.33.957,11.66a1.255,1.255,0,0,1-1.19.859" transform="translate(-1273.532 -88.854)" fill="#571519"/>
      <path id="パス_9338" data-name="パス 9338" d="M1587.355,326.756a1.253,1.253,0,0,1-.306-.038,6.92,6.92,0,0,1-2.007-.978,13.827,13.827,0,0,1-5.828-8.487,1.255,1.255,0,0,1,2.451-.544,11.324,11.324,0,0,0,4.759,6.936,4.812,4.812,0,0,0,1.236.638,1.255,1.255,0,0,1-.3,2.473" transform="translate(-1145.533 -229.023)" fill="#571519"/>
      <path id="パス_9339" data-name="パス 9339" d="M1603.575,307.709a1.256,1.256,0,0,1-1.224-.982,10.456,10.456,0,0,0-.512-1.574,1.255,1.255,0,1,1,2.312-.977,12.8,12.8,0,0,1,.651,2.008,1.254,1.254,0,0,1-.953,1.5,1.278,1.278,0,0,1-.273.03" transform="translate(-1161.896 -220.091)" fill="#571519"/>
      <path id="パス_9340" data-name="パス 9340" d="M1829.249,390.889a5.017,5.017,0,0,1-1.207-.132,1.255,1.255,0,0,1,.6-2.436,4.888,4.888,0,0,0,1.433.016,10.618,10.618,0,0,0,7.428-3.872,1.255,1.255,0,0,1,1.9,1.635,13.085,13.085,0,0,1-9.156,4.74c-.316.023-.655.049-1.005.049" transform="translate(-1325.363 -278.572)" fill="#571519"/>
      <path id="パス_9341" data-name="パス 9341" d="M672.718,335.555c-.042,0-.086,0-.129-.006-.305-.032-7.585-.863-17.45-9.281a31.4,31.4,0,0,1-10.027-14.882c-2.314-6.152-3.435-14.411-4.077-20.086a1.255,1.255,0,0,1,2.494-.282c.626,5.542,1.716,13.594,3.94,19.509a28.8,28.8,0,0,0,9.293,13.827c9.211,7.861,16.019,8.69,16.086,8.7a1.255,1.255,0,0,1-.131,2.5" transform="translate(-464.998 -210.294)" fill="#571519"/>
      <path id="パス_9342" data-name="パス 9342" d="M748.734,275.411a1.248,1.248,0,0,1-.7-.218c-.455-.309-4.432-3.13-3.913-6.709a4.6,4.6,0,0,1,2.137-3.04,4.424,4.424,0,0,0,2.1-3.193,17.657,17.657,0,0,0-.379-5.894,1.255,1.255,0,1,1,2.473-.43c.569,3.267.683,5.367.369,6.806a6.834,6.834,0,0,1-3.04,4.709c-.75.571-1.086.847-1.175,1.417-.25,1.724,2.027,3.7,2.843,4.259a1.255,1.255,0,0,1-.707,2.292" transform="translate(-539.746 -184.895)" fill="#571519"/>
      <path id="パス_9343" data-name="パス 9343" d="M697.987,256.706c.167-2.3,1.556-4.084,3.242-4.172,1.67.122,3.01,1.9,2.827,4.4s-1.556,4.083-3.242,4.17c-1.462-.105-2.786-2.091-2.827-4.4" transform="translate(-506.317 -183.186)" fill="#571519" fill-rule="evenodd"/>
      <path id="パス_9344" data-name="パス 9344" d="M618.133,257.416a1.267,1.267,0,0,1-.344-.048A14.431,14.431,0,0,1,607.208,245.1c-.209-1.946-.368-6.743,2.68-9.268,1.913-1.586,4.594-1.874,7.965-.853a1.255,1.255,0,1,1-.727,2.4c-2.516-.762-4.411-.632-5.637.384-2.168,1.8-1.915,5.863-1.785,7.067a11.938,11.938,0,0,0,8.772,10.126,1.255,1.255,0,0,1-.342,2.463" transform="translate(-440.395 -170.015)" fill="#571519"/>
      <path id="パス_9345" data-name="パス 9345" d="M882.158,272.433a1.255,1.255,0,0,1-.162-2.5,11.936,11.936,0,0,0,10.148-8.747c.882-2.994.675-5.633-.542-7.1-1.082-1.3-3.021-1.824-5.767-1.547a1.255,1.255,0,0,1-.252-2.5c3.629-.368,6.3.455,7.952,2.443,2.525,3.045,1.561,7.569,1.029,9.372a14.412,14.412,0,0,1-12.238,10.566,1.259,1.259,0,0,1-.166.011" transform="translate(-639.005 -181.316)" fill="#571519"/>
      <path id="パス_9346" data-name="パス 9346" d="M631.3,265.093a1.256,1.256,0,0,1-1.138-.724,5.756,5.756,0,0,0-1.618-2.124,1.255,1.255,0,1,1,1.283-2.157,8.215,8.215,0,0,1,2.61,3.223,1.256,1.256,0,0,1-1.137,1.783" transform="translate(-455.497 -188.537)" fill="#571519"/>
      <path id="パス_9347" data-name="パス 9347" d="M896.275,282.583a1.254,1.254,0,0,1-1.048-1.941,8.2,8.2,0,0,1,3.051-2.811,1.255,1.255,0,0,1,.956,2.321,5.739,5.739,0,0,0-1.909,1.867,1.254,1.254,0,0,1-1.05.564" transform="translate(-649.245 -201.468)" fill="#571519"/>
      <path id="パス_9348" data-name="パス 9348" d="M697.257,254.809a1.249,1.249,0,0,1-.787-.278c-2.044-1.648-6.525-1.3-8.149-.216a1.255,1.255,0,0,1-1.392-2.088c2.353-1.57,8.059-2.115,11.116.349a1.255,1.255,0,0,1-.788,2.232" transform="translate(-497.89 -181.993)" fill="#571519"/>
      <path id="パス_9349" data-name="パス 9349" d="M754.335,348.487a5.848,5.848,0,0,1-.593-.023,1.255,1.255,0,0,1,.261-2.5c.1.009,5.889.433,16.021-5.933a33.911,33.911,0,0,0,12.267-12.658c3.068-5.548,5.315-13.358,6.739-18.753a1.255,1.255,0,0,1,2.426.641c-1.458,5.523-3.767,13.535-6.957,19.3a36.449,36.449,0,0,1-13.146,13.595c-9.24,5.805-15.187,6.324-17.018,6.324" transform="translate(-545.949 -223.195)" fill="#571519"/>
      <path id="パス_9350" data-name="パス 9350" d="M818.059,265.39c.169-2.3-.947-4.265-2.6-4.6s-3.253,1.442-3.436,3.947.948,4.267,2.6,4.6c1.685-.088,3.06-1.667,3.435-3.948" transform="translate(-589.023 -189.149)" fill="#571519" fill-rule="evenodd"/>
      <path id="パス_9351" data-name="パス 9351" d="M808.362,205.458a1.247,1.247,0,0,1-.762-.259c-.235-.178-5.889-4.37-12.465-1.477a1.255,1.255,0,1,1-1.01-2.3c7.96-3.5,14.718,1.566,15,1.782a1.255,1.255,0,0,1-.763,2.251" transform="translate(-575.511 -145.221)" fill="#571519"/>
      <path id="パス_9352" data-name="パス 9352" d="M814.379,263.248a1.248,1.248,0,0,1-.839-.323c-1.382-1.246-5.729-2.526-8.04-1a1.255,1.255,0,0,1-1.382-2.1c3.38-2.228,8.921-.735,11.1,1.233a1.255,1.255,0,0,1-.841,2.187" transform="translate(-582.895 -187.672)" fill="#571519"/>
      <path id="パス_9353" data-name="パス 9353" d="M858.358,187.344a1.256,1.256,0,0,1-1.181-1.681,34.858,34.858,0,0,0-5.7-30.527,1.255,1.255,0,1,1,2.017-1.493,37.243,37.243,0,0,1,6.918,29.528c2.957-2.556,7.407-8.216,7.537-19.183a1.23,1.23,0,0,1,1.27-1.24,1.256,1.256,0,0,1,1.24,1.27c-.211,17.783-11.111,23-11.575,23.211a1.254,1.254,0,0,1-.523.115" transform="translate(-617.477 -111.083)" fill="#571519"/>
      <path id="パス_9354" data-name="パス 9354" d="M641.98,195.375a1.232,1.232,0,0,1-.339-.047c-.1-.028-10.049-3-8.566-17.216a1.255,1.255,0,1,1,2.5.26c-.839,8.042,2.309,11.785,4.591,13.414a26.26,26.26,0,0,1,5.424-21,1.255,1.255,0,0,1,1.949,1.582c-7.975,9.819-4.4,21.248-4.362,21.362a1.256,1.256,0,0,1-1.194,1.644" transform="translate(-459.122 -123.551)" fill="#571519"/>
      <path id="パス_9355" data-name="パス 9355" d="M604.357,153.521a1.256,1.256,0,0,1-1.165-.789c-3.879-9.693-7.341-23.236-1.813-32.717a1.255,1.255,0,0,1,2.168,1.265c-5.017,8.6-1.7,21.346,1.975,30.519a1.257,1.257,0,0,1-1.164,1.722" transform="translate(-434.149 -86.606)" fill="#571519"/>
      <path id="パス_9356" data-name="パス 9356" d="M918.482,158.8a1.255,1.255,0,0,1-1.078-1.9c1.187-2,11.461-19.99,6.567-36.073a1.255,1.255,0,1,1,2.4-.73c5.208,17.113-5.565,35.99-6.81,38.086a1.255,1.255,0,0,1-1.08.614" transform="translate(-665.354 -86.474)" fill="#571519"/>
      <path id="パス_9357" data-name="パス 9357" d="M801.824,29.571a13.652,13.652,0,0,1-6.669-1.852,1.255,1.255,0,1,1,1.228-2.189c3.821,2.142,7.109,1.568,8.536.875a29.7,29.7,0,0,1-7.432-5.168,35.313,35.313,0,0,1-4.614-5.37c-2.795-3.735-5.684-7.6-12.758-10.82-9.628-4.432-20.882-2.439-27.028,1.817A1.254,1.254,0,1,1,751.658,4.8c6.522-4.521,18.537-7.085,29.5-2.036,7.654,3.487,10.878,7.8,13.722,11.6a33.4,33.4,0,0,0,4.286,5.009c4.914,4.432,7.817,5.14,7.846,5.147a1.29,1.29,0,0,1,.751.495,2,2,0,0,1-.3,2.585,7.76,7.76,0,0,1-5.642,1.971" transform="translate(-544.858 0.003)" fill="#571519"/>
      <path id="パス_9358" data-name="パス 9358" d="M597.25,37.645a7.746,7.746,0,0,1-4.159-1.026,2.542,2.542,0,0,1-1.286-2.574c.054-.806.806-1.181,1.945-1.749a23.31,23.31,0,0,0,6.585-4.623,93.14,93.14,0,0,0,6.722-8.168c.464-.608.883-1.158,1.241-1.62,5.692-7.11,14.883-9.929,22.888-7.032a1.255,1.255,0,0,1-.855,2.36c-7.1-2.576-14.977-.128-20.062,6.226-.343.442-.758.985-1.216,1.586a94.992,94.992,0,0,1-6.94,8.418,25.987,25.987,0,0,1-7.244,5.1l-.194.1a3.9,3.9,0,0,0,.841.3,9.688,9.688,0,0,0,7.1-1.4,1.255,1.255,0,1,1,1.371,2.1,12.515,12.515,0,0,1-6.738,2.007m-2.96-3.269h0c0-.008,0-.016,0-.024a.129.129,0,0,1,0,.023" transform="translate(-429.268 -7.056)" fill="#571519"/>
      <path id="パス_9359" data-name="パス 9359" d="M718.836,168.764c-.22,0-.35-.008-.382-.01a1.256,1.256,0,0,1-.886-2.039c.061-.075,6.124-7.647,8.4-14.113a31.843,31.843,0,0,0,1.537-12.749,1.255,1.255,0,1,1,2.493-.3,34.006,34.006,0,0,1-1.663,13.88c-1.642,4.657-4.985,9.672-7.052,12.523a22.355,22.355,0,0,0,8.389-3.859,21.1,21.1,0,0,0,9.125-13.336,1.255,1.255,0,0,1,2.491.31c-.045.363-1.2,8.953-10.177,15.082-5.963,4.275-10.891,4.607-12.278,4.607" transform="translate(-520.32 -100.43)" fill="#571519"/>
      <path id="パス_9360" data-name="パス 9360" d="M775.52,150.1a1.255,1.255,0,0,1-1.08-1.9c.037-.062,3.682-6.267,4.111-12.15a1.255,1.255,0,1,1,2.5.183,30.374,30.374,0,0,1-2.6,9.553,20.278,20.278,0,0,0,7.977-10.9c2.652-8.987.351-18.313.328-18.406a1.255,1.255,0,0,1,2.433-.618c.1.407,2.5,10.068-.354,19.737a22.68,22.68,0,0,1-12.885,14.422,1.244,1.244,0,0,1-.432.077" transform="translate(-561.649 -83.361)" fill="#571519"/>
      <path id="パス_9361" data-name="パス 9361" d="M669.171,163.915a16.754,16.754,0,0,1-2.1-.125,1.255,1.255,0,1,1,.314-2.49c7.209.907,20.129-4.019,23.2-13.512a1.255,1.255,0,0,1,2.388.772c-3.226,9.971-15.465,15.355-23.8,15.355" transform="translate(-483.095 -106.574)" fill="#571519"/>
      <path id="パス_9362" data-name="パス 9362" d="M837.316,187.753a1.268,1.268,0,0,1-.4-.065c-11.722-3.911-14.543-11.744-14.658-12.076a1.255,1.255,0,0,1,2.371-.824c.1.285,2.6,7.023,13.081,10.519a1.255,1.255,0,0,1-.4,2.446" transform="translate(-596.415 -126.18)" fill="#571519"/>
      <path id="パス_9363" data-name="パス 9363" d="M642.883,404.9a1.255,1.255,0,0,1-1.006-2c4.216-5.673,5.548-16.2,5-24.11a1.256,1.256,0,0,1,1.165-1.34,1.279,1.279,0,0,1,1.339,1.165c.583,8.374-.887,19.592-5.486,25.781a1.255,1.255,0,0,1-1.009.506" transform="translate(-465.436 -273.799)" fill="#571519"/>
      <path id="パス_9364" data-name="パス 9364" d="M859.025,415.475a1.254,1.254,0,0,1-.748-.247c-6.468-4.808-3.759-26.576-3.731-26.8a1.255,1.255,0,1,1,2.489.319c-.822,6.414-1.274,21.479,2.74,24.462a1.255,1.255,0,0,1-.75,2.262" transform="translate(-619.459 -280.974)" fill="#571519"/>
      <path id="パス_9365" data-name="パス 9365" d="M361.131,545.578h0a1.255,1.255,0,0,1-1.252-1.259c.046-18.434.169-67.405,32.632-75.153,6.086-1.453,12.387-1.865,18.479-2.264,2.963-.194,6.027-.395,9.011-.712a1.255,1.255,0,0,1,.266,2.5c-3.035.323-6.125.526-9.114.721-5.988.392-12.181.8-18.06,2.2-27.375,6.533-30.635,44.63-30.7,72.719a1.255,1.255,0,0,1-1.255,1.251" transform="translate(-261.053 -338.167)" fill="#571519"/>
      <path id="パス_9366" data-name="パス 9366" d="M644.172,448.5a1.255,1.255,0,0,1-.545-2.386,9.212,9.212,0,0,0,2.516-1.7,1.255,1.255,0,1,1,1.77,1.779,11.54,11.54,0,0,1-3.2,2.185,1.247,1.247,0,0,1-.543.124" transform="translate(-466.369 -322.111)" fill="#571519"/>
      <path id="パス_9367" data-name="パス 9367" d="M183.622,680.485a1.254,1.254,0,0,1-1.108-.663c-3.726-6.969-9.44-9.5-16.057-12.421q-1.181-.522-2.394-1.067a31.494,31.494,0,0,0-10.285-2.9,56.206,56.206,0,0,0-9.9.376,72.774,72.774,0,0,1-8.671.478,38.156,38.156,0,0,1-10.655-2.217c-.233-.076-.521-.189-.841-.315a6.218,6.218,0,0,0-2.346-.624c-.129.27.24,1.2.361,1.5l.087.219c1.116,2.875,4.112,4.478,7.01,6.028l.23.123a1.255,1.255,0,0,1-1.185,2.213l-.229-.122c-3.147-1.684-6.712-3.592-8.165-7.334l-.079-.2c-.378-.952-1.383-3.483.8-4.648,1.348-.721,3.137-.009,4.444.508.261.1.5.2.686.26a35.965,35.965,0,0,0,9.954,2.1,70.388,70.388,0,0,0,8.362-.467A58.02,58.02,0,0,1,154,660.929a33.966,33.966,0,0,1,11.1,3.118c.8.363,1.593.713,2.374,1.059,6.748,2.983,13.121,5.8,17.256,13.532a1.255,1.255,0,0,1-1.105,1.847" transform="translate(-86.199 -477.748)" fill="#571519"/>
      <path id="パス_9368" data-name="パス 9368" d="M127.56,746.794a1.352,1.352,0,0,1-.136-.007l-3.884-.419c-7.783-.843-15.831-1.715-23.792-2.316a57.8,57.8,0,0,1-16.907-3.574l-2.808-1.061c-1.807-.686-3.616-1.373-5.421-2.036-1.03-.378-2.049-.781-3.068-1.183-.953-.376-1.906-.752-2.868-1.108-2.778-1.028-7.425-3.135-7.34-5.7.041-1.251,1.056-2.18,3.014-2.761a14.812,14.812,0,0,1,5.088-.542c3.843.168,7.335,1.547,10.713,2.879,3.626,1.43,7.045,2.792,10.825,2.717,4.493-.077,9.1-1.619,13.558-3.109,8.161-2.73,16.6-5.551,25.222-.083a1.255,1.255,0,0,1-1.344,2.12c-7.616-4.831-15.129-2.316-23.081.343-4.637,1.55-9.432,3.154-14.311,3.239-4.294.038-8.1-1.434-11.79-2.892-3.331-1.315-6.479-2.557-9.9-2.706a12.264,12.264,0,0,0-4.265.442,3.773,3.773,0,0,0-1.162.5c.442.706,2.8,2.142,5.646,3.195.979.361,1.949.744,2.919,1.127,1,.4,2,.791,3.012,1.162,1.813.665,3.63,1.355,5.446,2.044l2.8,1.06a55.434,55.434,0,0,0,16.211,3.42c8,.6,16.071,1.478,23.875,2.323l3.882.419a1.255,1.255,0,0,1-.132,2.5" transform="translate(-44.491 -526.181)" fill="#571519"/>
      <path id="パス_9369" data-name="パス 9369" d="M53.069,704.325a1.247,1.247,0,0,1-.283-.032,93.116,93.116,0,0,1-14.261-4.957c-5.188-2.126-10.552-4.324-16.06-5.271-.453-.077-.947-.177-1.465-.281-2.143-.432-4.812-.97-6.456-.239-.488.217-.5.391-.5.457-.034.73,1.218,2.164,2.177,2.7.446.249,2.361.918,4.05,1.509A56.069,56.069,0,0,1,28,701.271a1.255,1.255,0,1,1-1.306,2.142,59.292,59.292,0,0,0-7.248-2.832A40.337,40.337,0,0,1,15,698.894c-1.451-.811-3.554-2.964-3.46-5.007a2.987,2.987,0,0,1,1.988-2.636c2.376-1.054,5.479-.43,7.97.072.493.1.962.194,1.395.269,5.779.992,11.274,3.244,16.586,5.422a91.243,91.243,0,0,0,13.872,4.834,1.255,1.255,0,0,1-.28,2.478" transform="translate(-8.368 -501.013)" fill="#571519"/>
      <path id="パス_9370" data-name="パス 9370" d="M42.519,684.721a1.066,1.066,0,0,1-.107,0c-6.237-.525-12.167-2.951-17.9-5.3-4.56-1.866-9.275-3.8-14.011-4.688-2.8-.526-7.488-.386-7.993.436.008,0,.021.414.911,1.357a8.8,8.8,0,0,0,1.405,1.235,1.255,1.255,0,0,1-1.429,2.064,11.339,11.339,0,0,1-1.8-1.576C.068,676.633-.365,675.192.3,673.965c1.757-3.216,10.571-1.717,10.66-1.7,4.986.936,9.822,2.917,14.5,4.83,5.559,2.276,11.307,4.628,17.16,5.121a1.255,1.255,0,0,1-.1,2.5" transform="translate(0.001 -487.394)" fill="#571519"/>
      <path id="パス_9371" data-name="パス 9371" d="M45.386,669.738a1.221,1.221,0,0,1-.282-.032,130.045,130.045,0,0,1-18.454-6.119c-4.479-1.746-9.11-3.553-14.123-5.01-2.136-.62-5.9-1.146-7.408-.52a1.089,1.089,0,0,0-.268.643A1.708,1.708,0,0,0,5,659.838,1.249,1.249,0,0,1,5.16,661.6a1.265,1.265,0,0,1-1.772.164,3.8,3.8,0,0,1-1.022-3.408,3.189,3.189,0,0,1,1.79-2.617c3.091-1.283,9.014.409,9.073.428,5.12,1.488,9.8,3.315,14.334,5.081a126.073,126.073,0,0,0,18.1,6.011,1.255,1.255,0,0,1-.28,2.478" transform="translate(-1.679 -475.322)" fill="#571519"/>
      <path id="パス_9372" data-name="パス 9372" d="M156.633,700.873a15.567,15.567,0,0,1-5.155-.757,1.255,1.255,0,0,1,.836-2.368c2.976,1.053,6.868.545,10.3.1l1.076-.138A1.255,1.255,0,1,1,164,700.2l-1.063.137a49.424,49.424,0,0,1-6.308.538" transform="translate(-109.274 -506.092)" fill="#571519"/>
      <path id="パス_9373" data-name="パス 9373" d="M320.843,898.61c-5.53,0-11.619-5.583-15.35-9.006l-.78-.713c-11.852-10.776-12.231-23.717-12.632-37.417-.107-3.675-.218-7.476-.561-11.268-.151-1.681-.275-3.619-.409-5.753-.661-10.457-1.659-26.263-8.259-38.593a1.255,1.255,0,1,1,2.213-1.183c6.856,12.811,7.876,28.943,8.551,39.619.133,2.108.254,4.023.4,5.685.349,3.868.462,7.707.571,11.419.384,13.152.747,25.574,11.812,35.632l.788.722c3.653,3.349,9.774,8.963,14.395,8.294,1.661-.236,4.738-1.681,6.773-2.638.513-.24.977-.458,1.366-.634a1.255,1.255,0,0,1,1.031,2.289c-.379.17-.83.382-1.329.616-2.3,1.081-5.453,2.561-7.485,2.852a7.82,7.82,0,0,1-1.1.076" transform="translate(-205.071 -575.974)" fill="#571519"/>
      <path id="パス_9374" data-name="パス 9374" d="M380.059,792.774a1.255,1.255,0,0,1-1.192-.863c-1.439-4.374-4.9-11.184-8.9-19.07-5.946-11.71-13.346-26.284-18.513-41.213a1.255,1.255,0,1,1,2.371-.821c5.113,14.766,12.469,29.256,18.38,40.9,4.218,8.306,7.549,14.867,9.048,19.422a1.254,1.254,0,0,1-1.192,1.647" transform="translate(-254.891 -529.511)" fill="#571519"/>
      <path id="パス_9375" data-name="パス 9375" d="M430.039,818.7a1.255,1.255,0,0,1-1.255-1.255c0-2.867.068-7.644.153-13.692.227-16.114.569-40.468.254-66.474-.359-29.576-4.493-66.107-9.617-84.977a1.254,1.254,0,1,1,2.421-.657c5.172,19.044,9.344,55.846,9.705,85.6.315,26.037-.028,50.411-.255,66.538-.085,6.038-.152,10.807-.152,13.656a1.254,1.254,0,0,1-1.255,1.255" transform="translate(-304.326 -472.028)" fill="#571519"/>
      <path id="パス_9376" data-name="パス 9376" d="M998.932,552.079a1.255,1.255,0,0,1-1.255-1.251c-.071-28.088-3.331-66.184-30.7-72.719-5.881-1.4-12.075-1.808-18.064-2.2-3.227-.212-6.564-.43-9.84-.8a1.254,1.254,0,1,1,.283-2.493c3.216.364,6.523.579,9.72.789,6.094.4,12.395.811,18.482,2.264,32.463,7.749,32.586,56.718,32.633,75.153a1.255,1.255,0,0,1-1.252,1.259Z" transform="translate(-680.39 -342.825)" fill="#571519"/>
      <path id="パス_9377" data-name="パス 9377" d="M862.356,455.062a1.255,1.255,0,0,1-.545-.125,10.614,10.614,0,0,1-2.889-1.966,1.255,1.255,0,1,1,1.77-1.78,8.161,8.161,0,0,0,2.209,1.485,1.255,1.255,0,0,1-.546,2.385" transform="translate(-622.791 -327.027)" fill="#571519"/>
      <path id="パス_9378" data-name="パス 9378" d="M1166.366,687.2a1.255,1.255,0,0,1-1.105-1.847c4.134-7.731,10.506-10.548,17.252-13.53.782-.346,1.575-.7,2.377-1.06a33.976,33.976,0,0,1,11.1-3.119,58.145,58.145,0,0,1,10.355.378,69.905,69.905,0,0,0,8.362.467,35.845,35.845,0,0,0,9.957-2.1c.19-.062.426-.156.69-.26,1.307-.518,3.094-1.227,4.439-.506,2.181,1.167,1.179,3.695.8,4.646l-.078.2c-1.455,3.742-5.02,5.65-8.166,7.334l-.229.124a1.255,1.255,0,1,1-1.186-2.213l.232-.124c2.9-1.55,5.892-3.153,7.01-6.028l.086-.218a3.829,3.829,0,0,0,.384-1.495,6.179,6.179,0,0,0-2.366.614c-.322.128-.612.24-.845.316A38.083,38.083,0,0,1,1214.781,671a73.293,73.293,0,0,1-8.672-.478,56.391,56.391,0,0,0-9.9-.376,31.521,31.521,0,0,0-10.287,2.906c-.809.366-1.608.719-2.4,1.068-6.616,2.924-12.329,5.45-16.054,12.418a1.255,1.255,0,0,1-1.108.663" transform="translate(-845.168 -482.618)" fill="#571519"/>
      <path id="パス_9379" data-name="パス 9379" d="M1214.61,753.5a1.255,1.255,0,0,1-.132-2.5l3.876-.419c7.805-.844,15.875-1.719,23.882-2.323a55.474,55.474,0,0,0,16.21-3.419l2.73-1.033c1.839-.7,3.681-1.4,5.519-2.072,1.011-.372,2.012-.767,3.012-1.162.969-.382,1.939-.764,2.918-1.126,2.843-1.053,5.2-2.489,5.646-3.195a3.794,3.794,0,0,0-1.163-.5,12.238,12.238,0,0,0-4.264-.442c-3.424.151-6.57,1.392-9.9,2.706-3.695,1.458-7.536,2.93-11.792,2.892-4.88-.085-9.674-1.688-14.312-3.239-7.952-2.66-15.464-5.173-23.08-.343a1.255,1.255,0,0,1-1.344-2.12c8.624-5.47,17.062-2.646,25.22.083,4.457,1.49,9.066,3.032,13.56,3.109,3.761.053,7.2-1.285,10.827-2.717,3.376-1.332,6.868-2.709,10.711-2.879a14.742,14.742,0,0,1,5.089.543c1.958.581,2.972,1.51,3.014,2.761.085,2.561-4.561,4.668-7.34,5.7-.962.357-1.914.732-2.866,1.108-1.02.4-2.038.805-3.069,1.183-1.83.673-3.662,1.368-5.494,2.063l-2.735,1.036a57.823,57.823,0,0,1-16.906,3.574c-7.965.6-16.015,1.472-23.8,2.315l-3.879.419a1.325,1.325,0,0,1-.136.007" transform="translate(-879.058 -531.048)" fill="#571519"/>
      <path id="パス_9380" data-name="パス 9380" d="M1358.355,711.043a1.255,1.255,0,0,1-.28-2.478,91.346,91.346,0,0,0,13.874-4.834c5.311-2.177,10.806-4.428,16.584-5.422.432-.075.9-.169,1.393-.269,2.5-.5,5.6-1.124,7.972-.071a2.986,2.986,0,0,1,1.988,2.635c.095,2.044-2.008,4.2-3.46,5.007a40.54,40.54,0,0,1-4.442,1.686,59.112,59.112,0,0,0-7.253,2.835,1.255,1.255,0,0,1-1.306-2.142,56,56,0,0,1,7.73-3.062c1.689-.59,3.6-1.258,4.048-1.508.958-.535,2.209-1.968,2.175-2.7,0-.066-.011-.242-.5-.457-1.643-.729-4.316-.192-6.46.238-.517.1-1.008.2-1.462.281-5.507.949-10.87,3.146-16.058,5.271a93.228,93.228,0,0,1-14.264,4.957,1.219,1.219,0,0,1-.281.032" transform="translate(-984.436 -505.888)" fill="#571519"/>
      <path id="パス_9381" data-name="パス 9381" d="M1366.3,691.44a1.255,1.255,0,0,1-.1-2.5c5.854-.493,11.6-2.845,17.162-5.121,4.675-1.914,9.51-3.894,14.5-4.831.088-.017,8.906-1.511,10.66,1.7.67,1.227.236,2.668-1.289,4.282a11.212,11.212,0,0,1-1.8,1.573,1.255,1.255,0,1,1-1.431-2.061,8.78,8.78,0,0,0,1.4-1.234c.914-.968.9-1.38.9-1.383-.493-.8-5.183-.936-7.986-.412-4.735.891-9.45,2.821-14.009,4.688-5.734,2.348-11.665,4.774-17.9,5.3a.985.985,0,0,1-.106,0" transform="translate(-990.2 -492.268)" fill="#571519"/>
      <path id="パス_9382" data-name="パス 9382" d="M1361.974,676.474a1.255,1.255,0,0,1-.279-2.478,126.287,126.287,0,0,0,18.11-6.014c4.528-1.766,9.211-3.592,14.329-5.08,1.652-.481,6.508-1.5,9.073-.428a3.192,3.192,0,0,1,1.791,2.619,3.8,3.8,0,0,1-1.025,3.406,1.255,1.255,0,0,1-1.6-1.93,1.723,1.723,0,0,0,.142-1.131,1.091,1.091,0,0,0-.27-.646c-1.509-.626-5.27-.1-7.406.52-5.011,1.457-9.641,3.263-14.118,5.009a130.036,130.036,0,0,1-18.46,6.121,1.231,1.231,0,0,1-.282.032" transform="translate(-987.062 -480.214)" fill="#571519"/>
      <path id="パス_9383" data-name="パス 9383" d="M1329.615,707.59a49.322,49.322,0,0,1-6.3-.537l-1.07-.137a1.255,1.255,0,1,1,.311-2.49l1.082.138c3.433.446,7.325.953,10.3-.1a1.256,1.256,0,0,1,.836,2.368,15.563,15.563,0,0,1-5.155.756" transform="translate(-958.353 -510.967)" fill="#571519"/>
      <path id="パス_9384" data-name="パス 9384" d="M1074.72,905.327a7.807,7.807,0,0,1-1.1-.076c-2.032-.291-5.184-1.771-7.486-2.852-.5-.234-.95-.446-1.329-.616a1.255,1.255,0,0,1,1.031-2.289c.389.175.853.393,1.365.633,2.036.957,5.113,2.4,6.774,2.639,4.628.668,10.74-4.944,14.393-8.293l.792-.724c11.063-10.058,11.426-22.48,11.811-35.631.108-3.713.221-7.552.57-11.421.15-1.661.271-3.576.4-5.684.675-10.676,1.694-26.808,8.552-39.619a1.255,1.255,0,0,1,2.213,1.184c-6.6,12.33-7.6,28.134-8.26,38.593-.135,2.133-.258,4.071-.409,5.752-.343,3.793-.454,7.593-.561,11.269-.4,13.7-.779,26.639-12.631,37.415l-.784.716c-3.732,3.422-9.82,9.005-15.349,9.005" transform="translate(-771.872 -580.846)" fill="#571519"/>
      <path id="パス_9385" data-name="パス 9385" d="M1065.325,799.489a1.254,1.254,0,0,1-1.192-1.647c1.5-4.555,4.83-11.117,9.048-19.423,5.911-11.643,13.268-26.132,18.38-40.9a1.255,1.255,0,1,1,2.371.821c-5.167,14.929-12.567,29.5-18.513,41.213-4,7.886-7.463,14.7-8.9,19.072a1.255,1.255,0,0,1-1.192.863" transform="translate(-771.873 -534.381)" fill="#571519"/>
      <path id="パス_9386" data-name="パス 9386" d="M1061.9,823.566a1.255,1.255,0,0,1-1.255-1.255c0-2.854-.066-7.48-.149-13.335-.221-15.529-.555-39-.24-65.017.361-29.756,4.533-66.557,9.7-85.6a1.255,1.255,0,1,1,2.422.657c-5.123,18.872-9.258,55.4-9.617,84.977-.314,25.989.019,49.436.239,64.951.084,5.866.15,10.5.15,13.371a1.255,1.255,0,0,1-1.255,1.255" transform="translate(-769.016 -476.894)" fill="#571519"/>
      <path id="パス_9387" data-name="パス 9387" d="M748.08,362.96a1.25,1.25,0,0,1-.694-.211c-2.73-1.819-5.019-2.672-6.276-2.336a1.362,1.362,0,0,0-.912.787,1.255,1.255,0,0,1-2.245-1.123,3.877,3.877,0,0,1,2.512-2.089c2.041-.54,4.837.357,8.312,2.673a1.255,1.255,0,0,1-.7,2.3" transform="translate(-535.212 -259.572)" fill="#571519"/>
      <path id="パス_9388" data-name="パス 9388" d="M692.271,218.384a32.069,32.069,0,0,1-7.451-.913,1.255,1.255,0,0,1,.608-2.435c4.27,1.066,11.7,1.571,14.69-1.413a1.255,1.255,0,0,1,1.775,1.775c-2.263,2.262-6,2.986-9.622,2.986" transform="translate(-496.076 -154.694)" fill="#571519"/>
      <path id="パス_9389" data-name="パス 9389" d="M752.477,214.959a1.255,1.255,0,0,1-.887-2.142,3.91,3.91,0,0,0,1.472-2.889,1.255,1.255,0,1,1,2.51,0,6.468,6.468,0,0,1-2.207,4.663,1.251,1.251,0,0,1-.887.368" transform="translate(-544.934 -151.37)" fill="#571519"/>
      <path id="パス_9390" data-name="パス 9390" d="M383.056,488.051a1.24,1.24,0,0,1-.494-.1,1.254,1.254,0,0,1-.658-1.647c.135-.316.266-.664.4-1.025.654-1.722,1.467-3.864,3.354-4.808a1.255,1.255,0,0,1,1.123,2.245c-1.011.505-1.606,2.072-2.131,3.453-.15.4-.3.776-.443,1.121a1.253,1.253,0,0,1-1.154.761" transform="translate(-276.958 -348.435)" fill="#571519"/>
      <path id="パス_9391" data-name="パス 9391" d="M399.524,492.088a1.255,1.255,0,0,1-1.121-1.816,12.11,12.11,0,0,1,4.045-4.781,1.255,1.255,0,0,1,1.392,2.088,9.642,9.642,0,0,0-3.193,3.815,1.255,1.255,0,0,1-1.124.694" transform="translate(-288.904 -352.02)" fill="#571519"/>
      <path id="パス_9392" data-name="パス 9392" d="M1115.6,495.624a1.255,1.255,0,0,1-1.255-1.255c0-2.62-2.9-4.856-4.621-5.953a1.255,1.255,0,0,1,1.348-2.118c2.638,1.68,5.783,4.444,5.783,8.071a1.255,1.255,0,0,1-1.255,1.255" transform="translate(-804.572 -352.616)" fill="#571519"/>
      <path id="パス_9393" data-name="パス 9393" d="M1109.079,508.043a1.254,1.254,0,0,1-1.166-.789,19.68,19.68,0,0,0-3.418-5.091,1.255,1.255,0,0,1,1.928-1.608,21.913,21.913,0,0,1,3.821,5.767,1.254,1.254,0,0,1-1.164,1.721" transform="translate(-800.985 -362.773)" fill="#571519"/>
      <path id="パス_9394" data-name="パス 9394" d="M1583.708,466.876a1.255,1.255,0,0,1-.719-2.284c1.565-1.092,2.7-3.448,3.523-5.171,3.68-7.667,4.665-15.964,5.425-24.5a1.255,1.255,0,1,1,2.5.223c-.781,8.776-1.8,17.319-5.659,25.357-.95,1.98-2.246,4.681-4.353,6.151a1.256,1.256,0,0,1-.717.225" transform="translate(-1147.904 -314.658)" fill="#571519"/>
      <path id="パス_9395" data-name="パス 9395" d="M1788.281,490.275a1.244,1.244,0,0,1-.784-.277c-6.456-5.187-5.672-13.451-4.981-20.743l.154-1.657a1.255,1.255,0,1,1,2.5.223l-.156,1.67c-.663,6.987-1.348,14.21,4.053,18.551a1.255,1.255,0,0,1-.787,2.233" transform="translate(-1292.703 -338.363)" fill="#571519"/>
      <path id="パス_9396" data-name="パス 9396" d="M1362.925,917.349h-.049a1.254,1.254,0,0,1-1.206-1.3c.019-.515,1.972-51.662,1.877-68.863-.026-4.758-.482-13.9-.964-23.585-.623-12.488-1.327-26.643-1.318-35.283a1.256,1.256,0,0,1,1.255-1.254h0a1.255,1.255,0,0,1,1.254,1.256c-.01,8.578.694,22.7,1.314,35.156.484,9.711.941,18.883.968,23.7.094,17.257-1.86,68.459-1.88,68.974a1.255,1.255,0,0,1-1.252,1.207" transform="translate(-987.457 -570.93)" fill="#571519"/>
      <path id="パス_9397" data-name="パス 9397" d="M1379.27,600.956a1.255,1.255,0,0,1-1.19-1.652,42.275,42.275,0,0,1,8.608-15.394c4.9-5.4,14.591-8.168,24.1-10.538a1.255,1.255,0,1,1,.608,2.436c-9.134,2.276-18.421,4.907-22.846,9.788a39.831,39.831,0,0,0-8.087,14.5,1.254,1.254,0,0,1-1.19.858" transform="translate(-999.607 -415.895)" fill="#571519"/>
      <path id="パス_9398" data-name="パス 9398" d="M1883.057,463.133a1.255,1.255,0,0,1-.33-2.466c3.6-.984,6.834-1.738,10.186-2.37,3.406-.645,7.221-1.119,11.637-1.669,13.825-1.722,32.759-4.081,58.831-14.219,7.234-2.814,16.069-3.6,24.611-4.351,3.278-.291,6.374-.564,9.262-.945a1.255,1.255,0,0,1,.329,2.488c-2.942.389-6.064.666-9.369.957-8.368.74-17.022,1.5-23.924,4.189-26.362,10.252-45.475,12.633-59.43,14.371-4.375.545-8.154,1.016-11.482,1.645-3.283.62-6.457,1.359-9.989,2.326a1.29,1.29,0,0,1-.332.044" transform="translate(-1365.052 -317.072)" fill="#571519"/>
      <path id="パス_9399" data-name="パス 9399" d="M1805.121,546.208a1.255,1.255,0,0,1-.28-2.478l1.32-.3a1.255,1.255,0,0,1,.561,2.446l-1.32.3a1.237,1.237,0,0,1-.282.032" transform="translate(-1308.519 -394.175)" fill="#571519"/>
      <path id="パス_9400" data-name="パス 9400" d="M1526.571,110.733a1.256,1.256,0,0,1-1.253-1.194c-.5-10.264,7.2-13.977,13.981-17.253a60.156,60.156,0,0,0,6.129-3.25c2.3-1.468,3.362-3.376,4.591-5.584a22.866,22.866,0,0,1,5.5-7.128c5.632-4.71,26.448-12.99,39.638-8.983a15.2,15.2,0,0,1,10.822,10.746,1.255,1.255,0,1,1-2.409.7,12.82,12.82,0,0,0-9.142-9.048c-12.169-3.7-32.134,4.188-37.3,8.507a20.5,20.5,0,0,0-4.918,6.423c-1.277,2.3-2.6,4.67-5.432,6.479a61.9,61.9,0,0,1-6.389,3.4c-6.675,3.223-12.981,6.266-12.564,14.871a1.256,1.256,0,0,1-1.192,1.315h-.063" transform="translate(-1106.444 -48.077)" fill="#571519"/>
      <path id="パス_9401" data-name="パス 9401" d="M1460.686,243.452a1.257,1.257,0,0,1-.592-.148c-3.594-1.927-5.5-4.557-5.646-7.817-.387-8.348,11.375-18.02,15.942-21.043a18.763,18.763,0,0,1,2.785-1.419,10.143,10.143,0,0,0,3.408-2.021c.907-1,1.287-2.675,1.69-4.449.638-2.819,1.363-6.014,4.635-7a1.255,1.255,0,0,1,.726,2.4c-1.746.528-2.266,2.3-2.913,5.155-.456,2.012-.928,4.092-2.279,5.581a12.043,12.043,0,0,1-4.253,2.63,16.771,16.771,0,0,0-2.414,1.216c-5.886,3.9-15.116,12.457-14.819,18.834.109,2.348,1.523,4.22,4.325,5.721a1.255,1.255,0,0,1-.595,2.361" transform="translate(-1055.045 -144.714)" fill="#571519"/>
      <path id="パス_9402" data-name="パス 9402" d="M1466.332,354.608c-1.065,0-3.149-.436-4.112-3.626a1.254,1.254,0,0,1,2.4-.725c.385,1.271.97,1.863,1.791,1.84,1.434-.09,3.477-2.007,3.864-4.256.586-3.408-.316-6.216-1.271-9.189-1.358-4.231-2.763-8.606.691-14.231a1.256,1.256,0,0,1,2.14,1.314c-2.852,4.642-1.735,8.122-.442,12.15.959,2.984,2.046,6.367,1.354,10.381-.55,3.2-3.44,6.167-6.183,6.336-.071,0-.15.007-.235.007" transform="translate(-1060.65 -234.898)" fill="#571519"/>
      <path id="パス_9403" data-name="パス 9403" d="M1448.079,463.8a7.6,7.6,0,0,1-4.9-1.824,1.255,1.255,0,0,1,1.638-1.9,4.9,4.9,0,0,0,4.7.958,2.921,2.921,0,0,0,1.841-2.625c.287-2.56-1.521-4.815-3.435-7.2-2.4-3-5.13-6.4-3.578-10.853,1.582-4.537,5.194-7.043,8.687-9.467,3.6-2.5,7-4.859,7.765-9.288a1.255,1.255,0,1,1,2.473.424c-.938,5.467-4.939,8.241-8.807,10.927-3.309,2.3-6.434,4.465-7.748,8.23-1.1,3.143.879,5.605,3.166,8.457,2.149,2.683,4.374,5.456,3.972,9.053a5.4,5.4,0,0,1-3.418,4.681,6.436,6.436,0,0,1-2.354.431" transform="translate(-1046.561 -305.067)" fill="#571519"/>
      <path id="パス_9404" data-name="パス 9404" d="M1444.377,565.61a1.244,1.244,0,0,1-.592-.149c-2.864-1.536-5.968-4.726-5.292-8.661a1.255,1.255,0,1,1,2.473.426c-.422,2.451,1.708,4.79,4,6.023a1.255,1.255,0,0,1-.594,2.36" transform="translate(-1043.41 -403.144)" fill="#571519"/>
      <path id="パス_9405" data-name="パス 9405" d="M1856.916,206.274a1.255,1.255,0,0,1-.97-2.05c.515-.628,1.107-1.233,1.681-1.818,1.43-1.46,2.781-2.838,3.065-4.548.908-5.476-2.741-9.087-6.6-12.91-2.756-2.727-5.6-5.545-6.837-9.161-1.444-4.235-1.6-9.237-1.641-14-.144-18.427-1.5-31.981-17.668-38.6a13.22,13.22,0,0,0-6.9-.7,1.255,1.255,0,1,1-.6-2.438,15.7,15.7,0,0,1,8.449.817c17.57,7.187,19.08,22.122,19.227,40.9.036,4.554.184,9.326,1.506,13.206,1.043,3.057,3.562,5.549,6.227,8.186,4.147,4.1,8.436,8.348,7.315,15.105-.413,2.491-2.185,4.3-3.748,5.895-.56.571-1.089,1.109-1.532,1.651a1.253,1.253,0,0,1-.972.459" transform="translate(-1319.849 -86.889)" fill="#571519"/>
      <path id="パス_9406" data-name="パス 9406" d="M1930.7,424.395a3.727,3.727,0,0,1-.91-.115c-2.677-.687-4.671-4.178-4.787-6.882-.169-3.907,1.613-6.836,3.336-9.668,2.231-3.668,4.157-6.835,1.549-11.777a1.255,1.255,0,0,1,2.221-1.171c3.272,6.2.67,10.479-1.625,14.253-1.6,2.629-3.109,5.11-2.973,8.256.081,1.874,1.572,4.217,2.9,4.558.219.054.881.23,1.7-1.129a1.255,1.255,0,1,1,2.147,1.3c-1.163,1.919-2.528,2.374-3.563,2.374" transform="translate(-1396.385 -285.886)" fill="#571519"/>
      <path id="パス_9407" data-name="パス 9407" d="M1701.313,225.381c-.206,0-.412,0-.621-.009a1.255,1.255,0,1,1,.069-2.509c8.08.208,14.617-4.353,20.464-14.387,1.36-2.33,3.193-7.6,2.535-8.49a1.223,1.223,0,0,1-.777-1.566,1.274,1.274,0,0,1,1.608-.783,2.435,2.435,0,0,1,1.543,1.516c1.233,3.245-2.7,10.517-2.742,10.587-3.93,6.745-10.473,15.64-22.079,15.64" transform="translate(-1232.79 -143.32)" fill="#571519"/>
      <path id="パス_9408" data-name="パス 9408" d="M1623.338,256.627a1.255,1.255,0,0,1-1.094-1.868c3.409-6.093,10.716-6.271,16.587-6.413,1.26-.031,2.45-.06,3.568-.139,6.1-.429,10.232-2.053,14.268-5.6a1.255,1.255,0,1,1,1.657,1.885c-4.428,3.895-9.139,5.756-15.748,6.221-1.177.083-2.395.112-3.685.143-5.775.14-11.747.285-14.456,5.13a1.255,1.255,0,0,1-1.1.642" transform="translate(-1176.654 -175.758)" fill="#571519"/>
      <path id="パス_9409" data-name="パス 9409" d="M1615.03,259.224a1.252,1.252,0,0,1-.942-.426c-2.862-3.253-3.652-8.277-2.064-13.113,1.549-4.714,4.963-8.069,9.133-8.977a1.255,1.255,0,1,1,.534,2.452c-3.292.716-6.014,3.449-7.282,7.309-1.312,3.995-.713,8.084,1.564,10.671a1.256,1.256,0,0,1-.943,2.084" transform="translate(-1168.771 -171.684)" fill="#571519"/>
      <path id="パス_9410" data-name="パス 9410" d="M1572.218,296.818a1.255,1.255,0,0,1-1.226-.993c-1.323-6.2,3.183-10.081,7.16-13.5a41.251,41.251,0,0,0,3.5-3.246,1.255,1.255,0,1,1,1.853,1.692,43.609,43.609,0,0,1-3.716,3.455c-3.782,3.257-7.356,6.333-6.343,11.079a1.254,1.254,0,0,1-.965,1.489,1.236,1.236,0,0,1-.264.028" transform="translate(-1139.421 -202.142)" fill="#571519"/>
      <path id="パス_9411" data-name="パス 9411" d="M1820.11,273.321a1.255,1.255,0,0,1-1.191-1.65c1.5-4.53-1.885-7.706-5.805-11.384-2.918-2.736-5.935-5.568-7.053-9.252s-1.178-8.066-1.243-12.712c-.107-7.542-.216-15.342-5.115-19.682a1.255,1.255,0,1,1,1.664-1.879c5.729,5.075,5.847,13.438,5.961,21.526.063,4.463.121,8.679,1.135,12.019.923,3.043,3.69,5.639,6.368,8.15,4.167,3.91,8.477,7.953,6.47,14a1.254,1.254,0,0,1-1.191.86" transform="translate(-1305.191 -157.01)" fill="#571519"/>
      <path id="パス_9412" data-name="パス 9412" d="M1967.017,231.766a1.246,1.246,0,0,1-.4-.066c-2.456-.826-10.593-3.632-12.2-5.061a1.255,1.255,0,1,1,1.664-1.878c.657.582,4.854,2.378,11.339,4.56a1.255,1.255,0,0,1-.4,2.445" transform="translate(-1417.418 -162.81)" fill="#571519"/>
      <path id="パス_9413" data-name="パス 9413" d="M1970.688,355.791a1.255,1.255,0,0,1-.745-2.266c7.509-5.521,17.519-8.717,24.143-10.832,34.844-11.13,59.331-23.041,79.4-38.623a108.925,108.925,0,0,0,14.939-13.427c1.476-1.664,3.945-4.451,3.457-6.834-1.208-5.9-5.1-9.548-10.032-14.166l-.275-.258c-6.891-6.457-16.285-11.317-22.751-14.411-8.278-3.96-64.468-23.36-85.43-30.412a1.255,1.255,0,1,1,.8-2.379c21,7.065,77.339,26.52,85.714,30.527,6.616,3.165,16.238,8.148,23.383,14.843l.276.259c5.048,4.727,9.406,8.809,10.774,15.494.74,3.612-2.251,6.984-4.038,9a111,111,0,0,1-15.278,13.746c-20.312,15.769-45.038,27.807-80.174,39.029-6.468,2.066-16.244,5.188-23.42,10.465a1.253,1.253,0,0,1-.743.244" transform="translate(-1428.619 -161.123)" fill="#571519"/>
      <path id="パス_9414" data-name="パス 9414" d="M2046.8,378.367a1.268,1.268,0,0,1-.512-.109c-3.543-1.587-9.562-3.955-16.53-6.7-14.255-5.605-32-12.583-44.229-18.889a1.255,1.255,0,1,1,1.15-2.231c12.119,6.248,29.8,13.2,44,18.784,7,2.752,13.041,5.129,16.638,6.739a1.255,1.255,0,0,1-.515,2.4" transform="translate(-1439.804 -254.108)" fill="#571519"/>
      <path id="パス_9415" data-name="パス 9415" d="M1955.427,319.036a1.245,1.245,0,0,1-.574-.14l-17.378-8.961a1.255,1.255,0,1,1,1.151-2.231L1956,316.666a1.255,1.255,0,0,1-.576,2.37" transform="translate(-1404.945 -223.105)" fill="#571519"/>
      <path id="パス_9416" data-name="パス 9416" d="M1924.094,309.945a3.389,3.389,0,0,1-1.7-.381,1.255,1.255,0,1,1,1.24-2.181,5.919,5.919,0,0,0,1.884-.1,10.53,10.53,0,0,1,1.2-.133h.031a1.255,1.255,0,0,1,.031,2.509,8.3,8.3,0,0,0-.892.107,12.479,12.479,0,0,1-1.8.177" transform="translate(-1394.04 -222.805)" fill="#571519"/>
      <path id="パス_9417" data-name="パス 9417" d="M1857.353,143.215a1.253,1.253,0,0,1-1.07-.6c-1.669-2.715-3.267-5.533-4.811-8.259-4.842-8.541-9.849-17.373-17.615-23.886-1.686-1.412-5.738-1.86-8.7-2.186-1.06-.117-2.061-.227-2.895-.368-.093-.015-.235-.045-.414-.082-.487-.1-.885-.176-1.21-.226a15.815,15.815,0,0,0,1.841,1.393,1.255,1.255,0,0,1-1.326,2.131c-1.493-.93-4.837-3.3-3.657-5.2.8-1.29,2.762-1,4.868-.555l.317.065c.776.131,1.724.235,2.75.348,3.459.381,7.766.856,10.034,2.757,8.113,6.8,13.233,15.837,18.184,24.572,1.535,2.707,3.12,5.505,4.766,8.182a1.255,1.255,0,0,1-1.068,1.912" transform="translate(-1318.229 -76.169)" fill="#571519"/>
      <path id="パス_9418" data-name="パス 9418" d="M1819.368,94.3a1.253,1.253,0,0,1-1.07-.6c-2.134-3.471-8.161-4.43-13-5.2-1.564-.249-3.041-.484-4.3-.785a1.255,1.255,0,0,1,.583-2.441c1.166.278,2.6.506,4.111.747,5.352.851,12.01,1.911,14.748,6.364a1.255,1.255,0,0,1-1.067,1.912" transform="translate(-1305.735 -61.836)" fill="#571519"/>
      <path id="パス_9419" data-name="パス 9419" d="M1457.089,880.375a1.151,1.151,0,0,1-.115,0,1.256,1.256,0,0,1-1.136-1.364c.69-7.526,2-15.459,3.269-23.13,1.9-11.517,3.87-23.426,3.878-34.572,0-7.831-1.9-14.9-3.924-22.373-1.618-5.983-3.289-12.171-3.874-18.754a145.168,145.168,0,0,1,.011-19.274c.342-7.6.7-15.456-.473-22.992a1.255,1.255,0,1,1,2.48-.385c1.207,7.783.847,15.767.5,23.49a143.151,143.151,0,0,0-.018,18.938c.565,6.364,2.207,12.444,3.8,18.323,1.974,7.308,4.016,14.865,4.011,23.03-.007,11.35-1.992,23.362-3.912,34.977-1.26,7.628-2.563,15.514-3.244,22.949a1.255,1.255,0,0,1-1.249,1.141" transform="translate(-1055.24 -534.228)" fill="#571519"/>
      <path id="パス_9420" data-name="パス 9420" d="M1930.7,832.457a1.256,1.256,0,0,1-1.238-1.053c-.415-2.551-.932-5.6-1.5-8.964-3.073-18.124-7.716-45.514-6.831-55.185.908-9.922,3.419-17.225,5.847-24.286,2.82-8.2,5.483-15.946,5.49-27.218,0-5.139-.314-9.135-.593-12.662-.684-8.642-1.224-15.47,3.071-32.359a1.254,1.254,0,1,1,2.432.618c-4.193,16.487-3.667,23.131-3,31.544.283,3.572.6,7.623.6,12.862-.007,11.689-2.736,19.628-5.626,28.032-2.38,6.922-4.841,14.077-5.721,23.7-.856,9.347,3.755,36.541,6.807,54.537.571,3.374,1.088,6.425,1.506,8.979a1.256,1.256,0,0,1-1.037,1.441,1.285,1.285,0,0,1-.2.016" transform="translate(-1393.501 -485.857)" fill="#571519"/>
      <path id="パス_9421" data-name="パス 9421" d="M1693.856,422.8a1.255,1.255,0,0,1-.712-2.289c2.456-1.689,5.455-3.194,9.084-1.542a1.255,1.255,0,0,1-1.042,2.284c-2.35-1.074-4.276-.288-6.62,1.326a1.247,1.247,0,0,1-.71.221" transform="translate(-1227.806 -303.4)" fill="#571519"/>
      <path id="パス_9422" data-name="パス 9422" d="M1768.446,296.537a1.206,1.206,0,0,1-.134-.007c-.805-.085-1.7-.125-2.647-.168-4.04-.184-9.067-.412-11.432-4.227a1.255,1.255,0,1,1,2.133-1.323c1.668,2.691,5.783,2.878,9.413,3.043.994.045,1.933.088,2.8.18a1.255,1.255,0,0,1-.131,2.5" transform="translate(-1272.378 -210.522)" fill="#571519"/>
      <path id="パス_9423" data-name="パス 9423" d="M1743.788,292.673a1.254,1.254,0,0,1-1.121-.689,7.058,7.058,0,0,1-.741-3.7,1.256,1.256,0,0,1,1.255-1.227h.028a1.255,1.255,0,0,1,1.226,1.282,4.605,4.605,0,0,0,.472,2.514,1.255,1.255,0,0,1-1.119,1.82" transform="translate(-1263.583 -208.229)" fill="#571519"/>
      <path id="パス_9424" data-name="パス 9424" d="M663.735,534.563c-9.087,0-17.882-3.918-26.145-11.646a58.128,58.128,0,0,1-9.657-11.537,1.255,1.255,0,0,1,2.123-1.338,55.614,55.614,0,0,0,9.248,11.042c7.782,7.278,16,10.97,24.431,10.97h.013c10.343-.006,19.935-5.423,27.739-15.668a43.428,43.428,0,0,0,5.934-11.466,1.255,1.255,0,1,1,2.359.856,45.277,45.277,0,0,1-6.3,12.133c-8.3,10.89-18.578,16.65-29.734,16.656Z" transform="translate(-455.36 -365.666)" fill="#571519"/>
      <path id="パス_9425" data-name="パス 9425" d="M627.1,659.86h0a1.254,1.254,0,0,1-1.252-1.257c.019-8.163.291-26.885.6-48.562.673-46.545,1.6-110.292.882-126.749-.127-2.908-.42-6.114-.73-9.509-1.3-14.243-2.92-31.968,7.089-41.977a1.255,1.255,0,0,1,1.775,1.775c-9.178,9.178-7.618,26.253-6.365,39.973.313,3.425.608,6.661.738,9.629.718,16.53-.205,80.318-.88,126.895-.314,21.668-.585,40.382-.6,48.53a1.255,1.255,0,0,1-1.255,1.253" transform="translate(-453.828 -312.964)" fill="#571519"/>
      <path id="パス_9426" data-name="パス 9426" d="M572.444,453.223a1.341,1.341,0,0,1-.816-.269c-.574-.448-1.117-.872-.084-12.518.457-5.156,1.262-12.153,2.025-14.907.348-1.254,2.1-2.062,4.946-3.245a18.611,18.611,0,0,0,1.7-.761,39.65,39.65,0,0,0,5.846-4.767c1.195-1.107,2.429-2.249,3.752-3.3a30.627,30.627,0,0,1,5.912-3.537,1.255,1.255,0,0,1,1.107,2.253,28.468,28.468,0,0,0-5.457,3.25c-1.247.991-2.448,2.1-3.608,3.177a42.251,42.251,0,0,1-6.221,5.054,16.718,16.718,0,0,1-2.069.95,18.625,18.625,0,0,0-3.528,1.735c-1.1,4.15-2.253,16.758-2.453,22.446,4.229-5.3,8.232-9.777,11.017-8.3.945.5,1.333,1.674,1.709,2.808a7.49,7.49,0,0,0,.338.911,1.255,1.255,0,1,1-2.183,1.238,7.967,7.967,0,0,1-.538-1.358,7.922,7.922,0,0,0-.549-1.384.354.354,0,0,0-.051,0c-.8,0-2.885,1.488-8.167,8.134-1.289,1.622-1.607,2.013-1.99,2.229a1.307,1.307,0,0,1-.64.162" transform="translate(-414.173 -297.259)" fill="#571519"/>
      <path id="パス_9427" data-name="パス 9427" d="M865.192,661.666a1.255,1.255,0,0,1-1.255-1.252c-.019-8.378-.325-27.752-.68-50.185-.72-45.595-1.706-108.036-1-124.346.113-2.586.328-5.374.557-8.326,1.1-14.193,2.465-31.858-7.011-41.332a1.255,1.255,0,1,1,1.775-1.774c10.293,10.291,8.876,28.594,7.738,43.3-.227,2.93-.44,5.7-.551,8.242-.705,16.235.281,78.635,1,124.2.354,22.443.66,41.825.68,50.221a1.254,1.254,0,0,1-1.252,1.257Z" transform="translate(-620.531 -314.881)" fill="#571519"/>
      <path id="パス_9428" data-name="パス 9428" d="M882.106,457.828a1.293,1.293,0,0,1-.639-.162c-.384-.217-.7-.608-1.994-2.233-5.392-6.784-7.453-8.235-8.214-8.128a7.958,7.958,0,0,0-.551,1.386,7.9,7.9,0,0,1-.535,1.353,1.254,1.254,0,1,1-2.184-1.235,7.6,7.6,0,0,0,.336-.907c.376-1.135.765-2.309,1.711-2.811,2.786-1.482,6.788,3,11.017,8.3-.2-5.687-1.354-18.295-2.452-22.446a18.614,18.614,0,0,0-3.528-1.735,16.739,16.739,0,0,1-2.069-.948,42.285,42.285,0,0,1-6.222-5.057c-1.16-1.073-2.36-2.184-3.607-3.175a23.917,23.917,0,0,0-4.148-2.593,1.255,1.255,0,0,1,1.151-2.23,26.57,26.57,0,0,1,4.559,2.858c1.322,1.05,2.557,2.194,3.75,3.3a39.762,39.762,0,0,0,5.847,4.77c.251.156,1.022.477,1.7.76,2.845,1.183,4.6,1.991,4.945,3.245.764,2.754,1.568,9.751,2.025,14.907,1.032,11.645.49,12.069-.084,12.518a1.339,1.339,0,0,1-.816.269M878.65,431h0Z" transform="translate(-622.641 -301.084)" fill="#571519"/>
      <path id="パス_9429" data-name="パス 9429" d="M401.8,815.471a1.251,1.251,0,0,1-.993-.487c-4.047-5.227-12.78-9.845-16.648-9.636a1.255,1.255,0,1,1-.146-2.5c5-.294,14.485,5.059,18.778,10.6a1.254,1.254,0,0,1-.991,2.023" transform="translate(-277.703 -582.371)" fill="#571519"/>
      <path id="パス_9430" data-name="パス 9430" d="M430.579,891.368a1.255,1.255,0,0,1-1.124-.694c-.73-1.458-5.3-3.494-7.5-4.042a1.255,1.255,0,0,1,.608-2.436c1.213.3,7.68,2.451,9.134,5.356a1.255,1.255,0,0,1-1.121,1.816" transform="translate(-305.397 -641.366)" fill="#571519"/>
      <path id="パス_9431" data-name="パス 9431" d="M1072.181,811.5a1.255,1.255,0,0,1-.822-2.2,51.681,51.681,0,0,1,18.582-9.874,1.255,1.255,0,1,1,.648,2.424A48.926,48.926,0,0,0,1073,811.2a1.256,1.256,0,0,1-.821.305" transform="translate(-776.845 -579.867)" fill="#571519"/>
      <path id="パス_9432" data-name="パス 9432" d="M1064.8,877.865a1.255,1.255,0,0,1-1.075-1.9c1.853-3.087,5.763-5.266,9.212-7.189,1.094-.609,2.127-1.185,2.995-1.736a1.255,1.255,0,1,1,1.347,2.118c-.929.591-1.993,1.184-3.12,1.811-3.175,1.77-6.773,3.775-8.282,6.288a1.254,1.254,0,0,1-1.077.609" transform="translate(-771.493 -628.804)" fill="#571519"/>
      <path id="パス_9433" data-name="パス 9433" d="M1609.506,585.682c-5.582,0-28.2-25.816-30.764-28.763a1.255,1.255,0,1,1,1.894-1.647c13.152,15.12,26.369,27.9,28.86,27.9,3.8-.565,30.5-33.738,32.442-37.876a1.255,1.255,0,0,1,2.445.54c-.23,1.6-11.528,15.8-15.394,20.521-15.8,19.273-18.458,19.309-19.458,19.324Z" transform="translate(-1144.99 -394.907)" fill="#571519"/>
      <path id="パス_9434" data-name="パス 9434" d="M1583.057,723.813a1.255,1.255,0,0,1-1.255-1.231c-.156-8.6-1.137-32.7-2.274-60.6-2.125-52.2-4.77-117.165-4.031-128.515.506-7.775,2.868-12.207,6.83-12.818a1.255,1.255,0,0,1,.382,2.481c-3.537.545-4.467,6.813-4.707,10.5-.73,11.217,1.911,76.109,4.033,128.25,1.137,27.918,2.119,52.029,2.276,60.654a1.255,1.255,0,0,1-1.232,1.278Z" transform="translate(-1142.768 -377.666)" fill="#571519"/>
      <path id="パス_9435" data-name="パス 9435" d="M1511.176,562.6a1.254,1.254,0,0,1-1.062-.585c-.192-.305-18.147-33.055-12.629-45.382.488-1.088,2.027-1.615,5.461-2.707,2.238-.711,5.023-1.6,6.319-2.533a41.89,41.89,0,0,0,6.873-6.586c2.949-3.319,5.734-6.455,10.844-8.661a1.255,1.255,0,1,1,.995,2.3c-4.6,1.985-7.2,4.919-9.962,8.025a43.9,43.9,0,0,1-7.278,6.951c-1.622,1.175-4.5,2.087-7.03,2.892a24.268,24.268,0,0,0-3.989,1.477c-4.439,10.471,10.956,40.4,12.519,42.881a1.255,1.255,0,0,1-1.06,1.924" transform="translate(-1085.506 -359.83)" fill="#571519"/>
      <path id="パス_9436" data-name="パス 9436" d="M1793.181,723.9h-.023a1.255,1.255,0,0,1-1.231-1.278c.158-8.676,1.158-33,2.317-61.17,2.139-51.967,4.8-116.643,4.073-127.825-.24-3.688-1.171-9.955-4.708-10.5a1.255,1.255,0,1,1,.382-2.481c3.964.61,6.325,5.043,6.831,12.819.737,11.313-1.929,76.062-4.07,128.09-1.158,28.153-2.158,52.466-2.315,61.113a1.255,1.255,0,0,1-1.255,1.232" transform="translate(-1299.857 -377.666)" fill="#571519"/>
      <path id="パス_9437" data-name="パス 9437" d="M1803.644,562.606a1.255,1.255,0,0,1-1.06-1.924c1.605-2.59,12.706-43.391,8.885-55.036-.177.043-.364.091-.536.135a21.36,21.36,0,0,1-9.288.7,22.266,22.266,0,0,1-10.323-5.11,20.532,20.532,0,0,0-4.477-2.912,1.255,1.255,0,1,1,1-2.3,22.818,22.818,0,0,1,5.027,3.238,19.879,19.879,0,0,0,9.256,4.625,18.9,18.9,0,0,0,8.19-.667c1.467-.374,2.628-.667,3.139.474,5.152,11.5-7.029,55.474-8.747,58.2a1.254,1.254,0,0,1-1.062.586" transform="translate(-1295.621 -359.831)" fill="#571519"/>
      <path id="パス_9438" data-name="パス 9438" d="M1944.607,496.1a1.255,1.255,0,0,1-.471-2.418c.834-.337,1.516-1.827,1.7-3.072a4.753,4.753,0,0,0,.045-.776,1.253,1.253,0,0,1-.347-.969,1.266,1.266,0,0,1,1.351-1.152,1.494,1.494,0,0,1,1.057.569,3.729,3.729,0,0,1,.378,2.689c-.211,1.469-1.132,4.186-3.238,5.038a1.25,1.25,0,0,1-.471.092m2.075-5.885h0Z" transform="translate(-1409.7 -353.784)" fill="#571519"/>
      <path id="パス_9439" data-name="パス 9439" d="M428.045,88.118a3.1,3.1,0,0,1,2.273.6,2.554,2.554,0,0,1,.974,1.631,2.629,2.629,0,0,1-.48,1.844,3.071,3.071,0,0,1-2.028,1.222,6.915,6.915,0,0,1-3.6-.33,6.787,6.787,0,0,1-2.687-1.845,6.3,6.3,0,0,1-1.422-2.965,7.375,7.375,0,0,1,.255-3.712,12.19,12.19,0,0,1,1.275-2.723q.893-1.473,1.817-2.957t1.651-2.931a6.7,6.7,0,0,0,.778-2.752,3.486,3.486,0,0,0-.786-2.36,5.966,5.966,0,0,0-3.088-1.7l-.413.011c-.138,0-.3.015-.476.033a9.987,9.987,0,0,0-4.281,3.361,16.819,16.819,0,0,0-2.521,4.95,3.1,3.1,0,0,1-1.452,1.849,2.488,2.488,0,0,1-3.409-.956,3.109,3.109,0,0,1-.269-2.374,22.913,22.913,0,0,1,1.807-4.135,18.815,18.815,0,0,1,2.738-3.776,17.16,17.16,0,0,1,3.455-2.853,9.734,9.734,0,0,1,3.865-1.436,8.16,8.16,0,0,1,4.049.516,10.737,10.737,0,0,1,4.042,2.989,7.416,7.416,0,0,1,1.713,3,9.774,9.774,0,0,1,.332,3.22,10.7,10.7,0,0,1-.714,3.217,19.83,19.83,0,0,1-1.523,3.093,17.835,17.835,0,0,1-1.117,1.622,18.015,18.015,0,0,0-1.482,2.347,9.112,9.112,0,0,0-.9,2.415,2,2,0,0,0,.527,1.933.375.375,0,0,0,.228.055.762.762,0,0,0,.446-.021,1.317,1.317,0,0,1,.422-.084m-1.109,13.07a3.576,3.576,0,0,1,2.157-4.61,3.584,3.584,0,0,1,2.787.1,3.425,3.425,0,0,1,1.885,2.032,3.685,3.685,0,0,1-2.2,4.693,3.415,3.415,0,0,1-2.767-.145,3.581,3.581,0,0,1-1.866-2.073" transform="translate(-297.446 -46.242)" fill="#571519" fill-rule="evenodd"/>
      <path id="パス_9440" data-name="パス 9440" d="M1988.6,26.348a3.084,3.084,0,0,1,1.539,1.777,2.547,2.547,0,0,1-.111,1.9,2.633,2.633,0,0,1-1.434,1.255,3.072,3.072,0,0,1-2.364-.131,6.926,6.926,0,0,1-2.792-2.3,6.793,6.793,0,0,1-1.184-3.037,6.3,6.3,0,0,1,.492-3.251,7.38,7.38,0,0,1,2.3-2.925,12.188,12.188,0,0,1,2.586-1.537q1.566-.715,3.166-1.421t3.015-1.493a6.714,6.714,0,0,0,2.19-1.839,3.483,3.483,0,0,0,.676-2.395,5.948,5.948,0,0,0-1.6-3.141l-.348-.225c-.116-.074-.253-.154-.412-.239a9.993,9.993,0,0,0-5.429.372,16.809,16.809,0,0,0-4.87,2.676,3.1,3.1,0,0,1-2.24.712,2.489,2.489,0,0,1-2.281-2.71,3.11,3.11,0,0,1,1.113-2.113,22.9,22.9,0,0,1,3.82-2.4,18.889,18.889,0,0,1,4.387-1.583,17.18,17.18,0,0,1,4.463-.415,9.71,9.71,0,0,1,4,.986,8.158,8.158,0,0,1,3.06,2.7A10.733,10.733,0,0,1,2002,10.316a7.4,7.4,0,0,1-.27,3.442,9.794,9.794,0,0,1-1.537,2.85,10.7,10.7,0,0,1-2.4,2.259,19.858,19.858,0,0,1-3,1.7,17.777,17.777,0,0,1-1.837.714,17.984,17.984,0,0,0-2.545,1.107,9.126,9.126,0,0,0-2.1,1.489,2,2,0,0,0-.652,1.894c.063.107.115.164.158.176a.757.757,0,0,0,.38.231,1.348,1.348,0,0,1,.4.169m-8.267,10.182a3.573,3.573,0,0,1,4.377-2.6,3.582,3.582,0,0,1,2.246,1.653,3.419,3.419,0,0,1,.414,2.74,3.686,3.686,0,0,1-4.456,2.645,3.426,3.426,0,0,1-2.206-1.676,3.584,3.584,0,0,1-.375-2.764" transform="translate(-1435.918 -1.353)" fill="#571519" fill-rule="evenodd"/>
      <path id="パス_9441" data-name="パス 9441" d="M1974.735,259.429a5.485,5.485,0,0,1-4.032-1.944,9.952,9.952,0,0,1-2.07-4.351c-.1-.373-.207-.746-.324-1.111a1.255,1.255,0,1,1,2.387-.772c.128.4.242.8.355,1.209a7.761,7.761,0,0,0,1.5,3.323,2.741,2.741,0,0,0,2.766,1.064c1.593-.393,3.286-2.36,3.853-4.477,2.094-7.832,1.63-14.815-1.423-21.347-1.235-2.644-4.063-6.561-5.943-6.728-.2-.017-.741-.067-1.42.9a1.255,1.255,0,0,1-2.051-1.447,3.969,3.969,0,0,1,3.695-1.951c4.308.383,7.957,8.088,7.994,8.166,3.313,7.089,3.827,14.632,1.572,23.059-.694,2.59-2.867,5.573-5.676,6.265a4.888,4.888,0,0,1-1.18.146" transform="translate(-1427.653 -160.877)" fill="#571519"/>
    </g>
  </g>
</svg>
